%TF.GenerationSoftware,KiCad,Pcbnew,(6.0.10)*%
%TF.CreationDate,2023-01-27T03:25:04+09:00*%
%TF.ProjectId,AstroPix_telescope,41737472-6f50-4697-985f-74656c657363,1.1*%
%TF.SameCoordinates,Original*%
%TF.FileFunction,AssemblyDrawing,Bot*%
%FSLAX46Y46*%
G04 Gerber Fmt 4.6, Leading zero omitted, Abs format (unit mm)*
G04 Created by KiCad (PCBNEW (6.0.10)) date 2023-01-27 03:25:04*
%MOMM*%
%LPD*%
G01*
G04 APERTURE LIST*
%ADD10C,0.150000*%
%ADD11C,0.100000*%
%ADD12C,0.200000*%
G04 APERTURE END LIST*
D10*
%TO.C,J4*%
X160433095Y-71081666D02*
X159956904Y-71081666D01*
X160528333Y-71367380D02*
X160195000Y-70367380D01*
X159861666Y-71367380D01*
X159575952Y-71319761D02*
X159480714Y-71367380D01*
X159290238Y-71367380D01*
X159195000Y-71319761D01*
X159147380Y-71224523D01*
X159147380Y-71176904D01*
X159195000Y-71081666D01*
X159290238Y-71034047D01*
X159433095Y-71034047D01*
X159528333Y-70986428D01*
X159575952Y-70891190D01*
X159575952Y-70843571D01*
X159528333Y-70748333D01*
X159433095Y-70700714D01*
X159290238Y-70700714D01*
X159195000Y-70748333D01*
X158861666Y-70700714D02*
X158480714Y-70700714D01*
X158718809Y-70367380D02*
X158718809Y-71224523D01*
X158671190Y-71319761D01*
X158575952Y-71367380D01*
X158480714Y-71367380D01*
X158147380Y-71367380D02*
X158147380Y-70700714D01*
X158147380Y-70891190D02*
X158099761Y-70795952D01*
X158052142Y-70748333D01*
X157956904Y-70700714D01*
X157861666Y-70700714D01*
X157385476Y-71367380D02*
X157480714Y-71319761D01*
X157528333Y-71272142D01*
X157575952Y-71176904D01*
X157575952Y-70891190D01*
X157528333Y-70795952D01*
X157480714Y-70748333D01*
X157385476Y-70700714D01*
X157242619Y-70700714D01*
X157147380Y-70748333D01*
X157099761Y-70795952D01*
X157052142Y-70891190D01*
X157052142Y-71176904D01*
X157099761Y-71272142D01*
X157147380Y-71319761D01*
X157242619Y-71367380D01*
X157385476Y-71367380D01*
X156623571Y-71367380D02*
X156623571Y-70367380D01*
X156242619Y-70367380D01*
X156147380Y-70415000D01*
X156099761Y-70462619D01*
X156052142Y-70557857D01*
X156052142Y-70700714D01*
X156099761Y-70795952D01*
X156147380Y-70843571D01*
X156242619Y-70891190D01*
X156623571Y-70891190D01*
X155623571Y-71367380D02*
X155623571Y-70700714D01*
X155623571Y-70367380D02*
X155671190Y-70415000D01*
X155623571Y-70462619D01*
X155575952Y-70415000D01*
X155623571Y-70367380D01*
X155623571Y-70462619D01*
X155242619Y-71367380D02*
X154718809Y-70700714D01*
X155242619Y-70700714D02*
X154718809Y-71367380D01*
X154385476Y-70462619D02*
X154337857Y-70415000D01*
X154242619Y-70367380D01*
X154004523Y-70367380D01*
X153909285Y-70415000D01*
X153861666Y-70462619D01*
X153814047Y-70557857D01*
X153814047Y-70653095D01*
X153861666Y-70795952D01*
X154433095Y-71367380D01*
X153814047Y-71367380D01*
X153623571Y-71462619D02*
X152861666Y-71462619D01*
X152623571Y-70700714D02*
X152623571Y-71700714D01*
X152623571Y-70748333D02*
X152528333Y-70700714D01*
X152337857Y-70700714D01*
X152242619Y-70748333D01*
X152195000Y-70795952D01*
X152147380Y-70891190D01*
X152147380Y-71176904D01*
X152195000Y-71272142D01*
X152242619Y-71319761D01*
X152337857Y-71367380D01*
X152528333Y-71367380D01*
X152623571Y-71319761D01*
X151290238Y-71319761D02*
X151385476Y-71367380D01*
X151575952Y-71367380D01*
X151671190Y-71319761D01*
X151718809Y-71272142D01*
X151766428Y-71176904D01*
X151766428Y-70891190D01*
X151718809Y-70795952D01*
X151671190Y-70748333D01*
X151575952Y-70700714D01*
X151385476Y-70700714D01*
X151290238Y-70748333D01*
X150861666Y-71367380D02*
X150861666Y-70700714D01*
X150861666Y-70367380D02*
X150909285Y-70415000D01*
X150861666Y-70462619D01*
X150814047Y-70415000D01*
X150861666Y-70367380D01*
X150861666Y-70462619D01*
X150004523Y-71319761D02*
X150099761Y-71367380D01*
X150290238Y-71367380D01*
X150385476Y-71319761D01*
X150433095Y-71224523D01*
X150433095Y-70843571D01*
X150385476Y-70748333D01*
X150290238Y-70700714D01*
X150099761Y-70700714D01*
X150004523Y-70748333D01*
X149956904Y-70843571D01*
X149956904Y-70938809D01*
X150433095Y-71034047D01*
%TO.C,J3*%
X160433095Y-91081666D02*
X159956904Y-91081666D01*
X160528333Y-91367380D02*
X160195000Y-90367380D01*
X159861666Y-91367380D01*
X159575952Y-91319761D02*
X159480714Y-91367380D01*
X159290238Y-91367380D01*
X159195000Y-91319761D01*
X159147380Y-91224523D01*
X159147380Y-91176904D01*
X159195000Y-91081666D01*
X159290238Y-91034047D01*
X159433095Y-91034047D01*
X159528333Y-90986428D01*
X159575952Y-90891190D01*
X159575952Y-90843571D01*
X159528333Y-90748333D01*
X159433095Y-90700714D01*
X159290238Y-90700714D01*
X159195000Y-90748333D01*
X158861666Y-90700714D02*
X158480714Y-90700714D01*
X158718809Y-90367380D02*
X158718809Y-91224523D01*
X158671190Y-91319761D01*
X158575952Y-91367380D01*
X158480714Y-91367380D01*
X158147380Y-91367380D02*
X158147380Y-90700714D01*
X158147380Y-90891190D02*
X158099761Y-90795952D01*
X158052142Y-90748333D01*
X157956904Y-90700714D01*
X157861666Y-90700714D01*
X157385476Y-91367380D02*
X157480714Y-91319761D01*
X157528333Y-91272142D01*
X157575952Y-91176904D01*
X157575952Y-90891190D01*
X157528333Y-90795952D01*
X157480714Y-90748333D01*
X157385476Y-90700714D01*
X157242619Y-90700714D01*
X157147380Y-90748333D01*
X157099761Y-90795952D01*
X157052142Y-90891190D01*
X157052142Y-91176904D01*
X157099761Y-91272142D01*
X157147380Y-91319761D01*
X157242619Y-91367380D01*
X157385476Y-91367380D01*
X156623571Y-91367380D02*
X156623571Y-90367380D01*
X156242619Y-90367380D01*
X156147380Y-90415000D01*
X156099761Y-90462619D01*
X156052142Y-90557857D01*
X156052142Y-90700714D01*
X156099761Y-90795952D01*
X156147380Y-90843571D01*
X156242619Y-90891190D01*
X156623571Y-90891190D01*
X155623571Y-91367380D02*
X155623571Y-90700714D01*
X155623571Y-90367380D02*
X155671190Y-90415000D01*
X155623571Y-90462619D01*
X155575952Y-90415000D01*
X155623571Y-90367380D01*
X155623571Y-90462619D01*
X155242619Y-91367380D02*
X154718809Y-90700714D01*
X155242619Y-90700714D02*
X154718809Y-91367380D01*
X154385476Y-90462619D02*
X154337857Y-90415000D01*
X154242619Y-90367380D01*
X154004523Y-90367380D01*
X153909285Y-90415000D01*
X153861666Y-90462619D01*
X153814047Y-90557857D01*
X153814047Y-90653095D01*
X153861666Y-90795952D01*
X154433095Y-91367380D01*
X153814047Y-91367380D01*
X153623571Y-91462619D02*
X152861666Y-91462619D01*
X152623571Y-90700714D02*
X152623571Y-91700714D01*
X152623571Y-90748333D02*
X152528333Y-90700714D01*
X152337857Y-90700714D01*
X152242619Y-90748333D01*
X152195000Y-90795952D01*
X152147380Y-90891190D01*
X152147380Y-91176904D01*
X152195000Y-91272142D01*
X152242619Y-91319761D01*
X152337857Y-91367380D01*
X152528333Y-91367380D01*
X152623571Y-91319761D01*
X151290238Y-91319761D02*
X151385476Y-91367380D01*
X151575952Y-91367380D01*
X151671190Y-91319761D01*
X151718809Y-91272142D01*
X151766428Y-91176904D01*
X151766428Y-90891190D01*
X151718809Y-90795952D01*
X151671190Y-90748333D01*
X151575952Y-90700714D01*
X151385476Y-90700714D01*
X151290238Y-90748333D01*
X150861666Y-91367380D02*
X150861666Y-90700714D01*
X150861666Y-90367380D02*
X150909285Y-90415000D01*
X150861666Y-90462619D01*
X150814047Y-90415000D01*
X150861666Y-90367380D01*
X150861666Y-90462619D01*
X150004523Y-91319761D02*
X150099761Y-91367380D01*
X150290238Y-91367380D01*
X150385476Y-91319761D01*
X150433095Y-91224523D01*
X150433095Y-90843571D01*
X150385476Y-90748333D01*
X150290238Y-90700714D01*
X150099761Y-90700714D01*
X150004523Y-90748333D01*
X149956904Y-90843571D01*
X149956904Y-90938809D01*
X150433095Y-91034047D01*
%TO.C,J1*%
X160433095Y-131081666D02*
X159956904Y-131081666D01*
X160528333Y-131367380D02*
X160195000Y-130367380D01*
X159861666Y-131367380D01*
X159575952Y-131319761D02*
X159480714Y-131367380D01*
X159290238Y-131367380D01*
X159195000Y-131319761D01*
X159147380Y-131224523D01*
X159147380Y-131176904D01*
X159195000Y-131081666D01*
X159290238Y-131034047D01*
X159433095Y-131034047D01*
X159528333Y-130986428D01*
X159575952Y-130891190D01*
X159575952Y-130843571D01*
X159528333Y-130748333D01*
X159433095Y-130700714D01*
X159290238Y-130700714D01*
X159195000Y-130748333D01*
X158861666Y-130700714D02*
X158480714Y-130700714D01*
X158718809Y-130367380D02*
X158718809Y-131224523D01*
X158671190Y-131319761D01*
X158575952Y-131367380D01*
X158480714Y-131367380D01*
X158147380Y-131367380D02*
X158147380Y-130700714D01*
X158147380Y-130891190D02*
X158099761Y-130795952D01*
X158052142Y-130748333D01*
X157956904Y-130700714D01*
X157861666Y-130700714D01*
X157385476Y-131367380D02*
X157480714Y-131319761D01*
X157528333Y-131272142D01*
X157575952Y-131176904D01*
X157575952Y-130891190D01*
X157528333Y-130795952D01*
X157480714Y-130748333D01*
X157385476Y-130700714D01*
X157242619Y-130700714D01*
X157147380Y-130748333D01*
X157099761Y-130795952D01*
X157052142Y-130891190D01*
X157052142Y-131176904D01*
X157099761Y-131272142D01*
X157147380Y-131319761D01*
X157242619Y-131367380D01*
X157385476Y-131367380D01*
X156623571Y-131367380D02*
X156623571Y-130367380D01*
X156242619Y-130367380D01*
X156147380Y-130415000D01*
X156099761Y-130462619D01*
X156052142Y-130557857D01*
X156052142Y-130700714D01*
X156099761Y-130795952D01*
X156147380Y-130843571D01*
X156242619Y-130891190D01*
X156623571Y-130891190D01*
X155623571Y-131367380D02*
X155623571Y-130700714D01*
X155623571Y-130367380D02*
X155671190Y-130415000D01*
X155623571Y-130462619D01*
X155575952Y-130415000D01*
X155623571Y-130367380D01*
X155623571Y-130462619D01*
X155242619Y-131367380D02*
X154718809Y-130700714D01*
X155242619Y-130700714D02*
X154718809Y-131367380D01*
X154385476Y-130462619D02*
X154337857Y-130415000D01*
X154242619Y-130367380D01*
X154004523Y-130367380D01*
X153909285Y-130415000D01*
X153861666Y-130462619D01*
X153814047Y-130557857D01*
X153814047Y-130653095D01*
X153861666Y-130795952D01*
X154433095Y-131367380D01*
X153814047Y-131367380D01*
X153623571Y-131462619D02*
X152861666Y-131462619D01*
X152623571Y-130700714D02*
X152623571Y-131700714D01*
X152623571Y-130748333D02*
X152528333Y-130700714D01*
X152337857Y-130700714D01*
X152242619Y-130748333D01*
X152195000Y-130795952D01*
X152147380Y-130891190D01*
X152147380Y-131176904D01*
X152195000Y-131272142D01*
X152242619Y-131319761D01*
X152337857Y-131367380D01*
X152528333Y-131367380D01*
X152623571Y-131319761D01*
X151290238Y-131319761D02*
X151385476Y-131367380D01*
X151575952Y-131367380D01*
X151671190Y-131319761D01*
X151718809Y-131272142D01*
X151766428Y-131176904D01*
X151766428Y-130891190D01*
X151718809Y-130795952D01*
X151671190Y-130748333D01*
X151575952Y-130700714D01*
X151385476Y-130700714D01*
X151290238Y-130748333D01*
X150861666Y-131367380D02*
X150861666Y-130700714D01*
X150861666Y-130367380D02*
X150909285Y-130415000D01*
X150861666Y-130462619D01*
X150814047Y-130415000D01*
X150861666Y-130367380D01*
X150861666Y-130462619D01*
X150004523Y-131319761D02*
X150099761Y-131367380D01*
X150290238Y-131367380D01*
X150385476Y-131319761D01*
X150433095Y-131224523D01*
X150433095Y-130843571D01*
X150385476Y-130748333D01*
X150290238Y-130700714D01*
X150099761Y-130700714D01*
X150004523Y-130748333D01*
X149956904Y-130843571D01*
X149956904Y-130938809D01*
X150433095Y-131034047D01*
%TO.C,J2*%
X160433095Y-111081666D02*
X159956904Y-111081666D01*
X160528333Y-111367380D02*
X160195000Y-110367380D01*
X159861666Y-111367380D01*
X159575952Y-111319761D02*
X159480714Y-111367380D01*
X159290238Y-111367380D01*
X159195000Y-111319761D01*
X159147380Y-111224523D01*
X159147380Y-111176904D01*
X159195000Y-111081666D01*
X159290238Y-111034047D01*
X159433095Y-111034047D01*
X159528333Y-110986428D01*
X159575952Y-110891190D01*
X159575952Y-110843571D01*
X159528333Y-110748333D01*
X159433095Y-110700714D01*
X159290238Y-110700714D01*
X159195000Y-110748333D01*
X158861666Y-110700714D02*
X158480714Y-110700714D01*
X158718809Y-110367380D02*
X158718809Y-111224523D01*
X158671190Y-111319761D01*
X158575952Y-111367380D01*
X158480714Y-111367380D01*
X158147380Y-111367380D02*
X158147380Y-110700714D01*
X158147380Y-110891190D02*
X158099761Y-110795952D01*
X158052142Y-110748333D01*
X157956904Y-110700714D01*
X157861666Y-110700714D01*
X157385476Y-111367380D02*
X157480714Y-111319761D01*
X157528333Y-111272142D01*
X157575952Y-111176904D01*
X157575952Y-110891190D01*
X157528333Y-110795952D01*
X157480714Y-110748333D01*
X157385476Y-110700714D01*
X157242619Y-110700714D01*
X157147380Y-110748333D01*
X157099761Y-110795952D01*
X157052142Y-110891190D01*
X157052142Y-111176904D01*
X157099761Y-111272142D01*
X157147380Y-111319761D01*
X157242619Y-111367380D01*
X157385476Y-111367380D01*
X156623571Y-111367380D02*
X156623571Y-110367380D01*
X156242619Y-110367380D01*
X156147380Y-110415000D01*
X156099761Y-110462619D01*
X156052142Y-110557857D01*
X156052142Y-110700714D01*
X156099761Y-110795952D01*
X156147380Y-110843571D01*
X156242619Y-110891190D01*
X156623571Y-110891190D01*
X155623571Y-111367380D02*
X155623571Y-110700714D01*
X155623571Y-110367380D02*
X155671190Y-110415000D01*
X155623571Y-110462619D01*
X155575952Y-110415000D01*
X155623571Y-110367380D01*
X155623571Y-110462619D01*
X155242619Y-111367380D02*
X154718809Y-110700714D01*
X155242619Y-110700714D02*
X154718809Y-111367380D01*
X154385476Y-110462619D02*
X154337857Y-110415000D01*
X154242619Y-110367380D01*
X154004523Y-110367380D01*
X153909285Y-110415000D01*
X153861666Y-110462619D01*
X153814047Y-110557857D01*
X153814047Y-110653095D01*
X153861666Y-110795952D01*
X154433095Y-111367380D01*
X153814047Y-111367380D01*
X153623571Y-111462619D02*
X152861666Y-111462619D01*
X152623571Y-110700714D02*
X152623571Y-111700714D01*
X152623571Y-110748333D02*
X152528333Y-110700714D01*
X152337857Y-110700714D01*
X152242619Y-110748333D01*
X152195000Y-110795952D01*
X152147380Y-110891190D01*
X152147380Y-111176904D01*
X152195000Y-111272142D01*
X152242619Y-111319761D01*
X152337857Y-111367380D01*
X152528333Y-111367380D01*
X152623571Y-111319761D01*
X151290238Y-111319761D02*
X151385476Y-111367380D01*
X151575952Y-111367380D01*
X151671190Y-111319761D01*
X151718809Y-111272142D01*
X151766428Y-111176904D01*
X151766428Y-110891190D01*
X151718809Y-110795952D01*
X151671190Y-110748333D01*
X151575952Y-110700714D01*
X151385476Y-110700714D01*
X151290238Y-110748333D01*
X150861666Y-111367380D02*
X150861666Y-110700714D01*
X150861666Y-110367380D02*
X150909285Y-110415000D01*
X150861666Y-110462619D01*
X150814047Y-110415000D01*
X150861666Y-110367380D01*
X150861666Y-110462619D01*
X150004523Y-111319761D02*
X150099761Y-111367380D01*
X150290238Y-111367380D01*
X150385476Y-111319761D01*
X150433095Y-111224523D01*
X150433095Y-110843571D01*
X150385476Y-110748333D01*
X150290238Y-110700714D01*
X150099761Y-110700714D01*
X150004523Y-110748333D01*
X149956904Y-110843571D01*
X149956904Y-110938809D01*
X150433095Y-111034047D01*
D11*
%TO.C,J4*%
X115260000Y-69665000D02*
X171260000Y-69665000D01*
X115260000Y-61065000D02*
X115260000Y-69665000D01*
X171260000Y-69665000D02*
X171260000Y-61065000D01*
X171260000Y-61065000D02*
X115260000Y-61065000D01*
D12*
X114610000Y-67150000D02*
G75*
G03*
X114610000Y-67150000I-100000J0D01*
G01*
D11*
%TO.C,J3*%
X115260000Y-89665000D02*
X171260000Y-89665000D01*
X171260000Y-89665000D02*
X171260000Y-81065000D01*
X115260000Y-81065000D02*
X115260000Y-89665000D01*
X171260000Y-81065000D02*
X115260000Y-81065000D01*
D12*
X114610000Y-87150000D02*
G75*
G03*
X114610000Y-87150000I-100000J0D01*
G01*
D11*
%TO.C,J1*%
X115260000Y-121065000D02*
X115260000Y-129665000D01*
X115260000Y-129665000D02*
X171260000Y-129665000D01*
X171260000Y-121065000D02*
X115260000Y-121065000D01*
X171260000Y-129665000D02*
X171260000Y-121065000D01*
D12*
X114610000Y-127150000D02*
G75*
G03*
X114610000Y-127150000I-100000J0D01*
G01*
D11*
%TO.C,J2*%
X171260000Y-109665000D02*
X171260000Y-101065000D01*
X115260000Y-101065000D02*
X115260000Y-109665000D01*
X115260000Y-109665000D02*
X171260000Y-109665000D01*
X171260000Y-101065000D02*
X115260000Y-101065000D01*
D12*
X114610000Y-107150000D02*
G75*
G03*
X114610000Y-107150000I-100000J0D01*
G01*
%TD*%
M02*
