%TF.GenerationSoftware,KiCad,Pcbnew,(6.0.10)*%
%TF.CreationDate,2023-01-26T07:58:06+09:00*%
%TF.ProjectId,AstroPix_telescope,41737472-6f50-4697-985f-74656c657363,1.1*%
%TF.SameCoordinates,Original*%
%TF.FileFunction,Copper,L1,Top*%
%TF.FilePolarity,Positive*%
%FSLAX46Y46*%
G04 Gerber Fmt 4.6, Leading zero omitted, Abs format (unit mm)*
G04 Created by KiCad (PCBNEW (6.0.10)) date 2023-01-26 07:58:06*
%MOMM*%
%LPD*%
G01*
G04 APERTURE LIST*
G04 Aperture macros list*
%AMRoundRect*
0 Rectangle with rounded corners*
0 $1 Rounding radius*
0 $2 $3 $4 $5 $6 $7 $8 $9 X,Y pos of 4 corners*
0 Add a 4 corners polygon primitive as box body*
4,1,4,$2,$3,$4,$5,$6,$7,$8,$9,$2,$3,0*
0 Add four circle primitives for the rounded corners*
1,1,$1+$1,$2,$3*
1,1,$1+$1,$4,$5*
1,1,$1+$1,$6,$7*
1,1,$1+$1,$8,$9*
0 Add four rect primitives between the rounded corners*
20,1,$1+$1,$2,$3,$4,$5,0*
20,1,$1+$1,$4,$5,$6,$7,0*
20,1,$1+$1,$6,$7,$8,$9,0*
20,1,$1+$1,$8,$9,$2,$3,0*%
%AMFreePoly0*
4,1,17,1.174443,2.785355,2.785356,1.174443,2.800000,1.139088,2.800000,-1.139088,2.785356,-1.174443,1.174443,-2.785355,1.139088,-2.800000,-1.139088,-2.800000,-1.174443,-2.785356,-2.785355,-1.174443,-2.800000,-1.139088,-2.800000,1.139088,-2.785355,1.174443,-1.174443,2.785356,-1.139088,2.800000,1.139088,2.800000,1.174443,2.785355,1.174443,2.785355,$1*%
G04 Aperture macros list end*
%TA.AperFunction,SMDPad,CuDef*%
%ADD10RoundRect,0.200000X-0.200000X-0.275000X0.200000X-0.275000X0.200000X0.275000X-0.200000X0.275000X0*%
%TD*%
%TA.AperFunction,ComponentPad*%
%ADD11FreePoly0,0.000000*%
%TD*%
%TA.AperFunction,SMDPad,CuDef*%
%ADD12RoundRect,0.200000X-0.275000X0.200000X-0.275000X-0.200000X0.275000X-0.200000X0.275000X0.200000X0*%
%TD*%
%TA.AperFunction,ConnectorPad*%
%ADD13R,0.700000X4.300000*%
%TD*%
%TA.AperFunction,ConnectorPad*%
%ADD14R,0.700000X3.200000*%
%TD*%
%TA.AperFunction,ComponentPad*%
%ADD15R,1.208000X1.208000*%
%TD*%
%TA.AperFunction,ComponentPad*%
%ADD16C,1.208000*%
%TD*%
%TA.AperFunction,ViaPad*%
%ADD17C,0.600000*%
%TD*%
%TA.AperFunction,ViaPad*%
%ADD18C,0.800000*%
%TD*%
%TA.AperFunction,Conductor*%
%ADD19C,0.200000*%
%TD*%
%TA.AperFunction,Conductor*%
%ADD20C,0.250000*%
%TD*%
%TA.AperFunction,Conductor*%
%ADD21C,1.000000*%
%TD*%
G04 APERTURE END LIST*
D10*
%TO.P,R1,1*%
%TO.N,/spi1_miso0*%
X139175000Y-98500000D03*
%TO.P,R1,2*%
%TO.N,GND*%
X140825000Y-98500000D03*
%TD*%
D11*
%TO.P,H2,1*%
%TO.N,N/C*%
X106500000Y-44665000D03*
%TD*%
D12*
%TO.P,R6,1*%
%TO.N,/spi3_miso1*%
X136000000Y-58975000D03*
%TO.P,R6,2*%
%TO.N,GND*%
X136000000Y-60625000D03*
%TD*%
%TO.P,R4,1*%
%TO.N,/spi2_miso1*%
X136000000Y-78475000D03*
%TO.P,R4,2*%
%TO.N,GND*%
X136000000Y-80125000D03*
%TD*%
D10*
%TO.P,R3,1*%
%TO.N,/spi2_miso0*%
X139850000Y-78500000D03*
%TO.P,R3,2*%
%TO.N,GND*%
X141500000Y-78500000D03*
%TD*%
D12*
%TO.P,R2,1*%
%TO.N,/spi1_miso1*%
X135000000Y-98475000D03*
%TO.P,R2,2*%
%TO.N,GND*%
X135000000Y-100125000D03*
%TD*%
D11*
%TO.P,H1,1*%
%TO.N,N/C*%
X182500000Y-44665000D03*
%TD*%
D13*
%TO.P,P1,B1,HV*%
%TO.N,-HV*%
X103000000Y-141665000D03*
%TO.P,P1,B2*%
%TO.N,N/C*%
X104000000Y-141665000D03*
%TO.P,P1,B3,VDD18*%
%TO.N,/VDD18_in*%
X105000000Y-141665000D03*
%TO.P,P1,B4,VDD18*%
X106000000Y-141665000D03*
%TO.P,P1,B5,POW4*%
%TO.N,/POW4_in*%
X107000000Y-141665000D03*
%TO.P,P1,B6,POW4*%
X108000000Y-141665000D03*
%TO.P,P1,B7,POW6*%
%TO.N,VDDA*%
X109000000Y-141665000D03*
%TO.P,P1,B8,POW6*%
X110000000Y-141665000D03*
%TO.P,P1,B9,POW8*%
%TO.N,VSSA*%
X111000000Y-141665000D03*
%TO.P,P1,B10,POW8*%
X112000000Y-141665000D03*
%TO.P,P1,B11,GND*%
%TO.N,GND*%
X113000000Y-141665000D03*
%TO.P,P1,B12,C1_4*%
%TO.N,unconnected-(P1-PadB12)*%
X116000000Y-141665000D03*
%TO.P,P1,B13,C1_3*%
%TO.N,unconnected-(P1-PadB13)*%
X117000000Y-141665000D03*
%TO.P,P1,B14,C1_8*%
%TO.N,unconnected-(P1-PadB14)*%
X118000000Y-141665000D03*
%TO.P,P1,B15,C1_7*%
%TO.N,unconnected-(P1-PadB15)*%
X119000000Y-141665000D03*
%TO.P,P1,B16,FMC_LA24_P*%
%TO.N,/sample_clock_se_P*%
X120000000Y-141665000D03*
%TO.P,P1,B17,FMC_LA24_N*%
%TO.N,/sample_clock_se_N*%
X121000000Y-141665000D03*
%TO.P,P1,B18,FMC_LA22_P*%
%TO.N,/sample_clk1_P*%
X122000000Y-141665000D03*
%TO.P,P1,B19,FMC_LA22_N*%
%TO.N,/sample_clk1_N*%
X123000000Y-141665000D03*
%TO.P,P1,B20,FMC_LA20_P*%
%TO.N,/hold*%
X124000000Y-141665000D03*
%TO.P,P1,B21,FMC_LA20_N*%
%TO.N,/timestamp_clk*%
X125000000Y-141665000D03*
%TO.P,P1,B22,FMC_LA18_CC_P*%
%TO.N,/interrupt*%
X126000000Y-141665000D03*
%TO.P,P1,B23,FMC_LA18_CC_N*%
%TO.N,/res_n*%
X127000000Y-141665000D03*
%TO.P,P1,B24,C2_4*%
%TO.N,/sr_ld*%
X128000000Y-141665000D03*
%TO.P,P1,B25,C2_3*%
%TO.N,/sr_sin*%
X129000000Y-141665000D03*
%TO.P,P1,B26,C2_8*%
%TO.N,unconnected-(P1-PadB26)*%
X130000000Y-141665000D03*
%TO.P,P1,B27,C2_7*%
%TO.N,unconnected-(P1-PadB27)*%
X131000000Y-141665000D03*
%TO.P,P1,B28,C3_4*%
%TO.N,unconnected-(P1-PadB28)*%
X132000000Y-141665000D03*
%TO.P,P1,B29,C3_3*%
%TO.N,unconnected-(P1-PadB29)*%
X133000000Y-141665000D03*
%TO.P,P1,B30,C3_8*%
%TO.N,unconnected-(P1-PadB30)*%
X134000000Y-141665000D03*
%TO.P,P1,B31,C3_7*%
%TO.N,unconnected-(P1-PadB31)*%
X135000000Y-141665000D03*
%TO.P,P1,B32,C4_4*%
%TO.N,/DAC_blpix*%
X136000000Y-141665000D03*
%TO.P,P1,B33,C4_3*%
%TO.N,/DAC_VCasc2!*%
X137000000Y-141665000D03*
%TO.P,P1,B34,C4_8*%
%TO.N,/DAC_ThPix*%
X138000000Y-141665000D03*
%TO.P,P1,B35,C4_7*%
%TO.N,/DAC_vminuspix*%
X139000000Y-141665000D03*
%TO.P,P1,B36,C5_4*%
%TO.N,unconnected-(P1-PadB36)*%
X140000000Y-141665000D03*
%TO.P,P1,B37,C5_3*%
%TO.N,unconnected-(P1-PadB37)*%
X141000000Y-141665000D03*
%TO.P,P1,B38,C5_8*%
%TO.N,unconnected-(P1-PadB38)*%
X142000000Y-141665000D03*
%TO.P,P1,B39,C5_7*%
%TO.N,unconnected-(P1-PadB39)*%
X143000000Y-141665000D03*
%TO.P,P1,B40,FMC_LA16_P*%
%TO.N,/sample_clk0_N*%
X144000000Y-141665000D03*
%TO.P,P1,B41,FMC_LA16_N*%
%TO.N,/sample_clk0_P*%
X145000000Y-141665000D03*
%TO.P,P1,B42,FMC_LA14_P*%
%TO.N,/sample_clk2_N*%
X146000000Y-141665000D03*
%TO.P,P1,B43,FMC_LA14_N*%
%TO.N,/sample_clk2_P*%
X147000000Y-141665000D03*
%TO.P,P1,B44,FMC_LA12_P*%
%TO.N,/sample_clk3_N*%
X148000000Y-141665000D03*
%TO.P,P1,B45,FMC_LA12_N*%
%TO.N,/sample_clk3_P*%
X149000000Y-141665000D03*
%TO.P,P1,B46,FMC_LA10_P*%
%TO.N,/sample_clk4_N*%
X150000000Y-141665000D03*
%TO.P,P1,B47,FMC_LA10_N*%
%TO.N,/sample_clk4_P*%
X151000000Y-141665000D03*
%TO.P,P1,B48,FMC_LA08_P*%
%TO.N,unconnected-(P1-PadB48)*%
X152000000Y-141665000D03*
%TO.P,P1,B49,FMC_LA08_N*%
%TO.N,unconnected-(P1-PadB49)*%
X153000000Y-141665000D03*
%TO.P,P1,B50*%
%TO.N,N/C*%
X154000000Y-141665000D03*
%TO.P,P1,B51*%
X155000000Y-141665000D03*
%TO.P,P1,B52*%
X156000000Y-141665000D03*
%TO.P,P1,B53*%
X157000000Y-141665000D03*
%TO.P,P1,B54*%
X158000000Y-141665000D03*
%TO.P,P1,B55*%
X159000000Y-141665000D03*
%TO.P,P1,B56*%
X160000000Y-141665000D03*
%TO.P,P1,B57*%
X161000000Y-141665000D03*
%TO.P,P1,B58*%
X162000000Y-141665000D03*
%TO.P,P1,B59*%
X163000000Y-141665000D03*
%TO.P,P1,B60*%
X164000000Y-141665000D03*
%TO.P,P1,B61*%
X165000000Y-141665000D03*
%TO.P,P1,B62*%
X166000000Y-141665000D03*
%TO.P,P1,B63*%
X167000000Y-141665000D03*
%TO.P,P1,B64*%
X168000000Y-141665000D03*
%TO.P,P1,B65*%
X169000000Y-141665000D03*
%TO.P,P1,B66*%
X170000000Y-141665000D03*
%TO.P,P1,B67*%
X171000000Y-141665000D03*
%TO.P,P1,B68*%
X172000000Y-141665000D03*
%TO.P,P1,B69*%
X173000000Y-141665000D03*
%TO.P,P1,B70*%
X174000000Y-141665000D03*
%TO.P,P1,B71*%
X175000000Y-141665000D03*
%TO.P,P1,B72*%
X176000000Y-141665000D03*
%TO.P,P1,B73*%
X177000000Y-141665000D03*
%TO.P,P1,B74*%
X178000000Y-141665000D03*
%TO.P,P1,B75*%
X179000000Y-141665000D03*
%TO.P,P1,B76*%
X180000000Y-141665000D03*
%TO.P,P1,B77*%
X181000000Y-141665000D03*
%TO.P,P1,B78*%
X182000000Y-141665000D03*
%TO.P,P1,B79*%
X183000000Y-141665000D03*
%TO.P,P1,B80*%
X184000000Y-141665000D03*
D14*
%TO.P,P1,B81*%
X185000000Y-141115000D03*
D13*
%TO.P,P1,B82*%
X186000000Y-141665000D03*
%TD*%
D10*
%TO.P,R5,1*%
%TO.N,/spi3_miso0*%
X141175000Y-59000000D03*
%TO.P,R5,2*%
%TO.N,GND*%
X142825000Y-59000000D03*
%TD*%
D15*
%TO.P,J4,A1,HV*%
%TO.N,-HV*%
X117000000Y-54500000D03*
D16*
%TO.P,J4,A2*%
%TO.N,N/C*%
X118000000Y-56500000D03*
%TO.P,J4,A3,VDD18*%
%TO.N,/VDD18_in*%
X119000000Y-54500000D03*
%TO.P,J4,A4,VDD18*%
X120000000Y-56500000D03*
%TO.P,J4,A5,POW4*%
%TO.N,/POW4_in*%
X121000000Y-54500000D03*
%TO.P,J4,A6,POW4*%
X122000000Y-56500000D03*
%TO.P,J4,A7,POW6*%
%TO.N,VDDA*%
X123000000Y-54500000D03*
%TO.P,J4,A8,POW6*%
X124000000Y-56500000D03*
%TO.P,J4,A9,POW8*%
%TO.N,VSSA*%
X125000000Y-54500000D03*
%TO.P,J4,A10,POW8*%
X126000000Y-56500000D03*
%TO.P,J4,A11,GND*%
%TO.N,GND*%
X127000000Y-54500000D03*
%TO.P,J4,A12*%
%TO.N,N/C*%
X130000000Y-56500000D03*
%TO.P,J4,A13*%
X131000000Y-54500000D03*
%TO.P,J4,A14*%
X132000000Y-56500000D03*
%TO.P,J4,A15*%
X133000000Y-54500000D03*
%TO.P,J4,A16,spi_left_csn*%
%TO.N,/spi3_csn*%
X134000000Y-56500000D03*
%TO.P,J4,A17,spi_left_clk*%
%TO.N,/spi3_clk*%
X135000000Y-54500000D03*
%TO.P,J4,A18,spi_left_miso1*%
%TO.N,/spi3_miso1*%
X136000000Y-56500000D03*
%TO.P,J4,A19,spi_left_miso0*%
%TO.N,/spi3_miso0*%
X137000000Y-54500000D03*
%TO.P,J4,A20,spi_left_mosi*%
%TO.N,/spi3_mosi*%
X138000000Y-56500000D03*
%TO.P,J4,A21*%
%TO.N,N/C*%
X139000000Y-54500000D03*
%TO.P,J4,A22,sr_out*%
%TO.N,/sr_out3*%
X140000000Y-56500000D03*
%TO.P,J4,A23,sr_rb*%
%TO.N,/sr_rb*%
X141000000Y-54500000D03*
%TO.P,J4,A24,sr_ck1*%
%TO.N,/sr_ck1*%
X142000000Y-56500000D03*
%TO.P,J4,A25,sr_ck2*%
%TO.N,/sr_ck2*%
X143000000Y-54500000D03*
%TO.P,J4,A26*%
%TO.N,N/C*%
X144000000Y-56500000D03*
%TO.P,J4,A27*%
X145000000Y-54500000D03*
%TO.P,J4,A28,Inj*%
%TO.N,/Inj*%
X146000000Y-56500000D03*
%TO.P,J4,A29*%
%TO.N,N/C*%
X147000000Y-54500000D03*
%TO.P,J4,A30*%
X148000000Y-56500000D03*
%TO.P,J4,A31*%
X149000000Y-54500000D03*
%TO.P,J4,A32,DAC_blpix*%
%TO.N,/DAC_blpix*%
X150000000Y-56500000D03*
%TO.P,J4,A33,DAC_Vcasc2*%
%TO.N,/DAC_VCasc2!*%
X151000000Y-54500000D03*
%TO.P,J4,A34,DAC_ThPix*%
%TO.N,/DAC_ThPix*%
X152000000Y-56500000D03*
%TO.P,J4,A35,DAC_vminuspix*%
%TO.N,/DAC_vminuspix*%
X153000000Y-54500000D03*
%TO.P,J4,A36*%
%TO.N,N/C*%
X154000000Y-56500000D03*
%TO.P,J4,A37*%
X155000000Y-54500000D03*
%TO.P,J4,A38*%
X156000000Y-56500000D03*
%TO.P,J4,A39*%
X157000000Y-54500000D03*
%TO.P,J4,A40,spi_right_clk*%
%TO.N,/spi_right_clk*%
X158000000Y-56500000D03*
%TO.P,J4,A41,spi_right_miso1*%
%TO.N,/spi_right_miso1*%
X159000000Y-54500000D03*
%TO.P,J4,A42,spi_right_miso0*%
%TO.N,/spi_right_miso0*%
X160000000Y-56500000D03*
%TO.P,J4,A43,spi_right_csn*%
%TO.N,/spi_right_csn*%
X161000000Y-54500000D03*
%TO.P,J4,A44,spi_right_mosi*%
%TO.N,/spi_right_mosi*%
X162000000Y-56500000D03*
%TO.P,J4,A45*%
%TO.N,N/C*%
X163000000Y-54500000D03*
%TO.P,J4,A46*%
X164000000Y-56500000D03*
%TO.P,J4,A47*%
X165000000Y-54500000D03*
%TO.P,J4,A48*%
X166000000Y-56500000D03*
%TO.P,J4,A49*%
X167000000Y-54500000D03*
%TO.P,J4,B1,HV*%
%TO.N,-HV*%
X117000000Y-52000000D03*
%TO.P,J4,B2*%
%TO.N,N/C*%
X118000000Y-50000000D03*
%TO.P,J4,B3,VDD18*%
%TO.N,/VDD18_in*%
X119000000Y-52000000D03*
%TO.P,J4,B4,VDD18*%
X120000000Y-50000000D03*
%TO.P,J4,B5,POW4*%
%TO.N,/POW4_in*%
X121000000Y-52000000D03*
%TO.P,J4,B6,POW4*%
X122000000Y-50000000D03*
%TO.P,J4,B7,POW6*%
%TO.N,VDDA*%
X123000000Y-52000000D03*
%TO.P,J4,B8,POW6*%
X124000000Y-50000000D03*
%TO.P,J4,B9,POW8*%
%TO.N,VSSA*%
X125000000Y-52000000D03*
%TO.P,J4,B10,POW8*%
X126000000Y-50000000D03*
%TO.P,J4,B11,GND*%
%TO.N,GND*%
X127000000Y-52000000D03*
%TO.P,J4,B12*%
%TO.N,N/C*%
X130000000Y-50000000D03*
%TO.P,J4,B13*%
X131000000Y-52000000D03*
%TO.P,J4,B14*%
X132000000Y-50000000D03*
%TO.P,J4,B15*%
X133000000Y-52000000D03*
%TO.P,J4,B16,sample_clk_se_P*%
%TO.N,unconnected-(J4-PadB16)*%
X134000000Y-50000000D03*
%TO.P,J4,B17,sample_clk_se_N*%
%TO.N,unconnected-(J4-PadB17)*%
X135000000Y-52000000D03*
%TO.P,J4,B18,sample_clk_P*%
%TO.N,/sample_clk4_P*%
X136000000Y-50000000D03*
%TO.P,J4,B19,sample_clk_N*%
%TO.N,/sample_clk4_N*%
X137000000Y-52000000D03*
%TO.P,J4,B20,interrupt*%
%TO.N,/hold*%
X138000000Y-50000000D03*
%TO.P,J4,B21,ts_clk*%
%TO.N,/timestamp_clk*%
X139000000Y-52000000D03*
%TO.P,J4,B22,hold*%
%TO.N,/interrupt*%
X140000000Y-50000000D03*
%TO.P,J4,B23,res_n*%
%TO.N,/res_n*%
X141000000Y-52000000D03*
%TO.P,J4,B24,sr_ld*%
%TO.N,/sr_ld*%
X142000000Y-50000000D03*
%TO.P,J4,B25,sr_sin*%
%TO.N,/sr_out2*%
X143000000Y-52000000D03*
%TO.P,J4,B26*%
%TO.N,N/C*%
X144000000Y-50000000D03*
%TO.P,J4,B27*%
X145000000Y-52000000D03*
%TO.P,J4,B28*%
X146000000Y-50000000D03*
%TO.P,J4,B29*%
X147000000Y-52000000D03*
%TO.P,J4,B30*%
X148000000Y-50000000D03*
%TO.P,J4,B31*%
X149000000Y-52000000D03*
%TO.P,J4,B32,DAC_blpix*%
%TO.N,/DAC_ThPMOS*%
X150000000Y-50000000D03*
%TO.P,J4,B33,DAC_Vcasc2*%
%TO.N,/DAC_VCasc2!*%
X151000000Y-52000000D03*
%TO.P,J4,B34,DAC_ThPix*%
%TO.N,/DAC_ThPix*%
X152000000Y-50000000D03*
%TO.P,J4,B35,DAC_vminuspix*%
%TO.N,/DAC_vminuspix*%
X153000000Y-52000000D03*
%TO.P,J4,B36*%
%TO.N,N/C*%
X154000000Y-50000000D03*
%TO.P,J4,B37*%
X155000000Y-52000000D03*
%TO.P,J4,B38*%
X156000000Y-50000000D03*
%TO.P,J4,B39*%
X157000000Y-52000000D03*
%TO.P,J4,B40,spi_right_clk*%
%TO.N,/spi_right_clk*%
X158000000Y-50000000D03*
%TO.P,J4,B41,spi_right_miso1*%
%TO.N,/spi_right_miso1*%
X159000000Y-52000000D03*
%TO.P,J4,B42,spi_right_miso0*%
%TO.N,/spi_right_miso0*%
X160000000Y-50000000D03*
%TO.P,J4,B43,spi_right_csn*%
%TO.N,/spi_right_csn*%
X161000000Y-52000000D03*
%TO.P,J4,B44,spi_right_mosi*%
%TO.N,/spi_right_mosi*%
X162000000Y-50000000D03*
%TO.P,J4,B45*%
%TO.N,N/C*%
X163000000Y-52000000D03*
%TO.P,J4,B46*%
X164000000Y-50000000D03*
%TO.P,J4,B47*%
X165000000Y-52000000D03*
%TO.P,J4,B48*%
X166000000Y-50000000D03*
%TO.P,J4,B49*%
X167000000Y-52000000D03*
%TD*%
D15*
%TO.P,J3,A1,HV*%
%TO.N,-HV*%
X117000000Y-74500000D03*
D16*
%TO.P,J3,A2*%
%TO.N,N/C*%
X118000000Y-76500000D03*
%TO.P,J3,A3,VDD18*%
%TO.N,/VDD18_in*%
X119000000Y-74500000D03*
%TO.P,J3,A4,VDD18*%
X120000000Y-76500000D03*
%TO.P,J3,A5,POW4*%
%TO.N,/POW4_in*%
X121000000Y-74500000D03*
%TO.P,J3,A6,POW4*%
X122000000Y-76500000D03*
%TO.P,J3,A7,POW6*%
%TO.N,VDDA*%
X123000000Y-74500000D03*
%TO.P,J3,A8,POW6*%
X124000000Y-76500000D03*
%TO.P,J3,A9,POW8*%
%TO.N,VSSA*%
X125000000Y-74500000D03*
%TO.P,J3,A10,POW8*%
X126000000Y-76500000D03*
%TO.P,J3,A11,GND*%
%TO.N,GND*%
X127000000Y-74500000D03*
%TO.P,J3,A12*%
%TO.N,N/C*%
X130000000Y-76500000D03*
%TO.P,J3,A13*%
X131000000Y-74500000D03*
%TO.P,J3,A14*%
X132000000Y-76500000D03*
%TO.P,J3,A15*%
X133000000Y-74500000D03*
%TO.P,J3,A16,spi_left_csn*%
%TO.N,/spi2_csn*%
X134000000Y-76500000D03*
%TO.P,J3,A17,spi_left_clk*%
%TO.N,/spi2_clk*%
X135000000Y-74500000D03*
%TO.P,J3,A18,spi_left_miso1*%
%TO.N,/spi2_miso1*%
X136000000Y-76500000D03*
%TO.P,J3,A19,spi_left_miso0*%
%TO.N,/spi2_miso0*%
X137000000Y-74500000D03*
%TO.P,J3,A20,spi_left_mosi*%
%TO.N,/spi2_mosi*%
X138000000Y-76500000D03*
%TO.P,J3,A21*%
%TO.N,N/C*%
X139000000Y-74500000D03*
%TO.P,J3,A22,sr_out*%
%TO.N,/sr_out2*%
X140000000Y-76500000D03*
%TO.P,J3,A23,sr_rb*%
%TO.N,/sr_rb*%
X141000000Y-74500000D03*
%TO.P,J3,A24,sr_ck1*%
%TO.N,/sr_ck1*%
X142000000Y-76500000D03*
%TO.P,J3,A25,sr_ck2*%
%TO.N,/sr_ck2*%
X143000000Y-74500000D03*
%TO.P,J3,A26*%
%TO.N,N/C*%
X144000000Y-76500000D03*
%TO.P,J3,A27*%
X145000000Y-74500000D03*
%TO.P,J3,A28,Inj*%
%TO.N,/Inj*%
X146000000Y-76500000D03*
%TO.P,J3,A29*%
%TO.N,N/C*%
X147000000Y-74500000D03*
%TO.P,J3,A30*%
X148000000Y-76500000D03*
%TO.P,J3,A31*%
X149000000Y-74500000D03*
%TO.P,J3,A32,DAC_blpix*%
%TO.N,/DAC_blpix*%
X150000000Y-76500000D03*
%TO.P,J3,A33,DAC_Vcasc2*%
%TO.N,/DAC_VCasc2!*%
X151000000Y-74500000D03*
%TO.P,J3,A34,DAC_ThPix*%
%TO.N,/DAC_ThPix*%
X152000000Y-76500000D03*
%TO.P,J3,A35,DAC_vminuspix*%
%TO.N,/DAC_vminuspix*%
X153000000Y-74500000D03*
%TO.P,J3,A36*%
%TO.N,N/C*%
X154000000Y-76500000D03*
%TO.P,J3,A37*%
X155000000Y-74500000D03*
%TO.P,J3,A38*%
X156000000Y-76500000D03*
%TO.P,J3,A39*%
X157000000Y-74500000D03*
%TO.P,J3,A40,spi_right_clk*%
%TO.N,/spi3_clk*%
X158000000Y-76500000D03*
%TO.P,J3,A41,spi_right_miso1*%
%TO.N,/spi3_miso1*%
X159000000Y-74500000D03*
%TO.P,J3,A42,spi_right_miso0*%
%TO.N,/spi3_miso0*%
X160000000Y-76500000D03*
%TO.P,J3,A43,spi_right_csn*%
%TO.N,/spi3_csn*%
X161000000Y-74500000D03*
%TO.P,J3,A44,spi_right_mosi*%
%TO.N,/spi3_mosi*%
X162000000Y-76500000D03*
%TO.P,J3,A45*%
%TO.N,N/C*%
X163000000Y-74500000D03*
%TO.P,J3,A46*%
X164000000Y-76500000D03*
%TO.P,J3,A47*%
X165000000Y-74500000D03*
%TO.P,J3,A48*%
X166000000Y-76500000D03*
%TO.P,J3,A49*%
X167000000Y-74500000D03*
%TO.P,J3,B1,HV*%
%TO.N,-HV*%
X117000000Y-72000000D03*
%TO.P,J3,B2*%
%TO.N,N/C*%
X118000000Y-70000000D03*
%TO.P,J3,B3,VDD18*%
%TO.N,/VDD18_in*%
X119000000Y-72000000D03*
%TO.P,J3,B4,VDD18*%
X120000000Y-70000000D03*
%TO.P,J3,B5,POW4*%
%TO.N,/POW4_in*%
X121000000Y-72000000D03*
%TO.P,J3,B6,POW4*%
X122000000Y-70000000D03*
%TO.P,J3,B7,POW6*%
%TO.N,VDDA*%
X123000000Y-72000000D03*
%TO.P,J3,B8,POW6*%
X124000000Y-70000000D03*
%TO.P,J3,B9,POW8*%
%TO.N,VSSA*%
X125000000Y-72000000D03*
%TO.P,J3,B10,POW8*%
X126000000Y-70000000D03*
%TO.P,J3,B11,GND*%
%TO.N,GND*%
X127000000Y-72000000D03*
%TO.P,J3,B12*%
%TO.N,N/C*%
X130000000Y-70000000D03*
%TO.P,J3,B13*%
X131000000Y-72000000D03*
%TO.P,J3,B14*%
X132000000Y-70000000D03*
%TO.P,J3,B15*%
X133000000Y-72000000D03*
%TO.P,J3,B16,sample_clk_se_P*%
%TO.N,unconnected-(J3-PadB16)*%
X134000000Y-70000000D03*
%TO.P,J3,B17,sample_clk_se_N*%
%TO.N,unconnected-(J3-PadB17)*%
X135000000Y-72000000D03*
%TO.P,J3,B18,sample_clk_P*%
%TO.N,/sample_clk3_P*%
X136000000Y-70000000D03*
%TO.P,J3,B19,sample_clk_N*%
%TO.N,/sample_clk3_N*%
X137000000Y-72000000D03*
%TO.P,J3,B20,interrupt*%
%TO.N,/hold*%
X138000000Y-70000000D03*
%TO.P,J3,B21,ts_clk*%
%TO.N,/timestamp_clk*%
X139000000Y-72000000D03*
%TO.P,J3,B22,hold*%
%TO.N,/interrupt*%
X140000000Y-70000000D03*
%TO.P,J3,B23,res_n*%
%TO.N,/res_n*%
X141000000Y-72000000D03*
%TO.P,J3,B24,sr_ld*%
%TO.N,/sr_ld*%
X142000000Y-70000000D03*
%TO.P,J3,B25,sr_sin*%
%TO.N,/sr_out1*%
X143000000Y-72000000D03*
%TO.P,J3,B26*%
%TO.N,N/C*%
X144000000Y-70000000D03*
%TO.P,J3,B27*%
X145000000Y-72000000D03*
%TO.P,J3,B28*%
X146000000Y-70000000D03*
%TO.P,J3,B29*%
X147000000Y-72000000D03*
%TO.P,J3,B30*%
X148000000Y-70000000D03*
%TO.P,J3,B31*%
X149000000Y-72000000D03*
%TO.P,J3,B32,DAC_blpix*%
%TO.N,/DAC_ThPMOS*%
X150000000Y-70000000D03*
%TO.P,J3,B33,DAC_Vcasc2*%
%TO.N,/DAC_VCasc2!*%
X151000000Y-72000000D03*
%TO.P,J3,B34,DAC_ThPix*%
%TO.N,/DAC_ThPix*%
X152000000Y-70000000D03*
%TO.P,J3,B35,DAC_vminuspix*%
%TO.N,/DAC_vminuspix*%
X153000000Y-72000000D03*
%TO.P,J3,B36*%
%TO.N,N/C*%
X154000000Y-70000000D03*
%TO.P,J3,B37*%
X155000000Y-72000000D03*
%TO.P,J3,B38*%
X156000000Y-70000000D03*
%TO.P,J3,B39*%
X157000000Y-72000000D03*
%TO.P,J3,B40,spi_right_clk*%
%TO.N,/spi3_clk*%
X158000000Y-70000000D03*
%TO.P,J3,B41,spi_right_miso1*%
%TO.N,/spi3_miso1*%
X159000000Y-72000000D03*
%TO.P,J3,B42,spi_right_miso0*%
%TO.N,/spi3_miso0*%
X160000000Y-70000000D03*
%TO.P,J3,B43,spi_right_csn*%
%TO.N,/spi3_csn*%
X161000000Y-72000000D03*
%TO.P,J3,B44,spi_right_mosi*%
%TO.N,/spi3_mosi*%
X162000000Y-70000000D03*
%TO.P,J3,B45*%
%TO.N,N/C*%
X163000000Y-72000000D03*
%TO.P,J3,B46*%
X164000000Y-70000000D03*
%TO.P,J3,B47*%
X165000000Y-72000000D03*
%TO.P,J3,B48*%
X166000000Y-70000000D03*
%TO.P,J3,B49*%
X167000000Y-72000000D03*
%TD*%
D15*
%TO.P,J1,A1,HV*%
%TO.N,-HV*%
X117000000Y-114500000D03*
D16*
%TO.P,J1,A2*%
%TO.N,N/C*%
X118000000Y-116500000D03*
%TO.P,J1,A3,VDD18*%
%TO.N,/VDD18_in*%
X119000000Y-114500000D03*
%TO.P,J1,A4,VDD18*%
X120000000Y-116500000D03*
%TO.P,J1,A5,POW4*%
%TO.N,/POW4_in*%
X121000000Y-114500000D03*
%TO.P,J1,A6,POW4*%
X122000000Y-116500000D03*
%TO.P,J1,A7,POW6*%
%TO.N,VDDA*%
X123000000Y-114500000D03*
%TO.P,J1,A8,POW6*%
X124000000Y-116500000D03*
%TO.P,J1,A9,POW8*%
%TO.N,VSSA*%
X125000000Y-114500000D03*
%TO.P,J1,A10,POW8*%
X126000000Y-116500000D03*
%TO.P,J1,A11,GND*%
%TO.N,GND*%
X127000000Y-114500000D03*
%TO.P,J1,A12*%
%TO.N,N/C*%
X130000000Y-116500000D03*
%TO.P,J1,A13*%
X131000000Y-114500000D03*
%TO.P,J1,A14*%
X132000000Y-116500000D03*
%TO.P,J1,A15*%
X133000000Y-114500000D03*
%TO.P,J1,A16,spi_left_csn*%
%TO.N,/spi_left_csn*%
X134000000Y-116500000D03*
%TO.P,J1,A17,spi_left_clk*%
%TO.N,/spi_left_clk*%
X135000000Y-114500000D03*
%TO.P,J1,A18,spi_left_miso1*%
%TO.N,/spi_left_miso1*%
X136000000Y-116500000D03*
%TO.P,J1,A19,spi_left_miso0*%
%TO.N,/spi_left_miso0*%
X137000000Y-114500000D03*
%TO.P,J1,A20,spi_left_mosi*%
%TO.N,/spi_left_mosi*%
X138000000Y-116500000D03*
%TO.P,J1,A21*%
%TO.N,N/C*%
X139000000Y-114500000D03*
%TO.P,J1,A22,sr_out*%
%TO.N,/sr_out*%
X140000000Y-116500000D03*
%TO.P,J1,A23,sr_rb*%
%TO.N,/sr_rb*%
X141000000Y-114500000D03*
%TO.P,J1,A24,sr_ck1*%
%TO.N,/sr_ck1*%
X142000000Y-116500000D03*
%TO.P,J1,A25,sr_ck2*%
%TO.N,/sr_ck2*%
X143000000Y-114500000D03*
%TO.P,J1,A26*%
%TO.N,N/C*%
X144000000Y-116500000D03*
%TO.P,J1,A27*%
X145000000Y-114500000D03*
%TO.P,J1,A28,Inj*%
%TO.N,/Inj*%
X146000000Y-116500000D03*
%TO.P,J1,A29*%
%TO.N,N/C*%
X147000000Y-114500000D03*
%TO.P,J1,A30*%
X148000000Y-116500000D03*
%TO.P,J1,A31*%
X149000000Y-114500000D03*
%TO.P,J1,A32,DAC_blpix*%
%TO.N,/DAC_blpix*%
X150000000Y-116500000D03*
%TO.P,J1,A33,DAC_Vcasc2*%
%TO.N,/DAC_VCasc2!*%
X151000000Y-114500000D03*
%TO.P,J1,A34,DAC_ThPix*%
%TO.N,/DAC_ThPix*%
X152000000Y-116500000D03*
%TO.P,J1,A35,DAC_vminuspix*%
%TO.N,/DAC_vminuspix*%
X153000000Y-114500000D03*
%TO.P,J1,A36*%
%TO.N,N/C*%
X154000000Y-116500000D03*
%TO.P,J1,A37*%
X155000000Y-114500000D03*
%TO.P,J1,A38*%
X156000000Y-116500000D03*
%TO.P,J1,A39*%
X157000000Y-114500000D03*
%TO.P,J1,A40,spi_right_clk*%
%TO.N,/spi1_clk*%
X158000000Y-116500000D03*
%TO.P,J1,A41,spi_right_miso1*%
%TO.N,/spi1_miso1*%
X159000000Y-114500000D03*
%TO.P,J1,A42,spi_right_miso0*%
%TO.N,/spi1_miso0*%
X160000000Y-116500000D03*
%TO.P,J1,A43,spi_right_csn*%
%TO.N,/spi1_csn*%
X161000000Y-114500000D03*
%TO.P,J1,A44,spi_right_mosi*%
%TO.N,/spi1_mosi*%
X162000000Y-116500000D03*
%TO.P,J1,A45*%
%TO.N,N/C*%
X163000000Y-114500000D03*
%TO.P,J1,A46*%
X164000000Y-116500000D03*
%TO.P,J1,A47*%
X165000000Y-114500000D03*
%TO.P,J1,A48*%
X166000000Y-116500000D03*
%TO.P,J1,A49*%
X167000000Y-114500000D03*
%TO.P,J1,B1,HV*%
%TO.N,-HV*%
X117000000Y-112000000D03*
%TO.P,J1,B2*%
%TO.N,N/C*%
X118000000Y-110000000D03*
%TO.P,J1,B3,VDD18*%
%TO.N,/VDD18_in*%
X119000000Y-112000000D03*
%TO.P,J1,B4,VDD18*%
X120000000Y-110000000D03*
%TO.P,J1,B5,POW4*%
%TO.N,/POW4_in*%
X121000000Y-112000000D03*
%TO.P,J1,B6,POW4*%
X122000000Y-110000000D03*
%TO.P,J1,B7,POW6*%
%TO.N,VDDA*%
X123000000Y-112000000D03*
%TO.P,J1,B8,POW6*%
X124000000Y-110000000D03*
%TO.P,J1,B9,POW8*%
%TO.N,VSSA*%
X125000000Y-112000000D03*
%TO.P,J1,B10,POW8*%
X126000000Y-110000000D03*
%TO.P,J1,B11,GND*%
%TO.N,GND*%
X127000000Y-112000000D03*
%TO.P,J1,B12*%
%TO.N,N/C*%
X130000000Y-110000000D03*
%TO.P,J1,B13*%
X131000000Y-112000000D03*
%TO.P,J1,B14*%
X132000000Y-110000000D03*
%TO.P,J1,B15*%
X133000000Y-112000000D03*
%TO.P,J1,B16,sample_clk_se_P*%
%TO.N,unconnected-(J1-PadB16)*%
X134000000Y-110000000D03*
%TO.P,J1,B17,sample_clk_se_N*%
%TO.N,unconnected-(J1-PadB17)*%
X135000000Y-112000000D03*
%TO.P,J1,B18,sample_clk_P*%
%TO.N,/sample_clk0_P*%
X136000000Y-110000000D03*
%TO.P,J1,B19,sample_clk_N*%
%TO.N,/sample_clk0_N*%
X137000000Y-112000000D03*
%TO.P,J1,B20,interrupt*%
%TO.N,/hold*%
X138000000Y-110000000D03*
%TO.P,J1,B21,ts_clk*%
%TO.N,/timestamp_clk*%
X139000000Y-112000000D03*
%TO.P,J1,B22,hold*%
%TO.N,/interrupt*%
X140000000Y-110000000D03*
%TO.P,J1,B23,res_n*%
%TO.N,/res_n*%
X141000000Y-112000000D03*
%TO.P,J1,B24,sr_ld*%
%TO.N,/sr_ld*%
X142000000Y-110000000D03*
%TO.P,J1,B25,sr_sin*%
%TO.N,/sr_sin*%
X143000000Y-112000000D03*
%TO.P,J1,B26*%
%TO.N,N/C*%
X144000000Y-110000000D03*
%TO.P,J1,B27*%
X145000000Y-112000000D03*
%TO.P,J1,B28*%
X146000000Y-110000000D03*
%TO.P,J1,B29*%
X147000000Y-112000000D03*
%TO.P,J1,B30*%
X148000000Y-110000000D03*
%TO.P,J1,B31*%
X149000000Y-112000000D03*
%TO.P,J1,B32,DAC_blpix*%
%TO.N,/DAC_ThPMOS*%
X150000000Y-110000000D03*
%TO.P,J1,B33,DAC_Vcasc2*%
%TO.N,/DAC_VCasc2!*%
X151000000Y-112000000D03*
%TO.P,J1,B34,DAC_ThPix*%
%TO.N,/DAC_ThPix*%
X152000000Y-110000000D03*
%TO.P,J1,B35,DAC_vminuspix*%
%TO.N,/DAC_vminuspix*%
X153000000Y-112000000D03*
%TO.P,J1,B36*%
%TO.N,N/C*%
X154000000Y-110000000D03*
%TO.P,J1,B37*%
X155000000Y-112000000D03*
%TO.P,J1,B38*%
X156000000Y-110000000D03*
%TO.P,J1,B39*%
X157000000Y-112000000D03*
%TO.P,J1,B40,spi_right_clk*%
%TO.N,/spi1_clk*%
X158000000Y-110000000D03*
%TO.P,J1,B41,spi_right_miso1*%
%TO.N,/spi1_miso1*%
X159000000Y-112000000D03*
%TO.P,J1,B42,spi_right_miso0*%
%TO.N,/spi1_miso0*%
X160000000Y-110000000D03*
%TO.P,J1,B43,spi_right_csn*%
%TO.N,/spi1_csn*%
X161000000Y-112000000D03*
%TO.P,J1,B44,spi_right_mosi*%
%TO.N,/spi1_mosi*%
X162000000Y-110000000D03*
%TO.P,J1,B45*%
%TO.N,N/C*%
X163000000Y-112000000D03*
%TO.P,J1,B46*%
X164000000Y-110000000D03*
%TO.P,J1,B47*%
X165000000Y-112000000D03*
%TO.P,J1,B48*%
X166000000Y-110000000D03*
%TO.P,J1,B49*%
X167000000Y-112000000D03*
%TD*%
D15*
%TO.P,J2,A1,HV*%
%TO.N,-HV*%
X117000000Y-94500000D03*
D16*
%TO.P,J2,A2*%
%TO.N,N/C*%
X118000000Y-96500000D03*
%TO.P,J2,A3,VDD18*%
%TO.N,/VDD18_in*%
X119000000Y-94500000D03*
%TO.P,J2,A4,VDD18*%
X120000000Y-96500000D03*
%TO.P,J2,A5,POW4*%
%TO.N,/POW4_in*%
X121000000Y-94500000D03*
%TO.P,J2,A6,POW4*%
X122000000Y-96500000D03*
%TO.P,J2,A7,POW6*%
%TO.N,VDDA*%
X123000000Y-94500000D03*
%TO.P,J2,A8,POW6*%
X124000000Y-96500000D03*
%TO.P,J2,A9,POW8*%
%TO.N,VSSA*%
X125000000Y-94500000D03*
%TO.P,J2,A10,POW8*%
X126000000Y-96500000D03*
%TO.P,J2,A11,GND*%
%TO.N,GND*%
X127000000Y-94500000D03*
%TO.P,J2,A12*%
%TO.N,N/C*%
X130000000Y-96500000D03*
%TO.P,J2,A13*%
X131000000Y-94500000D03*
%TO.P,J2,A14*%
X132000000Y-96500000D03*
%TO.P,J2,A15*%
X133000000Y-94500000D03*
%TO.P,J2,A16,spi_left_csn*%
%TO.N,/spi1_csn*%
X134000000Y-96500000D03*
%TO.P,J2,A17,spi_left_clk*%
%TO.N,/spi1_clk*%
X135000000Y-94500000D03*
%TO.P,J2,A18,spi_left_miso1*%
%TO.N,/spi1_miso1*%
X136000000Y-96500000D03*
%TO.P,J2,A19,spi_left_miso0*%
%TO.N,/spi1_miso0*%
X137000000Y-94500000D03*
%TO.P,J2,A20,spi_left_mosi*%
%TO.N,/spi1_mosi*%
X138000000Y-96500000D03*
%TO.P,J2,A21*%
%TO.N,N/C*%
X139000000Y-94500000D03*
%TO.P,J2,A22,sr_out*%
%TO.N,/sr_out1*%
X140000000Y-96500000D03*
%TO.P,J2,A23,sr_rb*%
%TO.N,/sr_rb*%
X141000000Y-94500000D03*
%TO.P,J2,A24,sr_ck1*%
%TO.N,/sr_ck1*%
X142000000Y-96500000D03*
%TO.P,J2,A25,sr_ck2*%
%TO.N,/sr_ck2*%
X143000000Y-94500000D03*
%TO.P,J2,A26*%
%TO.N,N/C*%
X144000000Y-96500000D03*
%TO.P,J2,A27*%
X145000000Y-94500000D03*
%TO.P,J2,A28,Inj*%
%TO.N,/Inj*%
X146000000Y-96500000D03*
%TO.P,J2,A29*%
%TO.N,N/C*%
X147000000Y-94500000D03*
%TO.P,J2,A30*%
X148000000Y-96500000D03*
%TO.P,J2,A31*%
X149000000Y-94500000D03*
%TO.P,J2,A32,DAC_blpix*%
%TO.N,/DAC_blpix*%
X150000000Y-96500000D03*
%TO.P,J2,A33,DAC_Vcasc2*%
%TO.N,/DAC_VCasc2!*%
X151000000Y-94500000D03*
%TO.P,J2,A34,DAC_ThPix*%
%TO.N,/DAC_ThPix*%
X152000000Y-96500000D03*
%TO.P,J2,A35,DAC_vminuspix*%
%TO.N,/DAC_vminuspix*%
X153000000Y-94500000D03*
%TO.P,J2,A36*%
%TO.N,N/C*%
X154000000Y-96500000D03*
%TO.P,J2,A37*%
X155000000Y-94500000D03*
%TO.P,J2,A38*%
X156000000Y-96500000D03*
%TO.P,J2,A39*%
X157000000Y-94500000D03*
%TO.P,J2,A40,spi_right_clk*%
%TO.N,/spi2_clk*%
X158000000Y-96500000D03*
%TO.P,J2,A41,spi_right_miso1*%
%TO.N,/spi2_miso1*%
X159000000Y-94500000D03*
%TO.P,J2,A42,spi_right_miso0*%
%TO.N,/spi2_miso0*%
X160000000Y-96500000D03*
%TO.P,J2,A43,spi_right_csn*%
%TO.N,/spi2_csn*%
X161000000Y-94500000D03*
%TO.P,J2,A44,spi_right_mosi*%
%TO.N,/spi2_mosi*%
X162000000Y-96500000D03*
%TO.P,J2,A45*%
%TO.N,N/C*%
X163000000Y-94500000D03*
%TO.P,J2,A46*%
X164000000Y-96500000D03*
%TO.P,J2,A47*%
X165000000Y-94500000D03*
%TO.P,J2,A48*%
X166000000Y-96500000D03*
%TO.P,J2,A49*%
X167000000Y-94500000D03*
%TO.P,J2,B1,HV*%
%TO.N,-HV*%
X117000000Y-92000000D03*
%TO.P,J2,B2*%
%TO.N,N/C*%
X118000000Y-90000000D03*
%TO.P,J2,B3,VDD18*%
%TO.N,/VDD18_in*%
X119000000Y-92000000D03*
%TO.P,J2,B4,VDD18*%
X120000000Y-90000000D03*
%TO.P,J2,B5,POW4*%
%TO.N,/POW4_in*%
X121000000Y-92000000D03*
%TO.P,J2,B6,POW4*%
X122000000Y-90000000D03*
%TO.P,J2,B7,POW6*%
%TO.N,VDDA*%
X123000000Y-92000000D03*
%TO.P,J2,B8,POW6*%
X124000000Y-90000000D03*
%TO.P,J2,B9,POW8*%
%TO.N,VSSA*%
X125000000Y-92000000D03*
%TO.P,J2,B10,POW8*%
X126000000Y-90000000D03*
%TO.P,J2,B11,GND*%
%TO.N,GND*%
X127000000Y-92000000D03*
%TO.P,J2,B12*%
%TO.N,N/C*%
X130000000Y-90000000D03*
%TO.P,J2,B13*%
X131000000Y-92000000D03*
%TO.P,J2,B14*%
X132000000Y-90000000D03*
%TO.P,J2,B15*%
X133000000Y-92000000D03*
%TO.P,J2,B16,sample_clk_se_P*%
%TO.N,unconnected-(J2-PadB16)*%
X134000000Y-90000000D03*
%TO.P,J2,B17,sample_clk_se_N*%
%TO.N,unconnected-(J2-PadB17)*%
X135000000Y-92000000D03*
%TO.P,J2,B18,sample_clk_P*%
%TO.N,/sample_clk2_P*%
X136000000Y-90000000D03*
%TO.P,J2,B19,sample_clk_N*%
%TO.N,/sample_clk2_N*%
X137000000Y-92000000D03*
%TO.P,J2,B20,interrupt*%
%TO.N,/hold*%
X138000000Y-90000000D03*
%TO.P,J2,B21,ts_clk*%
%TO.N,/timestamp_clk*%
X139000000Y-92000000D03*
%TO.P,J2,B22,hold*%
%TO.N,/interrupt*%
X140000000Y-90000000D03*
%TO.P,J2,B23,res_n*%
%TO.N,/res_n*%
X141000000Y-92000000D03*
%TO.P,J2,B24,sr_ld*%
%TO.N,/sr_ld*%
X142000000Y-90000000D03*
%TO.P,J2,B25,sr_sin*%
%TO.N,/sr_out*%
X143000000Y-92000000D03*
%TO.P,J2,B26*%
%TO.N,N/C*%
X144000000Y-90000000D03*
%TO.P,J2,B27*%
X145000000Y-92000000D03*
%TO.P,J2,B28*%
X146000000Y-90000000D03*
%TO.P,J2,B29*%
X147000000Y-92000000D03*
%TO.P,J2,B30*%
X148000000Y-90000000D03*
%TO.P,J2,B31*%
X149000000Y-92000000D03*
%TO.P,J2,B32,DAC_blpix*%
%TO.N,/DAC_ThPMOS*%
X150000000Y-90000000D03*
%TO.P,J2,B33,DAC_Vcasc2*%
%TO.N,/DAC_VCasc2!*%
X151000000Y-92000000D03*
%TO.P,J2,B34,DAC_ThPix*%
%TO.N,/DAC_ThPix*%
X152000000Y-90000000D03*
%TO.P,J2,B35,DAC_vminuspix*%
%TO.N,/DAC_vminuspix*%
X153000000Y-92000000D03*
%TO.P,J2,B36*%
%TO.N,N/C*%
X154000000Y-90000000D03*
%TO.P,J2,B37*%
X155000000Y-92000000D03*
%TO.P,J2,B38*%
X156000000Y-90000000D03*
%TO.P,J2,B39*%
X157000000Y-92000000D03*
%TO.P,J2,B40,spi_right_clk*%
%TO.N,/spi2_clk*%
X158000000Y-90000000D03*
%TO.P,J2,B41,spi_right_miso1*%
%TO.N,/spi2_miso1*%
X159000000Y-92000000D03*
%TO.P,J2,B42,spi_right_miso0*%
%TO.N,/spi2_miso0*%
X160000000Y-90000000D03*
%TO.P,J2,B43,spi_right_csn*%
%TO.N,/spi2_csn*%
X161000000Y-92000000D03*
%TO.P,J2,B44,spi_right_mosi*%
%TO.N,/spi2_mosi*%
X162000000Y-90000000D03*
%TO.P,J2,B45*%
%TO.N,N/C*%
X163000000Y-92000000D03*
%TO.P,J2,B46*%
X164000000Y-90000000D03*
%TO.P,J2,B47*%
X165000000Y-92000000D03*
%TO.P,J2,B48*%
X166000000Y-90000000D03*
%TO.P,J2,B49*%
X167000000Y-92000000D03*
%TD*%
D17*
%TO.N,GND*%
X144000000Y-59000000D03*
X142624500Y-78500000D03*
X136000000Y-62124500D03*
X142000000Y-98500000D03*
X135000000Y-101500000D03*
X112950000Y-136650000D03*
X112950000Y-137650000D03*
X112950000Y-135685000D03*
X112950000Y-138650000D03*
X136000000Y-81200000D03*
%TO.N,VDDA*%
X110000000Y-138665000D03*
X110000000Y-136665000D03*
X109000000Y-136665000D03*
X109000000Y-138665000D03*
X109000000Y-137665000D03*
X110000000Y-137665000D03*
D18*
%TO.N,-HV*%
X103000000Y-138500000D03*
D17*
%TO.N,/interrupt*%
X106000000Y-85000000D03*
X106000000Y-104000000D03*
X111500000Y-43994961D03*
X106000000Y-62500000D03*
%TO.N,/POW4_in*%
X108000000Y-137665000D03*
X107000000Y-136665000D03*
X108000000Y-138665000D03*
X107000000Y-137665000D03*
X107000000Y-138665000D03*
X108000000Y-136665000D03*
%TO.N,/sr_ck1*%
X111000000Y-61000000D03*
X128036839Y-130661339D03*
X111000000Y-80365000D03*
X111000000Y-100000000D03*
%TO.N,/res_n*%
X107000000Y-84466499D03*
X107000000Y-103163455D03*
X112600000Y-43000000D03*
X107000000Y-61500000D03*
%TO.N,/VDD18_in*%
X106000000Y-137665000D03*
X106000000Y-136665000D03*
X105000000Y-137665000D03*
X106000000Y-138665000D03*
X105000000Y-138665000D03*
X105000000Y-136665000D03*
%TO.N,/hold*%
X104000000Y-105500000D03*
X104000000Y-64600000D03*
X109050000Y-47815000D03*
X104000000Y-86000000D03*
%TO.N,/sr_rb*%
X110000000Y-79500000D03*
X127000000Y-131500000D03*
X110000000Y-99000000D03*
X110000000Y-60000000D03*
%TO.N,/timestamp_clk*%
X105000000Y-63375500D03*
X110500000Y-45000000D03*
X105000000Y-105000000D03*
X105000000Y-85500000D03*
%TO.N,/sr_ck2*%
X129403478Y-129903478D03*
X112000000Y-81250000D03*
X112000000Y-61750000D03*
X112000000Y-101000000D03*
%TO.N,/sr_ld*%
X113750000Y-42250000D03*
X109000000Y-61215000D03*
X109000000Y-83000000D03*
%TO.N,/spi1_clk*%
X154000000Y-100083867D03*
%TO.N,/spi1_miso1*%
X155000000Y-100732902D03*
%TO.N,/spi1_miso0*%
X154681132Y-98500000D03*
%TO.N,/spi1_csn*%
X157097701Y-100895879D03*
%TO.N,/spi1_mosi*%
X157000000Y-99463425D03*
%TO.N,/spi2_clk*%
X153900000Y-80400000D03*
%TO.N,/spi2_miso1*%
X154800000Y-81300000D03*
%TO.N,/spi2_miso0*%
X154631132Y-78500000D03*
%TO.N,/spi2_csn*%
X158118445Y-81633078D03*
%TO.N,/spi2_mosi*%
X157500000Y-80500000D03*
%TO.N,/spi3_clk*%
X154450000Y-61000000D03*
%TO.N,/spi3_miso1*%
X155541589Y-62000000D03*
%TO.N,/spi3_miso0*%
X154650000Y-58866000D03*
%TO.N,/spi3_csn*%
X157500000Y-63000000D03*
%TO.N,/spi3_mosi*%
X157500000Y-61500000D03*
%TO.N,/sr_out3*%
X125900000Y-134000000D03*
X108000000Y-60500000D03*
D18*
%TO.N,/DAC_ThPMOS*%
X135250000Y-138450000D03*
X150000000Y-78400000D03*
X150000000Y-58050000D03*
X150000000Y-98050000D03*
D17*
%TO.N,VSSA*%
X111975000Y-137675000D03*
X111975000Y-138650000D03*
X112000000Y-136650000D03*
X111150000Y-136650000D03*
X111125000Y-137675000D03*
X111125000Y-138650000D03*
%TD*%
D19*
%TO.N,/sample_clk0_N*%
X138118201Y-105765000D02*
X136400000Y-107483202D01*
X150595000Y-105430686D02*
X150260685Y-105765000D01*
X150595000Y-105065000D02*
X150595000Y-105430686D01*
X150895000Y-104965000D02*
X150695000Y-104965000D01*
X152195000Y-105065000D02*
X152195000Y-106230685D01*
X152295000Y-104965000D02*
X152195000Y-105065000D01*
X152495000Y-104965000D02*
X152295000Y-104965000D01*
X153795000Y-105065000D02*
X153795000Y-106230685D01*
X153895000Y-104965000D02*
X153795000Y-105065000D01*
X154095000Y-104965000D02*
X153895000Y-104965000D01*
X155060685Y-106565000D02*
X154529314Y-106565000D01*
X155395000Y-106230685D02*
X155060685Y-106565000D01*
X155495000Y-104965000D02*
X155395000Y-105065000D01*
X155695000Y-104965000D02*
X155495000Y-104965000D01*
X155795000Y-105065000D02*
X155695000Y-104965000D01*
X155795000Y-106230685D02*
X155795000Y-105065000D01*
X157095000Y-104965000D02*
X156995000Y-105065000D01*
X157295000Y-104965000D02*
X157095000Y-104965000D01*
X157729314Y-106565000D02*
X157395000Y-106230685D01*
X158595000Y-106230685D02*
X158260685Y-106565000D01*
X158595000Y-105065000D02*
X158595000Y-106230685D01*
X158995000Y-105065000D02*
X158895000Y-104965000D01*
X166358628Y-101631370D02*
X162225001Y-105764999D01*
X166675319Y-100899997D02*
X166675319Y-101314675D01*
X166416741Y-100558112D02*
X166416741Y-100641419D01*
X166616277Y-100358577D02*
X166416741Y-100558112D01*
X166699584Y-100358577D02*
X166616277Y-100358577D01*
X166675319Y-101314675D02*
X166358628Y-101631370D01*
X167372842Y-100617156D02*
X166958164Y-100617156D01*
X154195000Y-106230685D02*
X154195000Y-105065000D01*
X172330000Y-105850000D02*
X173850000Y-104330000D01*
X172330000Y-107410000D02*
X172330000Y-105850000D01*
X171530000Y-107844314D02*
X171864315Y-107510000D01*
X171864315Y-108710000D02*
X171530000Y-108375685D01*
X173030000Y-108710000D02*
X171864315Y-108710000D01*
X153460685Y-106565000D02*
X152929314Y-106565000D01*
X171864315Y-109110000D02*
X173030000Y-109110000D01*
X173030000Y-110310000D02*
X171864315Y-110310000D01*
X173130000Y-110410000D02*
X173030000Y-110310000D01*
X173030000Y-110710000D02*
X173130000Y-110610000D01*
X171530000Y-111575685D02*
X171530000Y-111044314D01*
X171864315Y-111910000D02*
X171530000Y-111575685D01*
X173130000Y-112010000D02*
X173030000Y-111910000D01*
X173030000Y-112310000D02*
X173130000Y-112210000D01*
X171864315Y-112310000D02*
X173030000Y-112310000D01*
X171530000Y-112644314D02*
X171864315Y-112310000D01*
X157395000Y-105065000D02*
X157295000Y-104965000D01*
X171864315Y-113510000D02*
X171530000Y-113175685D01*
X166958164Y-100617156D02*
X166699584Y-100358577D01*
X173030000Y-113510000D02*
X171864315Y-113510000D01*
X171864315Y-115110000D02*
X171530000Y-114775685D01*
X172230000Y-115110000D02*
X171864315Y-115110000D01*
X172330000Y-116850000D02*
X172330000Y-115210000D01*
X168580000Y-120600000D02*
X172330000Y-116850000D01*
X166369972Y-121400000D02*
X166569970Y-121400000D01*
X166269971Y-121299999D02*
X166369972Y-121400000D01*
X166269972Y-120134317D02*
X166269971Y-121299999D01*
X165935657Y-119800002D02*
X166269972Y-120134317D01*
X164769978Y-121400000D02*
X164969976Y-121400000D01*
X173030000Y-113910000D02*
X173130000Y-113810000D01*
X172050000Y-98750000D02*
X169240000Y-98750000D01*
X164335663Y-119800002D02*
X164669978Y-120134317D01*
X171530000Y-114775685D02*
X171530000Y-114244314D01*
X173130000Y-109010000D02*
X173130000Y-108810000D01*
X150995000Y-105065000D02*
X150895000Y-104965000D01*
X163469982Y-120134317D02*
X163804297Y-119800002D01*
X163469983Y-121299998D02*
X163469982Y-120134317D01*
X166569970Y-121400000D02*
X166669971Y-121299999D01*
X158260685Y-106565000D02*
X157729314Y-106565000D01*
X163369982Y-121399999D02*
X163469983Y-121299998D01*
X158995000Y-105430686D02*
X158995000Y-105065000D01*
X163169984Y-121399999D02*
X163369982Y-121399999D01*
X162735669Y-119800001D02*
X163069984Y-120134316D01*
X153795000Y-106230685D02*
X153460685Y-106565000D01*
X161869988Y-120134316D02*
X162204303Y-119800001D01*
X161469990Y-120134316D02*
X161469989Y-121299998D01*
X171864315Y-110710000D02*
X173030000Y-110710000D01*
X160269994Y-120134316D02*
X160604309Y-119800001D01*
X157395000Y-106230685D02*
X157395000Y-105065000D01*
X160269995Y-121299998D02*
X160269994Y-120134316D01*
X160169994Y-121399999D02*
X160269995Y-121299998D01*
X159969996Y-121399999D02*
X160169994Y-121399999D01*
X173030000Y-111910000D02*
X171864315Y-111910000D01*
X152595000Y-106230685D02*
X152595000Y-105065000D01*
X159869995Y-121299998D02*
X159969996Y-121399999D01*
X165069976Y-120134317D02*
X165404291Y-119800002D01*
X173130000Y-113810000D02*
X173130000Y-113610000D01*
X151329314Y-106565000D02*
X150995000Y-106230685D01*
X158670000Y-120134316D02*
X159004315Y-119800001D01*
X156995000Y-105065000D02*
X156995000Y-106230685D01*
X136400000Y-108900000D02*
X137000000Y-109500000D01*
X158670001Y-120499999D02*
X158670000Y-120134316D01*
X150260685Y-105765000D02*
X138118201Y-105765000D01*
X156846802Y-120600000D02*
X158570000Y-120600000D01*
X156122882Y-121323924D02*
X156846802Y-120600000D01*
X155864302Y-121065346D02*
X156122882Y-121323924D01*
X150695000Y-104965000D02*
X150595000Y-105065000D01*
X155015777Y-121582500D02*
X155532932Y-121065345D01*
X165069977Y-121299999D02*
X165069976Y-120134317D01*
X155015775Y-121913872D02*
X155015777Y-121582500D01*
X166669971Y-121299999D02*
X166669971Y-120934315D01*
X169240000Y-98750000D02*
X167372842Y-100617156D01*
X155698616Y-122596711D02*
X155015775Y-121913872D01*
X153884406Y-123045241D02*
X153884408Y-122713869D01*
X164669978Y-120134317D02*
X164669977Y-121299999D01*
X154567247Y-123728080D02*
X153884406Y-123045241D01*
X153601564Y-123328084D02*
X154284406Y-124010923D01*
X153153037Y-125142292D02*
X153435878Y-124859449D01*
X151621670Y-124976607D02*
X152138825Y-124459452D01*
X152021668Y-126273661D02*
X152304509Y-125990818D01*
X153884408Y-122713869D02*
X154401563Y-122196714D01*
X154195000Y-105065000D02*
X154095000Y-104965000D01*
X150490299Y-126439348D02*
X150490301Y-126107976D01*
X151173140Y-127122187D02*
X150490299Y-126439348D01*
X150041771Y-128253556D02*
X149358930Y-127570717D01*
X152304509Y-125990818D02*
X151621668Y-125307979D01*
X149758930Y-128536399D02*
X150041771Y-128253556D01*
X149076088Y-127853560D02*
X149758930Y-128536399D01*
X148227561Y-128702086D02*
X148227563Y-128370714D01*
X159004315Y-119800001D02*
X159535681Y-119800001D01*
X148910402Y-129384925D02*
X148227561Y-128702086D01*
X171530000Y-113175685D02*
X171530000Y-112644314D01*
X147944719Y-128984929D02*
X148627561Y-129667768D01*
X153270194Y-123328083D02*
X153601564Y-123328084D01*
X136400000Y-107483202D02*
X136400000Y-108900000D01*
X147613349Y-128984928D02*
X147944719Y-128984929D01*
X147096194Y-129502083D02*
X147613349Y-128984928D01*
X154401563Y-122196714D02*
X154732933Y-122196715D01*
X137000000Y-109500000D02*
X137000000Y-112000000D01*
X147779033Y-130516294D02*
X147096192Y-129833455D01*
X171864315Y-113910000D02*
X173030000Y-113910000D01*
X147496192Y-130799137D02*
X147779033Y-130516294D01*
X146481980Y-130116298D02*
X146813352Y-130116297D01*
X145964825Y-130964823D02*
X145964825Y-130633453D01*
X146223402Y-131223400D02*
X145964825Y-130964823D01*
X144275000Y-133171801D02*
X146223402Y-131223400D01*
X144275000Y-138164999D02*
X144275000Y-133171801D01*
X153435878Y-124859449D02*
X152753037Y-124176610D01*
X144000000Y-138439999D02*
X144275000Y-138164999D01*
%TO.N,/sample_clk0_P*%
X136000000Y-107317515D02*
X136000000Y-110000000D01*
X137952515Y-105365000D02*
X136000000Y-107317515D01*
X139495000Y-105365000D02*
X137952515Y-105365000D01*
%TO.N,/sample_clk0_N*%
X171530000Y-111044314D02*
X171864315Y-110710000D01*
%TO.N,/sample_clk0_P*%
X140095000Y-104965000D02*
X139895000Y-104965000D01*
X140495000Y-105365000D02*
X140095000Y-104965000D01*
%TO.N,/sample_clk0_N*%
X149876087Y-126722190D02*
X150207457Y-126722191D01*
%TO.N,/sample_clk0_P*%
X146554998Y-104965000D02*
X146155000Y-105365000D01*
%TO.N,/sample_clk0_N*%
X155395000Y-105065000D02*
X155395000Y-106230685D01*
%TO.N,/sample_clk0_P*%
X146754997Y-104965000D02*
X146554998Y-104965000D01*
%TO.N,/sample_clk0_N*%
X166416741Y-100641419D02*
X166675319Y-100899997D01*
%TO.N,/sample_clk0_P*%
X147154998Y-105365000D02*
X146754997Y-104965000D01*
X150095000Y-105365000D02*
X147154998Y-105365000D01*
X150195000Y-105265000D02*
X150095000Y-105365000D01*
X150529314Y-104565000D02*
X150195000Y-104899315D01*
X151395000Y-104899315D02*
X151060685Y-104565000D01*
%TO.N,/sample_clk0_N*%
X158570000Y-120600000D02*
X158670001Y-120499999D01*
%TO.N,/sample_clk0_P*%
X151495000Y-106165000D02*
X151395000Y-106065000D01*
%TO.N,/sample_clk0_N*%
X161135675Y-119800001D02*
X161469990Y-120134316D01*
X171530000Y-114244314D02*
X171864315Y-113910000D01*
%TO.N,/sample_clk0_P*%
X151795000Y-106065000D02*
X151695000Y-106165000D01*
%TO.N,/sample_clk0_N*%
X171530000Y-108375685D02*
X171530000Y-107844314D01*
%TO.N,/sample_clk0_P*%
X151795000Y-104899315D02*
X151795000Y-106065000D01*
%TO.N,/sample_clk0_N*%
X173130000Y-110610000D02*
X173130000Y-110410000D01*
%TO.N,/sample_clk0_P*%
X152660685Y-104565000D02*
X152129314Y-104565000D01*
%TO.N,/sample_clk0_N*%
X154529314Y-106565000D02*
X154195000Y-106230685D01*
%TO.N,/sample_clk0_P*%
X152995000Y-104899315D02*
X152660685Y-104565000D01*
X152995000Y-106065000D02*
X152995000Y-104899315D01*
X152129314Y-104565000D02*
X151795000Y-104899315D01*
%TO.N,/sample_clk0_N*%
X172330000Y-115210000D02*
X172230000Y-115110000D01*
%TO.N,/sample_clk0_P*%
X153295000Y-106165000D02*
X153095000Y-106165000D01*
X153395000Y-106065000D02*
X153295000Y-106165000D01*
X153395000Y-104899315D02*
X153395000Y-106065000D01*
%TO.N,/sample_clk0_N*%
X163804297Y-119800002D02*
X164335663Y-119800002D01*
%TO.N,/sample_clk0_P*%
X153729314Y-104565000D02*
X153395000Y-104899315D01*
%TO.N,/sample_clk0_N*%
X150995000Y-106230685D02*
X150995000Y-105065000D01*
%TO.N,/sample_clk0_P*%
X154595000Y-106065000D02*
X154595000Y-104899315D01*
X154695000Y-106165000D02*
X154595000Y-106065000D01*
X154995000Y-104899315D02*
X154995000Y-106065000D01*
%TO.N,/sample_clk0_N*%
X144000000Y-141665000D02*
X144000000Y-138439999D01*
%TO.N,/sample_clk0_P*%
X155329314Y-104565000D02*
X154995000Y-104899315D01*
%TO.N,/sample_clk0_N*%
X151860685Y-106565000D02*
X151329314Y-106565000D01*
%TO.N,/sample_clk0_P*%
X156195000Y-104899315D02*
X155860685Y-104565000D01*
%TO.N,/sample_clk0_N*%
X173850000Y-104330000D02*
X173850000Y-100550000D01*
%TO.N,/sample_clk0_P*%
X156295000Y-106165000D02*
X156195000Y-106065000D01*
X156495000Y-106165000D02*
X156295000Y-106165000D01*
%TO.N,/sample_clk0_N*%
X149358932Y-127239345D02*
X149876087Y-126722190D01*
%TO.N,/sample_clk0_P*%
X156595000Y-106065000D02*
X156495000Y-106165000D01*
X154895000Y-106165000D02*
X154695000Y-106165000D01*
X156595000Y-104899315D02*
X156595000Y-106065000D01*
X156929314Y-104565000D02*
X156595000Y-104899315D01*
X157460685Y-104565000D02*
X156929314Y-104565000D01*
X157795000Y-104899315D02*
X157460685Y-104565000D01*
X157795000Y-106065000D02*
X157795000Y-104899315D01*
X157895000Y-106165000D02*
X157795000Y-106065000D01*
X158195000Y-106065000D02*
X158095000Y-106165000D01*
X158195000Y-104899315D02*
X158195000Y-106065000D01*
X158529314Y-104565000D02*
X158195000Y-104899315D01*
X159060685Y-104565000D02*
X158529314Y-104565000D01*
%TO.N,/sample_clk0_N*%
X152595000Y-105065000D02*
X152495000Y-104965000D01*
%TO.N,/sample_clk0_P*%
X159395000Y-104899315D02*
X159060685Y-104565000D01*
X159395000Y-105265000D02*
X159395000Y-104899315D01*
%TO.N,/sample_clk0_N*%
X149358930Y-127570717D02*
X149358932Y-127239345D01*
X161869989Y-121299998D02*
X161869988Y-120134316D01*
%TO.N,/sample_clk0_P*%
X159495000Y-105365000D02*
X159395000Y-105265000D01*
X162059313Y-105365001D02*
X159495000Y-105365000D01*
X166275320Y-101148990D02*
X162059313Y-105365001D01*
%TO.N,/sample_clk0_N*%
X165404291Y-119800002D02*
X165935657Y-119800002D01*
%TO.N,/sample_clk0_P*%
X166275320Y-101065683D02*
X166275320Y-101148990D01*
X166016742Y-100807104D02*
X166275320Y-101065683D01*
%TO.N,/sample_clk0_N*%
X154284406Y-124010923D02*
X154567247Y-123728080D01*
%TO.N,/sample_clk0_P*%
X166016742Y-100392426D02*
X166016742Y-100807104D01*
%TO.N,/sample_clk0_N*%
X148227563Y-128370714D02*
X148744718Y-127853559D01*
X171864315Y-110310000D02*
X171530000Y-109975685D01*
%TO.N,/sample_clk0_P*%
X166865270Y-99958577D02*
X166450592Y-99958577D01*
X167123849Y-100217156D02*
X166865270Y-99958577D01*
X167207156Y-100217156D02*
X167123849Y-100217156D01*
%TO.N,/sample_clk0_N*%
X147096192Y-129833455D02*
X147096194Y-129502083D01*
%TO.N,/sample_clk0_P*%
X169074314Y-98350000D02*
X167207156Y-100217156D01*
%TO.N,/sample_clk0_N*%
X155415775Y-122879554D02*
X155698616Y-122596711D01*
%TO.N,/sample_clk0_P*%
X174250000Y-100384314D02*
X172215686Y-98350000D01*
X174250000Y-104495686D02*
X174250000Y-100384314D01*
X172730000Y-107575685D02*
X172730000Y-106015686D01*
%TO.N,/sample_clk0_N*%
X173030000Y-109110000D02*
X173130000Y-109010000D01*
%TO.N,/sample_clk0_P*%
X172030000Y-107910000D02*
X172395686Y-107910000D01*
X171930000Y-108010000D02*
X172030000Y-107910000D01*
X171930000Y-108210000D02*
X171930000Y-108010000D01*
X172030000Y-108310000D02*
X171930000Y-108210000D01*
X154995000Y-106065000D02*
X154895000Y-106165000D01*
X173195685Y-108310000D02*
X172030000Y-108310000D01*
%TO.N,/sample_clk0_N*%
X163069983Y-121299998D02*
X163169984Y-121399999D01*
X156660685Y-106565000D02*
X156129314Y-106565000D01*
%TO.N,/sample_clk0_P*%
X173530000Y-108644314D02*
X173195685Y-108310000D01*
X172395686Y-107910000D02*
X172730000Y-107575685D01*
X173530000Y-109175685D02*
X173530000Y-108644314D01*
X173195685Y-109510000D02*
X173530000Y-109175685D01*
X172030000Y-109510000D02*
X173195685Y-109510000D01*
X171930000Y-109810000D02*
X171930000Y-109610000D01*
X153095000Y-106165000D02*
X152995000Y-106065000D01*
X172030000Y-109910000D02*
X171930000Y-109810000D01*
%TO.N,/sample_clk0_N*%
X158695000Y-104965000D02*
X158595000Y-105065000D01*
%TO.N,/sample_clk0_P*%
X173195685Y-109910000D02*
X172030000Y-109910000D01*
X173530000Y-110775685D02*
X173530000Y-110244314D01*
%TO.N,/sample_clk0_N*%
X146813352Y-130116297D02*
X147496192Y-130799137D01*
X158895000Y-104965000D02*
X158695000Y-104965000D01*
%TO.N,/sample_clk0_P*%
X173195685Y-111110000D02*
X173530000Y-110775685D01*
X172030000Y-111110000D02*
X173195685Y-111110000D01*
%TO.N,/sample_clk0_N*%
X150490301Y-126107976D02*
X151007456Y-125590821D01*
%TO.N,/sample_clk0_P*%
X171930000Y-111410000D02*
X171930000Y-111210000D01*
X150195000Y-104899315D02*
X150195000Y-105265000D01*
%TO.N,/sample_clk0_N*%
X154732933Y-122196715D02*
X155415775Y-122879554D01*
%TO.N,/sample_clk0_P*%
X172030000Y-111510000D02*
X171930000Y-111410000D01*
X173195685Y-111510000D02*
X172030000Y-111510000D01*
%TO.N,/sample_clk0_N*%
X162225001Y-105764999D02*
X159329314Y-105765000D01*
%TO.N,/sample_clk0_P*%
X173530000Y-112375685D02*
X173530000Y-111844314D01*
X151060685Y-104565000D02*
X150529314Y-104565000D01*
X171930000Y-113010000D02*
X171930000Y-112810000D01*
X172030000Y-113110000D02*
X171930000Y-113010000D01*
X173195685Y-113110000D02*
X172030000Y-113110000D01*
X173530000Y-110244314D02*
X173195685Y-109910000D01*
X173530000Y-113444314D02*
X173195685Y-113110000D01*
X173195685Y-114310000D02*
X173530000Y-113975685D01*
X171930000Y-111210000D02*
X172030000Y-111110000D01*
X172030000Y-114310000D02*
X173195685Y-114310000D01*
X171930000Y-114410000D02*
X172030000Y-114310000D01*
X171930000Y-114610000D02*
X171930000Y-114410000D01*
X172030000Y-114710000D02*
X171930000Y-114610000D01*
X172395686Y-114710000D02*
X172030000Y-114710000D01*
%TO.N,/sample_clk0_N*%
X162204303Y-119800001D02*
X162735669Y-119800001D01*
X173130000Y-113610000D02*
X173030000Y-113510000D01*
%TO.N,/sample_clk0_P*%
X172730000Y-115044314D02*
X172395686Y-114710000D01*
X168745685Y-121000000D02*
X172730000Y-117015686D01*
X167169970Y-120999999D02*
X168745685Y-121000000D01*
X167069969Y-121100000D02*
X167169970Y-120999999D01*
%TO.N,/sample_clk0_N*%
X167004285Y-120600001D02*
X168580000Y-120600000D01*
%TO.N,/sample_clk0_P*%
X166735654Y-121799998D02*
X167069969Y-121465683D01*
%TO.N,/sample_clk0_N*%
X161769988Y-121399999D02*
X161869989Y-121299998D01*
%TO.N,/sample_clk0_P*%
X166204288Y-121799998D02*
X166735654Y-121799998D01*
X165869973Y-121465683D02*
X166204288Y-121799998D01*
X165569975Y-120200000D02*
X165769973Y-120200000D01*
X171930000Y-109610000D02*
X172030000Y-109510000D01*
%TO.N,/sample_clk0_N*%
X173130000Y-108810000D02*
X173030000Y-108710000D01*
%TO.N,/sample_clk0_P*%
X165469974Y-120300001D02*
X165569975Y-120200000D01*
%TO.N,/sample_clk0_N*%
X171864315Y-107510000D02*
X172230000Y-107510000D01*
%TO.N,/sample_clk0_P*%
X165469975Y-121465683D02*
X165469974Y-120300001D01*
X164604294Y-121799998D02*
X165135660Y-121799998D01*
X164269980Y-120300001D02*
X164269979Y-121465683D01*
%TO.N,/sample_clk0_N*%
X160604309Y-119800001D02*
X161135675Y-119800001D01*
%TO.N,/sample_clk0_P*%
X164169979Y-120200000D02*
X164269980Y-120300001D01*
X163969981Y-120200000D02*
X164169979Y-120200000D01*
X163869980Y-120300001D02*
X163969981Y-120200000D01*
X163535666Y-121799997D02*
X163869981Y-121465682D01*
X163004300Y-121799997D02*
X163535666Y-121799997D01*
X162669985Y-121465682D02*
X163004300Y-121799997D01*
%TO.N,/sample_clk0_N*%
X171530000Y-109975685D02*
X171530000Y-109444314D01*
%TO.N,/sample_clk0_P*%
X162669986Y-120300000D02*
X162669985Y-121465682D01*
X162569985Y-120199999D02*
X162669986Y-120300000D01*
X162269986Y-120300000D02*
X162369987Y-120199999D01*
X162269987Y-121465682D02*
X162269986Y-120300000D01*
X154595000Y-104899315D02*
X154260685Y-104565000D01*
X161935672Y-121799997D02*
X162269987Y-121465682D01*
X155860685Y-104565000D02*
X155329314Y-104565000D01*
%TO.N,/sample_clk0_N*%
X148744718Y-127853559D02*
X149076088Y-127853560D01*
%TO.N,/sample_clk0_P*%
X161404306Y-121799997D02*
X161935672Y-121799997D01*
%TO.N,/sample_clk0_N*%
X171530000Y-109444314D02*
X171864315Y-109110000D01*
%TO.N,/sample_clk0_P*%
X161069991Y-121465682D02*
X161404306Y-121799997D01*
X161069992Y-120300000D02*
X161069991Y-121465682D01*
%TO.N,/sample_clk0_N*%
X166669971Y-120934315D02*
X167004285Y-120600001D01*
%TO.N,/sample_clk0_P*%
X160969991Y-120199999D02*
X161069992Y-120300000D01*
X160769993Y-120199999D02*
X160969991Y-120199999D01*
X173530000Y-113975685D02*
X173530000Y-113444314D01*
%TO.N,/sample_clk0_N*%
X151338826Y-125590822D02*
X152021668Y-126273661D01*
%TO.N,/sample_clk0_P*%
X160669992Y-120300000D02*
X160769993Y-120199999D01*
%TO.N,/sample_clk0_N*%
X145964825Y-130633453D02*
X146481980Y-130116298D01*
%TO.N,/sample_clk0_P*%
X160669993Y-121465682D02*
X160669992Y-120300000D01*
X159804312Y-121799997D02*
X160335678Y-121799997D01*
X172215686Y-98350000D02*
X169074314Y-98350000D01*
%TO.N,/sample_clk0_N*%
X152753037Y-124176610D02*
X152753039Y-123845238D01*
%TO.N,/sample_clk0_P*%
X159469997Y-121465682D02*
X159804312Y-121799997D01*
X159469998Y-120300000D02*
X159469997Y-121465682D01*
X151395000Y-106065000D02*
X151395000Y-104899315D01*
%TO.N,/sample_clk0_N*%
X161469989Y-121299998D02*
X161569990Y-121399999D01*
%TO.N,/sample_clk0_P*%
X159169999Y-120199999D02*
X159369997Y-120199999D01*
X159069998Y-120300000D02*
X159169999Y-120199999D01*
X159069999Y-120665684D02*
X159069998Y-120300000D01*
X158735685Y-120999998D02*
X159069999Y-120665684D01*
%TO.N,/sample_clk0_N*%
X172230000Y-107510000D02*
X172330000Y-107410000D01*
%TO.N,/sample_clk0_P*%
X157012486Y-120999999D02*
X158735685Y-120999998D01*
X155415775Y-121748184D02*
X155698618Y-121465343D01*
X156098614Y-122762397D02*
X156098614Y-122431026D01*
%TO.N,/sample_clk0_N*%
X159535681Y-119800001D02*
X159869996Y-120134316D01*
%TO.N,/sample_clk0_P*%
X154967245Y-123562395D02*
X154284406Y-122879553D01*
X156098614Y-122431026D02*
X155415775Y-121748184D01*
X146155000Y-105365000D02*
X140495000Y-105365000D01*
%TO.N,/sample_clk0_N*%
X151621668Y-125307979D02*
X151621670Y-124976607D01*
%TO.N,/sample_clk0_P*%
X154450090Y-124410921D02*
X154967245Y-123893766D01*
X154118720Y-124410921D02*
X154450090Y-124410921D01*
X153435880Y-123728081D02*
X154118720Y-124410921D01*
%TO.N,/sample_clk0_N*%
X161569990Y-121399999D02*
X161769988Y-121399999D01*
%TO.N,/sample_clk0_P*%
X153153037Y-124010922D02*
X153435880Y-123728081D01*
X172030000Y-112710000D02*
X173195685Y-112710000D01*
X152987351Y-125542290D02*
X153318721Y-125542290D01*
%TO.N,/sample_clk0_N*%
X173850000Y-100550000D02*
X172050000Y-98750000D01*
%TO.N,/sample_clk0_P*%
X152021668Y-125142291D02*
X152304511Y-124859450D01*
X155581459Y-123279552D02*
X156098614Y-122762397D01*
X152704507Y-125825133D02*
X152021668Y-125142291D01*
X163869981Y-121465682D02*
X163869980Y-120300001D01*
%TO.N,/sample_clk0_N*%
X152753039Y-123845238D02*
X153270194Y-123328083D01*
%TO.N,/sample_clk0_P*%
X152304511Y-124859450D02*
X152987351Y-125542290D01*
%TO.N,/sample_clk0_N*%
X152929314Y-106565000D02*
X152595000Y-106230685D01*
%TO.N,/sample_clk0_P*%
X152704507Y-126156504D02*
X152704507Y-125825133D01*
%TO.N,/sample_clk0_N*%
X148627561Y-129667768D02*
X148910402Y-129384925D01*
%TO.N,/sample_clk0_P*%
X152187352Y-126673659D02*
X152704507Y-126156504D01*
X154567249Y-122596712D02*
X155250089Y-123279552D01*
X156288566Y-121723921D02*
X157012486Y-120999999D01*
%TO.N,/sample_clk0_N*%
X152138825Y-124459452D02*
X152470195Y-124459453D01*
%TO.N,/sample_clk0_P*%
X151855982Y-126673659D02*
X152187352Y-126673659D01*
X151573138Y-126956502D02*
X150890299Y-126273660D01*
X156195000Y-106065000D02*
X156195000Y-104899315D01*
%TO.N,/sample_clk0_N*%
X159869996Y-120134316D02*
X159869995Y-121299998D01*
%TO.N,/sample_clk0_P*%
X151173142Y-125990819D02*
X151855982Y-126673659D01*
X151573138Y-127287873D02*
X151573138Y-126956502D01*
X167069969Y-121465683D02*
X167069969Y-121100000D01*
X151055983Y-127805028D02*
X151573138Y-127287873D01*
X158095000Y-106165000D02*
X157895000Y-106165000D01*
X150724613Y-127805028D02*
X151055983Y-127805028D01*
X149758930Y-127405029D02*
X150041773Y-127122188D01*
%TO.N,/sample_clk0_N*%
X150890299Y-127405030D02*
X151173140Y-127122187D01*
X156129314Y-106565000D02*
X155795000Y-106230685D01*
%TO.N,/sample_clk0_P*%
X155250089Y-123279552D02*
X155581459Y-123279552D01*
X173195685Y-112710000D02*
X173530000Y-112375685D01*
X150441769Y-128087871D02*
X149758930Y-127405029D01*
X150441769Y-128419242D02*
X150441769Y-128087871D01*
X173530000Y-111844314D02*
X173195685Y-111510000D01*
X149924614Y-128936397D02*
X150441769Y-128419242D01*
X166450592Y-99958577D02*
X166016742Y-100392426D01*
X149593244Y-128936397D02*
X149924614Y-128936397D01*
%TO.N,/sample_clk0_N*%
X159329314Y-105765000D02*
X158995000Y-105430686D01*
%TO.N,/sample_clk0_P*%
X148910404Y-128253557D02*
X149593244Y-128936397D01*
%TO.N,/sample_clk0_N*%
X151007456Y-125590821D02*
X151338826Y-125590822D01*
%TO.N,/sample_clk0_P*%
X154284406Y-122879553D02*
X154567249Y-122596712D01*
X154260685Y-104565000D02*
X153729314Y-104565000D01*
%TO.N,/sample_clk0_N*%
X155532932Y-121065345D02*
X155864302Y-121065346D01*
X156995000Y-106230685D02*
X156660685Y-106565000D01*
%TO.N,/sample_clk0_P*%
X148627561Y-128536398D02*
X148910404Y-128253557D01*
X149310400Y-129219240D02*
X148627561Y-128536398D01*
X172730000Y-106015686D02*
X174250000Y-104495686D01*
X149310400Y-129550611D02*
X149310400Y-129219240D01*
X150041773Y-127122188D02*
X150724613Y-127805028D01*
X171930000Y-112810000D02*
X172030000Y-112710000D01*
X148793245Y-130067766D02*
X149310400Y-129550611D01*
%TO.N,/sample_clk0_N*%
X152470195Y-124459453D02*
X153153037Y-125142292D01*
%TO.N,/sample_clk0_P*%
X155957196Y-121723921D02*
X156288566Y-121723921D01*
X148461875Y-130067766D02*
X148793245Y-130067766D01*
X164269979Y-121465683D02*
X164604294Y-121799998D01*
%TO.N,/sample_clk0_N*%
X150207457Y-126722191D02*
X150890299Y-127405030D01*
X173130000Y-112210000D02*
X173130000Y-112010000D01*
%TO.N,/sample_clk0_P*%
X147779035Y-129384926D02*
X148461875Y-130067766D01*
X147496192Y-129667767D02*
X147779035Y-129384926D01*
X159369997Y-120199999D02*
X159469998Y-120300000D01*
X148179031Y-130350609D02*
X147496192Y-129667767D01*
X148179031Y-130681980D02*
X148179031Y-130350609D01*
X162369987Y-120199999D02*
X162569985Y-120199999D01*
X154967245Y-123893766D02*
X154967245Y-123562395D01*
X165769973Y-120200000D02*
X165869974Y-120300001D01*
%TO.N,/sample_clk0_N*%
X163069984Y-120134316D02*
X163069983Y-121299998D01*
%TO.N,/sample_clk0_P*%
X147661876Y-131199135D02*
X148179031Y-130681980D01*
X147330506Y-131199135D02*
X147661876Y-131199135D01*
X150890299Y-126273660D02*
X151173142Y-125990819D01*
X172730000Y-117015686D02*
X172730000Y-115044314D01*
X146647666Y-130516296D02*
X147330506Y-131199135D01*
X146364823Y-130799137D02*
X146647666Y-130516296D01*
X146623400Y-131057716D02*
X146364823Y-130799137D01*
%TO.N,/sample_clk0_N*%
X152195000Y-106230685D02*
X151860685Y-106565000D01*
%TO.N,/sample_clk0_P*%
X155698618Y-121465343D02*
X155957196Y-121723921D01*
X146623400Y-131389086D02*
X146623400Y-131057716D01*
X165135660Y-121799998D02*
X165469975Y-121465683D01*
X145012602Y-135015000D02*
X144675000Y-134677398D01*
%TO.N,/sample_clk0_N*%
X164669977Y-121299999D02*
X164769978Y-121400000D01*
%TO.N,/sample_clk0_P*%
X153318721Y-125542290D02*
X153835876Y-125025135D01*
X144675000Y-135615000D02*
X145012602Y-135277398D01*
X153835876Y-124693764D02*
X153153037Y-124010922D01*
X139895000Y-104965000D02*
X139495000Y-105365000D01*
X144675000Y-133337486D02*
X146623400Y-131389086D01*
X153835876Y-125025135D02*
X153835876Y-124693764D01*
X144675000Y-138114999D02*
X144675000Y-135615000D01*
X151695000Y-106165000D02*
X151495000Y-106165000D01*
X145000000Y-138439999D02*
X144675000Y-138114999D01*
X145012602Y-135277398D02*
X145012602Y-135015000D01*
X160335678Y-121799997D02*
X160669993Y-121465682D01*
X145000000Y-141665000D02*
X145000000Y-138439999D01*
X165869974Y-120300001D02*
X165869973Y-121465683D01*
X144675000Y-134677398D02*
X144675000Y-133337486D01*
%TO.N,/sample_clk0_N*%
X164969976Y-121400000D02*
X165069977Y-121299999D01*
D20*
%TO.N,GND*%
X136000000Y-60825000D02*
X136000000Y-62124500D01*
X140825000Y-98500000D02*
X142000000Y-98500000D01*
X141500000Y-78500000D02*
X142624500Y-78500000D01*
X142825000Y-59000000D02*
X144000000Y-59000000D01*
X136000000Y-80325000D02*
X136000000Y-81200000D01*
X135000000Y-100325000D02*
X135000000Y-101500000D01*
D21*
%TO.N,VDDA*%
X124000000Y-56500000D02*
X124000000Y-70000000D01*
X124000000Y-70000000D02*
X124000000Y-71000000D01*
X124000000Y-90000000D02*
X124000000Y-91000000D01*
X123600000Y-116100000D02*
X123600000Y-115100000D01*
X124000000Y-96500000D02*
X124000000Y-110000000D01*
X123000000Y-55500000D02*
X124000000Y-56500000D01*
X123000000Y-94500000D02*
X123000000Y-95300000D01*
X123600000Y-115100000D02*
X123000000Y-114500000D01*
X123000000Y-95300000D02*
X124000000Y-96300000D01*
X123000000Y-51000000D02*
X124000000Y-50000000D01*
X123000000Y-75500000D02*
X124000000Y-76500000D01*
X123000000Y-54500000D02*
X123000000Y-55500000D01*
X124000000Y-91000000D02*
X123000000Y-92000000D01*
X124000000Y-96300000D02*
X124000000Y-96500000D01*
X124000000Y-116500000D02*
X123600000Y-116100000D01*
X124000000Y-76500000D02*
X124000000Y-90000000D01*
X123000000Y-94500000D02*
X123000000Y-92000000D01*
X123200000Y-111800000D02*
X123200000Y-110800000D01*
X123000000Y-52000000D02*
X123000000Y-51000000D01*
X123000000Y-74500000D02*
X123000000Y-75500000D01*
X123000000Y-114500000D02*
X123000000Y-112000000D01*
X124000000Y-71000000D02*
X123000000Y-72000000D01*
X123000000Y-112000000D02*
X123200000Y-111800000D01*
X123000000Y-72000000D02*
X123000000Y-74500000D01*
X123200000Y-110800000D02*
X124000000Y-110000000D01*
X123000000Y-52000000D02*
X123000000Y-54500000D01*
D20*
%TO.N,-HV*%
X117000000Y-54500000D02*
X117000000Y-52000000D01*
X117000000Y-112000000D02*
X117000000Y-92000000D01*
X103000000Y-138500000D02*
X103000000Y-141665000D01*
X117000000Y-72000000D02*
X117000000Y-54500000D01*
X117000000Y-114500000D02*
X117000000Y-112000000D01*
X117000000Y-92000000D02*
X117000000Y-74500000D01*
X117000000Y-74500000D02*
X117000000Y-72000000D01*
%TO.N,/interrupt*%
X126000000Y-138000000D02*
X126000000Y-141665000D01*
X106000000Y-85000000D02*
X106000000Y-104000000D01*
X106000000Y-104000000D02*
X106000000Y-118000000D01*
X106000000Y-118000000D02*
X126000000Y-138000000D01*
X106000000Y-85000000D02*
X106000000Y-62500000D01*
X111500000Y-48500000D02*
X106000000Y-54000000D01*
X106000000Y-54000000D02*
X106000000Y-62500000D01*
X111500000Y-43994961D02*
X111500000Y-48500000D01*
D21*
%TO.N,/POW4_in*%
X122000000Y-70000000D02*
X122000000Y-71000000D01*
X121400000Y-115900000D02*
X122000000Y-116500000D01*
X121000000Y-74500000D02*
X121000000Y-75500000D01*
X122000000Y-76500000D02*
X122000000Y-90000000D01*
X121000000Y-55500000D02*
X122000000Y-56500000D01*
X122000000Y-56500000D02*
X122000000Y-70000000D01*
X121000000Y-54500000D02*
X121000000Y-55500000D01*
X121000000Y-94500000D02*
X121000000Y-95500000D01*
X122000000Y-90000000D02*
X122000000Y-91000000D01*
X121000000Y-52000000D02*
X121000000Y-51000000D01*
X122000000Y-110000000D02*
X122000000Y-96500000D01*
X121000000Y-94500000D02*
X121000000Y-92000000D01*
X121200000Y-111800000D02*
X121000000Y-112000000D01*
X122000000Y-91000000D02*
X121000000Y-92000000D01*
X121000000Y-51000000D02*
X122000000Y-50000000D01*
X121000000Y-114500000D02*
X121400000Y-114900000D01*
X122000000Y-71000000D02*
X121000000Y-72000000D01*
X121400000Y-114900000D02*
X121400000Y-115900000D01*
X121000000Y-52000000D02*
X121000000Y-54500000D01*
X121000000Y-95500000D02*
X122000000Y-96500000D01*
X121200000Y-110800000D02*
X121200000Y-111800000D01*
X121000000Y-75500000D02*
X122000000Y-76500000D01*
X121000000Y-72000000D02*
X121000000Y-74500000D01*
X121000000Y-112000000D02*
X121000000Y-114500000D01*
X122000000Y-110000000D02*
X121200000Y-110800000D01*
D19*
%TO.N,/sample_clk2_N*%
X165765000Y-85040000D02*
X165365000Y-85040000D01*
X165365000Y-86005686D02*
X165130685Y-86240000D01*
X177400000Y-106540685D02*
X177400000Y-105809314D01*
X177634315Y-95575000D02*
X177400000Y-95340685D01*
X167599314Y-86240000D02*
X167365000Y-86005686D01*
X177400000Y-104940685D02*
X177400000Y-104209314D01*
X168565000Y-85040000D02*
X168565000Y-86005686D01*
X178600000Y-102375000D02*
X178600000Y-101975000D01*
X158965000Y-85405685D02*
X158730685Y-85640000D01*
X177634315Y-100775000D02*
X178600000Y-100775000D01*
X178600000Y-98775000D02*
X177634315Y-98775000D01*
X177634315Y-108375000D02*
X177400000Y-108140685D01*
X177634315Y-103975000D02*
X178600000Y-103975000D01*
X177634315Y-114775000D02*
X177400000Y-114540685D01*
X177634315Y-111575000D02*
X177400000Y-111340685D01*
X178234314Y-93975000D02*
X178000000Y-93740685D01*
X160965000Y-86005686D02*
X160965000Y-85040000D01*
X178000000Y-117009314D02*
X178234314Y-116775000D01*
X178600000Y-95575000D02*
X177634315Y-95575000D01*
X169199314Y-85640000D02*
X168965000Y-85405685D01*
X178600000Y-105175000D02*
X177634315Y-105175000D01*
X162565000Y-85040000D02*
X162165000Y-85040000D01*
X177634315Y-97175000D02*
X177400000Y-96940685D01*
X177634315Y-94375000D02*
X178600000Y-94375000D01*
X159365000Y-85040000D02*
X158965000Y-85040000D01*
X177634315Y-113175000D02*
X177400000Y-112940685D01*
X168965000Y-85405685D02*
X168965000Y-85040000D01*
X163530685Y-86240000D02*
X162799314Y-86240000D01*
X178600000Y-114775000D02*
X177634315Y-114775000D01*
X164165000Y-86005686D02*
X164165000Y-85040000D01*
X170010000Y-126040000D02*
X178000000Y-118050000D01*
X177634315Y-99175000D02*
X178600000Y-99175000D01*
X168965000Y-85040000D02*
X168565000Y-85040000D01*
X165999314Y-86240000D02*
X165765000Y-86005686D01*
X146325000Y-135292514D02*
X155577514Y-126040000D01*
X167365000Y-86005686D02*
X167365000Y-85040000D01*
X177400000Y-112209314D02*
X177634315Y-111975000D01*
X162165000Y-86005686D02*
X161930685Y-86240000D01*
X177634315Y-111975000D02*
X178600000Y-111975000D01*
X178600000Y-108775000D02*
X178600000Y-108375000D01*
X160565000Y-85040000D02*
X160565000Y-86005686D01*
X177400000Y-109009314D02*
X177634315Y-108775000D01*
X178000000Y-90765686D02*
X172874314Y-85640000D01*
X165130685Y-86240000D02*
X164399314Y-86240000D01*
X158965000Y-85040000D02*
X158965000Y-85405685D01*
X166965000Y-85040000D02*
X166965000Y-86005686D01*
X177400000Y-112940685D02*
X177400000Y-112209314D01*
X177634315Y-113575000D02*
X178600000Y-113575000D01*
X177400000Y-113809314D02*
X177634315Y-113575000D01*
X172874314Y-85640000D02*
X169199314Y-85640000D01*
X177400000Y-101009314D02*
X177634315Y-100775000D01*
X178600000Y-105575000D02*
X178600000Y-105175000D01*
X177400000Y-116140685D02*
X177400000Y-115409314D01*
X177634315Y-110375000D02*
X178600000Y-110375000D01*
X178600000Y-116375000D02*
X177634315Y-116375000D01*
X178600000Y-101975000D02*
X177634315Y-101975000D01*
X177634315Y-108775000D02*
X178600000Y-108775000D01*
X154235936Y-85640000D02*
X139490687Y-85640000D01*
X177400000Y-98540685D02*
X177400000Y-97809314D01*
X159365000Y-86005686D02*
X159365000Y-85040000D01*
X162799314Y-86240000D02*
X162565000Y-86005686D01*
X154835936Y-85889065D02*
X154485000Y-85889065D01*
X178600000Y-116775000D02*
X178600000Y-116375000D01*
X177400000Y-100140685D02*
X177400000Y-99409314D01*
X178600000Y-110375000D02*
X178600000Y-109975000D01*
X178600000Y-107175000D02*
X178600000Y-106775000D01*
X178600000Y-99175000D02*
X178600000Y-98775000D01*
X177400000Y-107409314D02*
X177634315Y-107175000D01*
X177400000Y-96940685D02*
X177400000Y-96209314D01*
X177400000Y-102609314D02*
X177634315Y-102375000D01*
X177634315Y-107175000D02*
X178600000Y-107175000D01*
X161199314Y-86240000D02*
X160965000Y-86005686D01*
X178600000Y-100375000D02*
X177634315Y-100375000D01*
X177634315Y-101975000D02*
X177400000Y-101740685D01*
X162165000Y-85040000D02*
X162165000Y-86005686D01*
X163765000Y-86005686D02*
X163530685Y-86240000D01*
X160330685Y-86240000D02*
X159599314Y-86240000D01*
X177400000Y-109740685D02*
X177400000Y-109009314D01*
X177400000Y-114540685D02*
X177400000Y-113809314D01*
X177634315Y-102375000D02*
X178600000Y-102375000D01*
X167365000Y-85040000D02*
X166965000Y-85040000D01*
X177400000Y-111340685D02*
X177400000Y-110609314D01*
X177634315Y-115175000D02*
X178600000Y-115175000D01*
X177400000Y-94609314D02*
X177634315Y-94375000D01*
X177634315Y-98775000D02*
X177400000Y-98540685D01*
X178600000Y-95975000D02*
X178600000Y-95575000D01*
X166730685Y-86240000D02*
X165999314Y-86240000D01*
X177400000Y-105809314D02*
X177634315Y-105575000D01*
X178600000Y-93975000D02*
X178234314Y-93975000D01*
X177400000Y-101740685D02*
X177400000Y-101009314D01*
X154485000Y-85889065D02*
X154235936Y-85640000D01*
X164399314Y-86240000D02*
X164165000Y-86005686D01*
X177400000Y-108140685D02*
X177400000Y-107409314D01*
X177400000Y-95340685D02*
X177400000Y-94609314D01*
X177634315Y-97575000D02*
X178600000Y-97575000D01*
X177634315Y-95975000D02*
X178600000Y-95975000D01*
X168565000Y-86005686D02*
X168330685Y-86240000D01*
X164165000Y-85040000D02*
X163765000Y-85040000D01*
X165365000Y-85040000D02*
X165365000Y-86005686D01*
X177400000Y-99409314D02*
X177634315Y-99175000D01*
X146000000Y-141665000D02*
X146000000Y-138439999D01*
X177634315Y-103575000D02*
X177400000Y-103340685D01*
X168330685Y-86240000D02*
X167599314Y-86240000D01*
X178600000Y-97175000D02*
X177634315Y-97175000D01*
X178600000Y-103575000D02*
X177634315Y-103575000D01*
X177634315Y-106775000D02*
X177400000Y-106540685D01*
X146325000Y-138114999D02*
X146325000Y-135292514D01*
X177400000Y-115409314D02*
X177634315Y-115175000D01*
X178600000Y-111975000D02*
X178600000Y-111575000D01*
X160965000Y-85040000D02*
X160565000Y-85040000D01*
X178600000Y-113575000D02*
X178600000Y-113175000D01*
X159599314Y-86240000D02*
X159365000Y-86005686D01*
X178234314Y-116775000D02*
X178600000Y-116775000D01*
X178600000Y-97575000D02*
X178600000Y-97175000D01*
X177400000Y-110609314D02*
X177634315Y-110375000D01*
X161930685Y-86240000D02*
X161199314Y-86240000D01*
X178600000Y-103975000D02*
X178600000Y-103575000D01*
X177400000Y-96209314D02*
X177634315Y-95975000D01*
X178600000Y-100775000D02*
X178600000Y-100375000D01*
X177634315Y-100375000D02*
X177400000Y-100140685D01*
X162565000Y-86005686D02*
X162565000Y-85040000D01*
X160565000Y-86005686D02*
X160330685Y-86240000D01*
X177400000Y-104209314D02*
X177634315Y-103975000D01*
X155577514Y-126040000D02*
X170010000Y-126040000D01*
X178600000Y-111575000D02*
X177634315Y-111575000D01*
X137000000Y-88130686D02*
X137000000Y-92000000D01*
X177400000Y-97809314D02*
X177634315Y-97575000D01*
X165765000Y-86005686D02*
X165765000Y-85040000D01*
X166965000Y-86005686D02*
X166730685Y-86240000D01*
X177634315Y-109975000D02*
X177400000Y-109740685D01*
X178600000Y-115175000D02*
X178600000Y-114775000D01*
X146000000Y-138439999D02*
X146325000Y-138114999D01*
X178000000Y-93740685D02*
X178000000Y-90765686D01*
X177634315Y-116375000D02*
X177400000Y-116140685D01*
X158730685Y-85640000D02*
X155085000Y-85640000D01*
X178600000Y-108375000D02*
X177634315Y-108375000D01*
X178600000Y-94375000D02*
X178600000Y-93975000D01*
X163765000Y-85040000D02*
X163765000Y-86005686D01*
X178000000Y-118050000D02*
X178000000Y-117009314D01*
X177634315Y-105175000D02*
X177400000Y-104940685D01*
X139490687Y-85640000D02*
X137000000Y-88130686D01*
X177400000Y-103340685D02*
X177400000Y-102609314D01*
X178600000Y-106775000D02*
X177634315Y-106775000D01*
X178600000Y-109975000D02*
X177634315Y-109975000D01*
X178600000Y-113175000D02*
X177634315Y-113175000D01*
X155085000Y-85640000D02*
X154835936Y-85889065D01*
X177634315Y-105575000D02*
X178600000Y-105575000D01*
D20*
%TO.N,/DAC_VCasc2!*%
X151000000Y-114500000D02*
X151000000Y-118000000D01*
X137000000Y-132000000D02*
X137000000Y-141665000D01*
X151000000Y-118000000D02*
X137000000Y-132000000D01*
D19*
%TO.N,/sample_clk2_P*%
X178080724Y-90280725D02*
X178080723Y-89467803D01*
X177800000Y-115575000D02*
X178765685Y-115575000D01*
X178765685Y-96375000D02*
X179000000Y-96140685D01*
X178765685Y-106375000D02*
X177800000Y-106375000D01*
X164965000Y-85840000D02*
X164565000Y-85840000D01*
X178765685Y-112775000D02*
X177800000Y-112775000D01*
X179000000Y-108209314D02*
X178765685Y-107975000D01*
X179000000Y-100940685D02*
X179000000Y-100209314D01*
X164965000Y-84874314D02*
X164965000Y-85840000D01*
X162965000Y-84874314D02*
X162730685Y-84640000D01*
X179000000Y-103409314D02*
X178765685Y-103175000D01*
X178765685Y-105975000D02*
X179000000Y-105740685D01*
X178765685Y-114375000D02*
X177800000Y-114375000D01*
X177800000Y-106375000D02*
X177800000Y-105975000D01*
X168399314Y-84640000D02*
X168165000Y-84874314D01*
X167530685Y-84640000D02*
X166799314Y-84640000D01*
X177250000Y-89450000D02*
X173040000Y-85240000D01*
X178765685Y-101575000D02*
X177800000Y-101575000D01*
X177800000Y-109175000D02*
X178765685Y-109175000D01*
X179000000Y-116940685D02*
X179000000Y-116209314D01*
X177800000Y-103175000D02*
X177800000Y-102775000D01*
X177800000Y-112375000D02*
X178765685Y-112375000D01*
X159765000Y-84874314D02*
X159530685Y-84640000D01*
X167765000Y-84874314D02*
X167530685Y-84640000D01*
X177800000Y-99575000D02*
X178765685Y-99575000D01*
X178765685Y-109575000D02*
X177800000Y-109575000D01*
X179000000Y-100209314D02*
X178765685Y-99975000D01*
X159765000Y-85840000D02*
X159765000Y-84874314D01*
X177800000Y-102775000D02*
X178765685Y-102775000D01*
X177800000Y-104775000D02*
X177800000Y-104375000D01*
X162730685Y-84640000D02*
X161999314Y-84640000D01*
X166799314Y-84640000D02*
X166565000Y-84874314D01*
X179000000Y-107340685D02*
X179000000Y-106609314D01*
X161365000Y-85840000D02*
X161365000Y-84874314D01*
X178765685Y-110775000D02*
X179000000Y-110540685D01*
X178400000Y-118215686D02*
X178400000Y-117175000D01*
X179000000Y-99340685D02*
X179000000Y-98609314D01*
X163365000Y-84874314D02*
X163365000Y-85840000D01*
X139325001Y-85240000D02*
X136600000Y-87965001D01*
X147000000Y-141665000D02*
X147000000Y-138439999D01*
X155743200Y-126440000D02*
X170175686Y-126440000D01*
X169365000Y-84874314D02*
X169130685Y-84640000D01*
X177800000Y-101175000D02*
X178765685Y-101175000D01*
X159530685Y-84640000D02*
X158799314Y-84640000D01*
X178765685Y-107975000D02*
X177800000Y-107975000D01*
X178765685Y-112375000D02*
X179000000Y-112140685D01*
X178765685Y-103175000D02*
X177800000Y-103175000D01*
X177800000Y-94775000D02*
X178765685Y-94775000D01*
X161365000Y-84874314D02*
X161130685Y-84640000D01*
X136600000Y-89400000D02*
X136000000Y-90000000D01*
X158565000Y-85240000D02*
X154110000Y-85240000D01*
X178765685Y-104375000D02*
X179000000Y-104140685D01*
X177800000Y-112775000D02*
X177800000Y-112375000D01*
X178765685Y-102775000D02*
X179000000Y-102540685D01*
X179000000Y-114609314D02*
X178765685Y-114375000D01*
X178765685Y-107575000D02*
X179000000Y-107340685D01*
X165199314Y-84640000D02*
X164965000Y-84874314D01*
X177800000Y-115975000D02*
X177800000Y-115575000D01*
X154110000Y-85240000D02*
X153787266Y-84917266D01*
X164330685Y-84640000D02*
X163599314Y-84640000D01*
X178765685Y-98375000D02*
X177800000Y-98375000D01*
X178765685Y-117175000D02*
X179000000Y-116940685D01*
X179000000Y-97740685D02*
X179000000Y-97009314D01*
X160165000Y-85840000D02*
X159765000Y-85840000D01*
X153510000Y-84917266D02*
X153187266Y-85240000D01*
X177800000Y-109575000D02*
X177800000Y-109175000D01*
X179000000Y-105740685D02*
X179000000Y-105009314D01*
X179000000Y-113009314D02*
X178765685Y-112775000D01*
X169130685Y-84640000D02*
X168399314Y-84640000D01*
X177800000Y-114375000D02*
X177800000Y-113975000D01*
X166565000Y-85840000D02*
X166165000Y-85840000D01*
X177800000Y-98375000D02*
X177800000Y-97975000D01*
X178080723Y-89467803D02*
X178062920Y-89450000D01*
X173040000Y-85240000D02*
X169365000Y-85240000D01*
X161130685Y-84640000D02*
X160399314Y-84640000D01*
X178765685Y-97975000D02*
X179000000Y-97740685D01*
X178400000Y-93575000D02*
X178400000Y-90600000D01*
X178765685Y-111175000D02*
X177800000Y-111175000D01*
X178765685Y-104775000D02*
X177800000Y-104775000D01*
X179000000Y-111409314D02*
X178765685Y-111175000D01*
X178765685Y-99575000D02*
X179000000Y-99340685D01*
X167765000Y-85840000D02*
X167765000Y-84874314D01*
X178765685Y-95175000D02*
X177800000Y-95175000D01*
X177800000Y-105975000D02*
X178765685Y-105975000D01*
X160165000Y-84874314D02*
X160165000Y-85840000D01*
X178765685Y-115975000D02*
X177800000Y-115975000D01*
X164565000Y-84874314D02*
X164330685Y-84640000D01*
X178400000Y-90600000D02*
X178080724Y-90280725D01*
X179000000Y-96140685D02*
X179000000Y-95409314D01*
X163365000Y-85840000D02*
X162965000Y-85840000D01*
X178765685Y-109175000D02*
X179000000Y-108940685D01*
X170175686Y-126440000D02*
X178400000Y-118215686D01*
X177800000Y-113975000D02*
X178765685Y-113975000D01*
X146725000Y-135458200D02*
X155743200Y-126440000D01*
X153187266Y-85240000D02*
X139325001Y-85240000D01*
X165930685Y-84640000D02*
X165199314Y-84640000D01*
X177800000Y-104375000D02*
X178765685Y-104375000D01*
X161999314Y-84640000D02*
X161765000Y-84874314D01*
X177800000Y-99975000D02*
X177800000Y-99575000D01*
X178062920Y-89450000D02*
X177250000Y-89450000D01*
X179000000Y-94540685D02*
X179000000Y-93809314D01*
X178765685Y-93575000D02*
X178400000Y-93575000D01*
X179000000Y-110540685D02*
X179000000Y-109809314D01*
X177800000Y-107975000D02*
X177800000Y-107575000D01*
X177800000Y-97975000D02*
X178765685Y-97975000D01*
X164565000Y-85840000D02*
X164565000Y-84874314D01*
X178765685Y-113975000D02*
X179000000Y-113740685D01*
X179000000Y-112140685D02*
X179000000Y-111409314D01*
X177800000Y-96375000D02*
X178765685Y-96375000D01*
X179000000Y-115340685D02*
X179000000Y-114609314D01*
X158799314Y-84640000D02*
X158565000Y-84874314D01*
X163599314Y-84640000D02*
X163365000Y-84874314D01*
X147000000Y-138439999D02*
X146725000Y-138164999D01*
X178765685Y-99975000D02*
X177800000Y-99975000D01*
X179000000Y-109809314D02*
X178765685Y-109575000D01*
X178765685Y-96775000D02*
X177800000Y-96775000D01*
X179000000Y-95409314D02*
X178765685Y-95175000D01*
X179000000Y-102540685D02*
X179000000Y-101809314D01*
X162965000Y-85840000D02*
X162965000Y-84874314D01*
X177800000Y-107575000D02*
X178765685Y-107575000D01*
X178765685Y-94775000D02*
X179000000Y-94540685D01*
X179000000Y-105009314D02*
X178765685Y-104775000D01*
X177800000Y-95175000D02*
X177800000Y-94775000D01*
X166565000Y-84874314D02*
X166565000Y-85840000D01*
X153787266Y-84917266D02*
X153510000Y-84917266D01*
X136600000Y-87965001D02*
X136600000Y-89400000D01*
X146725000Y-138164999D02*
X146725000Y-135458200D01*
X177800000Y-111175000D02*
X177800000Y-110775000D01*
X168165000Y-84874314D02*
X168165000Y-85840000D01*
X178400000Y-117175000D02*
X178765685Y-117175000D01*
X179000000Y-101809314D02*
X178765685Y-101575000D01*
X166165000Y-85840000D02*
X166165000Y-84874314D01*
X179000000Y-93809314D02*
X178765685Y-93575000D01*
X160399314Y-84640000D02*
X160165000Y-84874314D01*
X177800000Y-101575000D02*
X177800000Y-101175000D01*
X161765000Y-84874314D02*
X161765000Y-85840000D01*
X179000000Y-106609314D02*
X178765685Y-106375000D01*
X179000000Y-116209314D02*
X178765685Y-115975000D01*
X177800000Y-110775000D02*
X178765685Y-110775000D01*
X179000000Y-108940685D02*
X179000000Y-108209314D01*
X169365000Y-85240000D02*
X169365000Y-84874314D01*
X166165000Y-84874314D02*
X165930685Y-84640000D01*
X179000000Y-98609314D02*
X178765685Y-98375000D01*
X179000000Y-113740685D02*
X179000000Y-113009314D01*
X179000000Y-97009314D02*
X178765685Y-96775000D01*
X161765000Y-85840000D02*
X161365000Y-85840000D01*
X179000000Y-104140685D02*
X179000000Y-103409314D01*
X177800000Y-96775000D02*
X177800000Y-96375000D01*
X178765685Y-115575000D02*
X179000000Y-115340685D01*
X178765685Y-101175000D02*
X179000000Y-100940685D01*
X168165000Y-85840000D02*
X167765000Y-85840000D01*
X158565000Y-84874314D02*
X158565000Y-85240000D01*
%TO.N,/sample_clk4_N*%
X150000000Y-141665000D02*
X150000000Y-136817515D01*
X184000000Y-121167514D02*
X184000000Y-78800000D01*
X173184314Y-47000000D02*
X137362490Y-47000000D01*
X136950000Y-51950000D02*
X137000000Y-52000000D01*
X184000000Y-57815686D02*
X173184314Y-47000000D01*
X183553285Y-78353286D02*
X183553285Y-78200000D01*
X184000000Y-77753286D02*
X184000000Y-57815686D01*
X184000000Y-78800000D02*
X183553285Y-78353286D01*
X137362490Y-47000000D02*
X136950000Y-47412490D01*
X155477515Y-131340000D02*
X173827514Y-131340000D01*
X183553285Y-78200000D02*
X184000000Y-77753286D01*
X150000000Y-136817515D02*
X155477515Y-131340000D01*
X173827514Y-131340000D02*
X184000000Y-121167514D01*
X136950000Y-47412490D02*
X136950000Y-51950000D01*
D20*
%TO.N,/sr_ck1*%
X126000000Y-130500000D02*
X111000000Y-115500000D01*
X111000000Y-80365000D02*
X111000000Y-61000000D01*
X111000000Y-80365000D02*
X111000000Y-100000000D01*
X128036839Y-130661339D02*
X127875500Y-130500000D01*
X127875500Y-130500000D02*
X126000000Y-130500000D01*
X111000000Y-100000000D02*
X111000000Y-115500000D01*
%TO.N,/res_n*%
X112600000Y-48900000D02*
X107000000Y-54500000D01*
X107000000Y-84466499D02*
X107000000Y-61500000D01*
X107000000Y-103163455D02*
X107000000Y-84466499D01*
X127000000Y-137500000D02*
X127000000Y-141665000D01*
X112600000Y-43000000D02*
X112600000Y-48900000D01*
X107000000Y-54500000D02*
X107000000Y-61500000D01*
X107000000Y-103163455D02*
X107000000Y-117500000D01*
X107000000Y-117500000D02*
X127000000Y-137500000D01*
D21*
%TO.N,/VDD18_in*%
X119000000Y-55500000D02*
X120000000Y-56500000D01*
X119000000Y-95500000D02*
X120000000Y-96500000D01*
X119000000Y-114500000D02*
X119600000Y-115100000D01*
X119600000Y-116100000D02*
X120000000Y-116500000D01*
X119600000Y-115100000D02*
X119600000Y-116100000D01*
X119000000Y-92000000D02*
X119000000Y-94500000D01*
X120000000Y-96500000D02*
X120000000Y-110000000D01*
X120000000Y-56500000D02*
X120000000Y-70000000D01*
X119000000Y-112000000D02*
X119000000Y-114500000D01*
X120000000Y-50000000D02*
X119000000Y-51000000D01*
X119000000Y-94500000D02*
X119000000Y-95500000D01*
X119000000Y-52000000D02*
X119000000Y-54500000D01*
X120000000Y-90000000D02*
X120000000Y-91000000D01*
X120000000Y-91000000D02*
X119000000Y-92000000D01*
X120000000Y-70000000D02*
X120000000Y-71000000D01*
X120000000Y-76500000D02*
X120000000Y-90000000D01*
X119000000Y-74500000D02*
X119000000Y-75500000D01*
X119600000Y-110400000D02*
X119600000Y-111400000D01*
X119000000Y-51000000D02*
X119000000Y-52000000D01*
X119600000Y-111400000D02*
X119000000Y-112000000D01*
X120000000Y-71000000D02*
X119000000Y-72000000D01*
X119000000Y-72000000D02*
X119000000Y-74500000D01*
X120000000Y-110000000D02*
X119600000Y-110400000D01*
X119000000Y-75500000D02*
X120000000Y-76500000D01*
X119000000Y-54500000D02*
X119000000Y-55500000D01*
D20*
%TO.N,/hold*%
X104000000Y-105500000D02*
X104000000Y-86000000D01*
X104000000Y-119000000D02*
X124000000Y-139000000D01*
X124000000Y-139000000D02*
X124000000Y-141665000D01*
X104000000Y-64600000D02*
X104000000Y-52865000D01*
X104000000Y-86000000D02*
X104000000Y-64600000D01*
X104000000Y-105500000D02*
X104000000Y-119000000D01*
X104000000Y-52865000D02*
X109050000Y-47815000D01*
%TO.N,/DAC_blpix*%
X150000000Y-117442845D02*
X136024500Y-131418345D01*
X150000000Y-116500000D02*
X150000000Y-117442845D01*
X136024500Y-131418345D02*
X136024500Y-141640500D01*
%TO.N,/sr_rb*%
X110000000Y-99000000D02*
X110000000Y-79500000D01*
X110000000Y-79500000D02*
X110000000Y-60000000D01*
X110000000Y-116000000D02*
X110000000Y-99000000D01*
X125500000Y-131500000D02*
X110000000Y-116000000D01*
X127000000Y-131500000D02*
X125500000Y-131500000D01*
%TO.N,/timestamp_clk*%
X110500000Y-48000000D02*
X105000000Y-53500000D01*
X105000000Y-105000000D02*
X105000000Y-85500000D01*
X105000000Y-118500000D02*
X105000000Y-105000000D01*
X125000000Y-138500000D02*
X125000000Y-141665000D01*
X110500000Y-45000000D02*
X110500000Y-48000000D01*
X105000000Y-118500000D02*
X125000000Y-138500000D01*
X105000000Y-85500000D02*
X105000000Y-63375500D01*
X105000000Y-53500000D02*
X105000000Y-63375500D01*
%TO.N,/sr_ck2*%
X112000000Y-61750000D02*
X112000000Y-101000000D01*
X126600000Y-129600000D02*
X112000000Y-115000000D01*
X129100000Y-129600000D02*
X126600000Y-129600000D01*
X129403478Y-129903478D02*
X129100000Y-129600000D01*
X112000000Y-115000000D02*
X112000000Y-101000000D01*
%TO.N,/sr_sin*%
X141000000Y-115957500D02*
X141000000Y-121200000D01*
X141000000Y-121200000D02*
X129000000Y-133200000D01*
X129000000Y-133200000D02*
X129000000Y-141665000D01*
X142000000Y-114957500D02*
X141000000Y-115957500D01*
X143000000Y-112000000D02*
X142000000Y-113000000D01*
X142000000Y-113000000D02*
X142000000Y-114957500D01*
D19*
%TO.N,/sample_clk3_N*%
X158700000Y-129440000D02*
X159100000Y-129440000D01*
X168934314Y-128240000D02*
X169665685Y-128240000D01*
X181800000Y-116180000D02*
X181434314Y-116180000D01*
X180600000Y-117545685D02*
X180600000Y-116814314D01*
X180902406Y-109062406D02*
X180902406Y-108760000D01*
X160700000Y-128474315D02*
X160934314Y-128240000D01*
X180902406Y-108760000D02*
X181200000Y-108462406D01*
X157500000Y-128474315D02*
X157734314Y-128240000D01*
X181200000Y-70765686D02*
X176324314Y-65890000D01*
X168300000Y-128474315D02*
X168300000Y-129440000D01*
X155406800Y-128840000D02*
X157500000Y-128840000D01*
X165500000Y-128474315D02*
X165734314Y-128240000D01*
X161900000Y-128474315D02*
X161900000Y-129440000D01*
X164865685Y-128240000D02*
X165100000Y-128474315D01*
X160700000Y-129440000D02*
X160700000Y-128474315D01*
X148000000Y-141665000D02*
X148000000Y-138439999D01*
X163265685Y-128240000D02*
X163500000Y-128474315D01*
X162534314Y-128240000D02*
X163265685Y-128240000D01*
X168700000Y-129440000D02*
X168700000Y-128474315D01*
X158700000Y-128474315D02*
X158700000Y-129440000D01*
X168700000Y-128474315D02*
X168934314Y-128240000D01*
X181200000Y-109360000D02*
X180902406Y-109062406D01*
X170534314Y-128840000D02*
X172256800Y-128840000D01*
X160934314Y-128240000D02*
X161665685Y-128240000D01*
X159100000Y-129440000D02*
X159100000Y-128474315D01*
X163500000Y-128474315D02*
X163500000Y-129440000D01*
X180834315Y-116580000D02*
X181800000Y-116580000D01*
X176324314Y-65890000D02*
X139272486Y-65890000D01*
X169900000Y-128474315D02*
X169900000Y-129440000D01*
X165734314Y-128240000D02*
X166465685Y-128240000D01*
X166700000Y-128474315D02*
X166700000Y-129440000D01*
X163500000Y-129440000D02*
X163900000Y-129440000D01*
X181200000Y-119896800D02*
X181200000Y-117780000D01*
X168300000Y-129440000D02*
X168700000Y-129440000D01*
X165500000Y-129440000D02*
X165500000Y-128474315D01*
X157500000Y-128840000D02*
X157500000Y-128474315D01*
X162300000Y-128474315D02*
X162534314Y-128240000D01*
X181200000Y-115945685D02*
X181200000Y-109360000D01*
X166465685Y-128240000D02*
X166700000Y-128474315D01*
X180600000Y-116814314D02*
X180834315Y-116580000D01*
X170300000Y-129074314D02*
X170534314Y-128840000D01*
X181434314Y-116180000D02*
X181200000Y-115945685D01*
X172256800Y-128840000D02*
X181200000Y-119896800D01*
X167334314Y-128240000D02*
X168065685Y-128240000D01*
X163900000Y-129440000D02*
X163900000Y-128474315D01*
X160065685Y-128240000D02*
X160300000Y-128474315D01*
X165100000Y-129440000D02*
X165500000Y-129440000D01*
X165100000Y-128474315D02*
X165100000Y-129440000D01*
X139272486Y-65890000D02*
X137000000Y-68162486D01*
X160300000Y-129440000D02*
X160700000Y-129440000D01*
X162300000Y-129440000D02*
X162300000Y-128474315D01*
X169900000Y-129440000D02*
X170300000Y-129440000D01*
X161900000Y-129440000D02*
X162300000Y-129440000D01*
X148000000Y-138439999D02*
X148325000Y-138114999D01*
X157734314Y-128240000D02*
X158465685Y-128240000D01*
X161665685Y-128240000D02*
X161900000Y-128474315D01*
X167100000Y-128474315D02*
X167334314Y-128240000D01*
X181200000Y-108462406D02*
X181200000Y-70765686D01*
X168065685Y-128240000D02*
X168300000Y-128474315D01*
X181800000Y-116580000D02*
X181800000Y-116180000D01*
X170300000Y-129440000D02*
X170300000Y-129074314D01*
X160300000Y-128474315D02*
X160300000Y-129440000D01*
X181200000Y-117780000D02*
X180834315Y-117780000D01*
X166700000Y-129440000D02*
X167100000Y-129440000D01*
X163900000Y-128474315D02*
X164134314Y-128240000D01*
X148325000Y-138114999D02*
X148325000Y-135921800D01*
X159100000Y-128474315D02*
X159334314Y-128240000D01*
X159334314Y-128240000D02*
X160065685Y-128240000D01*
X158465685Y-128240000D02*
X158700000Y-128474315D01*
X137000000Y-68162486D02*
X137000000Y-72000000D01*
X180834315Y-117780000D02*
X180600000Y-117545685D01*
X164134314Y-128240000D02*
X164865685Y-128240000D01*
X169665685Y-128240000D02*
X169900000Y-128474315D01*
X167100000Y-129440000D02*
X167100000Y-128474315D01*
X148325000Y-135921800D02*
X155406800Y-128840000D01*
%TO.N,/sample_clk4_P*%
X136550000Y-47246804D02*
X136550000Y-49450000D01*
X173350000Y-46600000D02*
X137196805Y-46600000D01*
X184724098Y-89050902D02*
X184724098Y-88775000D01*
X184400000Y-57650000D02*
X173350000Y-46600000D01*
X155643201Y-131740000D02*
X173993200Y-131740000D01*
X155091602Y-133109159D02*
X155091601Y-133109159D01*
X184724098Y-88775000D02*
X184400000Y-88450902D01*
X151000000Y-141665000D02*
X151000000Y-138439999D01*
X154525917Y-133266066D02*
X154525916Y-133266068D01*
X184400000Y-121333199D02*
X184400000Y-89375000D01*
X137196805Y-46600000D02*
X136550000Y-47246804D01*
X155091600Y-132700380D02*
X155091601Y-132700380D01*
X173993200Y-131740000D02*
X184400000Y-121333199D01*
X155091601Y-132291600D02*
X155643201Y-131740000D01*
X150725000Y-138164999D02*
X150725000Y-136658201D01*
X184400000Y-88450902D02*
X184400000Y-57650000D01*
X155091601Y-132700381D02*
X155091600Y-132700380D01*
X150725000Y-136658201D02*
X154117139Y-133266066D01*
X136550000Y-49450000D02*
X136000000Y-50000000D01*
X154934695Y-133266067D02*
X155091602Y-133109159D01*
X184400000Y-89375000D02*
X184724098Y-89050902D01*
X151000000Y-138439999D02*
X150725000Y-138164999D01*
X154525916Y-133266067D02*
G75*
G03*
X154117140Y-133266067I-204388J-204387D01*
G01*
X154934690Y-133266062D02*
G75*
G02*
X154525916Y-133266068I-204390J204362D01*
G01*
X155091570Y-132700412D02*
G75*
G02*
X155091600Y-133109158I-204370J-204388D01*
G01*
X155091611Y-132291610D02*
G75*
G03*
X155091601Y-132700380I204389J-204390D01*
G01*
D20*
%TO.N,/DAC_ThPix*%
X138000000Y-132500000D02*
X138000000Y-141665000D01*
X152000000Y-116657070D02*
X152000000Y-118500000D01*
X152000000Y-118500000D02*
X138000000Y-132500000D01*
%TO.N,/sr_ld*%
X109000000Y-61215000D02*
X109000000Y-83000000D01*
X128000000Y-132765000D02*
X139000000Y-121765000D01*
X139000000Y-120195660D02*
X139000000Y-116100000D01*
X127980000Y-132800000D02*
X128000000Y-132780000D01*
X109000000Y-83000000D02*
X109000000Y-116500000D01*
X113750000Y-42250000D02*
X113750000Y-49159099D01*
X139000000Y-121030000D02*
X139234340Y-120795660D01*
X113750000Y-49159099D02*
X109000000Y-53909099D01*
X125300000Y-132800000D02*
X127980000Y-132800000D01*
X139234340Y-120795660D02*
X139234340Y-120430000D01*
X109000000Y-116500000D02*
X125300000Y-132800000D01*
X140000000Y-115100000D02*
X140000000Y-111593097D01*
X109000000Y-53909099D02*
X109000000Y-61215000D01*
X128000000Y-141665000D02*
X128000000Y-132760000D01*
X128000000Y-132780000D02*
X128000000Y-132765000D01*
X140000000Y-111593097D02*
X141593097Y-110000000D01*
X141593097Y-110000000D02*
X142000000Y-110000000D01*
X139234340Y-120430000D02*
X139000000Y-120195660D01*
X139000000Y-121765000D02*
X139000000Y-121030000D01*
X139000000Y-116100000D02*
X140000000Y-115100000D01*
D19*
%TO.N,/sample_clk3_P*%
X158300000Y-129605685D02*
X158534314Y-129840000D01*
X181600000Y-83440000D02*
X181600000Y-83185990D01*
X181000000Y-117380000D02*
X181000000Y-116980000D01*
X170700000Y-129605685D02*
X170700000Y-129240000D01*
X165900000Y-129605685D02*
X165900000Y-128640000D01*
X148725000Y-136087486D02*
X155572486Y-129240000D01*
X162465685Y-129840000D02*
X162700000Y-129605685D01*
X181600000Y-70600001D02*
X176490000Y-65490000D01*
X181600000Y-115780000D02*
X181600000Y-84385990D01*
X167900000Y-129605685D02*
X168134314Y-129840000D01*
X182200000Y-116745685D02*
X182200000Y-116014314D01*
X181945991Y-82840000D02*
X181945991Y-82585990D01*
X158300000Y-128640000D02*
X158300000Y-129605685D01*
X168865685Y-129840000D02*
X169100000Y-129605685D01*
X163100000Y-128640000D02*
X163100000Y-129605685D01*
X139106800Y-65490000D02*
X136600000Y-67996801D01*
X162700000Y-128640000D02*
X163100000Y-128640000D01*
X166534314Y-129840000D02*
X167265685Y-129840000D01*
X181965685Y-115780000D02*
X181600000Y-115780000D01*
X161100000Y-128640000D02*
X161500000Y-128640000D01*
X181600000Y-83185990D02*
X181945991Y-82840000D01*
X159900000Y-128640000D02*
X159900000Y-129605685D01*
X157665685Y-129240000D02*
X157900000Y-129005686D01*
X167500000Y-128640000D02*
X167900000Y-128640000D01*
X158534314Y-129840000D02*
X159265685Y-129840000D01*
X149000000Y-138439999D02*
X148725000Y-138164999D01*
X169500000Y-129605685D02*
X169734314Y-129840000D01*
X161500000Y-128640000D02*
X161500000Y-129605685D01*
X157900000Y-129005686D02*
X157900000Y-128640000D01*
X181000000Y-116980000D02*
X181965685Y-116980000D01*
X149000000Y-141665000D02*
X149000000Y-138439999D01*
X161500000Y-129605685D02*
X161734314Y-129840000D01*
X168134314Y-129840000D02*
X168865685Y-129840000D01*
X169500000Y-128640000D02*
X169500000Y-129605685D01*
X169100000Y-129605685D02*
X169100000Y-128640000D01*
X181365686Y-117380000D02*
X181000000Y-117380000D01*
X159900000Y-129605685D02*
X160134314Y-129840000D01*
X181945991Y-82585990D02*
X181600000Y-82240000D01*
X181965685Y-116980000D02*
X182200000Y-116745685D01*
X166300000Y-128640000D02*
X166300000Y-129605685D01*
X163100000Y-129605685D02*
X163334314Y-129840000D01*
X148725000Y-138164999D02*
X148725000Y-136087486D01*
X181600000Y-120062485D02*
X181600000Y-117614314D01*
X170700000Y-129240000D02*
X172422486Y-129240000D01*
X161734314Y-129840000D02*
X162465685Y-129840000D01*
X155572486Y-129240000D02*
X157665685Y-129240000D01*
X167500000Y-129605685D02*
X167500000Y-128640000D01*
X169734314Y-129840000D02*
X170465685Y-129840000D01*
X170465685Y-129840000D02*
X170700000Y-129605685D01*
X181600000Y-84385990D02*
X181945991Y-84040000D01*
X136600000Y-69400000D02*
X136000000Y-70000000D01*
X136600000Y-67996801D02*
X136600000Y-69400000D01*
X161100000Y-129605685D02*
X161100000Y-128640000D01*
X159500000Y-128640000D02*
X159900000Y-128640000D01*
X166300000Y-129605685D02*
X166534314Y-129840000D01*
X165665685Y-129840000D02*
X165900000Y-129605685D01*
X167900000Y-128640000D02*
X167900000Y-129605685D01*
X162700000Y-129605685D02*
X162700000Y-128640000D01*
X172422486Y-129240000D02*
X181600000Y-120062485D01*
X160865685Y-129840000D02*
X161100000Y-129605685D01*
X181600000Y-117614314D02*
X181365686Y-117380000D01*
X157900000Y-128640000D02*
X158300000Y-128640000D01*
X167265685Y-129840000D02*
X167500000Y-129605685D01*
X164934314Y-129840000D02*
X165665685Y-129840000D01*
X159265685Y-129840000D02*
X159500000Y-129605685D01*
X160134314Y-129840000D02*
X160865685Y-129840000D01*
X164300000Y-129605685D02*
X164300000Y-128640000D01*
X164065685Y-129840000D02*
X164300000Y-129605685D01*
X164700000Y-128640000D02*
X164700000Y-129605685D01*
X176490000Y-65490000D02*
X139106800Y-65490000D01*
X181600000Y-82240000D02*
X181600000Y-70600001D01*
X182200000Y-116014314D02*
X181965685Y-115780000D01*
X181945991Y-84040000D02*
X181945991Y-83785990D01*
X159500000Y-129605685D02*
X159500000Y-128640000D01*
X164300000Y-128640000D02*
X164700000Y-128640000D01*
X169100000Y-128640000D02*
X169500000Y-128640000D01*
X163334314Y-129840000D02*
X164065685Y-129840000D01*
X181945991Y-83785990D02*
X181600000Y-83440000D01*
X165900000Y-128640000D02*
X166300000Y-128640000D01*
X164700000Y-129605685D02*
X164934314Y-129840000D01*
D20*
%TO.N,/DAC_vminuspix*%
X139000000Y-133000000D02*
X153000000Y-119000000D01*
X153000000Y-119000000D02*
X153000000Y-114500000D01*
X139000000Y-141665000D02*
X139000000Y-133000000D01*
%TO.N,/spi1_clk*%
X137000000Y-98000000D02*
X137000000Y-96000000D01*
X138000000Y-101500000D02*
X136500000Y-100000000D01*
X154000000Y-100083867D02*
X152583867Y-101500000D01*
X135468867Y-94468867D02*
X135344937Y-94468867D01*
X138000000Y-101500000D02*
X152583867Y-101500000D01*
X136500000Y-100000000D02*
X136500000Y-98500000D01*
X137000000Y-96000000D02*
X135468867Y-94468867D01*
X136500000Y-98500000D02*
X137000000Y-98000000D01*
%TO.N,/spi1_miso1*%
X135000000Y-98675000D02*
X135500000Y-98175000D01*
X155000000Y-100732902D02*
X153232902Y-102500000D01*
X135500000Y-96999999D02*
X136031132Y-96468867D01*
X133825000Y-98675000D02*
X135000000Y-98675000D01*
X153200000Y-102500000D02*
X134525000Y-102500000D01*
X134525000Y-102500000D02*
X133500000Y-101475000D01*
X135500000Y-98175000D02*
X135500000Y-96999999D01*
X133500000Y-101475000D02*
X133500000Y-99000000D01*
X133500000Y-99000000D02*
X133825000Y-98675000D01*
%TO.N,/spi1_miso0*%
X139500000Y-99500000D02*
X139175000Y-99175000D01*
X154681132Y-98500000D02*
X152800000Y-98500000D01*
X139000000Y-97450000D02*
X139000000Y-95943098D01*
X139175000Y-97625000D02*
X139000000Y-97450000D01*
X137525769Y-94468867D02*
X137282672Y-94468867D01*
X152800000Y-98500000D02*
X151800000Y-99500000D01*
X139175000Y-99175000D02*
X139175000Y-97625000D01*
X139000000Y-95943098D02*
X137525769Y-94468867D01*
X151800000Y-99500000D02*
X139500000Y-99500000D01*
%TO.N,/spi1_csn*%
X134000000Y-103500000D02*
X132500000Y-102000000D01*
X134000000Y-103500000D02*
X153746790Y-103500000D01*
X132500000Y-102000000D02*
X132500000Y-97999999D01*
X156350911Y-100895879D02*
X153746790Y-103500000D01*
X132500000Y-97999999D02*
X134031132Y-96468867D01*
X157097701Y-100895879D02*
X156350911Y-100895879D01*
%TO.N,/spi1_mosi*%
X154258884Y-99458867D02*
X153141125Y-99458867D01*
X153141125Y-99458867D02*
X152099992Y-100500000D01*
X152099992Y-100500000D02*
X138900000Y-100500000D01*
X157000000Y-99463425D02*
X154263442Y-99463425D01*
X138000000Y-99600000D02*
X138000000Y-96499999D01*
X138900000Y-100500000D02*
X138000000Y-99600000D01*
X154263442Y-99463425D02*
X154258884Y-99458867D01*
%TO.N,/spi2_clk*%
X137000000Y-76000000D02*
X135518867Y-74518867D01*
X153200000Y-81100000D02*
X138900000Y-81100000D01*
X153900000Y-80400000D02*
X153200000Y-81100000D01*
X135518867Y-74518867D02*
X135468867Y-74518867D01*
X138900000Y-81100000D02*
X137000000Y-79200000D01*
X137000000Y-79200000D02*
X137000000Y-76000000D01*
%TO.N,/spi2_miso1*%
X136000000Y-78400000D02*
X136000000Y-76537735D01*
X135100000Y-81400000D02*
X135100000Y-79300000D01*
X136600000Y-81900000D02*
X136500000Y-82000000D01*
X154200000Y-81900000D02*
X136600000Y-81900000D01*
X136000000Y-76537735D02*
X135981132Y-76518867D01*
X135100000Y-79300000D02*
X136000000Y-78400000D01*
X135700000Y-82000000D02*
X135100000Y-81400000D01*
X154800000Y-81300000D02*
X154200000Y-81900000D01*
X136500000Y-82000000D02*
X135700000Y-82000000D01*
%TO.N,/spi2_miso0*%
X139000000Y-77776368D02*
X139000000Y-76000000D01*
X139000000Y-76000000D02*
X137518867Y-74518867D01*
X137518867Y-74518867D02*
X136981132Y-74518867D01*
X151300000Y-78500000D02*
X150400000Y-79400000D01*
X150400000Y-79400000D02*
X140623632Y-79400000D01*
X154631132Y-78500000D02*
X151300000Y-78500000D01*
X140623632Y-79400000D02*
X139000000Y-77776368D01*
%TO.N,/spi2_csn*%
X154800000Y-82800000D02*
X134900000Y-82800000D01*
X134900000Y-82800000D02*
X134200000Y-82100000D01*
X134200000Y-76737735D02*
X133981132Y-76518867D01*
X155966922Y-81633078D02*
X154800000Y-82800000D01*
X158118445Y-81633078D02*
X155966922Y-81633078D01*
X134200000Y-82100000D02*
X134200000Y-76737735D01*
%TO.N,/spi2_mosi*%
X139800000Y-80300000D02*
X137981132Y-78481132D01*
X157500000Y-80500000D02*
X156500000Y-79500000D01*
X151000000Y-80300000D02*
X139800000Y-80300000D01*
X137981132Y-78481132D02*
X137981132Y-76518867D01*
X151800000Y-79500000D02*
X151000000Y-80300000D01*
X156500000Y-79500000D02*
X151800000Y-79500000D01*
%TO.N,/spi3_clk*%
X135313805Y-54500000D02*
X135556902Y-54500000D01*
X139425000Y-60925000D02*
X154375000Y-60925000D01*
X137000000Y-55943098D02*
X137000000Y-58500000D01*
X137000000Y-58500000D02*
X139425000Y-60925000D01*
X135556902Y-54500000D02*
X137000000Y-55943098D01*
X154375000Y-60925000D02*
X154450000Y-61000000D01*
%TO.N,/spi3_miso1*%
X138650000Y-61825000D02*
X155366589Y-61825000D01*
X155366589Y-61825000D02*
X155541589Y-62000000D01*
X136000000Y-59000000D02*
X136000000Y-56500000D01*
X136000000Y-59175000D02*
X138650000Y-61825000D01*
%TO.N,/spi3_miso0*%
X139000000Y-55915000D02*
X139000000Y-56825000D01*
X151300000Y-57900000D02*
X154300000Y-57900000D01*
X149648128Y-59200000D02*
X150200000Y-59200000D01*
X142025000Y-58150000D02*
X148598128Y-58150000D01*
X151000000Y-58400000D02*
X151000000Y-58200000D01*
X137000000Y-54500000D02*
X137585000Y-54500000D01*
X137585000Y-54500000D02*
X139000000Y-55915000D01*
X151000000Y-58200000D02*
X151300000Y-57900000D01*
X139000000Y-56825000D02*
X141175000Y-59000000D01*
X154650000Y-58250000D02*
X154650000Y-58866000D01*
X150200000Y-59200000D02*
X151000000Y-58400000D01*
X141175000Y-59000000D02*
X142025000Y-58150000D01*
X148598128Y-58150000D02*
X149648128Y-59200000D01*
X154300000Y-57900000D02*
X154650000Y-58250000D01*
%TO.N,/spi3_csn*%
X134000000Y-56500000D02*
X134000000Y-61500000D01*
X157275000Y-62775000D02*
X157500000Y-63000000D01*
X134000000Y-61500000D02*
X135275000Y-62775000D01*
X135275000Y-62775000D02*
X157275000Y-62775000D01*
%TO.N,/spi3_mosi*%
X139977974Y-59977974D02*
X155977974Y-59977974D01*
X155977974Y-59977974D02*
X157500000Y-61500000D01*
X138000000Y-56500000D02*
X138000000Y-58000000D01*
X138000000Y-58000000D02*
X139977974Y-59977974D01*
%TO.N,/sr_out3*%
X108000000Y-60500000D02*
X108000000Y-117000000D01*
X108000000Y-117000000D02*
X125000000Y-134000000D01*
X125000000Y-134000000D02*
X125900000Y-134000000D01*
%TO.N,/DAC_ThPMOS*%
X150000000Y-58050000D02*
X149975000Y-58050000D01*
X135000000Y-131000000D02*
X149000000Y-117000000D01*
X135000000Y-138200000D02*
X135000000Y-131000000D01*
X149000000Y-76000000D02*
X150000000Y-75000000D01*
X150000000Y-94993451D02*
X150000000Y-90000000D01*
X149000000Y-57075000D02*
X149000000Y-56000000D01*
X150000000Y-78100000D02*
X149000000Y-77100000D01*
X149000000Y-77100000D02*
X149000000Y-76000000D01*
X150000000Y-55000000D02*
X150000000Y-50000000D01*
X150000000Y-115093097D02*
X150000000Y-110000000D01*
X149000000Y-56000000D02*
X150000000Y-55000000D01*
X149000000Y-117000000D02*
X149000000Y-116093097D01*
X150000000Y-78400000D02*
X150000000Y-78100000D01*
X149975000Y-58050000D02*
X149000000Y-57075000D01*
X150000000Y-75000000D02*
X150000000Y-70000000D01*
X135250000Y-138450000D02*
X135000000Y-138200000D01*
X149000000Y-95993451D02*
X150000000Y-94993451D01*
X149000000Y-97000000D02*
X149000000Y-95993451D01*
X150000000Y-98050000D02*
X150000000Y-98000000D01*
X149000000Y-116093097D02*
X150000000Y-115093097D01*
X150000000Y-98000000D02*
X149000000Y-97000000D01*
D21*
%TO.N,VSSA*%
X126000000Y-71000000D02*
X125000000Y-72000000D01*
X126000000Y-91000000D02*
X126000000Y-76500000D01*
X125700000Y-116200000D02*
X125700000Y-115200000D01*
X126000000Y-110000000D02*
X126000000Y-96300000D01*
X126000000Y-116500000D02*
X125700000Y-116200000D01*
X125000000Y-75500000D02*
X125000000Y-74500000D01*
X125000000Y-54500000D02*
X125000000Y-51000000D01*
X125700000Y-115200000D02*
X125000000Y-114500000D01*
X125000000Y-111000000D02*
X126000000Y-110000000D01*
X125000000Y-92000000D02*
X126000000Y-91000000D01*
X126000000Y-56300000D02*
X125000000Y-55300000D01*
X125000000Y-51000000D02*
X126000000Y-50000000D01*
X126000000Y-70000000D02*
X126000000Y-56300000D01*
X126000000Y-76500000D02*
X125000000Y-75500000D01*
X125000000Y-94500000D02*
X125000000Y-92000000D01*
X125000000Y-114500000D02*
X125000000Y-112000000D01*
X125000000Y-55300000D02*
X125000000Y-54500000D01*
X126000000Y-70000000D02*
X126000000Y-71000000D01*
X125000000Y-95300000D02*
X125000000Y-94500000D01*
X126000000Y-96300000D02*
X125000000Y-95300000D01*
X125000000Y-74500000D02*
X125000000Y-72000000D01*
X125000000Y-112000000D02*
X125000000Y-111000000D01*
%TD*%
%TA.AperFunction,Conductor*%
%TO.N,GND*%
G36*
X113942121Y-135185002D02*
G01*
X113988614Y-135238658D01*
X114000000Y-135291000D01*
X114000000Y-136488864D01*
X113979998Y-136556985D01*
X113927251Y-136603058D01*
X113900436Y-136615562D01*
X113900427Y-136615567D01*
X113895450Y-136617888D01*
X113722805Y-136738775D01*
X113573775Y-136887805D01*
X113452888Y-137060450D01*
X113363817Y-137251463D01*
X113356501Y-137278768D01*
X113351175Y-137298644D01*
X113351174Y-137298645D01*
X113349611Y-137298226D01*
X113349013Y-137302765D01*
X113350000Y-137303029D01*
X113344384Y-137323988D01*
X113325984Y-137392659D01*
X113309268Y-137455042D01*
X113291201Y-137661545D01*
X113290514Y-137665000D01*
X113292934Y-137677166D01*
X113292934Y-137677167D01*
X113293079Y-137677894D01*
X113295500Y-137702476D01*
X113295500Y-143674000D01*
X113275498Y-143742121D01*
X113221842Y-143788614D01*
X113169500Y-143800000D01*
X112776000Y-143800000D01*
X112707879Y-143779998D01*
X112661386Y-143726342D01*
X112650000Y-143674000D01*
X112650000Y-139500000D01*
X112649145Y-139494873D01*
X112649145Y-139494867D01*
X112601714Y-139210284D01*
X112600000Y-139189570D01*
X112600000Y-135291000D01*
X112620002Y-135222879D01*
X112673658Y-135176386D01*
X112726000Y-135165000D01*
X113874000Y-135165000D01*
X113942121Y-135185002D01*
G37*
%TD.AperFunction*%
%TD*%
%TA.AperFunction,Conductor*%
%TO.N,VSSA*%
G36*
X112282621Y-136185002D02*
G01*
X112329114Y-136238658D01*
X112340500Y-136291000D01*
X112340500Y-139189570D01*
X112341384Y-139210969D01*
X112343098Y-139231683D01*
X112345745Y-139252946D01*
X112345956Y-139254210D01*
X112345959Y-139254233D01*
X112365008Y-139368524D01*
X112365008Y-139409951D01*
X112350000Y-139500000D01*
X112350000Y-143674000D01*
X112329998Y-143742121D01*
X112276342Y-143788614D01*
X112224000Y-143800000D01*
X111776000Y-143800000D01*
X111707879Y-143779998D01*
X111661386Y-143726342D01*
X111650000Y-143674000D01*
X111650000Y-139200000D01*
X111350000Y-139200000D01*
X111350000Y-143674000D01*
X111329998Y-143742121D01*
X111276342Y-143788614D01*
X111224000Y-143800000D01*
X110776000Y-143800000D01*
X110707879Y-143779998D01*
X110661386Y-143726342D01*
X110650000Y-143674000D01*
X110650000Y-143582798D01*
X110651282Y-143564867D01*
X110654362Y-143543448D01*
X110654362Y-143543441D01*
X110655001Y-143539000D01*
X110655000Y-139557998D01*
X110675616Y-139488931D01*
X110678168Y-139485038D01*
X110682051Y-139480219D01*
X110694955Y-139455551D01*
X110726119Y-139395978D01*
X110726120Y-139395976D01*
X110728987Y-139390495D01*
X110748989Y-139322374D01*
X110755513Y-139277000D01*
X110758861Y-139253713D01*
X110758861Y-139253706D01*
X110759500Y-139249265D01*
X110759500Y-136347567D01*
X110779502Y-136279446D01*
X110801210Y-136253912D01*
X110862875Y-136198413D01*
X110881348Y-136184624D01*
X110882645Y-136183830D01*
X110925478Y-136167389D01*
X110926972Y-136167113D01*
X110949946Y-136165000D01*
X112214500Y-136165000D01*
X112282621Y-136185002D01*
G37*
%TD.AperFunction*%
%TD*%
%TA.AperFunction,Conductor*%
%TO.N,VDDA*%
G36*
X110442121Y-136185002D02*
G01*
X110488614Y-136238658D01*
X110500000Y-136291000D01*
X110500000Y-139249265D01*
X110479998Y-139317386D01*
X110471055Y-139328483D01*
X110466516Y-139331516D01*
X110410266Y-139415699D01*
X110395500Y-139489933D01*
X110395500Y-139496120D01*
X110395501Y-143539000D01*
X110375499Y-143607121D01*
X110321843Y-143653614D01*
X110269501Y-143665000D01*
X108730500Y-143665000D01*
X108662379Y-143644998D01*
X108615886Y-143591342D01*
X108604500Y-143539000D01*
X108604499Y-139496122D01*
X108604499Y-139489934D01*
X108589734Y-139415699D01*
X108533484Y-139331516D01*
X108532986Y-139331183D01*
X108502879Y-139276048D01*
X108500000Y-139249265D01*
X108500000Y-138931937D01*
X108509591Y-138883719D01*
X108537068Y-138817383D01*
X108540228Y-138809754D01*
X108544308Y-138778768D01*
X108558207Y-138673188D01*
X108559285Y-138665000D01*
X108540228Y-138520246D01*
X108537068Y-138512617D01*
X108509591Y-138446281D01*
X108500000Y-138398063D01*
X108500000Y-137931937D01*
X108509591Y-137883719D01*
X108537068Y-137817383D01*
X108540228Y-137809754D01*
X108544308Y-137778768D01*
X108558207Y-137673188D01*
X108559285Y-137665000D01*
X108540228Y-137520246D01*
X108537068Y-137512617D01*
X108509591Y-137446281D01*
X108500000Y-137398063D01*
X108500000Y-136931937D01*
X108509591Y-136883719D01*
X108537068Y-136817383D01*
X108540228Y-136809754D01*
X108559285Y-136665000D01*
X108540228Y-136520246D01*
X108537068Y-136512617D01*
X108509591Y-136446281D01*
X108500000Y-136398063D01*
X108500000Y-136291000D01*
X108520002Y-136222879D01*
X108573658Y-136176386D01*
X108626000Y-136165000D01*
X110374000Y-136165000D01*
X110442121Y-136185002D01*
G37*
%TD.AperFunction*%
%TD*%
%TA.AperFunction,Conductor*%
%TO.N,/POW4_in*%
G36*
X108182621Y-136185002D02*
G01*
X108229114Y-136238658D01*
X108240500Y-136291000D01*
X108240500Y-136398063D01*
X108245486Y-136448688D01*
X108255077Y-136496906D01*
X108269844Y-136545587D01*
X108271025Y-136548437D01*
X108271027Y-136548444D01*
X108281059Y-136572663D01*
X108289572Y-136604432D01*
X108295381Y-136648552D01*
X108295381Y-136681448D01*
X108289572Y-136725568D01*
X108281059Y-136757337D01*
X108269844Y-136784413D01*
X108255077Y-136833094D01*
X108245486Y-136881312D01*
X108240500Y-136931937D01*
X108240500Y-137398063D01*
X108245486Y-137448688D01*
X108255077Y-137496906D01*
X108269844Y-137545587D01*
X108271025Y-137548437D01*
X108271027Y-137548444D01*
X108281059Y-137572663D01*
X108289572Y-137604432D01*
X108295381Y-137648552D01*
X108295381Y-137681448D01*
X108289572Y-137725568D01*
X108281059Y-137757337D01*
X108269844Y-137784413D01*
X108255077Y-137833094D01*
X108245486Y-137881312D01*
X108240500Y-137931937D01*
X108240500Y-138398063D01*
X108245486Y-138448688D01*
X108255077Y-138496906D01*
X108269844Y-138545587D01*
X108271025Y-138548437D01*
X108271027Y-138548444D01*
X108281059Y-138572663D01*
X108289572Y-138604432D01*
X108295381Y-138648552D01*
X108295381Y-138681448D01*
X108289572Y-138725568D01*
X108281059Y-138757337D01*
X108269844Y-138784413D01*
X108255077Y-138833094D01*
X108245486Y-138881312D01*
X108240500Y-138931937D01*
X108240500Y-139249265D01*
X108241986Y-139277000D01*
X108244865Y-139303783D01*
X108252040Y-139326697D01*
X108272017Y-139390495D01*
X108275123Y-139400416D01*
X108278085Y-139405840D01*
X108278087Y-139405845D01*
X108300752Y-139447350D01*
X108305230Y-139455551D01*
X108305939Y-139456722D01*
X108317170Y-139475279D01*
X108315898Y-139476049D01*
X108316358Y-139477204D01*
X108317998Y-139476108D01*
X108317999Y-139476109D01*
X108323764Y-139484736D01*
X108337863Y-139531215D01*
X108339029Y-139534143D01*
X108338920Y-139534700D01*
X108344999Y-139554738D01*
X108345000Y-143539000D01*
X108324998Y-143607121D01*
X108271342Y-143653614D01*
X108219000Y-143665000D01*
X106781001Y-143665000D01*
X106712880Y-143644998D01*
X106666387Y-143591342D01*
X106655001Y-143539000D01*
X106655000Y-139557998D01*
X106675616Y-139488931D01*
X106678168Y-139485038D01*
X106682051Y-139480219D01*
X106728987Y-139390495D01*
X106748989Y-139322374D01*
X106750813Y-139309693D01*
X106758861Y-139253713D01*
X106758861Y-139253706D01*
X106759500Y-139249265D01*
X106759500Y-138931937D01*
X106754514Y-138881312D01*
X106744923Y-138833094D01*
X106730156Y-138784413D01*
X106718941Y-138757337D01*
X106710428Y-138725568D01*
X106704619Y-138681448D01*
X106704619Y-138648552D01*
X106710428Y-138604432D01*
X106718941Y-138572663D01*
X106728973Y-138548444D01*
X106728975Y-138548437D01*
X106730156Y-138545587D01*
X106744923Y-138496906D01*
X106754514Y-138448688D01*
X106759500Y-138398063D01*
X106759500Y-137931937D01*
X106754514Y-137881312D01*
X106744923Y-137833094D01*
X106730156Y-137784413D01*
X106718941Y-137757337D01*
X106710428Y-137725568D01*
X106704619Y-137681448D01*
X106704619Y-137648552D01*
X106710428Y-137604432D01*
X106718941Y-137572663D01*
X106728973Y-137548444D01*
X106728975Y-137548437D01*
X106730156Y-137545587D01*
X106744923Y-137496906D01*
X106754514Y-137448688D01*
X106759500Y-137398063D01*
X106759500Y-136931937D01*
X106754514Y-136881312D01*
X106744923Y-136833094D01*
X106730156Y-136784413D01*
X106718941Y-136757337D01*
X106710428Y-136725568D01*
X106704619Y-136681448D01*
X106704619Y-136648552D01*
X106710428Y-136604432D01*
X106718941Y-136572663D01*
X106728973Y-136548444D01*
X106728975Y-136548437D01*
X106730156Y-136545587D01*
X106744923Y-136496906D01*
X106754514Y-136448688D01*
X106759500Y-136398063D01*
X106759500Y-136291000D01*
X106779502Y-136222879D01*
X106833158Y-136176386D01*
X106885500Y-136165000D01*
X108114500Y-136165000D01*
X108182621Y-136185002D01*
G37*
%TD.AperFunction*%
%TD*%
%TA.AperFunction,Conductor*%
%TO.N,/VDD18_in*%
G36*
X106442121Y-136185002D02*
G01*
X106488614Y-136238658D01*
X106500000Y-136291000D01*
X106500000Y-136398063D01*
X106490409Y-136446281D01*
X106462932Y-136512617D01*
X106459772Y-136520246D01*
X106440715Y-136665000D01*
X106459772Y-136809754D01*
X106462932Y-136817383D01*
X106490409Y-136883719D01*
X106500000Y-136931937D01*
X106500000Y-137398063D01*
X106490409Y-137446281D01*
X106462932Y-137512617D01*
X106459772Y-137520246D01*
X106440715Y-137665000D01*
X106441793Y-137673188D01*
X106455693Y-137778768D01*
X106459772Y-137809754D01*
X106462932Y-137817383D01*
X106490409Y-137883719D01*
X106500000Y-137931937D01*
X106500000Y-138398063D01*
X106490409Y-138446281D01*
X106462932Y-138512617D01*
X106459772Y-138520246D01*
X106440715Y-138665000D01*
X106441793Y-138673188D01*
X106455693Y-138778768D01*
X106459772Y-138809754D01*
X106462932Y-138817383D01*
X106490409Y-138883719D01*
X106500000Y-138931937D01*
X106500000Y-139249265D01*
X106479998Y-139317386D01*
X106471055Y-139328483D01*
X106466516Y-139331516D01*
X106410266Y-139415699D01*
X106395500Y-139489933D01*
X106395500Y-139496120D01*
X106395501Y-143539000D01*
X106375499Y-143607121D01*
X106321843Y-143653614D01*
X106269501Y-143665000D01*
X104730500Y-143665000D01*
X104662379Y-143644998D01*
X104615886Y-143591342D01*
X104604500Y-143539000D01*
X104604499Y-139496122D01*
X104604499Y-139489934D01*
X104589734Y-139415699D01*
X104533484Y-139331516D01*
X104532986Y-139331183D01*
X104502879Y-139276048D01*
X104500000Y-139249265D01*
X104500000Y-136291000D01*
X104520002Y-136222879D01*
X104573658Y-136176386D01*
X104626000Y-136165000D01*
X106374000Y-136165000D01*
X106442121Y-136185002D01*
G37*
%TD.AperFunction*%
%TD*%
M02*
