%TF.GenerationSoftware,KiCad,Pcbnew,7.0.7*%
%TF.CreationDate,2023-09-19T15:45:05-04:00*%
%TF.ProjectId,AstroPix_telescope,41737472-6f50-4697-985f-74656c657363,1.3*%
%TF.SameCoordinates,Original*%
%TF.FileFunction,AssemblyDrawing,Bot*%
%FSLAX46Y46*%
G04 Gerber Fmt 4.6, Leading zero omitted, Abs format (unit mm)*
G04 Created by KiCad (PCBNEW 7.0.7) date 2023-09-19 15:45:05*
%MOMM*%
%LPD*%
G01*
G04 APERTURE LIST*
%ADD10C,0.150000*%
%ADD11C,0.100000*%
%ADD12C,0.200000*%
G04 APERTURE END LIST*
D10*
X160433095Y-71084104D02*
X159956905Y-71084104D01*
X160528333Y-71369819D02*
X160195000Y-70369819D01*
X160195000Y-70369819D02*
X159861667Y-71369819D01*
X159575952Y-71322200D02*
X159480714Y-71369819D01*
X159480714Y-71369819D02*
X159290238Y-71369819D01*
X159290238Y-71369819D02*
X159195000Y-71322200D01*
X159195000Y-71322200D02*
X159147381Y-71226961D01*
X159147381Y-71226961D02*
X159147381Y-71179342D01*
X159147381Y-71179342D02*
X159195000Y-71084104D01*
X159195000Y-71084104D02*
X159290238Y-71036485D01*
X159290238Y-71036485D02*
X159433095Y-71036485D01*
X159433095Y-71036485D02*
X159528333Y-70988866D01*
X159528333Y-70988866D02*
X159575952Y-70893628D01*
X159575952Y-70893628D02*
X159575952Y-70846009D01*
X159575952Y-70846009D02*
X159528333Y-70750771D01*
X159528333Y-70750771D02*
X159433095Y-70703152D01*
X159433095Y-70703152D02*
X159290238Y-70703152D01*
X159290238Y-70703152D02*
X159195000Y-70750771D01*
X158861666Y-70703152D02*
X158480714Y-70703152D01*
X158718809Y-70369819D02*
X158718809Y-71226961D01*
X158718809Y-71226961D02*
X158671190Y-71322200D01*
X158671190Y-71322200D02*
X158575952Y-71369819D01*
X158575952Y-71369819D02*
X158480714Y-71369819D01*
X158147380Y-71369819D02*
X158147380Y-70703152D01*
X158147380Y-70893628D02*
X158099761Y-70798390D01*
X158099761Y-70798390D02*
X158052142Y-70750771D01*
X158052142Y-70750771D02*
X157956904Y-70703152D01*
X157956904Y-70703152D02*
X157861666Y-70703152D01*
X157385475Y-71369819D02*
X157480713Y-71322200D01*
X157480713Y-71322200D02*
X157528332Y-71274580D01*
X157528332Y-71274580D02*
X157575951Y-71179342D01*
X157575951Y-71179342D02*
X157575951Y-70893628D01*
X157575951Y-70893628D02*
X157528332Y-70798390D01*
X157528332Y-70798390D02*
X157480713Y-70750771D01*
X157480713Y-70750771D02*
X157385475Y-70703152D01*
X157385475Y-70703152D02*
X157242618Y-70703152D01*
X157242618Y-70703152D02*
X157147380Y-70750771D01*
X157147380Y-70750771D02*
X157099761Y-70798390D01*
X157099761Y-70798390D02*
X157052142Y-70893628D01*
X157052142Y-70893628D02*
X157052142Y-71179342D01*
X157052142Y-71179342D02*
X157099761Y-71274580D01*
X157099761Y-71274580D02*
X157147380Y-71322200D01*
X157147380Y-71322200D02*
X157242618Y-71369819D01*
X157242618Y-71369819D02*
X157385475Y-71369819D01*
X156623570Y-71369819D02*
X156623570Y-70369819D01*
X156623570Y-70369819D02*
X156242618Y-70369819D01*
X156242618Y-70369819D02*
X156147380Y-70417438D01*
X156147380Y-70417438D02*
X156099761Y-70465057D01*
X156099761Y-70465057D02*
X156052142Y-70560295D01*
X156052142Y-70560295D02*
X156052142Y-70703152D01*
X156052142Y-70703152D02*
X156099761Y-70798390D01*
X156099761Y-70798390D02*
X156147380Y-70846009D01*
X156147380Y-70846009D02*
X156242618Y-70893628D01*
X156242618Y-70893628D02*
X156623570Y-70893628D01*
X155623570Y-71369819D02*
X155623570Y-70703152D01*
X155623570Y-70369819D02*
X155671189Y-70417438D01*
X155671189Y-70417438D02*
X155623570Y-70465057D01*
X155623570Y-70465057D02*
X155575951Y-70417438D01*
X155575951Y-70417438D02*
X155623570Y-70369819D01*
X155623570Y-70369819D02*
X155623570Y-70465057D01*
X155242618Y-71369819D02*
X154718809Y-70703152D01*
X155242618Y-70703152D02*
X154718809Y-71369819D01*
X154385475Y-70465057D02*
X154337856Y-70417438D01*
X154337856Y-70417438D02*
X154242618Y-70369819D01*
X154242618Y-70369819D02*
X154004523Y-70369819D01*
X154004523Y-70369819D02*
X153909285Y-70417438D01*
X153909285Y-70417438D02*
X153861666Y-70465057D01*
X153861666Y-70465057D02*
X153814047Y-70560295D01*
X153814047Y-70560295D02*
X153814047Y-70655533D01*
X153814047Y-70655533D02*
X153861666Y-70798390D01*
X153861666Y-70798390D02*
X154433094Y-71369819D01*
X154433094Y-71369819D02*
X153814047Y-71369819D01*
X153623571Y-71465057D02*
X152861666Y-71465057D01*
X152623570Y-70703152D02*
X152623570Y-71703152D01*
X152623570Y-70750771D02*
X152528332Y-70703152D01*
X152528332Y-70703152D02*
X152337856Y-70703152D01*
X152337856Y-70703152D02*
X152242618Y-70750771D01*
X152242618Y-70750771D02*
X152194999Y-70798390D01*
X152194999Y-70798390D02*
X152147380Y-70893628D01*
X152147380Y-70893628D02*
X152147380Y-71179342D01*
X152147380Y-71179342D02*
X152194999Y-71274580D01*
X152194999Y-71274580D02*
X152242618Y-71322200D01*
X152242618Y-71322200D02*
X152337856Y-71369819D01*
X152337856Y-71369819D02*
X152528332Y-71369819D01*
X152528332Y-71369819D02*
X152623570Y-71322200D01*
X151290237Y-71322200D02*
X151385475Y-71369819D01*
X151385475Y-71369819D02*
X151575951Y-71369819D01*
X151575951Y-71369819D02*
X151671189Y-71322200D01*
X151671189Y-71322200D02*
X151718808Y-71274580D01*
X151718808Y-71274580D02*
X151766427Y-71179342D01*
X151766427Y-71179342D02*
X151766427Y-70893628D01*
X151766427Y-70893628D02*
X151718808Y-70798390D01*
X151718808Y-70798390D02*
X151671189Y-70750771D01*
X151671189Y-70750771D02*
X151575951Y-70703152D01*
X151575951Y-70703152D02*
X151385475Y-70703152D01*
X151385475Y-70703152D02*
X151290237Y-70750771D01*
X150861665Y-71369819D02*
X150861665Y-70703152D01*
X150861665Y-70369819D02*
X150909284Y-70417438D01*
X150909284Y-70417438D02*
X150861665Y-70465057D01*
X150861665Y-70465057D02*
X150814046Y-70417438D01*
X150814046Y-70417438D02*
X150861665Y-70369819D01*
X150861665Y-70369819D02*
X150861665Y-70465057D01*
X150004523Y-71322200D02*
X150099761Y-71369819D01*
X150099761Y-71369819D02*
X150290237Y-71369819D01*
X150290237Y-71369819D02*
X150385475Y-71322200D01*
X150385475Y-71322200D02*
X150433094Y-71226961D01*
X150433094Y-71226961D02*
X150433094Y-70846009D01*
X150433094Y-70846009D02*
X150385475Y-70750771D01*
X150385475Y-70750771D02*
X150290237Y-70703152D01*
X150290237Y-70703152D02*
X150099761Y-70703152D01*
X150099761Y-70703152D02*
X150004523Y-70750771D01*
X150004523Y-70750771D02*
X149956904Y-70846009D01*
X149956904Y-70846009D02*
X149956904Y-70941247D01*
X149956904Y-70941247D02*
X150433094Y-71036485D01*
X160433095Y-91084104D02*
X159956905Y-91084104D01*
X160528333Y-91369819D02*
X160195000Y-90369819D01*
X160195000Y-90369819D02*
X159861667Y-91369819D01*
X159575952Y-91322200D02*
X159480714Y-91369819D01*
X159480714Y-91369819D02*
X159290238Y-91369819D01*
X159290238Y-91369819D02*
X159195000Y-91322200D01*
X159195000Y-91322200D02*
X159147381Y-91226961D01*
X159147381Y-91226961D02*
X159147381Y-91179342D01*
X159147381Y-91179342D02*
X159195000Y-91084104D01*
X159195000Y-91084104D02*
X159290238Y-91036485D01*
X159290238Y-91036485D02*
X159433095Y-91036485D01*
X159433095Y-91036485D02*
X159528333Y-90988866D01*
X159528333Y-90988866D02*
X159575952Y-90893628D01*
X159575952Y-90893628D02*
X159575952Y-90846009D01*
X159575952Y-90846009D02*
X159528333Y-90750771D01*
X159528333Y-90750771D02*
X159433095Y-90703152D01*
X159433095Y-90703152D02*
X159290238Y-90703152D01*
X159290238Y-90703152D02*
X159195000Y-90750771D01*
X158861666Y-90703152D02*
X158480714Y-90703152D01*
X158718809Y-90369819D02*
X158718809Y-91226961D01*
X158718809Y-91226961D02*
X158671190Y-91322200D01*
X158671190Y-91322200D02*
X158575952Y-91369819D01*
X158575952Y-91369819D02*
X158480714Y-91369819D01*
X158147380Y-91369819D02*
X158147380Y-90703152D01*
X158147380Y-90893628D02*
X158099761Y-90798390D01*
X158099761Y-90798390D02*
X158052142Y-90750771D01*
X158052142Y-90750771D02*
X157956904Y-90703152D01*
X157956904Y-90703152D02*
X157861666Y-90703152D01*
X157385475Y-91369819D02*
X157480713Y-91322200D01*
X157480713Y-91322200D02*
X157528332Y-91274580D01*
X157528332Y-91274580D02*
X157575951Y-91179342D01*
X157575951Y-91179342D02*
X157575951Y-90893628D01*
X157575951Y-90893628D02*
X157528332Y-90798390D01*
X157528332Y-90798390D02*
X157480713Y-90750771D01*
X157480713Y-90750771D02*
X157385475Y-90703152D01*
X157385475Y-90703152D02*
X157242618Y-90703152D01*
X157242618Y-90703152D02*
X157147380Y-90750771D01*
X157147380Y-90750771D02*
X157099761Y-90798390D01*
X157099761Y-90798390D02*
X157052142Y-90893628D01*
X157052142Y-90893628D02*
X157052142Y-91179342D01*
X157052142Y-91179342D02*
X157099761Y-91274580D01*
X157099761Y-91274580D02*
X157147380Y-91322200D01*
X157147380Y-91322200D02*
X157242618Y-91369819D01*
X157242618Y-91369819D02*
X157385475Y-91369819D01*
X156623570Y-91369819D02*
X156623570Y-90369819D01*
X156623570Y-90369819D02*
X156242618Y-90369819D01*
X156242618Y-90369819D02*
X156147380Y-90417438D01*
X156147380Y-90417438D02*
X156099761Y-90465057D01*
X156099761Y-90465057D02*
X156052142Y-90560295D01*
X156052142Y-90560295D02*
X156052142Y-90703152D01*
X156052142Y-90703152D02*
X156099761Y-90798390D01*
X156099761Y-90798390D02*
X156147380Y-90846009D01*
X156147380Y-90846009D02*
X156242618Y-90893628D01*
X156242618Y-90893628D02*
X156623570Y-90893628D01*
X155623570Y-91369819D02*
X155623570Y-90703152D01*
X155623570Y-90369819D02*
X155671189Y-90417438D01*
X155671189Y-90417438D02*
X155623570Y-90465057D01*
X155623570Y-90465057D02*
X155575951Y-90417438D01*
X155575951Y-90417438D02*
X155623570Y-90369819D01*
X155623570Y-90369819D02*
X155623570Y-90465057D01*
X155242618Y-91369819D02*
X154718809Y-90703152D01*
X155242618Y-90703152D02*
X154718809Y-91369819D01*
X154385475Y-90465057D02*
X154337856Y-90417438D01*
X154337856Y-90417438D02*
X154242618Y-90369819D01*
X154242618Y-90369819D02*
X154004523Y-90369819D01*
X154004523Y-90369819D02*
X153909285Y-90417438D01*
X153909285Y-90417438D02*
X153861666Y-90465057D01*
X153861666Y-90465057D02*
X153814047Y-90560295D01*
X153814047Y-90560295D02*
X153814047Y-90655533D01*
X153814047Y-90655533D02*
X153861666Y-90798390D01*
X153861666Y-90798390D02*
X154433094Y-91369819D01*
X154433094Y-91369819D02*
X153814047Y-91369819D01*
X153623571Y-91465057D02*
X152861666Y-91465057D01*
X152623570Y-90703152D02*
X152623570Y-91703152D01*
X152623570Y-90750771D02*
X152528332Y-90703152D01*
X152528332Y-90703152D02*
X152337856Y-90703152D01*
X152337856Y-90703152D02*
X152242618Y-90750771D01*
X152242618Y-90750771D02*
X152194999Y-90798390D01*
X152194999Y-90798390D02*
X152147380Y-90893628D01*
X152147380Y-90893628D02*
X152147380Y-91179342D01*
X152147380Y-91179342D02*
X152194999Y-91274580D01*
X152194999Y-91274580D02*
X152242618Y-91322200D01*
X152242618Y-91322200D02*
X152337856Y-91369819D01*
X152337856Y-91369819D02*
X152528332Y-91369819D01*
X152528332Y-91369819D02*
X152623570Y-91322200D01*
X151290237Y-91322200D02*
X151385475Y-91369819D01*
X151385475Y-91369819D02*
X151575951Y-91369819D01*
X151575951Y-91369819D02*
X151671189Y-91322200D01*
X151671189Y-91322200D02*
X151718808Y-91274580D01*
X151718808Y-91274580D02*
X151766427Y-91179342D01*
X151766427Y-91179342D02*
X151766427Y-90893628D01*
X151766427Y-90893628D02*
X151718808Y-90798390D01*
X151718808Y-90798390D02*
X151671189Y-90750771D01*
X151671189Y-90750771D02*
X151575951Y-90703152D01*
X151575951Y-90703152D02*
X151385475Y-90703152D01*
X151385475Y-90703152D02*
X151290237Y-90750771D01*
X150861665Y-91369819D02*
X150861665Y-90703152D01*
X150861665Y-90369819D02*
X150909284Y-90417438D01*
X150909284Y-90417438D02*
X150861665Y-90465057D01*
X150861665Y-90465057D02*
X150814046Y-90417438D01*
X150814046Y-90417438D02*
X150861665Y-90369819D01*
X150861665Y-90369819D02*
X150861665Y-90465057D01*
X150004523Y-91322200D02*
X150099761Y-91369819D01*
X150099761Y-91369819D02*
X150290237Y-91369819D01*
X150290237Y-91369819D02*
X150385475Y-91322200D01*
X150385475Y-91322200D02*
X150433094Y-91226961D01*
X150433094Y-91226961D02*
X150433094Y-90846009D01*
X150433094Y-90846009D02*
X150385475Y-90750771D01*
X150385475Y-90750771D02*
X150290237Y-90703152D01*
X150290237Y-90703152D02*
X150099761Y-90703152D01*
X150099761Y-90703152D02*
X150004523Y-90750771D01*
X150004523Y-90750771D02*
X149956904Y-90846009D01*
X149956904Y-90846009D02*
X149956904Y-90941247D01*
X149956904Y-90941247D02*
X150433094Y-91036485D01*
X160433095Y-131084104D02*
X159956905Y-131084104D01*
X160528333Y-131369819D02*
X160195000Y-130369819D01*
X160195000Y-130369819D02*
X159861667Y-131369819D01*
X159575952Y-131322200D02*
X159480714Y-131369819D01*
X159480714Y-131369819D02*
X159290238Y-131369819D01*
X159290238Y-131369819D02*
X159195000Y-131322200D01*
X159195000Y-131322200D02*
X159147381Y-131226961D01*
X159147381Y-131226961D02*
X159147381Y-131179342D01*
X159147381Y-131179342D02*
X159195000Y-131084104D01*
X159195000Y-131084104D02*
X159290238Y-131036485D01*
X159290238Y-131036485D02*
X159433095Y-131036485D01*
X159433095Y-131036485D02*
X159528333Y-130988866D01*
X159528333Y-130988866D02*
X159575952Y-130893628D01*
X159575952Y-130893628D02*
X159575952Y-130846009D01*
X159575952Y-130846009D02*
X159528333Y-130750771D01*
X159528333Y-130750771D02*
X159433095Y-130703152D01*
X159433095Y-130703152D02*
X159290238Y-130703152D01*
X159290238Y-130703152D02*
X159195000Y-130750771D01*
X158861666Y-130703152D02*
X158480714Y-130703152D01*
X158718809Y-130369819D02*
X158718809Y-131226961D01*
X158718809Y-131226961D02*
X158671190Y-131322200D01*
X158671190Y-131322200D02*
X158575952Y-131369819D01*
X158575952Y-131369819D02*
X158480714Y-131369819D01*
X158147380Y-131369819D02*
X158147380Y-130703152D01*
X158147380Y-130893628D02*
X158099761Y-130798390D01*
X158099761Y-130798390D02*
X158052142Y-130750771D01*
X158052142Y-130750771D02*
X157956904Y-130703152D01*
X157956904Y-130703152D02*
X157861666Y-130703152D01*
X157385475Y-131369819D02*
X157480713Y-131322200D01*
X157480713Y-131322200D02*
X157528332Y-131274580D01*
X157528332Y-131274580D02*
X157575951Y-131179342D01*
X157575951Y-131179342D02*
X157575951Y-130893628D01*
X157575951Y-130893628D02*
X157528332Y-130798390D01*
X157528332Y-130798390D02*
X157480713Y-130750771D01*
X157480713Y-130750771D02*
X157385475Y-130703152D01*
X157385475Y-130703152D02*
X157242618Y-130703152D01*
X157242618Y-130703152D02*
X157147380Y-130750771D01*
X157147380Y-130750771D02*
X157099761Y-130798390D01*
X157099761Y-130798390D02*
X157052142Y-130893628D01*
X157052142Y-130893628D02*
X157052142Y-131179342D01*
X157052142Y-131179342D02*
X157099761Y-131274580D01*
X157099761Y-131274580D02*
X157147380Y-131322200D01*
X157147380Y-131322200D02*
X157242618Y-131369819D01*
X157242618Y-131369819D02*
X157385475Y-131369819D01*
X156623570Y-131369819D02*
X156623570Y-130369819D01*
X156623570Y-130369819D02*
X156242618Y-130369819D01*
X156242618Y-130369819D02*
X156147380Y-130417438D01*
X156147380Y-130417438D02*
X156099761Y-130465057D01*
X156099761Y-130465057D02*
X156052142Y-130560295D01*
X156052142Y-130560295D02*
X156052142Y-130703152D01*
X156052142Y-130703152D02*
X156099761Y-130798390D01*
X156099761Y-130798390D02*
X156147380Y-130846009D01*
X156147380Y-130846009D02*
X156242618Y-130893628D01*
X156242618Y-130893628D02*
X156623570Y-130893628D01*
X155623570Y-131369819D02*
X155623570Y-130703152D01*
X155623570Y-130369819D02*
X155671189Y-130417438D01*
X155671189Y-130417438D02*
X155623570Y-130465057D01*
X155623570Y-130465057D02*
X155575951Y-130417438D01*
X155575951Y-130417438D02*
X155623570Y-130369819D01*
X155623570Y-130369819D02*
X155623570Y-130465057D01*
X155242618Y-131369819D02*
X154718809Y-130703152D01*
X155242618Y-130703152D02*
X154718809Y-131369819D01*
X154385475Y-130465057D02*
X154337856Y-130417438D01*
X154337856Y-130417438D02*
X154242618Y-130369819D01*
X154242618Y-130369819D02*
X154004523Y-130369819D01*
X154004523Y-130369819D02*
X153909285Y-130417438D01*
X153909285Y-130417438D02*
X153861666Y-130465057D01*
X153861666Y-130465057D02*
X153814047Y-130560295D01*
X153814047Y-130560295D02*
X153814047Y-130655533D01*
X153814047Y-130655533D02*
X153861666Y-130798390D01*
X153861666Y-130798390D02*
X154433094Y-131369819D01*
X154433094Y-131369819D02*
X153814047Y-131369819D01*
X153623571Y-131465057D02*
X152861666Y-131465057D01*
X152623570Y-130703152D02*
X152623570Y-131703152D01*
X152623570Y-130750771D02*
X152528332Y-130703152D01*
X152528332Y-130703152D02*
X152337856Y-130703152D01*
X152337856Y-130703152D02*
X152242618Y-130750771D01*
X152242618Y-130750771D02*
X152194999Y-130798390D01*
X152194999Y-130798390D02*
X152147380Y-130893628D01*
X152147380Y-130893628D02*
X152147380Y-131179342D01*
X152147380Y-131179342D02*
X152194999Y-131274580D01*
X152194999Y-131274580D02*
X152242618Y-131322200D01*
X152242618Y-131322200D02*
X152337856Y-131369819D01*
X152337856Y-131369819D02*
X152528332Y-131369819D01*
X152528332Y-131369819D02*
X152623570Y-131322200D01*
X151290237Y-131322200D02*
X151385475Y-131369819D01*
X151385475Y-131369819D02*
X151575951Y-131369819D01*
X151575951Y-131369819D02*
X151671189Y-131322200D01*
X151671189Y-131322200D02*
X151718808Y-131274580D01*
X151718808Y-131274580D02*
X151766427Y-131179342D01*
X151766427Y-131179342D02*
X151766427Y-130893628D01*
X151766427Y-130893628D02*
X151718808Y-130798390D01*
X151718808Y-130798390D02*
X151671189Y-130750771D01*
X151671189Y-130750771D02*
X151575951Y-130703152D01*
X151575951Y-130703152D02*
X151385475Y-130703152D01*
X151385475Y-130703152D02*
X151290237Y-130750771D01*
X150861665Y-131369819D02*
X150861665Y-130703152D01*
X150861665Y-130369819D02*
X150909284Y-130417438D01*
X150909284Y-130417438D02*
X150861665Y-130465057D01*
X150861665Y-130465057D02*
X150814046Y-130417438D01*
X150814046Y-130417438D02*
X150861665Y-130369819D01*
X150861665Y-130369819D02*
X150861665Y-130465057D01*
X150004523Y-131322200D02*
X150099761Y-131369819D01*
X150099761Y-131369819D02*
X150290237Y-131369819D01*
X150290237Y-131369819D02*
X150385475Y-131322200D01*
X150385475Y-131322200D02*
X150433094Y-131226961D01*
X150433094Y-131226961D02*
X150433094Y-130846009D01*
X150433094Y-130846009D02*
X150385475Y-130750771D01*
X150385475Y-130750771D02*
X150290237Y-130703152D01*
X150290237Y-130703152D02*
X150099761Y-130703152D01*
X150099761Y-130703152D02*
X150004523Y-130750771D01*
X150004523Y-130750771D02*
X149956904Y-130846009D01*
X149956904Y-130846009D02*
X149956904Y-130941247D01*
X149956904Y-130941247D02*
X150433094Y-131036485D01*
X160433095Y-111084104D02*
X159956905Y-111084104D01*
X160528333Y-111369819D02*
X160195000Y-110369819D01*
X160195000Y-110369819D02*
X159861667Y-111369819D01*
X159575952Y-111322200D02*
X159480714Y-111369819D01*
X159480714Y-111369819D02*
X159290238Y-111369819D01*
X159290238Y-111369819D02*
X159195000Y-111322200D01*
X159195000Y-111322200D02*
X159147381Y-111226961D01*
X159147381Y-111226961D02*
X159147381Y-111179342D01*
X159147381Y-111179342D02*
X159195000Y-111084104D01*
X159195000Y-111084104D02*
X159290238Y-111036485D01*
X159290238Y-111036485D02*
X159433095Y-111036485D01*
X159433095Y-111036485D02*
X159528333Y-110988866D01*
X159528333Y-110988866D02*
X159575952Y-110893628D01*
X159575952Y-110893628D02*
X159575952Y-110846009D01*
X159575952Y-110846009D02*
X159528333Y-110750771D01*
X159528333Y-110750771D02*
X159433095Y-110703152D01*
X159433095Y-110703152D02*
X159290238Y-110703152D01*
X159290238Y-110703152D02*
X159195000Y-110750771D01*
X158861666Y-110703152D02*
X158480714Y-110703152D01*
X158718809Y-110369819D02*
X158718809Y-111226961D01*
X158718809Y-111226961D02*
X158671190Y-111322200D01*
X158671190Y-111322200D02*
X158575952Y-111369819D01*
X158575952Y-111369819D02*
X158480714Y-111369819D01*
X158147380Y-111369819D02*
X158147380Y-110703152D01*
X158147380Y-110893628D02*
X158099761Y-110798390D01*
X158099761Y-110798390D02*
X158052142Y-110750771D01*
X158052142Y-110750771D02*
X157956904Y-110703152D01*
X157956904Y-110703152D02*
X157861666Y-110703152D01*
X157385475Y-111369819D02*
X157480713Y-111322200D01*
X157480713Y-111322200D02*
X157528332Y-111274580D01*
X157528332Y-111274580D02*
X157575951Y-111179342D01*
X157575951Y-111179342D02*
X157575951Y-110893628D01*
X157575951Y-110893628D02*
X157528332Y-110798390D01*
X157528332Y-110798390D02*
X157480713Y-110750771D01*
X157480713Y-110750771D02*
X157385475Y-110703152D01*
X157385475Y-110703152D02*
X157242618Y-110703152D01*
X157242618Y-110703152D02*
X157147380Y-110750771D01*
X157147380Y-110750771D02*
X157099761Y-110798390D01*
X157099761Y-110798390D02*
X157052142Y-110893628D01*
X157052142Y-110893628D02*
X157052142Y-111179342D01*
X157052142Y-111179342D02*
X157099761Y-111274580D01*
X157099761Y-111274580D02*
X157147380Y-111322200D01*
X157147380Y-111322200D02*
X157242618Y-111369819D01*
X157242618Y-111369819D02*
X157385475Y-111369819D01*
X156623570Y-111369819D02*
X156623570Y-110369819D01*
X156623570Y-110369819D02*
X156242618Y-110369819D01*
X156242618Y-110369819D02*
X156147380Y-110417438D01*
X156147380Y-110417438D02*
X156099761Y-110465057D01*
X156099761Y-110465057D02*
X156052142Y-110560295D01*
X156052142Y-110560295D02*
X156052142Y-110703152D01*
X156052142Y-110703152D02*
X156099761Y-110798390D01*
X156099761Y-110798390D02*
X156147380Y-110846009D01*
X156147380Y-110846009D02*
X156242618Y-110893628D01*
X156242618Y-110893628D02*
X156623570Y-110893628D01*
X155623570Y-111369819D02*
X155623570Y-110703152D01*
X155623570Y-110369819D02*
X155671189Y-110417438D01*
X155671189Y-110417438D02*
X155623570Y-110465057D01*
X155623570Y-110465057D02*
X155575951Y-110417438D01*
X155575951Y-110417438D02*
X155623570Y-110369819D01*
X155623570Y-110369819D02*
X155623570Y-110465057D01*
X155242618Y-111369819D02*
X154718809Y-110703152D01*
X155242618Y-110703152D02*
X154718809Y-111369819D01*
X154385475Y-110465057D02*
X154337856Y-110417438D01*
X154337856Y-110417438D02*
X154242618Y-110369819D01*
X154242618Y-110369819D02*
X154004523Y-110369819D01*
X154004523Y-110369819D02*
X153909285Y-110417438D01*
X153909285Y-110417438D02*
X153861666Y-110465057D01*
X153861666Y-110465057D02*
X153814047Y-110560295D01*
X153814047Y-110560295D02*
X153814047Y-110655533D01*
X153814047Y-110655533D02*
X153861666Y-110798390D01*
X153861666Y-110798390D02*
X154433094Y-111369819D01*
X154433094Y-111369819D02*
X153814047Y-111369819D01*
X153623571Y-111465057D02*
X152861666Y-111465057D01*
X152623570Y-110703152D02*
X152623570Y-111703152D01*
X152623570Y-110750771D02*
X152528332Y-110703152D01*
X152528332Y-110703152D02*
X152337856Y-110703152D01*
X152337856Y-110703152D02*
X152242618Y-110750771D01*
X152242618Y-110750771D02*
X152194999Y-110798390D01*
X152194999Y-110798390D02*
X152147380Y-110893628D01*
X152147380Y-110893628D02*
X152147380Y-111179342D01*
X152147380Y-111179342D02*
X152194999Y-111274580D01*
X152194999Y-111274580D02*
X152242618Y-111322200D01*
X152242618Y-111322200D02*
X152337856Y-111369819D01*
X152337856Y-111369819D02*
X152528332Y-111369819D01*
X152528332Y-111369819D02*
X152623570Y-111322200D01*
X151290237Y-111322200D02*
X151385475Y-111369819D01*
X151385475Y-111369819D02*
X151575951Y-111369819D01*
X151575951Y-111369819D02*
X151671189Y-111322200D01*
X151671189Y-111322200D02*
X151718808Y-111274580D01*
X151718808Y-111274580D02*
X151766427Y-111179342D01*
X151766427Y-111179342D02*
X151766427Y-110893628D01*
X151766427Y-110893628D02*
X151718808Y-110798390D01*
X151718808Y-110798390D02*
X151671189Y-110750771D01*
X151671189Y-110750771D02*
X151575951Y-110703152D01*
X151575951Y-110703152D02*
X151385475Y-110703152D01*
X151385475Y-110703152D02*
X151290237Y-110750771D01*
X150861665Y-111369819D02*
X150861665Y-110703152D01*
X150861665Y-110369819D02*
X150909284Y-110417438D01*
X150909284Y-110417438D02*
X150861665Y-110465057D01*
X150861665Y-110465057D02*
X150814046Y-110417438D01*
X150814046Y-110417438D02*
X150861665Y-110369819D01*
X150861665Y-110369819D02*
X150861665Y-110465057D01*
X150004523Y-111322200D02*
X150099761Y-111369819D01*
X150099761Y-111369819D02*
X150290237Y-111369819D01*
X150290237Y-111369819D02*
X150385475Y-111322200D01*
X150385475Y-111322200D02*
X150433094Y-111226961D01*
X150433094Y-111226961D02*
X150433094Y-110846009D01*
X150433094Y-110846009D02*
X150385475Y-110750771D01*
X150385475Y-110750771D02*
X150290237Y-110703152D01*
X150290237Y-110703152D02*
X150099761Y-110703152D01*
X150099761Y-110703152D02*
X150004523Y-110750771D01*
X150004523Y-110750771D02*
X149956904Y-110846009D01*
X149956904Y-110846009D02*
X149956904Y-110941247D01*
X149956904Y-110941247D02*
X150433094Y-111036485D01*
D11*
%TO.C,J4*%
X171260000Y-69665000D02*
X171260000Y-61065000D01*
X171260000Y-61065000D02*
X115260000Y-61065000D01*
X115260000Y-69665000D02*
X171260000Y-69665000D01*
X115260000Y-61065000D02*
X115260000Y-69665000D01*
D12*
X114610000Y-67150000D02*
G75*
G03*
X114610000Y-67150000I-100000J0D01*
G01*
D11*
%TO.C,J3*%
X171260000Y-89665000D02*
X171260000Y-81065000D01*
X171260000Y-81065000D02*
X115260000Y-81065000D01*
X115260000Y-89665000D02*
X171260000Y-89665000D01*
X115260000Y-81065000D02*
X115260000Y-89665000D01*
D12*
X114610000Y-87150000D02*
G75*
G03*
X114610000Y-87150000I-100000J0D01*
G01*
D11*
%TO.C,J1*%
X171260000Y-129665000D02*
X171260000Y-121065000D01*
X171260000Y-121065000D02*
X115260000Y-121065000D01*
X115260000Y-129665000D02*
X171260000Y-129665000D01*
X115260000Y-121065000D02*
X115260000Y-129665000D01*
D12*
X114610000Y-127150000D02*
G75*
G03*
X114610000Y-127150000I-100000J0D01*
G01*
D11*
%TO.C,J2*%
X171260000Y-109665000D02*
X171260000Y-101065000D01*
X171260000Y-101065000D02*
X115260000Y-101065000D01*
X115260000Y-109665000D02*
X171260000Y-109665000D01*
X115260000Y-101065000D02*
X115260000Y-109665000D01*
D12*
X114610000Y-107150000D02*
G75*
G03*
X114610000Y-107150000I-100000J0D01*
G01*
%TD*%
M02*
