%TF.GenerationSoftware,KiCad,Pcbnew,(6.0.10)*%
%TF.CreationDate,2023-01-27T03:25:04+09:00*%
%TF.ProjectId,AstroPix_telescope,41737472-6f50-4697-985f-74656c657363,1.1*%
%TF.SameCoordinates,Original*%
%TF.FileFunction,Copper,L4,Bot*%
%TF.FilePolarity,Positive*%
%FSLAX46Y46*%
G04 Gerber Fmt 4.6, Leading zero omitted, Abs format (unit mm)*
G04 Created by KiCad (PCBNEW (6.0.10)) date 2023-01-27 03:25:04*
%MOMM*%
%LPD*%
G01*
G04 APERTURE LIST*
G04 Aperture macros list*
%AMFreePoly0*
4,1,17,1.174443,2.785355,2.785356,1.174443,2.800000,1.139088,2.800000,-1.139088,2.785356,-1.174443,1.174443,-2.785355,1.139088,-2.800000,-1.139088,-2.800000,-1.174443,-2.785356,-2.785355,-1.174443,-2.800000,-1.139088,-2.800000,1.139088,-2.785355,1.174443,-1.174443,2.785356,-1.139088,2.800000,1.139088,2.800000,1.174443,2.785355,1.174443,2.785355,$1*%
G04 Aperture macros list end*
%TA.AperFunction,ComponentPad*%
%ADD10R,1.700000X1.700000*%
%TD*%
%TA.AperFunction,ComponentPad*%
%ADD11O,1.700000X1.700000*%
%TD*%
%TA.AperFunction,ComponentPad*%
%ADD12C,1.473200*%
%TD*%
%TA.AperFunction,ComponentPad*%
%ADD13FreePoly0,0.000000*%
%TD*%
%TA.AperFunction,ConnectorPad*%
%ADD14R,0.700000X3.200000*%
%TD*%
%TA.AperFunction,ConnectorPad*%
%ADD15R,0.700000X4.300000*%
%TD*%
%TA.AperFunction,ComponentPad*%
%ADD16R,1.208000X1.208000*%
%TD*%
%TA.AperFunction,ComponentPad*%
%ADD17C,1.208000*%
%TD*%
%TA.AperFunction,ViaPad*%
%ADD18C,0.406400*%
%TD*%
%TA.AperFunction,ViaPad*%
%ADD19C,0.600000*%
%TD*%
%TA.AperFunction,ViaPad*%
%ADD20C,0.800000*%
%TD*%
%TA.AperFunction,Conductor*%
%ADD21C,0.250000*%
%TD*%
%TA.AperFunction,Conductor*%
%ADD22C,1.000000*%
%TD*%
G04 APERTURE END LIST*
D10*
%TO.P,J1,1,Pin_1*%
%TO.N,N/C*%
X133312000Y-32223500D03*
D11*
%TO.P,J1,2,Pin_2*%
%TO.N,GND*%
X133312000Y-34763500D03*
%TO.P,J1,3,Pin_3*%
%TO.N,N/C*%
X133312000Y-37303500D03*
%TO.P,J1,4,Pin_4*%
X133312000Y-39843500D03*
%TO.P,J1,5,Pin_5*%
X133312000Y-42383500D03*
%TO.P,J1,6,Pin_6*%
X133312000Y-44923500D03*
%TD*%
D12*
%TO.P,J2,1,1*%
%TO.N,N/C*%
X107823100Y-38827500D03*
%TO.P,J2,2,2*%
%TO.N,GND*%
X105283100Y-41367500D03*
%TO.P,J2,3,3*%
X110363100Y-41367500D03*
%TO.P,J2,4,4*%
X110363100Y-36287500D03*
%TO.P,J2,5,5*%
X105283100Y-36287500D03*
%TD*%
D10*
%TO.P,J1,1,Pin_1*%
%TO.N,N/C*%
X158094000Y-44811000D03*
D11*
%TO.P,J1,2,Pin_2*%
%TO.N,GND*%
X158094000Y-42271000D03*
%TO.P,J1,3,Pin_3*%
%TO.N,N/C*%
X158094000Y-39731000D03*
%TO.P,J1,4,Pin_4*%
X158094000Y-37191000D03*
%TO.P,J1,5,Pin_5*%
X158094000Y-34651000D03*
%TO.P,J1,6,Pin_6*%
X158094000Y-32111000D03*
%TD*%
D12*
%TO.P,J2,1,1*%
%TO.N,N/C*%
X183582900Y-38207000D03*
%TO.P,J2,2,2*%
%TO.N,GND*%
X186122900Y-35667000D03*
%TO.P,J2,3,3*%
X181042900Y-35667000D03*
%TO.P,J2,4,4*%
X181042900Y-40747000D03*
%TO.P,J2,5,5*%
X186122900Y-40747000D03*
%TD*%
D13*
%TO.P,H2,1*%
%TO.N,N/C*%
X107760000Y-57365000D03*
%TD*%
%TO.P,H1,1*%
%TO.N,N/C*%
X183760000Y-57365000D03*
%TD*%
D14*
%TO.P,P1,A1,HV*%
%TO.N,-HV*%
X104260000Y-153815000D03*
D15*
%TO.P,P1,A2*%
%TO.N,N/C*%
X105260000Y-154365000D03*
%TO.P,P1,A3,VDD33*%
%TO.N,unconnected-(P1-PadA3)*%
X106260000Y-154365000D03*
%TO.P,P1,A4,VDD33*%
%TO.N,unconnected-(P1-PadA4)*%
X107260000Y-154365000D03*
%TO.P,P1,A5,VSSA*%
%TO.N,unconnected-(P1-PadA5)*%
X108260000Y-154365000D03*
%TO.P,P1,A6,VSSA*%
%TO.N,unconnected-(P1-PadA6)*%
X109260000Y-154365000D03*
%TO.P,P1,A7,POW5*%
%TO.N,unconnected-(P1-PadA7)*%
X110260000Y-154365000D03*
%TO.P,P1,A8,POW5*%
%TO.N,unconnected-(P1-PadA8)*%
X111260000Y-154365000D03*
%TO.P,P1,A9,POW7*%
%TO.N,unconnected-(P1-PadA9)*%
X112260000Y-154365000D03*
%TO.P,P1,A10,POW7*%
%TO.N,unconnected-(P1-PadA10)*%
X113260000Y-154365000D03*
%TO.P,P1,A11,GND*%
%TO.N,GND*%
X114260000Y-154365000D03*
%TO.P,P1,A12,C1_1*%
%TO.N,unconnected-(P1-PadA12)*%
X117260000Y-154365000D03*
%TO.P,P1,A13,C1_2*%
%TO.N,unconnected-(P1-PadA13)*%
X118260000Y-154365000D03*
%TO.P,P1,A14,C1_5*%
%TO.N,unconnected-(P1-PadA14)*%
X119260000Y-154365000D03*
%TO.P,P1,A15,C1_6*%
%TO.N,unconnected-(P1-PadA15)*%
X120260000Y-154365000D03*
%TO.P,P1,A16,FMC_LA23_P*%
%TO.N,/spi_left_csn*%
X121260000Y-154365000D03*
%TO.P,P1,A17,FMC_LA23_N*%
%TO.N,/spi_left_clk*%
X122260000Y-154365000D03*
%TO.P,P1,A18,FMC_LA21_P*%
%TO.N,/spi_left_miso1*%
X123260000Y-154365000D03*
%TO.P,P1,A19,FMC_LA21_N*%
%TO.N,/spi_left_miso0*%
X124260000Y-154365000D03*
%TO.P,P1,A20,FMC_LA19_P*%
%TO.N,/spi_left_mosi*%
X125260000Y-154365000D03*
%TO.P,P1,A21,FMC_LA19_N*%
%TO.N,unconnected-(P1-PadA21)*%
X126260000Y-154365000D03*
%TO.P,P1,A22,FMC_LA17_CC_P*%
%TO.N,/sr_out3*%
X127260000Y-154365000D03*
%TO.P,P1,A23,FMC_LA17_CC_N*%
%TO.N,/sr_rb*%
X128260000Y-154365000D03*
%TO.P,P1,A24,C2_1*%
%TO.N,/sr_ck1*%
X129260000Y-154365000D03*
%TO.P,P1,A25,C2_2*%
%TO.N,/sr_ck2*%
X130260000Y-154365000D03*
%TO.P,P1,A26,C2_5*%
%TO.N,unconnected-(P1-PadA26)*%
X131260000Y-154365000D03*
%TO.P,P1,A27,C2_6*%
%TO.N,unconnected-(P1-PadA27)*%
X132260000Y-154365000D03*
%TO.P,P1,A28,C3_1*%
%TO.N,/Inj*%
X133260000Y-154365000D03*
%TO.P,P1,A29,C3_2*%
%TO.N,unconnected-(P1-PadA29)*%
X134260000Y-154365000D03*
%TO.P,P1,A30,C3_5*%
%TO.N,unconnected-(P1-PadA30)*%
X135260000Y-154365000D03*
%TO.P,P1,A31,C3_6*%
%TO.N,unconnected-(P1-PadA31)*%
X136260000Y-154365000D03*
%TO.P,P1,A32,C4_1*%
%TO.N,/DAC_ThPMOS*%
X137260000Y-154365000D03*
%TO.P,P1,A33,C4_2*%
%TO.N,unconnected-(P1-PadA33)*%
X138260000Y-154365000D03*
%TO.P,P1,A34,C4_5*%
%TO.N,unconnected-(P1-PadA34)*%
X139260000Y-154365000D03*
%TO.P,P1,A35,C4_6*%
%TO.N,unconnected-(P1-PadA35)*%
X140260000Y-154365000D03*
%TO.P,P1,A36,C5_1*%
%TO.N,unconnected-(P1-PadA36)*%
X141260000Y-154365000D03*
%TO.P,P1,A37,C5_2*%
%TO.N,unconnected-(P1-PadA37)*%
X142260000Y-154365000D03*
%TO.P,P1,A38,C5_5*%
%TO.N,unconnected-(P1-PadA38)*%
X143260000Y-154365000D03*
%TO.P,P1,A39,C5_6*%
%TO.N,unconnected-(P1-PadA39)*%
X144260000Y-154365000D03*
%TO.P,P1,A40,FMC_LA15_P*%
%TO.N,/spi_right_clk*%
X145260000Y-154365000D03*
%TO.P,P1,A41,FMC_LA15_N*%
%TO.N,/spi_right_miso1*%
X146260000Y-154365000D03*
%TO.P,P1,A42,FMC_LA13_P*%
%TO.N,/spi_right_miso0*%
X147260000Y-154365000D03*
%TO.P,P1,A43,FMC_LA13_N*%
%TO.N,/spi_right_csn*%
X148260000Y-154365000D03*
%TO.P,P1,A44,FMC_LA11_P*%
%TO.N,/spi_right_mosi*%
X149260000Y-154365000D03*
%TO.P,P1,A45,FMC_LA11_N*%
%TO.N,unconnected-(P1-PadA45)*%
X150260000Y-154365000D03*
%TO.P,P1,A46,FMC_LA09_P*%
%TO.N,unconnected-(P1-PadA46)*%
X151260000Y-154365000D03*
%TO.P,P1,A47,FMC_LA09_N*%
%TO.N,unconnected-(P1-PadA47)*%
X152260000Y-154365000D03*
%TO.P,P1,A48,FMC_LA07_P*%
%TO.N,unconnected-(P1-PadA48)*%
X153260000Y-154365000D03*
%TO.P,P1,A49,FMC_LA07_N*%
%TO.N,unconnected-(P1-PadA49)*%
X154260000Y-154365000D03*
%TO.P,P1,A50*%
%TO.N,N/C*%
X155260000Y-154365000D03*
%TO.P,P1,A51*%
X156260000Y-154365000D03*
%TO.P,P1,A52*%
X157260000Y-154365000D03*
%TO.P,P1,A53*%
X158260000Y-154365000D03*
%TO.P,P1,A54*%
X159260000Y-154365000D03*
%TO.P,P1,A55*%
X160260000Y-154365000D03*
%TO.P,P1,A56*%
X161260000Y-154365000D03*
%TO.P,P1,A57*%
X162260000Y-154365000D03*
%TO.P,P1,A58*%
X163260000Y-154365000D03*
%TO.P,P1,A59*%
X164260000Y-154365000D03*
%TO.P,P1,A60*%
X165260000Y-154365000D03*
%TO.P,P1,A61*%
X166260000Y-154365000D03*
%TO.P,P1,A62*%
X167260000Y-154365000D03*
%TO.P,P1,A63*%
X168260000Y-154365000D03*
%TO.P,P1,A64*%
X169260000Y-154365000D03*
%TO.P,P1,A65*%
X170260000Y-154365000D03*
%TO.P,P1,A66*%
X171260000Y-154365000D03*
%TO.P,P1,A67*%
X172260000Y-154365000D03*
%TO.P,P1,A68*%
X173260000Y-154365000D03*
%TO.P,P1,A69*%
X174260000Y-154365000D03*
%TO.P,P1,A70*%
X175260000Y-154365000D03*
%TO.P,P1,A71*%
X176260000Y-154365000D03*
%TO.P,P1,A72*%
X177260000Y-154365000D03*
%TO.P,P1,A73*%
X178260000Y-154365000D03*
%TO.P,P1,A74*%
X179260000Y-154365000D03*
%TO.P,P1,A75*%
X180260000Y-154365000D03*
%TO.P,P1,A76*%
X181260000Y-154365000D03*
%TO.P,P1,A77*%
X182260000Y-154365000D03*
%TO.P,P1,A78*%
X183260000Y-154365000D03*
%TO.P,P1,A79*%
X184260000Y-154365000D03*
%TO.P,P1,A80*%
X185260000Y-154365000D03*
%TO.P,P1,A81*%
X186260000Y-154365000D03*
%TO.P,P1,A82*%
X187260000Y-154365000D03*
%TD*%
D16*
%TO.P,J4,A1,HV*%
%TO.N,-HV*%
X118260000Y-67200000D03*
D17*
%TO.P,J4,A2*%
%TO.N,N/C*%
X119260000Y-69200000D03*
%TO.P,J4,A3,VDD18*%
%TO.N,/VDD18_in*%
X120260000Y-67200000D03*
%TO.P,J4,A4,VDD18*%
X121260000Y-69200000D03*
%TO.P,J4,A5,POW4*%
%TO.N,/POW4_in*%
X122260000Y-67200000D03*
%TO.P,J4,A6,POW4*%
X123260000Y-69200000D03*
%TO.P,J4,A7,POW6*%
%TO.N,VDDA*%
X124260000Y-67200000D03*
%TO.P,J4,A8,POW6*%
X125260000Y-69200000D03*
%TO.P,J4,A9,POW8*%
%TO.N,VSSA*%
X126260000Y-67200000D03*
%TO.P,J4,A10,POW8*%
X127260000Y-69200000D03*
%TO.P,J4,A11,GND*%
%TO.N,GND*%
X128260000Y-67200000D03*
%TO.P,J4,A12*%
%TO.N,N/C*%
X131260000Y-69200000D03*
%TO.P,J4,A13*%
X132260000Y-67200000D03*
%TO.P,J4,A14*%
X133260000Y-69200000D03*
%TO.P,J4,A15*%
X134260000Y-67200000D03*
%TO.P,J4,A16,spi_left_csn*%
%TO.N,/spi3_csn*%
X135260000Y-69200000D03*
%TO.P,J4,A17,spi_left_clk*%
%TO.N,/spi3_clk*%
X136260000Y-67200000D03*
%TO.P,J4,A18,spi_left_miso1*%
%TO.N,/spi3_miso1*%
X137260000Y-69200000D03*
%TO.P,J4,A19,spi_left_miso0*%
%TO.N,/spi3_miso0*%
X138260000Y-67200000D03*
%TO.P,J4,A20,spi_left_mosi*%
%TO.N,/spi3_mosi*%
X139260000Y-69200000D03*
%TO.P,J4,A21*%
%TO.N,N/C*%
X140260000Y-67200000D03*
%TO.P,J4,A22,sr_out*%
%TO.N,/sr_out3*%
X141260000Y-69200000D03*
%TO.P,J4,A23,sr_rb*%
%TO.N,/sr_rb*%
X142260000Y-67200000D03*
%TO.P,J4,A24,sr_ck1*%
%TO.N,/sr_ck1*%
X143260000Y-69200000D03*
%TO.P,J4,A25,sr_ck2*%
%TO.N,/sr_ck2*%
X144260000Y-67200000D03*
%TO.P,J4,A26*%
%TO.N,N/C*%
X145260000Y-69200000D03*
%TO.P,J4,A27*%
X146260000Y-67200000D03*
%TO.P,J4,A28,Inj*%
%TO.N,/Inj*%
X147260000Y-69200000D03*
%TO.P,J4,A29*%
%TO.N,N/C*%
X148260000Y-67200000D03*
%TO.P,J4,A30*%
X149260000Y-69200000D03*
%TO.P,J4,A31*%
X150260000Y-67200000D03*
%TO.P,J4,A32,DAC_blpix*%
%TO.N,/DAC_blpix*%
X151260000Y-69200000D03*
%TO.P,J4,A33,DAC_Vcasc2*%
%TO.N,/DAC_VCasc2!*%
X152260000Y-67200000D03*
%TO.P,J4,A34,DAC_ThPix*%
%TO.N,/DAC_ThPix*%
X153260000Y-69200000D03*
%TO.P,J4,A35,DAC_vminuspix*%
%TO.N,/DAC_vminuspix*%
X154260000Y-67200000D03*
%TO.P,J4,A36*%
%TO.N,N/C*%
X155260000Y-69200000D03*
%TO.P,J4,A37*%
X156260000Y-67200000D03*
%TO.P,J4,A38*%
X157260000Y-69200000D03*
%TO.P,J4,A39*%
X158260000Y-67200000D03*
%TO.P,J4,A40,spi_right_clk*%
%TO.N,/spi_right_clk*%
X159260000Y-69200000D03*
%TO.P,J4,A41,spi_right_miso1*%
%TO.N,/spi_right_miso1*%
X160260000Y-67200000D03*
%TO.P,J4,A42,spi_right_miso0*%
%TO.N,/spi_right_miso0*%
X161260000Y-69200000D03*
%TO.P,J4,A43,spi_right_csn*%
%TO.N,/spi_right_csn*%
X162260000Y-67200000D03*
%TO.P,J4,A44,spi_right_mosi*%
%TO.N,/spi_right_mosi*%
X163260000Y-69200000D03*
%TO.P,J4,A45*%
%TO.N,N/C*%
X164260000Y-67200000D03*
%TO.P,J4,A46*%
X165260000Y-69200000D03*
%TO.P,J4,A47*%
X166260000Y-67200000D03*
%TO.P,J4,A48*%
X167260000Y-69200000D03*
%TO.P,J4,A49*%
X168260000Y-67200000D03*
%TO.P,J4,B1,HV*%
%TO.N,-HV*%
X118260000Y-64700000D03*
%TO.P,J4,B2*%
%TO.N,N/C*%
X119260000Y-62700000D03*
%TO.P,J4,B3,VDD18*%
%TO.N,/VDD18_in*%
X120260000Y-64700000D03*
%TO.P,J4,B4,VDD18*%
X121260000Y-62700000D03*
%TO.P,J4,B5,POW4*%
%TO.N,/POW4_in*%
X122260000Y-64700000D03*
%TO.P,J4,B6,POW4*%
X123260000Y-62700000D03*
%TO.P,J4,B7,POW6*%
%TO.N,VDDA*%
X124260000Y-64700000D03*
%TO.P,J4,B8,POW6*%
X125260000Y-62700000D03*
%TO.P,J4,B9,POW8*%
%TO.N,VSSA*%
X126260000Y-64700000D03*
%TO.P,J4,B10,POW8*%
X127260000Y-62700000D03*
%TO.P,J4,B11,GND*%
%TO.N,GND*%
X128260000Y-64700000D03*
%TO.P,J4,B12*%
%TO.N,N/C*%
X131260000Y-62700000D03*
%TO.P,J4,B13*%
X132260000Y-64700000D03*
%TO.P,J4,B14*%
X133260000Y-62700000D03*
%TO.P,J4,B15*%
X134260000Y-64700000D03*
%TO.P,J4,B16,sample_clk_se_P*%
%TO.N,unconnected-(J4-PadB16)*%
X135260000Y-62700000D03*
%TO.P,J4,B17,sample_clk_se_N*%
%TO.N,unconnected-(J4-PadB17)*%
X136260000Y-64700000D03*
%TO.P,J4,B18,sample_clk_P*%
%TO.N,/sample_clk4_P*%
X137260000Y-62700000D03*
%TO.P,J4,B19,sample_clk_N*%
%TO.N,/sample_clk4_N*%
X138260000Y-64700000D03*
%TO.P,J4,B20,interrupt*%
%TO.N,/hold*%
X139260000Y-62700000D03*
%TO.P,J4,B21,ts_clk*%
%TO.N,/timestamp_clk*%
X140260000Y-64700000D03*
%TO.P,J4,B22,hold*%
%TO.N,/interrupt*%
X141260000Y-62700000D03*
%TO.P,J4,B23,res_n*%
%TO.N,/res_n*%
X142260000Y-64700000D03*
%TO.P,J4,B24,sr_ld*%
%TO.N,/sr_ld*%
X143260000Y-62700000D03*
%TO.P,J4,B25,sr_sin*%
%TO.N,/sr_out2*%
X144260000Y-64700000D03*
%TO.P,J4,B26*%
%TO.N,N/C*%
X145260000Y-62700000D03*
%TO.P,J4,B27*%
X146260000Y-64700000D03*
%TO.P,J4,B28*%
X147260000Y-62700000D03*
%TO.P,J4,B29*%
X148260000Y-64700000D03*
%TO.P,J4,B30*%
X149260000Y-62700000D03*
%TO.P,J4,B31*%
X150260000Y-64700000D03*
%TO.P,J4,B32,DAC_blpix*%
%TO.N,/DAC_ThPMOS*%
X151260000Y-62700000D03*
%TO.P,J4,B33,DAC_Vcasc2*%
%TO.N,/DAC_VCasc2!*%
X152260000Y-64700000D03*
%TO.P,J4,B34,DAC_ThPix*%
%TO.N,/DAC_ThPix*%
X153260000Y-62700000D03*
%TO.P,J4,B35,DAC_vminuspix*%
%TO.N,/DAC_vminuspix*%
X154260000Y-64700000D03*
%TO.P,J4,B36*%
%TO.N,N/C*%
X155260000Y-62700000D03*
%TO.P,J4,B37*%
X156260000Y-64700000D03*
%TO.P,J4,B38*%
X157260000Y-62700000D03*
%TO.P,J4,B39*%
X158260000Y-64700000D03*
%TO.P,J4,B40,spi_right_clk*%
%TO.N,/spi_right_clk*%
X159260000Y-62700000D03*
%TO.P,J4,B41,spi_right_miso1*%
%TO.N,/spi_right_miso1*%
X160260000Y-64700000D03*
%TO.P,J4,B42,spi_right_miso0*%
%TO.N,/spi_right_miso0*%
X161260000Y-62700000D03*
%TO.P,J4,B43,spi_right_csn*%
%TO.N,/spi_right_csn*%
X162260000Y-64700000D03*
%TO.P,J4,B44,spi_right_mosi*%
%TO.N,/spi_right_mosi*%
X163260000Y-62700000D03*
%TO.P,J4,B45*%
%TO.N,N/C*%
X164260000Y-64700000D03*
%TO.P,J4,B46*%
X165260000Y-62700000D03*
%TO.P,J4,B47*%
X166260000Y-64700000D03*
%TO.P,J4,B48*%
X167260000Y-62700000D03*
%TO.P,J4,B49*%
X168260000Y-64700000D03*
%TD*%
D16*
%TO.P,J3,A1,HV*%
%TO.N,-HV*%
X118260000Y-87200000D03*
D17*
%TO.P,J3,A2*%
%TO.N,N/C*%
X119260000Y-89200000D03*
%TO.P,J3,A3,VDD18*%
%TO.N,/VDD18_in*%
X120260000Y-87200000D03*
%TO.P,J3,A4,VDD18*%
X121260000Y-89200000D03*
%TO.P,J3,A5,POW4*%
%TO.N,/POW4_in*%
X122260000Y-87200000D03*
%TO.P,J3,A6,POW4*%
X123260000Y-89200000D03*
%TO.P,J3,A7,POW6*%
%TO.N,VDDA*%
X124260000Y-87200000D03*
%TO.P,J3,A8,POW6*%
X125260000Y-89200000D03*
%TO.P,J3,A9,POW8*%
%TO.N,VSSA*%
X126260000Y-87200000D03*
%TO.P,J3,A10,POW8*%
X127260000Y-89200000D03*
%TO.P,J3,A11,GND*%
%TO.N,GND*%
X128260000Y-87200000D03*
%TO.P,J3,A12*%
%TO.N,N/C*%
X131260000Y-89200000D03*
%TO.P,J3,A13*%
X132260000Y-87200000D03*
%TO.P,J3,A14*%
X133260000Y-89200000D03*
%TO.P,J3,A15*%
X134260000Y-87200000D03*
%TO.P,J3,A16,spi_left_csn*%
%TO.N,/spi2_csn*%
X135260000Y-89200000D03*
%TO.P,J3,A17,spi_left_clk*%
%TO.N,/spi2_clk*%
X136260000Y-87200000D03*
%TO.P,J3,A18,spi_left_miso1*%
%TO.N,/spi2_miso1*%
X137260000Y-89200000D03*
%TO.P,J3,A19,spi_left_miso0*%
%TO.N,/spi2_miso0*%
X138260000Y-87200000D03*
%TO.P,J3,A20,spi_left_mosi*%
%TO.N,/spi2_mosi*%
X139260000Y-89200000D03*
%TO.P,J3,A21*%
%TO.N,N/C*%
X140260000Y-87200000D03*
%TO.P,J3,A22,sr_out*%
%TO.N,/sr_out2*%
X141260000Y-89200000D03*
%TO.P,J3,A23,sr_rb*%
%TO.N,/sr_rb*%
X142260000Y-87200000D03*
%TO.P,J3,A24,sr_ck1*%
%TO.N,/sr_ck1*%
X143260000Y-89200000D03*
%TO.P,J3,A25,sr_ck2*%
%TO.N,/sr_ck2*%
X144260000Y-87200000D03*
%TO.P,J3,A26*%
%TO.N,N/C*%
X145260000Y-89200000D03*
%TO.P,J3,A27*%
X146260000Y-87200000D03*
%TO.P,J3,A28,Inj*%
%TO.N,/Inj*%
X147260000Y-89200000D03*
%TO.P,J3,A29*%
%TO.N,N/C*%
X148260000Y-87200000D03*
%TO.P,J3,A30*%
X149260000Y-89200000D03*
%TO.P,J3,A31*%
X150260000Y-87200000D03*
%TO.P,J3,A32,DAC_blpix*%
%TO.N,/DAC_blpix*%
X151260000Y-89200000D03*
%TO.P,J3,A33,DAC_Vcasc2*%
%TO.N,/DAC_VCasc2!*%
X152260000Y-87200000D03*
%TO.P,J3,A34,DAC_ThPix*%
%TO.N,/DAC_ThPix*%
X153260000Y-89200000D03*
%TO.P,J3,A35,DAC_vminuspix*%
%TO.N,/DAC_vminuspix*%
X154260000Y-87200000D03*
%TO.P,J3,A36*%
%TO.N,N/C*%
X155260000Y-89200000D03*
%TO.P,J3,A37*%
X156260000Y-87200000D03*
%TO.P,J3,A38*%
X157260000Y-89200000D03*
%TO.P,J3,A39*%
X158260000Y-87200000D03*
%TO.P,J3,A40,spi_right_clk*%
%TO.N,/spi3_clk*%
X159260000Y-89200000D03*
%TO.P,J3,A41,spi_right_miso1*%
%TO.N,/spi3_miso1*%
X160260000Y-87200000D03*
%TO.P,J3,A42,spi_right_miso0*%
%TO.N,/spi3_miso0*%
X161260000Y-89200000D03*
%TO.P,J3,A43,spi_right_csn*%
%TO.N,/spi3_csn*%
X162260000Y-87200000D03*
%TO.P,J3,A44,spi_right_mosi*%
%TO.N,/spi3_mosi*%
X163260000Y-89200000D03*
%TO.P,J3,A45*%
%TO.N,N/C*%
X164260000Y-87200000D03*
%TO.P,J3,A46*%
X165260000Y-89200000D03*
%TO.P,J3,A47*%
X166260000Y-87200000D03*
%TO.P,J3,A48*%
X167260000Y-89200000D03*
%TO.P,J3,A49*%
X168260000Y-87200000D03*
%TO.P,J3,B1,HV*%
%TO.N,-HV*%
X118260000Y-84700000D03*
%TO.P,J3,B2*%
%TO.N,N/C*%
X119260000Y-82700000D03*
%TO.P,J3,B3,VDD18*%
%TO.N,/VDD18_in*%
X120260000Y-84700000D03*
%TO.P,J3,B4,VDD18*%
X121260000Y-82700000D03*
%TO.P,J3,B5,POW4*%
%TO.N,/POW4_in*%
X122260000Y-84700000D03*
%TO.P,J3,B6,POW4*%
X123260000Y-82700000D03*
%TO.P,J3,B7,POW6*%
%TO.N,VDDA*%
X124260000Y-84700000D03*
%TO.P,J3,B8,POW6*%
X125260000Y-82700000D03*
%TO.P,J3,B9,POW8*%
%TO.N,VSSA*%
X126260000Y-84700000D03*
%TO.P,J3,B10,POW8*%
X127260000Y-82700000D03*
%TO.P,J3,B11,GND*%
%TO.N,GND*%
X128260000Y-84700000D03*
%TO.P,J3,B12*%
%TO.N,N/C*%
X131260000Y-82700000D03*
%TO.P,J3,B13*%
X132260000Y-84700000D03*
%TO.P,J3,B14*%
X133260000Y-82700000D03*
%TO.P,J3,B15*%
X134260000Y-84700000D03*
%TO.P,J3,B16,sample_clk_se_P*%
%TO.N,unconnected-(J3-PadB16)*%
X135260000Y-82700000D03*
%TO.P,J3,B17,sample_clk_se_N*%
%TO.N,unconnected-(J3-PadB17)*%
X136260000Y-84700000D03*
%TO.P,J3,B18,sample_clk_P*%
%TO.N,/sample_clk3_P*%
X137260000Y-82700000D03*
%TO.P,J3,B19,sample_clk_N*%
%TO.N,/sample_clk3_N*%
X138260000Y-84700000D03*
%TO.P,J3,B20,interrupt*%
%TO.N,/hold*%
X139260000Y-82700000D03*
%TO.P,J3,B21,ts_clk*%
%TO.N,/timestamp_clk*%
X140260000Y-84700000D03*
%TO.P,J3,B22,hold*%
%TO.N,/interrupt*%
X141260000Y-82700000D03*
%TO.P,J3,B23,res_n*%
%TO.N,/res_n*%
X142260000Y-84700000D03*
%TO.P,J3,B24,sr_ld*%
%TO.N,/sr_ld*%
X143260000Y-82700000D03*
%TO.P,J3,B25,sr_sin*%
%TO.N,/sr_out1*%
X144260000Y-84700000D03*
%TO.P,J3,B26*%
%TO.N,N/C*%
X145260000Y-82700000D03*
%TO.P,J3,B27*%
X146260000Y-84700000D03*
%TO.P,J3,B28*%
X147260000Y-82700000D03*
%TO.P,J3,B29*%
X148260000Y-84700000D03*
%TO.P,J3,B30*%
X149260000Y-82700000D03*
%TO.P,J3,B31*%
X150260000Y-84700000D03*
%TO.P,J3,B32,DAC_blpix*%
%TO.N,/DAC_ThPMOS*%
X151260000Y-82700000D03*
%TO.P,J3,B33,DAC_Vcasc2*%
%TO.N,/DAC_VCasc2!*%
X152260000Y-84700000D03*
%TO.P,J3,B34,DAC_ThPix*%
%TO.N,/DAC_ThPix*%
X153260000Y-82700000D03*
%TO.P,J3,B35,DAC_vminuspix*%
%TO.N,/DAC_vminuspix*%
X154260000Y-84700000D03*
%TO.P,J3,B36*%
%TO.N,N/C*%
X155260000Y-82700000D03*
%TO.P,J3,B37*%
X156260000Y-84700000D03*
%TO.P,J3,B38*%
X157260000Y-82700000D03*
%TO.P,J3,B39*%
X158260000Y-84700000D03*
%TO.P,J3,B40,spi_right_clk*%
%TO.N,/spi3_clk*%
X159260000Y-82700000D03*
%TO.P,J3,B41,spi_right_miso1*%
%TO.N,/spi3_miso1*%
X160260000Y-84700000D03*
%TO.P,J3,B42,spi_right_miso0*%
%TO.N,/spi3_miso0*%
X161260000Y-82700000D03*
%TO.P,J3,B43,spi_right_csn*%
%TO.N,/spi3_csn*%
X162260000Y-84700000D03*
%TO.P,J3,B44,spi_right_mosi*%
%TO.N,/spi3_mosi*%
X163260000Y-82700000D03*
%TO.P,J3,B45*%
%TO.N,N/C*%
X164260000Y-84700000D03*
%TO.P,J3,B46*%
X165260000Y-82700000D03*
%TO.P,J3,B47*%
X166260000Y-84700000D03*
%TO.P,J3,B48*%
X167260000Y-82700000D03*
%TO.P,J3,B49*%
X168260000Y-84700000D03*
%TD*%
D16*
%TO.P,J1,A1,HV*%
%TO.N,-HV*%
X118260000Y-127200000D03*
D17*
%TO.P,J1,A2*%
%TO.N,N/C*%
X119260000Y-129200000D03*
%TO.P,J1,A3,VDD18*%
%TO.N,/VDD18_in*%
X120260000Y-127200000D03*
%TO.P,J1,A4,VDD18*%
X121260000Y-129200000D03*
%TO.P,J1,A5,POW4*%
%TO.N,/POW4_in*%
X122260000Y-127200000D03*
%TO.P,J1,A6,POW4*%
X123260000Y-129200000D03*
%TO.P,J1,A7,POW6*%
%TO.N,VDDA*%
X124260000Y-127200000D03*
%TO.P,J1,A8,POW6*%
X125260000Y-129200000D03*
%TO.P,J1,A9,POW8*%
%TO.N,VSSA*%
X126260000Y-127200000D03*
%TO.P,J1,A10,POW8*%
X127260000Y-129200000D03*
%TO.P,J1,A11,GND*%
%TO.N,GND*%
X128260000Y-127200000D03*
%TO.P,J1,A12*%
%TO.N,N/C*%
X131260000Y-129200000D03*
%TO.P,J1,A13*%
X132260000Y-127200000D03*
%TO.P,J1,A14*%
X133260000Y-129200000D03*
%TO.P,J1,A15*%
X134260000Y-127200000D03*
%TO.P,J1,A16,spi_left_csn*%
%TO.N,/spi_left_csn*%
X135260000Y-129200000D03*
%TO.P,J1,A17,spi_left_clk*%
%TO.N,/spi_left_clk*%
X136260000Y-127200000D03*
%TO.P,J1,A18,spi_left_miso1*%
%TO.N,/spi_left_miso1*%
X137260000Y-129200000D03*
%TO.P,J1,A19,spi_left_miso0*%
%TO.N,/spi_left_miso0*%
X138260000Y-127200000D03*
%TO.P,J1,A20,spi_left_mosi*%
%TO.N,/spi_left_mosi*%
X139260000Y-129200000D03*
%TO.P,J1,A21*%
%TO.N,N/C*%
X140260000Y-127200000D03*
%TO.P,J1,A22,sr_out*%
%TO.N,/sr_out*%
X141260000Y-129200000D03*
%TO.P,J1,A23,sr_rb*%
%TO.N,/sr_rb*%
X142260000Y-127200000D03*
%TO.P,J1,A24,sr_ck1*%
%TO.N,/sr_ck1*%
X143260000Y-129200000D03*
%TO.P,J1,A25,sr_ck2*%
%TO.N,/sr_ck2*%
X144260000Y-127200000D03*
%TO.P,J1,A26*%
%TO.N,N/C*%
X145260000Y-129200000D03*
%TO.P,J1,A27*%
X146260000Y-127200000D03*
%TO.P,J1,A28,Inj*%
%TO.N,/Inj*%
X147260000Y-129200000D03*
%TO.P,J1,A29*%
%TO.N,N/C*%
X148260000Y-127200000D03*
%TO.P,J1,A30*%
X149260000Y-129200000D03*
%TO.P,J1,A31*%
X150260000Y-127200000D03*
%TO.P,J1,A32,DAC_blpix*%
%TO.N,/DAC_blpix*%
X151260000Y-129200000D03*
%TO.P,J1,A33,DAC_Vcasc2*%
%TO.N,/DAC_VCasc2!*%
X152260000Y-127200000D03*
%TO.P,J1,A34,DAC_ThPix*%
%TO.N,/DAC_ThPix*%
X153260000Y-129200000D03*
%TO.P,J1,A35,DAC_vminuspix*%
%TO.N,/DAC_vminuspix*%
X154260000Y-127200000D03*
%TO.P,J1,A36*%
%TO.N,N/C*%
X155260000Y-129200000D03*
%TO.P,J1,A37*%
X156260000Y-127200000D03*
%TO.P,J1,A38*%
X157260000Y-129200000D03*
%TO.P,J1,A39*%
X158260000Y-127200000D03*
%TO.P,J1,A40,spi_right_clk*%
%TO.N,/spi1_clk*%
X159260000Y-129200000D03*
%TO.P,J1,A41,spi_right_miso1*%
%TO.N,/spi1_miso1*%
X160260000Y-127200000D03*
%TO.P,J1,A42,spi_right_miso0*%
%TO.N,/spi1_miso0*%
X161260000Y-129200000D03*
%TO.P,J1,A43,spi_right_csn*%
%TO.N,/spi1_csn*%
X162260000Y-127200000D03*
%TO.P,J1,A44,spi_right_mosi*%
%TO.N,/spi1_mosi*%
X163260000Y-129200000D03*
%TO.P,J1,A45*%
%TO.N,N/C*%
X164260000Y-127200000D03*
%TO.P,J1,A46*%
X165260000Y-129200000D03*
%TO.P,J1,A47*%
X166260000Y-127200000D03*
%TO.P,J1,A48*%
X167260000Y-129200000D03*
%TO.P,J1,A49*%
X168260000Y-127200000D03*
%TO.P,J1,B1,HV*%
%TO.N,-HV*%
X118260000Y-124700000D03*
%TO.P,J1,B2*%
%TO.N,N/C*%
X119260000Y-122700000D03*
%TO.P,J1,B3,VDD18*%
%TO.N,/VDD18_in*%
X120260000Y-124700000D03*
%TO.P,J1,B4,VDD18*%
X121260000Y-122700000D03*
%TO.P,J1,B5,POW4*%
%TO.N,/POW4_in*%
X122260000Y-124700000D03*
%TO.P,J1,B6,POW4*%
X123260000Y-122700000D03*
%TO.P,J1,B7,POW6*%
%TO.N,VDDA*%
X124260000Y-124700000D03*
%TO.P,J1,B8,POW6*%
X125260000Y-122700000D03*
%TO.P,J1,B9,POW8*%
%TO.N,VSSA*%
X126260000Y-124700000D03*
%TO.P,J1,B10,POW8*%
X127260000Y-122700000D03*
%TO.P,J1,B11,GND*%
%TO.N,GND*%
X128260000Y-124700000D03*
%TO.P,J1,B12*%
%TO.N,N/C*%
X131260000Y-122700000D03*
%TO.P,J1,B13*%
X132260000Y-124700000D03*
%TO.P,J1,B14*%
X133260000Y-122700000D03*
%TO.P,J1,B15*%
X134260000Y-124700000D03*
%TO.P,J1,B16,sample_clk_se_P*%
%TO.N,unconnected-(J1-PadB16)*%
X135260000Y-122700000D03*
%TO.P,J1,B17,sample_clk_se_N*%
%TO.N,unconnected-(J1-PadB17)*%
X136260000Y-124700000D03*
%TO.P,J1,B18,sample_clk_P*%
%TO.N,/sample_clk0_P*%
X137260000Y-122700000D03*
%TO.P,J1,B19,sample_clk_N*%
%TO.N,/sample_clk0_N*%
X138260000Y-124700000D03*
%TO.P,J1,B20,interrupt*%
%TO.N,/hold*%
X139260000Y-122700000D03*
%TO.P,J1,B21,ts_clk*%
%TO.N,/timestamp_clk*%
X140260000Y-124700000D03*
%TO.P,J1,B22,hold*%
%TO.N,/interrupt*%
X141260000Y-122700000D03*
%TO.P,J1,B23,res_n*%
%TO.N,/res_n*%
X142260000Y-124700000D03*
%TO.P,J1,B24,sr_ld*%
%TO.N,/sr_ld*%
X143260000Y-122700000D03*
%TO.P,J1,B25,sr_sin*%
%TO.N,/sr_sin*%
X144260000Y-124700000D03*
%TO.P,J1,B26*%
%TO.N,N/C*%
X145260000Y-122700000D03*
%TO.P,J1,B27*%
X146260000Y-124700000D03*
%TO.P,J1,B28*%
X147260000Y-122700000D03*
%TO.P,J1,B29*%
X148260000Y-124700000D03*
%TO.P,J1,B30*%
X149260000Y-122700000D03*
%TO.P,J1,B31*%
X150260000Y-124700000D03*
%TO.P,J1,B32,DAC_blpix*%
%TO.N,/DAC_ThPMOS*%
X151260000Y-122700000D03*
%TO.P,J1,B33,DAC_Vcasc2*%
%TO.N,/DAC_VCasc2!*%
X152260000Y-124700000D03*
%TO.P,J1,B34,DAC_ThPix*%
%TO.N,/DAC_ThPix*%
X153260000Y-122700000D03*
%TO.P,J1,B35,DAC_vminuspix*%
%TO.N,/DAC_vminuspix*%
X154260000Y-124700000D03*
%TO.P,J1,B36*%
%TO.N,N/C*%
X155260000Y-122700000D03*
%TO.P,J1,B37*%
X156260000Y-124700000D03*
%TO.P,J1,B38*%
X157260000Y-122700000D03*
%TO.P,J1,B39*%
X158260000Y-124700000D03*
%TO.P,J1,B40,spi_right_clk*%
%TO.N,/spi1_clk*%
X159260000Y-122700000D03*
%TO.P,J1,B41,spi_right_miso1*%
%TO.N,/spi1_miso1*%
X160260000Y-124700000D03*
%TO.P,J1,B42,spi_right_miso0*%
%TO.N,/spi1_miso0*%
X161260000Y-122700000D03*
%TO.P,J1,B43,spi_right_csn*%
%TO.N,/spi1_csn*%
X162260000Y-124700000D03*
%TO.P,J1,B44,spi_right_mosi*%
%TO.N,/spi1_mosi*%
X163260000Y-122700000D03*
%TO.P,J1,B45*%
%TO.N,N/C*%
X164260000Y-124700000D03*
%TO.P,J1,B46*%
X165260000Y-122700000D03*
%TO.P,J1,B47*%
X166260000Y-124700000D03*
%TO.P,J1,B48*%
X167260000Y-122700000D03*
%TO.P,J1,B49*%
X168260000Y-124700000D03*
%TD*%
D16*
%TO.P,J2,A1,HV*%
%TO.N,-HV*%
X118260000Y-107200000D03*
D17*
%TO.P,J2,A2*%
%TO.N,N/C*%
X119260000Y-109200000D03*
%TO.P,J2,A3,VDD18*%
%TO.N,/VDD18_in*%
X120260000Y-107200000D03*
%TO.P,J2,A4,VDD18*%
X121260000Y-109200000D03*
%TO.P,J2,A5,POW4*%
%TO.N,/POW4_in*%
X122260000Y-107200000D03*
%TO.P,J2,A6,POW4*%
X123260000Y-109200000D03*
%TO.P,J2,A7,POW6*%
%TO.N,VDDA*%
X124260000Y-107200000D03*
%TO.P,J2,A8,POW6*%
X125260000Y-109200000D03*
%TO.P,J2,A9,POW8*%
%TO.N,VSSA*%
X126260000Y-107200000D03*
%TO.P,J2,A10,POW8*%
X127260000Y-109200000D03*
%TO.P,J2,A11,GND*%
%TO.N,GND*%
X128260000Y-107200000D03*
%TO.P,J2,A12*%
%TO.N,N/C*%
X131260000Y-109200000D03*
%TO.P,J2,A13*%
X132260000Y-107200000D03*
%TO.P,J2,A14*%
X133260000Y-109200000D03*
%TO.P,J2,A15*%
X134260000Y-107200000D03*
%TO.P,J2,A16,spi_left_csn*%
%TO.N,/spi1_csn*%
X135260000Y-109200000D03*
%TO.P,J2,A17,spi_left_clk*%
%TO.N,/spi1_clk*%
X136260000Y-107200000D03*
%TO.P,J2,A18,spi_left_miso1*%
%TO.N,/spi1_miso1*%
X137260000Y-109200000D03*
%TO.P,J2,A19,spi_left_miso0*%
%TO.N,/spi1_miso0*%
X138260000Y-107200000D03*
%TO.P,J2,A20,spi_left_mosi*%
%TO.N,/spi1_mosi*%
X139260000Y-109200000D03*
%TO.P,J2,A21*%
%TO.N,N/C*%
X140260000Y-107200000D03*
%TO.P,J2,A22,sr_out*%
%TO.N,/sr_out1*%
X141260000Y-109200000D03*
%TO.P,J2,A23,sr_rb*%
%TO.N,/sr_rb*%
X142260000Y-107200000D03*
%TO.P,J2,A24,sr_ck1*%
%TO.N,/sr_ck1*%
X143260000Y-109200000D03*
%TO.P,J2,A25,sr_ck2*%
%TO.N,/sr_ck2*%
X144260000Y-107200000D03*
%TO.P,J2,A26*%
%TO.N,N/C*%
X145260000Y-109200000D03*
%TO.P,J2,A27*%
X146260000Y-107200000D03*
%TO.P,J2,A28,Inj*%
%TO.N,/Inj*%
X147260000Y-109200000D03*
%TO.P,J2,A29*%
%TO.N,N/C*%
X148260000Y-107200000D03*
%TO.P,J2,A30*%
X149260000Y-109200000D03*
%TO.P,J2,A31*%
X150260000Y-107200000D03*
%TO.P,J2,A32,DAC_blpix*%
%TO.N,/DAC_blpix*%
X151260000Y-109200000D03*
%TO.P,J2,A33,DAC_Vcasc2*%
%TO.N,/DAC_VCasc2!*%
X152260000Y-107200000D03*
%TO.P,J2,A34,DAC_ThPix*%
%TO.N,/DAC_ThPix*%
X153260000Y-109200000D03*
%TO.P,J2,A35,DAC_vminuspix*%
%TO.N,/DAC_vminuspix*%
X154260000Y-107200000D03*
%TO.P,J2,A36*%
%TO.N,N/C*%
X155260000Y-109200000D03*
%TO.P,J2,A37*%
X156260000Y-107200000D03*
%TO.P,J2,A38*%
X157260000Y-109200000D03*
%TO.P,J2,A39*%
X158260000Y-107200000D03*
%TO.P,J2,A40,spi_right_clk*%
%TO.N,/spi2_clk*%
X159260000Y-109200000D03*
%TO.P,J2,A41,spi_right_miso1*%
%TO.N,/spi2_miso1*%
X160260000Y-107200000D03*
%TO.P,J2,A42,spi_right_miso0*%
%TO.N,/spi2_miso0*%
X161260000Y-109200000D03*
%TO.P,J2,A43,spi_right_csn*%
%TO.N,/spi2_csn*%
X162260000Y-107200000D03*
%TO.P,J2,A44,spi_right_mosi*%
%TO.N,/spi2_mosi*%
X163260000Y-109200000D03*
%TO.P,J2,A45*%
%TO.N,N/C*%
X164260000Y-107200000D03*
%TO.P,J2,A46*%
X165260000Y-109200000D03*
%TO.P,J2,A47*%
X166260000Y-107200000D03*
%TO.P,J2,A48*%
X167260000Y-109200000D03*
%TO.P,J2,A49*%
X168260000Y-107200000D03*
%TO.P,J2,B1,HV*%
%TO.N,-HV*%
X118260000Y-104700000D03*
%TO.P,J2,B2*%
%TO.N,N/C*%
X119260000Y-102700000D03*
%TO.P,J2,B3,VDD18*%
%TO.N,/VDD18_in*%
X120260000Y-104700000D03*
%TO.P,J2,B4,VDD18*%
X121260000Y-102700000D03*
%TO.P,J2,B5,POW4*%
%TO.N,/POW4_in*%
X122260000Y-104700000D03*
%TO.P,J2,B6,POW4*%
X123260000Y-102700000D03*
%TO.P,J2,B7,POW6*%
%TO.N,VDDA*%
X124260000Y-104700000D03*
%TO.P,J2,B8,POW6*%
X125260000Y-102700000D03*
%TO.P,J2,B9,POW8*%
%TO.N,VSSA*%
X126260000Y-104700000D03*
%TO.P,J2,B10,POW8*%
X127260000Y-102700000D03*
%TO.P,J2,B11,GND*%
%TO.N,GND*%
X128260000Y-104700000D03*
%TO.P,J2,B12*%
%TO.N,N/C*%
X131260000Y-102700000D03*
%TO.P,J2,B13*%
X132260000Y-104700000D03*
%TO.P,J2,B14*%
X133260000Y-102700000D03*
%TO.P,J2,B15*%
X134260000Y-104700000D03*
%TO.P,J2,B16,sample_clk_se_P*%
%TO.N,unconnected-(J2-PadB16)*%
X135260000Y-102700000D03*
%TO.P,J2,B17,sample_clk_se_N*%
%TO.N,unconnected-(J2-PadB17)*%
X136260000Y-104700000D03*
%TO.P,J2,B18,sample_clk_P*%
%TO.N,/sample_clk2_P*%
X137260000Y-102700000D03*
%TO.P,J2,B19,sample_clk_N*%
%TO.N,/sample_clk2_N*%
X138260000Y-104700000D03*
%TO.P,J2,B20,interrupt*%
%TO.N,/hold*%
X139260000Y-102700000D03*
%TO.P,J2,B21,ts_clk*%
%TO.N,/timestamp_clk*%
X140260000Y-104700000D03*
%TO.P,J2,B22,hold*%
%TO.N,/interrupt*%
X141260000Y-102700000D03*
%TO.P,J2,B23,res_n*%
%TO.N,/res_n*%
X142260000Y-104700000D03*
%TO.P,J2,B24,sr_ld*%
%TO.N,/sr_ld*%
X143260000Y-102700000D03*
%TO.P,J2,B25,sr_sin*%
%TO.N,/sr_out*%
X144260000Y-104700000D03*
%TO.P,J2,B26*%
%TO.N,N/C*%
X145260000Y-102700000D03*
%TO.P,J2,B27*%
X146260000Y-104700000D03*
%TO.P,J2,B28*%
X147260000Y-102700000D03*
%TO.P,J2,B29*%
X148260000Y-104700000D03*
%TO.P,J2,B30*%
X149260000Y-102700000D03*
%TO.P,J2,B31*%
X150260000Y-104700000D03*
%TO.P,J2,B32,DAC_blpix*%
%TO.N,/DAC_ThPMOS*%
X151260000Y-102700000D03*
%TO.P,J2,B33,DAC_Vcasc2*%
%TO.N,/DAC_VCasc2!*%
X152260000Y-104700000D03*
%TO.P,J2,B34,DAC_ThPix*%
%TO.N,/DAC_ThPix*%
X153260000Y-102700000D03*
%TO.P,J2,B35,DAC_vminuspix*%
%TO.N,/DAC_vminuspix*%
X154260000Y-104700000D03*
%TO.P,J2,B36*%
%TO.N,N/C*%
X155260000Y-102700000D03*
%TO.P,J2,B37*%
X156260000Y-104700000D03*
%TO.P,J2,B38*%
X157260000Y-102700000D03*
%TO.P,J2,B39*%
X158260000Y-104700000D03*
%TO.P,J2,B40,spi_right_clk*%
%TO.N,/spi2_clk*%
X159260000Y-102700000D03*
%TO.P,J2,B41,spi_right_miso1*%
%TO.N,/spi2_miso1*%
X160260000Y-104700000D03*
%TO.P,J2,B42,spi_right_miso0*%
%TO.N,/spi2_miso0*%
X161260000Y-102700000D03*
%TO.P,J2,B43,spi_right_csn*%
%TO.N,/spi2_csn*%
X162260000Y-104700000D03*
%TO.P,J2,B44,spi_right_mosi*%
%TO.N,/spi2_mosi*%
X163260000Y-102700000D03*
%TO.P,J2,B45*%
%TO.N,N/C*%
X164260000Y-104700000D03*
%TO.P,J2,B46*%
X165260000Y-102700000D03*
%TO.P,J2,B47*%
X166260000Y-104700000D03*
%TO.P,J2,B48*%
X167260000Y-102700000D03*
%TO.P,J2,B49*%
X168260000Y-104700000D03*
%TD*%
D18*
%TO.N,GND*%
X113627000Y-38954500D03*
X131026000Y-36541500D03*
X128232000Y-45431500D03*
X109182000Y-37430500D03*
X107785000Y-33493500D03*
X113881000Y-33493500D03*
X116548000Y-34382500D03*
X113881000Y-37430500D03*
X127216000Y-29556500D03*
X109690000Y-46320500D03*
X110071000Y-30953500D03*
X111087000Y-37430500D03*
X128010000Y-38039500D03*
X123660000Y-44034500D03*
X104737000Y-45050500D03*
X109182000Y-38954500D03*
X119088000Y-39335500D03*
X131026000Y-43653500D03*
X129248000Y-47590500D03*
X117056000Y-38446500D03*
X124930000Y-38827500D03*
X131026000Y-38065500D03*
X107785000Y-36414500D03*
X112738000Y-30953500D03*
X113500000Y-46320500D03*
X123787000Y-36033500D03*
X128010000Y-36539500D03*
X107785000Y-44161500D03*
X126454000Y-38446500D03*
X123660000Y-39335500D03*
X127216000Y-47590500D03*
X104864000Y-34890500D03*
X124041000Y-30953500D03*
X129248000Y-29556500D03*
X131026000Y-30826500D03*
X123660000Y-46320500D03*
X128232000Y-30953500D03*
X119088000Y-41875500D03*
X119215000Y-33239500D03*
X113500000Y-43907500D03*
X131026000Y-46320500D03*
X104864000Y-31969500D03*
X126454000Y-40351500D03*
X106769000Y-30953500D03*
X115151000Y-36922500D03*
X119215000Y-46320500D03*
X116548000Y-32350500D03*
X126581000Y-36795500D03*
X117056000Y-36922500D03*
X121501000Y-33239500D03*
X119850000Y-30953500D03*
X131026000Y-41113500D03*
X123787000Y-37557500D03*
X105753000Y-46320500D03*
X120866000Y-35398500D03*
X107785000Y-41367500D03*
X111087000Y-38954500D03*
X104737000Y-42764500D03*
X104737000Y-38954500D03*
X111341000Y-33493500D03*
X126454000Y-43653500D03*
X118453000Y-37938500D03*
X119010000Y-44539500D03*
X131026000Y-33747500D03*
X115151000Y-38446500D03*
X115913000Y-30953500D03*
X162158000Y-47478000D03*
X160380000Y-46208000D03*
X177779000Y-38080000D03*
X175493000Y-46081000D03*
X186542000Y-45065000D03*
X177906000Y-33127000D03*
X183621000Y-35667000D03*
X167746000Y-33000000D03*
X166476000Y-38207000D03*
X182224000Y-38080000D03*
X160380000Y-30714000D03*
X185653000Y-30714000D03*
X171556000Y-46081000D03*
X172318000Y-37699000D03*
X178668000Y-46081000D03*
X176255000Y-38588000D03*
X160380000Y-43287000D03*
X170540000Y-41636000D03*
X167619000Y-41001000D03*
X167746000Y-37699000D03*
X163396000Y-40495000D03*
X167619000Y-39477000D03*
X164952000Y-38588000D03*
X169905000Y-43795000D03*
X164190000Y-29444000D03*
X164825000Y-40239000D03*
X186669000Y-38080000D03*
X167365000Y-46081000D03*
X164952000Y-36683000D03*
X180065000Y-43541000D03*
X174350000Y-40112000D03*
X160380000Y-38969000D03*
X176255000Y-40112000D03*
X172191000Y-30714000D03*
X181335000Y-46081000D03*
X163174000Y-46081000D03*
X160380000Y-40493000D03*
X184637000Y-46081000D03*
X160380000Y-33381000D03*
X186669000Y-31984000D03*
X186542000Y-42144000D03*
X177525000Y-43541000D03*
X174858000Y-44684000D03*
X163174000Y-31603000D03*
X167746000Y-30714000D03*
X172191000Y-43795000D03*
X160380000Y-35921000D03*
X183621000Y-43541000D03*
X177525000Y-39604000D03*
X164190000Y-47478000D03*
X180319000Y-38080000D03*
X182224000Y-39604000D03*
X183621000Y-40620000D03*
X174858000Y-42652000D03*
X172318000Y-35159000D03*
X164952000Y-33381000D03*
X162158000Y-29444000D03*
X174350000Y-38588000D03*
X181716000Y-30714000D03*
X172953000Y-39096000D03*
X180319000Y-39604000D03*
X172396000Y-32495000D03*
X163396000Y-38995000D03*
X186669000Y-34270000D03*
X177906000Y-30714000D03*
X183621000Y-32873000D03*
D19*
X145260000Y-71700000D03*
X143884500Y-91200000D03*
X137260000Y-74824500D03*
X143260000Y-111200000D03*
X136260000Y-114200000D03*
X114210000Y-149350000D03*
X114210000Y-150350000D03*
X114210000Y-148385000D03*
X114210000Y-151350000D03*
X137260000Y-93900000D03*
%TO.N,VDDA*%
X111260000Y-151365000D03*
X111260000Y-149365000D03*
X110260000Y-149365000D03*
X110260000Y-151365000D03*
X110260000Y-150365000D03*
X111260000Y-150365000D03*
D20*
%TO.N,-HV*%
X104260000Y-151200000D03*
D19*
%TO.N,/interrupt*%
X107260000Y-97700000D03*
X107260000Y-116700000D03*
X112760000Y-56694961D03*
X107260000Y-75200000D03*
%TO.N,/POW4_in*%
X109260000Y-150365000D03*
X108260000Y-149365000D03*
X109260000Y-151365000D03*
X108260000Y-150365000D03*
X108260000Y-151365000D03*
X109260000Y-149365000D03*
%TO.N,/sr_ck1*%
X112260000Y-73700000D03*
X129296839Y-143361339D03*
X112260000Y-93065000D03*
X112260000Y-112700000D03*
%TO.N,/res_n*%
X108260000Y-97166499D03*
X108260000Y-115863455D03*
X113860000Y-55700000D03*
X108260000Y-74200000D03*
%TO.N,/VDD18_in*%
X107260000Y-150365000D03*
X107260000Y-149365000D03*
X106260000Y-150365000D03*
X107260000Y-151365000D03*
X106260000Y-151365000D03*
X106260000Y-149365000D03*
%TO.N,/hold*%
X105260000Y-118200000D03*
X105260000Y-77300000D03*
X110310000Y-60515000D03*
X105260000Y-98700000D03*
%TO.N,/sr_rb*%
X111260000Y-92200000D03*
X128260000Y-144200000D03*
X111260000Y-111700000D03*
X111260000Y-72700000D03*
%TO.N,/timestamp_clk*%
X106260000Y-76075500D03*
X111760000Y-57700000D03*
X106260000Y-117700000D03*
X106260000Y-98200000D03*
%TO.N,/sr_ck2*%
X130663478Y-142603478D03*
X113260000Y-93950000D03*
X113260000Y-74450000D03*
X113260000Y-113700000D03*
%TO.N,/sr_ld*%
X115010000Y-54950000D03*
X110260000Y-73915000D03*
X110260000Y-95700000D03*
%TO.N,/spi1_clk*%
X155260000Y-112783867D03*
%TO.N,/spi1_miso1*%
X156260000Y-113432902D03*
%TO.N,/spi1_miso0*%
X155941132Y-111200000D03*
%TO.N,/spi1_csn*%
X158357701Y-113595879D03*
%TO.N,/spi1_mosi*%
X158260000Y-112163425D03*
%TO.N,/spi2_clk*%
X155160000Y-93100000D03*
%TO.N,/spi2_miso1*%
X156060000Y-94000000D03*
%TO.N,/spi2_miso0*%
X155891132Y-91200000D03*
%TO.N,/spi2_csn*%
X159378445Y-94333078D03*
%TO.N,/spi2_mosi*%
X158760000Y-93200000D03*
%TO.N,/spi3_clk*%
X155710000Y-73700000D03*
%TO.N,/spi3_miso1*%
X156801589Y-74700000D03*
%TO.N,/spi3_miso0*%
X155910000Y-71566000D03*
%TO.N,/spi3_csn*%
X158760000Y-75700000D03*
%TO.N,/spi3_mosi*%
X158760000Y-74200000D03*
%TO.N,/sr_out3*%
X127160000Y-146700000D03*
X109260000Y-73200000D03*
D20*
%TO.N,/DAC_ThPMOS*%
X136510000Y-151150000D03*
X151260000Y-91100000D03*
X151260000Y-70750000D03*
X151260000Y-110750000D03*
D19*
%TO.N,VSSA*%
X113235000Y-150375000D03*
X113235000Y-151350000D03*
X113260000Y-149350000D03*
X112410000Y-149350000D03*
X112385000Y-150375000D03*
X112385000Y-151350000D03*
%TD*%
D21*
%TO.N,/spi_right_miso0*%
X158460000Y-136450000D02*
X158710000Y-136700000D01*
X158710000Y-136700000D02*
X164760000Y-136700000D01*
X166085000Y-136577957D02*
X166085000Y-136822043D01*
X165482042Y-136822042D02*
X165482042Y-136700000D01*
X165485000Y-136577957D02*
X165607042Y-136455915D01*
X157510000Y-136950000D02*
X157860000Y-136950000D01*
X147260000Y-144200000D02*
X154760000Y-136700000D01*
X165482042Y-136700000D02*
X165485000Y-136700000D01*
X147010000Y-148950000D02*
X147010000Y-148600000D01*
X147135000Y-149075000D02*
X147010000Y-148950000D01*
X157985000Y-136825000D02*
X157985000Y-136575000D01*
X154760000Y-136700000D02*
X157260000Y-136700000D01*
X165962958Y-136455915D02*
X166085000Y-136577957D01*
X164760000Y-136700000D02*
X165004084Y-136944085D01*
X166562958Y-136944085D02*
X166807042Y-136700000D01*
X175260000Y-84700000D02*
X161260000Y-70700000D01*
X147260000Y-148350000D02*
X147260000Y-144200000D01*
X158110000Y-136450000D02*
X158460000Y-136450000D01*
X147260000Y-149800000D02*
X147510000Y-149550000D01*
X157985000Y-136575000D02*
X158110000Y-136450000D01*
X165485000Y-136700000D02*
X165485000Y-136577957D01*
X169260000Y-136700000D02*
X175260000Y-130700000D01*
X166085000Y-136822043D02*
X166207042Y-136944085D01*
X165360000Y-136944085D02*
X165482042Y-136822042D01*
X147510000Y-149550000D02*
X147510000Y-149200000D01*
X166807042Y-136700000D02*
X169260000Y-136700000D01*
X157260000Y-136700000D02*
X157510000Y-136950000D01*
X147385000Y-149075000D02*
X147135000Y-149075000D01*
X165607042Y-136455915D02*
X165962958Y-136455915D01*
X161260000Y-70700000D02*
X161260000Y-69200000D01*
X175260000Y-130700000D02*
X175260000Y-84700000D01*
X147010000Y-148600000D02*
X147260000Y-148350000D01*
X161260000Y-62700000D02*
X161260000Y-69200000D01*
X157860000Y-136950000D02*
X157985000Y-136825000D01*
X147260000Y-154365000D02*
X147260000Y-149800000D01*
X147510000Y-149200000D02*
X147385000Y-149075000D01*
X165004084Y-136944085D02*
X165360000Y-136944085D01*
X166207042Y-136944085D02*
X166562958Y-136944085D01*
%TO.N,/spi_left_miso1*%
X131760000Y-137700000D02*
X128760000Y-137700000D01*
X137260000Y-129200000D02*
X137260000Y-132200000D01*
X137260000Y-132200000D02*
X131760000Y-137700000D01*
X128760000Y-137700000D02*
X123260000Y-143200000D01*
X123260000Y-143200000D02*
X123260000Y-154365000D01*
%TO.N,/spi_right_csn*%
X169760000Y-137700000D02*
X161860000Y-137700000D01*
X162260000Y-64700000D02*
X162260000Y-67200000D01*
X176260000Y-131200000D02*
X169760000Y-137700000D01*
X161113538Y-137700000D02*
X155260000Y-137700000D01*
X161860000Y-137700000D02*
X161713538Y-137846463D01*
X162260000Y-67200000D02*
X162260000Y-70200000D01*
X161260000Y-137846463D02*
X161113538Y-137700000D01*
X162260000Y-70200000D02*
X176260000Y-84200000D01*
X176260000Y-84200000D02*
X176260000Y-131200000D01*
X155260000Y-137700000D02*
X148260000Y-144700000D01*
X161713538Y-137846463D02*
X161260000Y-137846463D01*
X148260000Y-144700000D02*
X148260000Y-154365000D01*
%TO.N,/spi_left_csn*%
X135260000Y-129200000D02*
X135260000Y-131075000D01*
X121260000Y-141950000D02*
X121260000Y-154365000D01*
X127510000Y-135700000D02*
X121260000Y-141950000D01*
X135260000Y-131075000D02*
X130635000Y-135700000D01*
X130635000Y-135700000D02*
X127510000Y-135700000D01*
%TO.N,/spi_right_mosi*%
X166560000Y-138945655D02*
X166205654Y-138945655D01*
X162310000Y-138850000D02*
X162310000Y-139050000D01*
X161710000Y-138850000D02*
X161560000Y-138700000D01*
X170260000Y-138700000D02*
X166805654Y-138700000D01*
X153560000Y-141607108D02*
X153489289Y-141677820D01*
X149260000Y-145200000D02*
X149260000Y-148600000D01*
X161860000Y-139200000D02*
X161710000Y-139050000D01*
X159510000Y-138700000D02*
X155760000Y-138700000D01*
X153489289Y-141677820D02*
X152782183Y-141677819D01*
X161560000Y-138700000D02*
X160360000Y-138700000D01*
X149260000Y-148600000D02*
X149760000Y-149100000D01*
X163260000Y-69700000D02*
X177260000Y-83700000D01*
X161710000Y-139050000D02*
X161710000Y-138850000D01*
X160110000Y-138950000D02*
X159760000Y-138950000D01*
X151960001Y-142500001D02*
X151960003Y-143207109D01*
X149760000Y-149200000D02*
X149260000Y-149700000D01*
X153560000Y-140900000D02*
X153560000Y-141607108D01*
X177260000Y-131700000D02*
X170260000Y-138700000D01*
X162160000Y-139200000D02*
X161860000Y-139200000D01*
X152782183Y-141677819D02*
X151960001Y-142500001D01*
X150802359Y-143657642D02*
X149260000Y-145200000D01*
X155760000Y-138700000D02*
X153560000Y-140900000D01*
X165960000Y-138700000D02*
X162460000Y-138700000D01*
X163260000Y-62700000D02*
X163260000Y-69200000D01*
X177260000Y-83700000D02*
X177260000Y-131700000D01*
X151960003Y-143207109D02*
X151889292Y-143277819D01*
X166805654Y-138700000D02*
X166560000Y-138945655D01*
X151182185Y-143277820D02*
X150802359Y-143657642D01*
X162460000Y-138700000D02*
X162310000Y-138850000D01*
X149760000Y-149100000D02*
X149760000Y-149200000D01*
X149260000Y-149700000D02*
X149260000Y-154365000D01*
X160360000Y-138700000D02*
X160110000Y-138950000D01*
X162310000Y-139050000D02*
X162160000Y-139200000D01*
X163260000Y-69200000D02*
X163260000Y-69700000D01*
X151889292Y-143277819D02*
X151182185Y-143277820D01*
X166205654Y-138945655D02*
X165960000Y-138700000D01*
X159760000Y-138950000D02*
X159510000Y-138700000D01*
%TO.N,/spi_left_clk*%
X122260000Y-142700000D02*
X122260000Y-154365000D01*
X131260000Y-136700000D02*
X128260000Y-136700000D01*
X136260000Y-131700000D02*
X131260000Y-136700000D01*
X128260000Y-136700000D02*
X122260000Y-142700000D01*
X136260000Y-127200000D02*
X136260000Y-131700000D01*
D22*
%TO.N,VDDA*%
X111260000Y-151365000D02*
X111260000Y-145200000D01*
X111260000Y-145200000D02*
X125260000Y-131200000D01*
X125260000Y-131200000D02*
X125260000Y-129200000D01*
D21*
%TO.N,-HV*%
X118260000Y-127200000D02*
X116760000Y-128700000D01*
X104260000Y-144700000D02*
X104260000Y-153815000D01*
X116760000Y-132200000D02*
X104260000Y-144700000D01*
X116760000Y-128700000D02*
X116760000Y-132200000D01*
%TO.N,/interrupt*%
X112760000Y-56694961D02*
X113265039Y-57200000D01*
X107260000Y-116700000D02*
X108760000Y-118200000D01*
X141260000Y-80700000D02*
X141260000Y-82700000D01*
X139260000Y-98200000D02*
X141260000Y-100200000D01*
X107260000Y-75200000D02*
X109760000Y-77700000D01*
X141260000Y-100200000D02*
X141260000Y-102700000D01*
X138760000Y-57200000D02*
X141260000Y-59700000D01*
X139760000Y-118200000D02*
X141260000Y-119700000D01*
X113265039Y-57200000D02*
X138760000Y-57200000D01*
X138260000Y-77700000D02*
X141260000Y-80700000D01*
X109760000Y-77700000D02*
X138260000Y-77700000D01*
X141260000Y-119700000D02*
X141260000Y-122700000D01*
X108760000Y-118200000D02*
X139760000Y-118200000D01*
X141260000Y-59700000D02*
X141260000Y-62700000D01*
X107260000Y-97700000D02*
X107760000Y-98200000D01*
X107760000Y-98200000D02*
X139260000Y-98200000D01*
D22*
%TO.N,/POW4_in*%
X109260000Y-144700000D02*
X123260000Y-130700000D01*
X109260000Y-151365000D02*
X109260000Y-149365000D01*
X109260000Y-149365000D02*
X109260000Y-144700000D01*
X123260000Y-130700000D02*
X123260000Y-129200000D01*
D21*
%TO.N,/DAC_VCasc2!*%
X152260000Y-64700000D02*
X152260000Y-67200000D01*
X152260000Y-87200000D02*
X152260000Y-127200000D01*
X152260000Y-67200000D02*
X152260000Y-84700000D01*
X152260000Y-84700000D02*
X152260000Y-87200000D01*
%TO.N,/spi_left_mosi*%
X129760000Y-139700000D02*
X125260000Y-144200000D01*
X139260000Y-133200000D02*
X132760000Y-139700000D01*
X132760000Y-139700000D02*
X129760000Y-139700000D01*
X125260000Y-144200000D02*
X125260000Y-154365000D01*
X139260000Y-129200000D02*
X139260000Y-133200000D01*
%TO.N,/sr_ck1*%
X141760000Y-92200000D02*
X143260000Y-90700000D01*
X133760000Y-141700000D02*
X143260000Y-132200000D01*
X112260000Y-73700000D02*
X112760000Y-73200000D01*
X129296839Y-143361339D02*
X129296839Y-142798850D01*
X129296839Y-142798850D02*
X130395689Y-141700000D01*
X129260000Y-154365000D02*
X129260000Y-143398178D01*
X112760000Y-73200000D02*
X140760000Y-73200000D01*
X130395689Y-141700000D02*
X133760000Y-141700000D01*
X116645000Y-93065000D02*
X117510000Y-92200000D01*
X112760000Y-112200000D02*
X140760000Y-112200000D01*
X112260000Y-112700000D02*
X112760000Y-112200000D01*
X140760000Y-73200000D02*
X143260000Y-70700000D01*
X143260000Y-90700000D02*
X143260000Y-89200000D01*
X143260000Y-70700000D02*
X143260000Y-69200000D01*
X143260000Y-132200000D02*
X143260000Y-129200000D01*
X112260000Y-93065000D02*
X116645000Y-93065000D01*
X140760000Y-112200000D02*
X143260000Y-109700000D01*
X143260000Y-109700000D02*
X143260000Y-109200000D01*
X117510000Y-92200000D02*
X141760000Y-92200000D01*
X129260000Y-143398178D02*
X129296839Y-143361339D01*
%TO.N,/res_n*%
X108260000Y-97166499D02*
X108293501Y-97200000D01*
X139301498Y-56241498D02*
X142260000Y-59200000D01*
X142260000Y-119200000D02*
X142260000Y-124700000D01*
X108260000Y-74200000D02*
X110760000Y-76700000D01*
X142260000Y-80200000D02*
X142260000Y-84700000D01*
X140360000Y-117300000D02*
X142260000Y-119200000D01*
X138760000Y-76700000D02*
X142260000Y-80200000D01*
X142260000Y-59200000D02*
X142260000Y-64700000D01*
X139760000Y-97200000D02*
X142260000Y-99700000D01*
X110760000Y-76700000D02*
X138760000Y-76700000D01*
X142260000Y-99700000D02*
X142260000Y-104700000D01*
X113860000Y-55700000D02*
X114401498Y-56241498D01*
X108260000Y-115863455D02*
X109696545Y-117300000D01*
X108293501Y-97200000D02*
X139760000Y-97200000D01*
X114401498Y-56241498D02*
X139301498Y-56241498D01*
X109696545Y-117300000D02*
X140360000Y-117300000D01*
D22*
%TO.N,/VDD18_in*%
X106260000Y-145200000D02*
X121260000Y-130200000D01*
X121260000Y-130200000D02*
X121260000Y-129200000D01*
X106260000Y-151365000D02*
X106260000Y-145200000D01*
D21*
%TO.N,/hold*%
X138760000Y-120200000D02*
X139260000Y-120700000D01*
X105260000Y-77300000D02*
X107660000Y-79700000D01*
X139260000Y-101200000D02*
X139260000Y-102700000D01*
X138260000Y-100200000D02*
X139260000Y-101200000D01*
X137260000Y-79700000D02*
X139260000Y-81700000D01*
X139260000Y-60700000D02*
X139260000Y-62700000D01*
X107260000Y-120200000D02*
X138760000Y-120200000D01*
X105260000Y-118200000D02*
X107260000Y-120200000D01*
X139260000Y-81700000D02*
X139260000Y-82700000D01*
X106760000Y-100200000D02*
X138260000Y-100200000D01*
X107660000Y-79700000D02*
X137260000Y-79700000D01*
X111625000Y-59200000D02*
X137760000Y-59200000D01*
X137760000Y-59200000D02*
X139260000Y-60700000D01*
X139260000Y-120700000D02*
X139260000Y-122700000D01*
X110310000Y-60515000D02*
X111625000Y-59200000D01*
X105260000Y-98700000D02*
X106760000Y-100200000D01*
%TO.N,/DAC_blpix*%
X150331000Y-83084805D02*
X150331000Y-70129000D01*
X150331000Y-90129000D02*
X151260000Y-89200000D01*
X151260000Y-104200000D02*
X150331000Y-103271000D01*
X151260000Y-124200000D02*
X150189000Y-123129000D01*
X150189000Y-110271000D02*
X151260000Y-109200000D01*
X150331000Y-103271000D02*
X150331000Y-90129000D01*
X151260000Y-84013805D02*
X150331000Y-83084805D01*
X150331000Y-70129000D02*
X151260000Y-69200000D01*
X151260000Y-109200000D02*
X151260000Y-104200000D01*
X151260000Y-89200000D02*
X151260000Y-84013805D01*
X150189000Y-123129000D02*
X150189000Y-110271000D01*
X151260000Y-129200000D02*
X151260000Y-124200000D01*
%TO.N,/sr_rb*%
X142260000Y-131700000D02*
X142260000Y-127200000D01*
X128260000Y-142699646D02*
X130259646Y-140700000D01*
X142260000Y-87200000D02*
X142260000Y-90200000D01*
X116140070Y-92200000D02*
X111260000Y-92200000D01*
X142260000Y-70200000D02*
X142260000Y-67200000D01*
X111260000Y-111700000D02*
X111760000Y-111200000D01*
X128260000Y-144200000D02*
X128260000Y-154365000D01*
X111740093Y-72219907D02*
X140240093Y-72219907D01*
X142260000Y-109513805D02*
X142260000Y-107200000D01*
X141260000Y-91200000D02*
X117140070Y-91200000D01*
X111760000Y-111200000D02*
X140573805Y-111200000D01*
X133260000Y-140700000D02*
X142260000Y-131700000D01*
X140573805Y-111200000D02*
X142260000Y-109513805D01*
X117140070Y-91200000D02*
X116140070Y-92200000D01*
X128260000Y-144200000D02*
X128260000Y-142699646D01*
X130259646Y-140700000D02*
X133260000Y-140700000D01*
X111260000Y-72700000D02*
X111740093Y-72219907D01*
X142260000Y-90200000D02*
X141260000Y-91200000D01*
X140240093Y-72219907D02*
X142260000Y-70200000D01*
%TO.N,/Inj*%
X146260000Y-123200000D02*
X147260000Y-124200000D01*
X146260000Y-111450000D02*
X146260000Y-123200000D01*
X147260000Y-129200000D02*
X147260000Y-131400000D01*
X148189000Y-90129000D02*
X148189000Y-103336000D01*
X147260000Y-109200000D02*
X147260000Y-110450000D01*
X147260000Y-131400000D02*
X133260000Y-145400000D01*
X148260000Y-70200000D02*
X148260000Y-83200000D01*
X133260000Y-145400000D02*
X133260000Y-154365000D01*
X147260000Y-110450000D02*
X146260000Y-111450000D01*
X147260000Y-84200000D02*
X147260000Y-89200000D01*
X147260000Y-104265000D02*
X147260000Y-109200000D01*
X148189000Y-103336000D02*
X147260000Y-104265000D01*
X147260000Y-124200000D02*
X147260000Y-129200000D01*
X147260000Y-89200000D02*
X148189000Y-90129000D01*
X148260000Y-83200000D02*
X147260000Y-84200000D01*
X147260000Y-69200000D02*
X148260000Y-70200000D01*
%TO.N,/timestamp_clk*%
X106260000Y-117700000D02*
X107760000Y-119200000D01*
X107260000Y-99200000D02*
X138760000Y-99200000D01*
X107760000Y-119200000D02*
X139260000Y-119200000D01*
X140260000Y-60200000D02*
X140260000Y-64700000D01*
X140260000Y-81200000D02*
X140260000Y-84700000D01*
X140260000Y-100700000D02*
X140260000Y-104700000D01*
X138760000Y-99200000D02*
X140260000Y-100700000D01*
X106260000Y-76075500D02*
X108884500Y-78700000D01*
X139260000Y-119200000D02*
X140260000Y-120200000D01*
X112260000Y-58200000D02*
X138260000Y-58200000D01*
X111760000Y-57700000D02*
X112260000Y-58200000D01*
X106260000Y-98200000D02*
X107260000Y-99200000D01*
X108884500Y-78700000D02*
X137760000Y-78700000D01*
X138260000Y-58200000D02*
X140260000Y-60200000D01*
X140260000Y-120200000D02*
X140260000Y-124700000D01*
X137760000Y-78700000D02*
X140260000Y-81200000D01*
%TO.N,/sr_ck2*%
X144260000Y-71200000D02*
X144260000Y-67200000D01*
X144660000Y-90400000D02*
X144260000Y-90000000D01*
X144260000Y-111700000D02*
X144260000Y-107200000D01*
X113510000Y-74200000D02*
X141260000Y-74200000D01*
X141260000Y-74200000D02*
X144260000Y-71200000D01*
X113260000Y-74450000D02*
X113510000Y-74200000D01*
X144260000Y-132700000D02*
X144260000Y-127200000D01*
X144260000Y-93200000D02*
X144660000Y-92800000D01*
X117760000Y-93200000D02*
X144260000Y-93200000D01*
X113260000Y-113700000D02*
X113760000Y-113200000D01*
X130260000Y-143006956D02*
X130260000Y-154365000D01*
X142760000Y-113200000D02*
X144260000Y-111700000D01*
X113260000Y-93950000D02*
X117010000Y-93950000D01*
X113760000Y-113200000D02*
X142760000Y-113200000D01*
X144260000Y-90000000D02*
X144260000Y-87200000D01*
X144660000Y-92800000D02*
X144660000Y-90400000D01*
X117010000Y-93950000D02*
X117760000Y-93200000D01*
X130663478Y-142603478D02*
X130260000Y-143006956D01*
X134356522Y-142603478D02*
X144260000Y-132700000D01*
X130663478Y-142603478D02*
X134356522Y-142603478D01*
%TO.N,/sr_out*%
X142810000Y-125865000D02*
X143260000Y-125415000D01*
X141260000Y-129200000D02*
X141260000Y-126600000D01*
X144260000Y-121293098D02*
X145260000Y-120293098D01*
X144260000Y-123115000D02*
X144260000Y-121293098D01*
X145260000Y-105700000D02*
X144260000Y-104700000D01*
X143260000Y-125415000D02*
X143260000Y-124115000D01*
X145260000Y-120293098D02*
X145260000Y-110700000D01*
X146260000Y-108655805D02*
X145260000Y-107655805D01*
X143260000Y-124115000D02*
X144260000Y-123115000D01*
X145260000Y-107655805D02*
X145260000Y-105700000D01*
X145260000Y-110700000D02*
X146260000Y-109700000D01*
X141995000Y-125865000D02*
X142810000Y-125865000D01*
X146260000Y-109700000D02*
X146260000Y-108655805D01*
X141260000Y-126600000D02*
X141995000Y-125865000D01*
%TO.N,/spi_left_miso0*%
X138260000Y-132700000D02*
X132260000Y-138700000D01*
X129260000Y-138700000D02*
X124260000Y-143700000D01*
X138260000Y-127200000D02*
X138260000Y-132700000D01*
X124260000Y-143700000D02*
X124260000Y-154365000D01*
X132260000Y-138700000D02*
X129260000Y-138700000D01*
%TO.N,/DAC_ThPix*%
X153260000Y-69200000D02*
X153260000Y-82700000D01*
X153260000Y-129200000D02*
X153260000Y-82700000D01*
X153260000Y-62700000D02*
X153260000Y-69200000D01*
%TO.N,/sr_ld*%
X140260000Y-96200000D02*
X143260000Y-99200000D01*
X143260000Y-99200000D02*
X143260000Y-102700000D01*
X143260000Y-79700000D02*
X143260000Y-82700000D01*
X115175000Y-55115000D02*
X139675000Y-55115000D01*
X115010000Y-54950000D02*
X115175000Y-55115000D01*
X110260000Y-95700000D02*
X110760000Y-96200000D01*
X110260000Y-73915000D02*
X112045000Y-75700000D01*
X139675000Y-55115000D02*
X143260000Y-58700000D01*
X112045000Y-75700000D02*
X139260000Y-75700000D01*
X139260000Y-75700000D02*
X143260000Y-79700000D01*
X110760000Y-96200000D02*
X140260000Y-96200000D01*
X143260000Y-58700000D02*
X143260000Y-62700000D01*
%TO.N,/DAC_vminuspix*%
X154260000Y-64700000D02*
X154260000Y-67200000D01*
X154260000Y-84700000D02*
X154260000Y-67200000D01*
X154260000Y-84700000D02*
X154260000Y-127200000D01*
%TO.N,/spi_right_clk*%
X159260000Y-71700000D02*
X159260000Y-69200000D01*
X145110000Y-145150000D02*
X144910000Y-145150000D01*
X168260000Y-134700000D02*
X173260000Y-129700000D01*
X158860000Y-134700000D02*
X159033670Y-134526329D01*
X173260000Y-85700000D02*
X159260000Y-71700000D01*
X144760000Y-147200000D02*
X144910000Y-147050000D01*
X144760000Y-144700000D02*
X144910000Y-144550000D01*
X144910000Y-147050000D02*
X145110000Y-147050000D01*
X159460000Y-134526329D02*
X159633670Y-134700000D01*
X144910000Y-147650000D02*
X144760000Y-147500000D01*
X145260000Y-149000000D02*
X145260000Y-147800000D01*
X145110000Y-149150000D02*
X145260000Y-149000000D01*
X173260000Y-129700000D02*
X173260000Y-85700000D01*
X144760000Y-149300000D02*
X144910000Y-149150000D01*
X145260000Y-154365000D02*
X145260000Y-149900000D01*
X144910000Y-149150000D02*
X145110000Y-149150000D01*
X144760000Y-149600000D02*
X144760000Y-149300000D01*
X145110000Y-147050000D02*
X145260000Y-146900000D01*
X144910000Y-145150000D02*
X144760000Y-145000000D01*
X159633670Y-134700000D02*
X168260000Y-134700000D01*
X144760000Y-145000000D02*
X144760000Y-144700000D01*
X145110000Y-149750000D02*
X144910000Y-149750000D01*
X145110000Y-144550000D02*
X145260000Y-144400000D01*
X159033670Y-134526329D02*
X159460000Y-134526329D01*
X144910000Y-144550000D02*
X145110000Y-144550000D01*
X144910000Y-149750000D02*
X144760000Y-149600000D01*
X145260000Y-145300000D02*
X145110000Y-145150000D01*
X145260000Y-146900000D02*
X145260000Y-145300000D01*
X145260000Y-143200000D02*
X153760000Y-134700000D01*
X145260000Y-144400000D02*
X145260000Y-143200000D01*
X145260000Y-149900000D02*
X145110000Y-149750000D01*
X153760000Y-134700000D02*
X158860000Y-134700000D01*
X159260000Y-62700000D02*
X159260000Y-69200000D01*
X144760000Y-147500000D02*
X144760000Y-147200000D01*
X145260000Y-147800000D02*
X145110000Y-147650000D01*
X145110000Y-147650000D02*
X144910000Y-147650000D01*
%TO.N,/spi_right_miso1*%
X168760000Y-135700000D02*
X154260000Y-135700000D01*
X174260000Y-130200000D02*
X168760000Y-135700000D01*
X174260000Y-85200000D02*
X174260000Y-130200000D01*
X146260000Y-143700000D02*
X146260000Y-154365000D01*
X154260000Y-135700000D02*
X146260000Y-143700000D01*
X160260000Y-71200000D02*
X174260000Y-85200000D01*
X160260000Y-64700000D02*
X160260000Y-67200000D01*
X160260000Y-67200000D02*
X160260000Y-71200000D01*
%TO.N,/spi1_clk*%
X159260000Y-122700000D02*
X159260000Y-129200000D01*
X159260000Y-118900000D02*
X155260000Y-114900000D01*
X159291132Y-122668867D02*
X159291132Y-118931132D01*
X155260000Y-114900000D02*
X155260000Y-112783867D01*
X159291132Y-118931132D02*
X159260000Y-118900000D01*
%TO.N,/spi1_miso1*%
X160260000Y-124700000D02*
X160260000Y-127200000D01*
X156260000Y-113432902D02*
X156260000Y-114200000D01*
X160291132Y-118231132D02*
X160291132Y-124668867D01*
X156260000Y-114200000D02*
X160291132Y-118231132D01*
%TO.N,/spi1_miso0*%
X157260000Y-112518868D02*
X155941132Y-111200000D01*
X161260000Y-117700000D02*
X157260000Y-113700000D01*
X161260000Y-122700000D02*
X161260000Y-117700000D01*
X157260000Y-113700000D02*
X157260000Y-112518868D01*
X161260000Y-122700000D02*
X161260000Y-129200000D01*
%TO.N,/spi1_csn*%
X162291132Y-124668867D02*
X162291132Y-117131132D01*
X158755879Y-113595879D02*
X158357701Y-113595879D01*
X162260000Y-124700000D02*
X162260000Y-127200000D01*
X162291132Y-117131132D02*
X158755879Y-113595879D01*
%TO.N,/spi1_mosi*%
X159023425Y-112163425D02*
X163291132Y-116431132D01*
X163291132Y-116431132D02*
X163291132Y-122668867D01*
X163260000Y-122700000D02*
X163260000Y-129200000D01*
X158260000Y-112163425D02*
X159023425Y-112163425D01*
%TO.N,/spi2_clk*%
X159210000Y-98550000D02*
X159210000Y-102687735D01*
X155160000Y-93100000D02*
X155160000Y-94500000D01*
X159260000Y-102700000D02*
X159260000Y-109200000D01*
X155160000Y-94500000D02*
X159210000Y-98550000D01*
%TO.N,/spi2_miso1*%
X160260000Y-98100000D02*
X160260000Y-104700000D01*
X160260000Y-104700000D02*
X160260000Y-107200000D01*
X156160000Y-94000000D02*
X160260000Y-98100000D01*
X156060000Y-94000000D02*
X156160000Y-94000000D01*
%TO.N,/spi2_miso0*%
X161260000Y-102700000D02*
X161260000Y-97650000D01*
X161260000Y-97650000D02*
X156560000Y-92950000D01*
X161260000Y-102700000D02*
X161260000Y-109200000D01*
X156560000Y-92950000D02*
X156560000Y-91900000D01*
X156557915Y-91866783D02*
X155891132Y-91200000D01*
%TO.N,/spi2_csn*%
X162241132Y-97181132D02*
X162241132Y-104718867D01*
X162260000Y-107200000D02*
X162260000Y-104700000D01*
X159393078Y-94333078D02*
X162241132Y-97181132D01*
X159378445Y-94333078D02*
X159393078Y-94333078D01*
%TO.N,/spi2_mosi*%
X163241132Y-96681132D02*
X159760000Y-93200000D01*
X163241132Y-102718867D02*
X163241132Y-96681132D01*
X159760000Y-93200000D02*
X158760000Y-93200000D01*
X163260000Y-102700000D02*
X163260000Y-109200000D01*
%TO.N,/spi3_clk*%
X155710000Y-73700000D02*
X155710000Y-78650000D01*
X159260000Y-89200000D02*
X159260000Y-82700000D01*
X155710000Y-78650000D02*
X159260000Y-82200000D01*
X159260000Y-82200000D02*
X159260000Y-82700000D01*
%TO.N,/spi3_miso1*%
X156801589Y-78241589D02*
X160260000Y-81700000D01*
X160260000Y-81700000D02*
X160260000Y-84700000D01*
X160260000Y-87200000D02*
X160260000Y-84700000D01*
X156801589Y-74700000D02*
X156801589Y-78241589D01*
%TO.N,/spi3_miso0*%
X155910000Y-72450000D02*
X155910000Y-71566000D01*
X157760000Y-74300000D02*
X155910000Y-72450000D01*
X157760000Y-77700000D02*
X157760000Y-74300000D01*
X161260000Y-81200000D02*
X157760000Y-77700000D01*
X161260000Y-89200000D02*
X161260000Y-82700000D01*
X161260000Y-82700000D02*
X161260000Y-81200000D01*
%TO.N,/spi3_csn*%
X158760000Y-75700000D02*
X158760000Y-77200000D01*
X162260000Y-84700000D02*
X162260000Y-87200000D01*
X158760000Y-77200000D02*
X162260000Y-80700000D01*
X162260000Y-80700000D02*
X162260000Y-84700000D01*
%TO.N,/spi3_mosi*%
X160060000Y-75500000D02*
X161660000Y-75500000D01*
X164660000Y-79400000D02*
X163260000Y-80800000D01*
X162060000Y-75900000D02*
X162060000Y-77000000D01*
X163460000Y-77300000D02*
X164660000Y-78500000D01*
X164660000Y-78500000D02*
X164660000Y-79400000D01*
X163260000Y-80800000D02*
X163260000Y-82700000D01*
X158760000Y-74200000D02*
X160060000Y-75500000D01*
X162060000Y-77000000D02*
X162360000Y-77300000D01*
X161660000Y-75500000D02*
X162060000Y-75900000D01*
X163260000Y-82700000D02*
X163260000Y-89200000D01*
X162360000Y-77300000D02*
X163460000Y-77300000D01*
%TO.N,/sr_out1*%
X141260000Y-106600000D02*
X141860000Y-106000000D01*
X145210000Y-85650000D02*
X144260000Y-84700000D01*
X142560000Y-106000000D02*
X143260000Y-105300000D01*
X141860000Y-106000000D02*
X142560000Y-106000000D01*
X146210000Y-88563805D02*
X145210000Y-87563805D01*
X144331000Y-102944000D02*
X144331000Y-102315195D01*
X144331000Y-102315195D02*
X146210000Y-100436195D01*
X145210000Y-87563805D02*
X145210000Y-85650000D01*
X143260000Y-105300000D02*
X143260000Y-104015000D01*
X143260000Y-104015000D02*
X144331000Y-102944000D01*
X141260000Y-109200000D02*
X141260000Y-106600000D01*
X146210000Y-100436195D02*
X146210000Y-88563805D01*
%TO.N,/sr_out2*%
X145260000Y-67700000D02*
X145260000Y-65700000D01*
X141260000Y-86600000D02*
X141860000Y-86000000D01*
X141260000Y-89200000D02*
X141260000Y-86600000D01*
X144260000Y-82293097D02*
X146260000Y-80293097D01*
X146260000Y-68700000D02*
X145260000Y-67700000D01*
X144260000Y-83013804D02*
X144260000Y-82293097D01*
X143260000Y-84100000D02*
X144260000Y-83100000D01*
X145260000Y-65700000D02*
X144260000Y-64700000D01*
X142491902Y-86000000D02*
X143260000Y-85231902D01*
X141860000Y-86000000D02*
X142491902Y-86000000D01*
X146260000Y-80293097D02*
X146260000Y-68700000D01*
X144260000Y-83100000D02*
X144260000Y-83000000D01*
X143260000Y-85231902D02*
X143260000Y-84100000D01*
%TO.N,/sr_out3*%
X111260000Y-71200000D02*
X139260000Y-71200000D01*
X127260000Y-146800000D02*
X127260000Y-154365000D01*
X139260000Y-71200000D02*
X141260000Y-69200000D01*
X109260000Y-73200000D02*
X111260000Y-71200000D01*
X127160000Y-146700000D02*
X127260000Y-146800000D01*
%TO.N,/DAC_ThPMOS*%
X151260000Y-91100000D02*
X151260000Y-102700000D01*
X151260000Y-70750000D02*
X151260000Y-82700000D01*
X136510000Y-151150000D02*
X137260000Y-151900000D01*
X137260000Y-151900000D02*
X137260000Y-154365000D01*
X151260000Y-110750000D02*
X151260000Y-122700000D01*
D22*
%TO.N,VSSA*%
X113085000Y-150350000D02*
X112900000Y-150165000D01*
X112900000Y-146260000D02*
X127260000Y-131900000D01*
X112900000Y-150165000D02*
X112900000Y-146260000D01*
X127260000Y-131900000D02*
X127260000Y-129200000D01*
%TD*%
%TA.AperFunction,Conductor*%
%TO.N,/POW4_in*%
G36*
X109697121Y-148885002D02*
G01*
X109743614Y-148938658D01*
X109755000Y-148991000D01*
X109755000Y-149110134D01*
X109745409Y-149158352D01*
X109730697Y-149193870D01*
X109719772Y-149220246D01*
X109718695Y-149228430D01*
X109718694Y-149228432D01*
X109708689Y-149304432D01*
X109700715Y-149365000D01*
X109701793Y-149373188D01*
X109716060Y-149481556D01*
X109719772Y-149509754D01*
X109722932Y-149517383D01*
X109745409Y-149571648D01*
X109755000Y-149619866D01*
X109755000Y-150110134D01*
X109745409Y-150158352D01*
X109730697Y-150193870D01*
X109719772Y-150220246D01*
X109718695Y-150228430D01*
X109718694Y-150228432D01*
X109708689Y-150304432D01*
X109700715Y-150365000D01*
X109701793Y-150373188D01*
X109716060Y-150481556D01*
X109719772Y-150509754D01*
X109722932Y-150517383D01*
X109745409Y-150571648D01*
X109755000Y-150619866D01*
X109755000Y-151110134D01*
X109745409Y-151158352D01*
X109730697Y-151193870D01*
X109719772Y-151220246D01*
X109718695Y-151228430D01*
X109718694Y-151228432D01*
X109708689Y-151304432D01*
X109700715Y-151365000D01*
X109701793Y-151373188D01*
X109719196Y-151505377D01*
X109706491Y-151579123D01*
X109665608Y-151659188D01*
X109649390Y-151698666D01*
X109636889Y-151738036D01*
X109632781Y-151752395D01*
X109632401Y-151759484D01*
X109628018Y-151841245D01*
X109604398Y-151908197D01*
X109548331Y-151951751D01*
X109502199Y-151960500D01*
X108918320Y-151960501D01*
X108884934Y-151960501D01*
X108810699Y-151975266D01*
X108804667Y-151979297D01*
X108737627Y-151986504D01*
X108717098Y-151980476D01*
X108709301Y-151975266D01*
X108635067Y-151960500D01*
X108609979Y-151960500D01*
X108145499Y-151960501D01*
X108077379Y-151940499D01*
X108030886Y-151886844D01*
X108019500Y-151834501D01*
X108019500Y-151631937D01*
X108014514Y-151581312D01*
X108009618Y-151556699D01*
X108005527Y-151536130D01*
X108005526Y-151536128D01*
X108004923Y-151533094D01*
X107990156Y-151484413D01*
X107978941Y-151457337D01*
X107970428Y-151425568D01*
X107964619Y-151381448D01*
X107964619Y-151348552D01*
X107970428Y-151304432D01*
X107978941Y-151272663D01*
X107988973Y-151248444D01*
X107988975Y-151248437D01*
X107990156Y-151245587D01*
X108004923Y-151196906D01*
X108014514Y-151148688D01*
X108019500Y-151098063D01*
X108019500Y-150631937D01*
X108014514Y-150581312D01*
X108004923Y-150533094D01*
X107990156Y-150484413D01*
X107978941Y-150457337D01*
X107970428Y-150425568D01*
X107964619Y-150381448D01*
X107964619Y-150348552D01*
X107970428Y-150304432D01*
X107978941Y-150272663D01*
X107988973Y-150248444D01*
X107988975Y-150248437D01*
X107990156Y-150245587D01*
X108004923Y-150196906D01*
X108014514Y-150148688D01*
X108019500Y-150098063D01*
X108019500Y-149631937D01*
X108014514Y-149581312D01*
X108004923Y-149533094D01*
X107990156Y-149484413D01*
X107978941Y-149457337D01*
X107970428Y-149425568D01*
X107964619Y-149381448D01*
X107964619Y-149348552D01*
X107970428Y-149304432D01*
X107978941Y-149272663D01*
X107988973Y-149248444D01*
X107988975Y-149248437D01*
X107990156Y-149245587D01*
X108004923Y-149196906D01*
X108014514Y-149148688D01*
X108019500Y-149098063D01*
X108019500Y-148991000D01*
X108039502Y-148922879D01*
X108093158Y-148876386D01*
X108145500Y-148865000D01*
X109629000Y-148865000D01*
X109697121Y-148885002D01*
G37*
%TD.AperFunction*%
%TD*%
%TA.AperFunction,Conductor*%
%TO.N,VSSA*%
G36*
X113542621Y-148885002D02*
G01*
X113589114Y-148938658D01*
X113600500Y-148991000D01*
X113600500Y-151774000D01*
X113580498Y-151842121D01*
X113526842Y-151888614D01*
X113474500Y-151900000D01*
X112145500Y-151900000D01*
X112077379Y-151879998D01*
X112030886Y-151826342D01*
X112019500Y-151774000D01*
X112019500Y-149047567D01*
X112039502Y-148979446D01*
X112061210Y-148953912D01*
X112122875Y-148898413D01*
X112141348Y-148884624D01*
X112142645Y-148883830D01*
X112185478Y-148867389D01*
X112186972Y-148867113D01*
X112209946Y-148865000D01*
X113474500Y-148865000D01*
X113542621Y-148885002D01*
G37*
%TD.AperFunction*%
%TD*%
%TA.AperFunction,Conductor*%
%TO.N,/VDD18_in*%
G36*
X107702121Y-148885002D02*
G01*
X107748614Y-148938658D01*
X107760000Y-148991000D01*
X107760000Y-149098063D01*
X107750409Y-149146281D01*
X107722932Y-149212617D01*
X107719772Y-149220246D01*
X107700715Y-149365000D01*
X107719772Y-149509754D01*
X107722932Y-149517383D01*
X107750409Y-149583719D01*
X107760000Y-149631937D01*
X107760000Y-150098063D01*
X107750409Y-150146281D01*
X107722932Y-150212617D01*
X107719772Y-150220246D01*
X107700715Y-150365000D01*
X107719772Y-150509754D01*
X107722932Y-150517383D01*
X107750409Y-150583719D01*
X107760000Y-150631937D01*
X107760000Y-151098063D01*
X107750409Y-151146281D01*
X107722932Y-151212617D01*
X107719772Y-151220246D01*
X107700715Y-151365000D01*
X107719772Y-151509754D01*
X107722932Y-151517383D01*
X107750409Y-151583719D01*
X107760000Y-151631937D01*
X107760000Y-151834500D01*
X107739998Y-151902621D01*
X107686342Y-151949114D01*
X107634000Y-151960500D01*
X107524759Y-151960500D01*
X106884934Y-151960501D01*
X106810699Y-151975266D01*
X106804667Y-151979297D01*
X106737627Y-151986504D01*
X106717098Y-151980476D01*
X106709301Y-151975266D01*
X106635067Y-151960500D01*
X106628880Y-151960500D01*
X105995184Y-151960501D01*
X105886000Y-151960501D01*
X105817879Y-151940499D01*
X105771386Y-151886843D01*
X105760000Y-151834501D01*
X105760000Y-148991000D01*
X105780002Y-148922879D01*
X105833658Y-148876386D01*
X105886000Y-148865000D01*
X107634000Y-148865000D01*
X107702121Y-148885002D01*
G37*
%TD.AperFunction*%
%TD*%
%TA.AperFunction,Conductor*%
%TO.N,VDDA*%
G36*
X111702121Y-148885002D02*
G01*
X111748614Y-148938658D01*
X111760000Y-148991000D01*
X111760000Y-151834500D01*
X111739998Y-151902621D01*
X111686342Y-151949114D01*
X111634000Y-151960500D01*
X111524759Y-151960500D01*
X110884934Y-151960501D01*
X110810699Y-151975266D01*
X110804667Y-151979297D01*
X110737627Y-151986504D01*
X110717098Y-151980476D01*
X110709301Y-151975266D01*
X110635067Y-151960500D01*
X110599419Y-151960500D01*
X110008937Y-151960501D01*
X109940817Y-151940499D01*
X109894324Y-151886843D01*
X109884220Y-151816570D01*
X109896721Y-151777200D01*
X109968665Y-151636305D01*
X109971993Y-151629788D01*
X110013811Y-151458892D01*
X110014500Y-151447786D01*
X110014500Y-148991000D01*
X110034502Y-148922879D01*
X110088158Y-148876386D01*
X110140500Y-148865000D01*
X111634000Y-148865000D01*
X111702121Y-148885002D01*
G37*
%TD.AperFunction*%
%TD*%
%TA.AperFunction,Conductor*%
%TO.N,GND*%
G36*
X115202121Y-147885002D02*
G01*
X115248614Y-147938658D01*
X115260000Y-147991000D01*
X115260000Y-149188864D01*
X115239998Y-149256985D01*
X115187251Y-149303058D01*
X115160436Y-149315562D01*
X115160427Y-149315567D01*
X115155450Y-149317888D01*
X114982805Y-149438775D01*
X114833775Y-149587805D01*
X114712888Y-149760450D01*
X114623817Y-149951463D01*
X114622393Y-149956778D01*
X114611175Y-149998644D01*
X114611174Y-149998645D01*
X114609611Y-149998226D01*
X114609013Y-150002765D01*
X114610000Y-150003029D01*
X114569268Y-150155042D01*
X114551201Y-150361545D01*
X114550514Y-150365000D01*
X114552934Y-150377166D01*
X114552934Y-150377167D01*
X114553079Y-150377894D01*
X114555500Y-150402476D01*
X114555500Y-156374000D01*
X114535498Y-156442121D01*
X114481842Y-156488614D01*
X114429500Y-156500000D01*
X114036000Y-156500000D01*
X113967879Y-156479998D01*
X113921386Y-156426342D01*
X113910000Y-156374000D01*
X113910000Y-152200000D01*
X113909145Y-152194873D01*
X113909145Y-152194867D01*
X113861714Y-151910284D01*
X113860000Y-151889570D01*
X113860000Y-147991000D01*
X113880002Y-147922879D01*
X113933658Y-147876386D01*
X113986000Y-147865000D01*
X115134000Y-147865000D01*
X115202121Y-147885002D01*
G37*
%TD.AperFunction*%
%TD*%
%TA.AperFunction,Conductor*%
%TO.N,GND*%
G36*
X164406874Y-29083502D02*
G01*
X164446797Y-29124674D01*
X164987354Y-30025603D01*
X164989737Y-30030175D01*
X164991051Y-30034771D01*
X164995841Y-30042363D01*
X164995842Y-30042365D01*
X165027079Y-30091872D01*
X165028531Y-30094231D01*
X165042751Y-30117931D01*
X165045471Y-30121276D01*
X165048567Y-30125928D01*
X165068776Y-30157958D01*
X165075500Y-30163896D01*
X165075507Y-30163905D01*
X165084115Y-30171507D01*
X165098462Y-30186451D01*
X165111371Y-30202327D01*
X165140009Y-30222072D01*
X165151885Y-30231357D01*
X165177951Y-30254378D01*
X165196472Y-30263074D01*
X165214442Y-30273394D01*
X165231287Y-30285008D01*
X165247846Y-30290480D01*
X165264313Y-30295922D01*
X165278318Y-30301500D01*
X165309800Y-30316281D01*
X165318668Y-30317662D01*
X165318669Y-30317662D01*
X165330011Y-30319428D01*
X165350159Y-30324291D01*
X165361061Y-30327893D01*
X165361062Y-30327893D01*
X165369589Y-30330711D01*
X165391139Y-30331458D01*
X165404338Y-30331916D01*
X165410705Y-30332519D01*
X165410716Y-30332375D01*
X165415581Y-30332752D01*
X165420386Y-30333500D01*
X165447823Y-30333500D01*
X165452191Y-30333576D01*
X165506183Y-30335449D01*
X165506185Y-30335449D01*
X165515159Y-30335760D01*
X165522145Y-30333977D01*
X165531015Y-30333500D01*
X185742172Y-30333500D01*
X185810293Y-30353502D01*
X185837838Y-30377500D01*
X185908124Y-30459500D01*
X186987734Y-31719046D01*
X187019166Y-31755717D01*
X187048312Y-31820456D01*
X187049500Y-31837717D01*
X187049500Y-45084284D01*
X187029498Y-45152405D01*
X187019166Y-45166284D01*
X185837837Y-46544500D01*
X185778318Y-46583204D01*
X185742171Y-46588500D01*
X165531153Y-46588500D01*
X165526014Y-46588192D01*
X165521395Y-46586953D01*
X165454054Y-46588465D01*
X165453928Y-46588468D01*
X165451099Y-46588500D01*
X165423487Y-46588500D01*
X165419224Y-46589111D01*
X165413607Y-46589374D01*
X165375774Y-46590223D01*
X165356275Y-46596403D01*
X165336070Y-46601019D01*
X165324701Y-46602647D01*
X165324700Y-46602647D01*
X165315813Y-46603920D01*
X165284140Y-46618321D01*
X165270082Y-46623723D01*
X165236925Y-46634232D01*
X165229476Y-46639235D01*
X165219944Y-46645637D01*
X165201848Y-46655737D01*
X165191393Y-46660491D01*
X165183218Y-46664208D01*
X165176419Y-46670066D01*
X165176415Y-46670069D01*
X165156877Y-46686905D01*
X165144879Y-46696051D01*
X165123461Y-46710435D01*
X165123457Y-46710439D01*
X165116007Y-46715442D01*
X165110260Y-46722336D01*
X165110256Y-46722340D01*
X165102906Y-46731158D01*
X165088369Y-46745935D01*
X165072873Y-46759287D01*
X165067994Y-46766815D01*
X165067990Y-46766819D01*
X165053956Y-46788471D01*
X165050164Y-46793618D01*
X165050282Y-46793702D01*
X165047463Y-46797670D01*
X165044346Y-46801410D01*
X165030198Y-46824990D01*
X165027927Y-46828630D01*
X164993648Y-46881515D01*
X164991582Y-46888422D01*
X164987426Y-46896276D01*
X164446796Y-47797326D01*
X164394597Y-47845449D01*
X164338752Y-47858500D01*
X162009248Y-47858500D01*
X161941127Y-47838498D01*
X161901204Y-47797326D01*
X161360644Y-46896393D01*
X161358262Y-46891825D01*
X161356949Y-46887229D01*
X161320919Y-46830125D01*
X161319469Y-46827769D01*
X161305249Y-46804069D01*
X161302529Y-46800724D01*
X161299428Y-46796064D01*
X161284014Y-46771634D01*
X161279224Y-46764042D01*
X161272500Y-46758104D01*
X161272493Y-46758095D01*
X161263885Y-46750493D01*
X161249536Y-46735547D01*
X161245968Y-46731158D01*
X161236629Y-46719673D01*
X161207991Y-46699928D01*
X161196111Y-46690640D01*
X161176778Y-46673565D01*
X161170049Y-46667622D01*
X161151528Y-46658926D01*
X161133558Y-46648606D01*
X161124104Y-46642088D01*
X161124105Y-46642088D01*
X161116713Y-46636992D01*
X161083687Y-46626078D01*
X161069682Y-46620500D01*
X161038200Y-46605719D01*
X161029332Y-46604338D01*
X161029331Y-46604338D01*
X161017989Y-46602572D01*
X160997841Y-46597709D01*
X160986939Y-46594107D01*
X160986938Y-46594107D01*
X160978411Y-46591289D01*
X160956861Y-46590542D01*
X160943662Y-46590084D01*
X160937295Y-46589481D01*
X160937284Y-46589625D01*
X160932419Y-46589248D01*
X160927614Y-46588500D01*
X160900177Y-46588500D01*
X160895809Y-46588424D01*
X160841817Y-46586551D01*
X160841815Y-46586551D01*
X160832841Y-46586240D01*
X160825855Y-46588023D01*
X160816985Y-46588500D01*
X157204500Y-46588500D01*
X157136379Y-46568498D01*
X157089886Y-46514842D01*
X157078500Y-46462500D01*
X157078500Y-46040078D01*
X157098502Y-45971957D01*
X157152158Y-45925464D01*
X157215756Y-45914868D01*
X157218933Y-45915500D01*
X157225126Y-45915500D01*
X158094282Y-45915499D01*
X158969066Y-45915499D01*
X159004818Y-45908388D01*
X159031126Y-45903156D01*
X159031128Y-45903155D01*
X159043301Y-45900734D01*
X159053621Y-45893839D01*
X159053622Y-45893838D01*
X159117168Y-45851377D01*
X159127484Y-45844484D01*
X159183734Y-45760301D01*
X159198500Y-45686067D01*
X159198499Y-43935934D01*
X159183734Y-43861699D01*
X159127484Y-43777516D01*
X159043301Y-43721266D01*
X158969067Y-43706500D01*
X158094354Y-43706500D01*
X157218934Y-43706501D01*
X157215821Y-43707120D01*
X157147100Y-43694089D01*
X157095570Y-43645250D01*
X157078500Y-43581923D01*
X157078500Y-40582448D01*
X157098502Y-40514327D01*
X157152158Y-40467834D01*
X157222432Y-40457730D01*
X157287012Y-40487224D01*
X157292419Y-40492192D01*
X157395938Y-40593035D01*
X157564720Y-40705812D01*
X157570023Y-40708090D01*
X157570026Y-40708092D01*
X157658707Y-40746192D01*
X157751228Y-40785942D01*
X157824244Y-40802464D01*
X157943579Y-40829467D01*
X157943584Y-40829468D01*
X157949216Y-40830742D01*
X157954987Y-40830969D01*
X157954989Y-40830969D01*
X158014756Y-40833317D01*
X158152053Y-40838712D01*
X158252499Y-40824148D01*
X158347231Y-40810413D01*
X158347236Y-40810412D01*
X158352945Y-40809584D01*
X158358409Y-40807729D01*
X158358414Y-40807728D01*
X158539693Y-40746192D01*
X158539698Y-40746190D01*
X158545165Y-40744334D01*
X158722276Y-40645147D01*
X158784934Y-40593035D01*
X158873913Y-40519031D01*
X158878345Y-40515345D01*
X159008147Y-40359276D01*
X159107334Y-40182165D01*
X159109190Y-40176698D01*
X159109192Y-40176693D01*
X159170728Y-39995414D01*
X159170729Y-39995409D01*
X159172584Y-39989945D01*
X159173412Y-39984236D01*
X159173413Y-39984231D01*
X159201179Y-39792727D01*
X159201712Y-39789053D01*
X159203232Y-39731000D01*
X159184658Y-39528859D01*
X159129557Y-39333487D01*
X159052762Y-39177760D01*
X159042331Y-39156609D01*
X159039776Y-39151428D01*
X159027881Y-39135498D01*
X158962440Y-39047863D01*
X158918320Y-38988779D01*
X158769258Y-38850987D01*
X158764375Y-38847906D01*
X158764371Y-38847903D01*
X158602464Y-38745748D01*
X158597581Y-38742667D01*
X158409039Y-38667446D01*
X158403379Y-38666320D01*
X158403375Y-38666319D01*
X158215613Y-38628971D01*
X158215610Y-38628971D01*
X158209946Y-38627844D01*
X158204171Y-38627768D01*
X158204167Y-38627768D01*
X158102793Y-38626441D01*
X158006971Y-38625187D01*
X158001274Y-38626166D01*
X158001273Y-38626166D01*
X157812607Y-38658585D01*
X157806910Y-38659564D01*
X157616463Y-38729824D01*
X157442010Y-38833612D01*
X157437670Y-38837418D01*
X157437666Y-38837421D01*
X157289392Y-38967455D01*
X157288047Y-38965921D01*
X157234511Y-38997009D01*
X157163587Y-38993808D01*
X157105652Y-38952770D01*
X157079101Y-38886925D01*
X157078500Y-38874635D01*
X157078500Y-38042448D01*
X157098502Y-37974327D01*
X157152158Y-37927834D01*
X157222432Y-37917730D01*
X157287012Y-37947224D01*
X157292419Y-37952192D01*
X157395938Y-38053035D01*
X157564720Y-38165812D01*
X157570023Y-38168090D01*
X157570026Y-38168092D01*
X157745921Y-38243662D01*
X157751228Y-38245942D01*
X157824244Y-38262464D01*
X157943579Y-38289467D01*
X157943584Y-38289468D01*
X157949216Y-38290742D01*
X157954987Y-38290969D01*
X157954989Y-38290969D01*
X158014756Y-38293317D01*
X158152053Y-38298712D01*
X158252499Y-38284148D01*
X158347231Y-38270413D01*
X158347236Y-38270412D01*
X158352945Y-38269584D01*
X158358409Y-38267729D01*
X158358414Y-38267728D01*
X158539693Y-38206192D01*
X158539698Y-38206190D01*
X158545165Y-38204334D01*
X158565234Y-38193095D01*
X182587101Y-38193095D01*
X182587617Y-38199239D01*
X182595194Y-38289467D01*
X182603365Y-38386778D01*
X182656939Y-38573614D01*
X182659758Y-38579099D01*
X182742965Y-38741003D01*
X182742968Y-38741008D01*
X182745783Y-38746485D01*
X182866512Y-38898807D01*
X183014529Y-39024779D01*
X183184194Y-39119602D01*
X183369046Y-39179664D01*
X183562044Y-39202678D01*
X183568179Y-39202206D01*
X183568181Y-39202206D01*
X183749695Y-39188239D01*
X183749700Y-39188238D01*
X183755836Y-39187766D01*
X183761766Y-39186110D01*
X183761768Y-39186110D01*
X183937112Y-39137153D01*
X183937111Y-39137153D01*
X183943040Y-39135498D01*
X184116528Y-39047863D01*
X184269689Y-38928200D01*
X184273715Y-38923536D01*
X184273718Y-38923533D01*
X184392663Y-38785733D01*
X184396691Y-38781067D01*
X184399734Y-38775710D01*
X184399737Y-38775706D01*
X184461236Y-38667446D01*
X184492696Y-38612067D01*
X184554047Y-38427639D01*
X184570335Y-38298712D01*
X184577966Y-38238309D01*
X184577967Y-38238302D01*
X184578408Y-38234807D01*
X184578796Y-38207000D01*
X184559829Y-38013563D01*
X184558048Y-38007664D01*
X184558047Y-38007659D01*
X184505433Y-37833394D01*
X184503652Y-37827494D01*
X184412403Y-37655880D01*
X184366582Y-37599698D01*
X184293454Y-37510033D01*
X184293451Y-37510030D01*
X184289559Y-37505258D01*
X184283420Y-37500179D01*
X184144548Y-37385294D01*
X184144544Y-37385292D01*
X184139798Y-37381365D01*
X183968825Y-37288920D01*
X183851904Y-37252727D01*
X183789040Y-37233267D01*
X183789037Y-37233266D01*
X183783153Y-37231445D01*
X183777028Y-37230801D01*
X183777027Y-37230801D01*
X183595981Y-37211772D01*
X183595980Y-37211772D01*
X183589853Y-37211128D01*
X183509231Y-37218465D01*
X183402427Y-37228185D01*
X183402424Y-37228186D01*
X183396288Y-37228744D01*
X183390382Y-37230482D01*
X183390378Y-37230483D01*
X183314800Y-37252727D01*
X183209831Y-37283621D01*
X183204373Y-37286474D01*
X183204369Y-37286476D01*
X183194090Y-37291850D01*
X183037584Y-37373670D01*
X183032786Y-37377528D01*
X183032784Y-37377529D01*
X182961846Y-37434565D01*
X182886108Y-37495460D01*
X182761173Y-37644352D01*
X182758209Y-37649744D01*
X182758206Y-37649748D01*
X182680821Y-37790512D01*
X182667537Y-37814675D01*
X182665676Y-37820542D01*
X182665675Y-37820544D01*
X182616570Y-37975345D01*
X182608767Y-37999942D01*
X182587101Y-38193095D01*
X158565234Y-38193095D01*
X158722276Y-38105147D01*
X158784934Y-38053035D01*
X158873913Y-37979031D01*
X158878345Y-37975345D01*
X158996405Y-37833394D01*
X159004453Y-37823718D01*
X159004455Y-37823715D01*
X159008147Y-37819276D01*
X159102330Y-37651101D01*
X159104510Y-37647208D01*
X159104511Y-37647206D01*
X159107334Y-37642165D01*
X159109190Y-37636698D01*
X159109192Y-37636693D01*
X159170728Y-37455414D01*
X159170729Y-37455409D01*
X159172584Y-37449945D01*
X159173412Y-37444236D01*
X159173413Y-37444231D01*
X159195507Y-37291850D01*
X159201712Y-37249053D01*
X159203232Y-37191000D01*
X159184658Y-36988859D01*
X159129557Y-36793487D01*
X159039776Y-36611428D01*
X158918320Y-36448779D01*
X158769258Y-36310987D01*
X158764375Y-36307906D01*
X158764371Y-36307903D01*
X158602464Y-36205748D01*
X158597581Y-36202667D01*
X158409039Y-36127446D01*
X158403379Y-36126320D01*
X158403375Y-36126319D01*
X158215613Y-36088971D01*
X158215610Y-36088971D01*
X158209946Y-36087844D01*
X158204171Y-36087768D01*
X158204167Y-36087768D01*
X158102793Y-36086441D01*
X158006971Y-36085187D01*
X158001274Y-36086166D01*
X158001273Y-36086166D01*
X157812607Y-36118585D01*
X157806910Y-36119564D01*
X157616463Y-36189824D01*
X157442010Y-36293612D01*
X157437670Y-36297418D01*
X157437666Y-36297421D01*
X157289392Y-36427455D01*
X157288047Y-36425921D01*
X157234511Y-36457009D01*
X157163587Y-36453808D01*
X157105652Y-36412770D01*
X157079101Y-36346925D01*
X157078500Y-36334635D01*
X157078500Y-35502448D01*
X157098502Y-35434327D01*
X157152158Y-35387834D01*
X157222432Y-35377730D01*
X157287012Y-35407224D01*
X157292419Y-35412192D01*
X157395938Y-35513035D01*
X157564720Y-35625812D01*
X157570023Y-35628090D01*
X157570026Y-35628092D01*
X157658707Y-35666192D01*
X157751228Y-35705942D01*
X157824244Y-35722464D01*
X157943579Y-35749467D01*
X157943584Y-35749468D01*
X157949216Y-35750742D01*
X157954987Y-35750969D01*
X157954989Y-35750969D01*
X158014756Y-35753317D01*
X158152053Y-35758712D01*
X158252499Y-35744148D01*
X158347231Y-35730413D01*
X158347236Y-35730412D01*
X158352945Y-35729584D01*
X158358409Y-35727729D01*
X158358414Y-35727728D01*
X158539693Y-35666192D01*
X158539698Y-35666190D01*
X158545165Y-35664334D01*
X158722276Y-35565147D01*
X158784934Y-35513035D01*
X158873913Y-35439031D01*
X158878345Y-35435345D01*
X159008147Y-35279276D01*
X159107334Y-35102165D01*
X159109190Y-35096698D01*
X159109192Y-35096693D01*
X159170728Y-34915414D01*
X159170729Y-34915409D01*
X159172584Y-34909945D01*
X159173412Y-34904236D01*
X159173413Y-34904231D01*
X159201179Y-34712727D01*
X159201712Y-34709053D01*
X159203232Y-34651000D01*
X159184658Y-34448859D01*
X159129557Y-34253487D01*
X159039776Y-34071428D01*
X158918320Y-33908779D01*
X158769258Y-33770987D01*
X158764375Y-33767906D01*
X158764371Y-33767903D01*
X158602464Y-33665748D01*
X158597581Y-33662667D01*
X158409039Y-33587446D01*
X158403379Y-33586320D01*
X158403375Y-33586319D01*
X158215613Y-33548971D01*
X158215610Y-33548971D01*
X158209946Y-33547844D01*
X158204171Y-33547768D01*
X158204167Y-33547768D01*
X158102793Y-33546441D01*
X158006971Y-33545187D01*
X158001274Y-33546166D01*
X158001273Y-33546166D01*
X157812607Y-33578585D01*
X157806910Y-33579564D01*
X157616463Y-33649824D01*
X157442010Y-33753612D01*
X157437670Y-33757418D01*
X157437666Y-33757421D01*
X157289392Y-33887455D01*
X157288047Y-33885921D01*
X157234511Y-33917009D01*
X157163587Y-33913808D01*
X157105652Y-33872770D01*
X157079101Y-33806925D01*
X157078500Y-33794635D01*
X157078500Y-32962448D01*
X157098502Y-32894327D01*
X157152158Y-32847834D01*
X157222432Y-32837730D01*
X157287012Y-32867224D01*
X157292419Y-32872192D01*
X157395938Y-32973035D01*
X157564720Y-33085812D01*
X157570023Y-33088090D01*
X157570026Y-33088092D01*
X157658707Y-33126192D01*
X157751228Y-33165942D01*
X157824244Y-33182464D01*
X157943579Y-33209467D01*
X157943584Y-33209468D01*
X157949216Y-33210742D01*
X157954987Y-33210969D01*
X157954989Y-33210969D01*
X158014756Y-33213317D01*
X158152053Y-33218712D01*
X158252499Y-33204148D01*
X158347231Y-33190413D01*
X158347236Y-33190412D01*
X158352945Y-33189584D01*
X158358409Y-33187729D01*
X158358414Y-33187728D01*
X158539693Y-33126192D01*
X158539698Y-33126190D01*
X158545165Y-33124334D01*
X158722276Y-33025147D01*
X158784934Y-32973035D01*
X158873913Y-32899031D01*
X158878345Y-32895345D01*
X159008147Y-32739276D01*
X159107334Y-32562165D01*
X159109190Y-32556698D01*
X159109192Y-32556693D01*
X159170728Y-32375414D01*
X159170729Y-32375409D01*
X159172584Y-32369945D01*
X159173412Y-32364236D01*
X159173413Y-32364231D01*
X159201179Y-32172727D01*
X159201712Y-32169053D01*
X159203232Y-32111000D01*
X159184658Y-31908859D01*
X159129557Y-31713487D01*
X159039776Y-31531428D01*
X158918320Y-31368779D01*
X158769258Y-31230987D01*
X158764375Y-31227906D01*
X158764371Y-31227903D01*
X158602464Y-31125748D01*
X158597581Y-31122667D01*
X158409039Y-31047446D01*
X158403379Y-31046320D01*
X158403375Y-31046319D01*
X158215613Y-31008971D01*
X158215610Y-31008971D01*
X158209946Y-31007844D01*
X158204171Y-31007768D01*
X158204167Y-31007768D01*
X158102793Y-31006441D01*
X158006971Y-31005187D01*
X158001274Y-31006166D01*
X158001273Y-31006166D01*
X157812607Y-31038585D01*
X157806910Y-31039564D01*
X157616463Y-31109824D01*
X157442010Y-31213612D01*
X157437670Y-31217418D01*
X157437666Y-31217421D01*
X157289392Y-31347455D01*
X157288047Y-31345921D01*
X157234511Y-31377009D01*
X157163587Y-31373808D01*
X157105652Y-31332770D01*
X157079101Y-31266925D01*
X157078500Y-31254635D01*
X157078500Y-30459500D01*
X157098502Y-30391379D01*
X157152158Y-30344886D01*
X157204500Y-30333500D01*
X160816847Y-30333500D01*
X160821986Y-30333808D01*
X160826605Y-30335047D01*
X160894072Y-30333532D01*
X160896901Y-30333500D01*
X160924513Y-30333500D01*
X160928776Y-30332889D01*
X160934393Y-30332626D01*
X160972226Y-30331777D01*
X160991725Y-30325597D01*
X161011930Y-30320981D01*
X161014773Y-30320574D01*
X161032187Y-30318080D01*
X161040356Y-30314366D01*
X161040359Y-30314365D01*
X161063850Y-30303684D01*
X161077933Y-30298273D01*
X161102521Y-30290480D01*
X161102523Y-30290479D01*
X161111076Y-30287768D01*
X161128056Y-30276363D01*
X161146158Y-30266260D01*
X161164782Y-30257792D01*
X161191135Y-30235085D01*
X161203123Y-30225947D01*
X161224538Y-30211564D01*
X161231993Y-30206557D01*
X161245098Y-30190835D01*
X161259627Y-30176069D01*
X161268327Y-30168573D01*
X161268330Y-30168570D01*
X161275127Y-30162713D01*
X161280006Y-30155185D01*
X161280009Y-30155182D01*
X161294043Y-30133530D01*
X161297833Y-30128385D01*
X161297715Y-30128301D01*
X161300534Y-30124332D01*
X161303654Y-30120590D01*
X161317802Y-30097010D01*
X161320080Y-30093359D01*
X161320277Y-30093056D01*
X161354352Y-30040485D01*
X161356418Y-30033578D01*
X161360574Y-30025724D01*
X161901204Y-29124674D01*
X161953403Y-29076551D01*
X162009248Y-29063500D01*
X164338753Y-29063500D01*
X164406874Y-29083502D01*
G37*
%TD.AperFunction*%
%TD*%
%TA.AperFunction,Conductor*%
%TO.N,GND*%
G36*
X126999126Y-47950998D02*
G01*
X126959203Y-47909826D01*
X126418646Y-47008897D01*
X126416263Y-47004325D01*
X126414949Y-46999729D01*
X126410159Y-46992137D01*
X126410158Y-46992135D01*
X126378921Y-46942628D01*
X126377469Y-46940269D01*
X126363249Y-46916569D01*
X126360529Y-46913224D01*
X126357433Y-46908572D01*
X126337224Y-46876542D01*
X126330500Y-46870604D01*
X126330493Y-46870595D01*
X126321885Y-46862993D01*
X126307538Y-46848049D01*
X126294629Y-46832173D01*
X126265991Y-46812428D01*
X126254115Y-46803143D01*
X126228049Y-46780122D01*
X126209528Y-46771426D01*
X126191558Y-46761106D01*
X126174713Y-46749492D01*
X126158154Y-46744020D01*
X126141687Y-46738578D01*
X126127682Y-46733000D01*
X126096200Y-46718219D01*
X126087332Y-46716838D01*
X126087331Y-46716838D01*
X126075989Y-46715072D01*
X126055841Y-46710209D01*
X126044939Y-46706607D01*
X126044938Y-46706607D01*
X126036411Y-46703789D01*
X126014861Y-46703042D01*
X126001662Y-46702584D01*
X125995295Y-46701981D01*
X125995284Y-46702125D01*
X125990419Y-46701748D01*
X125985614Y-46701000D01*
X125958177Y-46701000D01*
X125953809Y-46700924D01*
X125899817Y-46699051D01*
X125899815Y-46699051D01*
X125890841Y-46698740D01*
X125883855Y-46700523D01*
X125874985Y-46701000D01*
X105663828Y-46701000D01*
X105595707Y-46680998D01*
X105568162Y-46657000D01*
X105497876Y-46575000D01*
X104418266Y-45315454D01*
X104386834Y-45278783D01*
X104357688Y-45214044D01*
X104356500Y-45196783D01*
X104356500Y-31950216D01*
X104376502Y-31882095D01*
X104386834Y-31868216D01*
X105568163Y-30490000D01*
X105627682Y-30451296D01*
X105663829Y-30446000D01*
X125874847Y-30446000D01*
X125879986Y-30446308D01*
X125884605Y-30447547D01*
X125951946Y-30446035D01*
X125952072Y-30446032D01*
X125954901Y-30446000D01*
X125982513Y-30446000D01*
X125986776Y-30445389D01*
X125992393Y-30445126D01*
X126030226Y-30444277D01*
X126049725Y-30438097D01*
X126069930Y-30433481D01*
X126081299Y-30431853D01*
X126081300Y-30431853D01*
X126090187Y-30430580D01*
X126121860Y-30416179D01*
X126135918Y-30410777D01*
X126169075Y-30400268D01*
X126176524Y-30395265D01*
X126186056Y-30388863D01*
X126204152Y-30378763D01*
X126214607Y-30374009D01*
X126222782Y-30370292D01*
X126229581Y-30364434D01*
X126229585Y-30364431D01*
X126249123Y-30347595D01*
X126261121Y-30338449D01*
X126282539Y-30324065D01*
X126282543Y-30324061D01*
X126289993Y-30319058D01*
X126295740Y-30312164D01*
X126295744Y-30312160D01*
X126303094Y-30303342D01*
X126317631Y-30288565D01*
X126333127Y-30275213D01*
X126338006Y-30267685D01*
X126338010Y-30267681D01*
X126352044Y-30246029D01*
X126355836Y-30240882D01*
X126355718Y-30240798D01*
X126358537Y-30236830D01*
X126361654Y-30233090D01*
X126375802Y-30209510D01*
X126378073Y-30205870D01*
X126412352Y-30152985D01*
X126414418Y-30146078D01*
X126418574Y-30138224D01*
X126959204Y-29237174D01*
X127011403Y-29189051D01*
X127067248Y-29176000D01*
X129396752Y-29176000D01*
X129464873Y-29196002D01*
X129504796Y-29237174D01*
X130045356Y-30138107D01*
X130047738Y-30142675D01*
X130049051Y-30147271D01*
X130085081Y-30204375D01*
X130086531Y-30206731D01*
X130100751Y-30230431D01*
X130103471Y-30233776D01*
X130106572Y-30238436D01*
X130121986Y-30262866D01*
X130126776Y-30270458D01*
X130133500Y-30276396D01*
X130133507Y-30276405D01*
X130142115Y-30284007D01*
X130156464Y-30298953D01*
X130160032Y-30303342D01*
X130169371Y-30314827D01*
X130198009Y-30334572D01*
X130209889Y-30343860D01*
X130229222Y-30360935D01*
X130235951Y-30366878D01*
X130254472Y-30375574D01*
X130272442Y-30385894D01*
X130281896Y-30392412D01*
X130281895Y-30392412D01*
X130289287Y-30397508D01*
X130322313Y-30408422D01*
X130336318Y-30414000D01*
X130367800Y-30428781D01*
X130376668Y-30430162D01*
X130376669Y-30430162D01*
X130388011Y-30431928D01*
X130408159Y-30436791D01*
X130419061Y-30440393D01*
X130419062Y-30440393D01*
X130427589Y-30443211D01*
X130449139Y-30443958D01*
X130462338Y-30444416D01*
X130468705Y-30445019D01*
X130468716Y-30444875D01*
X130473581Y-30445252D01*
X130478386Y-30446000D01*
X130505823Y-30446000D01*
X130510191Y-30446076D01*
X130564183Y-30447949D01*
X130564185Y-30447949D01*
X130573159Y-30448260D01*
X130580145Y-30446477D01*
X130589015Y-30446000D01*
X134201500Y-30446000D01*
X134269621Y-30466002D01*
X134316114Y-30519658D01*
X134327500Y-30572000D01*
X134327500Y-30994422D01*
X134307498Y-31062543D01*
X134253842Y-31109036D01*
X134190244Y-31119632D01*
X134187067Y-31119000D01*
X134180874Y-31119000D01*
X133311718Y-31119001D01*
X132436934Y-31119001D01*
X132401182Y-31126112D01*
X132374874Y-31131344D01*
X132374872Y-31131345D01*
X132362699Y-31133766D01*
X132352379Y-31140661D01*
X132352378Y-31140662D01*
X132288832Y-31183123D01*
X132278516Y-31190016D01*
X132222266Y-31274199D01*
X132207500Y-31348433D01*
X132207501Y-33098566D01*
X132222266Y-33172801D01*
X132278516Y-33256984D01*
X132362699Y-33313234D01*
X132436933Y-33328000D01*
X133311646Y-33328000D01*
X134187066Y-33327999D01*
X134190179Y-33327380D01*
X134258900Y-33340411D01*
X134310430Y-33389250D01*
X134327500Y-33452577D01*
X134327500Y-36452052D01*
X134307498Y-36520173D01*
X134253842Y-36566666D01*
X134183568Y-36576770D01*
X134118988Y-36547276D01*
X134113581Y-36542308D01*
X134010062Y-36441465D01*
X133841280Y-36328688D01*
X133835977Y-36326410D01*
X133835974Y-36326408D01*
X133747293Y-36288308D01*
X133654772Y-36248558D01*
X133581756Y-36232036D01*
X133462421Y-36205033D01*
X133462416Y-36205032D01*
X133456784Y-36203758D01*
X133451013Y-36203531D01*
X133451011Y-36203531D01*
X133391244Y-36201183D01*
X133253947Y-36195788D01*
X133153501Y-36210352D01*
X133058769Y-36224087D01*
X133058764Y-36224088D01*
X133053055Y-36224916D01*
X133047591Y-36226771D01*
X133047586Y-36226772D01*
X132866307Y-36288308D01*
X132866302Y-36288310D01*
X132860835Y-36290166D01*
X132683724Y-36389353D01*
X132621066Y-36441465D01*
X132532087Y-36515469D01*
X132527655Y-36519155D01*
X132397853Y-36675224D01*
X132298666Y-36852335D01*
X132296810Y-36857802D01*
X132296808Y-36857807D01*
X132235272Y-37039086D01*
X132235271Y-37039091D01*
X132233416Y-37044555D01*
X132232588Y-37050264D01*
X132232587Y-37050269D01*
X132204821Y-37241773D01*
X132204288Y-37245447D01*
X132202768Y-37303500D01*
X132221342Y-37505641D01*
X132276443Y-37701013D01*
X132353238Y-37856740D01*
X132363669Y-37877891D01*
X132366224Y-37883072D01*
X132378119Y-37899002D01*
X132443560Y-37986637D01*
X132487680Y-38045721D01*
X132636742Y-38183513D01*
X132641625Y-38186594D01*
X132641629Y-38186597D01*
X132803536Y-38288752D01*
X132808419Y-38291833D01*
X132996961Y-38367054D01*
X133002621Y-38368180D01*
X133002625Y-38368181D01*
X133190387Y-38405529D01*
X133190390Y-38405529D01*
X133196054Y-38406656D01*
X133201829Y-38406732D01*
X133201833Y-38406732D01*
X133303207Y-38408059D01*
X133399029Y-38409313D01*
X133404726Y-38408334D01*
X133404727Y-38408334D01*
X133593393Y-38375915D01*
X133599090Y-38374936D01*
X133789537Y-38304676D01*
X133963990Y-38200888D01*
X133968330Y-38197082D01*
X133968334Y-38197079D01*
X134116608Y-38067045D01*
X134117953Y-38068579D01*
X134171489Y-38037491D01*
X134242413Y-38040692D01*
X134300348Y-38081730D01*
X134326899Y-38147575D01*
X134327500Y-38159865D01*
X134327500Y-38992052D01*
X134307498Y-39060173D01*
X134253842Y-39106666D01*
X134183568Y-39116770D01*
X134118988Y-39087276D01*
X134113581Y-39082308D01*
X134010062Y-38981465D01*
X133841280Y-38868688D01*
X133835977Y-38866410D01*
X133835974Y-38866408D01*
X133660079Y-38790838D01*
X133654772Y-38788558D01*
X133581756Y-38772036D01*
X133462421Y-38745033D01*
X133462416Y-38745032D01*
X133456784Y-38743758D01*
X133451013Y-38743531D01*
X133451011Y-38743531D01*
X133391244Y-38741183D01*
X133253947Y-38735788D01*
X133153501Y-38750352D01*
X133058769Y-38764087D01*
X133058764Y-38764088D01*
X133053055Y-38764916D01*
X133047591Y-38766771D01*
X133047586Y-38766772D01*
X132866307Y-38828308D01*
X132866302Y-38828310D01*
X132860835Y-38830166D01*
X132840766Y-38841405D01*
X108818899Y-38841405D01*
X108818383Y-38835261D01*
X108810806Y-38745033D01*
X108802635Y-38647722D01*
X108749061Y-38460886D01*
X108746242Y-38455401D01*
X108663035Y-38293497D01*
X108663032Y-38293492D01*
X108660217Y-38288015D01*
X108539488Y-38135693D01*
X108391471Y-38009721D01*
X108221806Y-37914898D01*
X108036954Y-37854836D01*
X107843956Y-37831822D01*
X107837821Y-37832294D01*
X107837819Y-37832294D01*
X107656305Y-37846261D01*
X107656300Y-37846262D01*
X107650164Y-37846734D01*
X107644234Y-37848390D01*
X107644232Y-37848390D01*
X107468888Y-37897347D01*
X107468889Y-37897347D01*
X107462960Y-37899002D01*
X107289472Y-37986637D01*
X107136311Y-38106300D01*
X107132285Y-38110964D01*
X107132282Y-38110967D01*
X107013337Y-38248767D01*
X107009309Y-38253433D01*
X107006266Y-38258790D01*
X107006263Y-38258794D01*
X106944764Y-38367054D01*
X106913304Y-38422433D01*
X106851953Y-38606861D01*
X106835665Y-38735788D01*
X106828034Y-38796191D01*
X106828033Y-38796198D01*
X106827592Y-38799693D01*
X106827204Y-38827500D01*
X106846171Y-39020937D01*
X106847952Y-39026836D01*
X106847953Y-39026841D01*
X106900567Y-39201106D01*
X106902348Y-39207006D01*
X106993597Y-39378620D01*
X107039418Y-39434802D01*
X107112546Y-39524467D01*
X107112549Y-39524470D01*
X107116441Y-39529242D01*
X107122580Y-39534321D01*
X107261452Y-39649206D01*
X107261456Y-39649208D01*
X107266202Y-39653135D01*
X107437175Y-39745580D01*
X107554096Y-39781773D01*
X107616960Y-39801233D01*
X107616963Y-39801234D01*
X107622847Y-39803055D01*
X107628972Y-39803699D01*
X107628973Y-39803699D01*
X107810019Y-39822728D01*
X107810020Y-39822728D01*
X107816147Y-39823372D01*
X107896769Y-39816035D01*
X108003573Y-39806315D01*
X108003576Y-39806314D01*
X108009712Y-39805756D01*
X108015618Y-39804018D01*
X108015622Y-39804017D01*
X108091200Y-39781773D01*
X108196169Y-39750879D01*
X108201627Y-39748026D01*
X108201631Y-39748024D01*
X108211910Y-39742650D01*
X108368416Y-39660830D01*
X108373214Y-39656972D01*
X108373216Y-39656971D01*
X108444154Y-39599935D01*
X108519892Y-39539040D01*
X108644827Y-39390148D01*
X108647791Y-39384756D01*
X108647794Y-39384752D01*
X108725179Y-39243988D01*
X108738463Y-39219825D01*
X108740324Y-39213958D01*
X108740325Y-39213956D01*
X108789430Y-39059155D01*
X108797233Y-39034558D01*
X108818899Y-38841405D01*
X132840766Y-38841405D01*
X132683724Y-38929353D01*
X132621066Y-38981465D01*
X132532087Y-39055469D01*
X132527655Y-39059155D01*
X132409595Y-39201106D01*
X132401547Y-39210782D01*
X132401545Y-39210785D01*
X132397853Y-39215224D01*
X132303670Y-39383399D01*
X132301490Y-39387292D01*
X132301489Y-39387294D01*
X132298666Y-39392335D01*
X132296810Y-39397802D01*
X132296808Y-39397807D01*
X132235272Y-39579086D01*
X132235271Y-39579091D01*
X132233416Y-39584555D01*
X132232588Y-39590264D01*
X132232587Y-39590269D01*
X132210493Y-39742650D01*
X132204288Y-39785447D01*
X132202768Y-39843500D01*
X132221342Y-40045641D01*
X132276443Y-40241013D01*
X132366224Y-40423072D01*
X132487680Y-40585721D01*
X132636742Y-40723513D01*
X132641625Y-40726594D01*
X132641629Y-40726597D01*
X132803536Y-40828752D01*
X132808419Y-40831833D01*
X132996961Y-40907054D01*
X133002621Y-40908180D01*
X133002625Y-40908181D01*
X133190387Y-40945529D01*
X133190390Y-40945529D01*
X133196054Y-40946656D01*
X133201829Y-40946732D01*
X133201833Y-40946732D01*
X133303207Y-40948059D01*
X133399029Y-40949313D01*
X133404726Y-40948334D01*
X133404727Y-40948334D01*
X133593393Y-40915915D01*
X133599090Y-40914936D01*
X133789537Y-40844676D01*
X133963990Y-40740888D01*
X133968330Y-40737082D01*
X133968334Y-40737079D01*
X134116608Y-40607045D01*
X134117953Y-40608579D01*
X134171489Y-40577491D01*
X134242413Y-40580692D01*
X134300348Y-40621730D01*
X134326899Y-40687575D01*
X134327500Y-40699865D01*
X134327500Y-41532052D01*
X134307498Y-41600173D01*
X134253842Y-41646666D01*
X134183568Y-41656770D01*
X134118988Y-41627276D01*
X134113581Y-41622308D01*
X134010062Y-41521465D01*
X133841280Y-41408688D01*
X133835977Y-41406410D01*
X133835974Y-41406408D01*
X133747293Y-41368308D01*
X133654772Y-41328558D01*
X133581756Y-41312036D01*
X133462421Y-41285033D01*
X133462416Y-41285032D01*
X133456784Y-41283758D01*
X133451013Y-41283531D01*
X133451011Y-41283531D01*
X133391244Y-41281183D01*
X133253947Y-41275788D01*
X133153501Y-41290352D01*
X133058769Y-41304087D01*
X133058764Y-41304088D01*
X133053055Y-41304916D01*
X133047591Y-41306771D01*
X133047586Y-41306772D01*
X132866307Y-41368308D01*
X132866302Y-41368310D01*
X132860835Y-41370166D01*
X132683724Y-41469353D01*
X132621066Y-41521465D01*
X132532087Y-41595469D01*
X132527655Y-41599155D01*
X132397853Y-41755224D01*
X132298666Y-41932335D01*
X132296810Y-41937802D01*
X132296808Y-41937807D01*
X132235272Y-42119086D01*
X132235271Y-42119091D01*
X132233416Y-42124555D01*
X132232588Y-42130264D01*
X132232587Y-42130269D01*
X132204821Y-42321773D01*
X132204288Y-42325447D01*
X132202768Y-42383500D01*
X132221342Y-42585641D01*
X132276443Y-42781013D01*
X132366224Y-42963072D01*
X132487680Y-43125721D01*
X132636742Y-43263513D01*
X132641625Y-43266594D01*
X132641629Y-43266597D01*
X132803536Y-43368752D01*
X132808419Y-43371833D01*
X132996961Y-43447054D01*
X133002621Y-43448180D01*
X133002625Y-43448181D01*
X133190387Y-43485529D01*
X133190390Y-43485529D01*
X133196054Y-43486656D01*
X133201829Y-43486732D01*
X133201833Y-43486732D01*
X133303207Y-43488059D01*
X133399029Y-43489313D01*
X133404726Y-43488334D01*
X133404727Y-43488334D01*
X133593393Y-43455915D01*
X133599090Y-43454936D01*
X133789537Y-43384676D01*
X133963990Y-43280888D01*
X133968330Y-43277082D01*
X133968334Y-43277079D01*
X134116608Y-43147045D01*
X134117953Y-43148579D01*
X134171489Y-43117491D01*
X134242413Y-43120692D01*
X134300348Y-43161730D01*
X134326899Y-43227575D01*
X134327500Y-43239865D01*
X134327500Y-44072052D01*
X134307498Y-44140173D01*
X134253842Y-44186666D01*
X134183568Y-44196770D01*
X134118988Y-44167276D01*
X134113581Y-44162308D01*
X134010062Y-44061465D01*
X133841280Y-43948688D01*
X133835977Y-43946410D01*
X133835974Y-43946408D01*
X133747293Y-43908308D01*
X133654772Y-43868558D01*
X133581756Y-43852036D01*
X133462421Y-43825033D01*
X133462416Y-43825032D01*
X133456784Y-43823758D01*
X133451013Y-43823531D01*
X133451011Y-43823531D01*
X133391244Y-43821183D01*
X133253947Y-43815788D01*
X133153501Y-43830352D01*
X133058769Y-43844087D01*
X133058764Y-43844088D01*
X133053055Y-43844916D01*
X133047591Y-43846771D01*
X133047586Y-43846772D01*
X132866307Y-43908308D01*
X132866302Y-43908310D01*
X132860835Y-43910166D01*
X132683724Y-44009353D01*
X132621066Y-44061465D01*
X132532087Y-44135469D01*
X132527655Y-44139155D01*
X132397853Y-44295224D01*
X132298666Y-44472335D01*
X132296810Y-44477802D01*
X132296808Y-44477807D01*
X132235272Y-44659086D01*
X132235271Y-44659091D01*
X132233416Y-44664555D01*
X132232588Y-44670264D01*
X132232587Y-44670269D01*
X132204821Y-44861773D01*
X132204288Y-44865447D01*
X132202768Y-44923500D01*
X132221342Y-45125641D01*
X132276443Y-45321013D01*
X132366224Y-45503072D01*
X132487680Y-45665721D01*
X132636742Y-45803513D01*
X132641625Y-45806594D01*
X132641629Y-45806597D01*
X132803536Y-45908752D01*
X132808419Y-45911833D01*
X132996961Y-45987054D01*
X133002621Y-45988180D01*
X133002625Y-45988181D01*
X133190387Y-46025529D01*
X133190390Y-46025529D01*
X133196054Y-46026656D01*
X133201829Y-46026732D01*
X133201833Y-46026732D01*
X133303207Y-46028059D01*
X133399029Y-46029313D01*
X133404726Y-46028334D01*
X133404727Y-46028334D01*
X133593393Y-45995915D01*
X133599090Y-45994936D01*
X133789537Y-45924676D01*
X133963990Y-45820888D01*
X133968330Y-45817082D01*
X133968334Y-45817079D01*
X134116608Y-45687045D01*
X134117953Y-45688579D01*
X134171489Y-45657491D01*
X134242413Y-45660692D01*
X134300348Y-45701730D01*
X134326899Y-45767575D01*
X134327500Y-45779865D01*
X134327500Y-46575000D01*
X134307498Y-46643121D01*
X134253842Y-46689614D01*
X134201500Y-46701000D01*
X130589153Y-46701000D01*
X130584014Y-46700692D01*
X130579395Y-46699453D01*
X130511928Y-46700968D01*
X130509099Y-46701000D01*
X130481487Y-46701000D01*
X130477224Y-46701611D01*
X130471607Y-46701874D01*
X130433774Y-46702723D01*
X130414275Y-46708903D01*
X130394070Y-46713519D01*
X130391227Y-46713926D01*
X130373813Y-46716420D01*
X130365644Y-46720134D01*
X130365641Y-46720135D01*
X130342150Y-46730816D01*
X130328067Y-46736227D01*
X130303479Y-46744020D01*
X130303477Y-46744021D01*
X130294924Y-46746732D01*
X130277944Y-46758137D01*
X130259842Y-46768240D01*
X130241218Y-46776708D01*
X130214865Y-46799415D01*
X130202877Y-46808553D01*
X130181462Y-46822936D01*
X130174007Y-46827943D01*
X130160902Y-46843665D01*
X130146373Y-46858431D01*
X130137673Y-46865927D01*
X130137670Y-46865930D01*
X130130873Y-46871787D01*
X130125994Y-46879315D01*
X130125991Y-46879318D01*
X130111957Y-46900970D01*
X130108167Y-46906115D01*
X130108285Y-46906199D01*
X130105466Y-46910168D01*
X130102346Y-46913910D01*
X130088198Y-46937490D01*
X130085920Y-46941141D01*
X130085723Y-46941444D01*
X130051648Y-46994015D01*
X130049582Y-47000922D01*
X130045426Y-47008776D01*
X129504796Y-47909826D01*
X129452597Y-47957949D01*
X129396752Y-47971000D01*
X127067247Y-47971000D01*
X126999126Y-47950998D01*
G37*
%TD.AperFunction*%
%TD*%
M02*
