%TF.GenerationSoftware,KiCad,Pcbnew,7.0.7*%
%TF.CreationDate,2023-09-16T13:26:46-04:00*%
%TF.ProjectId,AstroPix_telescope,41737472-6f50-4697-985f-74656c657363,1.1*%
%TF.SameCoordinates,Original*%
%TF.FileFunction,Soldermask,Top*%
%TF.FilePolarity,Negative*%
%FSLAX46Y46*%
G04 Gerber Fmt 4.6, Leading zero omitted, Abs format (unit mm)*
G04 Created by KiCad (PCBNEW 7.0.7) date 2023-09-16 13:26:46*
%MOMM*%
%LPD*%
G01*
G04 APERTURE LIST*
G04 Aperture macros list*
%AMRoundRect*
0 Rectangle with rounded corners*
0 $1 Rounding radius*
0 $2 $3 $4 $5 $6 $7 $8 $9 X,Y pos of 4 corners*
0 Add a 4 corners polygon primitive as box body*
4,1,4,$2,$3,$4,$5,$6,$7,$8,$9,$2,$3,0*
0 Add four circle primitives for the rounded corners*
1,1,$1+$1,$2,$3*
1,1,$1+$1,$4,$5*
1,1,$1+$1,$6,$7*
1,1,$1+$1,$8,$9*
0 Add four rect primitives between the rounded corners*
20,1,$1+$1,$2,$3,$4,$5,0*
20,1,$1+$1,$4,$5,$6,$7,0*
20,1,$1+$1,$6,$7,$8,$9,0*
20,1,$1+$1,$8,$9,$2,$3,0*%
%AMFreePoly0*
4,1,17,1.174443,2.785355,2.785356,1.174443,2.800000,1.139088,2.800000,-1.139088,2.785356,-1.174443,1.174443,-2.785355,1.139088,-2.800000,-1.139088,-2.800000,-1.174443,-2.785356,-2.785355,-1.174443,-2.800000,-1.139088,-2.800000,1.139088,-2.785354,1.174443,-1.174443,2.785356,-1.139088,2.800000,1.139088,2.800000,1.174443,2.785355,1.174443,2.785355,$1*%
G04 Aperture macros list end*
%ADD10RoundRect,0.200000X-0.200000X-0.275000X0.200000X-0.275000X0.200000X0.275000X-0.200000X0.275000X0*%
%ADD11FreePoly0,0.000000*%
%ADD12RoundRect,0.200000X-0.275000X0.200000X-0.275000X-0.200000X0.275000X-0.200000X0.275000X0.200000X0*%
%ADD13R,0.700000X4.300000*%
%ADD14R,0.700000X3.200000*%
%ADD15C,2.350000*%
%ADD16R,1.208000X1.208000*%
%ADD17C,1.208000*%
G04 APERTURE END LIST*
D10*
%TO.C,R1*%
X140435000Y-111200000D03*
X142085000Y-111200000D03*
%TD*%
D11*
%TO.C,H2*%
X107760000Y-57365000D03*
%TD*%
D12*
%TO.C,R6*%
X137260000Y-71675000D03*
X137260000Y-73325000D03*
%TD*%
%TO.C,R4*%
X137260000Y-91175000D03*
X137260000Y-92825000D03*
%TD*%
D10*
%TO.C,R3*%
X141110000Y-91200000D03*
X142760000Y-91200000D03*
%TD*%
D12*
%TO.C,R2*%
X136260000Y-111175000D03*
X136260000Y-112825000D03*
%TD*%
D11*
%TO.C,H1*%
X183760000Y-57365000D03*
%TD*%
D13*
%TO.C,P1*%
X104260000Y-154365000D03*
X105260000Y-154365000D03*
X106260000Y-154365000D03*
X107260000Y-154365000D03*
X108260000Y-154365000D03*
X109260000Y-154365000D03*
X110260000Y-154365000D03*
X111260000Y-154365000D03*
X112260000Y-154365000D03*
X113260000Y-154365000D03*
X114260000Y-154365000D03*
X117260000Y-154365000D03*
X118260000Y-154365000D03*
X119260000Y-154365000D03*
X120260000Y-154365000D03*
X121260000Y-154365000D03*
X122260000Y-154365000D03*
X123260000Y-154365000D03*
X124260000Y-154365000D03*
X125260000Y-154365000D03*
X126260000Y-154365000D03*
X127260000Y-154365000D03*
X128260000Y-154365000D03*
X129260000Y-154365000D03*
X130260000Y-154365000D03*
X131260000Y-154365000D03*
X132260000Y-154365000D03*
X133260000Y-154365000D03*
X134260000Y-154365000D03*
X135260000Y-154365000D03*
X136260000Y-154365000D03*
X137260000Y-154365000D03*
X138260000Y-154365000D03*
X139260000Y-154365000D03*
X140260000Y-154365000D03*
X141260000Y-154365000D03*
X142260000Y-154365000D03*
X143260000Y-154365000D03*
X144260000Y-154365000D03*
X145260000Y-154365000D03*
X146260000Y-154365000D03*
X147260000Y-154365000D03*
X148260000Y-154365000D03*
X149260000Y-154365000D03*
X150260000Y-154365000D03*
X151260000Y-154365000D03*
X152260000Y-154365000D03*
X153260000Y-154365000D03*
X154260000Y-154365000D03*
X155260000Y-154365000D03*
X156260000Y-154365000D03*
X157260000Y-154365000D03*
X158260000Y-154365000D03*
X159260000Y-154365000D03*
X160260000Y-154365000D03*
X161260000Y-154365000D03*
X162260000Y-154365000D03*
X163260000Y-154365000D03*
X164260000Y-154365000D03*
X165260000Y-154365000D03*
X166260000Y-154365000D03*
X167260000Y-154365000D03*
X168260000Y-154365000D03*
X169260000Y-154365000D03*
X170260000Y-154365000D03*
X171260000Y-154365000D03*
X172260000Y-154365000D03*
X173260000Y-154365000D03*
X174260000Y-154365000D03*
X175260000Y-154365000D03*
X176260000Y-154365000D03*
X177260000Y-154365000D03*
X178260000Y-154365000D03*
X179260000Y-154365000D03*
X180260000Y-154365000D03*
X181260000Y-154365000D03*
X182260000Y-154365000D03*
X183260000Y-154365000D03*
X184260000Y-154365000D03*
X185260000Y-154365000D03*
D14*
X186260000Y-153815000D03*
D13*
X187260000Y-154365000D03*
%TD*%
D10*
%TO.C,R5*%
X142435000Y-71700000D03*
X144085000Y-71700000D03*
%TD*%
D15*
%TO.C,J4*%
X170070000Y-65950000D03*
X129910000Y-65950000D03*
D16*
X118260000Y-67200000D03*
D17*
X119260000Y-69200000D03*
X120260000Y-67200000D03*
X121260000Y-69200000D03*
X122260000Y-67200000D03*
X123260000Y-69200000D03*
X124260000Y-67200000D03*
X125260000Y-69200000D03*
X126260000Y-67200000D03*
X127260000Y-69200000D03*
X128260000Y-67200000D03*
X131260000Y-69200000D03*
X132260000Y-67200000D03*
X133260000Y-69200000D03*
X134260000Y-67200000D03*
X135260000Y-69200000D03*
X136260000Y-67200000D03*
X137260000Y-69200000D03*
X138260000Y-67200000D03*
X139260000Y-69200000D03*
X140260000Y-67200000D03*
X141260000Y-69200000D03*
X142260000Y-67200000D03*
X143260000Y-69200000D03*
X144260000Y-67200000D03*
X145260000Y-69200000D03*
X146260000Y-67200000D03*
X147260000Y-69200000D03*
X148260000Y-67200000D03*
X149260000Y-69200000D03*
X150260000Y-67200000D03*
X151260000Y-69200000D03*
X152260000Y-67200000D03*
X153260000Y-69200000D03*
X154260000Y-67200000D03*
X155260000Y-69200000D03*
X156260000Y-67200000D03*
X157260000Y-69200000D03*
X158260000Y-67200000D03*
X159260000Y-69200000D03*
X160260000Y-67200000D03*
X161260000Y-69200000D03*
X162260000Y-67200000D03*
X163260000Y-69200000D03*
X164260000Y-67200000D03*
X165260000Y-69200000D03*
X166260000Y-67200000D03*
X167260000Y-69200000D03*
X168260000Y-67200000D03*
X118260000Y-64700000D03*
X119260000Y-62700000D03*
X120260000Y-64700000D03*
X121260000Y-62700000D03*
X122260000Y-64700000D03*
X123260000Y-62700000D03*
X124260000Y-64700000D03*
X125260000Y-62700000D03*
X126260000Y-64700000D03*
X127260000Y-62700000D03*
X128260000Y-64700000D03*
X131260000Y-62700000D03*
X132260000Y-64700000D03*
X133260000Y-62700000D03*
X134260000Y-64700000D03*
X135260000Y-62700000D03*
X136260000Y-64700000D03*
X137260000Y-62700000D03*
X138260000Y-64700000D03*
X139260000Y-62700000D03*
X140260000Y-64700000D03*
X141260000Y-62700000D03*
X142260000Y-64700000D03*
X143260000Y-62700000D03*
X144260000Y-64700000D03*
X145260000Y-62700000D03*
X146260000Y-64700000D03*
X147260000Y-62700000D03*
X148260000Y-64700000D03*
X149260000Y-62700000D03*
X150260000Y-64700000D03*
X151260000Y-62700000D03*
X152260000Y-64700000D03*
X153260000Y-62700000D03*
X154260000Y-64700000D03*
X155260000Y-62700000D03*
X156260000Y-64700000D03*
X157260000Y-62700000D03*
X158260000Y-64700000D03*
X159260000Y-62700000D03*
X160260000Y-64700000D03*
X161260000Y-62700000D03*
X162260000Y-64700000D03*
X163260000Y-62700000D03*
X164260000Y-64700000D03*
X165260000Y-62700000D03*
X166260000Y-64700000D03*
X167260000Y-62700000D03*
X168260000Y-64700000D03*
%TD*%
D15*
%TO.C,J3*%
X170070000Y-85950000D03*
X129910000Y-85950000D03*
D16*
X118260000Y-87200000D03*
D17*
X119260000Y-89200000D03*
X120260000Y-87200000D03*
X121260000Y-89200000D03*
X122260000Y-87200000D03*
X123260000Y-89200000D03*
X124260000Y-87200000D03*
X125260000Y-89200000D03*
X126260000Y-87200000D03*
X127260000Y-89200000D03*
X128260000Y-87200000D03*
X131260000Y-89200000D03*
X132260000Y-87200000D03*
X133260000Y-89200000D03*
X134260000Y-87200000D03*
X135260000Y-89200000D03*
X136260000Y-87200000D03*
X137260000Y-89200000D03*
X138260000Y-87200000D03*
X139260000Y-89200000D03*
X140260000Y-87200000D03*
X141260000Y-89200000D03*
X142260000Y-87200000D03*
X143260000Y-89200000D03*
X144260000Y-87200000D03*
X145260000Y-89200000D03*
X146260000Y-87200000D03*
X147260000Y-89200000D03*
X148260000Y-87200000D03*
X149260000Y-89200000D03*
X150260000Y-87200000D03*
X151260000Y-89200000D03*
X152260000Y-87200000D03*
X153260000Y-89200000D03*
X154260000Y-87200000D03*
X155260000Y-89200000D03*
X156260000Y-87200000D03*
X157260000Y-89200000D03*
X158260000Y-87200000D03*
X159260000Y-89200000D03*
X160260000Y-87200000D03*
X161260000Y-89200000D03*
X162260000Y-87200000D03*
X163260000Y-89200000D03*
X164260000Y-87200000D03*
X165260000Y-89200000D03*
X166260000Y-87200000D03*
X167260000Y-89200000D03*
X168260000Y-87200000D03*
X118260000Y-84700000D03*
X119260000Y-82700000D03*
X120260000Y-84700000D03*
X121260000Y-82700000D03*
X122260000Y-84700000D03*
X123260000Y-82700000D03*
X124260000Y-84700000D03*
X125260000Y-82700000D03*
X126260000Y-84700000D03*
X127260000Y-82700000D03*
X128260000Y-84700000D03*
X131260000Y-82700000D03*
X132260000Y-84700000D03*
X133260000Y-82700000D03*
X134260000Y-84700000D03*
X135260000Y-82700000D03*
X136260000Y-84700000D03*
X137260000Y-82700000D03*
X138260000Y-84700000D03*
X139260000Y-82700000D03*
X140260000Y-84700000D03*
X141260000Y-82700000D03*
X142260000Y-84700000D03*
X143260000Y-82700000D03*
X144260000Y-84700000D03*
X145260000Y-82700000D03*
X146260000Y-84700000D03*
X147260000Y-82700000D03*
X148260000Y-84700000D03*
X149260000Y-82700000D03*
X150260000Y-84700000D03*
X151260000Y-82700000D03*
X152260000Y-84700000D03*
X153260000Y-82700000D03*
X154260000Y-84700000D03*
X155260000Y-82700000D03*
X156260000Y-84700000D03*
X157260000Y-82700000D03*
X158260000Y-84700000D03*
X159260000Y-82700000D03*
X160260000Y-84700000D03*
X161260000Y-82700000D03*
X162260000Y-84700000D03*
X163260000Y-82700000D03*
X164260000Y-84700000D03*
X165260000Y-82700000D03*
X166260000Y-84700000D03*
X167260000Y-82700000D03*
X168260000Y-84700000D03*
%TD*%
D15*
%TO.C,J1*%
X170070000Y-125950000D03*
X129910000Y-125950000D03*
D16*
X118260000Y-127200000D03*
D17*
X119260000Y-129200000D03*
X120260000Y-127200000D03*
X121260000Y-129200000D03*
X122260000Y-127200000D03*
X123260000Y-129200000D03*
X124260000Y-127200000D03*
X125260000Y-129200000D03*
X126260000Y-127200000D03*
X127260000Y-129200000D03*
X128260000Y-127200000D03*
X131260000Y-129200000D03*
X132260000Y-127200000D03*
X133260000Y-129200000D03*
X134260000Y-127200000D03*
X135260000Y-129200000D03*
X136260000Y-127200000D03*
X137260000Y-129200000D03*
X138260000Y-127200000D03*
X139260000Y-129200000D03*
X140260000Y-127200000D03*
X141260000Y-129200000D03*
X142260000Y-127200000D03*
X143260000Y-129200000D03*
X144260000Y-127200000D03*
X145260000Y-129200000D03*
X146260000Y-127200000D03*
X147260000Y-129200000D03*
X148260000Y-127200000D03*
X149260000Y-129200000D03*
X150260000Y-127200000D03*
X151260000Y-129200000D03*
X152260000Y-127200000D03*
X153260000Y-129200000D03*
X154260000Y-127200000D03*
X155260000Y-129200000D03*
X156260000Y-127200000D03*
X157260000Y-129200000D03*
X158260000Y-127200000D03*
X159260000Y-129200000D03*
X160260000Y-127200000D03*
X161260000Y-129200000D03*
X162260000Y-127200000D03*
X163260000Y-129200000D03*
X164260000Y-127200000D03*
X165260000Y-129200000D03*
X166260000Y-127200000D03*
X167260000Y-129200000D03*
X168260000Y-127200000D03*
X118260000Y-124700000D03*
X119260000Y-122700000D03*
X120260000Y-124700000D03*
X121260000Y-122700000D03*
X122260000Y-124700000D03*
X123260000Y-122700000D03*
X124260000Y-124700000D03*
X125260000Y-122700000D03*
X126260000Y-124700000D03*
X127260000Y-122700000D03*
X128260000Y-124700000D03*
X131260000Y-122700000D03*
X132260000Y-124700000D03*
X133260000Y-122700000D03*
X134260000Y-124700000D03*
X135260000Y-122700000D03*
X136260000Y-124700000D03*
X137260000Y-122700000D03*
X138260000Y-124700000D03*
X139260000Y-122700000D03*
X140260000Y-124700000D03*
X141260000Y-122700000D03*
X142260000Y-124700000D03*
X143260000Y-122700000D03*
X144260000Y-124700000D03*
X145260000Y-122700000D03*
X146260000Y-124700000D03*
X147260000Y-122700000D03*
X148260000Y-124700000D03*
X149260000Y-122700000D03*
X150260000Y-124700000D03*
X151260000Y-122700000D03*
X152260000Y-124700000D03*
X153260000Y-122700000D03*
X154260000Y-124700000D03*
X155260000Y-122700000D03*
X156260000Y-124700000D03*
X157260000Y-122700000D03*
X158260000Y-124700000D03*
X159260000Y-122700000D03*
X160260000Y-124700000D03*
X161260000Y-122700000D03*
X162260000Y-124700000D03*
X163260000Y-122700000D03*
X164260000Y-124700000D03*
X165260000Y-122700000D03*
X166260000Y-124700000D03*
X167260000Y-122700000D03*
X168260000Y-124700000D03*
%TD*%
D15*
%TO.C,J2*%
X170070000Y-105950000D03*
X129910000Y-105950000D03*
D16*
X118260000Y-107200000D03*
D17*
X119260000Y-109200000D03*
X120260000Y-107200000D03*
X121260000Y-109200000D03*
X122260000Y-107200000D03*
X123260000Y-109200000D03*
X124260000Y-107200000D03*
X125260000Y-109200000D03*
X126260000Y-107200000D03*
X127260000Y-109200000D03*
X128260000Y-107200000D03*
X131260000Y-109200000D03*
X132260000Y-107200000D03*
X133260000Y-109200000D03*
X134260000Y-107200000D03*
X135260000Y-109200000D03*
X136260000Y-107200000D03*
X137260000Y-109200000D03*
X138260000Y-107200000D03*
X139260000Y-109200000D03*
X140260000Y-107200000D03*
X141260000Y-109200000D03*
X142260000Y-107200000D03*
X143260000Y-109200000D03*
X144260000Y-107200000D03*
X145260000Y-109200000D03*
X146260000Y-107200000D03*
X147260000Y-109200000D03*
X148260000Y-107200000D03*
X149260000Y-109200000D03*
X150260000Y-107200000D03*
X151260000Y-109200000D03*
X152260000Y-107200000D03*
X153260000Y-109200000D03*
X154260000Y-107200000D03*
X155260000Y-109200000D03*
X156260000Y-107200000D03*
X157260000Y-109200000D03*
X158260000Y-107200000D03*
X159260000Y-109200000D03*
X160260000Y-107200000D03*
X161260000Y-109200000D03*
X162260000Y-107200000D03*
X163260000Y-109200000D03*
X164260000Y-107200000D03*
X165260000Y-109200000D03*
X166260000Y-107200000D03*
X167260000Y-109200000D03*
X168260000Y-107200000D03*
X118260000Y-104700000D03*
X119260000Y-102700000D03*
X120260000Y-104700000D03*
X121260000Y-102700000D03*
X122260000Y-104700000D03*
X123260000Y-102700000D03*
X124260000Y-104700000D03*
X125260000Y-102700000D03*
X126260000Y-104700000D03*
X127260000Y-102700000D03*
X128260000Y-104700000D03*
X131260000Y-102700000D03*
X132260000Y-104700000D03*
X133260000Y-102700000D03*
X134260000Y-104700000D03*
X135260000Y-102700000D03*
X136260000Y-104700000D03*
X137260000Y-102700000D03*
X138260000Y-104700000D03*
X139260000Y-102700000D03*
X140260000Y-104700000D03*
X141260000Y-102700000D03*
X142260000Y-104700000D03*
X143260000Y-102700000D03*
X144260000Y-104700000D03*
X145260000Y-102700000D03*
X146260000Y-104700000D03*
X147260000Y-102700000D03*
X148260000Y-104700000D03*
X149260000Y-102700000D03*
X150260000Y-104700000D03*
X151260000Y-102700000D03*
X152260000Y-104700000D03*
X153260000Y-102700000D03*
X154260000Y-104700000D03*
X155260000Y-102700000D03*
X156260000Y-104700000D03*
X157260000Y-102700000D03*
X158260000Y-104700000D03*
X159260000Y-102700000D03*
X160260000Y-104700000D03*
X161260000Y-102700000D03*
X162260000Y-104700000D03*
X163260000Y-102700000D03*
X164260000Y-104700000D03*
X165260000Y-102700000D03*
X166260000Y-104700000D03*
X167260000Y-102700000D03*
X168260000Y-104700000D03*
%TD*%
M02*
