%TF.GenerationSoftware,KiCad,Pcbnew,7.0.7*%
%TF.CreationDate,2023-09-16T13:26:49-04:00*%
%TF.ProjectId,AstroPix_telescope,41737472-6f50-4697-985f-74656c657363,1.1*%
%TF.SameCoordinates,Original*%
%TF.FileFunction,Drillmap*%
%TF.FilePolarity,Positive*%
%FSLAX45Y45*%
G04 Gerber Fmt 4.5, Leading zero omitted, Abs format (unit mm)*
G04 Created by KiCad (PCBNEW 7.0.7) date 2023-09-16 13:26:49*
%MOMM*%
%LPD*%
G01*
G04 APERTURE LIST*
%ADD10C,0.100000*%
%ADD11C,0.200000*%
%ADD12C,0.235000*%
G04 APERTURE END LIST*
D10*
X18440400Y-5232400D02*
X18796000Y-5588000D01*
X10718800Y-5232400D02*
X18440400Y-5232400D01*
X18791000Y-14941500D02*
X18796000Y-5588000D01*
X10363200Y-5537200D02*
X10718800Y-5232400D01*
X10361000Y-14941500D02*
X10363200Y-5537200D01*
D11*
D12*
X12873500Y-6477500D02*
X13108500Y-6712500D01*
X13108500Y-6477500D02*
X12873500Y-6712500D01*
X12873500Y-8477500D02*
X13108500Y-8712500D01*
X13108500Y-8477500D02*
X12873500Y-8712500D01*
X12873500Y-10477500D02*
X13108500Y-10712500D01*
X13108500Y-10477500D02*
X12873500Y-10712500D01*
X12873500Y-12477500D02*
X13108500Y-12712500D01*
X13108500Y-12477500D02*
X12873500Y-12712500D01*
X16889500Y-6477500D02*
X17124500Y-6712500D01*
X17124500Y-6477500D02*
X16889500Y-6712500D01*
X16889500Y-8477500D02*
X17124500Y-8712500D01*
X17124500Y-8477500D02*
X16889500Y-8712500D01*
X16889500Y-10477500D02*
X17124500Y-10712500D01*
X17124500Y-10477500D02*
X16889500Y-10712500D01*
X16889500Y-12477500D02*
X17124500Y-12712500D01*
X17124500Y-12477500D02*
X16889500Y-12712500D01*
D11*
X10616777Y-16097984D02*
X10616777Y-15897984D01*
X10616777Y-15897984D02*
X10664396Y-15897984D01*
X10664396Y-15897984D02*
X10692967Y-15907508D01*
X10692967Y-15907508D02*
X10712015Y-15926555D01*
X10712015Y-15926555D02*
X10721539Y-15945603D01*
X10721539Y-15945603D02*
X10731063Y-15983698D01*
X10731063Y-15983698D02*
X10731063Y-16012269D01*
X10731063Y-16012269D02*
X10721539Y-16050365D01*
X10721539Y-16050365D02*
X10712015Y-16069412D01*
X10712015Y-16069412D02*
X10692967Y-16088460D01*
X10692967Y-16088460D02*
X10664396Y-16097984D01*
X10664396Y-16097984D02*
X10616777Y-16097984D01*
X10816777Y-16097984D02*
X10816777Y-15964650D01*
X10816777Y-16002746D02*
X10826301Y-15983698D01*
X10826301Y-15983698D02*
X10835824Y-15974174D01*
X10835824Y-15974174D02*
X10854872Y-15964650D01*
X10854872Y-15964650D02*
X10873920Y-15964650D01*
X10940586Y-16097984D02*
X10940586Y-15964650D01*
X10940586Y-15897984D02*
X10931063Y-15907508D01*
X10931063Y-15907508D02*
X10940586Y-15917031D01*
X10940586Y-15917031D02*
X10950110Y-15907508D01*
X10950110Y-15907508D02*
X10940586Y-15897984D01*
X10940586Y-15897984D02*
X10940586Y-15917031D01*
X11064396Y-16097984D02*
X11045348Y-16088460D01*
X11045348Y-16088460D02*
X11035824Y-16069412D01*
X11035824Y-16069412D02*
X11035824Y-15897984D01*
X11169158Y-16097984D02*
X11150110Y-16088460D01*
X11150110Y-16088460D02*
X11140586Y-16069412D01*
X11140586Y-16069412D02*
X11140586Y-15897984D01*
X11397729Y-16097984D02*
X11397729Y-15897984D01*
X11397729Y-15897984D02*
X11464396Y-16040841D01*
X11464396Y-16040841D02*
X11531062Y-15897984D01*
X11531062Y-15897984D02*
X11531062Y-16097984D01*
X11712015Y-16097984D02*
X11712015Y-15993222D01*
X11712015Y-15993222D02*
X11702491Y-15974174D01*
X11702491Y-15974174D02*
X11683443Y-15964650D01*
X11683443Y-15964650D02*
X11645348Y-15964650D01*
X11645348Y-15964650D02*
X11626301Y-15974174D01*
X11712015Y-16088460D02*
X11692967Y-16097984D01*
X11692967Y-16097984D02*
X11645348Y-16097984D01*
X11645348Y-16097984D02*
X11626301Y-16088460D01*
X11626301Y-16088460D02*
X11616777Y-16069412D01*
X11616777Y-16069412D02*
X11616777Y-16050365D01*
X11616777Y-16050365D02*
X11626301Y-16031317D01*
X11626301Y-16031317D02*
X11645348Y-16021793D01*
X11645348Y-16021793D02*
X11692967Y-16021793D01*
X11692967Y-16021793D02*
X11712015Y-16012269D01*
X11807253Y-15964650D02*
X11807253Y-16164650D01*
X11807253Y-15974174D02*
X11826301Y-15964650D01*
X11826301Y-15964650D02*
X11864396Y-15964650D01*
X11864396Y-15964650D02*
X11883443Y-15974174D01*
X11883443Y-15974174D02*
X11892967Y-15983698D01*
X11892967Y-15983698D02*
X11902491Y-16002746D01*
X11902491Y-16002746D02*
X11902491Y-16059888D01*
X11902491Y-16059888D02*
X11892967Y-16078936D01*
X11892967Y-16078936D02*
X11883443Y-16088460D01*
X11883443Y-16088460D02*
X11864396Y-16097984D01*
X11864396Y-16097984D02*
X11826301Y-16097984D01*
X11826301Y-16097984D02*
X11807253Y-16088460D01*
X11988205Y-16078936D02*
X11997729Y-16088460D01*
X11997729Y-16088460D02*
X11988205Y-16097984D01*
X11988205Y-16097984D02*
X11978682Y-16088460D01*
X11978682Y-16088460D02*
X11988205Y-16078936D01*
X11988205Y-16078936D02*
X11988205Y-16097984D01*
X11988205Y-15974174D02*
X11997729Y-15983698D01*
X11997729Y-15983698D02*
X11988205Y-15993222D01*
X11988205Y-15993222D02*
X11978682Y-15983698D01*
X11978682Y-15983698D02*
X11988205Y-15974174D01*
X11988205Y-15974174D02*
X11988205Y-15993222D01*
X10156000Y-16326500D02*
X10356000Y-16526500D01*
X10356000Y-16326500D02*
X10156000Y-16526500D01*
X10607253Y-16337031D02*
X10616777Y-16327508D01*
X10616777Y-16327508D02*
X10635824Y-16317984D01*
X10635824Y-16317984D02*
X10683444Y-16317984D01*
X10683444Y-16317984D02*
X10702491Y-16327508D01*
X10702491Y-16327508D02*
X10712015Y-16337031D01*
X10712015Y-16337031D02*
X10721539Y-16356079D01*
X10721539Y-16356079D02*
X10721539Y-16375127D01*
X10721539Y-16375127D02*
X10712015Y-16403698D01*
X10712015Y-16403698D02*
X10597729Y-16517984D01*
X10597729Y-16517984D02*
X10721539Y-16517984D01*
X10807253Y-16498936D02*
X10816777Y-16508460D01*
X10816777Y-16508460D02*
X10807253Y-16517984D01*
X10807253Y-16517984D02*
X10797729Y-16508460D01*
X10797729Y-16508460D02*
X10807253Y-16498936D01*
X10807253Y-16498936D02*
X10807253Y-16517984D01*
X10883444Y-16317984D02*
X11007253Y-16317984D01*
X11007253Y-16317984D02*
X10940586Y-16394174D01*
X10940586Y-16394174D02*
X10969158Y-16394174D01*
X10969158Y-16394174D02*
X10988205Y-16403698D01*
X10988205Y-16403698D02*
X10997729Y-16413222D01*
X10997729Y-16413222D02*
X11007253Y-16432269D01*
X11007253Y-16432269D02*
X11007253Y-16479888D01*
X11007253Y-16479888D02*
X10997729Y-16498936D01*
X10997729Y-16498936D02*
X10988205Y-16508460D01*
X10988205Y-16508460D02*
X10969158Y-16517984D01*
X10969158Y-16517984D02*
X10912015Y-16517984D01*
X10912015Y-16517984D02*
X10892967Y-16508460D01*
X10892967Y-16508460D02*
X10883444Y-16498936D01*
X11188205Y-16317984D02*
X11092967Y-16317984D01*
X11092967Y-16317984D02*
X11083444Y-16413222D01*
X11083444Y-16413222D02*
X11092967Y-16403698D01*
X11092967Y-16403698D02*
X11112015Y-16394174D01*
X11112015Y-16394174D02*
X11159634Y-16394174D01*
X11159634Y-16394174D02*
X11178682Y-16403698D01*
X11178682Y-16403698D02*
X11188205Y-16413222D01*
X11188205Y-16413222D02*
X11197729Y-16432269D01*
X11197729Y-16432269D02*
X11197729Y-16479888D01*
X11197729Y-16479888D02*
X11188205Y-16498936D01*
X11188205Y-16498936D02*
X11178682Y-16508460D01*
X11178682Y-16508460D02*
X11159634Y-16517984D01*
X11159634Y-16517984D02*
X11112015Y-16517984D01*
X11112015Y-16517984D02*
X11092967Y-16508460D01*
X11092967Y-16508460D02*
X11083444Y-16498936D01*
X11321539Y-16317984D02*
X11340586Y-16317984D01*
X11340586Y-16317984D02*
X11359634Y-16327508D01*
X11359634Y-16327508D02*
X11369158Y-16337031D01*
X11369158Y-16337031D02*
X11378682Y-16356079D01*
X11378682Y-16356079D02*
X11388205Y-16394174D01*
X11388205Y-16394174D02*
X11388205Y-16441793D01*
X11388205Y-16441793D02*
X11378682Y-16479888D01*
X11378682Y-16479888D02*
X11369158Y-16498936D01*
X11369158Y-16498936D02*
X11359634Y-16508460D01*
X11359634Y-16508460D02*
X11340586Y-16517984D01*
X11340586Y-16517984D02*
X11321539Y-16517984D01*
X11321539Y-16517984D02*
X11302491Y-16508460D01*
X11302491Y-16508460D02*
X11292967Y-16498936D01*
X11292967Y-16498936D02*
X11283443Y-16479888D01*
X11283443Y-16479888D02*
X11273920Y-16441793D01*
X11273920Y-16441793D02*
X11273920Y-16394174D01*
X11273920Y-16394174D02*
X11283443Y-16356079D01*
X11283443Y-16356079D02*
X11292967Y-16337031D01*
X11292967Y-16337031D02*
X11302491Y-16327508D01*
X11302491Y-16327508D02*
X11321539Y-16317984D01*
X11473920Y-16517984D02*
X11473920Y-16384650D01*
X11473920Y-16403698D02*
X11483443Y-16394174D01*
X11483443Y-16394174D02*
X11502491Y-16384650D01*
X11502491Y-16384650D02*
X11531063Y-16384650D01*
X11531063Y-16384650D02*
X11550110Y-16394174D01*
X11550110Y-16394174D02*
X11559634Y-16413222D01*
X11559634Y-16413222D02*
X11559634Y-16517984D01*
X11559634Y-16413222D02*
X11569158Y-16394174D01*
X11569158Y-16394174D02*
X11588205Y-16384650D01*
X11588205Y-16384650D02*
X11616777Y-16384650D01*
X11616777Y-16384650D02*
X11635824Y-16394174D01*
X11635824Y-16394174D02*
X11645348Y-16413222D01*
X11645348Y-16413222D02*
X11645348Y-16517984D01*
X11740586Y-16517984D02*
X11740586Y-16384650D01*
X11740586Y-16403698D02*
X11750110Y-16394174D01*
X11750110Y-16394174D02*
X11769158Y-16384650D01*
X11769158Y-16384650D02*
X11797729Y-16384650D01*
X11797729Y-16384650D02*
X11816777Y-16394174D01*
X11816777Y-16394174D02*
X11826301Y-16413222D01*
X11826301Y-16413222D02*
X11826301Y-16517984D01*
X11826301Y-16413222D02*
X11835824Y-16394174D01*
X11835824Y-16394174D02*
X11854872Y-16384650D01*
X11854872Y-16384650D02*
X11883443Y-16384650D01*
X11883443Y-16384650D02*
X11902491Y-16394174D01*
X11902491Y-16394174D02*
X11912015Y-16413222D01*
X11912015Y-16413222D02*
X11912015Y-16517984D01*
X12302491Y-16308460D02*
X12131063Y-16565603D01*
X12559634Y-16317984D02*
X12578682Y-16317984D01*
X12578682Y-16317984D02*
X12597729Y-16327508D01*
X12597729Y-16327508D02*
X12607253Y-16337031D01*
X12607253Y-16337031D02*
X12616777Y-16356079D01*
X12616777Y-16356079D02*
X12626301Y-16394174D01*
X12626301Y-16394174D02*
X12626301Y-16441793D01*
X12626301Y-16441793D02*
X12616777Y-16479888D01*
X12616777Y-16479888D02*
X12607253Y-16498936D01*
X12607253Y-16498936D02*
X12597729Y-16508460D01*
X12597729Y-16508460D02*
X12578682Y-16517984D01*
X12578682Y-16517984D02*
X12559634Y-16517984D01*
X12559634Y-16517984D02*
X12540586Y-16508460D01*
X12540586Y-16508460D02*
X12531063Y-16498936D01*
X12531063Y-16498936D02*
X12521539Y-16479888D01*
X12521539Y-16479888D02*
X12512015Y-16441793D01*
X12512015Y-16441793D02*
X12512015Y-16394174D01*
X12512015Y-16394174D02*
X12521539Y-16356079D01*
X12521539Y-16356079D02*
X12531063Y-16337031D01*
X12531063Y-16337031D02*
X12540586Y-16327508D01*
X12540586Y-16327508D02*
X12559634Y-16317984D01*
X12712015Y-16498936D02*
X12721539Y-16508460D01*
X12721539Y-16508460D02*
X12712015Y-16517984D01*
X12712015Y-16517984D02*
X12702491Y-16508460D01*
X12702491Y-16508460D02*
X12712015Y-16498936D01*
X12712015Y-16498936D02*
X12712015Y-16517984D01*
X12845348Y-16317984D02*
X12864396Y-16317984D01*
X12864396Y-16317984D02*
X12883444Y-16327508D01*
X12883444Y-16327508D02*
X12892967Y-16337031D01*
X12892967Y-16337031D02*
X12902491Y-16356079D01*
X12902491Y-16356079D02*
X12912015Y-16394174D01*
X12912015Y-16394174D02*
X12912015Y-16441793D01*
X12912015Y-16441793D02*
X12902491Y-16479888D01*
X12902491Y-16479888D02*
X12892967Y-16498936D01*
X12892967Y-16498936D02*
X12883444Y-16508460D01*
X12883444Y-16508460D02*
X12864396Y-16517984D01*
X12864396Y-16517984D02*
X12845348Y-16517984D01*
X12845348Y-16517984D02*
X12826301Y-16508460D01*
X12826301Y-16508460D02*
X12816777Y-16498936D01*
X12816777Y-16498936D02*
X12807253Y-16479888D01*
X12807253Y-16479888D02*
X12797729Y-16441793D01*
X12797729Y-16441793D02*
X12797729Y-16394174D01*
X12797729Y-16394174D02*
X12807253Y-16356079D01*
X12807253Y-16356079D02*
X12816777Y-16337031D01*
X12816777Y-16337031D02*
X12826301Y-16327508D01*
X12826301Y-16327508D02*
X12845348Y-16317984D01*
X13007253Y-16517984D02*
X13045348Y-16517984D01*
X13045348Y-16517984D02*
X13064396Y-16508460D01*
X13064396Y-16508460D02*
X13073920Y-16498936D01*
X13073920Y-16498936D02*
X13092967Y-16470365D01*
X13092967Y-16470365D02*
X13102491Y-16432269D01*
X13102491Y-16432269D02*
X13102491Y-16356079D01*
X13102491Y-16356079D02*
X13092967Y-16337031D01*
X13092967Y-16337031D02*
X13083444Y-16327508D01*
X13083444Y-16327508D02*
X13064396Y-16317984D01*
X13064396Y-16317984D02*
X13026301Y-16317984D01*
X13026301Y-16317984D02*
X13007253Y-16327508D01*
X13007253Y-16327508D02*
X12997729Y-16337031D01*
X12997729Y-16337031D02*
X12988206Y-16356079D01*
X12988206Y-16356079D02*
X12988206Y-16403698D01*
X12988206Y-16403698D02*
X12997729Y-16422746D01*
X12997729Y-16422746D02*
X13007253Y-16432269D01*
X13007253Y-16432269D02*
X13026301Y-16441793D01*
X13026301Y-16441793D02*
X13064396Y-16441793D01*
X13064396Y-16441793D02*
X13083444Y-16432269D01*
X13083444Y-16432269D02*
X13092967Y-16422746D01*
X13092967Y-16422746D02*
X13102491Y-16403698D01*
X13178682Y-16337031D02*
X13188206Y-16327508D01*
X13188206Y-16327508D02*
X13207253Y-16317984D01*
X13207253Y-16317984D02*
X13254872Y-16317984D01*
X13254872Y-16317984D02*
X13273920Y-16327508D01*
X13273920Y-16327508D02*
X13283444Y-16337031D01*
X13283444Y-16337031D02*
X13292967Y-16356079D01*
X13292967Y-16356079D02*
X13292967Y-16375127D01*
X13292967Y-16375127D02*
X13283444Y-16403698D01*
X13283444Y-16403698D02*
X13169158Y-16517984D01*
X13169158Y-16517984D02*
X13292967Y-16517984D01*
X13473920Y-16317984D02*
X13378682Y-16317984D01*
X13378682Y-16317984D02*
X13369158Y-16413222D01*
X13369158Y-16413222D02*
X13378682Y-16403698D01*
X13378682Y-16403698D02*
X13397729Y-16394174D01*
X13397729Y-16394174D02*
X13445348Y-16394174D01*
X13445348Y-16394174D02*
X13464396Y-16403698D01*
X13464396Y-16403698D02*
X13473920Y-16413222D01*
X13473920Y-16413222D02*
X13483444Y-16432269D01*
X13483444Y-16432269D02*
X13483444Y-16479888D01*
X13483444Y-16479888D02*
X13473920Y-16498936D01*
X13473920Y-16498936D02*
X13464396Y-16508460D01*
X13464396Y-16508460D02*
X13445348Y-16517984D01*
X13445348Y-16517984D02*
X13397729Y-16517984D01*
X13397729Y-16517984D02*
X13378682Y-16508460D01*
X13378682Y-16508460D02*
X13369158Y-16498936D01*
X13559634Y-16317984D02*
X13559634Y-16356079D01*
X13635825Y-16317984D02*
X13635825Y-16356079D01*
X13931063Y-16594174D02*
X13921539Y-16584650D01*
X13921539Y-16584650D02*
X13902491Y-16556079D01*
X13902491Y-16556079D02*
X13892968Y-16537031D01*
X13892968Y-16537031D02*
X13883444Y-16508460D01*
X13883444Y-16508460D02*
X13873920Y-16460841D01*
X13873920Y-16460841D02*
X13873920Y-16422746D01*
X13873920Y-16422746D02*
X13883444Y-16375127D01*
X13883444Y-16375127D02*
X13892968Y-16346555D01*
X13892968Y-16346555D02*
X13902491Y-16327508D01*
X13902491Y-16327508D02*
X13921539Y-16298936D01*
X13921539Y-16298936D02*
X13931063Y-16289412D01*
X14035825Y-16403698D02*
X14016777Y-16394174D01*
X14016777Y-16394174D02*
X14007253Y-16384650D01*
X14007253Y-16384650D02*
X13997729Y-16365603D01*
X13997729Y-16365603D02*
X13997729Y-16356079D01*
X13997729Y-16356079D02*
X14007253Y-16337031D01*
X14007253Y-16337031D02*
X14016777Y-16327508D01*
X14016777Y-16327508D02*
X14035825Y-16317984D01*
X14035825Y-16317984D02*
X14073920Y-16317984D01*
X14073920Y-16317984D02*
X14092968Y-16327508D01*
X14092968Y-16327508D02*
X14102491Y-16337031D01*
X14102491Y-16337031D02*
X14112015Y-16356079D01*
X14112015Y-16356079D02*
X14112015Y-16365603D01*
X14112015Y-16365603D02*
X14102491Y-16384650D01*
X14102491Y-16384650D02*
X14092968Y-16394174D01*
X14092968Y-16394174D02*
X14073920Y-16403698D01*
X14073920Y-16403698D02*
X14035825Y-16403698D01*
X14035825Y-16403698D02*
X14016777Y-16413222D01*
X14016777Y-16413222D02*
X14007253Y-16422746D01*
X14007253Y-16422746D02*
X13997729Y-16441793D01*
X13997729Y-16441793D02*
X13997729Y-16479888D01*
X13997729Y-16479888D02*
X14007253Y-16498936D01*
X14007253Y-16498936D02*
X14016777Y-16508460D01*
X14016777Y-16508460D02*
X14035825Y-16517984D01*
X14035825Y-16517984D02*
X14073920Y-16517984D01*
X14073920Y-16517984D02*
X14092968Y-16508460D01*
X14092968Y-16508460D02*
X14102491Y-16498936D01*
X14102491Y-16498936D02*
X14112015Y-16479888D01*
X14112015Y-16479888D02*
X14112015Y-16441793D01*
X14112015Y-16441793D02*
X14102491Y-16422746D01*
X14102491Y-16422746D02*
X14092968Y-16413222D01*
X14092968Y-16413222D02*
X14073920Y-16403698D01*
X14350110Y-16517984D02*
X14350110Y-16317984D01*
X14435825Y-16517984D02*
X14435825Y-16413222D01*
X14435825Y-16413222D02*
X14426301Y-16394174D01*
X14426301Y-16394174D02*
X14407253Y-16384650D01*
X14407253Y-16384650D02*
X14378682Y-16384650D01*
X14378682Y-16384650D02*
X14359634Y-16394174D01*
X14359634Y-16394174D02*
X14350110Y-16403698D01*
X14559634Y-16517984D02*
X14540587Y-16508460D01*
X14540587Y-16508460D02*
X14531063Y-16498936D01*
X14531063Y-16498936D02*
X14521539Y-16479888D01*
X14521539Y-16479888D02*
X14521539Y-16422746D01*
X14521539Y-16422746D02*
X14531063Y-16403698D01*
X14531063Y-16403698D02*
X14540587Y-16394174D01*
X14540587Y-16394174D02*
X14559634Y-16384650D01*
X14559634Y-16384650D02*
X14588206Y-16384650D01*
X14588206Y-16384650D02*
X14607253Y-16394174D01*
X14607253Y-16394174D02*
X14616777Y-16403698D01*
X14616777Y-16403698D02*
X14626301Y-16422746D01*
X14626301Y-16422746D02*
X14626301Y-16479888D01*
X14626301Y-16479888D02*
X14616777Y-16498936D01*
X14616777Y-16498936D02*
X14607253Y-16508460D01*
X14607253Y-16508460D02*
X14588206Y-16517984D01*
X14588206Y-16517984D02*
X14559634Y-16517984D01*
X14740587Y-16517984D02*
X14721539Y-16508460D01*
X14721539Y-16508460D02*
X14712015Y-16489412D01*
X14712015Y-16489412D02*
X14712015Y-16317984D01*
X14892968Y-16508460D02*
X14873920Y-16517984D01*
X14873920Y-16517984D02*
X14835825Y-16517984D01*
X14835825Y-16517984D02*
X14816777Y-16508460D01*
X14816777Y-16508460D02*
X14807253Y-16489412D01*
X14807253Y-16489412D02*
X14807253Y-16413222D01*
X14807253Y-16413222D02*
X14816777Y-16394174D01*
X14816777Y-16394174D02*
X14835825Y-16384650D01*
X14835825Y-16384650D02*
X14873920Y-16384650D01*
X14873920Y-16384650D02*
X14892968Y-16394174D01*
X14892968Y-16394174D02*
X14902491Y-16413222D01*
X14902491Y-16413222D02*
X14902491Y-16432269D01*
X14902491Y-16432269D02*
X14807253Y-16451317D01*
X14978682Y-16508460D02*
X14997730Y-16517984D01*
X14997730Y-16517984D02*
X15035825Y-16517984D01*
X15035825Y-16517984D02*
X15054872Y-16508460D01*
X15054872Y-16508460D02*
X15064396Y-16489412D01*
X15064396Y-16489412D02*
X15064396Y-16479888D01*
X15064396Y-16479888D02*
X15054872Y-16460841D01*
X15054872Y-16460841D02*
X15035825Y-16451317D01*
X15035825Y-16451317D02*
X15007253Y-16451317D01*
X15007253Y-16451317D02*
X14988206Y-16441793D01*
X14988206Y-16441793D02*
X14978682Y-16422746D01*
X14978682Y-16422746D02*
X14978682Y-16413222D01*
X14978682Y-16413222D02*
X14988206Y-16394174D01*
X14988206Y-16394174D02*
X15007253Y-16384650D01*
X15007253Y-16384650D02*
X15035825Y-16384650D01*
X15035825Y-16384650D02*
X15054872Y-16394174D01*
X15131063Y-16594174D02*
X15140587Y-16584650D01*
X15140587Y-16584650D02*
X15159634Y-16556079D01*
X15159634Y-16556079D02*
X15169158Y-16537031D01*
X15169158Y-16537031D02*
X15178682Y-16508460D01*
X15178682Y-16508460D02*
X15188206Y-16460841D01*
X15188206Y-16460841D02*
X15188206Y-16422746D01*
X15188206Y-16422746D02*
X15178682Y-16375127D01*
X15178682Y-16375127D02*
X15169158Y-16346555D01*
X15169158Y-16346555D02*
X15159634Y-16327508D01*
X15159634Y-16327508D02*
X15140587Y-16298936D01*
X15140587Y-16298936D02*
X15131063Y-16289412D01*
X15492968Y-16594174D02*
X15483444Y-16584650D01*
X15483444Y-16584650D02*
X15464396Y-16556079D01*
X15464396Y-16556079D02*
X15454872Y-16537031D01*
X15454872Y-16537031D02*
X15445349Y-16508460D01*
X15445349Y-16508460D02*
X15435825Y-16460841D01*
X15435825Y-16460841D02*
X15435825Y-16422746D01*
X15435825Y-16422746D02*
X15445349Y-16375127D01*
X15445349Y-16375127D02*
X15454872Y-16346555D01*
X15454872Y-16346555D02*
X15464396Y-16327508D01*
X15464396Y-16327508D02*
X15483444Y-16298936D01*
X15483444Y-16298936D02*
X15492968Y-16289412D01*
X15569158Y-16384650D02*
X15569158Y-16517984D01*
X15569158Y-16403698D02*
X15578682Y-16394174D01*
X15578682Y-16394174D02*
X15597730Y-16384650D01*
X15597730Y-16384650D02*
X15626301Y-16384650D01*
X15626301Y-16384650D02*
X15645349Y-16394174D01*
X15645349Y-16394174D02*
X15654872Y-16413222D01*
X15654872Y-16413222D02*
X15654872Y-16517984D01*
X15778682Y-16517984D02*
X15759634Y-16508460D01*
X15759634Y-16508460D02*
X15750111Y-16498936D01*
X15750111Y-16498936D02*
X15740587Y-16479888D01*
X15740587Y-16479888D02*
X15740587Y-16422746D01*
X15740587Y-16422746D02*
X15750111Y-16403698D01*
X15750111Y-16403698D02*
X15759634Y-16394174D01*
X15759634Y-16394174D02*
X15778682Y-16384650D01*
X15778682Y-16384650D02*
X15807253Y-16384650D01*
X15807253Y-16384650D02*
X15826301Y-16394174D01*
X15826301Y-16394174D02*
X15835825Y-16403698D01*
X15835825Y-16403698D02*
X15845349Y-16422746D01*
X15845349Y-16422746D02*
X15845349Y-16479888D01*
X15845349Y-16479888D02*
X15835825Y-16498936D01*
X15835825Y-16498936D02*
X15826301Y-16508460D01*
X15826301Y-16508460D02*
X15807253Y-16517984D01*
X15807253Y-16517984D02*
X15778682Y-16517984D01*
X15902492Y-16384650D02*
X15978682Y-16384650D01*
X15931063Y-16317984D02*
X15931063Y-16489412D01*
X15931063Y-16489412D02*
X15940587Y-16508460D01*
X15940587Y-16508460D02*
X15959634Y-16517984D01*
X15959634Y-16517984D02*
X15978682Y-16517984D01*
X16197730Y-16384650D02*
X16197730Y-16584650D01*
X16197730Y-16394174D02*
X16216777Y-16384650D01*
X16216777Y-16384650D02*
X16254873Y-16384650D01*
X16254873Y-16384650D02*
X16273920Y-16394174D01*
X16273920Y-16394174D02*
X16283444Y-16403698D01*
X16283444Y-16403698D02*
X16292968Y-16422746D01*
X16292968Y-16422746D02*
X16292968Y-16479888D01*
X16292968Y-16479888D02*
X16283444Y-16498936D01*
X16283444Y-16498936D02*
X16273920Y-16508460D01*
X16273920Y-16508460D02*
X16254873Y-16517984D01*
X16254873Y-16517984D02*
X16216777Y-16517984D01*
X16216777Y-16517984D02*
X16197730Y-16508460D01*
X16407253Y-16517984D02*
X16388206Y-16508460D01*
X16388206Y-16508460D02*
X16378682Y-16489412D01*
X16378682Y-16489412D02*
X16378682Y-16317984D01*
X16569158Y-16517984D02*
X16569158Y-16413222D01*
X16569158Y-16413222D02*
X16559634Y-16394174D01*
X16559634Y-16394174D02*
X16540587Y-16384650D01*
X16540587Y-16384650D02*
X16502492Y-16384650D01*
X16502492Y-16384650D02*
X16483444Y-16394174D01*
X16569158Y-16508460D02*
X16550111Y-16517984D01*
X16550111Y-16517984D02*
X16502492Y-16517984D01*
X16502492Y-16517984D02*
X16483444Y-16508460D01*
X16483444Y-16508460D02*
X16473920Y-16489412D01*
X16473920Y-16489412D02*
X16473920Y-16470365D01*
X16473920Y-16470365D02*
X16483444Y-16451317D01*
X16483444Y-16451317D02*
X16502492Y-16441793D01*
X16502492Y-16441793D02*
X16550111Y-16441793D01*
X16550111Y-16441793D02*
X16569158Y-16432269D01*
X16635825Y-16384650D02*
X16712015Y-16384650D01*
X16664396Y-16317984D02*
X16664396Y-16489412D01*
X16664396Y-16489412D02*
X16673920Y-16508460D01*
X16673920Y-16508460D02*
X16692968Y-16517984D01*
X16692968Y-16517984D02*
X16712015Y-16517984D01*
X16854873Y-16508460D02*
X16835825Y-16517984D01*
X16835825Y-16517984D02*
X16797730Y-16517984D01*
X16797730Y-16517984D02*
X16778682Y-16508460D01*
X16778682Y-16508460D02*
X16769158Y-16489412D01*
X16769158Y-16489412D02*
X16769158Y-16413222D01*
X16769158Y-16413222D02*
X16778682Y-16394174D01*
X16778682Y-16394174D02*
X16797730Y-16384650D01*
X16797730Y-16384650D02*
X16835825Y-16384650D01*
X16835825Y-16384650D02*
X16854873Y-16394174D01*
X16854873Y-16394174D02*
X16864396Y-16413222D01*
X16864396Y-16413222D02*
X16864396Y-16432269D01*
X16864396Y-16432269D02*
X16769158Y-16451317D01*
X17035825Y-16517984D02*
X17035825Y-16317984D01*
X17035825Y-16508460D02*
X17016777Y-16517984D01*
X17016777Y-16517984D02*
X16978682Y-16517984D01*
X16978682Y-16517984D02*
X16959635Y-16508460D01*
X16959635Y-16508460D02*
X16950111Y-16498936D01*
X16950111Y-16498936D02*
X16940587Y-16479888D01*
X16940587Y-16479888D02*
X16940587Y-16422746D01*
X16940587Y-16422746D02*
X16950111Y-16403698D01*
X16950111Y-16403698D02*
X16959635Y-16394174D01*
X16959635Y-16394174D02*
X16978682Y-16384650D01*
X16978682Y-16384650D02*
X17016777Y-16384650D01*
X17016777Y-16384650D02*
X17035825Y-16394174D01*
X17112016Y-16594174D02*
X17121539Y-16584650D01*
X17121539Y-16584650D02*
X17140587Y-16556079D01*
X17140587Y-16556079D02*
X17150111Y-16537031D01*
X17150111Y-16537031D02*
X17159635Y-16508460D01*
X17159635Y-16508460D02*
X17169158Y-16460841D01*
X17169158Y-16460841D02*
X17169158Y-16422746D01*
X17169158Y-16422746D02*
X17159635Y-16375127D01*
X17159635Y-16375127D02*
X17150111Y-16346555D01*
X17150111Y-16346555D02*
X17140587Y-16327508D01*
X17140587Y-16327508D02*
X17121539Y-16298936D01*
X17121539Y-16298936D02*
X17112016Y-16289412D01*
M02*
