M48
INCH,TZ
T1C0.0080
T2C0.0098
T3C0.0157
T4C0.0276
T5C0.0380
T6C0.0394
T7C0.1260
%
G90
G05
T1
X41235Y-15336
X41235Y-16836
X41235Y-17736
X41285Y-12586
X41285Y-13736
X41635Y-18236
X42035Y-12186
X42435Y-13186
X42435Y-14336
X42435Y-16286
X42435Y-17386
X42985Y-14736
X42985Y-15336
X43185Y-18236
X43335Y-12186
X43735Y-14736
X43735Y-15336
X43835Y-13186
X44385Y-12186
X44685Y-17286
X44685Y-18236
X44735Y-15336
X44835Y-13186
X44835Y-14736
X45335Y-14536
X45335Y-15136
X45635Y-12186
X45885Y-12736
X45885Y-13536
X46085Y-14536
X46085Y-15136
X46635Y-14936
X46854Y-17535
X46885Y-15486
X46885Y-16486
X46935Y-13086
X46935Y-18236
X47185Y-12186
X47585Y-13936
X47835Y-13086
X48685Y-15486
X48685Y-17336
X48685Y-18236
X48735Y-14186
X48735Y-14786
X48835Y-12186
X49185Y-15286
X49785Y-15136
X49785Y-15886
X49785Y-17186
X49835Y-14486
X50085Y-11636
X50085Y-18736
X50398Y-14386
X50398Y-14976
X50485Y-12186
X50485Y-17886
X50885Y-11636
X50885Y-18736
X51585Y-12136
X51585Y-13286
X51585Y-14386
X51585Y-14986
X51585Y-16186
X51585Y-17186
X51585Y-18236
X63142Y-12092
X63142Y-13142
X63142Y-14142
X63142Y-15342
X63142Y-15942
X63142Y-17042
X63142Y-18192
X63842Y-11592
X63842Y-18692
X64242Y-12442
X64242Y-18142
X64329Y-15352
X64329Y-15943
X64642Y-11592
X64642Y-18692
X64892Y-15842
X64942Y-13142
X64942Y-14442
X64942Y-15192
X65542Y-15042
X65892Y-18142
X65992Y-15542
X65992Y-16142
X66042Y-12092
X66042Y-12992
X66042Y-14842
X66892Y-17242
X67142Y-16392
X67542Y-18142
X67792Y-12092
X67792Y-17242
X67842Y-13842
X67842Y-14842
X67872Y-12793
X68092Y-15392
X68642Y-15192
X68642Y-15792
X68842Y-16792
X68842Y-17592
X69092Y-18142
X69392Y-15192
X69392Y-15792
X69892Y-15592
X69892Y-17142
X69992Y-14992
X70042Y-12092
X70042Y-13042
X70342Y-18142
X70892Y-17142
X70992Y-14992
X70992Y-15592
X71392Y-18142
X71542Y-12092
X71742Y-14992
X71742Y-15592
X72292Y-12942
X72292Y-14042
X72292Y-15992
X72292Y-17142
X72692Y-18142
X73092Y-12092
X73442Y-16592
X73442Y-17742
X73492Y-12592
X73492Y-13492
X73492Y-14992
T2
X41441Y-30433
X41441Y-38858
X41441Y-46535
X41835Y-29951
X41835Y-38661
X41835Y-46339
X41835Y-58805
X41835Y-59199
X41835Y-59593
X42228Y-29606
X42228Y-38465
X42228Y-45945
X42228Y-58805
X42228Y-59199
X42228Y-59593
X42622Y-29213
X42622Y-38255
X42622Y-45616
X42622Y-58805
X42622Y-59199
X42622Y-59593
X43016Y-28819
X43016Y-58805
X43016Y-59199
X43016Y-59593
X43409Y-29100
X43409Y-37677
X43409Y-58805
X43409Y-59199
X43409Y-59593
X43429Y-23825
X43803Y-28622
X43803Y-36299
X43803Y-43976
X43803Y-58805
X43803Y-59199
X43803Y-59593
X44000Y-22717
X44197Y-29016
X44197Y-36640
X44197Y-44370
X44246Y-59203
X44246Y-59587
X44256Y-58799
X44394Y-22321
X44581Y-59203
X44581Y-59587
X44591Y-29311
X44591Y-36988
X44591Y-44764
X44591Y-58799
X44827Y-21929
X44965Y-58419
X44965Y-58799
X44965Y-59193
X44965Y-59587
X45280Y-21634
X50063Y-57756
X50496Y-56772
X50904Y-56441
X51442Y-56143
X53646Y-44961
X54039Y-29458
X54039Y-36969
X56402Y-43780
X56647Y-35906
X57189Y-28228
X61087Y-36654
X61126Y-44403
X61303Y-29016
X61374Y-35906
X61382Y-28176
X61394Y-43780
X61441Y-37008
X61520Y-44659
X61733Y-29409
X62307Y-44159
X62346Y-44723
X62504Y-29213
X62504Y-29803
X62504Y-36693
X62747Y-37139
T3
X41047Y-59528
X53744Y-59508
X59551Y-27854
X59551Y-35866
X59551Y-43602
T4
X46559Y-25472
X46559Y-26457
X46559Y-33346
X46559Y-34331
X46559Y-41220
X46559Y-42205
X46559Y-49094
X46559Y-50079
X46953Y-24685
X46953Y-27244
X46953Y-32559
X46953Y-35118
X46953Y-40433
X46953Y-42992
X46953Y-48307
X46953Y-50866
X47346Y-25472
X47346Y-26457
X47346Y-33346
X47346Y-34331
X47346Y-41220
X47346Y-42205
X47346Y-49094
X47346Y-50079
X47740Y-24685
X47740Y-27244
X47740Y-32559
X47740Y-35118
X47740Y-40433
X47740Y-42992
X47740Y-48307
X47740Y-50866
X48134Y-25472
X48134Y-26457
X48134Y-33346
X48134Y-34331
X48134Y-41220
X48134Y-42205
X48134Y-49094
X48134Y-50079
X48528Y-24685
X48528Y-27244
X48528Y-32559
X48528Y-35118
X48528Y-40433
X48528Y-42992
X48528Y-48307
X48528Y-50866
X48921Y-25472
X48921Y-26457
X48921Y-33346
X48921Y-34331
X48921Y-41220
X48921Y-42205
X48921Y-49094
X48921Y-50079
X49315Y-24685
X49315Y-27244
X49315Y-32559
X49315Y-35118
X49315Y-40433
X49315Y-42992
X49315Y-48307
X49315Y-50866
X49709Y-25472
X49709Y-26457
X49709Y-33346
X49709Y-34331
X49709Y-41220
X49709Y-42205
X49709Y-49094
X49709Y-50079
X50102Y-24685
X50102Y-27244
X50102Y-32559
X50102Y-35118
X50102Y-40433
X50102Y-42992
X50102Y-48307
X50102Y-50866
X50496Y-25472
X50496Y-26457
X50496Y-33346
X50496Y-34331
X50496Y-41220
X50496Y-42205
X50496Y-49094
X50496Y-50079
X51677Y-24685
X51677Y-27244
X51677Y-32559
X51677Y-35118
X51677Y-40433
X51677Y-42992
X51677Y-48307
X51677Y-50866
X52071Y-25472
X52071Y-26457
X52071Y-33346
X52071Y-34331
X52071Y-41220
X52071Y-42205
X52071Y-49094
X52071Y-50079
X52465Y-24685
X52465Y-27244
X52465Y-32559
X52465Y-35118
X52465Y-40433
X52465Y-42992
X52465Y-48307
X52465Y-50866
X52858Y-25472
X52858Y-26457
X52858Y-33346
X52858Y-34331
X52858Y-41220
X52858Y-42205
X52858Y-49094
X52858Y-50079
X53252Y-24685
X53252Y-27244
X53252Y-32559
X53252Y-35118
X53252Y-40433
X53252Y-42992
X53252Y-48307
X53252Y-50866
X53646Y-25472
X53646Y-26457
X53646Y-33346
X53646Y-34331
X53646Y-41220
X53646Y-42205
X53646Y-49094
X53646Y-50079
X54039Y-24685
X54039Y-27244
X54039Y-32559
X54039Y-35118
X54039Y-40433
X54039Y-42992
X54039Y-48307
X54039Y-50866
X54433Y-25472
X54433Y-26457
X54433Y-33346
X54433Y-34331
X54433Y-41220
X54433Y-42205
X54433Y-49094
X54433Y-50079
X54827Y-24685
X54827Y-27244
X54827Y-32559
X54827Y-35118
X54827Y-40433
X54827Y-42992
X54827Y-48307
X54827Y-50866
X55220Y-25472
X55220Y-26457
X55220Y-33346
X55220Y-34331
X55220Y-41220
X55220Y-42205
X55220Y-49094
X55220Y-50079
X55614Y-24685
X55614Y-27244
X55614Y-32559
X55614Y-35118
X55614Y-40433
X55614Y-42992
X55614Y-48307
X55614Y-50866
X56008Y-25472
X56008Y-26457
X56008Y-33346
X56008Y-34331
X56008Y-41220
X56008Y-42205
X56008Y-49094
X56008Y-50079
X56402Y-24685
X56402Y-27244
X56402Y-32559
X56402Y-35118
X56402Y-40433
X56402Y-42992
X56402Y-48307
X56402Y-50866
X56795Y-25472
X56795Y-26457
X56795Y-33346
X56795Y-34331
X56795Y-41220
X56795Y-42205
X56795Y-49094
X56795Y-50079
X57189Y-24685
X57189Y-27244
X57189Y-32559
X57189Y-35118
X57189Y-40433
X57189Y-42992
X57189Y-48307
X57189Y-50866
X57583Y-25472
X57583Y-26457
X57583Y-33346
X57583Y-34331
X57583Y-41220
X57583Y-42205
X57583Y-49094
X57583Y-50079
X57976Y-24685
X57976Y-27244
X57976Y-32559
X57976Y-35118
X57976Y-40433
X57976Y-42992
X57976Y-48307
X57976Y-50866
X58370Y-25472
X58370Y-26457
X58370Y-33346
X58370Y-34331
X58370Y-41220
X58370Y-42205
X58370Y-49094
X58370Y-50079
X58764Y-24685
X58764Y-27244
X58764Y-32559
X58764Y-35118
X58764Y-40433
X58764Y-42992
X58764Y-48307
X58764Y-50866
X59157Y-25472
X59157Y-26457
X59157Y-33346
X59157Y-34331
X59157Y-41220
X59157Y-42205
X59157Y-49094
X59157Y-50079
X59551Y-24685
X59551Y-27244
X59551Y-32559
X59551Y-35118
X59551Y-40433
X59551Y-42992
X59551Y-48307
X59551Y-50866
X59945Y-25472
X59945Y-26457
X59945Y-33346
X59945Y-34331
X59945Y-41220
X59945Y-42205
X59945Y-49094
X59945Y-50079
X60339Y-24685
X60339Y-27244
X60339Y-32559
X60339Y-35118
X60339Y-40433
X60339Y-42992
X60339Y-48307
X60339Y-50866
X60732Y-25472
X60732Y-26457
X60732Y-33346
X60732Y-34331
X60732Y-41220
X60732Y-42205
X60732Y-49094
X60732Y-50079
X61126Y-24685
X61126Y-27244
X61126Y-32559
X61126Y-35118
X61126Y-40433
X61126Y-42992
X61126Y-48307
X61126Y-50866
X61520Y-25472
X61520Y-26457
X61520Y-33346
X61520Y-34331
X61520Y-41220
X61520Y-42205
X61520Y-49094
X61520Y-50079
X61913Y-24685
X61913Y-27244
X61913Y-32559
X61913Y-35118
X61913Y-40433
X61913Y-42992
X61913Y-48307
X61913Y-50866
X62307Y-25472
X62307Y-26457
X62307Y-33346
X62307Y-34331
X62307Y-41220
X62307Y-42205
X62307Y-49094
X62307Y-50079
X62701Y-24685
X62701Y-27244
X62701Y-32559
X62701Y-35118
X62701Y-40433
X62701Y-42992
X62701Y-48307
X62701Y-50866
X63094Y-25472
X63094Y-26457
X63094Y-33346
X63094Y-34331
X63094Y-41220
X63094Y-42205
X63094Y-49094
X63094Y-50079
X63488Y-24685
X63488Y-27244
X63488Y-32559
X63488Y-35118
X63488Y-40433
X63488Y-42992
X63488Y-48307
X63488Y-50866
X63882Y-25472
X63882Y-26457
X63882Y-33346
X63882Y-34331
X63882Y-41220
X63882Y-42205
X63882Y-49094
X63882Y-50079
X64276Y-24685
X64276Y-27244
X64276Y-32559
X64276Y-35118
X64276Y-40433
X64276Y-42992
X64276Y-48307
X64276Y-50866
X64669Y-25472
X64669Y-26457
X64669Y-33346
X64669Y-34331
X64669Y-41220
X64669Y-42205
X64669Y-49094
X64669Y-50079
X65063Y-24685
X65063Y-27244
X65063Y-32559
X65063Y-35118
X65063Y-40433
X65063Y-42992
X65063Y-48307
X65063Y-50866
X65457Y-25472
X65457Y-26457
X65457Y-33346
X65457Y-34331
X65457Y-41220
X65457Y-42205
X65457Y-49094
X65457Y-50079
X65850Y-24685
X65850Y-27244
X65850Y-32559
X65850Y-35118
X65850Y-40433
X65850Y-42992
X65850Y-48307
X65850Y-50866
X66244Y-25472
X66244Y-26457
X66244Y-33346
X66244Y-34331
X66244Y-41220
X66244Y-42205
X66244Y-49094
X66244Y-50079
T5
X41450Y-14286
X41450Y-16286
X42450Y-15286
X43450Y-14286
X43450Y-16286
X71277Y-14042
X71277Y-16042
X72277Y-15042
X73277Y-14042
X73277Y-16042
T6
X52485Y-12686
X52485Y-13686
X52485Y-14686
X52485Y-15686
X52485Y-16686
X52485Y-17686
X62242Y-12642
X62242Y-13642
X62242Y-14642
X62242Y-15642
X62242Y-16642
X62242Y-17642
T7
X42425Y-22585
X72346Y-22585
T0
M30
