%TF.GenerationSoftware,KiCad,Pcbnew,7.0.7*%
%TF.CreationDate,2023-09-16T13:26:46-04:00*%
%TF.ProjectId,AstroPix_telescope,41737472-6f50-4697-985f-74656c657363,1.1*%
%TF.SameCoordinates,Original*%
%TF.FileFunction,Copper,L1,Top*%
%TF.FilePolarity,Positive*%
%FSLAX46Y46*%
G04 Gerber Fmt 4.6, Leading zero omitted, Abs format (unit mm)*
G04 Created by KiCad (PCBNEW 7.0.7) date 2023-09-16 13:26:46*
%MOMM*%
%LPD*%
G01*
G04 APERTURE LIST*
G04 Aperture macros list*
%AMRoundRect*
0 Rectangle with rounded corners*
0 $1 Rounding radius*
0 $2 $3 $4 $5 $6 $7 $8 $9 X,Y pos of 4 corners*
0 Add a 4 corners polygon primitive as box body*
4,1,4,$2,$3,$4,$5,$6,$7,$8,$9,$2,$3,0*
0 Add four circle primitives for the rounded corners*
1,1,$1+$1,$2,$3*
1,1,$1+$1,$4,$5*
1,1,$1+$1,$6,$7*
1,1,$1+$1,$8,$9*
0 Add four rect primitives between the rounded corners*
20,1,$1+$1,$2,$3,$4,$5,0*
20,1,$1+$1,$4,$5,$6,$7,0*
20,1,$1+$1,$6,$7,$8,$9,0*
20,1,$1+$1,$8,$9,$2,$3,0*%
%AMFreePoly0*
4,1,17,1.174443,2.785355,2.785356,1.174443,2.800000,1.139088,2.800000,-1.139088,2.785356,-1.174443,1.174443,-2.785355,1.139088,-2.800000,-1.139088,-2.800000,-1.174443,-2.785356,-2.785355,-1.174443,-2.800000,-1.139088,-2.800000,1.139088,-2.785354,1.174443,-1.174443,2.785356,-1.139088,2.800000,1.139088,2.800000,1.174443,2.785355,1.174443,2.785355,$1*%
G04 Aperture macros list end*
%TA.AperFunction,SMDPad,CuDef*%
%ADD10RoundRect,0.200000X-0.200000X-0.275000X0.200000X-0.275000X0.200000X0.275000X-0.200000X0.275000X0*%
%TD*%
%TA.AperFunction,ComponentPad*%
%ADD11FreePoly0,0.000000*%
%TD*%
%TA.AperFunction,SMDPad,CuDef*%
%ADD12RoundRect,0.200000X-0.275000X0.200000X-0.275000X-0.200000X0.275000X-0.200000X0.275000X0.200000X0*%
%TD*%
%TA.AperFunction,ConnectorPad*%
%ADD13R,0.700000X4.300000*%
%TD*%
%TA.AperFunction,ConnectorPad*%
%ADD14R,0.700000X3.200000*%
%TD*%
%TA.AperFunction,ComponentPad*%
%ADD15R,1.208000X1.208000*%
%TD*%
%TA.AperFunction,ComponentPad*%
%ADD16C,1.208000*%
%TD*%
%TA.AperFunction,ViaPad*%
%ADD17C,0.600000*%
%TD*%
%TA.AperFunction,ViaPad*%
%ADD18C,0.800000*%
%TD*%
%TA.AperFunction,Conductor*%
%ADD19C,0.250000*%
%TD*%
%TA.AperFunction,Conductor*%
%ADD20C,1.000000*%
%TD*%
%TA.AperFunction,Conductor*%
%ADD21C,0.200000*%
%TD*%
G04 APERTURE END LIST*
D10*
%TO.P,R1,1*%
%TO.N,/spi1_miso0*%
X140435000Y-111200000D03*
%TO.P,R1,2*%
%TO.N,GND*%
X142085000Y-111200000D03*
%TD*%
D11*
%TO.P,H2,1*%
%TO.N,N/C*%
X107760000Y-57365000D03*
%TD*%
D12*
%TO.P,R6,1*%
%TO.N,/spi3_miso1*%
X137260000Y-71675000D03*
%TO.P,R6,2*%
%TO.N,GND*%
X137260000Y-73325000D03*
%TD*%
%TO.P,R4,1*%
%TO.N,/spi2_miso1*%
X137260000Y-91175000D03*
%TO.P,R4,2*%
%TO.N,GND*%
X137260000Y-92825000D03*
%TD*%
D10*
%TO.P,R3,1*%
%TO.N,/spi2_miso0*%
X141110000Y-91200000D03*
%TO.P,R3,2*%
%TO.N,GND*%
X142760000Y-91200000D03*
%TD*%
D12*
%TO.P,R2,1*%
%TO.N,/spi1_miso1*%
X136260000Y-111175000D03*
%TO.P,R2,2*%
%TO.N,GND*%
X136260000Y-112825000D03*
%TD*%
D11*
%TO.P,H1,1*%
%TO.N,N/C*%
X183760000Y-57365000D03*
%TD*%
D13*
%TO.P,P1,B1,HV*%
%TO.N,-HV*%
X104260000Y-154365000D03*
%TO.P,P1,B2*%
%TO.N,N/C*%
X105260000Y-154365000D03*
%TO.P,P1,B3,VDD18*%
%TO.N,/VDD18_in*%
X106260000Y-154365000D03*
%TO.P,P1,B4,VDD18*%
X107260000Y-154365000D03*
%TO.P,P1,B5,POW4*%
%TO.N,/POW4_in*%
X108260000Y-154365000D03*
%TO.P,P1,B6,POW4*%
X109260000Y-154365000D03*
%TO.P,P1,B7,POW6*%
%TO.N,VDDA*%
X110260000Y-154365000D03*
%TO.P,P1,B8,POW6*%
X111260000Y-154365000D03*
%TO.P,P1,B9,POW8*%
%TO.N,VSSA*%
X112260000Y-154365000D03*
%TO.P,P1,B10,POW8*%
X113260000Y-154365000D03*
%TO.P,P1,B11,GND*%
%TO.N,GND*%
X114260000Y-154365000D03*
%TO.P,P1,B12,C1_4*%
%TO.N,unconnected-(P1-PadB12)*%
X117260000Y-154365000D03*
%TO.P,P1,B13,C1_3*%
%TO.N,unconnected-(P1-PadB13)*%
X118260000Y-154365000D03*
%TO.P,P1,B14,C1_8*%
%TO.N,unconnected-(P1-PadB14)*%
X119260000Y-154365000D03*
%TO.P,P1,B15,C1_7*%
%TO.N,unconnected-(P1-PadB15)*%
X120260000Y-154365000D03*
%TO.P,P1,B16,FMC_LA24_P*%
%TO.N,/sample_clock_se_P*%
X121260000Y-154365000D03*
%TO.P,P1,B17,FMC_LA24_N*%
%TO.N,/sample_clock_se_N*%
X122260000Y-154365000D03*
%TO.P,P1,B18,FMC_LA22_P*%
%TO.N,/sample_clk1_P*%
X123260000Y-154365000D03*
%TO.P,P1,B19,FMC_LA22_N*%
%TO.N,/sample_clk1_N*%
X124260000Y-154365000D03*
%TO.P,P1,B20,FMC_LA20_P*%
%TO.N,/hold*%
X125260000Y-154365000D03*
%TO.P,P1,B21,FMC_LA20_N*%
%TO.N,/timestamp_clk*%
X126260000Y-154365000D03*
%TO.P,P1,B22,FMC_LA18_CC_P*%
%TO.N,/interrupt*%
X127260000Y-154365000D03*
%TO.P,P1,B23,FMC_LA18_CC_N*%
%TO.N,/res_n*%
X128260000Y-154365000D03*
%TO.P,P1,B24,C2_4*%
%TO.N,/sr_ld*%
X129260000Y-154365000D03*
%TO.P,P1,B25,C2_3*%
%TO.N,/sr_sin*%
X130260000Y-154365000D03*
%TO.P,P1,B26,C2_8*%
%TO.N,unconnected-(P1-PadB26)*%
X131260000Y-154365000D03*
%TO.P,P1,B27,C2_7*%
%TO.N,unconnected-(P1-PadB27)*%
X132260000Y-154365000D03*
%TO.P,P1,B28,C3_4*%
%TO.N,unconnected-(P1-PadB28)*%
X133260000Y-154365000D03*
%TO.P,P1,B29,C3_3*%
%TO.N,unconnected-(P1-PadB29)*%
X134260000Y-154365000D03*
%TO.P,P1,B30,C3_8*%
%TO.N,unconnected-(P1-PadB30)*%
X135260000Y-154365000D03*
%TO.P,P1,B31,C3_7*%
%TO.N,unconnected-(P1-PadB31)*%
X136260000Y-154365000D03*
%TO.P,P1,B32,C4_4*%
%TO.N,/DAC_blpix*%
X137260000Y-154365000D03*
%TO.P,P1,B33,C4_3*%
%TO.N,/DAC_VCasc2!*%
X138260000Y-154365000D03*
%TO.P,P1,B34,C4_8*%
%TO.N,/DAC_ThPix*%
X139260000Y-154365000D03*
%TO.P,P1,B35,C4_7*%
%TO.N,/DAC_vminuspix*%
X140260000Y-154365000D03*
%TO.P,P1,B36,C5_4*%
%TO.N,unconnected-(P1-PadB36)*%
X141260000Y-154365000D03*
%TO.P,P1,B37,C5_3*%
%TO.N,unconnected-(P1-PadB37)*%
X142260000Y-154365000D03*
%TO.P,P1,B38,C5_8*%
%TO.N,unconnected-(P1-PadB38)*%
X143260000Y-154365000D03*
%TO.P,P1,B39,C5_7*%
%TO.N,unconnected-(P1-PadB39)*%
X144260000Y-154365000D03*
%TO.P,P1,B40,FMC_LA16_P*%
%TO.N,/sample_clk0_N*%
X145260000Y-154365000D03*
%TO.P,P1,B41,FMC_LA16_N*%
%TO.N,/sample_clk0_P*%
X146260000Y-154365000D03*
%TO.P,P1,B42,FMC_LA14_P*%
%TO.N,/sample_clk2_N*%
X147260000Y-154365000D03*
%TO.P,P1,B43,FMC_LA14_N*%
%TO.N,/sample_clk2_P*%
X148260000Y-154365000D03*
%TO.P,P1,B44,FMC_LA12_P*%
%TO.N,/sample_clk3_N*%
X149260000Y-154365000D03*
%TO.P,P1,B45,FMC_LA12_N*%
%TO.N,/sample_clk3_P*%
X150260000Y-154365000D03*
%TO.P,P1,B46,FMC_LA10_P*%
%TO.N,/sample_clk4_N*%
X151260000Y-154365000D03*
%TO.P,P1,B47,FMC_LA10_N*%
%TO.N,/sample_clk4_P*%
X152260000Y-154365000D03*
%TO.P,P1,B48,FMC_LA08_P*%
%TO.N,unconnected-(P1-PadB48)*%
X153260000Y-154365000D03*
%TO.P,P1,B49,FMC_LA08_N*%
%TO.N,unconnected-(P1-PadB49)*%
X154260000Y-154365000D03*
%TO.P,P1,B50*%
%TO.N,N/C*%
X155260000Y-154365000D03*
%TO.P,P1,B51*%
X156260000Y-154365000D03*
%TO.P,P1,B52*%
X157260000Y-154365000D03*
%TO.P,P1,B53*%
X158260000Y-154365000D03*
%TO.P,P1,B54*%
X159260000Y-154365000D03*
%TO.P,P1,B55*%
X160260000Y-154365000D03*
%TO.P,P1,B56*%
X161260000Y-154365000D03*
%TO.P,P1,B57*%
X162260000Y-154365000D03*
%TO.P,P1,B58*%
X163260000Y-154365000D03*
%TO.P,P1,B59*%
X164260000Y-154365000D03*
%TO.P,P1,B60*%
X165260000Y-154365000D03*
%TO.P,P1,B61*%
X166260000Y-154365000D03*
%TO.P,P1,B62*%
X167260000Y-154365000D03*
%TO.P,P1,B63*%
X168260000Y-154365000D03*
%TO.P,P1,B64*%
X169260000Y-154365000D03*
%TO.P,P1,B65*%
X170260000Y-154365000D03*
%TO.P,P1,B66*%
X171260000Y-154365000D03*
%TO.P,P1,B67*%
X172260000Y-154365000D03*
%TO.P,P1,B68*%
X173260000Y-154365000D03*
%TO.P,P1,B69*%
X174260000Y-154365000D03*
%TO.P,P1,B70*%
X175260000Y-154365000D03*
%TO.P,P1,B71*%
X176260000Y-154365000D03*
%TO.P,P1,B72*%
X177260000Y-154365000D03*
%TO.P,P1,B73*%
X178260000Y-154365000D03*
%TO.P,P1,B74*%
X179260000Y-154365000D03*
%TO.P,P1,B75*%
X180260000Y-154365000D03*
%TO.P,P1,B76*%
X181260000Y-154365000D03*
%TO.P,P1,B77*%
X182260000Y-154365000D03*
%TO.P,P1,B78*%
X183260000Y-154365000D03*
%TO.P,P1,B79*%
X184260000Y-154365000D03*
%TO.P,P1,B80*%
X185260000Y-154365000D03*
D14*
%TO.P,P1,B81*%
X186260000Y-153815000D03*
D13*
%TO.P,P1,B82*%
X187260000Y-154365000D03*
%TD*%
D10*
%TO.P,R5,1*%
%TO.N,/spi3_miso0*%
X142435000Y-71700000D03*
%TO.P,R5,2*%
%TO.N,GND*%
X144085000Y-71700000D03*
%TD*%
D15*
%TO.P,J4,A1,HV*%
%TO.N,-HV*%
X118260000Y-67200000D03*
D16*
%TO.P,J4,A2*%
%TO.N,N/C*%
X119260000Y-69200000D03*
%TO.P,J4,A3,VDD18*%
%TO.N,/VDD18_in*%
X120260000Y-67200000D03*
%TO.P,J4,A4,VDD18*%
X121260000Y-69200000D03*
%TO.P,J4,A5,POW4*%
%TO.N,/POW4_in*%
X122260000Y-67200000D03*
%TO.P,J4,A6,POW4*%
X123260000Y-69200000D03*
%TO.P,J4,A7,POW6*%
%TO.N,VDDA*%
X124260000Y-67200000D03*
%TO.P,J4,A8,POW6*%
X125260000Y-69200000D03*
%TO.P,J4,A9,POW8*%
%TO.N,VSSA*%
X126260000Y-67200000D03*
%TO.P,J4,A10,POW8*%
X127260000Y-69200000D03*
%TO.P,J4,A11,GND*%
%TO.N,GND*%
X128260000Y-67200000D03*
%TO.P,J4,A12*%
%TO.N,N/C*%
X131260000Y-69200000D03*
%TO.P,J4,A13*%
X132260000Y-67200000D03*
%TO.P,J4,A14*%
X133260000Y-69200000D03*
%TO.P,J4,A15*%
X134260000Y-67200000D03*
%TO.P,J4,A16,spi_left_csn*%
%TO.N,/spi3_csn*%
X135260000Y-69200000D03*
%TO.P,J4,A17,spi_left_clk*%
%TO.N,/spi3_clk*%
X136260000Y-67200000D03*
%TO.P,J4,A18,spi_left_miso1*%
%TO.N,/spi3_miso1*%
X137260000Y-69200000D03*
%TO.P,J4,A19,spi_left_miso0*%
%TO.N,/spi3_miso0*%
X138260000Y-67200000D03*
%TO.P,J4,A20,spi_left_mosi*%
%TO.N,/spi3_mosi*%
X139260000Y-69200000D03*
%TO.P,J4,A21*%
%TO.N,N/C*%
X140260000Y-67200000D03*
%TO.P,J4,A22,sr_out*%
%TO.N,/sr_out3*%
X141260000Y-69200000D03*
%TO.P,J4,A23,sr_rb*%
%TO.N,/sr_rb*%
X142260000Y-67200000D03*
%TO.P,J4,A24,sr_ck1*%
%TO.N,/sr_ck1*%
X143260000Y-69200000D03*
%TO.P,J4,A25,sr_ck2*%
%TO.N,/sr_ck2*%
X144260000Y-67200000D03*
%TO.P,J4,A26*%
%TO.N,N/C*%
X145260000Y-69200000D03*
%TO.P,J4,A27*%
X146260000Y-67200000D03*
%TO.P,J4,A28,Inj*%
%TO.N,/Inj*%
X147260000Y-69200000D03*
%TO.P,J4,A29*%
%TO.N,N/C*%
X148260000Y-67200000D03*
%TO.P,J4,A30*%
X149260000Y-69200000D03*
%TO.P,J4,A31*%
X150260000Y-67200000D03*
%TO.P,J4,A32,DAC_blpix*%
%TO.N,/DAC_blpix*%
X151260000Y-69200000D03*
%TO.P,J4,A33,DAC_Vcasc2*%
%TO.N,/DAC_VCasc2!*%
X152260000Y-67200000D03*
%TO.P,J4,A34,DAC_ThPix*%
%TO.N,/DAC_ThPix*%
X153260000Y-69200000D03*
%TO.P,J4,A35,DAC_vminuspix*%
%TO.N,/DAC_vminuspix*%
X154260000Y-67200000D03*
%TO.P,J4,A36*%
%TO.N,N/C*%
X155260000Y-69200000D03*
%TO.P,J4,A37*%
X156260000Y-67200000D03*
%TO.P,J4,A38*%
X157260000Y-69200000D03*
%TO.P,J4,A39*%
X158260000Y-67200000D03*
%TO.P,J4,A40,spi_right_clk*%
%TO.N,/spi_right_clk*%
X159260000Y-69200000D03*
%TO.P,J4,A41,spi_right_miso1*%
%TO.N,/spi_right_miso1*%
X160260000Y-67200000D03*
%TO.P,J4,A42,spi_right_miso0*%
%TO.N,/spi_right_miso0*%
X161260000Y-69200000D03*
%TO.P,J4,A43,spi_right_csn*%
%TO.N,/spi_right_csn*%
X162260000Y-67200000D03*
%TO.P,J4,A44,spi_right_mosi*%
%TO.N,/spi_right_mosi*%
X163260000Y-69200000D03*
%TO.P,J4,A45*%
%TO.N,N/C*%
X164260000Y-67200000D03*
%TO.P,J4,A46*%
X165260000Y-69200000D03*
%TO.P,J4,A47*%
X166260000Y-67200000D03*
%TO.P,J4,A48*%
X167260000Y-69200000D03*
%TO.P,J4,A49*%
X168260000Y-67200000D03*
%TO.P,J4,B1,HV*%
%TO.N,-HV*%
X118260000Y-64700000D03*
%TO.P,J4,B2*%
%TO.N,N/C*%
X119260000Y-62700000D03*
%TO.P,J4,B3,VDD18*%
%TO.N,/VDD18_in*%
X120260000Y-64700000D03*
%TO.P,J4,B4,VDD18*%
X121260000Y-62700000D03*
%TO.P,J4,B5,POW4*%
%TO.N,/POW4_in*%
X122260000Y-64700000D03*
%TO.P,J4,B6,POW4*%
X123260000Y-62700000D03*
%TO.P,J4,B7,POW6*%
%TO.N,VDDA*%
X124260000Y-64700000D03*
%TO.P,J4,B8,POW6*%
X125260000Y-62700000D03*
%TO.P,J4,B9,POW8*%
%TO.N,VSSA*%
X126260000Y-64700000D03*
%TO.P,J4,B10,POW8*%
X127260000Y-62700000D03*
%TO.P,J4,B11,GND*%
%TO.N,GND*%
X128260000Y-64700000D03*
%TO.P,J4,B12*%
%TO.N,N/C*%
X131260000Y-62700000D03*
%TO.P,J4,B13*%
X132260000Y-64700000D03*
%TO.P,J4,B14*%
X133260000Y-62700000D03*
%TO.P,J4,B15*%
X134260000Y-64700000D03*
%TO.P,J4,B16,sample_clk_se_P*%
%TO.N,unconnected-(J4-PadB16)*%
X135260000Y-62700000D03*
%TO.P,J4,B17,sample_clk_se_N*%
%TO.N,unconnected-(J4-PadB17)*%
X136260000Y-64700000D03*
%TO.P,J4,B18,sample_clk_P*%
%TO.N,/sample_clk4_P*%
X137260000Y-62700000D03*
%TO.P,J4,B19,sample_clk_N*%
%TO.N,/sample_clk4_N*%
X138260000Y-64700000D03*
%TO.P,J4,B20,interrupt*%
%TO.N,/hold*%
X139260000Y-62700000D03*
%TO.P,J4,B21,ts_clk*%
%TO.N,/timestamp_clk*%
X140260000Y-64700000D03*
%TO.P,J4,B22,hold*%
%TO.N,/interrupt*%
X141260000Y-62700000D03*
%TO.P,J4,B23,res_n*%
%TO.N,/res_n*%
X142260000Y-64700000D03*
%TO.P,J4,B24,sr_ld*%
%TO.N,/sr_ld*%
X143260000Y-62700000D03*
%TO.P,J4,B25,sr_sin*%
%TO.N,/sr_out2*%
X144260000Y-64700000D03*
%TO.P,J4,B26*%
%TO.N,N/C*%
X145260000Y-62700000D03*
%TO.P,J4,B27*%
X146260000Y-64700000D03*
%TO.P,J4,B28*%
X147260000Y-62700000D03*
%TO.P,J4,B29*%
X148260000Y-64700000D03*
%TO.P,J4,B30*%
X149260000Y-62700000D03*
%TO.P,J4,B31*%
X150260000Y-64700000D03*
%TO.P,J4,B32,DAC_blpix*%
%TO.N,/DAC_ThPMOS*%
X151260000Y-62700000D03*
%TO.P,J4,B33,DAC_Vcasc2*%
%TO.N,/DAC_VCasc2!*%
X152260000Y-64700000D03*
%TO.P,J4,B34,DAC_ThPix*%
%TO.N,/DAC_ThPix*%
X153260000Y-62700000D03*
%TO.P,J4,B35,DAC_vminuspix*%
%TO.N,/DAC_vminuspix*%
X154260000Y-64700000D03*
%TO.P,J4,B36*%
%TO.N,N/C*%
X155260000Y-62700000D03*
%TO.P,J4,B37*%
X156260000Y-64700000D03*
%TO.P,J4,B38*%
X157260000Y-62700000D03*
%TO.P,J4,B39*%
X158260000Y-64700000D03*
%TO.P,J4,B40,spi_right_clk*%
%TO.N,/spi_right_clk*%
X159260000Y-62700000D03*
%TO.P,J4,B41,spi_right_miso1*%
%TO.N,/spi_right_miso1*%
X160260000Y-64700000D03*
%TO.P,J4,B42,spi_right_miso0*%
%TO.N,/spi_right_miso0*%
X161260000Y-62700000D03*
%TO.P,J4,B43,spi_right_csn*%
%TO.N,/spi_right_csn*%
X162260000Y-64700000D03*
%TO.P,J4,B44,spi_right_mosi*%
%TO.N,/spi_right_mosi*%
X163260000Y-62700000D03*
%TO.P,J4,B45*%
%TO.N,N/C*%
X164260000Y-64700000D03*
%TO.P,J4,B46*%
X165260000Y-62700000D03*
%TO.P,J4,B47*%
X166260000Y-64700000D03*
%TO.P,J4,B48*%
X167260000Y-62700000D03*
%TO.P,J4,B49*%
X168260000Y-64700000D03*
%TD*%
D15*
%TO.P,J3,A1,HV*%
%TO.N,-HV*%
X118260000Y-87200000D03*
D16*
%TO.P,J3,A2*%
%TO.N,N/C*%
X119260000Y-89200000D03*
%TO.P,J3,A3,VDD18*%
%TO.N,/VDD18_in*%
X120260000Y-87200000D03*
%TO.P,J3,A4,VDD18*%
X121260000Y-89200000D03*
%TO.P,J3,A5,POW4*%
%TO.N,/POW4_in*%
X122260000Y-87200000D03*
%TO.P,J3,A6,POW4*%
X123260000Y-89200000D03*
%TO.P,J3,A7,POW6*%
%TO.N,VDDA*%
X124260000Y-87200000D03*
%TO.P,J3,A8,POW6*%
X125260000Y-89200000D03*
%TO.P,J3,A9,POW8*%
%TO.N,VSSA*%
X126260000Y-87200000D03*
%TO.P,J3,A10,POW8*%
X127260000Y-89200000D03*
%TO.P,J3,A11,GND*%
%TO.N,GND*%
X128260000Y-87200000D03*
%TO.P,J3,A12*%
%TO.N,N/C*%
X131260000Y-89200000D03*
%TO.P,J3,A13*%
X132260000Y-87200000D03*
%TO.P,J3,A14*%
X133260000Y-89200000D03*
%TO.P,J3,A15*%
X134260000Y-87200000D03*
%TO.P,J3,A16,spi_left_csn*%
%TO.N,/spi2_csn*%
X135260000Y-89200000D03*
%TO.P,J3,A17,spi_left_clk*%
%TO.N,/spi2_clk*%
X136260000Y-87200000D03*
%TO.P,J3,A18,spi_left_miso1*%
%TO.N,/spi2_miso1*%
X137260000Y-89200000D03*
%TO.P,J3,A19,spi_left_miso0*%
%TO.N,/spi2_miso0*%
X138260000Y-87200000D03*
%TO.P,J3,A20,spi_left_mosi*%
%TO.N,/spi2_mosi*%
X139260000Y-89200000D03*
%TO.P,J3,A21*%
%TO.N,N/C*%
X140260000Y-87200000D03*
%TO.P,J3,A22,sr_out*%
%TO.N,/sr_out2*%
X141260000Y-89200000D03*
%TO.P,J3,A23,sr_rb*%
%TO.N,/sr_rb*%
X142260000Y-87200000D03*
%TO.P,J3,A24,sr_ck1*%
%TO.N,/sr_ck1*%
X143260000Y-89200000D03*
%TO.P,J3,A25,sr_ck2*%
%TO.N,/sr_ck2*%
X144260000Y-87200000D03*
%TO.P,J3,A26*%
%TO.N,N/C*%
X145260000Y-89200000D03*
%TO.P,J3,A27*%
X146260000Y-87200000D03*
%TO.P,J3,A28,Inj*%
%TO.N,/Inj*%
X147260000Y-89200000D03*
%TO.P,J3,A29*%
%TO.N,N/C*%
X148260000Y-87200000D03*
%TO.P,J3,A30*%
X149260000Y-89200000D03*
%TO.P,J3,A31*%
X150260000Y-87200000D03*
%TO.P,J3,A32,DAC_blpix*%
%TO.N,/DAC_blpix*%
X151260000Y-89200000D03*
%TO.P,J3,A33,DAC_Vcasc2*%
%TO.N,/DAC_VCasc2!*%
X152260000Y-87200000D03*
%TO.P,J3,A34,DAC_ThPix*%
%TO.N,/DAC_ThPix*%
X153260000Y-89200000D03*
%TO.P,J3,A35,DAC_vminuspix*%
%TO.N,/DAC_vminuspix*%
X154260000Y-87200000D03*
%TO.P,J3,A36*%
%TO.N,N/C*%
X155260000Y-89200000D03*
%TO.P,J3,A37*%
X156260000Y-87200000D03*
%TO.P,J3,A38*%
X157260000Y-89200000D03*
%TO.P,J3,A39*%
X158260000Y-87200000D03*
%TO.P,J3,A40,spi_right_clk*%
%TO.N,/spi3_clk*%
X159260000Y-89200000D03*
%TO.P,J3,A41,spi_right_miso1*%
%TO.N,/spi3_miso1*%
X160260000Y-87200000D03*
%TO.P,J3,A42,spi_right_miso0*%
%TO.N,/spi3_miso0*%
X161260000Y-89200000D03*
%TO.P,J3,A43,spi_right_csn*%
%TO.N,/spi3_csn*%
X162260000Y-87200000D03*
%TO.P,J3,A44,spi_right_mosi*%
%TO.N,/spi3_mosi*%
X163260000Y-89200000D03*
%TO.P,J3,A45*%
%TO.N,N/C*%
X164260000Y-87200000D03*
%TO.P,J3,A46*%
X165260000Y-89200000D03*
%TO.P,J3,A47*%
X166260000Y-87200000D03*
%TO.P,J3,A48*%
X167260000Y-89200000D03*
%TO.P,J3,A49*%
X168260000Y-87200000D03*
%TO.P,J3,B1,HV*%
%TO.N,-HV*%
X118260000Y-84700000D03*
%TO.P,J3,B2*%
%TO.N,N/C*%
X119260000Y-82700000D03*
%TO.P,J3,B3,VDD18*%
%TO.N,/VDD18_in*%
X120260000Y-84700000D03*
%TO.P,J3,B4,VDD18*%
X121260000Y-82700000D03*
%TO.P,J3,B5,POW4*%
%TO.N,/POW4_in*%
X122260000Y-84700000D03*
%TO.P,J3,B6,POW4*%
X123260000Y-82700000D03*
%TO.P,J3,B7,POW6*%
%TO.N,VDDA*%
X124260000Y-84700000D03*
%TO.P,J3,B8,POW6*%
X125260000Y-82700000D03*
%TO.P,J3,B9,POW8*%
%TO.N,VSSA*%
X126260000Y-84700000D03*
%TO.P,J3,B10,POW8*%
X127260000Y-82700000D03*
%TO.P,J3,B11,GND*%
%TO.N,GND*%
X128260000Y-84700000D03*
%TO.P,J3,B12*%
%TO.N,N/C*%
X131260000Y-82700000D03*
%TO.P,J3,B13*%
X132260000Y-84700000D03*
%TO.P,J3,B14*%
X133260000Y-82700000D03*
%TO.P,J3,B15*%
X134260000Y-84700000D03*
%TO.P,J3,B16,sample_clk_se_P*%
%TO.N,unconnected-(J3-PadB16)*%
X135260000Y-82700000D03*
%TO.P,J3,B17,sample_clk_se_N*%
%TO.N,unconnected-(J3-PadB17)*%
X136260000Y-84700000D03*
%TO.P,J3,B18,sample_clk_P*%
%TO.N,/sample_clk3_P*%
X137260000Y-82700000D03*
%TO.P,J3,B19,sample_clk_N*%
%TO.N,/sample_clk3_N*%
X138260000Y-84700000D03*
%TO.P,J3,B20,interrupt*%
%TO.N,/hold*%
X139260000Y-82700000D03*
%TO.P,J3,B21,ts_clk*%
%TO.N,/timestamp_clk*%
X140260000Y-84700000D03*
%TO.P,J3,B22,hold*%
%TO.N,/interrupt*%
X141260000Y-82700000D03*
%TO.P,J3,B23,res_n*%
%TO.N,/res_n*%
X142260000Y-84700000D03*
%TO.P,J3,B24,sr_ld*%
%TO.N,/sr_ld*%
X143260000Y-82700000D03*
%TO.P,J3,B25,sr_sin*%
%TO.N,/sr_out1*%
X144260000Y-84700000D03*
%TO.P,J3,B26*%
%TO.N,N/C*%
X145260000Y-82700000D03*
%TO.P,J3,B27*%
X146260000Y-84700000D03*
%TO.P,J3,B28*%
X147260000Y-82700000D03*
%TO.P,J3,B29*%
X148260000Y-84700000D03*
%TO.P,J3,B30*%
X149260000Y-82700000D03*
%TO.P,J3,B31*%
X150260000Y-84700000D03*
%TO.P,J3,B32,DAC_blpix*%
%TO.N,/DAC_ThPMOS*%
X151260000Y-82700000D03*
%TO.P,J3,B33,DAC_Vcasc2*%
%TO.N,/DAC_VCasc2!*%
X152260000Y-84700000D03*
%TO.P,J3,B34,DAC_ThPix*%
%TO.N,/DAC_ThPix*%
X153260000Y-82700000D03*
%TO.P,J3,B35,DAC_vminuspix*%
%TO.N,/DAC_vminuspix*%
X154260000Y-84700000D03*
%TO.P,J3,B36*%
%TO.N,N/C*%
X155260000Y-82700000D03*
%TO.P,J3,B37*%
X156260000Y-84700000D03*
%TO.P,J3,B38*%
X157260000Y-82700000D03*
%TO.P,J3,B39*%
X158260000Y-84700000D03*
%TO.P,J3,B40,spi_right_clk*%
%TO.N,/spi3_clk*%
X159260000Y-82700000D03*
%TO.P,J3,B41,spi_right_miso1*%
%TO.N,/spi3_miso1*%
X160260000Y-84700000D03*
%TO.P,J3,B42,spi_right_miso0*%
%TO.N,/spi3_miso0*%
X161260000Y-82700000D03*
%TO.P,J3,B43,spi_right_csn*%
%TO.N,/spi3_csn*%
X162260000Y-84700000D03*
%TO.P,J3,B44,spi_right_mosi*%
%TO.N,/spi3_mosi*%
X163260000Y-82700000D03*
%TO.P,J3,B45*%
%TO.N,N/C*%
X164260000Y-84700000D03*
%TO.P,J3,B46*%
X165260000Y-82700000D03*
%TO.P,J3,B47*%
X166260000Y-84700000D03*
%TO.P,J3,B48*%
X167260000Y-82700000D03*
%TO.P,J3,B49*%
X168260000Y-84700000D03*
%TD*%
D15*
%TO.P,J1,A1,HV*%
%TO.N,-HV*%
X118260000Y-127200000D03*
D16*
%TO.P,J1,A2*%
%TO.N,N/C*%
X119260000Y-129200000D03*
%TO.P,J1,A3,VDD18*%
%TO.N,/VDD18_in*%
X120260000Y-127200000D03*
%TO.P,J1,A4,VDD18*%
X121260000Y-129200000D03*
%TO.P,J1,A5,POW4*%
%TO.N,/POW4_in*%
X122260000Y-127200000D03*
%TO.P,J1,A6,POW4*%
X123260000Y-129200000D03*
%TO.P,J1,A7,POW6*%
%TO.N,VDDA*%
X124260000Y-127200000D03*
%TO.P,J1,A8,POW6*%
X125260000Y-129200000D03*
%TO.P,J1,A9,POW8*%
%TO.N,VSSA*%
X126260000Y-127200000D03*
%TO.P,J1,A10,POW8*%
X127260000Y-129200000D03*
%TO.P,J1,A11,GND*%
%TO.N,GND*%
X128260000Y-127200000D03*
%TO.P,J1,A12*%
%TO.N,N/C*%
X131260000Y-129200000D03*
%TO.P,J1,A13*%
X132260000Y-127200000D03*
%TO.P,J1,A14*%
X133260000Y-129200000D03*
%TO.P,J1,A15*%
X134260000Y-127200000D03*
%TO.P,J1,A16,spi_left_csn*%
%TO.N,/spi_left_csn*%
X135260000Y-129200000D03*
%TO.P,J1,A17,spi_left_clk*%
%TO.N,/spi_left_clk*%
X136260000Y-127200000D03*
%TO.P,J1,A18,spi_left_miso1*%
%TO.N,/spi_left_miso1*%
X137260000Y-129200000D03*
%TO.P,J1,A19,spi_left_miso0*%
%TO.N,/spi_left_miso0*%
X138260000Y-127200000D03*
%TO.P,J1,A20,spi_left_mosi*%
%TO.N,/spi_left_mosi*%
X139260000Y-129200000D03*
%TO.P,J1,A21*%
%TO.N,N/C*%
X140260000Y-127200000D03*
%TO.P,J1,A22,sr_out*%
%TO.N,/sr_out*%
X141260000Y-129200000D03*
%TO.P,J1,A23,sr_rb*%
%TO.N,/sr_rb*%
X142260000Y-127200000D03*
%TO.P,J1,A24,sr_ck1*%
%TO.N,/sr_ck1*%
X143260000Y-129200000D03*
%TO.P,J1,A25,sr_ck2*%
%TO.N,/sr_ck2*%
X144260000Y-127200000D03*
%TO.P,J1,A26*%
%TO.N,N/C*%
X145260000Y-129200000D03*
%TO.P,J1,A27*%
X146260000Y-127200000D03*
%TO.P,J1,A28,Inj*%
%TO.N,/Inj*%
X147260000Y-129200000D03*
%TO.P,J1,A29*%
%TO.N,N/C*%
X148260000Y-127200000D03*
%TO.P,J1,A30*%
X149260000Y-129200000D03*
%TO.P,J1,A31*%
X150260000Y-127200000D03*
%TO.P,J1,A32,DAC_blpix*%
%TO.N,/DAC_blpix*%
X151260000Y-129200000D03*
%TO.P,J1,A33,DAC_Vcasc2*%
%TO.N,/DAC_VCasc2!*%
X152260000Y-127200000D03*
%TO.P,J1,A34,DAC_ThPix*%
%TO.N,/DAC_ThPix*%
X153260000Y-129200000D03*
%TO.P,J1,A35,DAC_vminuspix*%
%TO.N,/DAC_vminuspix*%
X154260000Y-127200000D03*
%TO.P,J1,A36*%
%TO.N,N/C*%
X155260000Y-129200000D03*
%TO.P,J1,A37*%
X156260000Y-127200000D03*
%TO.P,J1,A38*%
X157260000Y-129200000D03*
%TO.P,J1,A39*%
X158260000Y-127200000D03*
%TO.P,J1,A40,spi_right_clk*%
%TO.N,/spi1_clk*%
X159260000Y-129200000D03*
%TO.P,J1,A41,spi_right_miso1*%
%TO.N,/spi1_miso1*%
X160260000Y-127200000D03*
%TO.P,J1,A42,spi_right_miso0*%
%TO.N,/spi1_miso0*%
X161260000Y-129200000D03*
%TO.P,J1,A43,spi_right_csn*%
%TO.N,/spi1_csn*%
X162260000Y-127200000D03*
%TO.P,J1,A44,spi_right_mosi*%
%TO.N,/spi1_mosi*%
X163260000Y-129200000D03*
%TO.P,J1,A45*%
%TO.N,N/C*%
X164260000Y-127200000D03*
%TO.P,J1,A46*%
X165260000Y-129200000D03*
%TO.P,J1,A47*%
X166260000Y-127200000D03*
%TO.P,J1,A48*%
X167260000Y-129200000D03*
%TO.P,J1,A49*%
X168260000Y-127200000D03*
%TO.P,J1,B1,HV*%
%TO.N,-HV*%
X118260000Y-124700000D03*
%TO.P,J1,B2*%
%TO.N,N/C*%
X119260000Y-122700000D03*
%TO.P,J1,B3,VDD18*%
%TO.N,/VDD18_in*%
X120260000Y-124700000D03*
%TO.P,J1,B4,VDD18*%
X121260000Y-122700000D03*
%TO.P,J1,B5,POW4*%
%TO.N,/POW4_in*%
X122260000Y-124700000D03*
%TO.P,J1,B6,POW4*%
X123260000Y-122700000D03*
%TO.P,J1,B7,POW6*%
%TO.N,VDDA*%
X124260000Y-124700000D03*
%TO.P,J1,B8,POW6*%
X125260000Y-122700000D03*
%TO.P,J1,B9,POW8*%
%TO.N,VSSA*%
X126260000Y-124700000D03*
%TO.P,J1,B10,POW8*%
X127260000Y-122700000D03*
%TO.P,J1,B11,GND*%
%TO.N,GND*%
X128260000Y-124700000D03*
%TO.P,J1,B12*%
%TO.N,N/C*%
X131260000Y-122700000D03*
%TO.P,J1,B13*%
X132260000Y-124700000D03*
%TO.P,J1,B14*%
X133260000Y-122700000D03*
%TO.P,J1,B15*%
X134260000Y-124700000D03*
%TO.P,J1,B16,sample_clk_se_P*%
%TO.N,unconnected-(J1-PadB16)*%
X135260000Y-122700000D03*
%TO.P,J1,B17,sample_clk_se_N*%
%TO.N,unconnected-(J1-PadB17)*%
X136260000Y-124700000D03*
%TO.P,J1,B18,sample_clk_P*%
%TO.N,/sample_clk0_P*%
X137260000Y-122700000D03*
%TO.P,J1,B19,sample_clk_N*%
%TO.N,/sample_clk0_N*%
X138260000Y-124700000D03*
%TO.P,J1,B20,interrupt*%
%TO.N,/hold*%
X139260000Y-122700000D03*
%TO.P,J1,B21,ts_clk*%
%TO.N,/timestamp_clk*%
X140260000Y-124700000D03*
%TO.P,J1,B22,hold*%
%TO.N,/interrupt*%
X141260000Y-122700000D03*
%TO.P,J1,B23,res_n*%
%TO.N,/res_n*%
X142260000Y-124700000D03*
%TO.P,J1,B24,sr_ld*%
%TO.N,/sr_ld*%
X143260000Y-122700000D03*
%TO.P,J1,B25,sr_sin*%
%TO.N,/sr_sin*%
X144260000Y-124700000D03*
%TO.P,J1,B26*%
%TO.N,N/C*%
X145260000Y-122700000D03*
%TO.P,J1,B27*%
X146260000Y-124700000D03*
%TO.P,J1,B28*%
X147260000Y-122700000D03*
%TO.P,J1,B29*%
X148260000Y-124700000D03*
%TO.P,J1,B30*%
X149260000Y-122700000D03*
%TO.P,J1,B31*%
X150260000Y-124700000D03*
%TO.P,J1,B32,DAC_blpix*%
%TO.N,/DAC_ThPMOS*%
X151260000Y-122700000D03*
%TO.P,J1,B33,DAC_Vcasc2*%
%TO.N,/DAC_VCasc2!*%
X152260000Y-124700000D03*
%TO.P,J1,B34,DAC_ThPix*%
%TO.N,/DAC_ThPix*%
X153260000Y-122700000D03*
%TO.P,J1,B35,DAC_vminuspix*%
%TO.N,/DAC_vminuspix*%
X154260000Y-124700000D03*
%TO.P,J1,B36*%
%TO.N,N/C*%
X155260000Y-122700000D03*
%TO.P,J1,B37*%
X156260000Y-124700000D03*
%TO.P,J1,B38*%
X157260000Y-122700000D03*
%TO.P,J1,B39*%
X158260000Y-124700000D03*
%TO.P,J1,B40,spi_right_clk*%
%TO.N,/spi1_clk*%
X159260000Y-122700000D03*
%TO.P,J1,B41,spi_right_miso1*%
%TO.N,/spi1_miso1*%
X160260000Y-124700000D03*
%TO.P,J1,B42,spi_right_miso0*%
%TO.N,/spi1_miso0*%
X161260000Y-122700000D03*
%TO.P,J1,B43,spi_right_csn*%
%TO.N,/spi1_csn*%
X162260000Y-124700000D03*
%TO.P,J1,B44,spi_right_mosi*%
%TO.N,/spi1_mosi*%
X163260000Y-122700000D03*
%TO.P,J1,B45*%
%TO.N,N/C*%
X164260000Y-124700000D03*
%TO.P,J1,B46*%
X165260000Y-122700000D03*
%TO.P,J1,B47*%
X166260000Y-124700000D03*
%TO.P,J1,B48*%
X167260000Y-122700000D03*
%TO.P,J1,B49*%
X168260000Y-124700000D03*
%TD*%
D15*
%TO.P,J2,A1,HV*%
%TO.N,-HV*%
X118260000Y-107200000D03*
D16*
%TO.P,J2,A2*%
%TO.N,N/C*%
X119260000Y-109200000D03*
%TO.P,J2,A3,VDD18*%
%TO.N,/VDD18_in*%
X120260000Y-107200000D03*
%TO.P,J2,A4,VDD18*%
X121260000Y-109200000D03*
%TO.P,J2,A5,POW4*%
%TO.N,/POW4_in*%
X122260000Y-107200000D03*
%TO.P,J2,A6,POW4*%
X123260000Y-109200000D03*
%TO.P,J2,A7,POW6*%
%TO.N,VDDA*%
X124260000Y-107200000D03*
%TO.P,J2,A8,POW6*%
X125260000Y-109200000D03*
%TO.P,J2,A9,POW8*%
%TO.N,VSSA*%
X126260000Y-107200000D03*
%TO.P,J2,A10,POW8*%
X127260000Y-109200000D03*
%TO.P,J2,A11,GND*%
%TO.N,GND*%
X128260000Y-107200000D03*
%TO.P,J2,A12*%
%TO.N,N/C*%
X131260000Y-109200000D03*
%TO.P,J2,A13*%
X132260000Y-107200000D03*
%TO.P,J2,A14*%
X133260000Y-109200000D03*
%TO.P,J2,A15*%
X134260000Y-107200000D03*
%TO.P,J2,A16,spi_left_csn*%
%TO.N,/spi1_csn*%
X135260000Y-109200000D03*
%TO.P,J2,A17,spi_left_clk*%
%TO.N,/spi1_clk*%
X136260000Y-107200000D03*
%TO.P,J2,A18,spi_left_miso1*%
%TO.N,/spi1_miso1*%
X137260000Y-109200000D03*
%TO.P,J2,A19,spi_left_miso0*%
%TO.N,/spi1_miso0*%
X138260000Y-107200000D03*
%TO.P,J2,A20,spi_left_mosi*%
%TO.N,/spi1_mosi*%
X139260000Y-109200000D03*
%TO.P,J2,A21*%
%TO.N,N/C*%
X140260000Y-107200000D03*
%TO.P,J2,A22,sr_out*%
%TO.N,/sr_out1*%
X141260000Y-109200000D03*
%TO.P,J2,A23,sr_rb*%
%TO.N,/sr_rb*%
X142260000Y-107200000D03*
%TO.P,J2,A24,sr_ck1*%
%TO.N,/sr_ck1*%
X143260000Y-109200000D03*
%TO.P,J2,A25,sr_ck2*%
%TO.N,/sr_ck2*%
X144260000Y-107200000D03*
%TO.P,J2,A26*%
%TO.N,N/C*%
X145260000Y-109200000D03*
%TO.P,J2,A27*%
X146260000Y-107200000D03*
%TO.P,J2,A28,Inj*%
%TO.N,/Inj*%
X147260000Y-109200000D03*
%TO.P,J2,A29*%
%TO.N,N/C*%
X148260000Y-107200000D03*
%TO.P,J2,A30*%
X149260000Y-109200000D03*
%TO.P,J2,A31*%
X150260000Y-107200000D03*
%TO.P,J2,A32,DAC_blpix*%
%TO.N,/DAC_blpix*%
X151260000Y-109200000D03*
%TO.P,J2,A33,DAC_Vcasc2*%
%TO.N,/DAC_VCasc2!*%
X152260000Y-107200000D03*
%TO.P,J2,A34,DAC_ThPix*%
%TO.N,/DAC_ThPix*%
X153260000Y-109200000D03*
%TO.P,J2,A35,DAC_vminuspix*%
%TO.N,/DAC_vminuspix*%
X154260000Y-107200000D03*
%TO.P,J2,A36*%
%TO.N,N/C*%
X155260000Y-109200000D03*
%TO.P,J2,A37*%
X156260000Y-107200000D03*
%TO.P,J2,A38*%
X157260000Y-109200000D03*
%TO.P,J2,A39*%
X158260000Y-107200000D03*
%TO.P,J2,A40,spi_right_clk*%
%TO.N,/spi2_clk*%
X159260000Y-109200000D03*
%TO.P,J2,A41,spi_right_miso1*%
%TO.N,/spi2_miso1*%
X160260000Y-107200000D03*
%TO.P,J2,A42,spi_right_miso0*%
%TO.N,/spi2_miso0*%
X161260000Y-109200000D03*
%TO.P,J2,A43,spi_right_csn*%
%TO.N,/spi2_csn*%
X162260000Y-107200000D03*
%TO.P,J2,A44,spi_right_mosi*%
%TO.N,/spi2_mosi*%
X163260000Y-109200000D03*
%TO.P,J2,A45*%
%TO.N,N/C*%
X164260000Y-107200000D03*
%TO.P,J2,A46*%
X165260000Y-109200000D03*
%TO.P,J2,A47*%
X166260000Y-107200000D03*
%TO.P,J2,A48*%
X167260000Y-109200000D03*
%TO.P,J2,A49*%
X168260000Y-107200000D03*
%TO.P,J2,B1,HV*%
%TO.N,-HV*%
X118260000Y-104700000D03*
%TO.P,J2,B2*%
%TO.N,N/C*%
X119260000Y-102700000D03*
%TO.P,J2,B3,VDD18*%
%TO.N,/VDD18_in*%
X120260000Y-104700000D03*
%TO.P,J2,B4,VDD18*%
X121260000Y-102700000D03*
%TO.P,J2,B5,POW4*%
%TO.N,/POW4_in*%
X122260000Y-104700000D03*
%TO.P,J2,B6,POW4*%
X123260000Y-102700000D03*
%TO.P,J2,B7,POW6*%
%TO.N,VDDA*%
X124260000Y-104700000D03*
%TO.P,J2,B8,POW6*%
X125260000Y-102700000D03*
%TO.P,J2,B9,POW8*%
%TO.N,VSSA*%
X126260000Y-104700000D03*
%TO.P,J2,B10,POW8*%
X127260000Y-102700000D03*
%TO.P,J2,B11,GND*%
%TO.N,GND*%
X128260000Y-104700000D03*
%TO.P,J2,B12*%
%TO.N,N/C*%
X131260000Y-102700000D03*
%TO.P,J2,B13*%
X132260000Y-104700000D03*
%TO.P,J2,B14*%
X133260000Y-102700000D03*
%TO.P,J2,B15*%
X134260000Y-104700000D03*
%TO.P,J2,B16,sample_clk_se_P*%
%TO.N,unconnected-(J2-PadB16)*%
X135260000Y-102700000D03*
%TO.P,J2,B17,sample_clk_se_N*%
%TO.N,unconnected-(J2-PadB17)*%
X136260000Y-104700000D03*
%TO.P,J2,B18,sample_clk_P*%
%TO.N,/sample_clk2_P*%
X137260000Y-102700000D03*
%TO.P,J2,B19,sample_clk_N*%
%TO.N,/sample_clk2_N*%
X138260000Y-104700000D03*
%TO.P,J2,B20,interrupt*%
%TO.N,/hold*%
X139260000Y-102700000D03*
%TO.P,J2,B21,ts_clk*%
%TO.N,/timestamp_clk*%
X140260000Y-104700000D03*
%TO.P,J2,B22,hold*%
%TO.N,/interrupt*%
X141260000Y-102700000D03*
%TO.P,J2,B23,res_n*%
%TO.N,/res_n*%
X142260000Y-104700000D03*
%TO.P,J2,B24,sr_ld*%
%TO.N,/sr_ld*%
X143260000Y-102700000D03*
%TO.P,J2,B25,sr_sin*%
%TO.N,/sr_out*%
X144260000Y-104700000D03*
%TO.P,J2,B26*%
%TO.N,N/C*%
X145260000Y-102700000D03*
%TO.P,J2,B27*%
X146260000Y-104700000D03*
%TO.P,J2,B28*%
X147260000Y-102700000D03*
%TO.P,J2,B29*%
X148260000Y-104700000D03*
%TO.P,J2,B30*%
X149260000Y-102700000D03*
%TO.P,J2,B31*%
X150260000Y-104700000D03*
%TO.P,J2,B32,DAC_blpix*%
%TO.N,/DAC_ThPMOS*%
X151260000Y-102700000D03*
%TO.P,J2,B33,DAC_Vcasc2*%
%TO.N,/DAC_VCasc2!*%
X152260000Y-104700000D03*
%TO.P,J2,B34,DAC_ThPix*%
%TO.N,/DAC_ThPix*%
X153260000Y-102700000D03*
%TO.P,J2,B35,DAC_vminuspix*%
%TO.N,/DAC_vminuspix*%
X154260000Y-104700000D03*
%TO.P,J2,B36*%
%TO.N,N/C*%
X155260000Y-102700000D03*
%TO.P,J2,B37*%
X156260000Y-104700000D03*
%TO.P,J2,B38*%
X157260000Y-102700000D03*
%TO.P,J2,B39*%
X158260000Y-104700000D03*
%TO.P,J2,B40,spi_right_clk*%
%TO.N,/spi2_clk*%
X159260000Y-102700000D03*
%TO.P,J2,B41,spi_right_miso1*%
%TO.N,/spi2_miso1*%
X160260000Y-104700000D03*
%TO.P,J2,B42,spi_right_miso0*%
%TO.N,/spi2_miso0*%
X161260000Y-102700000D03*
%TO.P,J2,B43,spi_right_csn*%
%TO.N,/spi2_csn*%
X162260000Y-104700000D03*
%TO.P,J2,B44,spi_right_mosi*%
%TO.N,/spi2_mosi*%
X163260000Y-102700000D03*
%TO.P,J2,B45*%
%TO.N,N/C*%
X164260000Y-104700000D03*
%TO.P,J2,B46*%
X165260000Y-102700000D03*
%TO.P,J2,B47*%
X166260000Y-104700000D03*
%TO.P,J2,B48*%
X167260000Y-102700000D03*
%TO.P,J2,B49*%
X168260000Y-104700000D03*
%TD*%
D17*
%TO.N,GND*%
X145260000Y-71700000D03*
X143884500Y-91200000D03*
X137260000Y-74824500D03*
X143260000Y-111200000D03*
X136260000Y-114200000D03*
X114210000Y-149350000D03*
X114210000Y-150350000D03*
X114210000Y-148385000D03*
X114210000Y-151350000D03*
X137260000Y-93900000D03*
%TO.N,VDDA*%
X111260000Y-151365000D03*
X111260000Y-149365000D03*
X110260000Y-149365000D03*
X110260000Y-151365000D03*
X110260000Y-150365000D03*
X111260000Y-150365000D03*
D18*
%TO.N,-HV*%
X104260000Y-151200000D03*
D17*
%TO.N,/interrupt*%
X107260000Y-97700000D03*
X107260000Y-116700000D03*
X112760000Y-56694961D03*
X107260000Y-75200000D03*
%TO.N,/POW4_in*%
X109260000Y-150365000D03*
X108260000Y-149365000D03*
X109260000Y-151365000D03*
X108260000Y-150365000D03*
X108260000Y-151365000D03*
X109260000Y-149365000D03*
%TO.N,/sr_ck1*%
X112260000Y-73700000D03*
X129296839Y-143361339D03*
X112260000Y-93065000D03*
X112260000Y-112700000D03*
%TO.N,/res_n*%
X108260000Y-97166499D03*
X108260000Y-115863455D03*
X113860000Y-55700000D03*
X108260000Y-74200000D03*
%TO.N,/VDD18_in*%
X107260000Y-150365000D03*
X107260000Y-149365000D03*
X106260000Y-150365000D03*
X107260000Y-151365000D03*
X106260000Y-151365000D03*
X106260000Y-149365000D03*
%TO.N,/hold*%
X105260000Y-118200000D03*
X105260000Y-77300000D03*
X110310000Y-60515000D03*
X105260000Y-98700000D03*
%TO.N,/sr_rb*%
X111260000Y-92200000D03*
X128260000Y-144200000D03*
X111260000Y-111700000D03*
X111260000Y-72700000D03*
%TO.N,/timestamp_clk*%
X106260000Y-76075500D03*
X111760000Y-57700000D03*
X106260000Y-117700000D03*
X106260000Y-98200000D03*
%TO.N,/sr_ck2*%
X130663478Y-142603478D03*
X113260000Y-93950000D03*
X113260000Y-74450000D03*
X113260000Y-113700000D03*
%TO.N,/sr_ld*%
X115010000Y-54950000D03*
X110260000Y-73915000D03*
X110260000Y-95700000D03*
%TO.N,/spi1_clk*%
X155260000Y-112783867D03*
%TO.N,/spi1_miso1*%
X156260000Y-113432902D03*
%TO.N,/spi1_miso0*%
X155941132Y-111200000D03*
%TO.N,/spi1_csn*%
X158357701Y-113595879D03*
%TO.N,/spi1_mosi*%
X158260000Y-112163425D03*
%TO.N,/spi2_clk*%
X155160000Y-93100000D03*
%TO.N,/spi2_miso1*%
X156060000Y-94000000D03*
%TO.N,/spi2_miso0*%
X155891132Y-91200000D03*
%TO.N,/spi2_csn*%
X159378445Y-94333078D03*
%TO.N,/spi2_mosi*%
X158760000Y-93200000D03*
%TO.N,/spi3_clk*%
X155710000Y-73700000D03*
%TO.N,/spi3_miso1*%
X156801589Y-74700000D03*
%TO.N,/spi3_miso0*%
X155910000Y-71566000D03*
%TO.N,/spi3_csn*%
X158760000Y-75700000D03*
%TO.N,/spi3_mosi*%
X158760000Y-74200000D03*
%TO.N,/sr_out3*%
X127160000Y-146700000D03*
X109260000Y-73200000D03*
D18*
%TO.N,/DAC_ThPMOS*%
X136510000Y-151150000D03*
X151260000Y-91100000D03*
X151260000Y-70750000D03*
X151260000Y-110750000D03*
D17*
%TO.N,VSSA*%
X113235000Y-150375000D03*
X113235000Y-151350000D03*
X113260000Y-149350000D03*
X112410000Y-149350000D03*
X112385000Y-150375000D03*
X112385000Y-151350000D03*
%TD*%
D19*
%TO.N,GND*%
X137260000Y-73525000D02*
X137260000Y-74824500D01*
X142085000Y-111200000D02*
X143260000Y-111200000D01*
X142760000Y-91200000D02*
X143884500Y-91200000D01*
X144085000Y-71700000D02*
X145260000Y-71700000D01*
X137260000Y-93025000D02*
X137260000Y-93900000D01*
X136260000Y-113025000D02*
X136260000Y-114200000D01*
D20*
%TO.N,VDDA*%
X125260000Y-69200000D02*
X125260000Y-82700000D01*
X125260000Y-82700000D02*
X125260000Y-83700000D01*
X125260000Y-102700000D02*
X125260000Y-103700000D01*
X124860000Y-128800000D02*
X124860000Y-127800000D01*
X125260000Y-109200000D02*
X125260000Y-122700000D01*
X124260000Y-68200000D02*
X125260000Y-69200000D01*
X124260000Y-107200000D02*
X124260000Y-108000000D01*
X124860000Y-127800000D02*
X124260000Y-127200000D01*
X124260000Y-108000000D02*
X125260000Y-109000000D01*
X124260000Y-63700000D02*
X125260000Y-62700000D01*
X124260000Y-88200000D02*
X125260000Y-89200000D01*
X124260000Y-67200000D02*
X124260000Y-68200000D01*
X125260000Y-103700000D02*
X124260000Y-104700000D01*
X125260000Y-109000000D02*
X125260000Y-109200000D01*
X125260000Y-129200000D02*
X124860000Y-128800000D01*
X125260000Y-89200000D02*
X125260000Y-102700000D01*
X124260000Y-107200000D02*
X124260000Y-104700000D01*
X124460000Y-124500000D02*
X124460000Y-123500000D01*
X124260000Y-64700000D02*
X124260000Y-63700000D01*
X124260000Y-87200000D02*
X124260000Y-88200000D01*
X124260000Y-127200000D02*
X124260000Y-124700000D01*
X125260000Y-83700000D02*
X124260000Y-84700000D01*
X124260000Y-124700000D02*
X124460000Y-124500000D01*
X124260000Y-84700000D02*
X124260000Y-87200000D01*
X124460000Y-123500000D02*
X125260000Y-122700000D01*
X124260000Y-64700000D02*
X124260000Y-67200000D01*
D19*
%TO.N,-HV*%
X118260000Y-67200000D02*
X118260000Y-64700000D01*
X118260000Y-124700000D02*
X118260000Y-104700000D01*
X104260000Y-151200000D02*
X104260000Y-154365000D01*
X118260000Y-84700000D02*
X118260000Y-67200000D01*
X118260000Y-127200000D02*
X118260000Y-124700000D01*
X118260000Y-104700000D02*
X118260000Y-87200000D01*
X118260000Y-87200000D02*
X118260000Y-84700000D01*
%TO.N,/interrupt*%
X127260000Y-150700000D02*
X127260000Y-154365000D01*
X107260000Y-97700000D02*
X107260000Y-116700000D01*
X107260000Y-116700000D02*
X107260000Y-130700000D01*
X107260000Y-130700000D02*
X127260000Y-150700000D01*
X107260000Y-97700000D02*
X107260000Y-75200000D01*
X112760000Y-61200000D02*
X107260000Y-66700000D01*
X107260000Y-66700000D02*
X107260000Y-75200000D01*
X112760000Y-56694961D02*
X112760000Y-61200000D01*
D20*
%TO.N,/POW4_in*%
X123260000Y-82700000D02*
X123260000Y-83700000D01*
X122660000Y-128600000D02*
X123260000Y-129200000D01*
X122260000Y-87200000D02*
X122260000Y-88200000D01*
X123260000Y-89200000D02*
X123260000Y-102700000D01*
X122260000Y-68200000D02*
X123260000Y-69200000D01*
X123260000Y-69200000D02*
X123260000Y-82700000D01*
X122260000Y-67200000D02*
X122260000Y-68200000D01*
X122260000Y-107200000D02*
X122260000Y-108200000D01*
X123260000Y-102700000D02*
X123260000Y-103700000D01*
X122260000Y-64700000D02*
X122260000Y-63700000D01*
X123260000Y-122700000D02*
X123260000Y-109200000D01*
X122260000Y-107200000D02*
X122260000Y-104700000D01*
X122460000Y-124500000D02*
X122260000Y-124700000D01*
X123260000Y-103700000D02*
X122260000Y-104700000D01*
X122260000Y-63700000D02*
X123260000Y-62700000D01*
X122260000Y-127200000D02*
X122660000Y-127600000D01*
X123260000Y-83700000D02*
X122260000Y-84700000D01*
X122660000Y-127600000D02*
X122660000Y-128600000D01*
X122260000Y-64700000D02*
X122260000Y-67200000D01*
X122260000Y-108200000D02*
X123260000Y-109200000D01*
X122460000Y-123500000D02*
X122460000Y-124500000D01*
X122260000Y-88200000D02*
X123260000Y-89200000D01*
X122260000Y-84700000D02*
X122260000Y-87200000D01*
X122260000Y-124700000D02*
X122260000Y-127200000D01*
X123260000Y-122700000D02*
X122460000Y-123500000D01*
D21*
%TO.N,/sample_clk2_N*%
X167025000Y-97740000D02*
X166625000Y-97740000D01*
X166625000Y-98705686D02*
X166390685Y-98940000D01*
X178660000Y-119240685D02*
X178660000Y-118509314D01*
X178894315Y-108275000D02*
X178660000Y-108040685D01*
X168859314Y-98940000D02*
X168625000Y-98705686D01*
X178660000Y-117640685D02*
X178660000Y-116909314D01*
X169825000Y-97740000D02*
X169825000Y-98705686D01*
X179860000Y-115075000D02*
X179860000Y-114675000D01*
X160225000Y-98105685D02*
X159990685Y-98340000D01*
X178894315Y-113475000D02*
X179860000Y-113475000D01*
X179860000Y-111475000D02*
X178894315Y-111475000D01*
X178894315Y-121075000D02*
X178660000Y-120840685D01*
X178894315Y-116675000D02*
X179860000Y-116675000D01*
X178894315Y-127475000D02*
X178660000Y-127240685D01*
X178894315Y-124275000D02*
X178660000Y-124040685D01*
X179494314Y-106675000D02*
X179260000Y-106440685D01*
X162225000Y-98705686D02*
X162225000Y-97740000D01*
X179260000Y-129709314D02*
X179494314Y-129475000D01*
X179860000Y-108275000D02*
X178894315Y-108275000D01*
X170459314Y-98340000D02*
X170225000Y-98105685D01*
X179860000Y-117875000D02*
X178894315Y-117875000D01*
X163825000Y-97740000D02*
X163425000Y-97740000D01*
X178894315Y-109875000D02*
X178660000Y-109640685D01*
X178894315Y-107075000D02*
X179860000Y-107075000D01*
X160625000Y-97740000D02*
X160225000Y-97740000D01*
X178894315Y-125875000D02*
X178660000Y-125640685D01*
X170225000Y-98105685D02*
X170225000Y-97740000D01*
X164790685Y-98940000D02*
X164059314Y-98940000D01*
X179860000Y-127475000D02*
X178894315Y-127475000D01*
X165425000Y-98705686D02*
X165425000Y-97740000D01*
X171270000Y-138740000D02*
X179260000Y-130750000D01*
X178894315Y-111875000D02*
X179860000Y-111875000D01*
X170225000Y-97740000D02*
X169825000Y-97740000D01*
X167259314Y-98940000D02*
X167025000Y-98705686D01*
X147585000Y-147992514D02*
X156837514Y-138740000D01*
X168625000Y-98705686D02*
X168625000Y-97740000D01*
X178660000Y-124909314D02*
X178894315Y-124675000D01*
X163425000Y-98705686D02*
X163190685Y-98940000D01*
X178894315Y-124675000D02*
X179860000Y-124675000D01*
X179860000Y-121475000D02*
X179860000Y-121075000D01*
X161825000Y-97740000D02*
X161825000Y-98705686D01*
X178660000Y-121709314D02*
X178894315Y-121475000D01*
X179260000Y-103465686D02*
X174134314Y-98340000D01*
X166390685Y-98940000D02*
X165659314Y-98940000D01*
X160225000Y-97740000D02*
X160225000Y-98105685D01*
X168225000Y-97740000D02*
X168225000Y-98705686D01*
X178660000Y-125640685D02*
X178660000Y-124909314D01*
X178894315Y-126275000D02*
X179860000Y-126275000D01*
X178660000Y-126509314D02*
X178894315Y-126275000D01*
X174134314Y-98340000D02*
X170459314Y-98340000D01*
X178660000Y-113709314D02*
X178894315Y-113475000D01*
X179860000Y-118275000D02*
X179860000Y-117875000D01*
X178660000Y-128840685D02*
X178660000Y-128109314D01*
X178894315Y-123075000D02*
X179860000Y-123075000D01*
X179860000Y-129075000D02*
X178894315Y-129075000D01*
X179860000Y-114675000D02*
X178894315Y-114675000D01*
X178894315Y-121475000D02*
X179860000Y-121475000D01*
X155495936Y-98340000D02*
X140750687Y-98340000D01*
X178660000Y-111240685D02*
X178660000Y-110509314D01*
X160625000Y-98705686D02*
X160625000Y-97740000D01*
X164059314Y-98940000D02*
X163825000Y-98705686D01*
X156095936Y-98589065D02*
X155745000Y-98589065D01*
X179860000Y-129475000D02*
X179860000Y-129075000D01*
X178660000Y-112840685D02*
X178660000Y-112109314D01*
X179860000Y-123075000D02*
X179860000Y-122675000D01*
X179860000Y-119875000D02*
X179860000Y-119475000D01*
X179860000Y-111875000D02*
X179860000Y-111475000D01*
X178660000Y-120109314D02*
X178894315Y-119875000D01*
X178660000Y-109640685D02*
X178660000Y-108909314D01*
X178660000Y-115309314D02*
X178894315Y-115075000D01*
X178894315Y-119875000D02*
X179860000Y-119875000D01*
X162459314Y-98940000D02*
X162225000Y-98705686D01*
X179860000Y-113075000D02*
X178894315Y-113075000D01*
X178894315Y-114675000D02*
X178660000Y-114440685D01*
X163425000Y-97740000D02*
X163425000Y-98705686D01*
X165025000Y-98705686D02*
X164790685Y-98940000D01*
X161590685Y-98940000D02*
X160859314Y-98940000D01*
X178660000Y-122440685D02*
X178660000Y-121709314D01*
X178660000Y-127240685D02*
X178660000Y-126509314D01*
X178894315Y-115075000D02*
X179860000Y-115075000D01*
X168625000Y-97740000D02*
X168225000Y-97740000D01*
X178660000Y-124040685D02*
X178660000Y-123309314D01*
X178894315Y-127875000D02*
X179860000Y-127875000D01*
X178660000Y-107309314D02*
X178894315Y-107075000D01*
X178894315Y-111475000D02*
X178660000Y-111240685D01*
X179860000Y-108675000D02*
X179860000Y-108275000D01*
X167990685Y-98940000D02*
X167259314Y-98940000D01*
X178660000Y-118509314D02*
X178894315Y-118275000D01*
X179860000Y-106675000D02*
X179494314Y-106675000D01*
X178660000Y-114440685D02*
X178660000Y-113709314D01*
X155745000Y-98589065D02*
X155495936Y-98340000D01*
X165659314Y-98940000D02*
X165425000Y-98705686D01*
X178660000Y-120840685D02*
X178660000Y-120109314D01*
X178660000Y-108040685D02*
X178660000Y-107309314D01*
X178894315Y-110275000D02*
X179860000Y-110275000D01*
X178894315Y-108675000D02*
X179860000Y-108675000D01*
X169825000Y-98705686D02*
X169590685Y-98940000D01*
X165425000Y-97740000D02*
X165025000Y-97740000D01*
X166625000Y-97740000D02*
X166625000Y-98705686D01*
X178660000Y-112109314D02*
X178894315Y-111875000D01*
X147260000Y-154365000D02*
X147260000Y-151139999D01*
X178894315Y-116275000D02*
X178660000Y-116040685D01*
X169590685Y-98940000D02*
X168859314Y-98940000D01*
X179860000Y-109875000D02*
X178894315Y-109875000D01*
X179860000Y-116275000D02*
X178894315Y-116275000D01*
X178894315Y-119475000D02*
X178660000Y-119240685D01*
X147585000Y-150814999D02*
X147585000Y-147992514D01*
X178660000Y-128109314D02*
X178894315Y-127875000D01*
X179860000Y-124675000D02*
X179860000Y-124275000D01*
X162225000Y-97740000D02*
X161825000Y-97740000D01*
X179860000Y-126275000D02*
X179860000Y-125875000D01*
X160859314Y-98940000D02*
X160625000Y-98705686D01*
X179494314Y-129475000D02*
X179860000Y-129475000D01*
X179860000Y-110275000D02*
X179860000Y-109875000D01*
X178660000Y-123309314D02*
X178894315Y-123075000D01*
X163190685Y-98940000D02*
X162459314Y-98940000D01*
X179860000Y-116675000D02*
X179860000Y-116275000D01*
X178660000Y-108909314D02*
X178894315Y-108675000D01*
X179860000Y-113475000D02*
X179860000Y-113075000D01*
X178894315Y-113075000D02*
X178660000Y-112840685D01*
X163825000Y-98705686D02*
X163825000Y-97740000D01*
X161825000Y-98705686D02*
X161590685Y-98940000D01*
X178660000Y-116909314D02*
X178894315Y-116675000D01*
X156837514Y-138740000D02*
X171270000Y-138740000D01*
X179860000Y-124275000D02*
X178894315Y-124275000D01*
X138260000Y-100830686D02*
X138260000Y-104700000D01*
X178660000Y-110509314D02*
X178894315Y-110275000D01*
X167025000Y-98705686D02*
X167025000Y-97740000D01*
X168225000Y-98705686D02*
X167990685Y-98940000D01*
X178894315Y-122675000D02*
X178660000Y-122440685D01*
X179860000Y-127875000D02*
X179860000Y-127475000D01*
X147260000Y-151139999D02*
X147585000Y-150814999D01*
X179260000Y-106440685D02*
X179260000Y-103465686D01*
X178894315Y-129075000D02*
X178660000Y-128840685D01*
X159990685Y-98340000D02*
X156345000Y-98340000D01*
X179860000Y-121075000D02*
X178894315Y-121075000D01*
X179860000Y-107075000D02*
X179860000Y-106675000D01*
X165025000Y-97740000D02*
X165025000Y-98705686D01*
X179260000Y-130750000D02*
X179260000Y-129709314D01*
X178894315Y-117875000D02*
X178660000Y-117640685D01*
X140750687Y-98340000D02*
X138260000Y-100830686D01*
X178660000Y-116040685D02*
X178660000Y-115309314D01*
X179860000Y-119475000D02*
X178894315Y-119475000D01*
X179860000Y-122675000D02*
X178894315Y-122675000D01*
X179860000Y-125875000D02*
X178894315Y-125875000D01*
X156345000Y-98340000D02*
X156095936Y-98589065D01*
X178894315Y-118275000D02*
X179860000Y-118275000D01*
D19*
%TO.N,/DAC_VCasc2!*%
X152260000Y-127200000D02*
X152260000Y-130700000D01*
X138260000Y-144700000D02*
X138260000Y-154365000D01*
X152260000Y-130700000D02*
X138260000Y-144700000D01*
D21*
%TO.N,/sample_clk2_P*%
X179340724Y-102980725D02*
X179340723Y-102167803D01*
X179060000Y-128275000D02*
X180025685Y-128275000D01*
X180025685Y-109075000D02*
X180260000Y-108840685D01*
X180025685Y-119075000D02*
X179060000Y-119075000D01*
X166225000Y-98540000D02*
X165825000Y-98540000D01*
X180025685Y-125475000D02*
X179060000Y-125475000D01*
X180260000Y-120909314D02*
X180025685Y-120675000D01*
X180260000Y-113640685D02*
X180260000Y-112909314D01*
X166225000Y-97574314D02*
X166225000Y-98540000D01*
X164225000Y-97574314D02*
X163990685Y-97340000D01*
X180260000Y-116109314D02*
X180025685Y-115875000D01*
X180025685Y-118675000D02*
X180260000Y-118440685D01*
X180025685Y-127075000D02*
X179060000Y-127075000D01*
X179060000Y-119075000D02*
X179060000Y-118675000D01*
X169659314Y-97340000D02*
X169425000Y-97574314D01*
X168790685Y-97340000D02*
X168059314Y-97340000D01*
X178510000Y-102150000D02*
X174300000Y-97940000D01*
X180025685Y-114275000D02*
X179060000Y-114275000D01*
X179060000Y-121875000D02*
X180025685Y-121875000D01*
X180260000Y-129640685D02*
X180260000Y-128909314D01*
X179060000Y-115875000D02*
X179060000Y-115475000D01*
X179060000Y-125075000D02*
X180025685Y-125075000D01*
X161025000Y-97574314D02*
X160790685Y-97340000D01*
X169025000Y-97574314D02*
X168790685Y-97340000D01*
X179060000Y-112275000D02*
X180025685Y-112275000D01*
X180025685Y-122275000D02*
X179060000Y-122275000D01*
X180260000Y-112909314D02*
X180025685Y-112675000D01*
X161025000Y-98540000D02*
X161025000Y-97574314D01*
X179060000Y-115475000D02*
X180025685Y-115475000D01*
X179060000Y-117475000D02*
X179060000Y-117075000D01*
X163990685Y-97340000D02*
X163259314Y-97340000D01*
X168059314Y-97340000D02*
X167825000Y-97574314D01*
X180260000Y-120040685D02*
X180260000Y-119309314D01*
X162625000Y-98540000D02*
X162625000Y-97574314D01*
X180025685Y-123475000D02*
X180260000Y-123240685D01*
X179660000Y-130915686D02*
X179660000Y-129875000D01*
X180260000Y-112040685D02*
X180260000Y-111309314D01*
X164625000Y-97574314D02*
X164625000Y-98540000D01*
X140585001Y-97940000D02*
X137860000Y-100665001D01*
X148260000Y-154365000D02*
X148260000Y-151139999D01*
X157003200Y-139140000D02*
X171435686Y-139140000D01*
X170625000Y-97574314D02*
X170390685Y-97340000D01*
X179060000Y-113875000D02*
X180025685Y-113875000D01*
X160790685Y-97340000D02*
X160059314Y-97340000D01*
X180025685Y-120675000D02*
X179060000Y-120675000D01*
X180025685Y-125075000D02*
X180260000Y-124840685D01*
X180025685Y-115875000D02*
X179060000Y-115875000D01*
X179060000Y-107475000D02*
X180025685Y-107475000D01*
X162625000Y-97574314D02*
X162390685Y-97340000D01*
X137860000Y-102100000D02*
X137260000Y-102700000D01*
X159825000Y-97940000D02*
X155370000Y-97940000D01*
X180025685Y-117075000D02*
X180260000Y-116840685D01*
X179060000Y-125475000D02*
X179060000Y-125075000D01*
X180025685Y-115475000D02*
X180260000Y-115240685D01*
X180260000Y-127309314D02*
X180025685Y-127075000D01*
X180025685Y-120275000D02*
X180260000Y-120040685D01*
X166459314Y-97340000D02*
X166225000Y-97574314D01*
X179060000Y-128675000D02*
X179060000Y-128275000D01*
X155370000Y-97940000D02*
X155047266Y-97617266D01*
X165590685Y-97340000D02*
X164859314Y-97340000D01*
X180025685Y-111075000D02*
X179060000Y-111075000D01*
X180025685Y-129875000D02*
X180260000Y-129640685D01*
X180260000Y-110440685D02*
X180260000Y-109709314D01*
X161425000Y-98540000D02*
X161025000Y-98540000D01*
X154770000Y-97617266D02*
X154447266Y-97940000D01*
X179060000Y-122275000D02*
X179060000Y-121875000D01*
X180260000Y-118440685D02*
X180260000Y-117709314D01*
X180260000Y-125709314D02*
X180025685Y-125475000D01*
X170390685Y-97340000D02*
X169659314Y-97340000D01*
X179060000Y-127075000D02*
X179060000Y-126675000D01*
X167825000Y-98540000D02*
X167425000Y-98540000D01*
X179060000Y-111075000D02*
X179060000Y-110675000D01*
X179340723Y-102167803D02*
X179322920Y-102150000D01*
X174300000Y-97940000D02*
X170625000Y-97940000D01*
X162390685Y-97340000D02*
X161659314Y-97340000D01*
X180025685Y-110675000D02*
X180260000Y-110440685D01*
X179660000Y-106275000D02*
X179660000Y-103300000D01*
X180025685Y-123875000D02*
X179060000Y-123875000D01*
X180025685Y-117475000D02*
X179060000Y-117475000D01*
X180260000Y-124109314D02*
X180025685Y-123875000D01*
X180025685Y-112275000D02*
X180260000Y-112040685D01*
X169025000Y-98540000D02*
X169025000Y-97574314D01*
X180025685Y-107875000D02*
X179060000Y-107875000D01*
X179060000Y-118675000D02*
X180025685Y-118675000D01*
X161425000Y-97574314D02*
X161425000Y-98540000D01*
X180025685Y-128675000D02*
X179060000Y-128675000D01*
X165825000Y-97574314D02*
X165590685Y-97340000D01*
X179660000Y-103300000D02*
X179340724Y-102980725D01*
X180260000Y-108840685D02*
X180260000Y-108109314D01*
X164625000Y-98540000D02*
X164225000Y-98540000D01*
X180025685Y-121875000D02*
X180260000Y-121640685D01*
X171435686Y-139140000D02*
X179660000Y-130915686D01*
X179060000Y-126675000D02*
X180025685Y-126675000D01*
X147985000Y-148158200D02*
X157003200Y-139140000D01*
X154447266Y-97940000D02*
X140585001Y-97940000D01*
X167190685Y-97340000D02*
X166459314Y-97340000D01*
X179060000Y-117075000D02*
X180025685Y-117075000D01*
X163259314Y-97340000D02*
X163025000Y-97574314D01*
X179060000Y-112675000D02*
X179060000Y-112275000D01*
X179322920Y-102150000D02*
X178510000Y-102150000D01*
X180260000Y-107240685D02*
X180260000Y-106509314D01*
X180025685Y-106275000D02*
X179660000Y-106275000D01*
X180260000Y-123240685D02*
X180260000Y-122509314D01*
X179060000Y-120675000D02*
X179060000Y-120275000D01*
X179060000Y-110675000D02*
X180025685Y-110675000D01*
X165825000Y-98540000D02*
X165825000Y-97574314D01*
X180025685Y-126675000D02*
X180260000Y-126440685D01*
X180260000Y-124840685D02*
X180260000Y-124109314D01*
X179060000Y-109075000D02*
X180025685Y-109075000D01*
X180260000Y-128040685D02*
X180260000Y-127309314D01*
X160059314Y-97340000D02*
X159825000Y-97574314D01*
X164859314Y-97340000D02*
X164625000Y-97574314D01*
X148260000Y-151139999D02*
X147985000Y-150864999D01*
X180025685Y-112675000D02*
X179060000Y-112675000D01*
X180260000Y-122509314D02*
X180025685Y-122275000D01*
X180025685Y-109475000D02*
X179060000Y-109475000D01*
X180260000Y-108109314D02*
X180025685Y-107875000D01*
X180260000Y-115240685D02*
X180260000Y-114509314D01*
X164225000Y-98540000D02*
X164225000Y-97574314D01*
X179060000Y-120275000D02*
X180025685Y-120275000D01*
X180025685Y-107475000D02*
X180260000Y-107240685D01*
X180260000Y-117709314D02*
X180025685Y-117475000D01*
X179060000Y-107875000D02*
X179060000Y-107475000D01*
X167825000Y-97574314D02*
X167825000Y-98540000D01*
X155047266Y-97617266D02*
X154770000Y-97617266D01*
X137860000Y-100665001D02*
X137860000Y-102100000D01*
X147985000Y-150864999D02*
X147985000Y-148158200D01*
X179060000Y-123875000D02*
X179060000Y-123475000D01*
X169425000Y-97574314D02*
X169425000Y-98540000D01*
X179660000Y-129875000D02*
X180025685Y-129875000D01*
X180260000Y-114509314D02*
X180025685Y-114275000D01*
X167425000Y-98540000D02*
X167425000Y-97574314D01*
X180260000Y-106509314D02*
X180025685Y-106275000D01*
X161659314Y-97340000D02*
X161425000Y-97574314D01*
X179060000Y-114275000D02*
X179060000Y-113875000D01*
X163025000Y-97574314D02*
X163025000Y-98540000D01*
X180260000Y-119309314D02*
X180025685Y-119075000D01*
X180260000Y-128909314D02*
X180025685Y-128675000D01*
X179060000Y-123475000D02*
X180025685Y-123475000D01*
X180260000Y-121640685D02*
X180260000Y-120909314D01*
X170625000Y-97940000D02*
X170625000Y-97574314D01*
X167425000Y-97574314D02*
X167190685Y-97340000D01*
X180260000Y-111309314D02*
X180025685Y-111075000D01*
X180260000Y-126440685D02*
X180260000Y-125709314D01*
X180260000Y-109709314D02*
X180025685Y-109475000D01*
X163025000Y-98540000D02*
X162625000Y-98540000D01*
X180260000Y-116840685D02*
X180260000Y-116109314D01*
X179060000Y-109475000D02*
X179060000Y-109075000D01*
X180025685Y-128275000D02*
X180260000Y-128040685D01*
X180025685Y-113875000D02*
X180260000Y-113640685D01*
X169425000Y-98540000D02*
X169025000Y-98540000D01*
X159825000Y-97574314D02*
X159825000Y-97940000D01*
%TO.N,/sample_clk4_N*%
X151260000Y-154365000D02*
X151260000Y-149517515D01*
X185260000Y-133867514D02*
X185260000Y-91500000D01*
X174444314Y-59700000D02*
X138622490Y-59700000D01*
X138210000Y-64650000D02*
X138260000Y-64700000D01*
X185260000Y-70515686D02*
X174444314Y-59700000D01*
X184813285Y-91053286D02*
X184813285Y-90900000D01*
X185260000Y-90453286D02*
X185260000Y-70515686D01*
X185260000Y-91500000D02*
X184813285Y-91053286D01*
X138622490Y-59700000D02*
X138210000Y-60112490D01*
X156737515Y-144040000D02*
X175087514Y-144040000D01*
X184813285Y-90900000D02*
X185260000Y-90453286D01*
X151260000Y-149517515D02*
X156737515Y-144040000D01*
X175087514Y-144040000D02*
X185260000Y-133867514D01*
X138210000Y-60112490D02*
X138210000Y-64650000D01*
D19*
%TO.N,/sr_ck1*%
X127260000Y-143200000D02*
X112260000Y-128200000D01*
X112260000Y-93065000D02*
X112260000Y-73700000D01*
X112260000Y-93065000D02*
X112260000Y-112700000D01*
X129296839Y-143361339D02*
X129135500Y-143200000D01*
X129135500Y-143200000D02*
X127260000Y-143200000D01*
X112260000Y-112700000D02*
X112260000Y-128200000D01*
%TO.N,/res_n*%
X113860000Y-61600000D02*
X108260000Y-67200000D01*
X108260000Y-97166499D02*
X108260000Y-74200000D01*
X108260000Y-115863455D02*
X108260000Y-97166499D01*
X128260000Y-150200000D02*
X128260000Y-154365000D01*
X113860000Y-55700000D02*
X113860000Y-61600000D01*
X108260000Y-67200000D02*
X108260000Y-74200000D01*
X108260000Y-115863455D02*
X108260000Y-130200000D01*
X108260000Y-130200000D02*
X128260000Y-150200000D01*
D20*
%TO.N,/VDD18_in*%
X120260000Y-68200000D02*
X121260000Y-69200000D01*
X120260000Y-108200000D02*
X121260000Y-109200000D01*
X120260000Y-127200000D02*
X120860000Y-127800000D01*
X120860000Y-128800000D02*
X121260000Y-129200000D01*
X120860000Y-127800000D02*
X120860000Y-128800000D01*
X120260000Y-104700000D02*
X120260000Y-107200000D01*
X121260000Y-109200000D02*
X121260000Y-122700000D01*
X121260000Y-69200000D02*
X121260000Y-82700000D01*
X120260000Y-124700000D02*
X120260000Y-127200000D01*
X121260000Y-62700000D02*
X120260000Y-63700000D01*
X120260000Y-107200000D02*
X120260000Y-108200000D01*
X120260000Y-64700000D02*
X120260000Y-67200000D01*
X121260000Y-102700000D02*
X121260000Y-103700000D01*
X121260000Y-103700000D02*
X120260000Y-104700000D01*
X121260000Y-82700000D02*
X121260000Y-83700000D01*
X121260000Y-89200000D02*
X121260000Y-102700000D01*
X120260000Y-87200000D02*
X120260000Y-88200000D01*
X120860000Y-123100000D02*
X120860000Y-124100000D01*
X120260000Y-63700000D02*
X120260000Y-64700000D01*
X120860000Y-124100000D02*
X120260000Y-124700000D01*
X121260000Y-83700000D02*
X120260000Y-84700000D01*
X120260000Y-84700000D02*
X120260000Y-87200000D01*
X121260000Y-122700000D02*
X120860000Y-123100000D01*
X120260000Y-88200000D02*
X121260000Y-89200000D01*
X120260000Y-67200000D02*
X120260000Y-68200000D01*
D19*
%TO.N,/hold*%
X105260000Y-118200000D02*
X105260000Y-98700000D01*
X105260000Y-131700000D02*
X125260000Y-151700000D01*
X125260000Y-151700000D02*
X125260000Y-154365000D01*
X105260000Y-77300000D02*
X105260000Y-65565000D01*
X105260000Y-98700000D02*
X105260000Y-77300000D01*
X105260000Y-118200000D02*
X105260000Y-131700000D01*
X105260000Y-65565000D02*
X110310000Y-60515000D01*
%TO.N,/DAC_blpix*%
X151260000Y-130142845D02*
X137284500Y-144118345D01*
X151260000Y-129200000D02*
X151260000Y-130142845D01*
X137284500Y-144118345D02*
X137284500Y-154340500D01*
%TO.N,/sr_rb*%
X111260000Y-111700000D02*
X111260000Y-92200000D01*
X111260000Y-92200000D02*
X111260000Y-72700000D01*
X111260000Y-128700000D02*
X111260000Y-111700000D01*
X126760000Y-144200000D02*
X111260000Y-128700000D01*
X128260000Y-144200000D02*
X126760000Y-144200000D01*
%TO.N,/timestamp_clk*%
X111760000Y-60700000D02*
X106260000Y-66200000D01*
X106260000Y-117700000D02*
X106260000Y-98200000D01*
X106260000Y-131200000D02*
X106260000Y-117700000D01*
X126260000Y-151200000D02*
X126260000Y-154365000D01*
X111760000Y-57700000D02*
X111760000Y-60700000D01*
X106260000Y-131200000D02*
X126260000Y-151200000D01*
X106260000Y-98200000D02*
X106260000Y-76075500D01*
X106260000Y-66200000D02*
X106260000Y-76075500D01*
%TO.N,/sr_ck2*%
X113260000Y-74450000D02*
X113260000Y-113700000D01*
X127860000Y-142300000D02*
X113260000Y-127700000D01*
X130360000Y-142300000D02*
X127860000Y-142300000D01*
X130663478Y-142603478D02*
X130360000Y-142300000D01*
X113260000Y-127700000D02*
X113260000Y-113700000D01*
%TO.N,/sr_sin*%
X142260000Y-128657500D02*
X142260000Y-133900000D01*
X142260000Y-133900000D02*
X130260000Y-145900000D01*
X130260000Y-145900000D02*
X130260000Y-154365000D01*
X143260000Y-127657500D02*
X142260000Y-128657500D01*
X144260000Y-124700000D02*
X143260000Y-125700000D01*
X143260000Y-125700000D02*
X143260000Y-127657500D01*
D21*
%TO.N,/sample_clk3_N*%
X159960000Y-142140000D02*
X160360000Y-142140000D01*
X170194314Y-140940000D02*
X170925685Y-140940000D01*
X183060000Y-128880000D02*
X182694314Y-128880000D01*
X181860000Y-130245685D02*
X181860000Y-129514314D01*
X182162406Y-121762406D02*
X182162406Y-121460000D01*
X161960000Y-141174315D02*
X162194314Y-140940000D01*
X182162406Y-121460000D02*
X182460000Y-121162406D01*
X158760000Y-141174315D02*
X158994314Y-140940000D01*
X182460000Y-83465686D02*
X177584314Y-78590000D01*
X169560000Y-141174315D02*
X169560000Y-142140000D01*
X156666800Y-141540000D02*
X158760000Y-141540000D01*
X166760000Y-141174315D02*
X166994314Y-140940000D01*
X163160000Y-141174315D02*
X163160000Y-142140000D01*
X166125685Y-140940000D02*
X166360000Y-141174315D01*
X161960000Y-142140000D02*
X161960000Y-141174315D01*
X149260000Y-154365000D02*
X149260000Y-151139999D01*
X164525685Y-140940000D02*
X164760000Y-141174315D01*
X163794314Y-140940000D02*
X164525685Y-140940000D01*
X169960000Y-142140000D02*
X169960000Y-141174315D01*
X159960000Y-141174315D02*
X159960000Y-142140000D01*
X169960000Y-141174315D02*
X170194314Y-140940000D01*
X182460000Y-122060000D02*
X182162406Y-121762406D01*
X171794314Y-141540000D02*
X173516800Y-141540000D01*
X162194314Y-140940000D02*
X162925685Y-140940000D01*
X160360000Y-142140000D02*
X160360000Y-141174315D01*
X164760000Y-141174315D02*
X164760000Y-142140000D01*
X182094315Y-129280000D02*
X183060000Y-129280000D01*
X177584314Y-78590000D02*
X140532486Y-78590000D01*
X171160000Y-141174315D02*
X171160000Y-142140000D01*
X166994314Y-140940000D02*
X167725685Y-140940000D01*
X167960000Y-141174315D02*
X167960000Y-142140000D01*
X164760000Y-142140000D02*
X165160000Y-142140000D01*
X182460000Y-132596800D02*
X182460000Y-130480000D01*
X169560000Y-142140000D02*
X169960000Y-142140000D01*
X166760000Y-142140000D02*
X166760000Y-141174315D01*
X158760000Y-141540000D02*
X158760000Y-141174315D01*
X163560000Y-141174315D02*
X163794314Y-140940000D01*
X182460000Y-128645685D02*
X182460000Y-122060000D01*
X167725685Y-140940000D02*
X167960000Y-141174315D01*
X181860000Y-129514314D02*
X182094315Y-129280000D01*
X171560000Y-141774314D02*
X171794314Y-141540000D01*
X182694314Y-128880000D02*
X182460000Y-128645685D01*
X173516800Y-141540000D02*
X182460000Y-132596800D01*
X168594314Y-140940000D02*
X169325685Y-140940000D01*
X165160000Y-142140000D02*
X165160000Y-141174315D01*
X161325685Y-140940000D02*
X161560000Y-141174315D01*
X166360000Y-142140000D02*
X166760000Y-142140000D01*
X166360000Y-141174315D02*
X166360000Y-142140000D01*
X140532486Y-78590000D02*
X138260000Y-80862486D01*
X161560000Y-142140000D02*
X161960000Y-142140000D01*
X163560000Y-142140000D02*
X163560000Y-141174315D01*
X171160000Y-142140000D02*
X171560000Y-142140000D01*
X163160000Y-142140000D02*
X163560000Y-142140000D01*
X149260000Y-151139999D02*
X149585000Y-150814999D01*
X158994314Y-140940000D02*
X159725685Y-140940000D01*
X162925685Y-140940000D02*
X163160000Y-141174315D01*
X168360000Y-141174315D02*
X168594314Y-140940000D01*
X182460000Y-121162406D02*
X182460000Y-83465686D01*
X169325685Y-140940000D02*
X169560000Y-141174315D01*
X183060000Y-129280000D02*
X183060000Y-128880000D01*
X171560000Y-142140000D02*
X171560000Y-141774314D01*
X161560000Y-141174315D02*
X161560000Y-142140000D01*
X182460000Y-130480000D02*
X182094315Y-130480000D01*
X167960000Y-142140000D02*
X168360000Y-142140000D01*
X165160000Y-141174315D02*
X165394314Y-140940000D01*
X149585000Y-150814999D02*
X149585000Y-148621800D01*
X160360000Y-141174315D02*
X160594314Y-140940000D01*
X160594314Y-140940000D02*
X161325685Y-140940000D01*
X159725685Y-140940000D02*
X159960000Y-141174315D01*
X138260000Y-80862486D02*
X138260000Y-84700000D01*
X182094315Y-130480000D02*
X181860000Y-130245685D01*
X165394314Y-140940000D02*
X166125685Y-140940000D01*
X170925685Y-140940000D02*
X171160000Y-141174315D01*
X168360000Y-142140000D02*
X168360000Y-141174315D01*
X149585000Y-148621800D02*
X156666800Y-141540000D01*
%TO.N,/sample_clk4_P*%
X137810000Y-59946804D02*
X137810000Y-62150000D01*
X174610000Y-59300000D02*
X138456805Y-59300000D01*
X185984098Y-101750902D02*
X185984098Y-101475000D01*
X185660000Y-70350000D02*
X174610000Y-59300000D01*
X156903201Y-144440000D02*
X175253200Y-144440000D01*
X156351602Y-145809159D02*
X156351601Y-145809159D01*
X185984098Y-101475000D02*
X185660000Y-101150902D01*
X152260000Y-154365000D02*
X152260000Y-151139999D01*
X155785917Y-145966066D02*
X155785916Y-145966068D01*
X185660000Y-134033199D02*
X185660000Y-102075000D01*
X138456805Y-59300000D02*
X137810000Y-59946804D01*
X156351600Y-145400380D02*
X156351601Y-145400380D01*
X175253200Y-144440000D02*
X185660000Y-134033199D01*
X156351601Y-144991600D02*
X156903201Y-144440000D01*
X151985000Y-150864999D02*
X151985000Y-149358201D01*
X185660000Y-101150902D02*
X185660000Y-70350000D01*
X156351601Y-145400381D02*
X156351600Y-145400380D01*
X151985000Y-149358201D02*
X155377139Y-145966066D01*
X137810000Y-62150000D02*
X137260000Y-62700000D01*
X156194695Y-145966067D02*
X156351602Y-145809159D01*
X185660000Y-102075000D02*
X185984098Y-101750902D01*
X152260000Y-151139999D02*
X151985000Y-150864999D01*
X155785916Y-145966067D02*
G75*
G03*
X155377140Y-145966067I-204388J-204387D01*
G01*
X155785911Y-145966073D02*
G75*
G03*
X156194695Y-145966067I204389J204373D01*
G01*
X156351631Y-145809189D02*
G75*
G03*
X156351601Y-145400381I-204431J204389D01*
G01*
X156351611Y-144991610D02*
G75*
G03*
X156351601Y-145400380I204389J-204390D01*
G01*
D19*
%TO.N,/DAC_ThPix*%
X139260000Y-145200000D02*
X139260000Y-154365000D01*
X153260000Y-129357070D02*
X153260000Y-131200000D01*
X153260000Y-131200000D02*
X139260000Y-145200000D01*
%TO.N,/sr_ld*%
X110260000Y-73915000D02*
X110260000Y-95700000D01*
X129260000Y-145465000D02*
X140260000Y-134465000D01*
X140260000Y-132895660D02*
X140260000Y-128800000D01*
X129240000Y-145500000D02*
X129260000Y-145480000D01*
X110260000Y-95700000D02*
X110260000Y-129200000D01*
X115010000Y-54950000D02*
X115010000Y-61859099D01*
X140260000Y-133730000D02*
X140494340Y-133495660D01*
X115010000Y-61859099D02*
X110260000Y-66609099D01*
X126560000Y-145500000D02*
X129240000Y-145500000D01*
X140494340Y-133495660D02*
X140494340Y-133130000D01*
X110260000Y-129200000D02*
X126560000Y-145500000D01*
X141260000Y-127800000D02*
X141260000Y-124293097D01*
X110260000Y-66609099D02*
X110260000Y-73915000D01*
X129260000Y-154365000D02*
X129260000Y-145460000D01*
X129260000Y-145480000D02*
X129260000Y-145465000D01*
X141260000Y-124293097D02*
X142853097Y-122700000D01*
X142853097Y-122700000D02*
X143260000Y-122700000D01*
X140494340Y-133130000D02*
X140260000Y-132895660D01*
X140260000Y-134465000D02*
X140260000Y-133730000D01*
X140260000Y-128800000D02*
X141260000Y-127800000D01*
D21*
%TO.N,/sample_clk3_P*%
X159560000Y-142305685D02*
X159794314Y-142540000D01*
X182860000Y-96140000D02*
X182860000Y-95885990D01*
X182260000Y-130080000D02*
X182260000Y-129680000D01*
X171960000Y-142305685D02*
X171960000Y-141940000D01*
X167160000Y-142305685D02*
X167160000Y-141340000D01*
X149985000Y-148787486D02*
X156832486Y-141940000D01*
X163725685Y-142540000D02*
X163960000Y-142305685D01*
X182860000Y-83300001D02*
X177750000Y-78190000D01*
X182860000Y-128480000D02*
X182860000Y-97085990D01*
X169160000Y-142305685D02*
X169394314Y-142540000D01*
X183460000Y-129445685D02*
X183460000Y-128714314D01*
X183205991Y-95540000D02*
X183205991Y-95285990D01*
X159560000Y-141340000D02*
X159560000Y-142305685D01*
X170125685Y-142540000D02*
X170360000Y-142305685D01*
X164360000Y-141340000D02*
X164360000Y-142305685D01*
X140366800Y-78190000D02*
X137860000Y-80696801D01*
X163960000Y-141340000D02*
X164360000Y-141340000D01*
X167794314Y-142540000D02*
X168525685Y-142540000D01*
X183225685Y-128480000D02*
X182860000Y-128480000D01*
X162360000Y-141340000D02*
X162760000Y-141340000D01*
X182860000Y-95885990D02*
X183205991Y-95540000D01*
X161160000Y-141340000D02*
X161160000Y-142305685D01*
X158925685Y-141940000D02*
X159160000Y-141705686D01*
X168760000Y-141340000D02*
X169160000Y-141340000D01*
X159794314Y-142540000D02*
X160525685Y-142540000D01*
X150260000Y-151139999D02*
X149985000Y-150864999D01*
X170760000Y-142305685D02*
X170994314Y-142540000D01*
X162760000Y-141340000D02*
X162760000Y-142305685D01*
X159160000Y-141705686D02*
X159160000Y-141340000D01*
X182260000Y-129680000D02*
X183225685Y-129680000D01*
X150260000Y-154365000D02*
X150260000Y-151139999D01*
X162760000Y-142305685D02*
X162994314Y-142540000D01*
X169394314Y-142540000D02*
X170125685Y-142540000D01*
X170760000Y-141340000D02*
X170760000Y-142305685D01*
X170360000Y-142305685D02*
X170360000Y-141340000D01*
X182625686Y-130080000D02*
X182260000Y-130080000D01*
X161160000Y-142305685D02*
X161394314Y-142540000D01*
X183205991Y-95285990D02*
X182860000Y-94940000D01*
X183225685Y-129680000D02*
X183460000Y-129445685D01*
X167560000Y-141340000D02*
X167560000Y-142305685D01*
X164360000Y-142305685D02*
X164594314Y-142540000D01*
X149985000Y-150864999D02*
X149985000Y-148787486D01*
X182860000Y-132762485D02*
X182860000Y-130314314D01*
X171960000Y-141940000D02*
X173682486Y-141940000D01*
X162994314Y-142540000D02*
X163725685Y-142540000D01*
X156832486Y-141940000D02*
X158925685Y-141940000D01*
X168760000Y-142305685D02*
X168760000Y-141340000D01*
X170994314Y-142540000D02*
X171725685Y-142540000D01*
X171725685Y-142540000D02*
X171960000Y-142305685D01*
X182860000Y-97085990D02*
X183205991Y-96740000D01*
X137860000Y-82100000D02*
X137260000Y-82700000D01*
X137860000Y-80696801D02*
X137860000Y-82100000D01*
X162360000Y-142305685D02*
X162360000Y-141340000D01*
X160760000Y-141340000D02*
X161160000Y-141340000D01*
X167560000Y-142305685D02*
X167794314Y-142540000D01*
X166925685Y-142540000D02*
X167160000Y-142305685D01*
X169160000Y-141340000D02*
X169160000Y-142305685D01*
X163960000Y-142305685D02*
X163960000Y-141340000D01*
X173682486Y-141940000D02*
X182860000Y-132762485D01*
X162125685Y-142540000D02*
X162360000Y-142305685D01*
X182860000Y-130314314D02*
X182625686Y-130080000D01*
X159160000Y-141340000D02*
X159560000Y-141340000D01*
X168525685Y-142540000D02*
X168760000Y-142305685D01*
X166194314Y-142540000D02*
X166925685Y-142540000D01*
X160525685Y-142540000D02*
X160760000Y-142305685D01*
X161394314Y-142540000D02*
X162125685Y-142540000D01*
X165560000Y-142305685D02*
X165560000Y-141340000D01*
X165325685Y-142540000D02*
X165560000Y-142305685D01*
X165960000Y-141340000D02*
X165960000Y-142305685D01*
X177750000Y-78190000D02*
X140366800Y-78190000D01*
X182860000Y-94940000D02*
X182860000Y-83300001D01*
X183460000Y-128714314D02*
X183225685Y-128480000D01*
X183205991Y-96740000D02*
X183205991Y-96485990D01*
X160760000Y-142305685D02*
X160760000Y-141340000D01*
X165560000Y-141340000D02*
X165960000Y-141340000D01*
X170360000Y-141340000D02*
X170760000Y-141340000D01*
X164594314Y-142540000D02*
X165325685Y-142540000D01*
X183205991Y-96485990D02*
X182860000Y-96140000D01*
X167160000Y-141340000D02*
X167560000Y-141340000D01*
X165960000Y-142305685D02*
X166194314Y-142540000D01*
D19*
%TO.N,/DAC_vminuspix*%
X140260000Y-145700000D02*
X154260000Y-131700000D01*
X154260000Y-131700000D02*
X154260000Y-127200000D01*
X140260000Y-154365000D02*
X140260000Y-145700000D01*
%TO.N,/spi1_clk*%
X138260000Y-110700000D02*
X138260000Y-108700000D01*
X139260000Y-114200000D02*
X137760000Y-112700000D01*
X155260000Y-112783867D02*
X153843867Y-114200000D01*
X136728867Y-107168867D02*
X136604937Y-107168867D01*
X139260000Y-114200000D02*
X153843867Y-114200000D01*
X137760000Y-112700000D02*
X137760000Y-111200000D01*
X138260000Y-108700000D02*
X136728867Y-107168867D01*
X137760000Y-111200000D02*
X138260000Y-110700000D01*
%TO.N,/spi1_miso1*%
X136260000Y-111375000D02*
X136760000Y-110875000D01*
X156260000Y-113432902D02*
X154492902Y-115200000D01*
X136760000Y-109699999D02*
X137291132Y-109168867D01*
X135085000Y-111375000D02*
X136260000Y-111375000D01*
X154460000Y-115200000D02*
X135785000Y-115200000D01*
X135785000Y-115200000D02*
X134760000Y-114175000D01*
X136760000Y-110875000D02*
X136760000Y-109699999D01*
X134760000Y-114175000D02*
X134760000Y-111700000D01*
X134760000Y-111700000D02*
X135085000Y-111375000D01*
%TO.N,/spi1_miso0*%
X140760000Y-112200000D02*
X140435000Y-111875000D01*
X155941132Y-111200000D02*
X154060000Y-111200000D01*
X140260000Y-110150000D02*
X140260000Y-108643098D01*
X140435000Y-110325000D02*
X140260000Y-110150000D01*
X138785769Y-107168867D02*
X138542672Y-107168867D01*
X154060000Y-111200000D02*
X153060000Y-112200000D01*
X140435000Y-111875000D02*
X140435000Y-110325000D01*
X140260000Y-108643098D02*
X138785769Y-107168867D01*
X153060000Y-112200000D02*
X140760000Y-112200000D01*
%TO.N,/spi1_csn*%
X135260000Y-116200000D02*
X133760000Y-114700000D01*
X135260000Y-116200000D02*
X155006790Y-116200000D01*
X133760000Y-114700000D02*
X133760000Y-110699999D01*
X157610911Y-113595879D02*
X155006790Y-116200000D01*
X133760000Y-110699999D02*
X135291132Y-109168867D01*
X158357701Y-113595879D02*
X157610911Y-113595879D01*
%TO.N,/spi1_mosi*%
X155518884Y-112158867D02*
X154401125Y-112158867D01*
X154401125Y-112158867D02*
X153359992Y-113200000D01*
X153359992Y-113200000D02*
X140160000Y-113200000D01*
X158260000Y-112163425D02*
X155523442Y-112163425D01*
X139260000Y-112300000D02*
X139260000Y-109199999D01*
X140160000Y-113200000D02*
X139260000Y-112300000D01*
X155523442Y-112163425D02*
X155518884Y-112158867D01*
%TO.N,/spi2_clk*%
X138260000Y-88700000D02*
X136778867Y-87218867D01*
X154460000Y-93800000D02*
X140160000Y-93800000D01*
X155160000Y-93100000D02*
X154460000Y-93800000D01*
X136778867Y-87218867D02*
X136728867Y-87218867D01*
X140160000Y-93800000D02*
X138260000Y-91900000D01*
X138260000Y-91900000D02*
X138260000Y-88700000D01*
%TO.N,/spi2_miso1*%
X137260000Y-91100000D02*
X137260000Y-89237735D01*
X136360000Y-94100000D02*
X136360000Y-92000000D01*
X137860000Y-94600000D02*
X137760000Y-94700000D01*
X155460000Y-94600000D02*
X137860000Y-94600000D01*
X137260000Y-89237735D02*
X137241132Y-89218867D01*
X136360000Y-92000000D02*
X137260000Y-91100000D01*
X136960000Y-94700000D02*
X136360000Y-94100000D01*
X156060000Y-94000000D02*
X155460000Y-94600000D01*
X137760000Y-94700000D02*
X136960000Y-94700000D01*
%TO.N,/spi2_miso0*%
X140260000Y-90476368D02*
X140260000Y-88700000D01*
X140260000Y-88700000D02*
X138778867Y-87218867D01*
X138778867Y-87218867D02*
X138241132Y-87218867D01*
X152560000Y-91200000D02*
X151660000Y-92100000D01*
X151660000Y-92100000D02*
X141883632Y-92100000D01*
X155891132Y-91200000D02*
X152560000Y-91200000D01*
X141883632Y-92100000D02*
X140260000Y-90476368D01*
%TO.N,/spi2_csn*%
X156060000Y-95500000D02*
X136160000Y-95500000D01*
X136160000Y-95500000D02*
X135460000Y-94800000D01*
X135460000Y-89437735D02*
X135241132Y-89218867D01*
X157226922Y-94333078D02*
X156060000Y-95500000D01*
X159378445Y-94333078D02*
X157226922Y-94333078D01*
X135460000Y-94800000D02*
X135460000Y-89437735D01*
%TO.N,/spi2_mosi*%
X141060000Y-93000000D02*
X139241132Y-91181132D01*
X158760000Y-93200000D02*
X157760000Y-92200000D01*
X152260000Y-93000000D02*
X141060000Y-93000000D01*
X139241132Y-91181132D02*
X139241132Y-89218867D01*
X153060000Y-92200000D02*
X152260000Y-93000000D01*
X157760000Y-92200000D02*
X153060000Y-92200000D01*
%TO.N,/spi3_clk*%
X136573805Y-67200000D02*
X136816902Y-67200000D01*
X140685000Y-73625000D02*
X155635000Y-73625000D01*
X138260000Y-68643098D02*
X138260000Y-71200000D01*
X138260000Y-71200000D02*
X140685000Y-73625000D01*
X136816902Y-67200000D02*
X138260000Y-68643098D01*
X155635000Y-73625000D02*
X155710000Y-73700000D01*
%TO.N,/spi3_miso1*%
X139910000Y-74525000D02*
X156626589Y-74525000D01*
X156626589Y-74525000D02*
X156801589Y-74700000D01*
X137260000Y-71700000D02*
X137260000Y-69200000D01*
X137260000Y-71875000D02*
X139910000Y-74525000D01*
%TO.N,/spi3_miso0*%
X140260000Y-68615000D02*
X140260000Y-69525000D01*
X152560000Y-70600000D02*
X155560000Y-70600000D01*
X150908128Y-71900000D02*
X151460000Y-71900000D01*
X143285000Y-70850000D02*
X149858128Y-70850000D01*
X152260000Y-71100000D02*
X152260000Y-70900000D01*
X138260000Y-67200000D02*
X138845000Y-67200000D01*
X138845000Y-67200000D02*
X140260000Y-68615000D01*
X152260000Y-70900000D02*
X152560000Y-70600000D01*
X140260000Y-69525000D02*
X142435000Y-71700000D01*
X155910000Y-70950000D02*
X155910000Y-71566000D01*
X151460000Y-71900000D02*
X152260000Y-71100000D01*
X142435000Y-71700000D02*
X143285000Y-70850000D01*
X149858128Y-70850000D02*
X150908128Y-71900000D01*
X155560000Y-70600000D02*
X155910000Y-70950000D01*
%TO.N,/spi3_csn*%
X135260000Y-69200000D02*
X135260000Y-74200000D01*
X158535000Y-75475000D02*
X158760000Y-75700000D01*
X135260000Y-74200000D02*
X136535000Y-75475000D01*
X136535000Y-75475000D02*
X158535000Y-75475000D01*
%TO.N,/spi3_mosi*%
X141237974Y-72677974D02*
X157237974Y-72677974D01*
X157237974Y-72677974D02*
X158760000Y-74200000D01*
X139260000Y-69200000D02*
X139260000Y-70700000D01*
X139260000Y-70700000D02*
X141237974Y-72677974D01*
D21*
%TO.N,/sample_clk0_P*%
X157455000Y-118765000D02*
X157455000Y-117599315D01*
X165529980Y-133000001D02*
X165529979Y-134165683D01*
X173290000Y-125810000D02*
X173190000Y-125710000D01*
X153447352Y-139373659D02*
X153964507Y-138856504D01*
X157555000Y-118865000D02*
X157455000Y-118765000D01*
X148014997Y-117665000D02*
X147814998Y-117665000D01*
X174790000Y-124544314D02*
X174455685Y-124210000D01*
X156227245Y-136262395D02*
X155544406Y-135579553D01*
X145935000Y-150814999D02*
X145935000Y-148315000D01*
X173990000Y-129715686D02*
X173990000Y-127744314D01*
X152655000Y-118765000D02*
X152655000Y-117599315D01*
X158272486Y-133699999D02*
X159995685Y-133699998D01*
X161064312Y-134499997D02*
X161595678Y-134499997D01*
X145935000Y-148315000D02*
X146272602Y-147977398D01*
X173290000Y-127410000D02*
X173190000Y-127310000D01*
X167276742Y-113507104D02*
X167535320Y-113765683D01*
X174790000Y-123475685D02*
X174790000Y-122944314D01*
X159155000Y-118865000D02*
X159055000Y-118765000D01*
X163529987Y-134165682D02*
X163529986Y-133000000D01*
X165864294Y-134499998D02*
X166395660Y-134499998D01*
X168329969Y-134165683D02*
X168329969Y-133800000D01*
X139212515Y-118065000D02*
X137260000Y-120017515D01*
X152655000Y-117599315D02*
X152320685Y-117265000D01*
X165229981Y-132900000D02*
X165429979Y-132900000D01*
X157358614Y-135131026D02*
X156675775Y-134448184D01*
X174790000Y-122944314D02*
X174455685Y-122610000D01*
X150170404Y-140953557D02*
X150853244Y-141636397D01*
X170334314Y-111050000D02*
X168467156Y-112917156D01*
X162029993Y-132899999D02*
X162229991Y-132899999D01*
X159455000Y-118765000D02*
X159355000Y-118865000D01*
X154655000Y-117599315D02*
X154655000Y-118765000D01*
X173290000Y-125410000D02*
X174455685Y-125410000D01*
X174455685Y-121010000D02*
X173290000Y-121010000D01*
X146272602Y-147977398D02*
X146272602Y-147715000D01*
X151701769Y-141119242D02*
X151701769Y-140787871D01*
X154247351Y-138242290D02*
X154578721Y-138242290D01*
X158189314Y-117265000D02*
X157855000Y-117599315D01*
X151984613Y-140505028D02*
X152315983Y-140505028D01*
X161929993Y-134165682D02*
X161929992Y-133000000D01*
X173190000Y-122510000D02*
X173190000Y-122310000D01*
X173655686Y-120610000D02*
X173990000Y-120275685D01*
X161929992Y-133000000D02*
X162029993Y-132899999D01*
X159995685Y-133699998D02*
X160329999Y-133365684D01*
X160729997Y-134165682D02*
X161064312Y-134499997D01*
X174455685Y-122610000D02*
X173290000Y-122610000D01*
X147624823Y-143499137D02*
X147907666Y-143216296D01*
X148921876Y-143899135D02*
X149439031Y-143381980D01*
X160755000Y-118065000D02*
X160655000Y-117965000D01*
X174455685Y-122210000D02*
X174790000Y-121875685D01*
X154255000Y-118765000D02*
X154255000Y-117599315D01*
X175510000Y-113084314D02*
X173475686Y-111050000D01*
X173990000Y-127744314D02*
X173655686Y-127410000D01*
X156589314Y-117265000D02*
X156255000Y-117599315D01*
X166829975Y-132900000D02*
X167029973Y-132900000D01*
X151701769Y-140787871D02*
X151018930Y-140105029D01*
X157217196Y-134423921D02*
X157548566Y-134423921D01*
X152150299Y-138973660D02*
X152433142Y-138690819D01*
X155855000Y-117599315D02*
X155520685Y-117265000D01*
X160329999Y-133365684D02*
X160329998Y-133000000D01*
X175510000Y-117195686D02*
X175510000Y-113084314D01*
X173290000Y-121010000D02*
X173190000Y-120910000D01*
X156255000Y-118765000D02*
X156155000Y-118865000D01*
X173290000Y-124210000D02*
X173190000Y-124110000D01*
X154355000Y-118865000D02*
X154255000Y-118765000D01*
X167276742Y-113092426D02*
X167276742Y-113507104D01*
X154578721Y-138242290D02*
X155095876Y-137725135D01*
X156227245Y-136593766D02*
X156227245Y-136262395D01*
X151789314Y-117265000D02*
X151455000Y-117599315D01*
X173190000Y-120910000D02*
X173190000Y-120710000D01*
X160629997Y-132899999D02*
X160729998Y-133000000D01*
X155855000Y-118765000D02*
X155855000Y-117599315D01*
X162664306Y-134499997D02*
X163195672Y-134499997D01*
X155955000Y-118865000D02*
X155855000Y-118765000D01*
X155520685Y-117265000D02*
X154989314Y-117265000D01*
X148414998Y-118065000D02*
X148014997Y-117665000D01*
X153389314Y-117265000D02*
X153055000Y-117599315D01*
X173290000Y-122210000D02*
X174455685Y-122210000D01*
X140755000Y-118065000D02*
X139212515Y-118065000D01*
X150853244Y-141636397D02*
X151184614Y-141636397D01*
X141355000Y-117665000D02*
X141155000Y-117665000D01*
X153055000Y-117599315D02*
X153055000Y-118765000D01*
X174455685Y-123810000D02*
X174790000Y-123475685D01*
X173190000Y-127110000D02*
X173290000Y-127010000D01*
X174455685Y-125810000D02*
X173290000Y-125810000D01*
X159055000Y-118765000D02*
X159055000Y-117599315D01*
X155095876Y-137393764D02*
X154413037Y-136710922D01*
X165129981Y-134165682D02*
X165129980Y-133000001D01*
X173290000Y-122610000D02*
X173190000Y-122510000D01*
X158720685Y-117265000D02*
X158189314Y-117265000D01*
X146272602Y-147715000D02*
X145935000Y-147377398D01*
X159789314Y-117265000D02*
X159455000Y-117599315D01*
X162329992Y-133000000D02*
X162329991Y-134165682D01*
X167535320Y-113848990D02*
X163319313Y-118065001D01*
X157120685Y-117265000D02*
X156589314Y-117265000D01*
X146260000Y-154365000D02*
X146260000Y-151139999D01*
X153281668Y-137842291D02*
X153564511Y-137559450D01*
X154655000Y-118765000D02*
X154555000Y-118865000D01*
X173190000Y-124110000D02*
X173190000Y-123910000D01*
X157548566Y-134423921D02*
X158272486Y-133699999D01*
X147883400Y-143757716D02*
X147624823Y-143499137D01*
X168329969Y-133800000D02*
X168429970Y-133699999D01*
X152955000Y-118865000D02*
X152755000Y-118865000D01*
X163929986Y-133000000D02*
X163929985Y-134165682D01*
X156510089Y-135979552D02*
X156841459Y-135979552D01*
X157755000Y-118865000D02*
X157555000Y-118865000D01*
X173290000Y-120610000D02*
X173655686Y-120610000D01*
X145935000Y-146037486D02*
X147883400Y-144089086D01*
X173655686Y-127410000D02*
X173290000Y-127410000D01*
X151355000Y-118065000D02*
X148414998Y-118065000D01*
X153964507Y-138525133D02*
X153281668Y-137842291D01*
X162229991Y-132899999D02*
X162329992Y-133000000D01*
X149439031Y-143050609D02*
X148756192Y-142367767D01*
X173990000Y-118715686D02*
X175510000Y-117195686D01*
X156958618Y-134165343D02*
X157217196Y-134423921D01*
X163829985Y-132899999D02*
X163929986Y-133000000D01*
X153964507Y-138856504D02*
X153964507Y-138525133D01*
X154255000Y-117599315D02*
X153920685Y-117265000D01*
X154695880Y-136428081D02*
X155378720Y-137110921D01*
X170005685Y-133700000D02*
X173990000Y-129715686D01*
X166729975Y-134165683D02*
X166729974Y-133000001D01*
X174790000Y-121875685D02*
X174790000Y-121344314D01*
X153920685Y-117265000D02*
X153389314Y-117265000D01*
X147883400Y-144089086D02*
X147883400Y-143757716D01*
X173475686Y-111050000D02*
X170334314Y-111050000D01*
X163929985Y-134165682D02*
X164264300Y-134499997D01*
X165129980Y-133000001D02*
X165229981Y-132900000D01*
X153055000Y-118765000D02*
X152955000Y-118865000D01*
X151018930Y-140105029D02*
X151301773Y-139822188D01*
X163319313Y-118065001D02*
X160755000Y-118065000D01*
X160729998Y-133000000D02*
X160729997Y-134165682D01*
X155544406Y-135579553D02*
X155827249Y-135296712D01*
X151301773Y-139822188D02*
X151984613Y-140505028D01*
X156255000Y-117599315D02*
X156255000Y-118765000D01*
X160655000Y-117599315D02*
X160320685Y-117265000D01*
X150570400Y-141919240D02*
X149887561Y-141236398D01*
X146260000Y-151139999D02*
X145935000Y-150814999D01*
X164795666Y-134499997D02*
X165129981Y-134165682D01*
X152833138Y-139656502D02*
X152150299Y-138973660D01*
X157358614Y-135462397D02*
X157358614Y-135131026D01*
X173190000Y-122310000D02*
X173290000Y-122210000D01*
X167129973Y-134165683D02*
X167464288Y-134499998D01*
X152833138Y-139987873D02*
X152833138Y-139656502D01*
X155378720Y-137110921D02*
X155710090Y-137110921D01*
X152315983Y-140505028D02*
X152833138Y-139987873D01*
X166395660Y-134499998D02*
X166729975Y-134165683D01*
X174455685Y-127010000D02*
X174790000Y-126675685D01*
X156841459Y-135979552D02*
X157358614Y-135462397D01*
X160429999Y-132899999D02*
X160629997Y-132899999D01*
X173190000Y-125510000D02*
X173290000Y-125410000D01*
X147814998Y-117665000D02*
X147415000Y-118065000D01*
X147415000Y-118065000D02*
X141755000Y-118065000D01*
X149439031Y-143381980D02*
X149439031Y-143050609D01*
X173190000Y-123910000D02*
X173290000Y-123810000D01*
X147907666Y-143216296D02*
X148590506Y-143899135D01*
X149039035Y-142084926D02*
X149721875Y-142767766D01*
X165529979Y-134165683D02*
X165864294Y-134499998D01*
X167710592Y-112658577D02*
X167276742Y-113092426D01*
X153564511Y-137559450D02*
X154247351Y-138242290D01*
X160655000Y-117965000D02*
X160655000Y-117599315D01*
X163529986Y-133000000D02*
X163629987Y-132899999D01*
X157455000Y-117599315D02*
X157120685Y-117265000D01*
X150570400Y-142250611D02*
X150570400Y-141919240D01*
X173190000Y-127310000D02*
X173190000Y-127110000D01*
X167029973Y-132900000D02*
X167129974Y-133000001D01*
X152433142Y-138690819D02*
X153115982Y-139373659D01*
X155710090Y-137110921D02*
X156227245Y-136593766D01*
X151455000Y-117965000D02*
X151355000Y-118065000D01*
X159355000Y-118865000D02*
X159155000Y-118865000D01*
X141755000Y-118065000D02*
X141355000Y-117665000D01*
X141155000Y-117665000D02*
X140755000Y-118065000D01*
X154413037Y-136710922D02*
X154695880Y-136428081D01*
X174790000Y-126675685D02*
X174790000Y-126144314D01*
X149721875Y-142767766D02*
X150053245Y-142767766D01*
X161595678Y-134499997D02*
X161929993Y-134165682D01*
X163629987Y-132899999D02*
X163829985Y-132899999D01*
X154555000Y-118865000D02*
X154355000Y-118865000D01*
X156155000Y-118865000D02*
X155955000Y-118865000D01*
X137260000Y-120017515D02*
X137260000Y-122700000D01*
X155827249Y-135296712D02*
X156510089Y-135979552D01*
X174455685Y-124210000D02*
X173290000Y-124210000D01*
X173290000Y-127010000D02*
X174455685Y-127010000D01*
X174790000Y-121344314D02*
X174455685Y-121010000D01*
X149887561Y-141236398D02*
X150170404Y-140953557D01*
X148590506Y-143899135D02*
X148921876Y-143899135D01*
X166729974Y-133000001D02*
X166829975Y-132900000D01*
X164264300Y-134499997D02*
X164795666Y-134499997D01*
X153115982Y-139373659D02*
X153447352Y-139373659D01*
X174790000Y-125075685D02*
X174790000Y-124544314D01*
X163195672Y-134499997D02*
X163529987Y-134165682D01*
X173290000Y-123810000D02*
X174455685Y-123810000D01*
X168125270Y-112658577D02*
X167710592Y-112658577D01*
X156675775Y-134448184D02*
X156958618Y-134165343D01*
X157855000Y-117599315D02*
X157855000Y-118765000D01*
X167995654Y-134499998D02*
X168329969Y-134165683D01*
X151184614Y-141636397D02*
X151701769Y-141119242D01*
X154989314Y-117265000D02*
X154655000Y-117599315D01*
X168429970Y-133699999D02*
X170005685Y-133700000D01*
X167129974Y-133000001D02*
X167129973Y-134165683D01*
X165429979Y-132900000D02*
X165529980Y-133000001D01*
X174455685Y-125410000D02*
X174790000Y-125075685D01*
X162329991Y-134165682D02*
X162664306Y-134499997D01*
X152755000Y-118865000D02*
X152655000Y-118765000D01*
X174790000Y-126144314D02*
X174455685Y-125810000D01*
X145935000Y-147377398D02*
X145935000Y-146037486D01*
X168383849Y-112917156D02*
X168125270Y-112658577D01*
X159455000Y-117599315D02*
X159455000Y-118765000D01*
X159055000Y-117599315D02*
X158720685Y-117265000D01*
X173190000Y-125710000D02*
X173190000Y-125510000D01*
X160320685Y-117265000D02*
X159789314Y-117265000D01*
X151455000Y-117599315D02*
X151455000Y-117965000D01*
X173990000Y-120275685D02*
X173990000Y-118715686D01*
X148756192Y-142367767D02*
X149039035Y-142084926D01*
X152320685Y-117265000D02*
X151789314Y-117265000D01*
X157855000Y-118765000D02*
X157755000Y-118865000D01*
X160329998Y-133000000D02*
X160429999Y-132899999D01*
X173190000Y-120710000D02*
X173290000Y-120610000D01*
X167535320Y-113765683D02*
X167535320Y-113848990D01*
X155095876Y-137725135D02*
X155095876Y-137393764D01*
X150053245Y-142767766D02*
X150570400Y-142250611D01*
X168467156Y-112917156D02*
X168383849Y-112917156D01*
X167464288Y-134499998D02*
X167995654Y-134499998D01*
%TO.N,/sample_clk0_N*%
X167959584Y-113058577D02*
X167876277Y-113058577D01*
X167529971Y-133999999D02*
X167629972Y-134100000D01*
X149204719Y-141684929D02*
X149887561Y-142367768D01*
X167618628Y-114331370D02*
X163485001Y-118464999D01*
X156955000Y-117665000D02*
X156755000Y-117665000D01*
X158255000Y-117765000D02*
X158255000Y-118930685D01*
X174390000Y-121710000D02*
X174390000Y-121510000D01*
X145260000Y-154365000D02*
X145260000Y-151139999D01*
X155661563Y-134896714D02*
X155992933Y-134896715D01*
X154413037Y-137842292D02*
X154695878Y-137559449D01*
X167876277Y-113058577D02*
X167676741Y-113258112D01*
X160255000Y-118130686D02*
X160255000Y-117765000D01*
X172790000Y-127475685D02*
X172790000Y-126944314D01*
X174290000Y-125010000D02*
X174390000Y-124910000D01*
X168218164Y-113317156D02*
X167959584Y-113058577D01*
X153855000Y-118930685D02*
X153855000Y-117765000D01*
X158106802Y-133300000D02*
X159830000Y-133300000D01*
X172790000Y-121075685D02*
X172790000Y-120544314D01*
X174290000Y-123410000D02*
X174390000Y-123310000D01*
X154530194Y-136028083D02*
X154861564Y-136028084D01*
X163129988Y-132834316D02*
X163464303Y-132500001D01*
X152881670Y-137676607D02*
X153398825Y-137159452D01*
X162729989Y-133999998D02*
X162829990Y-134099999D01*
X152433140Y-139822187D02*
X151750299Y-139139348D01*
X145535000Y-145871801D02*
X147483402Y-143923400D01*
X161229996Y-134099999D02*
X161429994Y-134099999D01*
X147224825Y-143333453D02*
X147741980Y-142816298D01*
X165929977Y-133999999D02*
X166029978Y-134100000D01*
X160155000Y-117665000D02*
X159955000Y-117665000D01*
X163129989Y-133999998D02*
X163129988Y-132834316D01*
X145535000Y-150864999D02*
X145535000Y-145871801D01*
X155827247Y-136428080D02*
X155144406Y-135745241D01*
X153730195Y-137159453D02*
X154413037Y-137842292D01*
X159855000Y-118930685D02*
X159520685Y-119265000D01*
X167935319Y-113599997D02*
X167935319Y-114014675D01*
X174390000Y-124710000D02*
X174290000Y-124610000D01*
X168264285Y-133300001D02*
X169840000Y-133300000D01*
X159930001Y-133199999D02*
X159930000Y-132834316D01*
X157124302Y-133765346D02*
X157382882Y-134023924D01*
X152598826Y-138290822D02*
X153281668Y-138973661D01*
X167935319Y-114014675D02*
X167618628Y-114331370D01*
X151855000Y-117765000D02*
X151855000Y-118130686D01*
X156275775Y-134613872D02*
X156275777Y-134282500D01*
X158355000Y-117665000D02*
X158255000Y-117765000D01*
X145260000Y-151139999D02*
X145535000Y-150864999D01*
X173590000Y-120110000D02*
X173590000Y-118550000D01*
X167676741Y-113341419D02*
X167935319Y-113599997D01*
X164729983Y-133999998D02*
X164729982Y-132834317D01*
X157055000Y-118930685D02*
X157055000Y-117765000D01*
X149887561Y-142367768D02*
X150170402Y-142084925D01*
X150170402Y-142084925D02*
X149487561Y-141402086D01*
X155455000Y-117765000D02*
X155355000Y-117665000D01*
X175110000Y-113250000D02*
X173310000Y-111450000D01*
X172790000Y-125875685D02*
X172790000Y-125344314D01*
X173124315Y-121810000D02*
X174290000Y-121810000D01*
X173124315Y-127810000D02*
X172790000Y-127475685D01*
X152881668Y-138007979D02*
X152881670Y-137676607D01*
X149487561Y-141402086D02*
X149487563Y-141070714D01*
X153455000Y-117765000D02*
X153455000Y-118930685D01*
X137660000Y-121600000D02*
X138260000Y-122200000D01*
X163485001Y-118464999D02*
X160589314Y-118465000D01*
X170500000Y-111450000D02*
X168632842Y-113317156D01*
X166229976Y-134100000D02*
X166329977Y-133999999D01*
X159830000Y-133300000D02*
X159930001Y-133199999D01*
X162829990Y-134099999D02*
X163029988Y-134099999D01*
X154861564Y-136028084D02*
X155544406Y-136710923D01*
X151750299Y-139139348D02*
X151750301Y-138807976D01*
X173124315Y-126210000D02*
X172790000Y-125875685D01*
X167929971Y-133634315D02*
X168264285Y-133300001D01*
X174290000Y-123010000D02*
X173124315Y-123010000D01*
X153855000Y-117765000D02*
X153755000Y-117665000D01*
X152589314Y-119265000D02*
X152255000Y-118930685D01*
X156755000Y-117665000D02*
X156655000Y-117765000D01*
X173124315Y-121410000D02*
X172790000Y-121075685D01*
X159855000Y-117765000D02*
X159855000Y-118930685D01*
X151750301Y-138807976D02*
X152267456Y-138290821D01*
X159955000Y-117665000D02*
X159855000Y-117765000D01*
X155144406Y-135745241D02*
X155144408Y-135413869D01*
X150618930Y-140270717D02*
X150618932Y-139939345D01*
X163464303Y-132500001D02*
X163995669Y-132500001D01*
X164329984Y-132834316D02*
X164329983Y-133999998D01*
X153755000Y-117665000D02*
X153555000Y-117665000D01*
X167529972Y-132834317D02*
X167529971Y-133999999D01*
X157389314Y-119265000D02*
X157055000Y-118930685D01*
X151467457Y-139422191D02*
X152150299Y-140105030D01*
X161529994Y-132834316D02*
X161864309Y-132500001D01*
X153281668Y-138973661D02*
X153564509Y-138690818D01*
X166029978Y-134100000D02*
X166229976Y-134100000D01*
X148356194Y-142202083D02*
X148873349Y-141684928D01*
X153564509Y-138690818D02*
X152881668Y-138007979D01*
X161129996Y-132834316D02*
X161129995Y-133999998D01*
X158555000Y-117665000D02*
X158355000Y-117665000D01*
X165595663Y-132500002D02*
X165929978Y-132834317D01*
X151520685Y-118465000D02*
X139378201Y-118465000D01*
X147483402Y-143923400D02*
X147224825Y-143664823D01*
X137660000Y-120183202D02*
X137660000Y-121600000D01*
X174390000Y-123310000D02*
X174390000Y-123110000D01*
X159520685Y-119265000D02*
X158989314Y-119265000D01*
X167629972Y-134100000D02*
X167829970Y-134100000D01*
X152267456Y-138290821D02*
X152598826Y-138290822D01*
X164729982Y-132834317D02*
X165064297Y-132500002D01*
X148756192Y-143499137D02*
X149039033Y-143216294D01*
X155055000Y-117765000D02*
X155055000Y-118930685D01*
X152155000Y-117665000D02*
X151955000Y-117665000D01*
X173590000Y-118550000D02*
X175110000Y-117030000D01*
X155144408Y-135413869D02*
X155661563Y-134896714D01*
X160264315Y-132500001D02*
X160795681Y-132500001D01*
X158255000Y-118930685D02*
X157920685Y-119265000D01*
X165064297Y-132500002D02*
X165595663Y-132500002D01*
X172790000Y-123744314D02*
X173124315Y-123410000D01*
X149487563Y-141070714D02*
X150004718Y-140553559D01*
X161129995Y-133999998D02*
X161229996Y-134099999D01*
X165929978Y-132834317D02*
X165929977Y-133999999D01*
X158655000Y-117765000D02*
X158555000Y-117665000D01*
X174290000Y-121810000D02*
X174390000Y-121710000D01*
X174390000Y-126310000D02*
X174290000Y-126210000D01*
X147741980Y-142816298D02*
X148073352Y-142816297D01*
X172790000Y-120544314D02*
X173124315Y-120210000D01*
X173124315Y-123010000D02*
X172790000Y-122675685D01*
X157382882Y-134023924D02*
X158106802Y-133300000D01*
X148873349Y-141684928D02*
X149204719Y-141684929D01*
X157920685Y-119265000D02*
X157389314Y-119265000D01*
X154720685Y-119265000D02*
X154189314Y-119265000D01*
X160589314Y-118465000D02*
X160255000Y-118130686D01*
X150004718Y-140553559D02*
X150336088Y-140553560D01*
X172790000Y-125344314D02*
X173124315Y-125010000D01*
X156792932Y-133765345D02*
X157124302Y-133765346D01*
X161529995Y-133999998D02*
X161529994Y-132834316D01*
X174390000Y-123110000D02*
X174290000Y-123010000D01*
X174390000Y-121510000D02*
X174290000Y-121410000D01*
X148073352Y-142816297D02*
X148756192Y-143499137D01*
X166329977Y-133999999D02*
X166329976Y-132834317D01*
X156320685Y-119265000D02*
X155789314Y-119265000D01*
X153455000Y-118930685D02*
X153120685Y-119265000D01*
X167829970Y-134100000D02*
X167929971Y-133999999D01*
X162395675Y-132500001D02*
X162729990Y-132834316D01*
X154013037Y-136876610D02*
X154013039Y-136545238D01*
X151018930Y-141236399D02*
X151301771Y-140953556D01*
X163029988Y-134099999D02*
X163129989Y-133999998D01*
X172790000Y-124275685D02*
X172790000Y-123744314D01*
X172790000Y-126944314D02*
X173124315Y-126610000D01*
X159930000Y-132834316D02*
X160264315Y-132500001D01*
X155055000Y-118930685D02*
X154720685Y-119265000D01*
X161429994Y-134099999D02*
X161529995Y-133999998D01*
X164329983Y-133999998D02*
X164429984Y-134099999D01*
X150336088Y-140553560D02*
X151018930Y-141236399D01*
X158655000Y-118930685D02*
X158655000Y-117765000D01*
X156958616Y-135296711D02*
X156275775Y-134613872D01*
X167929971Y-133999999D02*
X167929971Y-133634315D01*
X154695878Y-137559449D02*
X154013037Y-136876610D01*
X163995669Y-132500001D02*
X164329984Y-132834316D01*
X174390000Y-124910000D02*
X174390000Y-124710000D01*
X174390000Y-126510000D02*
X174390000Y-126310000D01*
X166329976Y-132834317D02*
X166664291Y-132500002D01*
X166664291Y-132500002D02*
X167195657Y-132500002D01*
X154013039Y-136545238D02*
X154530194Y-136028083D01*
X173124315Y-125010000D02*
X174290000Y-125010000D01*
X148356192Y-142533455D02*
X148356194Y-142202083D01*
X167195657Y-132500002D02*
X167529972Y-132834317D01*
X164429984Y-134099999D02*
X164629982Y-134099999D01*
X151301771Y-140953556D02*
X150618930Y-140270717D01*
X174290000Y-124610000D02*
X173124315Y-124610000D01*
X153398825Y-137159452D02*
X153730195Y-137159453D01*
X155789314Y-119265000D02*
X155455000Y-118930685D01*
X153555000Y-117665000D02*
X153455000Y-117765000D01*
X149039033Y-143216294D02*
X148356192Y-142533455D01*
X155544406Y-136710923D02*
X155827247Y-136428080D01*
X160795681Y-132500001D02*
X161129996Y-132834316D01*
X173310000Y-111450000D02*
X170500000Y-111450000D01*
X161864309Y-132500001D02*
X162395675Y-132500001D01*
X167676741Y-113258112D02*
X167676741Y-113341419D01*
X152255000Y-117765000D02*
X152155000Y-117665000D01*
X147224825Y-143664823D02*
X147224825Y-143333453D01*
X173490000Y-127810000D02*
X173124315Y-127810000D01*
X150618932Y-139939345D02*
X151136087Y-139422190D01*
X138260000Y-122200000D02*
X138260000Y-124700000D01*
X169840000Y-133300000D02*
X173590000Y-129550000D01*
X152150299Y-140105030D02*
X152433140Y-139822187D01*
X155992933Y-134896715D02*
X156675775Y-135579554D01*
X173590000Y-129550000D02*
X173590000Y-127910000D01*
X173124315Y-126610000D02*
X174290000Y-126610000D01*
X160255000Y-117765000D02*
X160155000Y-117665000D01*
X154189314Y-119265000D02*
X153855000Y-118930685D01*
X151855000Y-118130686D02*
X151520685Y-118465000D01*
X172790000Y-122144314D02*
X173124315Y-121810000D01*
X164629982Y-134099999D02*
X164729983Y-133999998D01*
X175110000Y-117030000D02*
X175110000Y-113250000D01*
X157055000Y-117765000D02*
X156955000Y-117665000D01*
X174290000Y-126210000D02*
X173124315Y-126210000D01*
X156275777Y-134282500D02*
X156792932Y-133765345D01*
X156675775Y-135579554D02*
X156958616Y-135296711D01*
X173124315Y-124610000D02*
X172790000Y-124275685D01*
X151136087Y-139422190D02*
X151467457Y-139422191D01*
X173124315Y-120210000D02*
X173490000Y-120210000D01*
X173590000Y-127910000D02*
X173490000Y-127810000D01*
X153120685Y-119265000D02*
X152589314Y-119265000D01*
X139378201Y-118465000D02*
X137660000Y-120183202D01*
X158989314Y-119265000D02*
X158655000Y-118930685D01*
X156655000Y-118930685D02*
X156320685Y-119265000D01*
X173490000Y-120210000D02*
X173590000Y-120110000D01*
X155355000Y-117665000D02*
X155155000Y-117665000D01*
X174290000Y-126610000D02*
X174390000Y-126510000D01*
X173124315Y-123410000D02*
X174290000Y-123410000D01*
X155455000Y-118930685D02*
X155455000Y-117765000D01*
X168632842Y-113317156D02*
X168218164Y-113317156D01*
X152255000Y-118930685D02*
X152255000Y-117765000D01*
X156655000Y-117765000D02*
X156655000Y-118930685D01*
X172790000Y-122675685D02*
X172790000Y-122144314D01*
X174290000Y-121410000D02*
X173124315Y-121410000D01*
X151955000Y-117665000D02*
X151855000Y-117765000D01*
X162729990Y-132834316D02*
X162729989Y-133999998D01*
X155155000Y-117665000D02*
X155055000Y-117765000D01*
D19*
%TO.N,/sr_out3*%
X109260000Y-73200000D02*
X109260000Y-129700000D01*
X109260000Y-129700000D02*
X126260000Y-146700000D01*
X126260000Y-146700000D02*
X127160000Y-146700000D01*
%TO.N,/DAC_ThPMOS*%
X151260000Y-70750000D02*
X151235000Y-70750000D01*
X136260000Y-143700000D02*
X150260000Y-129700000D01*
X136260000Y-150900000D02*
X136260000Y-143700000D01*
X150260000Y-88700000D02*
X151260000Y-87700000D01*
X151260000Y-107693451D02*
X151260000Y-102700000D01*
X150260000Y-69775000D02*
X150260000Y-68700000D01*
X151260000Y-90800000D02*
X150260000Y-89800000D01*
X150260000Y-89800000D02*
X150260000Y-88700000D01*
X151260000Y-67700000D02*
X151260000Y-62700000D01*
X151260000Y-127793097D02*
X151260000Y-122700000D01*
X150260000Y-68700000D02*
X151260000Y-67700000D01*
X150260000Y-129700000D02*
X150260000Y-128793097D01*
X151260000Y-91100000D02*
X151260000Y-90800000D01*
X151235000Y-70750000D02*
X150260000Y-69775000D01*
X151260000Y-87700000D02*
X151260000Y-82700000D01*
X136510000Y-151150000D02*
X136260000Y-150900000D01*
X150260000Y-108693451D02*
X151260000Y-107693451D01*
X150260000Y-109700000D02*
X150260000Y-108693451D01*
X151260000Y-110750000D02*
X151260000Y-110700000D01*
X150260000Y-128793097D02*
X151260000Y-127793097D01*
X151260000Y-110700000D02*
X150260000Y-109700000D01*
D20*
%TO.N,VSSA*%
X127260000Y-83700000D02*
X126260000Y-84700000D01*
X127260000Y-103700000D02*
X127260000Y-89200000D01*
X126960000Y-128900000D02*
X126960000Y-127900000D01*
X127260000Y-122700000D02*
X127260000Y-109000000D01*
X127260000Y-129200000D02*
X126960000Y-128900000D01*
X126260000Y-88200000D02*
X126260000Y-87200000D01*
X126260000Y-67200000D02*
X126260000Y-63700000D01*
X126960000Y-127900000D02*
X126260000Y-127200000D01*
X126260000Y-123700000D02*
X127260000Y-122700000D01*
X126260000Y-104700000D02*
X127260000Y-103700000D01*
X127260000Y-69000000D02*
X126260000Y-68000000D01*
X126260000Y-63700000D02*
X127260000Y-62700000D01*
X127260000Y-82700000D02*
X127260000Y-69000000D01*
X127260000Y-89200000D02*
X126260000Y-88200000D01*
X126260000Y-107200000D02*
X126260000Y-104700000D01*
X126260000Y-127200000D02*
X126260000Y-124700000D01*
X126260000Y-68000000D02*
X126260000Y-67200000D01*
X127260000Y-82700000D02*
X127260000Y-83700000D01*
X126260000Y-108000000D02*
X126260000Y-107200000D01*
X127260000Y-109000000D02*
X126260000Y-108000000D01*
X126260000Y-87200000D02*
X126260000Y-84700000D01*
X126260000Y-124700000D02*
X126260000Y-123700000D01*
%TD*%
%TA.AperFunction,Conductor*%
%TO.N,GND*%
G36*
X115202121Y-147885002D02*
G01*
X115248614Y-147938658D01*
X115260000Y-147991000D01*
X115260000Y-149103510D01*
X115239998Y-149171631D01*
X115186342Y-149218124D01*
X115184615Y-149218897D01*
X115148363Y-149234798D01*
X114970681Y-149350883D01*
X114814534Y-149494626D01*
X114684167Y-149662122D01*
X114684166Y-149662123D01*
X114583149Y-149848786D01*
X114583148Y-149848789D01*
X114514235Y-150049524D01*
X114514233Y-150049531D01*
X114496782Y-150154110D01*
X114479300Y-150258878D01*
X114479300Y-150258881D01*
X114479300Y-150258882D01*
X114479300Y-156374000D01*
X114459298Y-156442121D01*
X114405642Y-156488614D01*
X114353300Y-156500000D01*
X114036000Y-156500000D01*
X113967879Y-156479998D01*
X113921386Y-156426342D01*
X113910000Y-156374000D01*
X113910000Y-152200003D01*
X113861714Y-151910284D01*
X113860000Y-151889570D01*
X113860000Y-147991000D01*
X113880002Y-147922879D01*
X113933658Y-147876386D01*
X113986000Y-147865000D01*
X115134000Y-147865000D01*
X115202121Y-147885002D01*
G37*
%TD.AperFunction*%
%TD*%
%TA.AperFunction,Conductor*%
%TO.N,VSSA*%
G36*
X113542621Y-148885002D02*
G01*
X113589114Y-148938658D01*
X113600499Y-148990999D01*
X113600500Y-151894927D01*
X113600942Y-151905631D01*
X113603540Y-151937024D01*
X113604864Y-151947659D01*
X113625007Y-152068526D01*
X113625007Y-152109950D01*
X113618433Y-152149399D01*
X113610000Y-152200000D01*
X113610000Y-152208276D01*
X113610000Y-156374000D01*
X113589998Y-156442121D01*
X113536342Y-156488614D01*
X113484000Y-156500000D01*
X113036000Y-156500000D01*
X112967879Y-156479998D01*
X112921386Y-156426342D01*
X112910000Y-156374000D01*
X112910000Y-156238998D01*
X112910000Y-152000000D01*
X112909999Y-152000000D01*
X112910000Y-151900000D01*
X112810001Y-151900000D01*
X112709998Y-151900000D01*
X112610000Y-151900000D01*
X112610000Y-151999998D01*
X112610000Y-156374000D01*
X112589998Y-156442121D01*
X112536342Y-156488614D01*
X112484000Y-156500000D01*
X112036000Y-156500000D01*
X111967879Y-156479998D01*
X111921386Y-156426342D01*
X111910000Y-156374000D01*
X111910000Y-156282797D01*
X111911282Y-156264867D01*
X111915001Y-156239000D01*
X111915000Y-152254813D01*
X111935002Y-152186693D01*
X111941184Y-152178120D01*
X111942053Y-152176794D01*
X111942054Y-152176791D01*
X111942058Y-152176787D01*
X111942326Y-152176273D01*
X111945789Y-152170437D01*
X111959855Y-152149399D01*
X111960409Y-152143246D01*
X111965990Y-152131034D01*
X111988984Y-152087077D01*
X111988984Y-152087076D01*
X111988987Y-152087071D01*
X112008989Y-152018950D01*
X112019500Y-151945841D01*
X112019500Y-149047566D01*
X112039502Y-148979445D01*
X112061208Y-148953913D01*
X112122880Y-148898407D01*
X112141306Y-148884649D01*
X112142612Y-148883849D01*
X112185564Y-148867373D01*
X112187071Y-148867094D01*
X112209946Y-148865000D01*
X113474500Y-148865000D01*
X113542621Y-148885002D01*
G37*
%TD.AperFunction*%
%TD*%
%TA.AperFunction,Conductor*%
%TO.N,VDDA*%
G36*
X111702121Y-148885002D02*
G01*
X111748614Y-148938658D01*
X111760000Y-148991000D01*
X111760000Y-151945841D01*
X111739998Y-152013962D01*
X111729735Y-152026698D01*
X111670266Y-152115697D01*
X111655500Y-152189930D01*
X111655500Y-152189934D01*
X111655501Y-156239000D01*
X111635499Y-156307121D01*
X111581843Y-156353614D01*
X111529501Y-156365000D01*
X109990500Y-156365000D01*
X109922379Y-156344998D01*
X109875886Y-156291342D01*
X109864500Y-156239000D01*
X109864499Y-152189936D01*
X109864498Y-152189927D01*
X109859644Y-152165527D01*
X109849734Y-152115699D01*
X109849733Y-152115698D01*
X109849734Y-152115698D01*
X109786590Y-152021199D01*
X109788649Y-152019822D01*
X109762877Y-151972613D01*
X109760000Y-151945841D01*
X109760000Y-151631936D01*
X109769591Y-151583718D01*
X109785358Y-151545653D01*
X109800228Y-151509754D01*
X109819285Y-151365000D01*
X109800228Y-151220246D01*
X109769589Y-151146279D01*
X109760000Y-151098068D01*
X109760000Y-150631930D01*
X109769591Y-150583717D01*
X109800228Y-150509754D01*
X109819285Y-150365000D01*
X109800228Y-150220246D01*
X109769589Y-150146279D01*
X109760000Y-150098068D01*
X109760000Y-149631930D01*
X109769591Y-149583717D01*
X109800228Y-149509754D01*
X109819285Y-149365000D01*
X109800228Y-149220246D01*
X109789106Y-149193396D01*
X109769591Y-149146280D01*
X109760000Y-149098063D01*
X109760000Y-148991000D01*
X109780002Y-148922879D01*
X109833658Y-148876386D01*
X109886000Y-148865000D01*
X111634000Y-148865000D01*
X111702121Y-148885002D01*
G37*
%TD.AperFunction*%
%TD*%
%TA.AperFunction,Conductor*%
%TO.N,/POW4_in*%
G36*
X109442621Y-148885002D02*
G01*
X109489114Y-148938658D01*
X109500500Y-148991000D01*
X109500500Y-149098071D01*
X109505484Y-149148672D01*
X109505486Y-149148689D01*
X109505487Y-149148694D01*
X109505488Y-149148699D01*
X109515073Y-149196893D01*
X109515076Y-149196902D01*
X109515077Y-149196906D01*
X109515078Y-149196909D01*
X109529844Y-149245589D01*
X109541059Y-149272662D01*
X109549572Y-149304434D01*
X109555380Y-149348552D01*
X109555380Y-149381444D01*
X109549572Y-149425562D01*
X109541060Y-149457332D01*
X109529846Y-149484405D01*
X109515079Y-149533082D01*
X109505485Y-149581308D01*
X109500500Y-149631923D01*
X109500500Y-150098082D01*
X109505484Y-150148682D01*
X109505488Y-150148709D01*
X109515072Y-150196894D01*
X109529841Y-150245583D01*
X109529842Y-150245586D01*
X109541059Y-150272665D01*
X109549571Y-150304435D01*
X109554235Y-150339858D01*
X109555380Y-150348551D01*
X109555380Y-150381444D01*
X109549572Y-150425562D01*
X109541060Y-150457332D01*
X109529846Y-150484405D01*
X109515079Y-150533082D01*
X109505485Y-150581308D01*
X109500500Y-150631923D01*
X109500500Y-151098082D01*
X109505484Y-151148682D01*
X109505488Y-151148709D01*
X109515072Y-151196894D01*
X109529841Y-151245583D01*
X109529842Y-151245586D01*
X109541059Y-151272665D01*
X109549571Y-151304435D01*
X109554235Y-151339858D01*
X109555380Y-151348551D01*
X109555380Y-151381446D01*
X109549571Y-151425565D01*
X109541060Y-151457330D01*
X109529847Y-151484403D01*
X109529842Y-151484416D01*
X109515076Y-151533093D01*
X109515074Y-151533103D01*
X109505486Y-151581309D01*
X109505485Y-151581317D01*
X109500500Y-151631927D01*
X109500500Y-151952788D01*
X109501244Y-151966672D01*
X109501244Y-151966673D01*
X109504862Y-152000340D01*
X109535106Y-152096955D01*
X109535107Y-152096957D01*
X109564077Y-152150024D01*
X109566984Y-152156099D01*
X109570826Y-152165372D01*
X109578166Y-152176356D01*
X109579727Y-152178936D01*
X109581025Y-152180636D01*
X109583749Y-152184712D01*
X109584739Y-152187873D01*
X109585901Y-152190000D01*
X109585478Y-152190230D01*
X109604977Y-152252460D01*
X109604998Y-152254734D01*
X109605000Y-156239000D01*
X109584998Y-156307121D01*
X109531342Y-156353614D01*
X109479000Y-156365000D01*
X108041001Y-156365000D01*
X107972880Y-156344998D01*
X107926387Y-156291342D01*
X107915001Y-156239000D01*
X107915000Y-152254813D01*
X107935002Y-152186692D01*
X107941171Y-152178139D01*
X107942048Y-152176799D01*
X107942050Y-152176794D01*
X107942058Y-152176785D01*
X107942334Y-152176255D01*
X107945779Y-152170448D01*
X107959856Y-152149386D01*
X107960413Y-152143226D01*
X107965971Y-152131067D01*
X107988986Y-152087071D01*
X108008988Y-152018950D01*
X108019499Y-151945841D01*
X108019499Y-151631934D01*
X108014513Y-151581308D01*
X108004922Y-151533091D01*
X107990155Y-151484412D01*
X107978939Y-151457335D01*
X107970427Y-151425568D01*
X107965619Y-151389049D01*
X107964618Y-151381442D01*
X107964618Y-151348552D01*
X107970426Y-151304436D01*
X107970427Y-151304428D01*
X107978939Y-151272663D01*
X107990156Y-151245584D01*
X108004922Y-151196908D01*
X108014513Y-151148692D01*
X108019499Y-151098065D01*
X108019499Y-150631934D01*
X108014513Y-150581308D01*
X108004922Y-150533091D01*
X107990155Y-150484412D01*
X107978938Y-150457332D01*
X107970427Y-150425568D01*
X107964618Y-150381442D01*
X107964618Y-150348552D01*
X107970426Y-150304436D01*
X107970427Y-150304428D01*
X107978939Y-150272663D01*
X107990156Y-150245584D01*
X108004922Y-150196908D01*
X108014513Y-150148692D01*
X108019499Y-150098065D01*
X108019499Y-149631934D01*
X108014513Y-149581308D01*
X108004922Y-149533091D01*
X107990155Y-149484412D01*
X107978938Y-149457332D01*
X107970427Y-149425568D01*
X107964618Y-149381442D01*
X107964618Y-149348552D01*
X107970427Y-149304428D01*
X107978940Y-149272662D01*
X107990156Y-149245584D01*
X108004921Y-149196909D01*
X108014512Y-149148694D01*
X108019499Y-149098068D01*
X108019500Y-148991003D01*
X108019500Y-148990999D01*
X108039503Y-148922878D01*
X108093159Y-148876386D01*
X108145500Y-148865000D01*
X109374500Y-148865000D01*
X109442621Y-148885002D01*
G37*
%TD.AperFunction*%
%TD*%
%TA.AperFunction,Conductor*%
%TO.N,/VDD18_in*%
G36*
X107702121Y-148885002D02*
G01*
X107748614Y-148938658D01*
X107760000Y-148991001D01*
X107759999Y-149098066D01*
X107750408Y-149146281D01*
X107719773Y-149220242D01*
X107719771Y-149220248D01*
X107700715Y-149364999D01*
X107700715Y-149365000D01*
X107719772Y-149509754D01*
X107750408Y-149583717D01*
X107759999Y-149631934D01*
X107759999Y-150098065D01*
X107750408Y-150146281D01*
X107719773Y-150220242D01*
X107719771Y-150220248D01*
X107700715Y-150364999D01*
X107700715Y-150365000D01*
X107719772Y-150509754D01*
X107750408Y-150583717D01*
X107759999Y-150631934D01*
X107759999Y-151098065D01*
X107750408Y-151146281D01*
X107719773Y-151220242D01*
X107719771Y-151220248D01*
X107700715Y-151364999D01*
X107700715Y-151365000D01*
X107719772Y-151509754D01*
X107750408Y-151583717D01*
X107759999Y-151631934D01*
X107759999Y-151945841D01*
X107739997Y-152013962D01*
X107729735Y-152026697D01*
X107670266Y-152115697D01*
X107655500Y-152189930D01*
X107655500Y-152189934D01*
X107655501Y-156239000D01*
X107635499Y-156307121D01*
X107581843Y-156353614D01*
X107529501Y-156365000D01*
X105990500Y-156365000D01*
X105922379Y-156344998D01*
X105875886Y-156291342D01*
X105864500Y-156239000D01*
X105864499Y-152189936D01*
X105864498Y-152189927D01*
X105859644Y-152165527D01*
X105849734Y-152115699D01*
X105849733Y-152115698D01*
X105849734Y-152115698D01*
X105786590Y-152021199D01*
X105788649Y-152019822D01*
X105762877Y-151972613D01*
X105760000Y-151945841D01*
X105760000Y-148991000D01*
X105780002Y-148922879D01*
X105833658Y-148876386D01*
X105886000Y-148865000D01*
X107634000Y-148865000D01*
X107702121Y-148885002D01*
G37*
%TD.AperFunction*%
%TD*%
M02*
