%TF.GenerationSoftware,KiCad,Pcbnew,(6.0.10)*%
%TF.CreationDate,2023-01-27T03:25:04+09:00*%
%TF.ProjectId,AstroPix_telescope,41737472-6f50-4697-985f-74656c657363,1.1*%
%TF.SameCoordinates,Original*%
%TF.FileFunction,Profile,NP*%
%FSLAX46Y46*%
G04 Gerber Fmt 4.6, Leading zero omitted, Abs format (unit mm)*
G04 Created by KiCad (PCBNEW (6.0.10)) date 2023-01-27 03:25:04*
%MOMM*%
%LPD*%
G01*
G04 APERTURE LIST*
%TA.AperFunction,Profile*%
%ADD10C,0.100000*%
%TD*%
G04 APERTURE END LIST*
D10*
X185800000Y-49050000D02*
X187910000Y-50930000D01*
X166375000Y-49050000D02*
X185800000Y-49050000D01*
X164698000Y-48367000D02*
X166375000Y-49050000D01*
X160175000Y-49025000D02*
X161650000Y-48367000D01*
X131050000Y-49025000D02*
X160175000Y-49025000D01*
X129756000Y-48479500D02*
X131050000Y-49025000D01*
X125300000Y-49050000D02*
X126708000Y-48479500D01*
X105250000Y-49050000D02*
X125300000Y-49050000D01*
X103622000Y-50800000D02*
X105250000Y-49050000D01*
X125946000Y-47209500D02*
X126708000Y-48479500D01*
X105372000Y-47209500D02*
X103848000Y-45431500D01*
X105372000Y-29937500D02*
X103848000Y-31715500D01*
X125946000Y-29937500D02*
X105372000Y-29937500D01*
X129756000Y-28667500D02*
X126708000Y-28667500D01*
X134836000Y-29937500D02*
X130518000Y-29937500D01*
X125946000Y-47209500D02*
X105372000Y-47209500D01*
X130518000Y-47209500D02*
X134836000Y-47209500D01*
X134836000Y-47209500D02*
X134836000Y-29937500D01*
X130518000Y-29937500D02*
X129756000Y-28667500D01*
X126708000Y-28667500D02*
X125946000Y-29937500D01*
X103848000Y-31715500D02*
X103848000Y-45431500D01*
X129756000Y-48479500D02*
X130518000Y-47209500D01*
X186034000Y-29825000D02*
X187558000Y-31603000D01*
X187558000Y-45319000D02*
X187558000Y-31603000D01*
X186034000Y-47097000D02*
X187558000Y-45319000D01*
X164698000Y-28555000D02*
X161650000Y-28555000D01*
X164698000Y-48367000D02*
X165460000Y-47097000D01*
X165460000Y-29825000D02*
X186034000Y-29825000D01*
X160888000Y-29825000D02*
X156570000Y-29825000D01*
X156570000Y-29825000D02*
X156570000Y-47097000D01*
X161650000Y-28555000D02*
X160888000Y-29825000D01*
X165460000Y-29825000D02*
X164698000Y-28555000D01*
X156570000Y-47097000D02*
X160888000Y-47097000D01*
X160888000Y-47097000D02*
X161650000Y-48367000D01*
X165460000Y-47097000D02*
X186034000Y-47097000D01*
X187910000Y-50930000D02*
X187910000Y-53086000D01*
X103622000Y-50800000D02*
X103622000Y-51689000D01*
X103622000Y-51689000D02*
X103610000Y-53365000D01*
X187910000Y-53086000D02*
X187910000Y-53365000D01*
X187910000Y-149415000D02*
X187910000Y-53365000D01*
X103610000Y-149415000D02*
X103610000Y-53365000D01*
%TO.C,P1*%
X114810000Y-150365000D02*
X114810000Y-157315000D01*
X116710000Y-157315000D02*
X117210000Y-157815000D01*
X187910000Y-157315000D02*
X187410000Y-157815000D01*
X103610000Y-157315000D02*
X104110000Y-157815000D01*
X103610000Y-149415000D02*
X103610000Y-157315000D01*
X104110000Y-157815000D02*
X114310000Y-157815000D01*
X117210000Y-157815000D02*
X187410000Y-157815000D01*
X116710000Y-150365000D02*
X116710000Y-157315000D01*
X114810000Y-157315000D02*
X114310000Y-157815000D01*
X187910000Y-149415000D02*
X187910000Y-157315000D01*
X116710000Y-150365000D02*
G75*
G03*
X114810000Y-150365000I-950000J0D01*
G01*
%TD*%
M02*
