%TF.GenerationSoftware,KiCad,Pcbnew,(6.0.10)*%
%TF.CreationDate,2023-01-27T03:25:04+09:00*%
%TF.ProjectId,AstroPix_telescope,41737472-6f50-4697-985f-74656c657363,1.1*%
%TF.SameCoordinates,Original*%
%TF.FileFunction,Legend,Bot*%
%TF.FilePolarity,Positive*%
%FSLAX46Y46*%
G04 Gerber Fmt 4.6, Leading zero omitted, Abs format (unit mm)*
G04 Created by KiCad (PCBNEW (6.0.10)) date 2023-01-27 03:25:04*
%MOMM*%
%LPD*%
G01*
G04 APERTURE LIST*
%ADD10C,0.150000*%
%ADD11C,0.095250*%
%ADD12C,0.200000*%
G04 APERTURE END LIST*
D10*
X111190904Y-44545833D02*
X111667095Y-44545833D01*
X111095666Y-44260119D02*
X111429000Y-45260119D01*
X111762333Y-44260119D01*
X112048047Y-44307738D02*
X112143285Y-44260119D01*
X112333761Y-44260119D01*
X112429000Y-44307738D01*
X112476619Y-44402976D01*
X112476619Y-44450595D01*
X112429000Y-44545833D01*
X112333761Y-44593452D01*
X112190904Y-44593452D01*
X112095666Y-44641071D01*
X112048047Y-44736309D01*
X112048047Y-44783928D01*
X112095666Y-44879166D01*
X112190904Y-44926785D01*
X112333761Y-44926785D01*
X112429000Y-44879166D01*
X112762333Y-44926785D02*
X113143285Y-44926785D01*
X112905190Y-45260119D02*
X112905190Y-44402976D01*
X112952809Y-44307738D01*
X113048047Y-44260119D01*
X113143285Y-44260119D01*
X113476619Y-44260119D02*
X113476619Y-44926785D01*
X113476619Y-44736309D02*
X113524238Y-44831547D01*
X113571857Y-44879166D01*
X113667095Y-44926785D01*
X113762333Y-44926785D01*
X114238523Y-44260119D02*
X114143285Y-44307738D01*
X114095666Y-44355357D01*
X114048047Y-44450595D01*
X114048047Y-44736309D01*
X114095666Y-44831547D01*
X114143285Y-44879166D01*
X114238523Y-44926785D01*
X114381380Y-44926785D01*
X114476619Y-44879166D01*
X114524238Y-44831547D01*
X114571857Y-44736309D01*
X114571857Y-44450595D01*
X114524238Y-44355357D01*
X114476619Y-44307738D01*
X114381380Y-44260119D01*
X114238523Y-44260119D01*
X115000428Y-44926785D02*
X115000428Y-43926785D01*
X115000428Y-44879166D02*
X115095666Y-44926785D01*
X115286142Y-44926785D01*
X115381380Y-44879166D01*
X115429000Y-44831547D01*
X115476619Y-44736309D01*
X115476619Y-44450595D01*
X115429000Y-44355357D01*
X115381380Y-44307738D01*
X115286142Y-44260119D01*
X115095666Y-44260119D01*
X115000428Y-44307738D01*
X115905190Y-44260119D02*
X115905190Y-44926785D01*
X115905190Y-45260119D02*
X115857571Y-45212500D01*
X115905190Y-45164880D01*
X115952809Y-45212500D01*
X115905190Y-45260119D01*
X115905190Y-45164880D01*
X116286142Y-44260119D02*
X116809952Y-44926785D01*
X116286142Y-44926785D02*
X116809952Y-44260119D01*
X117809952Y-45260119D02*
X118381380Y-45260119D01*
X118095666Y-44260119D02*
X118095666Y-45260119D01*
X118714714Y-44260119D02*
X118714714Y-44926785D01*
X118714714Y-44736309D02*
X118762333Y-44831547D01*
X118809952Y-44879166D01*
X118905190Y-44926785D01*
X119000428Y-44926785D01*
X119333761Y-44260119D02*
X119333761Y-44926785D01*
X119333761Y-45260119D02*
X119286142Y-45212500D01*
X119333761Y-45164880D01*
X119381380Y-45212500D01*
X119333761Y-45260119D01*
X119333761Y-45164880D01*
X120238523Y-44926785D02*
X120238523Y-44117261D01*
X120190904Y-44022023D01*
X120143285Y-43974404D01*
X120048047Y-43926785D01*
X119905190Y-43926785D01*
X119809952Y-43974404D01*
X120238523Y-44307738D02*
X120143285Y-44260119D01*
X119952809Y-44260119D01*
X119857571Y-44307738D01*
X119809952Y-44355357D01*
X119762333Y-44450595D01*
X119762333Y-44736309D01*
X119809952Y-44831547D01*
X119857571Y-44879166D01*
X119952809Y-44926785D01*
X120143285Y-44926785D01*
X120238523Y-44879166D01*
X121143285Y-44926785D02*
X121143285Y-44117261D01*
X121095666Y-44022023D01*
X121048047Y-43974404D01*
X120952809Y-43926785D01*
X120809952Y-43926785D01*
X120714714Y-43974404D01*
X121143285Y-44307738D02*
X121048047Y-44260119D01*
X120857571Y-44260119D01*
X120762333Y-44307738D01*
X120714714Y-44355357D01*
X120667095Y-44450595D01*
X120667095Y-44736309D01*
X120714714Y-44831547D01*
X120762333Y-44879166D01*
X120857571Y-44926785D01*
X121048047Y-44926785D01*
X121143285Y-44879166D01*
X122000428Y-44307738D02*
X121905190Y-44260119D01*
X121714714Y-44260119D01*
X121619476Y-44307738D01*
X121571857Y-44402976D01*
X121571857Y-44783928D01*
X121619476Y-44879166D01*
X121714714Y-44926785D01*
X121905190Y-44926785D01*
X122000428Y-44879166D01*
X122048047Y-44783928D01*
X122048047Y-44688690D01*
X121571857Y-44593452D01*
X122476619Y-44260119D02*
X122476619Y-44926785D01*
X122476619Y-44736309D02*
X122524238Y-44831547D01*
X122571857Y-44879166D01*
X122667095Y-44926785D01*
X122762333Y-44926785D01*
X115405190Y-43650119D02*
X115738523Y-42650119D01*
X116071857Y-43650119D01*
X116928999Y-42650119D02*
X116357571Y-42650119D01*
X116643285Y-42650119D02*
X116643285Y-43650119D01*
X116548047Y-43507261D01*
X116452809Y-43412023D01*
X116357571Y-43364404D01*
X117357571Y-42745357D02*
X117405190Y-42697738D01*
X117357571Y-42650119D01*
X117309952Y-42697738D01*
X117357571Y-42745357D01*
X117357571Y-42650119D01*
X118024238Y-43650119D02*
X118119476Y-43650119D01*
X118214714Y-43602500D01*
X118262333Y-43554880D01*
X118309952Y-43459642D01*
X118357571Y-43269166D01*
X118357571Y-43031071D01*
X118309952Y-42840595D01*
X118262333Y-42745357D01*
X118214714Y-42697738D01*
X118119476Y-42650119D01*
X118024238Y-42650119D01*
X117928999Y-42697738D01*
X117881380Y-42745357D01*
X117833761Y-42840595D01*
X117786142Y-43031071D01*
X117786142Y-43269166D01*
X117833761Y-43459642D01*
X117881380Y-43554880D01*
X117928999Y-43602500D01*
X118024238Y-43650119D01*
X124295000Y-40224500D02*
X124295000Y-40859500D01*
X123406000Y-41748500D02*
X123787000Y-42129500D01*
X124676000Y-42129500D02*
X124295000Y-42510500D01*
X124041000Y-40224500D02*
X123787000Y-40224500D01*
X124549000Y-42510500D02*
X124041000Y-43018500D01*
X124803000Y-40859500D02*
X124295000Y-41367500D01*
X124295000Y-41748500D02*
X124676000Y-41748500D01*
X123406000Y-42129500D02*
X123787000Y-42510500D01*
X123787000Y-40859500D02*
X123279000Y-40859500D01*
X123533000Y-42510500D02*
X124041000Y-43018500D01*
X124676000Y-41367500D02*
X124295000Y-41748500D01*
X123787000Y-42129500D02*
X123406000Y-42129500D01*
X124295000Y-40859500D02*
X124803000Y-40859500D01*
X124295000Y-42510500D02*
X124549000Y-42510500D01*
X123787000Y-41367500D02*
X123406000Y-41367500D01*
X124295000Y-42129500D02*
X124676000Y-42129500D01*
X124041000Y-40224500D02*
X124295000Y-40224500D01*
X123279000Y-40859500D02*
X123787000Y-41367500D01*
X123787000Y-41748500D02*
X123406000Y-41748500D01*
X124676000Y-41748500D02*
X124295000Y-42129500D01*
X123787000Y-42510500D02*
X123533000Y-42510500D01*
X123787000Y-40224500D02*
X123787000Y-40859500D01*
X123406000Y-41367500D02*
X123787000Y-41748500D01*
X124295000Y-41367500D02*
X124676000Y-41367500D01*
D11*
X125138642Y-42771847D02*
X125138642Y-42463419D01*
X125156785Y-42427133D01*
X125174928Y-42408990D01*
X125211214Y-42390847D01*
X125283785Y-42390847D01*
X125320071Y-42408990D01*
X125338214Y-42427133D01*
X125356357Y-42463419D01*
X125356357Y-42771847D01*
X125537785Y-42644847D02*
X125537785Y-42390847D01*
X125537785Y-42608562D02*
X125555928Y-42626705D01*
X125592214Y-42644847D01*
X125646642Y-42644847D01*
X125682928Y-42626705D01*
X125701071Y-42590419D01*
X125701071Y-42390847D01*
X125882500Y-42390847D02*
X125882500Y-42644847D01*
X125882500Y-42771847D02*
X125864357Y-42753705D01*
X125882500Y-42735562D01*
X125900642Y-42753705D01*
X125882500Y-42771847D01*
X125882500Y-42735562D01*
X126027642Y-42644847D02*
X126118357Y-42390847D01*
X126209071Y-42644847D01*
X126499357Y-42408990D02*
X126463071Y-42390847D01*
X126390500Y-42390847D01*
X126354214Y-42408990D01*
X126336071Y-42445276D01*
X126336071Y-42590419D01*
X126354214Y-42626705D01*
X126390500Y-42644847D01*
X126463071Y-42644847D01*
X126499357Y-42626705D01*
X126517500Y-42590419D01*
X126517500Y-42554133D01*
X126336071Y-42517847D01*
X126680785Y-42390847D02*
X126680785Y-42644847D01*
X126680785Y-42572276D02*
X126698928Y-42608562D01*
X126717071Y-42626705D01*
X126753357Y-42644847D01*
X126789642Y-42644847D01*
X126898500Y-42408990D02*
X126934785Y-42390847D01*
X127007357Y-42390847D01*
X127043642Y-42408990D01*
X127061785Y-42445276D01*
X127061785Y-42463419D01*
X127043642Y-42499705D01*
X127007357Y-42517847D01*
X126952928Y-42517847D01*
X126916642Y-42535990D01*
X126898500Y-42572276D01*
X126898500Y-42590419D01*
X126916642Y-42626705D01*
X126952928Y-42644847D01*
X127007357Y-42644847D01*
X127043642Y-42626705D01*
X127225071Y-42390847D02*
X127225071Y-42644847D01*
X127225071Y-42771847D02*
X127206928Y-42753705D01*
X127225071Y-42735562D01*
X127243214Y-42753705D01*
X127225071Y-42771847D01*
X127225071Y-42735562D01*
X127352071Y-42644847D02*
X127497214Y-42644847D01*
X127406500Y-42771847D02*
X127406500Y-42445276D01*
X127424642Y-42408990D01*
X127460928Y-42390847D01*
X127497214Y-42390847D01*
X127587928Y-42644847D02*
X127678642Y-42390847D01*
X127769357Y-42644847D02*
X127678642Y-42390847D01*
X127642357Y-42300133D01*
X127624214Y-42281990D01*
X127587928Y-42263847D01*
X128259214Y-42390847D02*
X128222928Y-42408990D01*
X128204785Y-42427133D01*
X128186642Y-42463419D01*
X128186642Y-42572276D01*
X128204785Y-42608562D01*
X128222928Y-42626705D01*
X128259214Y-42644847D01*
X128313642Y-42644847D01*
X128349928Y-42626705D01*
X128368071Y-42608562D01*
X128386214Y-42572276D01*
X128386214Y-42463419D01*
X128368071Y-42427133D01*
X128349928Y-42408990D01*
X128313642Y-42390847D01*
X128259214Y-42390847D01*
X128495071Y-42644847D02*
X128640214Y-42644847D01*
X128549500Y-42390847D02*
X128549500Y-42717419D01*
X128567642Y-42753705D01*
X128603928Y-42771847D01*
X128640214Y-42771847D01*
X129275214Y-42427133D02*
X129257071Y-42408990D01*
X129202642Y-42390847D01*
X129166357Y-42390847D01*
X129111928Y-42408990D01*
X129075642Y-42445276D01*
X129057500Y-42481562D01*
X129039357Y-42554133D01*
X129039357Y-42608562D01*
X129057500Y-42681133D01*
X129075642Y-42717419D01*
X129111928Y-42753705D01*
X129166357Y-42771847D01*
X129202642Y-42771847D01*
X129257071Y-42753705D01*
X129275214Y-42735562D01*
X129601785Y-42390847D02*
X129601785Y-42590419D01*
X129583642Y-42626705D01*
X129547357Y-42644847D01*
X129474785Y-42644847D01*
X129438500Y-42626705D01*
X129601785Y-42408990D02*
X129565500Y-42390847D01*
X129474785Y-42390847D01*
X129438500Y-42408990D01*
X129420357Y-42445276D01*
X129420357Y-42481562D01*
X129438500Y-42517847D01*
X129474785Y-42535990D01*
X129565500Y-42535990D01*
X129601785Y-42554133D01*
X129837642Y-42390847D02*
X129801357Y-42408990D01*
X129783214Y-42445276D01*
X129783214Y-42771847D01*
X129982785Y-42390847D02*
X129982785Y-42644847D01*
X129982785Y-42771847D02*
X129964642Y-42753705D01*
X129982785Y-42735562D01*
X130000928Y-42753705D01*
X129982785Y-42771847D01*
X129982785Y-42735562D01*
X130109785Y-42644847D02*
X130254928Y-42644847D01*
X130164214Y-42390847D02*
X130164214Y-42717419D01*
X130182357Y-42753705D01*
X130218642Y-42771847D01*
X130254928Y-42771847D01*
X130436357Y-42390847D02*
X130400071Y-42408990D01*
X130381928Y-42427133D01*
X130363785Y-42463419D01*
X130363785Y-42572276D01*
X130381928Y-42608562D01*
X130400071Y-42626705D01*
X130436357Y-42644847D01*
X130490785Y-42644847D01*
X130527071Y-42626705D01*
X130545214Y-42608562D01*
X130563357Y-42572276D01*
X130563357Y-42463419D01*
X130545214Y-42427133D01*
X130527071Y-42408990D01*
X130490785Y-42390847D01*
X130436357Y-42390847D01*
X130726642Y-42390847D02*
X130726642Y-42644847D01*
X130726642Y-42572276D02*
X130744785Y-42608562D01*
X130762928Y-42626705D01*
X130799214Y-42644847D01*
X130835500Y-42644847D01*
X130962500Y-42644847D02*
X130962500Y-42390847D01*
X130962500Y-42608562D02*
X130980642Y-42626705D01*
X131016928Y-42644847D01*
X131071357Y-42644847D01*
X131107642Y-42626705D01*
X131125785Y-42590419D01*
X131125785Y-42390847D01*
X131307214Y-42390847D02*
X131307214Y-42644847D01*
X131307214Y-42771847D02*
X131289071Y-42753705D01*
X131307214Y-42735562D01*
X131325357Y-42753705D01*
X131307214Y-42771847D01*
X131307214Y-42735562D01*
X131651928Y-42390847D02*
X131651928Y-42590419D01*
X131633785Y-42626705D01*
X131597500Y-42644847D01*
X131524928Y-42644847D01*
X131488642Y-42626705D01*
X131651928Y-42408990D02*
X131615642Y-42390847D01*
X131524928Y-42390847D01*
X131488642Y-42408990D01*
X131470500Y-42445276D01*
X131470500Y-42481562D01*
X131488642Y-42517847D01*
X131524928Y-42535990D01*
X131615642Y-42535990D01*
X131651928Y-42554133D01*
X131833357Y-42427133D02*
X131851500Y-42408990D01*
X131833357Y-42390847D01*
X131815214Y-42408990D01*
X131833357Y-42427133D01*
X131833357Y-42390847D01*
X131833357Y-42626705D02*
X131851500Y-42608562D01*
X131833357Y-42590419D01*
X131815214Y-42608562D01*
X131833357Y-42626705D01*
X131833357Y-42590419D01*
X126971071Y-41795580D02*
X127025500Y-41777437D01*
X127116214Y-41777437D01*
X127152500Y-41795580D01*
X127170642Y-41813723D01*
X127188785Y-41850009D01*
X127188785Y-41886295D01*
X127170642Y-41922580D01*
X127152500Y-41940723D01*
X127116214Y-41958866D01*
X127043642Y-41977009D01*
X127007357Y-41995152D01*
X126989214Y-42013295D01*
X126971071Y-42049580D01*
X126971071Y-42085866D01*
X126989214Y-42122152D01*
X127007357Y-42140295D01*
X127043642Y-42158437D01*
X127134357Y-42158437D01*
X127188785Y-42140295D01*
X127515357Y-41777437D02*
X127515357Y-41977009D01*
X127497214Y-42013295D01*
X127460928Y-42031437D01*
X127388357Y-42031437D01*
X127352071Y-42013295D01*
X127515357Y-41795580D02*
X127479071Y-41777437D01*
X127388357Y-41777437D01*
X127352071Y-41795580D01*
X127333928Y-41831866D01*
X127333928Y-41868152D01*
X127352071Y-41904437D01*
X127388357Y-41922580D01*
X127479071Y-41922580D01*
X127515357Y-41940723D01*
X127696785Y-42031437D02*
X127696785Y-41777437D01*
X127696785Y-41995152D02*
X127714928Y-42013295D01*
X127751214Y-42031437D01*
X127805642Y-42031437D01*
X127841928Y-42013295D01*
X127860071Y-41977009D01*
X127860071Y-41777437D01*
X127987071Y-42031437D02*
X128132214Y-42031437D01*
X128041500Y-42158437D02*
X128041500Y-41831866D01*
X128059642Y-41795580D01*
X128095928Y-41777437D01*
X128132214Y-41777437D01*
X128422500Y-41777437D02*
X128422500Y-41977009D01*
X128404357Y-42013295D01*
X128368071Y-42031437D01*
X128295500Y-42031437D01*
X128259214Y-42013295D01*
X128422500Y-41795580D02*
X128386214Y-41777437D01*
X128295500Y-41777437D01*
X128259214Y-41795580D01*
X128241071Y-41831866D01*
X128241071Y-41868152D01*
X128259214Y-41904437D01*
X128295500Y-41922580D01*
X128386214Y-41922580D01*
X128422500Y-41940723D01*
X129111928Y-41813723D02*
X129093785Y-41795580D01*
X129039357Y-41777437D01*
X129003071Y-41777437D01*
X128948642Y-41795580D01*
X128912357Y-41831866D01*
X128894214Y-41868152D01*
X128876071Y-41940723D01*
X128876071Y-41995152D01*
X128894214Y-42067723D01*
X128912357Y-42104009D01*
X128948642Y-42140295D01*
X129003071Y-42158437D01*
X129039357Y-42158437D01*
X129093785Y-42140295D01*
X129111928Y-42122152D01*
X129275214Y-41777437D02*
X129275214Y-42031437D01*
X129275214Y-41958866D02*
X129293357Y-41995152D01*
X129311500Y-42013295D01*
X129347785Y-42031437D01*
X129384071Y-42031437D01*
X129674357Y-42031437D02*
X129674357Y-41777437D01*
X129511071Y-42031437D02*
X129511071Y-41831866D01*
X129529214Y-41795580D01*
X129565500Y-41777437D01*
X129619928Y-41777437D01*
X129656214Y-41795580D01*
X129674357Y-41813723D01*
X129819500Y-42031437D02*
X130019071Y-42031437D01*
X129819500Y-41777437D01*
X130019071Y-41777437D01*
X166267357Y-34262652D02*
X166267357Y-34571080D01*
X166249214Y-34607366D01*
X166231071Y-34625509D01*
X166194785Y-34643652D01*
X166122214Y-34643652D01*
X166085928Y-34625509D01*
X166067785Y-34607366D01*
X166049642Y-34571080D01*
X166049642Y-34262652D01*
X165868214Y-34389652D02*
X165868214Y-34643652D01*
X165868214Y-34425937D02*
X165850071Y-34407795D01*
X165813785Y-34389652D01*
X165759357Y-34389652D01*
X165723071Y-34407795D01*
X165704928Y-34444080D01*
X165704928Y-34643652D01*
X165523500Y-34643652D02*
X165523500Y-34389652D01*
X165523500Y-34262652D02*
X165541642Y-34280795D01*
X165523500Y-34298937D01*
X165505357Y-34280795D01*
X165523500Y-34262652D01*
X165523500Y-34298937D01*
X165378357Y-34389652D02*
X165287642Y-34643652D01*
X165196928Y-34389652D01*
X164906642Y-34625509D02*
X164942928Y-34643652D01*
X165015500Y-34643652D01*
X165051785Y-34625509D01*
X165069928Y-34589223D01*
X165069928Y-34444080D01*
X165051785Y-34407795D01*
X165015500Y-34389652D01*
X164942928Y-34389652D01*
X164906642Y-34407795D01*
X164888500Y-34444080D01*
X164888500Y-34480366D01*
X165069928Y-34516652D01*
X164725214Y-34643652D02*
X164725214Y-34389652D01*
X164725214Y-34462223D02*
X164707071Y-34425937D01*
X164688928Y-34407795D01*
X164652642Y-34389652D01*
X164616357Y-34389652D01*
X164507500Y-34625509D02*
X164471214Y-34643652D01*
X164398642Y-34643652D01*
X164362357Y-34625509D01*
X164344214Y-34589223D01*
X164344214Y-34571080D01*
X164362357Y-34534795D01*
X164398642Y-34516652D01*
X164453071Y-34516652D01*
X164489357Y-34498509D01*
X164507500Y-34462223D01*
X164507500Y-34444080D01*
X164489357Y-34407795D01*
X164453071Y-34389652D01*
X164398642Y-34389652D01*
X164362357Y-34407795D01*
X164180928Y-34643652D02*
X164180928Y-34389652D01*
X164180928Y-34262652D02*
X164199071Y-34280795D01*
X164180928Y-34298937D01*
X164162785Y-34280795D01*
X164180928Y-34262652D01*
X164180928Y-34298937D01*
X164053928Y-34389652D02*
X163908785Y-34389652D01*
X163999500Y-34262652D02*
X163999500Y-34589223D01*
X163981357Y-34625509D01*
X163945071Y-34643652D01*
X163908785Y-34643652D01*
X163818071Y-34389652D02*
X163727357Y-34643652D01*
X163636642Y-34389652D02*
X163727357Y-34643652D01*
X163763642Y-34734366D01*
X163781785Y-34752509D01*
X163818071Y-34770652D01*
X163146785Y-34643652D02*
X163183071Y-34625509D01*
X163201214Y-34607366D01*
X163219357Y-34571080D01*
X163219357Y-34462223D01*
X163201214Y-34425937D01*
X163183071Y-34407795D01*
X163146785Y-34389652D01*
X163092357Y-34389652D01*
X163056071Y-34407795D01*
X163037928Y-34425937D01*
X163019785Y-34462223D01*
X163019785Y-34571080D01*
X163037928Y-34607366D01*
X163056071Y-34625509D01*
X163092357Y-34643652D01*
X163146785Y-34643652D01*
X162910928Y-34389652D02*
X162765785Y-34389652D01*
X162856500Y-34643652D02*
X162856500Y-34317080D01*
X162838357Y-34280795D01*
X162802071Y-34262652D01*
X162765785Y-34262652D01*
X162130785Y-34607366D02*
X162148928Y-34625509D01*
X162203357Y-34643652D01*
X162239642Y-34643652D01*
X162294071Y-34625509D01*
X162330357Y-34589223D01*
X162348500Y-34552937D01*
X162366642Y-34480366D01*
X162366642Y-34425937D01*
X162348500Y-34353366D01*
X162330357Y-34317080D01*
X162294071Y-34280795D01*
X162239642Y-34262652D01*
X162203357Y-34262652D01*
X162148928Y-34280795D01*
X162130785Y-34298937D01*
X161804214Y-34643652D02*
X161804214Y-34444080D01*
X161822357Y-34407795D01*
X161858642Y-34389652D01*
X161931214Y-34389652D01*
X161967500Y-34407795D01*
X161804214Y-34625509D02*
X161840500Y-34643652D01*
X161931214Y-34643652D01*
X161967500Y-34625509D01*
X161985642Y-34589223D01*
X161985642Y-34552937D01*
X161967500Y-34516652D01*
X161931214Y-34498509D01*
X161840500Y-34498509D01*
X161804214Y-34480366D01*
X161568357Y-34643652D02*
X161604642Y-34625509D01*
X161622785Y-34589223D01*
X161622785Y-34262652D01*
X161423214Y-34643652D02*
X161423214Y-34389652D01*
X161423214Y-34262652D02*
X161441357Y-34280795D01*
X161423214Y-34298937D01*
X161405071Y-34280795D01*
X161423214Y-34262652D01*
X161423214Y-34298937D01*
X161296214Y-34389652D02*
X161151071Y-34389652D01*
X161241785Y-34643652D02*
X161241785Y-34317080D01*
X161223642Y-34280795D01*
X161187357Y-34262652D01*
X161151071Y-34262652D01*
X160969642Y-34643652D02*
X161005928Y-34625509D01*
X161024071Y-34607366D01*
X161042214Y-34571080D01*
X161042214Y-34462223D01*
X161024071Y-34425937D01*
X161005928Y-34407795D01*
X160969642Y-34389652D01*
X160915214Y-34389652D01*
X160878928Y-34407795D01*
X160860785Y-34425937D01*
X160842642Y-34462223D01*
X160842642Y-34571080D01*
X160860785Y-34607366D01*
X160878928Y-34625509D01*
X160915214Y-34643652D01*
X160969642Y-34643652D01*
X160679357Y-34643652D02*
X160679357Y-34389652D01*
X160679357Y-34462223D02*
X160661214Y-34425937D01*
X160643071Y-34407795D01*
X160606785Y-34389652D01*
X160570500Y-34389652D01*
X160443500Y-34389652D02*
X160443500Y-34643652D01*
X160443500Y-34425937D02*
X160425357Y-34407795D01*
X160389071Y-34389652D01*
X160334642Y-34389652D01*
X160298357Y-34407795D01*
X160280214Y-34444080D01*
X160280214Y-34643652D01*
X160098785Y-34643652D02*
X160098785Y-34389652D01*
X160098785Y-34262652D02*
X160116928Y-34280795D01*
X160098785Y-34298937D01*
X160080642Y-34280795D01*
X160098785Y-34262652D01*
X160098785Y-34298937D01*
X159754071Y-34643652D02*
X159754071Y-34444080D01*
X159772214Y-34407795D01*
X159808500Y-34389652D01*
X159881071Y-34389652D01*
X159917357Y-34407795D01*
X159754071Y-34625509D02*
X159790357Y-34643652D01*
X159881071Y-34643652D01*
X159917357Y-34625509D01*
X159935500Y-34589223D01*
X159935500Y-34552937D01*
X159917357Y-34516652D01*
X159881071Y-34498509D01*
X159790357Y-34498509D01*
X159754071Y-34480366D01*
X159572642Y-34607366D02*
X159554500Y-34625509D01*
X159572642Y-34643652D01*
X159590785Y-34625509D01*
X159572642Y-34607366D01*
X159572642Y-34643652D01*
X159572642Y-34407795D02*
X159554500Y-34425937D01*
X159572642Y-34444080D01*
X159590785Y-34425937D01*
X159572642Y-34407795D01*
X159572642Y-34444080D01*
X164434928Y-35238919D02*
X164380500Y-35257062D01*
X164289785Y-35257062D01*
X164253500Y-35238919D01*
X164235357Y-35220776D01*
X164217214Y-35184490D01*
X164217214Y-35148205D01*
X164235357Y-35111919D01*
X164253500Y-35093776D01*
X164289785Y-35075633D01*
X164362357Y-35057490D01*
X164398642Y-35039347D01*
X164416785Y-35021205D01*
X164434928Y-34984919D01*
X164434928Y-34948633D01*
X164416785Y-34912347D01*
X164398642Y-34894205D01*
X164362357Y-34876062D01*
X164271642Y-34876062D01*
X164217214Y-34894205D01*
X163890642Y-35257062D02*
X163890642Y-35057490D01*
X163908785Y-35021205D01*
X163945071Y-35003062D01*
X164017642Y-35003062D01*
X164053928Y-35021205D01*
X163890642Y-35238919D02*
X163926928Y-35257062D01*
X164017642Y-35257062D01*
X164053928Y-35238919D01*
X164072071Y-35202633D01*
X164072071Y-35166347D01*
X164053928Y-35130062D01*
X164017642Y-35111919D01*
X163926928Y-35111919D01*
X163890642Y-35093776D01*
X163709214Y-35003062D02*
X163709214Y-35257062D01*
X163709214Y-35039347D02*
X163691071Y-35021205D01*
X163654785Y-35003062D01*
X163600357Y-35003062D01*
X163564071Y-35021205D01*
X163545928Y-35057490D01*
X163545928Y-35257062D01*
X163418928Y-35003062D02*
X163273785Y-35003062D01*
X163364500Y-34876062D02*
X163364500Y-35202633D01*
X163346357Y-35238919D01*
X163310071Y-35257062D01*
X163273785Y-35257062D01*
X162983500Y-35257062D02*
X162983500Y-35057490D01*
X163001642Y-35021205D01*
X163037928Y-35003062D01*
X163110500Y-35003062D01*
X163146785Y-35021205D01*
X162983500Y-35238919D02*
X163019785Y-35257062D01*
X163110500Y-35257062D01*
X163146785Y-35238919D01*
X163164928Y-35202633D01*
X163164928Y-35166347D01*
X163146785Y-35130062D01*
X163110500Y-35111919D01*
X163019785Y-35111919D01*
X162983500Y-35093776D01*
X162294071Y-35220776D02*
X162312214Y-35238919D01*
X162366642Y-35257062D01*
X162402928Y-35257062D01*
X162457357Y-35238919D01*
X162493642Y-35202633D01*
X162511785Y-35166347D01*
X162529928Y-35093776D01*
X162529928Y-35039347D01*
X162511785Y-34966776D01*
X162493642Y-34930490D01*
X162457357Y-34894205D01*
X162402928Y-34876062D01*
X162366642Y-34876062D01*
X162312214Y-34894205D01*
X162294071Y-34912347D01*
X162130785Y-35257062D02*
X162130785Y-35003062D01*
X162130785Y-35075633D02*
X162112642Y-35039347D01*
X162094500Y-35021205D01*
X162058214Y-35003062D01*
X162021928Y-35003062D01*
X161731642Y-35003062D02*
X161731642Y-35257062D01*
X161894928Y-35003062D02*
X161894928Y-35202633D01*
X161876785Y-35238919D01*
X161840500Y-35257062D01*
X161786071Y-35257062D01*
X161749785Y-35238919D01*
X161731642Y-35220776D01*
X161586500Y-35003062D02*
X161386928Y-35003062D01*
X161586500Y-35257062D01*
X161386928Y-35257062D01*
D10*
X167111000Y-36810000D02*
X167111000Y-36175000D01*
X166730000Y-34905000D02*
X167111000Y-34524000D01*
X166857000Y-34524000D02*
X167365000Y-34016000D01*
X167873000Y-34524000D02*
X167365000Y-34016000D01*
X168127000Y-36175000D02*
X167619000Y-35667000D01*
X166603000Y-36175000D02*
X167111000Y-35667000D01*
X167111000Y-35286000D02*
X166730000Y-35286000D01*
X167365000Y-36810000D02*
X167619000Y-36810000D01*
X168000000Y-34905000D02*
X167619000Y-34524000D01*
X168000000Y-35286000D02*
X167619000Y-34905000D01*
X167111000Y-34524000D02*
X166857000Y-34524000D01*
X167619000Y-34905000D02*
X168000000Y-34905000D01*
X167619000Y-36175000D02*
X168127000Y-36175000D01*
X166730000Y-35667000D02*
X167111000Y-35286000D01*
X166730000Y-35286000D02*
X167111000Y-34905000D01*
X167111000Y-34905000D02*
X166730000Y-34905000D01*
X167365000Y-36810000D02*
X167111000Y-36810000D01*
X167619000Y-36810000D02*
X167619000Y-36175000D01*
X167619000Y-35667000D02*
X168000000Y-35667000D01*
X167111000Y-35667000D02*
X166730000Y-35667000D01*
X167619000Y-35286000D02*
X168000000Y-35286000D01*
X167619000Y-34524000D02*
X167873000Y-34524000D01*
X168000000Y-35667000D02*
X167619000Y-35286000D01*
X167111000Y-36175000D02*
X166603000Y-36175000D01*
X180215095Y-32488666D02*
X179738904Y-32488666D01*
X180310333Y-32774380D02*
X179977000Y-31774380D01*
X179643666Y-32774380D01*
X179357952Y-32726761D02*
X179262714Y-32774380D01*
X179072238Y-32774380D01*
X178977000Y-32726761D01*
X178929380Y-32631523D01*
X178929380Y-32583904D01*
X178977000Y-32488666D01*
X179072238Y-32441047D01*
X179215095Y-32441047D01*
X179310333Y-32393428D01*
X179357952Y-32298190D01*
X179357952Y-32250571D01*
X179310333Y-32155333D01*
X179215095Y-32107714D01*
X179072238Y-32107714D01*
X178977000Y-32155333D01*
X178643666Y-32107714D02*
X178262714Y-32107714D01*
X178500809Y-31774380D02*
X178500809Y-32631523D01*
X178453190Y-32726761D01*
X178357952Y-32774380D01*
X178262714Y-32774380D01*
X177929380Y-32774380D02*
X177929380Y-32107714D01*
X177929380Y-32298190D02*
X177881761Y-32202952D01*
X177834142Y-32155333D01*
X177738904Y-32107714D01*
X177643666Y-32107714D01*
X177167476Y-32774380D02*
X177262714Y-32726761D01*
X177310333Y-32679142D01*
X177357952Y-32583904D01*
X177357952Y-32298190D01*
X177310333Y-32202952D01*
X177262714Y-32155333D01*
X177167476Y-32107714D01*
X177024619Y-32107714D01*
X176929380Y-32155333D01*
X176881761Y-32202952D01*
X176834142Y-32298190D01*
X176834142Y-32583904D01*
X176881761Y-32679142D01*
X176929380Y-32726761D01*
X177024619Y-32774380D01*
X177167476Y-32774380D01*
X176405571Y-32107714D02*
X176405571Y-33107714D01*
X176405571Y-32155333D02*
X176310333Y-32107714D01*
X176119857Y-32107714D01*
X176024619Y-32155333D01*
X175977000Y-32202952D01*
X175929380Y-32298190D01*
X175929380Y-32583904D01*
X175977000Y-32679142D01*
X176024619Y-32726761D01*
X176119857Y-32774380D01*
X176310333Y-32774380D01*
X176405571Y-32726761D01*
X175500809Y-32774380D02*
X175500809Y-32107714D01*
X175500809Y-31774380D02*
X175548428Y-31822000D01*
X175500809Y-31869619D01*
X175453190Y-31822000D01*
X175500809Y-31774380D01*
X175500809Y-31869619D01*
X175119857Y-32774380D02*
X174596047Y-32107714D01*
X175119857Y-32107714D02*
X174596047Y-32774380D01*
X173596047Y-31774380D02*
X173024619Y-31774380D01*
X173310333Y-32774380D02*
X173310333Y-31774380D01*
X172691285Y-32774380D02*
X172691285Y-32107714D01*
X172691285Y-32298190D02*
X172643666Y-32202952D01*
X172596047Y-32155333D01*
X172500809Y-32107714D01*
X172405571Y-32107714D01*
X172072238Y-32774380D02*
X172072238Y-32107714D01*
X172072238Y-31774380D02*
X172119857Y-31822000D01*
X172072238Y-31869619D01*
X172024619Y-31822000D01*
X172072238Y-31774380D01*
X172072238Y-31869619D01*
X171167476Y-32107714D02*
X171167476Y-32917238D01*
X171215095Y-33012476D01*
X171262714Y-33060095D01*
X171357952Y-33107714D01*
X171500809Y-33107714D01*
X171596047Y-33060095D01*
X171167476Y-32726761D02*
X171262714Y-32774380D01*
X171453190Y-32774380D01*
X171548428Y-32726761D01*
X171596047Y-32679142D01*
X171643666Y-32583904D01*
X171643666Y-32298190D01*
X171596047Y-32202952D01*
X171548428Y-32155333D01*
X171453190Y-32107714D01*
X171262714Y-32107714D01*
X171167476Y-32155333D01*
X170262714Y-32107714D02*
X170262714Y-32917238D01*
X170310333Y-33012476D01*
X170357952Y-33060095D01*
X170453190Y-33107714D01*
X170596047Y-33107714D01*
X170691285Y-33060095D01*
X170262714Y-32726761D02*
X170357952Y-32774380D01*
X170548428Y-32774380D01*
X170643666Y-32726761D01*
X170691285Y-32679142D01*
X170738904Y-32583904D01*
X170738904Y-32298190D01*
X170691285Y-32202952D01*
X170643666Y-32155333D01*
X170548428Y-32107714D01*
X170357952Y-32107714D01*
X170262714Y-32155333D01*
X169405571Y-32726761D02*
X169500809Y-32774380D01*
X169691285Y-32774380D01*
X169786523Y-32726761D01*
X169834142Y-32631523D01*
X169834142Y-32250571D01*
X169786523Y-32155333D01*
X169691285Y-32107714D01*
X169500809Y-32107714D01*
X169405571Y-32155333D01*
X169357952Y-32250571D01*
X169357952Y-32345809D01*
X169834142Y-32441047D01*
X168929380Y-32774380D02*
X168929380Y-32107714D01*
X168929380Y-32298190D02*
X168881761Y-32202952D01*
X168834142Y-32155333D01*
X168738904Y-32107714D01*
X168643666Y-32107714D01*
X176000809Y-33384380D02*
X175667476Y-34384380D01*
X175334142Y-33384380D01*
X174477000Y-34384380D02*
X175048428Y-34384380D01*
X174762714Y-34384380D02*
X174762714Y-33384380D01*
X174857952Y-33527238D01*
X174953190Y-33622476D01*
X175048428Y-33670095D01*
X174048428Y-34289142D02*
X174000809Y-34336761D01*
X174048428Y-34384380D01*
X174096047Y-34336761D01*
X174048428Y-34289142D01*
X174048428Y-34384380D01*
X173381761Y-33384380D02*
X173286523Y-33384380D01*
X173191285Y-33432000D01*
X173143666Y-33479619D01*
X173096047Y-33574857D01*
X173048428Y-33765333D01*
X173048428Y-34003428D01*
X173096047Y-34193904D01*
X173143666Y-34289142D01*
X173191285Y-34336761D01*
X173286523Y-34384380D01*
X173381761Y-34384380D01*
X173477000Y-34336761D01*
X173524619Y-34289142D01*
X173572238Y-34193904D01*
X173619857Y-34003428D01*
X173619857Y-33765333D01*
X173572238Y-33574857D01*
X173524619Y-33479619D01*
X173477000Y-33432000D01*
X173381761Y-33384380D01*
%TO.C,J4*%
X168228333Y-59167380D02*
X168228333Y-59881666D01*
X168275952Y-60024523D01*
X168371190Y-60119761D01*
X168514047Y-60167380D01*
X168609285Y-60167380D01*
X167323571Y-59500714D02*
X167323571Y-60167380D01*
X167561666Y-59119761D02*
X167799761Y-59834047D01*
X167180714Y-59834047D01*
%TO.C,J3*%
X168228333Y-79167380D02*
X168228333Y-79881666D01*
X168275952Y-80024523D01*
X168371190Y-80119761D01*
X168514047Y-80167380D01*
X168609285Y-80167380D01*
X167847380Y-79167380D02*
X167228333Y-79167380D01*
X167561666Y-79548333D01*
X167418809Y-79548333D01*
X167323571Y-79595952D01*
X167275952Y-79643571D01*
X167228333Y-79738809D01*
X167228333Y-79976904D01*
X167275952Y-80072142D01*
X167323571Y-80119761D01*
X167418809Y-80167380D01*
X167704523Y-80167380D01*
X167799761Y-80119761D01*
X167847380Y-80072142D01*
%TO.C,J1*%
X168228333Y-119167380D02*
X168228333Y-119881666D01*
X168275952Y-120024523D01*
X168371190Y-120119761D01*
X168514047Y-120167380D01*
X168609285Y-120167380D01*
X167228333Y-120167380D02*
X167799761Y-120167380D01*
X167514047Y-120167380D02*
X167514047Y-119167380D01*
X167609285Y-119310238D01*
X167704523Y-119405476D01*
X167799761Y-119453095D01*
%TO.C,J2*%
X168228333Y-99167380D02*
X168228333Y-99881666D01*
X168275952Y-100024523D01*
X168371190Y-100119761D01*
X168514047Y-100167380D01*
X168609285Y-100167380D01*
X167799761Y-99262619D02*
X167752142Y-99215000D01*
X167656904Y-99167380D01*
X167418809Y-99167380D01*
X167323571Y-99215000D01*
X167275952Y-99262619D01*
X167228333Y-99357857D01*
X167228333Y-99453095D01*
X167275952Y-99595952D01*
X167847380Y-100167380D01*
X167228333Y-100167380D01*
%TO.C,G1*%
G36*
X113810475Y-40585404D02*
G01*
X113811700Y-40673758D01*
X113817474Y-40802526D01*
X113826897Y-40910446D01*
X113838758Y-40980608D01*
X113848838Y-41010414D01*
X113905932Y-41103265D01*
X113985865Y-41168876D01*
X114073752Y-41193746D01*
X114082634Y-41193916D01*
X114126843Y-41209782D01*
X114138418Y-41262099D01*
X114126128Y-41315096D01*
X114082377Y-41330452D01*
X114074342Y-41330122D01*
X114012619Y-41315776D01*
X113943884Y-41287175D01*
X113888043Y-41253919D01*
X113865005Y-41225611D01*
X113855510Y-41199932D01*
X113823376Y-41151125D01*
X113816251Y-41142129D01*
X113794307Y-41119825D01*
X113789752Y-41136929D01*
X113799077Y-41200582D01*
X113803263Y-41226007D01*
X113806614Y-41279422D01*
X113786135Y-41299834D01*
X113731342Y-41303111D01*
X113646276Y-41303111D01*
X113646276Y-40291486D01*
X113810323Y-40291486D01*
X113810475Y-40585404D01*
G37*
G36*
X116584134Y-39652721D02*
G01*
X116594977Y-39711963D01*
X116599128Y-39799344D01*
X116596224Y-39873429D01*
X116586350Y-39938487D01*
X116571787Y-39963391D01*
X116559439Y-39945966D01*
X116548596Y-39886725D01*
X116544446Y-39799344D01*
X116547350Y-39725258D01*
X116557223Y-39660200D01*
X116571787Y-39635296D01*
X116584134Y-39652721D01*
G37*
G36*
X119448699Y-39650517D02*
G01*
X119506168Y-39617528D01*
X119565208Y-39614713D01*
X119629810Y-39655802D01*
X119643938Y-39668671D01*
X119696466Y-39748532D01*
X119703692Y-39832439D01*
X119663715Y-39906339D01*
X119600496Y-39950645D01*
X119520409Y-39956798D01*
X119442616Y-39908709D01*
X119419181Y-39879758D01*
X119389907Y-39797391D01*
X119393822Y-39764872D01*
X119460126Y-39764872D01*
X119463523Y-39839115D01*
X119499588Y-39890102D01*
X119560666Y-39903533D01*
X119595398Y-39886515D01*
X119626446Y-39832938D01*
X119631329Y-39764269D01*
X119605291Y-39701996D01*
X119560508Y-39667795D01*
X119509268Y-39674920D01*
X119469276Y-39732781D01*
X119460126Y-39764872D01*
X119393822Y-39764872D01*
X119399902Y-39714369D01*
X119448699Y-39650517D01*
G37*
G36*
X116778799Y-39650920D02*
G01*
X116828715Y-39617703D01*
X116906103Y-39615356D01*
X116983517Y-39664250D01*
X117013501Y-39704636D01*
X117034017Y-39789186D01*
X117012380Y-39871796D01*
X116950879Y-39933570D01*
X116910809Y-39953423D01*
X116864141Y-39957063D01*
X116807338Y-39926958D01*
X116771654Y-39892927D01*
X116737790Y-39813033D01*
X116738695Y-39763055D01*
X116795221Y-39763055D01*
X116807089Y-39836585D01*
X116853636Y-39892246D01*
X116859077Y-39895455D01*
X116902951Y-39905157D01*
X116942495Y-39869306D01*
X116967281Y-39830055D01*
X116977725Y-39766126D01*
X116938941Y-39705602D01*
X116907588Y-39678169D01*
X116863047Y-39666500D01*
X116819107Y-39702145D01*
X116795221Y-39763055D01*
X116738695Y-39763055D01*
X116739388Y-39724787D01*
X116778799Y-39650920D01*
G37*
G36*
X114220221Y-40790142D02*
G01*
X114257239Y-40710662D01*
X114307016Y-40668189D01*
X114316777Y-40645427D01*
X114280250Y-40597366D01*
X114234975Y-40534128D01*
X114225656Y-40454100D01*
X114269701Y-40378932D01*
X114281665Y-40366714D01*
X114301758Y-40335895D01*
X114290001Y-40304519D01*
X114242360Y-40254178D01*
X114216464Y-40226529D01*
X114176678Y-40156308D01*
X114166628Y-40064202D01*
X114168578Y-40048525D01*
X114308074Y-40048525D01*
X114312766Y-40137257D01*
X114369575Y-40224376D01*
X114396376Y-40248730D01*
X114444587Y-40275803D01*
X114511042Y-40288395D01*
X114613867Y-40291486D01*
X114748835Y-40285838D01*
X114852312Y-40265062D01*
X114916225Y-40226465D01*
X114947690Y-40167401D01*
X114947763Y-40069089D01*
X114899683Y-39982739D01*
X114809095Y-39920959D01*
X114736997Y-39898858D01*
X114621413Y-39884116D01*
X114509772Y-39888646D01*
X114425501Y-39912939D01*
X114353926Y-39966938D01*
X114308074Y-40048525D01*
X114168578Y-40048525D01*
X114179652Y-39959493D01*
X114227062Y-39878016D01*
X114318725Y-39813764D01*
X114347163Y-39801871D01*
X114449641Y-39780454D01*
X114576863Y-39773248D01*
X114708435Y-39780680D01*
X114823964Y-39803178D01*
X114903091Y-39835921D01*
X115007200Y-39914073D01*
X115077200Y-40014338D01*
X115102817Y-40124860D01*
X115102779Y-40131492D01*
X115085494Y-40245137D01*
X115033867Y-40328932D01*
X114943661Y-40385601D01*
X114810638Y-40417869D01*
X114630560Y-40428458D01*
X114507507Y-40433506D01*
X114429871Y-40449775D01*
X114392627Y-40480060D01*
X114388918Y-40527162D01*
X114396835Y-40547943D01*
X114425954Y-40569199D01*
X114486393Y-40583285D01*
X114589832Y-40594093D01*
X114691612Y-40606998D01*
X114794494Y-40629033D01*
X114866109Y-40654406D01*
X114898445Y-40674527D01*
X114979186Y-40762538D01*
X115026331Y-40876604D01*
X115035202Y-41000640D01*
X115001119Y-41118558D01*
X115000792Y-41119185D01*
X114977071Y-41171071D01*
X114988041Y-41190693D01*
X115042300Y-41193746D01*
X115056241Y-41194002D01*
X115108189Y-41207064D01*
X115122702Y-41245798D01*
X115117878Y-41268922D01*
X115096588Y-41285793D01*
X115049288Y-41297869D01*
X114966437Y-41307545D01*
X114838496Y-41317221D01*
X114755882Y-41321869D01*
X114587214Y-41321406D01*
X114458604Y-41301546D01*
X114361127Y-41259031D01*
X114285854Y-41190606D01*
X114223858Y-41093014D01*
X114218704Y-41082125D01*
X114197655Y-40992724D01*
X114198664Y-40928013D01*
X114342096Y-40928013D01*
X114358213Y-41046598D01*
X114369710Y-41075324D01*
X114437779Y-41160098D01*
X114538925Y-41207715D01*
X114663423Y-41212878D01*
X114685596Y-41209587D01*
X114779891Y-41181333D01*
X114839279Y-41126189D01*
X114879503Y-41030895D01*
X114891175Y-40985902D01*
X114893172Y-40915213D01*
X114864648Y-40841575D01*
X114861863Y-40836373D01*
X114810190Y-40769789D01*
X114750506Y-40727771D01*
X114651702Y-40702935D01*
X114534139Y-40708852D01*
X114438034Y-40752659D01*
X114371361Y-40827873D01*
X114342096Y-40928013D01*
X114198664Y-40928013D01*
X114199260Y-40889780D01*
X114220221Y-40790142D01*
G37*
G36*
X117188765Y-39654987D02*
G01*
X117201422Y-39721565D01*
X117215879Y-39840356D01*
X117277870Y-39740268D01*
X117317131Y-39680985D01*
X117364781Y-39629012D01*
X117396404Y-39628854D01*
X117413949Y-39681148D01*
X117419365Y-39786531D01*
X117416116Y-39871861D01*
X117406328Y-39938293D01*
X117392024Y-39963391D01*
X117384809Y-39959278D01*
X117370238Y-39918165D01*
X117364233Y-39847191D01*
X117363783Y-39730991D01*
X117301975Y-39840124D01*
X117283048Y-39870646D01*
X117234288Y-39930405D01*
X117193060Y-39958329D01*
X117176178Y-39959409D01*
X117157046Y-39943901D01*
X117148141Y-39896519D01*
X117145953Y-39805905D01*
X117147987Y-39733924D01*
X117155431Y-39660303D01*
X117166459Y-39623592D01*
X117173328Y-39622873D01*
X117188765Y-39654987D01*
G37*
G36*
X115717270Y-39631146D02*
G01*
X115722290Y-39695158D01*
X115724209Y-39785673D01*
X115720937Y-39871764D01*
X115711155Y-39938281D01*
X115696868Y-39963391D01*
X115689658Y-39959276D01*
X115675156Y-39918163D01*
X115669268Y-39847191D01*
X115669009Y-39730991D01*
X115599365Y-39847191D01*
X115562421Y-39904027D01*
X115512892Y-39956882D01*
X115478087Y-39957152D01*
X115457542Y-39904689D01*
X115450797Y-39799344D01*
X115453701Y-39725258D01*
X115463574Y-39660200D01*
X115478138Y-39635296D01*
X115483079Y-39636969D01*
X115499546Y-39671891D01*
X115506913Y-39737826D01*
X115508347Y-39840356D01*
X115554760Y-39772596D01*
X115596620Y-39716685D01*
X115649021Y-39656396D01*
X115683137Y-39625143D01*
X115710538Y-39607955D01*
X115717270Y-39631146D01*
G37*
G36*
X112425351Y-40607548D02*
G01*
X112386570Y-40503380D01*
X112307931Y-40291486D01*
X112386804Y-40291486D01*
X112393350Y-40291532D01*
X112434720Y-40297518D01*
X112465101Y-40321541D01*
X112493622Y-40374977D01*
X112529413Y-40469204D01*
X112593149Y-40646922D01*
X113204887Y-40646922D01*
X113261534Y-40495519D01*
X113285922Y-40427756D01*
X113309190Y-40356012D01*
X113318181Y-40317801D01*
X113318883Y-40314597D01*
X113349891Y-40298175D01*
X113412662Y-40291486D01*
X113507144Y-40291486D01*
X113469791Y-40394015D01*
X113454831Y-40434653D01*
X113421686Y-40523866D01*
X113376692Y-40644477D01*
X113323292Y-40787305D01*
X113264928Y-40943170D01*
X113205044Y-41102892D01*
X113147081Y-41257291D01*
X113094482Y-41397185D01*
X113050689Y-41513396D01*
X113019146Y-41596741D01*
X113003294Y-41638041D01*
X112976471Y-41668795D01*
X112908062Y-41685888D01*
X112855477Y-41676749D01*
X112812950Y-41638041D01*
X112809701Y-41629711D01*
X112787644Y-41571908D01*
X112751049Y-41475187D01*
X112703474Y-41349013D01*
X112648474Y-41202848D01*
X112589605Y-41046155D01*
X112530425Y-40888399D01*
X112483506Y-40763122D01*
X112635388Y-40763122D01*
X112636675Y-40767325D01*
X112651615Y-40810293D01*
X112680635Y-40891906D01*
X112720391Y-41002782D01*
X112767535Y-41133541D01*
X112898943Y-41497124D01*
X113026538Y-41143114D01*
X113040617Y-41103953D01*
X113085193Y-40978531D01*
X113121232Y-40874949D01*
X113145343Y-40803056D01*
X113154134Y-40772696D01*
X113145282Y-40768455D01*
X113093593Y-40762195D01*
X113006005Y-40757889D01*
X112894392Y-40756287D01*
X112827196Y-40756520D01*
X112728297Y-40757881D01*
X112660417Y-40760186D01*
X112635388Y-40763122D01*
X112483506Y-40763122D01*
X112474488Y-40739042D01*
X112425351Y-40607548D01*
G37*
G36*
X120573398Y-41650037D02*
G01*
X120569239Y-41654664D01*
X120534115Y-41665417D01*
X120460938Y-41673566D01*
X120345558Y-41679351D01*
X120183823Y-41683010D01*
X119971581Y-41684784D01*
X119900670Y-41684890D01*
X119735978Y-41683776D01*
X119595072Y-41680909D01*
X119485674Y-41676558D01*
X119415510Y-41670995D01*
X119392300Y-41664489D01*
X119402317Y-41645534D01*
X119436187Y-41585072D01*
X119456611Y-41549182D01*
X121301819Y-41549182D01*
X121303792Y-41563657D01*
X121320047Y-41567410D01*
X121323319Y-41563402D01*
X121321885Y-41549182D01*
X121356502Y-41549182D01*
X121358475Y-41563657D01*
X121374729Y-41567410D01*
X121378001Y-41563402D01*
X121374729Y-41530955D01*
X121366505Y-41526677D01*
X121356502Y-41549182D01*
X121321885Y-41549182D01*
X121320047Y-41530955D01*
X121311823Y-41526677D01*
X121301819Y-41549182D01*
X119456611Y-41549182D01*
X119489230Y-41491861D01*
X119503399Y-41467159D01*
X121411184Y-41467159D01*
X121413157Y-41481633D01*
X121429412Y-41485386D01*
X121432684Y-41481379D01*
X121429412Y-41448931D01*
X121421188Y-41444654D01*
X121411184Y-41467159D01*
X119503399Y-41467159D01*
X119524309Y-41430704D01*
X121283592Y-41430704D01*
X121287599Y-41433976D01*
X121320047Y-41430704D01*
X121322417Y-41426147D01*
X121356502Y-41426147D01*
X121370172Y-41439817D01*
X121383843Y-41426147D01*
X121370172Y-41412476D01*
X121356502Y-41426147D01*
X121322417Y-41426147D01*
X121324324Y-41422480D01*
X121301819Y-41412476D01*
X121287345Y-41414449D01*
X121283592Y-41430704D01*
X119524309Y-41430704D01*
X119556739Y-41374165D01*
X119605622Y-41289441D01*
X121520549Y-41289441D01*
X121534220Y-41303111D01*
X121547890Y-41289441D01*
X121534220Y-41275770D01*
X121520549Y-41289441D01*
X119605622Y-41289441D01*
X119634004Y-41240250D01*
X119679793Y-41161104D01*
X120071464Y-41161104D01*
X120078051Y-41180630D01*
X120112476Y-41221088D01*
X120136609Y-41237459D01*
X120153488Y-41236153D01*
X120152914Y-41234758D01*
X121547890Y-41234758D01*
X121561561Y-41248429D01*
X121575231Y-41234758D01*
X121561561Y-41221088D01*
X121547890Y-41234758D01*
X120152914Y-41234758D01*
X120145781Y-41217409D01*
X120112476Y-41176170D01*
X120099896Y-41166405D01*
X121493208Y-41166405D01*
X121495181Y-41180879D01*
X121511435Y-41184633D01*
X121514708Y-41180625D01*
X121514653Y-41180076D01*
X121575231Y-41180076D01*
X121588902Y-41193746D01*
X121602573Y-41180076D01*
X121588902Y-41166405D01*
X121575231Y-41180076D01*
X121514653Y-41180076D01*
X121511435Y-41148178D01*
X121503212Y-41143900D01*
X121493208Y-41166405D01*
X120099896Y-41166405D01*
X120086822Y-41156256D01*
X120071464Y-41161104D01*
X119679793Y-41161104D01*
X119700453Y-41125393D01*
X121547890Y-41125393D01*
X121561561Y-41139064D01*
X121575231Y-41125393D01*
X121561561Y-41111723D01*
X121547890Y-41125393D01*
X119700453Y-41125393D01*
X119760705Y-41021250D01*
X120099224Y-41021250D01*
X120104305Y-41059968D01*
X120126146Y-41098052D01*
X120138228Y-41101810D01*
X120140690Y-41098052D01*
X121602573Y-41098052D01*
X121616243Y-41111723D01*
X121629914Y-41098052D01*
X121616243Y-41084381D01*
X121602573Y-41098052D01*
X120140690Y-41098052D01*
X120153069Y-41079160D01*
X120151772Y-41070711D01*
X121493208Y-41070711D01*
X121506878Y-41084381D01*
X121520549Y-41070711D01*
X121506878Y-41057040D01*
X121493208Y-41070711D01*
X120151772Y-41070711D01*
X120149746Y-41057510D01*
X120126146Y-41002358D01*
X120120287Y-40993666D01*
X121552464Y-40993666D01*
X121568803Y-40992660D01*
X121593904Y-40989801D01*
X121638725Y-41015074D01*
X121649866Y-41025900D01*
X121677740Y-41041359D01*
X121695298Y-41013906D01*
X121699937Y-40993720D01*
X121686172Y-40987713D01*
X121676431Y-40991360D01*
X121643860Y-40975463D01*
X121639411Y-40968993D01*
X121599006Y-40949129D01*
X121558950Y-40979241D01*
X121552464Y-40993666D01*
X120120287Y-40993666D01*
X120119945Y-40993159D01*
X120103570Y-40982247D01*
X120099224Y-41021250D01*
X119760705Y-41021250D01*
X119779544Y-40988687D01*
X119962099Y-40988687D01*
X119975770Y-41002358D01*
X119989440Y-40988687D01*
X119975770Y-40975017D01*
X119962099Y-40988687D01*
X119779544Y-40988687D01*
X119840446Y-40883420D01*
X119956999Y-40883420D01*
X119957122Y-40898952D01*
X119978647Y-40911257D01*
X120034383Y-40914705D01*
X120048350Y-40911150D01*
X120049464Y-40909124D01*
X120424922Y-40909124D01*
X120437742Y-40911160D01*
X120502088Y-40913417D01*
X120601050Y-40915361D01*
X120795226Y-40916918D01*
X120995678Y-40916270D01*
X121171948Y-40913417D01*
X121177512Y-40913271D01*
X121238562Y-40911026D01*
X121248282Y-40909007D01*
X121209831Y-40907295D01*
X121126366Y-40905972D01*
X121001042Y-40905119D01*
X120837018Y-40904816D01*
X120825749Y-40904818D01*
X120664040Y-40905157D01*
X120541227Y-40906041D01*
X120460469Y-40907391D01*
X120424922Y-40909124D01*
X120049464Y-40909124D01*
X120053979Y-40900912D01*
X120007873Y-40888195D01*
X120005723Y-40887761D01*
X119956999Y-40883420D01*
X119840446Y-40883420D01*
X119866405Y-40838551D01*
X120816512Y-40838431D01*
X120994049Y-40838577D01*
X121225162Y-40839542D01*
X121408784Y-40841539D01*
X121549272Y-40844726D01*
X121650985Y-40849258D01*
X121718279Y-40855291D01*
X121755511Y-40862982D01*
X121767039Y-40872487D01*
X121771093Y-40891515D01*
X121790172Y-40870847D01*
X121798590Y-40868347D01*
X121830396Y-40897313D01*
X121883900Y-40971241D01*
X121960018Y-41091449D01*
X122059664Y-41259255D01*
X122306442Y-41683480D01*
X122109352Y-42019614D01*
X122032813Y-42150703D01*
X121936762Y-42316073D01*
X121830094Y-42500371D01*
X121721106Y-42689258D01*
X121618097Y-42868396D01*
X121323932Y-43381044D01*
X120848075Y-43381044D01*
X120716067Y-43380095D01*
X120578793Y-43376786D01*
X120469878Y-43371529D01*
X120398095Y-43364767D01*
X120372218Y-43356946D01*
X120372749Y-43353023D01*
X120377969Y-43338741D01*
X120390619Y-43312770D01*
X120412962Y-43271177D01*
X120447261Y-43210029D01*
X120495780Y-43125392D01*
X120560781Y-43013333D01*
X120644529Y-42869918D01*
X120749286Y-42691215D01*
X120877315Y-42473289D01*
X121030879Y-42212207D01*
X121074068Y-42138652D01*
X121149552Y-42009343D01*
X121214651Y-41896884D01*
X121263549Y-41811349D01*
X121290428Y-41762809D01*
X121308026Y-41716074D01*
X121313108Y-41658429D01*
X121299173Y-41621404D01*
X121268694Y-41621110D01*
X121258550Y-41633455D01*
X121278394Y-41661546D01*
X121280051Y-41662908D01*
X121262616Y-41671922D01*
X121197966Y-41679008D01*
X121092650Y-41683685D01*
X120953219Y-41685470D01*
X120879544Y-41685304D01*
X120744039Y-41682736D01*
X120654465Y-41676657D01*
X120604741Y-41666503D01*
X120588789Y-41651712D01*
X120587574Y-41644877D01*
X121055748Y-41644877D01*
X121069419Y-41658547D01*
X121083089Y-41644877D01*
X121137772Y-41644877D01*
X121151442Y-41658547D01*
X121165113Y-41644877D01*
X121151442Y-41631206D01*
X121137772Y-41644877D01*
X121083089Y-41644877D01*
X121069419Y-41631206D01*
X121055748Y-41644877D01*
X120587574Y-41644877D01*
X120585529Y-41633367D01*
X120573398Y-41650037D01*
G37*
G36*
X118418306Y-40783628D02*
G01*
X118424988Y-40651166D01*
X118455143Y-40518433D01*
X118513226Y-40419532D01*
X118603200Y-40345061D01*
X118609991Y-40341143D01*
X118703850Y-40309216D01*
X118830750Y-40292277D01*
X118972549Y-40291629D01*
X119111103Y-40308574D01*
X119139170Y-40315269D01*
X119184738Y-40342155D01*
X119196545Y-40393523D01*
X119196262Y-40407519D01*
X119184617Y-40445572D01*
X119148698Y-40442536D01*
X119125763Y-40435650D01*
X119052687Y-40421198D01*
X118962343Y-40408964D01*
X118889134Y-40406129D01*
X118755944Y-40432852D01*
X118654668Y-40500398D01*
X118590266Y-40604592D01*
X118567697Y-40741258D01*
X118567697Y-40838310D01*
X119258660Y-40838310D01*
X119242273Y-40957864D01*
X119229203Y-41032556D01*
X119182921Y-41164225D01*
X119108602Y-41252232D01*
X119000977Y-41301458D01*
X118854779Y-41316782D01*
X118834500Y-41316513D01*
X118682194Y-41292269D01*
X118565319Y-41227954D01*
X118482978Y-41122474D01*
X118436268Y-40980782D01*
X118575564Y-40980782D01*
X118581663Y-41009193D01*
X118615689Y-41074315D01*
X118680913Y-41145312D01*
X118757304Y-41199508D01*
X118826583Y-41221088D01*
X118898255Y-41211867D01*
X118995328Y-41164442D01*
X119062245Y-41086085D01*
X119087180Y-40987401D01*
X119086870Y-40983291D01*
X119072428Y-40965688D01*
X119029983Y-40954783D01*
X118950663Y-40949228D01*
X118825596Y-40947675D01*
X118785188Y-40947692D01*
X118678673Y-40948675D01*
X118614566Y-40952920D01*
X118583364Y-40962823D01*
X118575564Y-40980782D01*
X118436268Y-40980782D01*
X118434273Y-40974731D01*
X118418306Y-40783628D01*
G37*
G36*
X115870126Y-39702891D02*
G01*
X115861785Y-39638992D01*
X115862467Y-39623416D01*
X115871200Y-39610544D01*
X115898975Y-39642132D01*
X115939228Y-39676760D01*
X116009907Y-39685403D01*
X116084327Y-39644729D01*
X116094122Y-39636194D01*
X116123906Y-39619597D01*
X116131198Y-39640718D01*
X116115843Y-39703525D01*
X116077680Y-39811989D01*
X116049191Y-39878572D01*
X116013628Y-39939780D01*
X115986139Y-39963391D01*
X115982189Y-39962482D01*
X115955262Y-39930620D01*
X115923311Y-39865523D01*
X115894244Y-39787909D01*
X115953684Y-39787909D01*
X115961717Y-39810483D01*
X115970280Y-39844205D01*
X115972046Y-39847716D01*
X115997621Y-39840356D01*
X116008299Y-39830609D01*
X116024962Y-39784060D01*
X116019136Y-39764514D01*
X115981025Y-39744661D01*
X115956222Y-39751355D01*
X115953684Y-39787909D01*
X115894244Y-39787909D01*
X115892783Y-39784007D01*
X115870126Y-39702891D01*
G37*
G36*
X117566906Y-39675075D02*
G01*
X117571330Y-39639729D01*
X117580936Y-39635286D01*
X117603105Y-39655802D01*
X117614995Y-39672367D01*
X117663989Y-39688637D01*
X117725478Y-39680267D01*
X117775349Y-39648306D01*
X117776262Y-39647211D01*
X117810858Y-39616296D01*
X117822200Y-39632650D01*
X117810291Y-39694095D01*
X117775134Y-39798453D01*
X117741344Y-39877923D01*
X117706434Y-39939725D01*
X117680766Y-39963391D01*
X117662677Y-39948923D01*
X117633694Y-39896022D01*
X117604078Y-39820937D01*
X117594007Y-39787909D01*
X117648840Y-39787909D01*
X117656873Y-39810483D01*
X117665436Y-39844205D01*
X117667202Y-39847716D01*
X117692777Y-39840356D01*
X117703455Y-39830609D01*
X117720118Y-39784060D01*
X117714292Y-39764514D01*
X117676181Y-39744661D01*
X117651379Y-39751355D01*
X117648840Y-39787909D01*
X117594007Y-39787909D01*
X117579819Y-39741383D01*
X117566906Y-39675075D01*
G37*
G36*
X120174823Y-39683387D02*
G01*
X120158540Y-39635296D01*
X120155057Y-39623821D01*
X120161486Y-39613645D01*
X120198852Y-39642132D01*
X120212310Y-39652937D01*
X120281404Y-39684912D01*
X120344220Y-39683177D01*
X120382770Y-39647234D01*
X120395208Y-39627310D01*
X120425325Y-39620652D01*
X120426455Y-39621498D01*
X120431033Y-39656582D01*
X120417311Y-39722627D01*
X120391348Y-39802983D01*
X120359204Y-39880997D01*
X120326939Y-39940017D01*
X120300610Y-39963391D01*
X120282968Y-39950945D01*
X120251553Y-39898809D01*
X120220056Y-39819850D01*
X120214073Y-39801713D01*
X120263734Y-39801713D01*
X120287329Y-39838585D01*
X120306275Y-39835963D01*
X120332573Y-39802744D01*
X120344876Y-39756096D01*
X120340341Y-39750885D01*
X120303864Y-39744661D01*
X120272570Y-39761116D01*
X120263734Y-39801713D01*
X120214073Y-39801713D01*
X120201121Y-39762448D01*
X120174823Y-39683387D01*
G37*
G36*
X118486613Y-39621627D02*
G01*
X118543912Y-39627727D01*
X118567697Y-39642132D01*
X118557483Y-39654029D01*
X118513014Y-39662638D01*
X118493830Y-39664241D01*
X118470967Y-39680841D01*
X118460705Y-39726112D01*
X118458332Y-39813014D01*
X118455894Y-39874901D01*
X118445963Y-39938670D01*
X118430990Y-39963391D01*
X118418181Y-39944079D01*
X118407651Y-39882656D01*
X118403649Y-39792508D01*
X118403649Y-39621626D01*
X118485673Y-39621626D01*
X118486613Y-39621627D01*
G37*
G36*
X116306884Y-39641561D02*
G01*
X116320389Y-39686633D01*
X116325716Y-39760892D01*
X116329460Y-39836859D01*
X116345697Y-39881337D01*
X116380398Y-39900787D01*
X116426846Y-39919797D01*
X116431169Y-39940764D01*
X116391127Y-39956921D01*
X116312045Y-39963391D01*
X116275276Y-39962137D01*
X116213447Y-39952356D01*
X116189010Y-39936050D01*
X116193637Y-39923472D01*
X116230022Y-39908709D01*
X116251442Y-39899961D01*
X116266643Y-39857972D01*
X116271033Y-39772003D01*
X116272879Y-39722759D01*
X116282778Y-39659886D01*
X116298375Y-39635296D01*
X116306884Y-39641561D01*
G37*
G36*
X118041378Y-39638022D02*
G01*
X118101782Y-39641079D01*
X118112054Y-39647405D01*
X118076111Y-39659629D01*
X118059449Y-39664816D01*
X118026143Y-39686403D01*
X118011355Y-39729933D01*
X118007757Y-39811707D01*
X118006849Y-39844679D01*
X117995432Y-39922113D01*
X117973025Y-39956425D01*
X117953634Y-39947839D01*
X117942302Y-39898590D01*
X117938848Y-39801622D01*
X117938848Y-39635296D01*
X118041378Y-39638022D01*
G37*
G36*
X120653380Y-39644044D02*
G01*
X120668581Y-39686033D01*
X120672971Y-39772003D01*
X120675595Y-39843404D01*
X120688192Y-39894074D01*
X120713983Y-39908709D01*
X120732849Y-39911793D01*
X120754995Y-39936050D01*
X120749349Y-39944221D01*
X120705335Y-39957961D01*
X120631959Y-39963391D01*
X120595190Y-39962137D01*
X120533361Y-39952356D01*
X120508924Y-39936050D01*
X120513551Y-39923472D01*
X120549935Y-39908709D01*
X120571356Y-39899961D01*
X120586557Y-39857972D01*
X120590947Y-39772003D01*
X120593572Y-39700601D01*
X120606168Y-39649931D01*
X120631959Y-39635296D01*
X120653380Y-39644044D01*
G37*
G36*
X119060274Y-39735069D02*
G01*
X119061782Y-39717320D01*
X119114521Y-39717320D01*
X119123613Y-39757287D01*
X119162368Y-39766798D01*
X119187486Y-39755926D01*
X119210215Y-39717320D01*
X119203044Y-39694802D01*
X119162368Y-39667843D01*
X119128359Y-39672446D01*
X119114521Y-39717320D01*
X119061782Y-39717320D01*
X119067257Y-39652861D01*
X119088778Y-39613858D01*
X119132476Y-39610115D01*
X119205989Y-39633690D01*
X119219162Y-39639043D01*
X119254270Y-39664072D01*
X119269486Y-39708926D01*
X119272083Y-39790902D01*
X119269217Y-39853300D01*
X119251561Y-39921541D01*
X119209882Y-39954267D01*
X119135027Y-39962972D01*
X119117805Y-39962925D01*
X119084588Y-39957407D01*
X119067347Y-39934259D01*
X119060843Y-39881132D01*
X119060702Y-39867697D01*
X119114521Y-39867697D01*
X119121707Y-39892840D01*
X119162368Y-39903504D01*
X119187182Y-39894327D01*
X119204824Y-39867322D01*
X119202172Y-39858804D01*
X119171964Y-39833980D01*
X119133504Y-39836983D01*
X119114521Y-39867697D01*
X119060702Y-39867697D01*
X119059839Y-39785673D01*
X119060274Y-39735069D01*
G37*
G36*
X120860323Y-39674488D02*
G01*
X120919042Y-39627884D01*
X120953343Y-39616754D01*
X121020351Y-39617481D01*
X121083089Y-39662638D01*
X121121482Y-39721576D01*
X121134098Y-39803602D01*
X121113553Y-39881810D01*
X121064639Y-39940355D01*
X120992146Y-39963391D01*
X120932305Y-39949114D01*
X120875042Y-39898254D01*
X120841703Y-39825186D01*
X120840950Y-39815226D01*
X120894186Y-39815226D01*
X120924510Y-39875899D01*
X120961887Y-39900489D01*
X121014506Y-39898416D01*
X121055198Y-39861248D01*
X121073550Y-39800461D01*
X121059147Y-39727532D01*
X121030800Y-39684925D01*
X120993450Y-39662638D01*
X120988374Y-39662793D01*
X120932488Y-39688966D01*
X120898969Y-39746346D01*
X120894186Y-39815226D01*
X120840950Y-39815226D01*
X120835670Y-39745427D01*
X120860323Y-39674488D01*
G37*
G36*
X117556672Y-40599075D02*
G01*
X117556908Y-40636018D01*
X117565336Y-40821521D01*
X117587621Y-40961796D01*
X117626280Y-41063969D01*
X117683833Y-41135173D01*
X117762799Y-41182535D01*
X117805179Y-41197663D01*
X117908514Y-41206883D01*
X117987583Y-41168130D01*
X118039835Y-41082328D01*
X118052296Y-41021884D01*
X118063213Y-40917861D01*
X118070806Y-40786005D01*
X118074011Y-40640086D01*
X118075554Y-40291486D01*
X118212261Y-40291486D01*
X118212261Y-40702962D01*
X118212171Y-40746990D01*
X118208769Y-40928822D01*
X118199041Y-41065126D01*
X118181084Y-41163363D01*
X118152993Y-41230995D01*
X118112865Y-41275482D01*
X118058794Y-41304286D01*
X117957345Y-41328829D01*
X117817062Y-41321001D01*
X117689213Y-41268131D01*
X117587495Y-41174006D01*
X117531220Y-41098052D01*
X117547223Y-41200582D01*
X117549646Y-41216453D01*
X117554057Y-41275077D01*
X117537465Y-41298723D01*
X117491295Y-41303111D01*
X117419365Y-41303111D01*
X117419365Y-40291486D01*
X117556071Y-40291486D01*
X117556672Y-40599075D01*
G37*
G36*
X121250041Y-39725258D02*
G01*
X121259914Y-39660200D01*
X121274478Y-39635296D01*
X121291478Y-39648661D01*
X121301819Y-39696535D01*
X121301978Y-39712771D01*
X121307405Y-39737635D01*
X121328415Y-39727015D01*
X121375493Y-39678320D01*
X121389726Y-39663554D01*
X121437015Y-39626746D01*
X121460322Y-39632334D01*
X121457158Y-39664813D01*
X121426480Y-39715524D01*
X121408643Y-39736159D01*
X121396711Y-39764300D01*
X121423674Y-39781437D01*
X121445829Y-39798492D01*
X121464179Y-39851056D01*
X121456385Y-39909431D01*
X121422619Y-39946795D01*
X121384096Y-39956620D01*
X121313254Y-39963391D01*
X121312787Y-39963391D01*
X121276317Y-39959521D01*
X121256662Y-39939434D01*
X121248657Y-39890314D01*
X121248031Y-39852859D01*
X121301588Y-39852859D01*
X121311285Y-39891771D01*
X121349666Y-39903504D01*
X121374786Y-39892916D01*
X121397514Y-39855930D01*
X121392402Y-39832835D01*
X121360202Y-39805926D01*
X121320616Y-39817002D01*
X121301588Y-39852859D01*
X121248031Y-39852859D01*
X121247137Y-39799344D01*
X121250041Y-39725258D01*
G37*
G36*
X115307628Y-40442160D02*
G01*
X115405581Y-40346075D01*
X115469483Y-40317193D01*
X115587197Y-40296032D01*
X115718162Y-40297113D01*
X115841224Y-40319749D01*
X115935229Y-40363254D01*
X115957966Y-40381123D01*
X116056524Y-40495396D01*
X116114577Y-40641911D01*
X116133835Y-40824640D01*
X116133643Y-40850654D01*
X116115071Y-41025295D01*
X116064639Y-41156666D01*
X115980087Y-41247328D01*
X115859151Y-41299846D01*
X115699570Y-41316782D01*
X115628529Y-41315677D01*
X115543932Y-41306775D01*
X115480714Y-41284388D01*
X115418339Y-41243137D01*
X115387721Y-41218103D01*
X115292197Y-41103682D01*
X115237603Y-40961195D01*
X115220925Y-40783628D01*
X115221545Y-40753165D01*
X115222587Y-40745808D01*
X115373511Y-40745808D01*
X115373565Y-40882990D01*
X115407501Y-41014780D01*
X115416156Y-41033764D01*
X115488225Y-41128500D01*
X115584806Y-41186913D01*
X115692905Y-41206264D01*
X115799523Y-41183813D01*
X115891665Y-41116822D01*
X115907147Y-41097911D01*
X115963978Y-40984466D01*
X115988800Y-40849587D01*
X115982042Y-40710011D01*
X115944131Y-40582479D01*
X115875495Y-40483729D01*
X115870588Y-40479251D01*
X115771708Y-40425105D01*
X115655449Y-40412426D01*
X115541643Y-40443599D01*
X115461828Y-40511551D01*
X115404033Y-40617304D01*
X115373511Y-40745808D01*
X115222587Y-40745808D01*
X115246407Y-40577561D01*
X115307628Y-40442160D01*
G37*
G36*
X121697654Y-39631927D02*
G01*
X121711246Y-39689979D01*
X121737578Y-39782950D01*
X121776105Y-39874532D01*
X121796668Y-39916623D01*
X121805315Y-39953570D01*
X121785382Y-39963391D01*
X121749330Y-39941701D01*
X121713816Y-39888242D01*
X121679576Y-39813093D01*
X121640201Y-39888242D01*
X121639699Y-39889197D01*
X121604342Y-39941630D01*
X121574358Y-39963391D01*
X121555691Y-39960557D01*
X121551086Y-39943696D01*
X121565368Y-39900976D01*
X121600719Y-39820581D01*
X121615040Y-39788507D01*
X121650031Y-39707162D01*
X121673269Y-39648967D01*
X121685711Y-39622758D01*
X121697654Y-39631927D01*
G37*
G36*
X117145953Y-40703402D02*
G01*
X117145863Y-40758583D01*
X117143567Y-40922600D01*
X117136754Y-41043703D01*
X117123535Y-41131043D01*
X117102020Y-41193771D01*
X117070322Y-41241039D01*
X117026552Y-41281997D01*
X116946037Y-41320376D01*
X116835209Y-41329261D01*
X116717213Y-41306669D01*
X116608872Y-41256012D01*
X116527013Y-41180703D01*
X116472761Y-41106227D01*
X116484502Y-41206798D01*
X116486593Y-41225233D01*
X116488194Y-41281005D01*
X116468820Y-41300516D01*
X116417815Y-41298405D01*
X116339387Y-41289441D01*
X116339387Y-40291586D01*
X116489763Y-40291486D01*
X116490364Y-40599075D01*
X116490516Y-40627410D01*
X116498558Y-40815541D01*
X116520500Y-40958035D01*
X116558788Y-41061880D01*
X116615865Y-41134062D01*
X116694177Y-41181568D01*
X116699834Y-41183880D01*
X116808411Y-41207435D01*
X116899284Y-41188474D01*
X116961811Y-41129084D01*
X116971731Y-41100575D01*
X116984575Y-41010634D01*
X116992480Y-40870039D01*
X116995267Y-40681189D01*
X116995576Y-40291668D01*
X117070764Y-40291577D01*
X117145953Y-40291486D01*
X117145953Y-40703402D01*
G37*
G36*
X119828297Y-39725258D02*
G01*
X119838171Y-39660200D01*
X119852734Y-39635296D01*
X119869328Y-39647419D01*
X119880075Y-39693971D01*
X119880144Y-39704525D01*
X119884832Y-39732108D01*
X119904556Y-39723866D01*
X119949943Y-39677258D01*
X119993470Y-39635890D01*
X120029309Y-39617551D01*
X120034980Y-39638772D01*
X120004680Y-39697418D01*
X119983385Y-39732556D01*
X119976336Y-39768428D01*
X120002495Y-39798833D01*
X120010115Y-39805617D01*
X120039021Y-39859451D01*
X120022333Y-39910443D01*
X119967476Y-39948466D01*
X119881873Y-39963391D01*
X119855542Y-39960174D01*
X119835903Y-39940215D01*
X119827298Y-39890801D01*
X119826532Y-39854026D01*
X119880075Y-39854026D01*
X119887687Y-39885914D01*
X119921087Y-39908709D01*
X119945003Y-39898559D01*
X119962099Y-39854026D01*
X119954487Y-39822138D01*
X119921087Y-39799344D01*
X119897171Y-39809493D01*
X119880075Y-39854026D01*
X119826532Y-39854026D01*
X119825393Y-39799344D01*
X119828297Y-39725258D01*
G37*
G36*
X118668485Y-39658252D02*
G01*
X118671202Y-39622928D01*
X118683825Y-39620672D01*
X118711082Y-39648203D01*
X118727688Y-39667278D01*
X118782246Y-39687878D01*
X118841367Y-39681146D01*
X118879002Y-39647234D01*
X118891345Y-39627273D01*
X118921005Y-39620311D01*
X118921864Y-39620919D01*
X118927545Y-39655671D01*
X118914954Y-39721719D01*
X118890002Y-39802289D01*
X118858601Y-39880607D01*
X118826662Y-39939899D01*
X118800097Y-39963391D01*
X118776511Y-39941894D01*
X118744551Y-39883658D01*
X118711600Y-39805630D01*
X118710267Y-39801713D01*
X118759966Y-39801713D01*
X118783561Y-39838585D01*
X118802508Y-39835963D01*
X118828805Y-39802744D01*
X118841109Y-39756096D01*
X118836574Y-39750885D01*
X118800097Y-39744661D01*
X118768802Y-39761116D01*
X118759966Y-39801713D01*
X118710267Y-39801713D01*
X118684098Y-39724824D01*
X118668485Y-39658252D01*
G37*
G36*
X177331658Y-35704378D02*
G01*
X177393381Y-35718724D01*
X177462116Y-35747325D01*
X177517957Y-35780581D01*
X177540995Y-35808889D01*
X177550490Y-35834568D01*
X177582624Y-35883375D01*
X177589749Y-35892371D01*
X177611693Y-35914675D01*
X177616248Y-35897571D01*
X177606923Y-35833918D01*
X177602737Y-35808493D01*
X177599386Y-35755078D01*
X177619865Y-35734666D01*
X177674658Y-35731389D01*
X177759724Y-35731389D01*
X177759724Y-36743014D01*
X177595677Y-36743014D01*
X177595525Y-36449096D01*
X177594300Y-36360742D01*
X177588526Y-36231974D01*
X177579103Y-36124054D01*
X177567242Y-36053892D01*
X177557162Y-36024086D01*
X177500068Y-35931235D01*
X177420135Y-35865624D01*
X177332248Y-35840754D01*
X177323366Y-35840584D01*
X177279157Y-35824718D01*
X177267582Y-35772401D01*
X177279872Y-35719404D01*
X177323623Y-35704048D01*
X177331658Y-35704378D01*
G37*
G36*
X174846561Y-37088534D02*
G01*
X174857404Y-37147775D01*
X174861554Y-37235156D01*
X174858650Y-37309242D01*
X174848777Y-37374300D01*
X174834213Y-37399204D01*
X174821866Y-37381779D01*
X174811023Y-37322537D01*
X174806872Y-37235156D01*
X174809776Y-37161071D01*
X174819650Y-37096013D01*
X174834213Y-37071109D01*
X174846561Y-37088534D01*
G37*
G36*
X171957301Y-37383983D02*
G01*
X171899832Y-37416972D01*
X171840792Y-37419787D01*
X171776190Y-37378698D01*
X171762062Y-37365829D01*
X171709534Y-37285968D01*
X171708179Y-37270231D01*
X171774671Y-37270231D01*
X171800709Y-37332504D01*
X171845492Y-37366705D01*
X171896732Y-37359580D01*
X171936724Y-37301719D01*
X171945874Y-37269628D01*
X171942477Y-37195385D01*
X171906412Y-37144398D01*
X171845334Y-37130967D01*
X171810602Y-37147985D01*
X171779554Y-37201562D01*
X171774671Y-37270231D01*
X171708179Y-37270231D01*
X171702308Y-37202061D01*
X171742285Y-37128161D01*
X171805504Y-37083855D01*
X171885591Y-37077702D01*
X171963384Y-37125791D01*
X171986819Y-37154742D01*
X172016093Y-37237109D01*
X172012178Y-37269628D01*
X172006098Y-37320131D01*
X171957301Y-37383983D01*
G37*
G36*
X174627201Y-37383580D02*
G01*
X174577285Y-37416797D01*
X174499897Y-37419144D01*
X174422483Y-37370250D01*
X174392499Y-37329864D01*
X174377578Y-37268374D01*
X174428275Y-37268374D01*
X174467059Y-37328898D01*
X174498412Y-37356331D01*
X174542953Y-37368000D01*
X174586893Y-37332355D01*
X174610779Y-37271445D01*
X174598911Y-37197915D01*
X174552364Y-37142254D01*
X174546923Y-37139045D01*
X174503049Y-37129343D01*
X174463505Y-37165194D01*
X174438719Y-37204445D01*
X174428275Y-37268374D01*
X174377578Y-37268374D01*
X174371983Y-37245314D01*
X174393620Y-37162704D01*
X174455121Y-37100930D01*
X174495191Y-37081077D01*
X174541859Y-37077437D01*
X174598662Y-37107542D01*
X174634346Y-37141573D01*
X174668210Y-37221467D01*
X174667305Y-37271445D01*
X174666612Y-37309713D01*
X174627201Y-37383580D01*
G37*
G36*
X177178938Y-37156484D02*
G01*
X177087275Y-37220736D01*
X177058837Y-37232629D01*
X176956359Y-37254046D01*
X176829137Y-37261252D01*
X176697565Y-37253820D01*
X176582036Y-37231322D01*
X176502909Y-37198579D01*
X176398800Y-37120427D01*
X176328800Y-37020162D01*
X176316110Y-36965411D01*
X176458237Y-36965411D01*
X176506317Y-37051761D01*
X176596905Y-37113541D01*
X176669003Y-37135642D01*
X176784587Y-37150384D01*
X176896228Y-37145854D01*
X176980499Y-37121561D01*
X177052074Y-37067562D01*
X177097926Y-36985975D01*
X177093234Y-36897243D01*
X177036425Y-36810124D01*
X177009624Y-36785770D01*
X176961413Y-36758697D01*
X176894958Y-36746105D01*
X176792133Y-36743014D01*
X176657165Y-36748662D01*
X176553688Y-36769438D01*
X176489775Y-36808035D01*
X176458310Y-36867099D01*
X176458237Y-36965411D01*
X176316110Y-36965411D01*
X176303183Y-36909640D01*
X176303221Y-36903008D01*
X176320506Y-36789363D01*
X176372133Y-36705568D01*
X176462339Y-36648899D01*
X176595362Y-36616631D01*
X176775440Y-36606042D01*
X176898493Y-36600994D01*
X176976129Y-36584725D01*
X177013373Y-36554440D01*
X177017082Y-36507338D01*
X177009165Y-36486557D01*
X176980046Y-36465301D01*
X176919607Y-36451215D01*
X176816168Y-36440407D01*
X176714388Y-36427502D01*
X176611506Y-36405467D01*
X176539891Y-36380094D01*
X176507555Y-36359973D01*
X176426814Y-36271962D01*
X176379669Y-36157896D01*
X176376908Y-36119287D01*
X176512828Y-36119287D01*
X176541352Y-36192925D01*
X176544137Y-36198127D01*
X176595810Y-36264711D01*
X176655494Y-36306729D01*
X176754298Y-36331565D01*
X176871861Y-36325648D01*
X176967966Y-36281841D01*
X177034639Y-36206627D01*
X177063904Y-36106487D01*
X177047787Y-35987902D01*
X177036290Y-35959176D01*
X176968221Y-35874402D01*
X176867075Y-35826785D01*
X176742577Y-35821622D01*
X176720404Y-35824913D01*
X176626109Y-35853167D01*
X176566721Y-35908311D01*
X176526497Y-36003605D01*
X176514825Y-36048598D01*
X176512828Y-36119287D01*
X176376908Y-36119287D01*
X176370798Y-36033860D01*
X176404881Y-35915942D01*
X176405208Y-35915315D01*
X176428929Y-35863429D01*
X176417959Y-35843807D01*
X176363700Y-35840754D01*
X176349759Y-35840498D01*
X176297811Y-35827436D01*
X176283298Y-35788702D01*
X176288122Y-35765578D01*
X176309412Y-35748707D01*
X176356712Y-35736631D01*
X176439563Y-35726955D01*
X176567504Y-35717279D01*
X176650118Y-35712631D01*
X176818786Y-35713094D01*
X176947396Y-35732954D01*
X177044873Y-35775469D01*
X177120146Y-35843894D01*
X177182142Y-35941486D01*
X177187296Y-35952375D01*
X177208345Y-36041776D01*
X177207336Y-36106487D01*
X177206740Y-36144720D01*
X177185779Y-36244358D01*
X177148761Y-36323838D01*
X177098984Y-36366311D01*
X177089223Y-36389073D01*
X177125750Y-36437134D01*
X177171025Y-36500372D01*
X177180344Y-36580400D01*
X177136299Y-36655568D01*
X177124335Y-36667786D01*
X177104242Y-36698605D01*
X177115999Y-36729981D01*
X177163640Y-36780322D01*
X177189536Y-36807971D01*
X177229322Y-36878192D01*
X177239372Y-36970298D01*
X177237422Y-36985975D01*
X177226348Y-37075007D01*
X177178938Y-37156484D01*
G37*
G36*
X174021191Y-37075222D02*
G01*
X174035762Y-37116335D01*
X174041767Y-37187309D01*
X174042217Y-37303509D01*
X174104025Y-37194376D01*
X174122952Y-37163854D01*
X174171712Y-37104095D01*
X174212940Y-37076171D01*
X174229822Y-37075091D01*
X174248954Y-37090599D01*
X174257859Y-37137981D01*
X174260047Y-37228595D01*
X174258013Y-37300576D01*
X174250569Y-37374197D01*
X174239541Y-37410908D01*
X174232672Y-37411627D01*
X174217235Y-37379513D01*
X174204578Y-37312935D01*
X174190121Y-37194144D01*
X174128130Y-37294232D01*
X174088869Y-37353515D01*
X174041219Y-37405488D01*
X174009596Y-37405646D01*
X173992051Y-37353352D01*
X173986635Y-37247969D01*
X173989884Y-37162639D01*
X173999672Y-37096207D01*
X174013976Y-37071109D01*
X174021191Y-37075222D01*
G37*
G36*
X175716342Y-37075224D02*
G01*
X175730844Y-37116337D01*
X175736732Y-37187309D01*
X175736991Y-37303509D01*
X175806635Y-37187309D01*
X175843579Y-37130473D01*
X175893108Y-37077618D01*
X175927913Y-37077348D01*
X175948458Y-37129811D01*
X175955203Y-37235156D01*
X175952299Y-37309242D01*
X175942426Y-37374300D01*
X175927862Y-37399204D01*
X175922921Y-37397531D01*
X175906454Y-37362609D01*
X175899087Y-37296674D01*
X175897653Y-37194144D01*
X175851240Y-37261904D01*
X175809380Y-37317815D01*
X175756979Y-37378104D01*
X175722863Y-37409357D01*
X175695462Y-37426545D01*
X175688730Y-37403354D01*
X175683710Y-37339342D01*
X175681791Y-37248827D01*
X175685063Y-37162736D01*
X175694845Y-37096219D01*
X175709132Y-37071109D01*
X175716342Y-37075224D01*
G37*
G36*
X178980649Y-36426952D02*
G01*
X179019430Y-36531120D01*
X179098069Y-36743014D01*
X179019196Y-36743014D01*
X179012650Y-36742968D01*
X178971280Y-36736982D01*
X178940899Y-36712959D01*
X178912378Y-36659523D01*
X178876587Y-36565296D01*
X178812851Y-36387578D01*
X178201113Y-36387578D01*
X178144466Y-36538981D01*
X178120078Y-36606744D01*
X178096810Y-36678488D01*
X178087819Y-36716699D01*
X178087117Y-36719903D01*
X178056109Y-36736325D01*
X177993338Y-36743014D01*
X177898856Y-36743014D01*
X177936209Y-36640485D01*
X177951169Y-36599847D01*
X177984314Y-36510634D01*
X178029308Y-36390023D01*
X178077246Y-36261804D01*
X178251866Y-36261804D01*
X178260718Y-36266045D01*
X178312407Y-36272305D01*
X178399995Y-36276611D01*
X178511608Y-36278213D01*
X178578804Y-36277980D01*
X178677703Y-36276619D01*
X178745583Y-36274314D01*
X178770612Y-36271378D01*
X178769325Y-36267175D01*
X178754385Y-36224207D01*
X178725365Y-36142594D01*
X178685609Y-36031718D01*
X178638465Y-35900959D01*
X178507057Y-35537376D01*
X178379462Y-35891386D01*
X178365383Y-35930547D01*
X178320807Y-36055969D01*
X178284768Y-36159551D01*
X178260657Y-36231444D01*
X178251866Y-36261804D01*
X178077246Y-36261804D01*
X178082708Y-36247195D01*
X178141072Y-36091330D01*
X178200956Y-35931608D01*
X178258919Y-35777209D01*
X178311518Y-35637315D01*
X178355311Y-35521104D01*
X178386854Y-35437759D01*
X178402706Y-35396459D01*
X178429529Y-35365705D01*
X178497938Y-35348612D01*
X178550523Y-35357751D01*
X178593050Y-35396459D01*
X178596299Y-35404789D01*
X178618356Y-35462592D01*
X178654951Y-35559313D01*
X178702526Y-35685487D01*
X178757526Y-35831652D01*
X178816395Y-35988345D01*
X178875575Y-36146101D01*
X178922494Y-36271378D01*
X178931512Y-36295458D01*
X178980649Y-36426952D01*
G37*
G36*
X171902601Y-35567341D02*
G01*
X171881691Y-35603796D01*
X171849261Y-35660335D01*
X171800378Y-35745059D01*
X171771996Y-35794250D01*
X171726207Y-35873396D01*
X171705547Y-35909107D01*
X171645295Y-36013250D01*
X171626456Y-36045813D01*
X171565554Y-36151080D01*
X171539595Y-36195949D01*
X170589488Y-36196069D01*
X170411951Y-36195923D01*
X170180838Y-36194958D01*
X169997216Y-36192961D01*
X169856728Y-36189774D01*
X169755015Y-36185242D01*
X169687721Y-36179209D01*
X169650489Y-36171518D01*
X169638961Y-36162013D01*
X169634907Y-36142985D01*
X169615828Y-36163653D01*
X169607410Y-36166153D01*
X169575604Y-36137187D01*
X169572999Y-36133588D01*
X171352021Y-36133588D01*
X171398127Y-36146305D01*
X171400277Y-36146739D01*
X171449001Y-36151080D01*
X171448878Y-36135548D01*
X171427353Y-36123243D01*
X171371617Y-36119795D01*
X171357650Y-36123350D01*
X171356536Y-36125376D01*
X171352021Y-36133588D01*
X169572999Y-36133588D01*
X169567141Y-36125493D01*
X170157718Y-36125493D01*
X170196169Y-36127205D01*
X170279634Y-36128528D01*
X170404958Y-36129381D01*
X170568982Y-36129684D01*
X170580251Y-36129682D01*
X170741960Y-36129343D01*
X170864773Y-36128459D01*
X170945531Y-36127109D01*
X170981078Y-36125376D01*
X170968258Y-36123340D01*
X170903912Y-36121083D01*
X170804950Y-36119139D01*
X170610774Y-36117582D01*
X170410322Y-36118230D01*
X170234052Y-36121083D01*
X170228488Y-36121229D01*
X170167438Y-36123474D01*
X170157718Y-36125493D01*
X169567141Y-36125493D01*
X169522100Y-36063259D01*
X169507866Y-36040780D01*
X169706063Y-36040780D01*
X169719828Y-36046787D01*
X169729569Y-36043140D01*
X169762140Y-36059037D01*
X169766589Y-36065507D01*
X169806994Y-36085371D01*
X169847050Y-36055259D01*
X169853536Y-36040834D01*
X169837197Y-36041840D01*
X169812096Y-36044699D01*
X169767275Y-36019426D01*
X169756134Y-36008600D01*
X169728260Y-35993141D01*
X169710702Y-36020594D01*
X169706063Y-36040780D01*
X169507866Y-36040780D01*
X169459114Y-35963789D01*
X169885451Y-35963789D01*
X169899122Y-35977460D01*
X169912792Y-35963789D01*
X169904343Y-35955340D01*
X171252931Y-35955340D01*
X171254228Y-35963789D01*
X171256254Y-35976990D01*
X171279854Y-36032142D01*
X171285713Y-36040834D01*
X171286055Y-36041341D01*
X171302430Y-36052253D01*
X171303148Y-36045813D01*
X171416560Y-36045813D01*
X171430230Y-36059483D01*
X171443901Y-36045813D01*
X171430230Y-36032142D01*
X171416560Y-36045813D01*
X171303148Y-36045813D01*
X171306776Y-36013250D01*
X171301695Y-35974532D01*
X171279854Y-35936448D01*
X171267772Y-35932690D01*
X171265310Y-35936448D01*
X171252931Y-35955340D01*
X169904343Y-35955340D01*
X169899122Y-35950119D01*
X169885451Y-35963789D01*
X169459114Y-35963789D01*
X169445982Y-35943051D01*
X169442061Y-35936448D01*
X169776086Y-35936448D01*
X169789757Y-35950119D01*
X169803427Y-35936448D01*
X169789757Y-35922777D01*
X169776086Y-35936448D01*
X169442061Y-35936448D01*
X169425826Y-35909107D01*
X169830769Y-35909107D01*
X169844439Y-35922777D01*
X169858110Y-35909107D01*
X169844439Y-35895436D01*
X169830769Y-35909107D01*
X169425826Y-35909107D01*
X169393354Y-35854424D01*
X169803427Y-35854424D01*
X169817098Y-35868095D01*
X169830769Y-35854424D01*
X169830220Y-35853875D01*
X169891292Y-35853875D01*
X169891347Y-35854424D01*
X169894565Y-35886322D01*
X169902788Y-35890600D01*
X169912792Y-35868095D01*
X169910819Y-35853621D01*
X169894565Y-35849867D01*
X169891292Y-35853875D01*
X169830220Y-35853875D01*
X169817098Y-35840754D01*
X169803427Y-35854424D01*
X169393354Y-35854424D01*
X169360883Y-35799742D01*
X169830769Y-35799742D01*
X169844439Y-35813412D01*
X169858110Y-35799742D01*
X169856715Y-35798347D01*
X171252512Y-35798347D01*
X171253086Y-35799742D01*
X171260219Y-35817091D01*
X171293524Y-35858330D01*
X171306104Y-35868095D01*
X171319178Y-35878244D01*
X171334536Y-35873396D01*
X171327949Y-35853870D01*
X171293524Y-35813412D01*
X171269391Y-35797041D01*
X171252512Y-35798347D01*
X169856715Y-35798347D01*
X169844439Y-35786071D01*
X169830769Y-35799742D01*
X169360883Y-35799742D01*
X169346336Y-35775245D01*
X169328776Y-35745059D01*
X169858110Y-35745059D01*
X169871780Y-35758730D01*
X169885451Y-35745059D01*
X169871780Y-35731389D01*
X169858110Y-35745059D01*
X169328776Y-35745059D01*
X169249252Y-35608353D01*
X170022157Y-35608353D01*
X170035828Y-35622024D01*
X170045831Y-35612020D01*
X170081676Y-35612020D01*
X170104181Y-35622024D01*
X170118655Y-35620051D01*
X170122408Y-35603796D01*
X170118401Y-35600524D01*
X170085953Y-35603796D01*
X170083583Y-35608353D01*
X170081676Y-35612020D01*
X170045831Y-35612020D01*
X170049498Y-35608353D01*
X170035828Y-35594683D01*
X170022157Y-35608353D01*
X169249252Y-35608353D01*
X169217123Y-35553121D01*
X169973316Y-35553121D01*
X169976588Y-35585569D01*
X169984812Y-35589846D01*
X169994816Y-35567341D01*
X169992843Y-35552867D01*
X169976588Y-35549114D01*
X169973316Y-35553121D01*
X169217123Y-35553121D01*
X169169409Y-35471098D01*
X170027999Y-35471098D01*
X170031271Y-35503545D01*
X170039495Y-35507823D01*
X170049498Y-35485318D01*
X170047560Y-35471098D01*
X170082681Y-35471098D01*
X170084115Y-35485318D01*
X170085953Y-35503545D01*
X170094177Y-35507823D01*
X170104181Y-35485318D01*
X170102208Y-35470843D01*
X170085953Y-35467090D01*
X170082681Y-35471098D01*
X170047560Y-35471098D01*
X170047525Y-35470843D01*
X170031271Y-35467090D01*
X170027999Y-35471098D01*
X169169409Y-35471098D01*
X169099558Y-35351020D01*
X169296648Y-35014886D01*
X169373187Y-34883797D01*
X169469238Y-34718427D01*
X169575906Y-34534129D01*
X169684894Y-34345242D01*
X169787903Y-34166104D01*
X170082068Y-33653456D01*
X170557925Y-33653456D01*
X170689933Y-33654405D01*
X170827207Y-33657714D01*
X170936122Y-33662971D01*
X171007905Y-33669733D01*
X171033782Y-33677554D01*
X171033251Y-33681477D01*
X171028031Y-33695759D01*
X171015381Y-33721730D01*
X170993038Y-33763323D01*
X170958739Y-33824471D01*
X170910220Y-33909108D01*
X170845219Y-34021167D01*
X170761471Y-34164582D01*
X170656714Y-34343285D01*
X170528685Y-34561211D01*
X170375121Y-34822293D01*
X170331932Y-34895848D01*
X170256448Y-35025157D01*
X170191349Y-35137616D01*
X170142451Y-35223151D01*
X170115572Y-35271691D01*
X170097974Y-35318426D01*
X170092892Y-35376071D01*
X170106827Y-35413096D01*
X170137306Y-35413390D01*
X170147450Y-35401045D01*
X170139381Y-35389623D01*
X170240887Y-35389623D01*
X170254558Y-35403294D01*
X170268228Y-35389623D01*
X170322911Y-35389623D01*
X170336581Y-35403294D01*
X170350252Y-35389623D01*
X170336581Y-35375953D01*
X170322911Y-35389623D01*
X170268228Y-35389623D01*
X170254558Y-35375953D01*
X170240887Y-35389623D01*
X170139381Y-35389623D01*
X170127606Y-35372954D01*
X170125949Y-35371592D01*
X170143384Y-35362578D01*
X170208034Y-35355492D01*
X170313350Y-35350815D01*
X170452781Y-35349030D01*
X170526456Y-35349196D01*
X170661961Y-35351764D01*
X170751535Y-35357843D01*
X170801259Y-35367997D01*
X170817211Y-35382788D01*
X170818426Y-35389623D01*
X170820471Y-35401133D01*
X170832602Y-35384463D01*
X170836761Y-35379836D01*
X170871885Y-35369083D01*
X170945062Y-35360934D01*
X171060442Y-35355149D01*
X171222177Y-35351490D01*
X171434419Y-35349716D01*
X171505330Y-35349610D01*
X171670022Y-35350724D01*
X171810928Y-35353591D01*
X171920326Y-35357942D01*
X171990490Y-35363505D01*
X172013700Y-35370011D01*
X172003683Y-35388966D01*
X171969813Y-35449428D01*
X171949389Y-35485318D01*
X171916770Y-35542639D01*
X171902601Y-35567341D01*
G37*
G36*
X172987694Y-36250872D02*
G01*
X172981012Y-36383334D01*
X172950857Y-36516067D01*
X172892774Y-36614968D01*
X172802800Y-36689439D01*
X172796009Y-36693357D01*
X172702150Y-36725284D01*
X172575250Y-36742223D01*
X172433451Y-36742871D01*
X172294897Y-36725926D01*
X172266830Y-36719231D01*
X172221262Y-36692345D01*
X172209455Y-36640977D01*
X172209738Y-36626981D01*
X172221383Y-36588928D01*
X172257302Y-36591964D01*
X172280237Y-36598850D01*
X172353313Y-36613302D01*
X172443657Y-36625536D01*
X172516866Y-36628371D01*
X172650056Y-36601648D01*
X172751332Y-36534102D01*
X172815734Y-36429908D01*
X172838303Y-36293242D01*
X172838303Y-36196190D01*
X172147340Y-36196190D01*
X172163727Y-36076636D01*
X172168896Y-36047099D01*
X172318820Y-36047099D01*
X172319130Y-36051209D01*
X172333572Y-36068812D01*
X172376017Y-36079717D01*
X172455337Y-36085272D01*
X172580404Y-36086825D01*
X172620812Y-36086808D01*
X172727327Y-36085825D01*
X172791434Y-36081580D01*
X172822636Y-36071677D01*
X172830436Y-36053718D01*
X172824337Y-36025307D01*
X172790311Y-35960185D01*
X172725087Y-35889188D01*
X172648696Y-35834992D01*
X172579417Y-35813412D01*
X172507745Y-35822633D01*
X172410672Y-35870058D01*
X172343755Y-35948415D01*
X172318820Y-36047099D01*
X172168896Y-36047099D01*
X172176797Y-36001944D01*
X172223079Y-35870275D01*
X172297398Y-35782268D01*
X172405023Y-35733042D01*
X172551221Y-35717718D01*
X172571500Y-35717987D01*
X172723806Y-35742231D01*
X172840681Y-35806546D01*
X172923022Y-35912026D01*
X172969732Y-36053718D01*
X172971727Y-36059769D01*
X172987694Y-36250872D01*
G37*
G36*
X175535874Y-37331609D02*
G01*
X175544215Y-37395508D01*
X175543533Y-37411084D01*
X175534800Y-37423956D01*
X175507025Y-37392368D01*
X175466772Y-37357740D01*
X175396093Y-37349097D01*
X175321673Y-37389771D01*
X175311878Y-37398306D01*
X175282094Y-37414903D01*
X175274802Y-37393782D01*
X175290157Y-37330975D01*
X175318493Y-37250440D01*
X175381038Y-37250440D01*
X175386864Y-37269986D01*
X175424975Y-37289839D01*
X175449778Y-37283145D01*
X175452316Y-37246591D01*
X175444283Y-37224017D01*
X175435720Y-37190295D01*
X175433954Y-37186784D01*
X175408379Y-37194144D01*
X175397701Y-37203891D01*
X175381038Y-37250440D01*
X175318493Y-37250440D01*
X175328320Y-37222511D01*
X175356809Y-37155928D01*
X175392372Y-37094720D01*
X175419861Y-37071109D01*
X175423811Y-37072018D01*
X175450738Y-37103880D01*
X175482689Y-37168977D01*
X175511756Y-37246591D01*
X175513217Y-37250493D01*
X175535874Y-37331609D01*
G37*
G36*
X173839094Y-37359425D02*
G01*
X173834670Y-37394771D01*
X173825064Y-37399214D01*
X173802895Y-37378698D01*
X173791005Y-37362133D01*
X173742011Y-37345863D01*
X173680522Y-37354233D01*
X173630651Y-37386194D01*
X173629738Y-37387289D01*
X173595142Y-37418204D01*
X173583800Y-37401850D01*
X173595709Y-37340405D01*
X173626017Y-37250440D01*
X173685882Y-37250440D01*
X173691708Y-37269986D01*
X173729819Y-37289839D01*
X173754621Y-37283145D01*
X173757160Y-37246591D01*
X173749127Y-37224017D01*
X173740564Y-37190295D01*
X173738798Y-37186784D01*
X173713223Y-37194144D01*
X173702545Y-37203891D01*
X173685882Y-37250440D01*
X173626017Y-37250440D01*
X173630866Y-37236047D01*
X173664656Y-37156577D01*
X173699566Y-37094775D01*
X173725234Y-37071109D01*
X173743323Y-37085577D01*
X173772306Y-37138478D01*
X173801922Y-37213563D01*
X173811993Y-37246591D01*
X173826181Y-37293117D01*
X173839094Y-37359425D01*
G37*
G36*
X171231177Y-37351113D02*
G01*
X171247460Y-37399204D01*
X171250943Y-37410679D01*
X171244514Y-37420855D01*
X171207148Y-37392368D01*
X171193690Y-37381563D01*
X171124596Y-37349588D01*
X171061780Y-37351323D01*
X171023230Y-37387266D01*
X171010792Y-37407190D01*
X170980675Y-37413848D01*
X170979545Y-37413002D01*
X170974967Y-37377918D01*
X170988689Y-37311873D01*
X170999503Y-37278404D01*
X171061124Y-37278404D01*
X171065659Y-37283615D01*
X171102136Y-37289839D01*
X171133430Y-37273384D01*
X171142266Y-37232787D01*
X171118671Y-37195915D01*
X171099725Y-37198537D01*
X171073427Y-37231756D01*
X171061124Y-37278404D01*
X170999503Y-37278404D01*
X171014652Y-37231517D01*
X171046796Y-37153503D01*
X171079061Y-37094483D01*
X171105390Y-37071109D01*
X171123032Y-37083555D01*
X171154447Y-37135691D01*
X171185944Y-37214650D01*
X171191927Y-37232787D01*
X171204879Y-37272052D01*
X171231177Y-37351113D01*
G37*
G36*
X172987819Y-37090421D02*
G01*
X172998349Y-37151844D01*
X173002351Y-37241992D01*
X173002351Y-37412874D01*
X172920327Y-37412874D01*
X172919387Y-37412873D01*
X172862088Y-37406773D01*
X172838303Y-37392368D01*
X172848517Y-37380471D01*
X172892986Y-37371862D01*
X172912170Y-37370259D01*
X172935033Y-37353659D01*
X172945295Y-37308388D01*
X172947668Y-37221486D01*
X172950106Y-37159599D01*
X172960037Y-37095830D01*
X172975010Y-37071109D01*
X172987819Y-37090421D01*
G37*
G36*
X175130724Y-37072363D02*
G01*
X175192553Y-37082144D01*
X175216990Y-37098450D01*
X175212363Y-37111028D01*
X175175978Y-37125791D01*
X175154558Y-37134539D01*
X175139357Y-37176528D01*
X175134967Y-37262497D01*
X175133121Y-37311741D01*
X175123222Y-37374614D01*
X175107625Y-37399204D01*
X175099116Y-37392939D01*
X175085611Y-37347867D01*
X175080284Y-37273608D01*
X175076540Y-37197641D01*
X175060303Y-37153163D01*
X175025602Y-37133713D01*
X174979154Y-37114703D01*
X174974831Y-37093736D01*
X175014873Y-37077579D01*
X175093955Y-37071109D01*
X175130724Y-37072363D01*
G37*
G36*
X173452366Y-37086661D02*
G01*
X173463698Y-37135910D01*
X173467152Y-37232878D01*
X173467152Y-37399204D01*
X173364622Y-37396478D01*
X173304218Y-37393421D01*
X173293946Y-37387095D01*
X173329889Y-37374871D01*
X173346551Y-37369684D01*
X173379857Y-37348097D01*
X173394645Y-37304567D01*
X173398243Y-37222793D01*
X173399151Y-37189821D01*
X173410568Y-37112387D01*
X173432975Y-37078075D01*
X173452366Y-37086661D01*
G37*
G36*
X170810810Y-37072363D02*
G01*
X170872639Y-37082144D01*
X170897076Y-37098450D01*
X170892449Y-37111028D01*
X170856065Y-37125791D01*
X170834644Y-37134539D01*
X170819443Y-37176528D01*
X170815053Y-37262497D01*
X170812428Y-37333899D01*
X170799832Y-37384569D01*
X170774041Y-37399204D01*
X170752620Y-37390456D01*
X170737419Y-37348467D01*
X170733029Y-37262497D01*
X170730405Y-37191096D01*
X170717808Y-37140426D01*
X170692017Y-37125791D01*
X170673151Y-37122707D01*
X170651005Y-37098450D01*
X170656651Y-37090279D01*
X170700665Y-37076539D01*
X170774041Y-37071109D01*
X170810810Y-37072363D01*
G37*
G36*
X172317222Y-37420642D02*
G01*
X172273524Y-37424385D01*
X172200011Y-37400810D01*
X172186838Y-37395457D01*
X172151730Y-37370428D01*
X172136514Y-37325574D01*
X172136248Y-37317180D01*
X172195785Y-37317180D01*
X172202956Y-37339698D01*
X172243632Y-37366657D01*
X172277641Y-37362054D01*
X172291479Y-37317180D01*
X172282387Y-37277213D01*
X172243632Y-37267702D01*
X172218514Y-37278574D01*
X172195785Y-37317180D01*
X172136248Y-37317180D01*
X172133917Y-37243598D01*
X172136783Y-37181200D01*
X172140411Y-37167178D01*
X172201176Y-37167178D01*
X172203828Y-37175696D01*
X172234036Y-37200520D01*
X172272496Y-37197517D01*
X172291479Y-37166803D01*
X172284293Y-37141660D01*
X172243632Y-37130996D01*
X172218818Y-37140173D01*
X172201176Y-37167178D01*
X172140411Y-37167178D01*
X172154439Y-37112959D01*
X172196118Y-37080233D01*
X172270973Y-37071528D01*
X172288195Y-37071575D01*
X172321412Y-37077093D01*
X172338653Y-37100241D01*
X172345157Y-37153368D01*
X172345298Y-37166803D01*
X172346161Y-37248827D01*
X172345726Y-37299431D01*
X172344218Y-37317180D01*
X172338743Y-37381639D01*
X172317222Y-37420642D01*
G37*
G36*
X170545677Y-37360012D02*
G01*
X170486958Y-37406616D01*
X170452657Y-37417746D01*
X170385649Y-37417019D01*
X170322911Y-37371862D01*
X170284518Y-37312924D01*
X170272385Y-37234039D01*
X170332450Y-37234039D01*
X170346853Y-37306968D01*
X170375200Y-37349575D01*
X170412550Y-37371862D01*
X170417626Y-37371707D01*
X170473512Y-37345534D01*
X170507031Y-37288154D01*
X170511814Y-37219274D01*
X170481490Y-37158601D01*
X170444113Y-37134011D01*
X170391494Y-37136084D01*
X170350802Y-37173252D01*
X170332450Y-37234039D01*
X170272385Y-37234039D01*
X170271902Y-37230898D01*
X170292447Y-37152690D01*
X170341361Y-37094145D01*
X170413854Y-37071109D01*
X170473695Y-37085386D01*
X170530958Y-37136246D01*
X170564297Y-37209314D01*
X170565050Y-37219274D01*
X170570330Y-37289073D01*
X170545677Y-37360012D01*
G37*
G36*
X173588938Y-35713499D02*
G01*
X173716787Y-35766369D01*
X173818505Y-35860494D01*
X173874780Y-35936448D01*
X173858777Y-35833918D01*
X173856354Y-35818047D01*
X173851943Y-35759423D01*
X173868535Y-35735777D01*
X173914705Y-35731389D01*
X173986635Y-35731389D01*
X173986635Y-36743014D01*
X173849929Y-36743014D01*
X173849328Y-36435425D01*
X173849092Y-36398482D01*
X173840664Y-36212979D01*
X173818379Y-36072704D01*
X173779720Y-35970531D01*
X173722167Y-35899327D01*
X173643201Y-35851965D01*
X173600821Y-35836837D01*
X173497486Y-35827617D01*
X173418417Y-35866370D01*
X173366165Y-35952172D01*
X173353704Y-36012616D01*
X173342787Y-36116639D01*
X173335194Y-36248495D01*
X173331989Y-36394414D01*
X173330446Y-36743014D01*
X173193739Y-36743014D01*
X173193739Y-36331538D01*
X173193829Y-36287510D01*
X173197231Y-36105678D01*
X173206959Y-35969374D01*
X173224916Y-35871137D01*
X173253007Y-35803505D01*
X173293135Y-35759018D01*
X173347206Y-35730214D01*
X173448655Y-35705671D01*
X173588938Y-35713499D01*
G37*
G36*
X170155959Y-37309242D02*
G01*
X170146086Y-37374300D01*
X170131522Y-37399204D01*
X170114522Y-37385839D01*
X170104181Y-37337965D01*
X170104022Y-37321729D01*
X170098595Y-37296865D01*
X170077585Y-37307485D01*
X170030507Y-37356180D01*
X170016274Y-37370946D01*
X169968985Y-37407754D01*
X169945678Y-37402166D01*
X169948842Y-37369687D01*
X169979520Y-37318976D01*
X169997357Y-37298341D01*
X170009289Y-37270200D01*
X169982326Y-37253063D01*
X169960171Y-37236008D01*
X169941821Y-37183444D01*
X169942472Y-37178570D01*
X170008486Y-37178570D01*
X170013598Y-37201665D01*
X170045798Y-37228574D01*
X170085384Y-37217498D01*
X170104412Y-37181641D01*
X170094715Y-37142729D01*
X170056334Y-37130996D01*
X170031214Y-37141584D01*
X170008486Y-37178570D01*
X169942472Y-37178570D01*
X169949615Y-37125069D01*
X169983381Y-37087705D01*
X170021904Y-37077880D01*
X170092746Y-37071109D01*
X170093213Y-37071109D01*
X170129683Y-37074979D01*
X170149338Y-37095066D01*
X170157343Y-37144186D01*
X170157969Y-37181641D01*
X170158863Y-37235156D01*
X170155959Y-37309242D01*
G37*
G36*
X176098372Y-36592340D02*
G01*
X176000419Y-36688425D01*
X175936517Y-36717307D01*
X175818803Y-36738468D01*
X175687838Y-36737387D01*
X175564776Y-36714751D01*
X175470771Y-36671246D01*
X175448034Y-36653377D01*
X175349476Y-36539104D01*
X175291423Y-36392589D01*
X175272165Y-36209860D01*
X175272349Y-36184913D01*
X175417200Y-36184913D01*
X175423958Y-36324489D01*
X175461869Y-36452021D01*
X175530505Y-36550771D01*
X175535412Y-36555249D01*
X175634292Y-36609395D01*
X175750551Y-36622074D01*
X175864357Y-36590901D01*
X175944172Y-36522949D01*
X176001967Y-36417196D01*
X176032489Y-36288692D01*
X176032435Y-36151510D01*
X175998499Y-36019720D01*
X175989844Y-36000736D01*
X175917775Y-35906000D01*
X175821194Y-35847587D01*
X175713095Y-35828236D01*
X175606477Y-35850687D01*
X175514335Y-35917678D01*
X175498853Y-35936589D01*
X175442022Y-36050034D01*
X175417200Y-36184913D01*
X175272349Y-36184913D01*
X175272357Y-36183846D01*
X175290929Y-36009205D01*
X175341361Y-35877834D01*
X175425913Y-35787172D01*
X175546849Y-35734654D01*
X175706430Y-35717718D01*
X175777471Y-35718823D01*
X175862068Y-35727725D01*
X175925286Y-35750112D01*
X175987661Y-35791363D01*
X176018279Y-35816397D01*
X176113803Y-35930818D01*
X176168397Y-36073305D01*
X176185075Y-36250872D01*
X176184455Y-36281335D01*
X176183413Y-36288692D01*
X176159593Y-36456939D01*
X176098372Y-36592340D01*
G37*
G36*
X169850309Y-37073943D02*
G01*
X169854914Y-37090804D01*
X169840632Y-37133524D01*
X169805281Y-37213919D01*
X169790960Y-37245993D01*
X169755969Y-37327338D01*
X169732731Y-37385533D01*
X169720289Y-37411742D01*
X169708346Y-37402573D01*
X169694754Y-37344521D01*
X169668422Y-37251550D01*
X169629895Y-37159968D01*
X169609332Y-37117877D01*
X169600685Y-37080930D01*
X169620618Y-37071109D01*
X169656670Y-37092799D01*
X169692184Y-37146258D01*
X169726424Y-37221407D01*
X169765799Y-37146258D01*
X169766301Y-37145303D01*
X169801658Y-37092870D01*
X169831642Y-37071109D01*
X169850309Y-37073943D01*
G37*
G36*
X174688787Y-35727831D02*
G01*
X174797128Y-35778488D01*
X174878987Y-35853797D01*
X174933239Y-35928273D01*
X174921498Y-35827702D01*
X174919407Y-35809267D01*
X174917806Y-35753495D01*
X174937180Y-35733984D01*
X174988185Y-35736095D01*
X175066613Y-35745059D01*
X175066613Y-36742914D01*
X174916237Y-36743014D01*
X174915636Y-36435425D01*
X174915484Y-36407090D01*
X174907442Y-36218959D01*
X174885500Y-36076465D01*
X174847212Y-35972620D01*
X174790135Y-35900438D01*
X174711823Y-35852932D01*
X174706166Y-35850620D01*
X174597589Y-35827065D01*
X174506716Y-35846026D01*
X174444189Y-35905416D01*
X174434269Y-35933925D01*
X174421425Y-36023866D01*
X174413520Y-36164461D01*
X174410733Y-36353311D01*
X174410424Y-36742832D01*
X174335236Y-36742923D01*
X174260047Y-36743014D01*
X174260047Y-36331098D01*
X174260137Y-36275917D01*
X174262433Y-36111900D01*
X174269246Y-35990797D01*
X174282465Y-35903457D01*
X174303980Y-35840729D01*
X174335678Y-35793461D01*
X174379448Y-35752503D01*
X174459963Y-35714124D01*
X174570791Y-35705239D01*
X174688787Y-35727831D01*
G37*
G36*
X171577703Y-37309242D02*
G01*
X171567829Y-37374300D01*
X171553266Y-37399204D01*
X171536672Y-37387081D01*
X171525925Y-37340529D01*
X171525856Y-37329975D01*
X171521168Y-37302392D01*
X171501444Y-37310634D01*
X171456057Y-37357242D01*
X171412530Y-37398610D01*
X171376691Y-37416949D01*
X171371020Y-37395728D01*
X171401320Y-37337082D01*
X171422615Y-37301944D01*
X171429664Y-37266072D01*
X171403505Y-37235667D01*
X171395885Y-37228883D01*
X171369892Y-37180474D01*
X171443901Y-37180474D01*
X171451513Y-37212362D01*
X171484913Y-37235156D01*
X171508829Y-37225007D01*
X171525925Y-37180474D01*
X171518313Y-37148586D01*
X171484913Y-37125791D01*
X171460997Y-37135941D01*
X171443901Y-37180474D01*
X171369892Y-37180474D01*
X171366979Y-37175049D01*
X171383667Y-37124057D01*
X171438524Y-37086034D01*
X171524127Y-37071109D01*
X171550458Y-37074326D01*
X171570097Y-37094285D01*
X171578702Y-37143699D01*
X171579468Y-37180474D01*
X171580607Y-37235156D01*
X171577703Y-37309242D01*
G37*
G36*
X172737515Y-37376248D02*
G01*
X172734798Y-37411572D01*
X172722175Y-37413828D01*
X172694918Y-37386297D01*
X172678312Y-37367222D01*
X172623754Y-37346622D01*
X172564633Y-37353354D01*
X172526998Y-37387266D01*
X172514655Y-37407227D01*
X172484995Y-37414189D01*
X172484136Y-37413581D01*
X172478455Y-37378829D01*
X172491046Y-37312781D01*
X172501692Y-37278404D01*
X172564891Y-37278404D01*
X172569426Y-37283615D01*
X172605903Y-37289839D01*
X172637198Y-37273384D01*
X172646034Y-37232787D01*
X172622439Y-37195915D01*
X172603492Y-37198537D01*
X172577195Y-37231756D01*
X172564891Y-37278404D01*
X172501692Y-37278404D01*
X172515998Y-37232211D01*
X172547399Y-37153893D01*
X172579338Y-37094601D01*
X172605903Y-37071109D01*
X172629489Y-37092606D01*
X172661449Y-37150842D01*
X172694400Y-37228870D01*
X172695733Y-37232787D01*
X172721902Y-37309676D01*
X172737515Y-37376248D01*
G37*
D12*
%TO.C,J4*%
X171260000Y-61065000D02*
X115260000Y-61065000D01*
X115260000Y-69665000D02*
X117910000Y-69665000D01*
X115260000Y-61065000D02*
X115260000Y-69665000D01*
X168820000Y-69665000D02*
X171260000Y-69665000D01*
X171260000Y-64350000D02*
X171260000Y-61065000D01*
X171260000Y-69665000D02*
X171260000Y-67750000D01*
X114610000Y-67150000D02*
G75*
G03*
X114610000Y-67150000I-100000J0D01*
G01*
%TO.C,J3*%
X171260000Y-81065000D02*
X115260000Y-81065000D01*
X115260000Y-89665000D02*
X117910000Y-89665000D01*
X115260000Y-81065000D02*
X115260000Y-89665000D01*
X168820000Y-89665000D02*
X171260000Y-89665000D01*
X171260000Y-84350000D02*
X171260000Y-81065000D01*
X171260000Y-89665000D02*
X171260000Y-87750000D01*
X114610000Y-87150000D02*
G75*
G03*
X114610000Y-87150000I-100000J0D01*
G01*
%TO.C,J1*%
X115260000Y-121065000D02*
X115260000Y-129665000D01*
X171260000Y-124350000D02*
X171260000Y-121065000D01*
X171260000Y-129665000D02*
X171260000Y-127750000D01*
X168820000Y-129665000D02*
X171260000Y-129665000D01*
X115260000Y-129665000D02*
X117910000Y-129665000D01*
X171260000Y-121065000D02*
X115260000Y-121065000D01*
X114610000Y-127150000D02*
G75*
G03*
X114610000Y-127150000I-100000J0D01*
G01*
%TO.C,J2*%
X171260000Y-101065000D02*
X115260000Y-101065000D01*
X115260000Y-101065000D02*
X115260000Y-109665000D01*
X171260000Y-109665000D02*
X171260000Y-107750000D01*
X171260000Y-104350000D02*
X171260000Y-101065000D01*
X115260000Y-109665000D02*
X117910000Y-109665000D01*
X168820000Y-109665000D02*
X171260000Y-109665000D01*
X114610000Y-107150000D02*
G75*
G03*
X114610000Y-107150000I-100000J0D01*
G01*
%TD*%
M02*
