%TF.GenerationSoftware,KiCad,Pcbnew,7.0.7*%
%TF.CreationDate,2023-09-16T13:26:46-04:00*%
%TF.ProjectId,AstroPix_telescope,41737472-6f50-4697-985f-74656c657363,1.1*%
%TF.SameCoordinates,Original*%
%TF.FileFunction,Legend,Top*%
%TF.FilePolarity,Positive*%
%FSLAX46Y46*%
G04 Gerber Fmt 4.6, Leading zero omitted, Abs format (unit mm)*
G04 Created by KiCad (PCBNEW 7.0.7) date 2023-09-16 13:26:46*
%MOMM*%
%LPD*%
G01*
G04 APERTURE LIST*
%ADD10C,0.254000*%
%ADD11C,0.500000*%
%ADD12C,0.150000*%
%ADD13C,0.300000*%
%ADD14C,0.050000*%
%ADD15C,0.130000*%
%ADD16C,0.120000*%
%ADD17C,0.010000*%
G04 APERTURE END LIST*
D10*
X127241904Y-144418932D02*
X127241904Y-145241409D01*
X127241904Y-145241409D02*
X127290285Y-145338171D01*
X127290285Y-145338171D02*
X127338666Y-145386552D01*
X127338666Y-145386552D02*
X127435428Y-145434932D01*
X127435428Y-145434932D02*
X127628952Y-145434932D01*
X127628952Y-145434932D02*
X127725714Y-145386552D01*
X127725714Y-145386552D02*
X127774095Y-145338171D01*
X127774095Y-145338171D02*
X127822476Y-145241409D01*
X127822476Y-145241409D02*
X127822476Y-144418932D01*
X128886857Y-145338171D02*
X128838476Y-145386552D01*
X128838476Y-145386552D02*
X128693333Y-145434932D01*
X128693333Y-145434932D02*
X128596571Y-145434932D01*
X128596571Y-145434932D02*
X128451428Y-145386552D01*
X128451428Y-145386552D02*
X128354666Y-145289790D01*
X128354666Y-145289790D02*
X128306285Y-145193028D01*
X128306285Y-145193028D02*
X128257904Y-144999504D01*
X128257904Y-144999504D02*
X128257904Y-144854361D01*
X128257904Y-144854361D02*
X128306285Y-144660837D01*
X128306285Y-144660837D02*
X128354666Y-144564075D01*
X128354666Y-144564075D02*
X128451428Y-144467313D01*
X128451428Y-144467313D02*
X128596571Y-144418932D01*
X128596571Y-144418932D02*
X128693333Y-144418932D01*
X128693333Y-144418932D02*
X128838476Y-144467313D01*
X128838476Y-144467313D02*
X128886857Y-144515694D01*
X129273904Y-145386552D02*
X129419047Y-145434932D01*
X129419047Y-145434932D02*
X129660952Y-145434932D01*
X129660952Y-145434932D02*
X129757714Y-145386552D01*
X129757714Y-145386552D02*
X129806095Y-145338171D01*
X129806095Y-145338171D02*
X129854476Y-145241409D01*
X129854476Y-145241409D02*
X129854476Y-145144647D01*
X129854476Y-145144647D02*
X129806095Y-145047885D01*
X129806095Y-145047885D02*
X129757714Y-144999504D01*
X129757714Y-144999504D02*
X129660952Y-144951123D01*
X129660952Y-144951123D02*
X129467428Y-144902742D01*
X129467428Y-144902742D02*
X129370666Y-144854361D01*
X129370666Y-144854361D02*
X129322285Y-144805980D01*
X129322285Y-144805980D02*
X129273904Y-144709218D01*
X129273904Y-144709218D02*
X129273904Y-144612456D01*
X129273904Y-144612456D02*
X129322285Y-144515694D01*
X129322285Y-144515694D02*
X129370666Y-144467313D01*
X129370666Y-144467313D02*
X129467428Y-144418932D01*
X129467428Y-144418932D02*
X129709333Y-144418932D01*
X129709333Y-144418932D02*
X129854476Y-144467313D01*
X130870476Y-145338171D02*
X130822095Y-145386552D01*
X130822095Y-145386552D02*
X130676952Y-145434932D01*
X130676952Y-145434932D02*
X130580190Y-145434932D01*
X130580190Y-145434932D02*
X130435047Y-145386552D01*
X130435047Y-145386552D02*
X130338285Y-145289790D01*
X130338285Y-145289790D02*
X130289904Y-145193028D01*
X130289904Y-145193028D02*
X130241523Y-144999504D01*
X130241523Y-144999504D02*
X130241523Y-144854361D01*
X130241523Y-144854361D02*
X130289904Y-144660837D01*
X130289904Y-144660837D02*
X130338285Y-144564075D01*
X130338285Y-144564075D02*
X130435047Y-144467313D01*
X130435047Y-144467313D02*
X130580190Y-144418932D01*
X130580190Y-144418932D02*
X130676952Y-144418932D01*
X130676952Y-144418932D02*
X130822095Y-144467313D01*
X130822095Y-144467313D02*
X130870476Y-144515694D01*
X126975809Y-147022312D02*
X127120952Y-147070692D01*
X127120952Y-147070692D02*
X127362857Y-147070692D01*
X127362857Y-147070692D02*
X127459619Y-147022312D01*
X127459619Y-147022312D02*
X127508000Y-146973931D01*
X127508000Y-146973931D02*
X127556381Y-146877169D01*
X127556381Y-146877169D02*
X127556381Y-146780407D01*
X127556381Y-146780407D02*
X127508000Y-146683645D01*
X127508000Y-146683645D02*
X127459619Y-146635264D01*
X127459619Y-146635264D02*
X127362857Y-146586883D01*
X127362857Y-146586883D02*
X127169333Y-146538502D01*
X127169333Y-146538502D02*
X127072571Y-146490121D01*
X127072571Y-146490121D02*
X127024190Y-146441740D01*
X127024190Y-146441740D02*
X126975809Y-146344978D01*
X126975809Y-146344978D02*
X126975809Y-146248216D01*
X126975809Y-146248216D02*
X127024190Y-146151454D01*
X127024190Y-146151454D02*
X127072571Y-146103073D01*
X127072571Y-146103073D02*
X127169333Y-146054692D01*
X127169333Y-146054692D02*
X127411238Y-146054692D01*
X127411238Y-146054692D02*
X127556381Y-146103073D01*
X128572381Y-146973931D02*
X128524000Y-147022312D01*
X128524000Y-147022312D02*
X128378857Y-147070692D01*
X128378857Y-147070692D02*
X128282095Y-147070692D01*
X128282095Y-147070692D02*
X128136952Y-147022312D01*
X128136952Y-147022312D02*
X128040190Y-146925550D01*
X128040190Y-146925550D02*
X127991809Y-146828788D01*
X127991809Y-146828788D02*
X127943428Y-146635264D01*
X127943428Y-146635264D02*
X127943428Y-146490121D01*
X127943428Y-146490121D02*
X127991809Y-146296597D01*
X127991809Y-146296597D02*
X128040190Y-146199835D01*
X128040190Y-146199835D02*
X128136952Y-146103073D01*
X128136952Y-146103073D02*
X128282095Y-146054692D01*
X128282095Y-146054692D02*
X128378857Y-146054692D01*
X128378857Y-146054692D02*
X128524000Y-146103073D01*
X128524000Y-146103073D02*
X128572381Y-146151454D01*
X129007809Y-147070692D02*
X129007809Y-146054692D01*
X129491619Y-147070692D02*
X129491619Y-146054692D01*
X129491619Y-146054692D02*
X129878667Y-146054692D01*
X129878667Y-146054692D02*
X129975429Y-146103073D01*
X129975429Y-146103073D02*
X130023810Y-146151454D01*
X130023810Y-146151454D02*
X130072191Y-146248216D01*
X130072191Y-146248216D02*
X130072191Y-146393359D01*
X130072191Y-146393359D02*
X130023810Y-146490121D01*
X130023810Y-146490121D02*
X129975429Y-146538502D01*
X129975429Y-146538502D02*
X129878667Y-146586883D01*
X129878667Y-146586883D02*
X129491619Y-146586883D01*
X130507619Y-147070692D02*
X130507619Y-146054692D01*
X130507619Y-146054692D02*
X130894667Y-146054692D01*
X130894667Y-146054692D02*
X130991429Y-146103073D01*
X130991429Y-146103073D02*
X131039810Y-146151454D01*
X131039810Y-146151454D02*
X131088191Y-146248216D01*
X131088191Y-146248216D02*
X131088191Y-146393359D01*
X131088191Y-146393359D02*
X131039810Y-146490121D01*
X131039810Y-146490121D02*
X130991429Y-146538502D01*
X130991429Y-146538502D02*
X130894667Y-146586883D01*
X130894667Y-146586883D02*
X130507619Y-146586883D01*
D11*
X181349714Y-124366666D02*
X181349714Y-123176190D01*
X182206857Y-124604761D02*
X179206857Y-123771428D01*
X179206857Y-123771428D02*
X182206857Y-122938095D01*
X182064000Y-122223809D02*
X182206857Y-121985714D01*
X182206857Y-121985714D02*
X182206857Y-121509523D01*
X182206857Y-121509523D02*
X182064000Y-121271428D01*
X182064000Y-121271428D02*
X181778285Y-121152380D01*
X181778285Y-121152380D02*
X181635428Y-121152380D01*
X181635428Y-121152380D02*
X181349714Y-121271428D01*
X181349714Y-121271428D02*
X181206857Y-121509523D01*
X181206857Y-121509523D02*
X181206857Y-121866666D01*
X181206857Y-121866666D02*
X181064000Y-122104761D01*
X181064000Y-122104761D02*
X180778285Y-122223809D01*
X180778285Y-122223809D02*
X180635428Y-122223809D01*
X180635428Y-122223809D02*
X180349714Y-122104761D01*
X180349714Y-122104761D02*
X180206857Y-121866666D01*
X180206857Y-121866666D02*
X180206857Y-121509523D01*
X180206857Y-121509523D02*
X180349714Y-121271428D01*
X180206857Y-120438094D02*
X180206857Y-119485713D01*
X179206857Y-120080951D02*
X181778285Y-120080951D01*
X181778285Y-120080951D02*
X182064000Y-119961904D01*
X182064000Y-119961904D02*
X182206857Y-119723809D01*
X182206857Y-119723809D02*
X182206857Y-119485713D01*
X182206857Y-118652380D02*
X180206857Y-118652380D01*
X180778285Y-118652380D02*
X180492571Y-118533333D01*
X180492571Y-118533333D02*
X180349714Y-118414285D01*
X180349714Y-118414285D02*
X180206857Y-118176190D01*
X180206857Y-118176190D02*
X180206857Y-117938095D01*
X182206857Y-116747619D02*
X182064000Y-116985714D01*
X182064000Y-116985714D02*
X181921142Y-117104761D01*
X181921142Y-117104761D02*
X181635428Y-117223809D01*
X181635428Y-117223809D02*
X180778285Y-117223809D01*
X180778285Y-117223809D02*
X180492571Y-117104761D01*
X180492571Y-117104761D02*
X180349714Y-116985714D01*
X180349714Y-116985714D02*
X180206857Y-116747619D01*
X180206857Y-116747619D02*
X180206857Y-116390476D01*
X180206857Y-116390476D02*
X180349714Y-116152380D01*
X180349714Y-116152380D02*
X180492571Y-116033333D01*
X180492571Y-116033333D02*
X180778285Y-115914285D01*
X180778285Y-115914285D02*
X181635428Y-115914285D01*
X181635428Y-115914285D02*
X181921142Y-116033333D01*
X181921142Y-116033333D02*
X182064000Y-116152380D01*
X182064000Y-116152380D02*
X182206857Y-116390476D01*
X182206857Y-116390476D02*
X182206857Y-116747619D01*
X182206857Y-114842856D02*
X179206857Y-114842856D01*
X179206857Y-114842856D02*
X179206857Y-113890475D01*
X179206857Y-113890475D02*
X179349714Y-113652380D01*
X179349714Y-113652380D02*
X179492571Y-113533333D01*
X179492571Y-113533333D02*
X179778285Y-113414285D01*
X179778285Y-113414285D02*
X180206857Y-113414285D01*
X180206857Y-113414285D02*
X180492571Y-113533333D01*
X180492571Y-113533333D02*
X180635428Y-113652380D01*
X180635428Y-113652380D02*
X180778285Y-113890475D01*
X180778285Y-113890475D02*
X180778285Y-114842856D01*
X182206857Y-112342856D02*
X180206857Y-112342856D01*
X179206857Y-112342856D02*
X179349714Y-112461904D01*
X179349714Y-112461904D02*
X179492571Y-112342856D01*
X179492571Y-112342856D02*
X179349714Y-112223809D01*
X179349714Y-112223809D02*
X179206857Y-112342856D01*
X179206857Y-112342856D02*
X179492571Y-112342856D01*
X182206857Y-111390476D02*
X180206857Y-110080952D01*
X180206857Y-111390476D02*
X182206857Y-110080952D01*
X179206857Y-107580951D02*
X179206857Y-106152380D01*
X182206857Y-106866666D02*
X179206857Y-106866666D01*
X182064000Y-104366665D02*
X182206857Y-104604761D01*
X182206857Y-104604761D02*
X182206857Y-105080951D01*
X182206857Y-105080951D02*
X182064000Y-105319046D01*
X182064000Y-105319046D02*
X181778285Y-105438094D01*
X181778285Y-105438094D02*
X180635428Y-105438094D01*
X180635428Y-105438094D02*
X180349714Y-105319046D01*
X180349714Y-105319046D02*
X180206857Y-105080951D01*
X180206857Y-105080951D02*
X180206857Y-104604761D01*
X180206857Y-104604761D02*
X180349714Y-104366665D01*
X180349714Y-104366665D02*
X180635428Y-104247618D01*
X180635428Y-104247618D02*
X180921142Y-104247618D01*
X180921142Y-104247618D02*
X181206857Y-105438094D01*
X182206857Y-102819047D02*
X182064000Y-103057142D01*
X182064000Y-103057142D02*
X181778285Y-103176189D01*
X181778285Y-103176189D02*
X179206857Y-103176189D01*
X182064000Y-100914284D02*
X182206857Y-101152380D01*
X182206857Y-101152380D02*
X182206857Y-101628570D01*
X182206857Y-101628570D02*
X182064000Y-101866665D01*
X182064000Y-101866665D02*
X181778285Y-101985713D01*
X181778285Y-101985713D02*
X180635428Y-101985713D01*
X180635428Y-101985713D02*
X180349714Y-101866665D01*
X180349714Y-101866665D02*
X180206857Y-101628570D01*
X180206857Y-101628570D02*
X180206857Y-101152380D01*
X180206857Y-101152380D02*
X180349714Y-100914284D01*
X180349714Y-100914284D02*
X180635428Y-100795237D01*
X180635428Y-100795237D02*
X180921142Y-100795237D01*
X180921142Y-100795237D02*
X181206857Y-101985713D01*
X182064000Y-99842856D02*
X182206857Y-99604761D01*
X182206857Y-99604761D02*
X182206857Y-99128570D01*
X182206857Y-99128570D02*
X182064000Y-98890475D01*
X182064000Y-98890475D02*
X181778285Y-98771427D01*
X181778285Y-98771427D02*
X181635428Y-98771427D01*
X181635428Y-98771427D02*
X181349714Y-98890475D01*
X181349714Y-98890475D02*
X181206857Y-99128570D01*
X181206857Y-99128570D02*
X181206857Y-99485713D01*
X181206857Y-99485713D02*
X181064000Y-99723808D01*
X181064000Y-99723808D02*
X180778285Y-99842856D01*
X180778285Y-99842856D02*
X180635428Y-99842856D01*
X180635428Y-99842856D02*
X180349714Y-99723808D01*
X180349714Y-99723808D02*
X180206857Y-99485713D01*
X180206857Y-99485713D02*
X180206857Y-99128570D01*
X180206857Y-99128570D02*
X180349714Y-98890475D01*
X182064000Y-96628570D02*
X182206857Y-96866665D01*
X182206857Y-96866665D02*
X182206857Y-97342856D01*
X182206857Y-97342856D02*
X182064000Y-97580951D01*
X182064000Y-97580951D02*
X181921142Y-97699998D01*
X181921142Y-97699998D02*
X181635428Y-97819046D01*
X181635428Y-97819046D02*
X180778285Y-97819046D01*
X180778285Y-97819046D02*
X180492571Y-97699998D01*
X180492571Y-97699998D02*
X180349714Y-97580951D01*
X180349714Y-97580951D02*
X180206857Y-97342856D01*
X180206857Y-97342856D02*
X180206857Y-96866665D01*
X180206857Y-96866665D02*
X180349714Y-96628570D01*
X182206857Y-95199999D02*
X182064000Y-95438094D01*
X182064000Y-95438094D02*
X181921142Y-95557141D01*
X181921142Y-95557141D02*
X181635428Y-95676189D01*
X181635428Y-95676189D02*
X180778285Y-95676189D01*
X180778285Y-95676189D02*
X180492571Y-95557141D01*
X180492571Y-95557141D02*
X180349714Y-95438094D01*
X180349714Y-95438094D02*
X180206857Y-95199999D01*
X180206857Y-95199999D02*
X180206857Y-94842856D01*
X180206857Y-94842856D02*
X180349714Y-94604760D01*
X180349714Y-94604760D02*
X180492571Y-94485713D01*
X180492571Y-94485713D02*
X180778285Y-94366665D01*
X180778285Y-94366665D02*
X181635428Y-94366665D01*
X181635428Y-94366665D02*
X181921142Y-94485713D01*
X181921142Y-94485713D02*
X182064000Y-94604760D01*
X182064000Y-94604760D02*
X182206857Y-94842856D01*
X182206857Y-94842856D02*
X182206857Y-95199999D01*
X180206857Y-93295236D02*
X183206857Y-93295236D01*
X180349714Y-93295236D02*
X180206857Y-93057141D01*
X180206857Y-93057141D02*
X180206857Y-92580951D01*
X180206857Y-92580951D02*
X180349714Y-92342855D01*
X180349714Y-92342855D02*
X180492571Y-92223808D01*
X180492571Y-92223808D02*
X180778285Y-92104760D01*
X180778285Y-92104760D02*
X181635428Y-92104760D01*
X181635428Y-92104760D02*
X181921142Y-92223808D01*
X181921142Y-92223808D02*
X182064000Y-92342855D01*
X182064000Y-92342855D02*
X182206857Y-92580951D01*
X182206857Y-92580951D02*
X182206857Y-93057141D01*
X182206857Y-93057141D02*
X182064000Y-93295236D01*
X182064000Y-90080950D02*
X182206857Y-90319046D01*
X182206857Y-90319046D02*
X182206857Y-90795236D01*
X182206857Y-90795236D02*
X182064000Y-91033331D01*
X182064000Y-91033331D02*
X181778285Y-91152379D01*
X181778285Y-91152379D02*
X180635428Y-91152379D01*
X180635428Y-91152379D02*
X180349714Y-91033331D01*
X180349714Y-91033331D02*
X180206857Y-90795236D01*
X180206857Y-90795236D02*
X180206857Y-90319046D01*
X180206857Y-90319046D02*
X180349714Y-90080950D01*
X180349714Y-90080950D02*
X180635428Y-89961903D01*
X180635428Y-89961903D02*
X180921142Y-89961903D01*
X180921142Y-89961903D02*
X181206857Y-91152379D01*
X182206857Y-85676189D02*
X182206857Y-87104760D01*
X182206857Y-86390474D02*
X179206857Y-86390474D01*
X179206857Y-86390474D02*
X179635428Y-86628570D01*
X179635428Y-86628570D02*
X179921142Y-86866665D01*
X179921142Y-86866665D02*
X180064000Y-87104760D01*
X181921142Y-84604760D02*
X182064000Y-84485713D01*
X182064000Y-84485713D02*
X182206857Y-84604760D01*
X182206857Y-84604760D02*
X182064000Y-84723808D01*
X182064000Y-84723808D02*
X181921142Y-84604760D01*
X181921142Y-84604760D02*
X182206857Y-84604760D01*
X182206857Y-82104761D02*
X182206857Y-83533332D01*
X182206857Y-82819046D02*
X179206857Y-82819046D01*
X179206857Y-82819046D02*
X179635428Y-83057142D01*
X179635428Y-83057142D02*
X179921142Y-83295237D01*
X179921142Y-83295237D02*
X180064000Y-83533332D01*
X181921142Y-81033332D02*
X182064000Y-80914285D01*
X182064000Y-80914285D02*
X182206857Y-81033332D01*
X182206857Y-81033332D02*
X182064000Y-81152380D01*
X182064000Y-81152380D02*
X181921142Y-81033332D01*
X181921142Y-81033332D02*
X182206857Y-81033332D01*
X182206857Y-78533333D02*
X182206857Y-79961904D01*
X182206857Y-79247618D02*
X179206857Y-79247618D01*
X179206857Y-79247618D02*
X179635428Y-79485714D01*
X179635428Y-79485714D02*
X179921142Y-79723809D01*
X179921142Y-79723809D02*
X180064000Y-79961904D01*
D12*
X105846779Y-143849819D02*
X105846779Y-142849819D01*
X105846779Y-142849819D02*
X106418207Y-143849819D01*
X106418207Y-143849819D02*
X106418207Y-142849819D01*
X106894398Y-143849819D02*
X106894398Y-143183152D01*
X106894398Y-142849819D02*
X106846779Y-142897438D01*
X106846779Y-142897438D02*
X106894398Y-142945057D01*
X106894398Y-142945057D02*
X106942017Y-142897438D01*
X106942017Y-142897438D02*
X106894398Y-142849819D01*
X106894398Y-142849819D02*
X106894398Y-142945057D01*
X107799159Y-143802200D02*
X107703921Y-143849819D01*
X107703921Y-143849819D02*
X107513445Y-143849819D01*
X107513445Y-143849819D02*
X107418207Y-143802200D01*
X107418207Y-143802200D02*
X107370588Y-143754580D01*
X107370588Y-143754580D02*
X107322969Y-143659342D01*
X107322969Y-143659342D02*
X107322969Y-143373628D01*
X107322969Y-143373628D02*
X107370588Y-143278390D01*
X107370588Y-143278390D02*
X107418207Y-143230771D01*
X107418207Y-143230771D02*
X107513445Y-143183152D01*
X107513445Y-143183152D02*
X107703921Y-143183152D01*
X107703921Y-143183152D02*
X107799159Y-143230771D01*
X108370588Y-143849819D02*
X108275350Y-143802200D01*
X108275350Y-143802200D02*
X108227731Y-143754580D01*
X108227731Y-143754580D02*
X108180112Y-143659342D01*
X108180112Y-143659342D02*
X108180112Y-143373628D01*
X108180112Y-143373628D02*
X108227731Y-143278390D01*
X108227731Y-143278390D02*
X108275350Y-143230771D01*
X108275350Y-143230771D02*
X108370588Y-143183152D01*
X108370588Y-143183152D02*
X108513445Y-143183152D01*
X108513445Y-143183152D02*
X108608683Y-143230771D01*
X108608683Y-143230771D02*
X108656302Y-143278390D01*
X108656302Y-143278390D02*
X108703921Y-143373628D01*
X108703921Y-143373628D02*
X108703921Y-143659342D01*
X108703921Y-143659342D02*
X108656302Y-143754580D01*
X108656302Y-143754580D02*
X108608683Y-143802200D01*
X108608683Y-143802200D02*
X108513445Y-143849819D01*
X108513445Y-143849819D02*
X108370588Y-143849819D01*
X109275350Y-143849819D02*
X109180112Y-143802200D01*
X109180112Y-143802200D02*
X109132493Y-143706961D01*
X109132493Y-143706961D02*
X109132493Y-142849819D01*
X110084874Y-143849819D02*
X110084874Y-143326009D01*
X110084874Y-143326009D02*
X110037255Y-143230771D01*
X110037255Y-143230771D02*
X109942017Y-143183152D01*
X109942017Y-143183152D02*
X109751541Y-143183152D01*
X109751541Y-143183152D02*
X109656303Y-143230771D01*
X110084874Y-143802200D02*
X109989636Y-143849819D01*
X109989636Y-143849819D02*
X109751541Y-143849819D01*
X109751541Y-143849819D02*
X109656303Y-143802200D01*
X109656303Y-143802200D02*
X109608684Y-143706961D01*
X109608684Y-143706961D02*
X109608684Y-143611723D01*
X109608684Y-143611723D02*
X109656303Y-143516485D01*
X109656303Y-143516485D02*
X109751541Y-143468866D01*
X109751541Y-143468866D02*
X109989636Y-143468866D01*
X109989636Y-143468866D02*
X110084874Y-143421247D01*
X110513446Y-143802200D02*
X110608684Y-143849819D01*
X110608684Y-143849819D02*
X110799160Y-143849819D01*
X110799160Y-143849819D02*
X110894398Y-143802200D01*
X110894398Y-143802200D02*
X110942017Y-143706961D01*
X110942017Y-143706961D02*
X110942017Y-143659342D01*
X110942017Y-143659342D02*
X110894398Y-143564104D01*
X110894398Y-143564104D02*
X110799160Y-143516485D01*
X110799160Y-143516485D02*
X110656303Y-143516485D01*
X110656303Y-143516485D02*
X110561065Y-143468866D01*
X110561065Y-143468866D02*
X110513446Y-143373628D01*
X110513446Y-143373628D02*
X110513446Y-143326009D01*
X110513446Y-143326009D02*
X110561065Y-143230771D01*
X110561065Y-143230771D02*
X110656303Y-143183152D01*
X110656303Y-143183152D02*
X110799160Y-143183152D01*
X110799160Y-143183152D02*
X110894398Y-143230771D01*
X112084875Y-143802200D02*
X112227732Y-143849819D01*
X112227732Y-143849819D02*
X112465827Y-143849819D01*
X112465827Y-143849819D02*
X112561065Y-143802200D01*
X112561065Y-143802200D02*
X112608684Y-143754580D01*
X112608684Y-143754580D02*
X112656303Y-143659342D01*
X112656303Y-143659342D02*
X112656303Y-143564104D01*
X112656303Y-143564104D02*
X112608684Y-143468866D01*
X112608684Y-143468866D02*
X112561065Y-143421247D01*
X112561065Y-143421247D02*
X112465827Y-143373628D01*
X112465827Y-143373628D02*
X112275351Y-143326009D01*
X112275351Y-143326009D02*
X112180113Y-143278390D01*
X112180113Y-143278390D02*
X112132494Y-143230771D01*
X112132494Y-143230771D02*
X112084875Y-143135533D01*
X112084875Y-143135533D02*
X112084875Y-143040295D01*
X112084875Y-143040295D02*
X112132494Y-142945057D01*
X112132494Y-142945057D02*
X112180113Y-142897438D01*
X112180113Y-142897438D02*
X112275351Y-142849819D01*
X112275351Y-142849819D02*
X112513446Y-142849819D01*
X112513446Y-142849819D02*
X112656303Y-142897438D01*
X112942018Y-143183152D02*
X113322970Y-143183152D01*
X113084875Y-142849819D02*
X113084875Y-143706961D01*
X113084875Y-143706961D02*
X113132494Y-143802200D01*
X113132494Y-143802200D02*
X113227732Y-143849819D01*
X113227732Y-143849819D02*
X113322970Y-143849819D01*
X113656304Y-143849819D02*
X113656304Y-143183152D01*
X113656304Y-143373628D02*
X113703923Y-143278390D01*
X113703923Y-143278390D02*
X113751542Y-143230771D01*
X113751542Y-143230771D02*
X113846780Y-143183152D01*
X113846780Y-143183152D02*
X113942018Y-143183152D01*
X114275352Y-143849819D02*
X114275352Y-143183152D01*
X114275352Y-142849819D02*
X114227733Y-142897438D01*
X114227733Y-142897438D02*
X114275352Y-142945057D01*
X114275352Y-142945057D02*
X114322971Y-142897438D01*
X114322971Y-142897438D02*
X114275352Y-142849819D01*
X114275352Y-142849819D02*
X114275352Y-142945057D01*
X115132494Y-143802200D02*
X115037256Y-143849819D01*
X115037256Y-143849819D02*
X114846780Y-143849819D01*
X114846780Y-143849819D02*
X114751542Y-143802200D01*
X114751542Y-143802200D02*
X114703923Y-143706961D01*
X114703923Y-143706961D02*
X114703923Y-143326009D01*
X114703923Y-143326009D02*
X114751542Y-143230771D01*
X114751542Y-143230771D02*
X114846780Y-143183152D01*
X114846780Y-143183152D02*
X115037256Y-143183152D01*
X115037256Y-143183152D02*
X115132494Y-143230771D01*
X115132494Y-143230771D02*
X115180113Y-143326009D01*
X115180113Y-143326009D02*
X115180113Y-143421247D01*
X115180113Y-143421247D02*
X114703923Y-143516485D01*
X115608685Y-143849819D02*
X115608685Y-142849819D01*
X115608685Y-143230771D02*
X115703923Y-143183152D01*
X115703923Y-143183152D02*
X115894399Y-143183152D01*
X115894399Y-143183152D02*
X115989637Y-143230771D01*
X115989637Y-143230771D02*
X116037256Y-143278390D01*
X116037256Y-143278390D02*
X116084875Y-143373628D01*
X116084875Y-143373628D02*
X116084875Y-143659342D01*
X116084875Y-143659342D02*
X116037256Y-143754580D01*
X116037256Y-143754580D02*
X115989637Y-143802200D01*
X115989637Y-143802200D02*
X115894399Y-143849819D01*
X115894399Y-143849819D02*
X115703923Y-143849819D01*
X115703923Y-143849819D02*
X115608685Y-143802200D01*
X116513447Y-143849819D02*
X116513447Y-143183152D01*
X116513447Y-142849819D02*
X116465828Y-142897438D01*
X116465828Y-142897438D02*
X116513447Y-142945057D01*
X116513447Y-142945057D02*
X116561066Y-142897438D01*
X116561066Y-142897438D02*
X116513447Y-142849819D01*
X116513447Y-142849819D02*
X116513447Y-142945057D01*
X117418208Y-143183152D02*
X117418208Y-143992676D01*
X117418208Y-143992676D02*
X117370589Y-144087914D01*
X117370589Y-144087914D02*
X117322970Y-144135533D01*
X117322970Y-144135533D02*
X117227732Y-144183152D01*
X117227732Y-144183152D02*
X117084875Y-144183152D01*
X117084875Y-144183152D02*
X116989637Y-144135533D01*
X117418208Y-143802200D02*
X117322970Y-143849819D01*
X117322970Y-143849819D02*
X117132494Y-143849819D01*
X117132494Y-143849819D02*
X117037256Y-143802200D01*
X117037256Y-143802200D02*
X116989637Y-143754580D01*
X116989637Y-143754580D02*
X116942018Y-143659342D01*
X116942018Y-143659342D02*
X116942018Y-143373628D01*
X116942018Y-143373628D02*
X116989637Y-143278390D01*
X116989637Y-143278390D02*
X117037256Y-143230771D01*
X117037256Y-143230771D02*
X117132494Y-143183152D01*
X117132494Y-143183152D02*
X117322970Y-143183152D01*
X117322970Y-143183152D02*
X117418208Y-143230771D01*
X118608685Y-142945057D02*
X118656304Y-142897438D01*
X118656304Y-142897438D02*
X118751542Y-142849819D01*
X118751542Y-142849819D02*
X118989637Y-142849819D01*
X118989637Y-142849819D02*
X119084875Y-142897438D01*
X119084875Y-142897438D02*
X119132494Y-142945057D01*
X119132494Y-142945057D02*
X119180113Y-143040295D01*
X119180113Y-143040295D02*
X119180113Y-143135533D01*
X119180113Y-143135533D02*
X119132494Y-143278390D01*
X119132494Y-143278390D02*
X118561066Y-143849819D01*
X118561066Y-143849819D02*
X119180113Y-143849819D01*
X119799161Y-142849819D02*
X119894399Y-142849819D01*
X119894399Y-142849819D02*
X119989637Y-142897438D01*
X119989637Y-142897438D02*
X120037256Y-142945057D01*
X120037256Y-142945057D02*
X120084875Y-143040295D01*
X120084875Y-143040295D02*
X120132494Y-143230771D01*
X120132494Y-143230771D02*
X120132494Y-143468866D01*
X120132494Y-143468866D02*
X120084875Y-143659342D01*
X120084875Y-143659342D02*
X120037256Y-143754580D01*
X120037256Y-143754580D02*
X119989637Y-143802200D01*
X119989637Y-143802200D02*
X119894399Y-143849819D01*
X119894399Y-143849819D02*
X119799161Y-143849819D01*
X119799161Y-143849819D02*
X119703923Y-143802200D01*
X119703923Y-143802200D02*
X119656304Y-143754580D01*
X119656304Y-143754580D02*
X119608685Y-143659342D01*
X119608685Y-143659342D02*
X119561066Y-143468866D01*
X119561066Y-143468866D02*
X119561066Y-143230771D01*
X119561066Y-143230771D02*
X119608685Y-143040295D01*
X119608685Y-143040295D02*
X119656304Y-142945057D01*
X119656304Y-142945057D02*
X119703923Y-142897438D01*
X119703923Y-142897438D02*
X119799161Y-142849819D01*
X120513447Y-142945057D02*
X120561066Y-142897438D01*
X120561066Y-142897438D02*
X120656304Y-142849819D01*
X120656304Y-142849819D02*
X120894399Y-142849819D01*
X120894399Y-142849819D02*
X120989637Y-142897438D01*
X120989637Y-142897438D02*
X121037256Y-142945057D01*
X121037256Y-142945057D02*
X121084875Y-143040295D01*
X121084875Y-143040295D02*
X121084875Y-143135533D01*
X121084875Y-143135533D02*
X121037256Y-143278390D01*
X121037256Y-143278390D02*
X120465828Y-143849819D01*
X120465828Y-143849819D02*
X121084875Y-143849819D01*
X121465828Y-142945057D02*
X121513447Y-142897438D01*
X121513447Y-142897438D02*
X121608685Y-142849819D01*
X121608685Y-142849819D02*
X121846780Y-142849819D01*
X121846780Y-142849819D02*
X121942018Y-142897438D01*
X121942018Y-142897438D02*
X121989637Y-142945057D01*
X121989637Y-142945057D02*
X122037256Y-143040295D01*
X122037256Y-143040295D02*
X122037256Y-143135533D01*
X122037256Y-143135533D02*
X121989637Y-143278390D01*
X121989637Y-143278390D02*
X121418209Y-143849819D01*
X121418209Y-143849819D02*
X122037256Y-143849819D01*
X105703922Y-144459819D02*
X106275350Y-144459819D01*
X105989636Y-145459819D02*
X105989636Y-144459819D01*
X107037255Y-145459819D02*
X107037255Y-144936009D01*
X107037255Y-144936009D02*
X106989636Y-144840771D01*
X106989636Y-144840771D02*
X106894398Y-144793152D01*
X106894398Y-144793152D02*
X106703922Y-144793152D01*
X106703922Y-144793152D02*
X106608684Y-144840771D01*
X107037255Y-145412200D02*
X106942017Y-145459819D01*
X106942017Y-145459819D02*
X106703922Y-145459819D01*
X106703922Y-145459819D02*
X106608684Y-145412200D01*
X106608684Y-145412200D02*
X106561065Y-145316961D01*
X106561065Y-145316961D02*
X106561065Y-145221723D01*
X106561065Y-145221723D02*
X106608684Y-145126485D01*
X106608684Y-145126485D02*
X106703922Y-145078866D01*
X106703922Y-145078866D02*
X106942017Y-145078866D01*
X106942017Y-145078866D02*
X107037255Y-145031247D01*
X107418208Y-144793152D02*
X107656303Y-145459819D01*
X107894398Y-144793152D02*
X107656303Y-145459819D01*
X107656303Y-145459819D02*
X107561065Y-145697914D01*
X107561065Y-145697914D02*
X107513446Y-145745533D01*
X107513446Y-145745533D02*
X107418208Y-145793152D01*
X108418208Y-145459819D02*
X108322970Y-145412200D01*
X108322970Y-145412200D02*
X108275351Y-145316961D01*
X108275351Y-145316961D02*
X108275351Y-144459819D01*
X108942018Y-145459819D02*
X108846780Y-145412200D01*
X108846780Y-145412200D02*
X108799161Y-145364580D01*
X108799161Y-145364580D02*
X108751542Y-145269342D01*
X108751542Y-145269342D02*
X108751542Y-144983628D01*
X108751542Y-144983628D02*
X108799161Y-144888390D01*
X108799161Y-144888390D02*
X108846780Y-144840771D01*
X108846780Y-144840771D02*
X108942018Y-144793152D01*
X108942018Y-144793152D02*
X109084875Y-144793152D01*
X109084875Y-144793152D02*
X109180113Y-144840771D01*
X109180113Y-144840771D02*
X109227732Y-144888390D01*
X109227732Y-144888390D02*
X109275351Y-144983628D01*
X109275351Y-144983628D02*
X109275351Y-145269342D01*
X109275351Y-145269342D02*
X109227732Y-145364580D01*
X109227732Y-145364580D02*
X109180113Y-145412200D01*
X109180113Y-145412200D02*
X109084875Y-145459819D01*
X109084875Y-145459819D02*
X108942018Y-145459819D01*
X109703923Y-145459819D02*
X109703923Y-144793152D01*
X109703923Y-144983628D02*
X109751542Y-144888390D01*
X109751542Y-144888390D02*
X109799161Y-144840771D01*
X109799161Y-144840771D02*
X109894399Y-144793152D01*
X109894399Y-144793152D02*
X109989637Y-144793152D01*
X111037257Y-145412200D02*
X111180114Y-145459819D01*
X111180114Y-145459819D02*
X111418209Y-145459819D01*
X111418209Y-145459819D02*
X111513447Y-145412200D01*
X111513447Y-145412200D02*
X111561066Y-145364580D01*
X111561066Y-145364580D02*
X111608685Y-145269342D01*
X111608685Y-145269342D02*
X111608685Y-145174104D01*
X111608685Y-145174104D02*
X111561066Y-145078866D01*
X111561066Y-145078866D02*
X111513447Y-145031247D01*
X111513447Y-145031247D02*
X111418209Y-144983628D01*
X111418209Y-144983628D02*
X111227733Y-144936009D01*
X111227733Y-144936009D02*
X111132495Y-144888390D01*
X111132495Y-144888390D02*
X111084876Y-144840771D01*
X111084876Y-144840771D02*
X111037257Y-144745533D01*
X111037257Y-144745533D02*
X111037257Y-144650295D01*
X111037257Y-144650295D02*
X111084876Y-144555057D01*
X111084876Y-144555057D02*
X111132495Y-144507438D01*
X111132495Y-144507438D02*
X111227733Y-144459819D01*
X111227733Y-144459819D02*
X111465828Y-144459819D01*
X111465828Y-144459819D02*
X111608685Y-144507438D01*
X112037257Y-145459819D02*
X112037257Y-144459819D01*
X112465828Y-145459819D02*
X112465828Y-144936009D01*
X112465828Y-144936009D02*
X112418209Y-144840771D01*
X112418209Y-144840771D02*
X112322971Y-144793152D01*
X112322971Y-144793152D02*
X112180114Y-144793152D01*
X112180114Y-144793152D02*
X112084876Y-144840771D01*
X112084876Y-144840771D02*
X112037257Y-144888390D01*
X112942019Y-145459819D02*
X112942019Y-144793152D01*
X112942019Y-144459819D02*
X112894400Y-144507438D01*
X112894400Y-144507438D02*
X112942019Y-144555057D01*
X112942019Y-144555057D02*
X112989638Y-144507438D01*
X112989638Y-144507438D02*
X112942019Y-144459819D01*
X112942019Y-144459819D02*
X112942019Y-144555057D01*
X113418209Y-144793152D02*
X113418209Y-145459819D01*
X113418209Y-144888390D02*
X113465828Y-144840771D01*
X113465828Y-144840771D02*
X113561066Y-144793152D01*
X113561066Y-144793152D02*
X113703923Y-144793152D01*
X113703923Y-144793152D02*
X113799161Y-144840771D01*
X113799161Y-144840771D02*
X113846780Y-144936009D01*
X113846780Y-144936009D02*
X113846780Y-145459819D01*
X115037257Y-144555057D02*
X115084876Y-144507438D01*
X115084876Y-144507438D02*
X115180114Y-144459819D01*
X115180114Y-144459819D02*
X115418209Y-144459819D01*
X115418209Y-144459819D02*
X115513447Y-144507438D01*
X115513447Y-144507438D02*
X115561066Y-144555057D01*
X115561066Y-144555057D02*
X115608685Y-144650295D01*
X115608685Y-144650295D02*
X115608685Y-144745533D01*
X115608685Y-144745533D02*
X115561066Y-144888390D01*
X115561066Y-144888390D02*
X114989638Y-145459819D01*
X114989638Y-145459819D02*
X115608685Y-145459819D01*
X116227733Y-144459819D02*
X116322971Y-144459819D01*
X116322971Y-144459819D02*
X116418209Y-144507438D01*
X116418209Y-144507438D02*
X116465828Y-144555057D01*
X116465828Y-144555057D02*
X116513447Y-144650295D01*
X116513447Y-144650295D02*
X116561066Y-144840771D01*
X116561066Y-144840771D02*
X116561066Y-145078866D01*
X116561066Y-145078866D02*
X116513447Y-145269342D01*
X116513447Y-145269342D02*
X116465828Y-145364580D01*
X116465828Y-145364580D02*
X116418209Y-145412200D01*
X116418209Y-145412200D02*
X116322971Y-145459819D01*
X116322971Y-145459819D02*
X116227733Y-145459819D01*
X116227733Y-145459819D02*
X116132495Y-145412200D01*
X116132495Y-145412200D02*
X116084876Y-145364580D01*
X116084876Y-145364580D02*
X116037257Y-145269342D01*
X116037257Y-145269342D02*
X115989638Y-145078866D01*
X115989638Y-145078866D02*
X115989638Y-144840771D01*
X115989638Y-144840771D02*
X116037257Y-144650295D01*
X116037257Y-144650295D02*
X116084876Y-144555057D01*
X116084876Y-144555057D02*
X116132495Y-144507438D01*
X116132495Y-144507438D02*
X116227733Y-144459819D01*
X116942019Y-144555057D02*
X116989638Y-144507438D01*
X116989638Y-144507438D02*
X117084876Y-144459819D01*
X117084876Y-144459819D02*
X117322971Y-144459819D01*
X117322971Y-144459819D02*
X117418209Y-144507438D01*
X117418209Y-144507438D02*
X117465828Y-144555057D01*
X117465828Y-144555057D02*
X117513447Y-144650295D01*
X117513447Y-144650295D02*
X117513447Y-144745533D01*
X117513447Y-144745533D02*
X117465828Y-144888390D01*
X117465828Y-144888390D02*
X116894400Y-145459819D01*
X116894400Y-145459819D02*
X117513447Y-145459819D01*
X117846781Y-144459819D02*
X118465828Y-144459819D01*
X118465828Y-144459819D02*
X118132495Y-144840771D01*
X118132495Y-144840771D02*
X118275352Y-144840771D01*
X118275352Y-144840771D02*
X118370590Y-144888390D01*
X118370590Y-144888390D02*
X118418209Y-144936009D01*
X118418209Y-144936009D02*
X118465828Y-145031247D01*
X118465828Y-145031247D02*
X118465828Y-145269342D01*
X118465828Y-145269342D02*
X118418209Y-145364580D01*
X118418209Y-145364580D02*
X118370590Y-145412200D01*
X118370590Y-145412200D02*
X118275352Y-145459819D01*
X118275352Y-145459819D02*
X117989638Y-145459819D01*
X117989638Y-145459819D02*
X117894400Y-145412200D01*
X117894400Y-145412200D02*
X117846781Y-145364580D01*
D13*
X106024286Y-139914376D02*
X106643333Y-139914376D01*
X105900476Y-140285804D02*
X106333809Y-138985804D01*
X106333809Y-138985804D02*
X106767143Y-140285804D01*
X107200476Y-140285804D02*
X107200476Y-138985804D01*
X107200476Y-138985804D02*
X107510000Y-138985804D01*
X107510000Y-138985804D02*
X107695714Y-139047709D01*
X107695714Y-139047709D02*
X107819524Y-139171519D01*
X107819524Y-139171519D02*
X107881429Y-139295328D01*
X107881429Y-139295328D02*
X107943333Y-139542947D01*
X107943333Y-139542947D02*
X107943333Y-139728661D01*
X107943333Y-139728661D02*
X107881429Y-139976280D01*
X107881429Y-139976280D02*
X107819524Y-140100090D01*
X107819524Y-140100090D02*
X107695714Y-140223900D01*
X107695714Y-140223900D02*
X107510000Y-140285804D01*
X107510000Y-140285804D02*
X107200476Y-140285804D01*
X109119524Y-140285804D02*
X108500476Y-140285804D01*
X108500476Y-140285804D02*
X108500476Y-138985804D01*
D14*
X114579941Y-137017209D02*
X114579941Y-136517209D01*
X114579941Y-136517209D02*
X114865655Y-137017209D01*
X114865655Y-137017209D02*
X114865655Y-136517209D01*
X115079942Y-136874352D02*
X115318037Y-136874352D01*
X115032323Y-137017209D02*
X115198989Y-136517209D01*
X115198989Y-136517209D02*
X115365656Y-137017209D01*
X115460894Y-136517209D02*
X115746608Y-136517209D01*
X115603751Y-137017209D02*
X115603751Y-136517209D01*
X115913274Y-137017209D02*
X115913274Y-136517209D01*
X116246607Y-136517209D02*
X116341845Y-136517209D01*
X116341845Y-136517209D02*
X116389464Y-136541019D01*
X116389464Y-136541019D02*
X116437083Y-136588638D01*
X116437083Y-136588638D02*
X116460893Y-136683876D01*
X116460893Y-136683876D02*
X116460893Y-136850542D01*
X116460893Y-136850542D02*
X116437083Y-136945780D01*
X116437083Y-136945780D02*
X116389464Y-136993400D01*
X116389464Y-136993400D02*
X116341845Y-137017209D01*
X116341845Y-137017209D02*
X116246607Y-137017209D01*
X116246607Y-137017209D02*
X116198988Y-136993400D01*
X116198988Y-136993400D02*
X116151369Y-136945780D01*
X116151369Y-136945780D02*
X116127560Y-136850542D01*
X116127560Y-136850542D02*
X116127560Y-136683876D01*
X116127560Y-136683876D02*
X116151369Y-136588638D01*
X116151369Y-136588638D02*
X116198988Y-136541019D01*
X116198988Y-136541019D02*
X116246607Y-136517209D01*
X116675179Y-137017209D02*
X116675179Y-136517209D01*
X116675179Y-136517209D02*
X116960893Y-137017209D01*
X116960893Y-137017209D02*
X116960893Y-136517209D01*
X117175180Y-136874352D02*
X117413275Y-136874352D01*
X117127561Y-137017209D02*
X117294227Y-136517209D01*
X117294227Y-136517209D02*
X117460894Y-137017209D01*
X117865655Y-137017209D02*
X117627560Y-137017209D01*
X117627560Y-137017209D02*
X117627560Y-136517209D01*
X118651369Y-137017209D02*
X118413274Y-137017209D01*
X118413274Y-137017209D02*
X118413274Y-136517209D01*
X118794227Y-136874352D02*
X119032322Y-136874352D01*
X118746608Y-137017209D02*
X118913274Y-136517209D01*
X118913274Y-136517209D02*
X119079941Y-137017209D01*
X119413274Y-136755304D02*
X119484702Y-136779114D01*
X119484702Y-136779114D02*
X119508512Y-136802923D01*
X119508512Y-136802923D02*
X119532321Y-136850542D01*
X119532321Y-136850542D02*
X119532321Y-136921971D01*
X119532321Y-136921971D02*
X119508512Y-136969590D01*
X119508512Y-136969590D02*
X119484702Y-136993400D01*
X119484702Y-136993400D02*
X119437083Y-137017209D01*
X119437083Y-137017209D02*
X119246607Y-137017209D01*
X119246607Y-137017209D02*
X119246607Y-136517209D01*
X119246607Y-136517209D02*
X119413274Y-136517209D01*
X119413274Y-136517209D02*
X119460893Y-136541019D01*
X119460893Y-136541019D02*
X119484702Y-136564828D01*
X119484702Y-136564828D02*
X119508512Y-136612447D01*
X119508512Y-136612447D02*
X119508512Y-136660066D01*
X119508512Y-136660066D02*
X119484702Y-136707685D01*
X119484702Y-136707685D02*
X119460893Y-136731495D01*
X119460893Y-136731495D02*
X119413274Y-136755304D01*
X119413274Y-136755304D02*
X119246607Y-136755304D01*
X119746607Y-136969590D02*
X119770417Y-136993400D01*
X119770417Y-136993400D02*
X119746607Y-137017209D01*
X119746607Y-137017209D02*
X119722798Y-136993400D01*
X119722798Y-136993400D02*
X119746607Y-136969590D01*
X119746607Y-136969590D02*
X119746607Y-137017209D01*
D15*
X114704002Y-135666144D02*
X115180192Y-135666144D01*
X114608764Y-135951859D02*
X114942097Y-134951859D01*
X114942097Y-134951859D02*
X115275430Y-135951859D01*
X115608764Y-135951859D02*
X115608764Y-135285192D01*
X115608764Y-135475668D02*
X115656383Y-135380430D01*
X115656383Y-135380430D02*
X115704002Y-135332811D01*
X115704002Y-135332811D02*
X115799240Y-135285192D01*
X115799240Y-135285192D02*
X115894478Y-135285192D01*
X116656383Y-135285192D02*
X116656383Y-136094716D01*
X116656383Y-136094716D02*
X116608764Y-136189954D01*
X116608764Y-136189954D02*
X116561145Y-136237573D01*
X116561145Y-136237573D02*
X116465907Y-136285192D01*
X116465907Y-136285192D02*
X116323050Y-136285192D01*
X116323050Y-136285192D02*
X116227812Y-136237573D01*
X116656383Y-135904240D02*
X116561145Y-135951859D01*
X116561145Y-135951859D02*
X116370669Y-135951859D01*
X116370669Y-135951859D02*
X116275431Y-135904240D01*
X116275431Y-135904240D02*
X116227812Y-135856620D01*
X116227812Y-135856620D02*
X116180193Y-135761382D01*
X116180193Y-135761382D02*
X116180193Y-135475668D01*
X116180193Y-135475668D02*
X116227812Y-135380430D01*
X116227812Y-135380430D02*
X116275431Y-135332811D01*
X116275431Y-135332811D02*
X116370669Y-135285192D01*
X116370669Y-135285192D02*
X116561145Y-135285192D01*
X116561145Y-135285192D02*
X116656383Y-135332811D01*
X117275431Y-135951859D02*
X117180193Y-135904240D01*
X117180193Y-135904240D02*
X117132574Y-135856620D01*
X117132574Y-135856620D02*
X117084955Y-135761382D01*
X117084955Y-135761382D02*
X117084955Y-135475668D01*
X117084955Y-135475668D02*
X117132574Y-135380430D01*
X117132574Y-135380430D02*
X117180193Y-135332811D01*
X117180193Y-135332811D02*
X117275431Y-135285192D01*
X117275431Y-135285192D02*
X117418288Y-135285192D01*
X117418288Y-135285192D02*
X117513526Y-135332811D01*
X117513526Y-135332811D02*
X117561145Y-135380430D01*
X117561145Y-135380430D02*
X117608764Y-135475668D01*
X117608764Y-135475668D02*
X117608764Y-135761382D01*
X117608764Y-135761382D02*
X117561145Y-135856620D01*
X117561145Y-135856620D02*
X117513526Y-135904240D01*
X117513526Y-135904240D02*
X117418288Y-135951859D01*
X117418288Y-135951859D02*
X117275431Y-135951859D01*
X118037336Y-135285192D02*
X118037336Y-135951859D01*
X118037336Y-135380430D02*
X118084955Y-135332811D01*
X118084955Y-135332811D02*
X118180193Y-135285192D01*
X118180193Y-135285192D02*
X118323050Y-135285192D01*
X118323050Y-135285192D02*
X118418288Y-135332811D01*
X118418288Y-135332811D02*
X118465907Y-135428049D01*
X118465907Y-135428049D02*
X118465907Y-135951859D01*
X118942098Y-135285192D02*
X118942098Y-135951859D01*
X118942098Y-135380430D02*
X118989717Y-135332811D01*
X118989717Y-135332811D02*
X119084955Y-135285192D01*
X119084955Y-135285192D02*
X119227812Y-135285192D01*
X119227812Y-135285192D02*
X119323050Y-135332811D01*
X119323050Y-135332811D02*
X119370669Y-135428049D01*
X119370669Y-135428049D02*
X119370669Y-135951859D01*
X120227812Y-135904240D02*
X120132574Y-135951859D01*
X120132574Y-135951859D02*
X119942098Y-135951859D01*
X119942098Y-135951859D02*
X119846860Y-135904240D01*
X119846860Y-135904240D02*
X119799241Y-135809001D01*
X119799241Y-135809001D02*
X119799241Y-135428049D01*
X119799241Y-135428049D02*
X119846860Y-135332811D01*
X119846860Y-135332811D02*
X119942098Y-135285192D01*
X119942098Y-135285192D02*
X120132574Y-135285192D01*
X120132574Y-135285192D02*
X120227812Y-135332811D01*
X120227812Y-135332811D02*
X120275431Y-135428049D01*
X120275431Y-135428049D02*
X120275431Y-135523287D01*
X120275431Y-135523287D02*
X119799241Y-135618525D01*
D12*
X143793333Y-111604819D02*
X143460000Y-111128628D01*
X143221905Y-111604819D02*
X143221905Y-110604819D01*
X143221905Y-110604819D02*
X143602857Y-110604819D01*
X143602857Y-110604819D02*
X143698095Y-110652438D01*
X143698095Y-110652438D02*
X143745714Y-110700057D01*
X143745714Y-110700057D02*
X143793333Y-110795295D01*
X143793333Y-110795295D02*
X143793333Y-110938152D01*
X143793333Y-110938152D02*
X143745714Y-111033390D01*
X143745714Y-111033390D02*
X143698095Y-111081009D01*
X143698095Y-111081009D02*
X143602857Y-111128628D01*
X143602857Y-111128628D02*
X143221905Y-111128628D01*
X144745714Y-111604819D02*
X144174286Y-111604819D01*
X144460000Y-111604819D02*
X144460000Y-110604819D01*
X144460000Y-110604819D02*
X144364762Y-110747676D01*
X144364762Y-110747676D02*
X144269524Y-110842914D01*
X144269524Y-110842914D02*
X144174286Y-110890533D01*
X137714819Y-75066666D02*
X137238628Y-75399999D01*
X137714819Y-75638094D02*
X136714819Y-75638094D01*
X136714819Y-75638094D02*
X136714819Y-75257142D01*
X136714819Y-75257142D02*
X136762438Y-75161904D01*
X136762438Y-75161904D02*
X136810057Y-75114285D01*
X136810057Y-75114285D02*
X136905295Y-75066666D01*
X136905295Y-75066666D02*
X137048152Y-75066666D01*
X137048152Y-75066666D02*
X137143390Y-75114285D01*
X137143390Y-75114285D02*
X137191009Y-75161904D01*
X137191009Y-75161904D02*
X137238628Y-75257142D01*
X137238628Y-75257142D02*
X137238628Y-75638094D01*
X136714819Y-74209523D02*
X136714819Y-74399999D01*
X136714819Y-74399999D02*
X136762438Y-74495237D01*
X136762438Y-74495237D02*
X136810057Y-74542856D01*
X136810057Y-74542856D02*
X136952914Y-74638094D01*
X136952914Y-74638094D02*
X137143390Y-74685713D01*
X137143390Y-74685713D02*
X137524342Y-74685713D01*
X137524342Y-74685713D02*
X137619580Y-74638094D01*
X137619580Y-74638094D02*
X137667200Y-74590475D01*
X137667200Y-74590475D02*
X137714819Y-74495237D01*
X137714819Y-74495237D02*
X137714819Y-74304761D01*
X137714819Y-74304761D02*
X137667200Y-74209523D01*
X137667200Y-74209523D02*
X137619580Y-74161904D01*
X137619580Y-74161904D02*
X137524342Y-74114285D01*
X137524342Y-74114285D02*
X137286247Y-74114285D01*
X137286247Y-74114285D02*
X137191009Y-74161904D01*
X137191009Y-74161904D02*
X137143390Y-74209523D01*
X137143390Y-74209523D02*
X137095771Y-74304761D01*
X137095771Y-74304761D02*
X137095771Y-74495237D01*
X137095771Y-74495237D02*
X137143390Y-74590475D01*
X137143390Y-74590475D02*
X137191009Y-74638094D01*
X137191009Y-74638094D02*
X137286247Y-74685713D01*
X137714819Y-94866666D02*
X137238628Y-95199999D01*
X137714819Y-95438094D02*
X136714819Y-95438094D01*
X136714819Y-95438094D02*
X136714819Y-95057142D01*
X136714819Y-95057142D02*
X136762438Y-94961904D01*
X136762438Y-94961904D02*
X136810057Y-94914285D01*
X136810057Y-94914285D02*
X136905295Y-94866666D01*
X136905295Y-94866666D02*
X137048152Y-94866666D01*
X137048152Y-94866666D02*
X137143390Y-94914285D01*
X137143390Y-94914285D02*
X137191009Y-94961904D01*
X137191009Y-94961904D02*
X137238628Y-95057142D01*
X137238628Y-95057142D02*
X137238628Y-95438094D01*
X137048152Y-94009523D02*
X137714819Y-94009523D01*
X136667200Y-94247618D02*
X137381485Y-94485713D01*
X137381485Y-94485713D02*
X137381485Y-93866666D01*
X144468333Y-91654819D02*
X144135000Y-91178628D01*
X143896905Y-91654819D02*
X143896905Y-90654819D01*
X143896905Y-90654819D02*
X144277857Y-90654819D01*
X144277857Y-90654819D02*
X144373095Y-90702438D01*
X144373095Y-90702438D02*
X144420714Y-90750057D01*
X144420714Y-90750057D02*
X144468333Y-90845295D01*
X144468333Y-90845295D02*
X144468333Y-90988152D01*
X144468333Y-90988152D02*
X144420714Y-91083390D01*
X144420714Y-91083390D02*
X144373095Y-91131009D01*
X144373095Y-91131009D02*
X144277857Y-91178628D01*
X144277857Y-91178628D02*
X143896905Y-91178628D01*
X144801667Y-90654819D02*
X145420714Y-90654819D01*
X145420714Y-90654819D02*
X145087381Y-91035771D01*
X145087381Y-91035771D02*
X145230238Y-91035771D01*
X145230238Y-91035771D02*
X145325476Y-91083390D01*
X145325476Y-91083390D02*
X145373095Y-91131009D01*
X145373095Y-91131009D02*
X145420714Y-91226247D01*
X145420714Y-91226247D02*
X145420714Y-91464342D01*
X145420714Y-91464342D02*
X145373095Y-91559580D01*
X145373095Y-91559580D02*
X145325476Y-91607200D01*
X145325476Y-91607200D02*
X145230238Y-91654819D01*
X145230238Y-91654819D02*
X144944524Y-91654819D01*
X144944524Y-91654819D02*
X144849286Y-91607200D01*
X144849286Y-91607200D02*
X144801667Y-91559580D01*
X136704819Y-114766666D02*
X136228628Y-115099999D01*
X136704819Y-115338094D02*
X135704819Y-115338094D01*
X135704819Y-115338094D02*
X135704819Y-114957142D01*
X135704819Y-114957142D02*
X135752438Y-114861904D01*
X135752438Y-114861904D02*
X135800057Y-114814285D01*
X135800057Y-114814285D02*
X135895295Y-114766666D01*
X135895295Y-114766666D02*
X136038152Y-114766666D01*
X136038152Y-114766666D02*
X136133390Y-114814285D01*
X136133390Y-114814285D02*
X136181009Y-114861904D01*
X136181009Y-114861904D02*
X136228628Y-114957142D01*
X136228628Y-114957142D02*
X136228628Y-115338094D01*
X135800057Y-114385713D02*
X135752438Y-114338094D01*
X135752438Y-114338094D02*
X135704819Y-114242856D01*
X135704819Y-114242856D02*
X135704819Y-114004761D01*
X135704819Y-114004761D02*
X135752438Y-113909523D01*
X135752438Y-113909523D02*
X135800057Y-113861904D01*
X135800057Y-113861904D02*
X135895295Y-113814285D01*
X135895295Y-113814285D02*
X135990533Y-113814285D01*
X135990533Y-113814285D02*
X136133390Y-113861904D01*
X136133390Y-113861904D02*
X136704819Y-114433332D01*
X136704819Y-114433332D02*
X136704819Y-113814285D01*
X108521905Y-151319819D02*
X108521905Y-150319819D01*
X108521905Y-150319819D02*
X108902857Y-150319819D01*
X108902857Y-150319819D02*
X108998095Y-150367438D01*
X108998095Y-150367438D02*
X109045714Y-150415057D01*
X109045714Y-150415057D02*
X109093333Y-150510295D01*
X109093333Y-150510295D02*
X109093333Y-150653152D01*
X109093333Y-150653152D02*
X109045714Y-150748390D01*
X109045714Y-150748390D02*
X108998095Y-150796009D01*
X108998095Y-150796009D02*
X108902857Y-150843628D01*
X108902857Y-150843628D02*
X108521905Y-150843628D01*
X110045714Y-151319819D02*
X109474286Y-151319819D01*
X109760000Y-151319819D02*
X109760000Y-150319819D01*
X109760000Y-150319819D02*
X109664762Y-150462676D01*
X109664762Y-150462676D02*
X109569524Y-150557914D01*
X109569524Y-150557914D02*
X109474286Y-150605533D01*
X145543333Y-72154819D02*
X145210000Y-71678628D01*
X144971905Y-72154819D02*
X144971905Y-71154819D01*
X144971905Y-71154819D02*
X145352857Y-71154819D01*
X145352857Y-71154819D02*
X145448095Y-71202438D01*
X145448095Y-71202438D02*
X145495714Y-71250057D01*
X145495714Y-71250057D02*
X145543333Y-71345295D01*
X145543333Y-71345295D02*
X145543333Y-71488152D01*
X145543333Y-71488152D02*
X145495714Y-71583390D01*
X145495714Y-71583390D02*
X145448095Y-71631009D01*
X145448095Y-71631009D02*
X145352857Y-71678628D01*
X145352857Y-71678628D02*
X144971905Y-71678628D01*
X146448095Y-71154819D02*
X145971905Y-71154819D01*
X145971905Y-71154819D02*
X145924286Y-71631009D01*
X145924286Y-71631009D02*
X145971905Y-71583390D01*
X145971905Y-71583390D02*
X146067143Y-71535771D01*
X146067143Y-71535771D02*
X146305238Y-71535771D01*
X146305238Y-71535771D02*
X146400476Y-71583390D01*
X146400476Y-71583390D02*
X146448095Y-71631009D01*
X146448095Y-71631009D02*
X146495714Y-71726247D01*
X146495714Y-71726247D02*
X146495714Y-71964342D01*
X146495714Y-71964342D02*
X146448095Y-72059580D01*
X146448095Y-72059580D02*
X146400476Y-72107200D01*
X146400476Y-72107200D02*
X146305238Y-72154819D01*
X146305238Y-72154819D02*
X146067143Y-72154819D01*
X146067143Y-72154819D02*
X145971905Y-72107200D01*
X145971905Y-72107200D02*
X145924286Y-72059580D01*
%TO.C,REF\u002A\u002A*%
X127190500Y-138621900D02*
X128333500Y-138621900D01*
X127190500Y-139637900D02*
X128333500Y-139637900D01*
X127190500Y-140653900D02*
X128333500Y-140653900D01*
X127190500Y-141669900D02*
X128333500Y-141669900D01*
X127190500Y-142685900D02*
X128333500Y-142685900D01*
X127571500Y-137605900D02*
X128333500Y-137605900D01*
X127825500Y-136843900D02*
X128333500Y-136843900D01*
X128079500Y-136081900D02*
X128587500Y-136081900D01*
X128079500Y-142685900D02*
X128841500Y-142685900D01*
X128333500Y-135319900D02*
X128841500Y-135319900D01*
X128333500Y-136843900D02*
X127571500Y-137605900D01*
X128333500Y-137605900D02*
X127190500Y-138621900D01*
X128333500Y-138621900D02*
X127190500Y-139637900D01*
X128333500Y-139637900D02*
X127190500Y-140653900D01*
X128333500Y-140653900D02*
X127190500Y-141669900D01*
X128333500Y-141669900D02*
X127190500Y-142685900D01*
X128587500Y-136081900D02*
X127825500Y-136843900D01*
X128587500Y-143193900D02*
X128587500Y-143574900D01*
X128587500Y-143574900D02*
X129476500Y-143574900D01*
X128841500Y-135319900D02*
X128079500Y-136081900D01*
X128841500Y-142685900D02*
X128841500Y-143193900D01*
X128841500Y-143193900D02*
X128587500Y-143193900D01*
X129019300Y-134456300D02*
X128333500Y-135319900D01*
X129222500Y-135319900D02*
X129730500Y-135319900D01*
X129222500Y-135319900D02*
X129984500Y-136081900D01*
X129222500Y-142685900D02*
X129984500Y-142685900D01*
X129222500Y-143193900D02*
X129222500Y-142685900D01*
X129476500Y-136081900D02*
X129984500Y-136081900D01*
X129476500Y-136081900D02*
X130238500Y-136843900D01*
X129476500Y-143193900D02*
X129222500Y-143193900D01*
X129476500Y-143574900D02*
X129476500Y-143193900D01*
X129730500Y-135319900D02*
X129019300Y-134456300D01*
X129730500Y-136843900D02*
X130238500Y-136843900D01*
X129730500Y-136843900D02*
X130492500Y-137605900D01*
X129730500Y-137605900D02*
X130492500Y-137605900D01*
X129730500Y-138621900D02*
X130873500Y-138621900D01*
X129730500Y-139637900D02*
X130873500Y-139637900D01*
X129730500Y-140653900D02*
X130873500Y-140653900D01*
X129730500Y-141669900D02*
X130873500Y-141669900D01*
X129730500Y-142685900D02*
X130873500Y-142685900D01*
X130873500Y-138621900D02*
X129730500Y-137605900D01*
X130873500Y-139637900D02*
X129730500Y-138621900D01*
X130873500Y-140653900D02*
X129730500Y-139637900D01*
X130873500Y-141669900D02*
X129730500Y-140653900D01*
X130873500Y-142685900D02*
X129730500Y-141669900D01*
D16*
X125178000Y-137643500D02*
X124428000Y-139018500D01*
X124428000Y-139018500D02*
X121678000Y-134831000D01*
X124428000Y-139018500D02*
X120428000Y-139018500D01*
X123178000Y-134831000D02*
X125178000Y-137643500D01*
X123178000Y-134831000D02*
X120428000Y-139018500D01*
X121678000Y-134831000D02*
X123178000Y-134831000D01*
X120428000Y-139018500D02*
X119678000Y-137643500D01*
X119678000Y-137643500D02*
X125178000Y-137643500D01*
X119678000Y-137643500D02*
X121678000Y-134831000D01*
%TO.C,R1*%
X141022742Y-110677500D02*
X141497258Y-110677500D01*
X141022742Y-111722500D02*
X141497258Y-111722500D01*
%TO.C,Logo1*%
D17*
X111489600Y-137716000D02*
X110702200Y-137716000D01*
X110702200Y-134871200D01*
X111489600Y-134871200D01*
X111489600Y-137716000D01*
G36*
X111489600Y-137716000D02*
G01*
X110702200Y-137716000D01*
X110702200Y-134871200D01*
X111489600Y-134871200D01*
X111489600Y-137716000D01*
G37*
X109099134Y-138041372D02*
X109102000Y-138058900D01*
X109088284Y-138092701D01*
X109076600Y-138097000D01*
X109054065Y-138076427D01*
X109051200Y-138058900D01*
X109064915Y-138025098D01*
X109076600Y-138020800D01*
X109099134Y-138041372D01*
G36*
X109099134Y-138041372D02*
G01*
X109102000Y-138058900D01*
X109088284Y-138092701D01*
X109076600Y-138097000D01*
X109054065Y-138076427D01*
X109051200Y-138058900D01*
X109064915Y-138025098D01*
X109076600Y-138020800D01*
X109099134Y-138041372D01*
G37*
X110316901Y-138059915D02*
X110321200Y-138071600D01*
X110300627Y-138094134D01*
X110283100Y-138097000D01*
X110249298Y-138083284D01*
X110245000Y-138071600D01*
X110265572Y-138049065D01*
X110283100Y-138046200D01*
X110316901Y-138059915D01*
G36*
X110316901Y-138059915D02*
G01*
X110321200Y-138071600D01*
X110300627Y-138094134D01*
X110283100Y-138097000D01*
X110249298Y-138083284D01*
X110245000Y-138071600D01*
X110265572Y-138049065D01*
X110283100Y-138046200D01*
X110316901Y-138059915D01*
G37*
X110422061Y-138065528D02*
X110422800Y-138071600D01*
X110403471Y-138096261D01*
X110397400Y-138097000D01*
X110372738Y-138077671D01*
X110372000Y-138071600D01*
X110391328Y-138046938D01*
X110397400Y-138046200D01*
X110422061Y-138065528D01*
G36*
X110422061Y-138065528D02*
G01*
X110422800Y-138071600D01*
X110403471Y-138096261D01*
X110397400Y-138097000D01*
X110372738Y-138077671D01*
X110372000Y-138071600D01*
X110391328Y-138046938D01*
X110397400Y-138046200D01*
X110422061Y-138065528D01*
G37*
X113315534Y-138041372D02*
X113318400Y-138058900D01*
X113304684Y-138092701D01*
X113293000Y-138097000D01*
X113270465Y-138076427D01*
X113267600Y-138058900D01*
X113281315Y-138025098D01*
X113293000Y-138020800D01*
X113315534Y-138041372D01*
G36*
X113315534Y-138041372D02*
G01*
X113318400Y-138058900D01*
X113304684Y-138092701D01*
X113293000Y-138097000D01*
X113270465Y-138076427D01*
X113267600Y-138058900D01*
X113281315Y-138025098D01*
X113293000Y-138020800D01*
X113315534Y-138041372D01*
G37*
X113547000Y-135506200D02*
X113013600Y-135506200D01*
X113013600Y-137716000D01*
X112226739Y-137716000D01*
X112220119Y-136617450D01*
X112213500Y-135518900D01*
X111940450Y-135511690D01*
X111667400Y-135504481D01*
X111667400Y-134871200D01*
X113547000Y-134871200D01*
X113547000Y-135506200D01*
G36*
X113547000Y-135506200D02*
G01*
X113013600Y-135506200D01*
X113013600Y-137716000D01*
X112226739Y-137716000D01*
X112220119Y-136617450D01*
X112213500Y-135518900D01*
X111940450Y-135511690D01*
X111667400Y-135504481D01*
X111667400Y-134871200D01*
X113547000Y-134871200D01*
X113547000Y-135506200D01*
G37*
X109091089Y-138170644D02*
X109100285Y-138229052D01*
X109102000Y-138274800D01*
X109097431Y-138347246D01*
X109085749Y-138393229D01*
X109076600Y-138401800D01*
X109062110Y-138378955D01*
X109052914Y-138320547D01*
X109051200Y-138274800D01*
X109055768Y-138202353D01*
X109067450Y-138156370D01*
X109076600Y-138147800D01*
X109091089Y-138170644D01*
G36*
X109091089Y-138170644D02*
G01*
X109100285Y-138229052D01*
X109102000Y-138274800D01*
X109097431Y-138347246D01*
X109085749Y-138393229D01*
X109076600Y-138401800D01*
X109062110Y-138378955D01*
X109052914Y-138320547D01*
X109051200Y-138274800D01*
X109055768Y-138202353D01*
X109067450Y-138156370D01*
X109076600Y-138147800D01*
X109091089Y-138170644D01*
G37*
X113307489Y-138170644D02*
X113316685Y-138229052D01*
X113318400Y-138274800D01*
X113313831Y-138347246D01*
X113302149Y-138393229D01*
X113293000Y-138401800D01*
X113278510Y-138378955D01*
X113269314Y-138320547D01*
X113267600Y-138274800D01*
X113272168Y-138202353D01*
X113283850Y-138156370D01*
X113293000Y-138147800D01*
X113307489Y-138170644D01*
G36*
X113307489Y-138170644D02*
G01*
X113316685Y-138229052D01*
X113318400Y-138274800D01*
X113313831Y-138347246D01*
X113302149Y-138393229D01*
X113293000Y-138401800D01*
X113278510Y-138378955D01*
X113269314Y-138320547D01*
X113267600Y-138274800D01*
X113272168Y-138202353D01*
X113283850Y-138156370D01*
X113293000Y-138147800D01*
X113307489Y-138170644D01*
G37*
X107952650Y-138149132D02*
X108013100Y-138151189D01*
X108028734Y-138159299D01*
X108005535Y-138179931D01*
X107990750Y-138190330D01*
X107944720Y-138246744D01*
X107933600Y-138315998D01*
X107924708Y-138380513D01*
X107896675Y-138401782D01*
X107895500Y-138401800D01*
X107871540Y-138388204D01*
X107859838Y-138341131D01*
X107857400Y-138274800D01*
X107857400Y-138147800D01*
X107952650Y-138149132D01*
G36*
X107952650Y-138149132D02*
G01*
X108013100Y-138151189D01*
X108028734Y-138159299D01*
X108005535Y-138179931D01*
X107990750Y-138190330D01*
X107944720Y-138246744D01*
X107933600Y-138315998D01*
X107924708Y-138380513D01*
X107896675Y-138401782D01*
X107895500Y-138401800D01*
X107871540Y-138388204D01*
X107859838Y-138341131D01*
X107857400Y-138274800D01*
X107857400Y-138147800D01*
X107952650Y-138149132D01*
G37*
X106441350Y-138027065D02*
X106461247Y-138059203D01*
X106474990Y-138138076D01*
X106480562Y-138219681D01*
X106482716Y-138316258D01*
X106478176Y-138372155D01*
X106465221Y-138397250D01*
X106448812Y-138401800D01*
X106428339Y-138392693D01*
X106416271Y-138359090D01*
X106410687Y-138291564D01*
X106409600Y-138209183D01*
X106411960Y-138106216D01*
X106419787Y-138047465D01*
X106434195Y-138026530D01*
X106441350Y-138027065D01*
G36*
X106441350Y-138027065D02*
G01*
X106461247Y-138059203D01*
X106474990Y-138138076D01*
X106480562Y-138219681D01*
X106482716Y-138316258D01*
X106478176Y-138372155D01*
X106465221Y-138397250D01*
X106448812Y-138401800D01*
X106428339Y-138392693D01*
X106416271Y-138359090D01*
X106410687Y-138291564D01*
X106409600Y-138209183D01*
X106411960Y-138106216D01*
X106419787Y-138047465D01*
X106434195Y-138026530D01*
X106441350Y-138027065D01*
G37*
X108219350Y-138052457D02*
X108239434Y-138084281D01*
X108253396Y-138160862D01*
X108258610Y-138232374D01*
X108260691Y-138324886D01*
X108255377Y-138377032D01*
X108240768Y-138398946D01*
X108226860Y-138401800D01*
X108205765Y-138392290D01*
X108193629Y-138357342D01*
X108188350Y-138287326D01*
X108187600Y-138221883D01*
X108190197Y-138123024D01*
X108198782Y-138068385D01*
X108214545Y-138051614D01*
X108219350Y-138052457D01*
G36*
X108219350Y-138052457D02*
G01*
X108239434Y-138084281D01*
X108253396Y-138160862D01*
X108258610Y-138232374D01*
X108260691Y-138324886D01*
X108255377Y-138377032D01*
X108240768Y-138398946D01*
X108226860Y-138401800D01*
X108205765Y-138392290D01*
X108193629Y-138357342D01*
X108188350Y-138287326D01*
X108187600Y-138221883D01*
X108190197Y-138123024D01*
X108198782Y-138068385D01*
X108214545Y-138051614D01*
X108219350Y-138052457D01*
G37*
X106887993Y-138153816D02*
X106906375Y-138169732D01*
X106904900Y-138173200D01*
X106868149Y-138196571D01*
X106852600Y-138198600D01*
X106826731Y-138217425D01*
X106816405Y-138277903D01*
X106816000Y-138300200D01*
X106809708Y-138370845D01*
X106788853Y-138399956D01*
X106777900Y-138401800D01*
X106753940Y-138388204D01*
X106742238Y-138341131D01*
X106739800Y-138274800D01*
X106739800Y-138147800D01*
X106830199Y-138147800D01*
X106887993Y-138153816D01*
G36*
X106887993Y-138153816D02*
G01*
X106906375Y-138169732D01*
X106904900Y-138173200D01*
X106868149Y-138196571D01*
X106852600Y-138198600D01*
X106826731Y-138217425D01*
X106816405Y-138277903D01*
X106816000Y-138300200D01*
X106809708Y-138370845D01*
X106788853Y-138399956D01*
X106777900Y-138401800D01*
X106753940Y-138388204D01*
X106742238Y-138341131D01*
X106739800Y-138274800D01*
X106739800Y-138147800D01*
X106830199Y-138147800D01*
X106887993Y-138153816D01*
G37*
X112563796Y-138030779D02*
X112575593Y-138066840D01*
X112580927Y-138138171D01*
X112581800Y-138211300D01*
X112579804Y-138311783D01*
X112572591Y-138370766D01*
X112558325Y-138397435D01*
X112543700Y-138401800D01*
X112523603Y-138391820D01*
X112511806Y-138355759D01*
X112506472Y-138284428D01*
X112505600Y-138211300D01*
X112507595Y-138110816D01*
X112514808Y-138051833D01*
X112529074Y-138025164D01*
X112543700Y-138020800D01*
X112563796Y-138030779D01*
G36*
X112563796Y-138030779D02*
G01*
X112575593Y-138066840D01*
X112580927Y-138138171D01*
X112581800Y-138211300D01*
X112579804Y-138311783D01*
X112572591Y-138370766D01*
X112558325Y-138397435D01*
X112543700Y-138401800D01*
X112523603Y-138391820D01*
X112511806Y-138355759D01*
X112506472Y-138284428D01*
X112505600Y-138211300D01*
X112507595Y-138110816D01*
X112514808Y-138051833D01*
X112529074Y-138025164D01*
X112543700Y-138020800D01*
X112563796Y-138030779D01*
G37*
X106336061Y-138158696D02*
X106358792Y-138174565D01*
X106358800Y-138174898D01*
X106338363Y-138196280D01*
X106322932Y-138198600D01*
X106294058Y-138222389D01*
X106272264Y-138287402D01*
X106269900Y-138300200D01*
X106251326Y-138373885D01*
X106231798Y-138398481D01*
X106215569Y-138375432D01*
X106206895Y-138306179D01*
X106206400Y-138278665D01*
X106208280Y-138204872D01*
X106219410Y-138168328D01*
X106248026Y-138155489D01*
X106282600Y-138153364D01*
X106336061Y-138158696D01*
G36*
X106336061Y-138158696D02*
G01*
X106358792Y-138174565D01*
X106358800Y-138174898D01*
X106338363Y-138196280D01*
X106322932Y-138198600D01*
X106294058Y-138222389D01*
X106272264Y-138287402D01*
X106269900Y-138300200D01*
X106251326Y-138373885D01*
X106231798Y-138398481D01*
X106215569Y-138375432D01*
X106206895Y-138306179D01*
X106206400Y-138278665D01*
X106208280Y-138204872D01*
X106219410Y-138168328D01*
X106248026Y-138155489D01*
X106282600Y-138153364D01*
X106336061Y-138158696D01*
G37*
X110658347Y-138156428D02*
X110675277Y-138176425D01*
X110647532Y-138198961D01*
X110626000Y-138205959D01*
X110589894Y-138229032D01*
X110576064Y-138281865D01*
X110575200Y-138310522D01*
X110568974Y-138370220D01*
X110553618Y-138400763D01*
X110549800Y-138401800D01*
X110535310Y-138378955D01*
X110526114Y-138320547D01*
X110524400Y-138274800D01*
X110526064Y-138199619D01*
X110536300Y-138162129D01*
X110562970Y-138149226D01*
X110600600Y-138147800D01*
X110658347Y-138156428D01*
G36*
X110658347Y-138156428D02*
G01*
X110675277Y-138176425D01*
X110647532Y-138198961D01*
X110626000Y-138205959D01*
X110589894Y-138229032D01*
X110576064Y-138281865D01*
X110575200Y-138310522D01*
X110568974Y-138370220D01*
X110553618Y-138400763D01*
X110549800Y-138401800D01*
X110535310Y-138378955D01*
X110526114Y-138320547D01*
X110524400Y-138274800D01*
X110526064Y-138199619D01*
X110536300Y-138162129D01*
X110562970Y-138149226D01*
X110600600Y-138147800D01*
X110658347Y-138156428D01*
G37*
X111503184Y-138155038D02*
X111515000Y-138170377D01*
X111494459Y-138188163D01*
X111474065Y-138189427D01*
X111427963Y-138205749D01*
X111404345Y-138230350D01*
X111391619Y-138288395D01*
X111421615Y-138341052D01*
X111486771Y-138375676D01*
X111492003Y-138376991D01*
X111532263Y-138389323D01*
X111526082Y-138401085D01*
X111506572Y-138409319D01*
X111468547Y-138423356D01*
X111444351Y-138421354D01*
X111409059Y-138398531D01*
X111393651Y-138387659D01*
X111350689Y-138331888D01*
X111337128Y-138259351D01*
X111355821Y-138193052D01*
X111367680Y-138178279D01*
X111408774Y-138156459D01*
X111461129Y-138148327D01*
X111503184Y-138155038D01*
G36*
X111503184Y-138155038D02*
G01*
X111515000Y-138170377D01*
X111494459Y-138188163D01*
X111474065Y-138189427D01*
X111427963Y-138205749D01*
X111404345Y-138230350D01*
X111391619Y-138288395D01*
X111421615Y-138341052D01*
X111486771Y-138375676D01*
X111492003Y-138376991D01*
X111532263Y-138389323D01*
X111526082Y-138401085D01*
X111506572Y-138409319D01*
X111468547Y-138423356D01*
X111444351Y-138421354D01*
X111409059Y-138398531D01*
X111393651Y-138387659D01*
X111350689Y-138331888D01*
X111337128Y-138259351D01*
X111355821Y-138193052D01*
X111367680Y-138178279D01*
X111408774Y-138156459D01*
X111461129Y-138148327D01*
X111503184Y-138155038D01*
G37*
X106671720Y-138155749D02*
X106689000Y-138174230D01*
X106670660Y-138192834D01*
X106651713Y-138189726D01*
X106610877Y-138187222D01*
X106601253Y-138210563D01*
X106626949Y-138242632D01*
X106637488Y-138249019D01*
X106681960Y-138293501D01*
X106688222Y-138346154D01*
X106663010Y-138391472D01*
X106613055Y-138413944D01*
X106568350Y-138408249D01*
X106538089Y-138384591D01*
X106550888Y-138363220D01*
X106578316Y-138360172D01*
X106620976Y-138349344D01*
X106627803Y-138319739D01*
X106596385Y-138290837D01*
X106587317Y-138287473D01*
X106544661Y-138255750D01*
X106539745Y-138211511D01*
X106568664Y-138171328D01*
X106619150Y-138152462D01*
X106671720Y-138155749D01*
G36*
X106671720Y-138155749D02*
G01*
X106689000Y-138174230D01*
X106670660Y-138192834D01*
X106651713Y-138189726D01*
X106610877Y-138187222D01*
X106601253Y-138210563D01*
X106626949Y-138242632D01*
X106637488Y-138249019D01*
X106681960Y-138293501D01*
X106688222Y-138346154D01*
X106663010Y-138391472D01*
X106613055Y-138413944D01*
X106568350Y-138408249D01*
X106538089Y-138384591D01*
X106550888Y-138363220D01*
X106578316Y-138360172D01*
X106620976Y-138349344D01*
X106627803Y-138319739D01*
X106596385Y-138290837D01*
X106587317Y-138287473D01*
X106544661Y-138255750D01*
X106539745Y-138211511D01*
X106568664Y-138171328D01*
X106619150Y-138152462D01*
X106671720Y-138155749D01*
G37*
X108518475Y-138158193D02*
X108553182Y-138187977D01*
X108565568Y-138244977D01*
X108568147Y-138311883D01*
X108561791Y-138369994D01*
X108547374Y-138400611D01*
X108543200Y-138401800D01*
X108526015Y-138379566D01*
X108517896Y-138325304D01*
X108517800Y-138317979D01*
X108509255Y-138250895D01*
X108488629Y-138205012D01*
X108487924Y-138204284D01*
X108448569Y-138188631D01*
X108414715Y-138215027D01*
X108393929Y-138274764D01*
X108390800Y-138316010D01*
X108384206Y-138373522D01*
X108368064Y-138401327D01*
X108365400Y-138401800D01*
X108350910Y-138378955D01*
X108341714Y-138320547D01*
X108340000Y-138274800D01*
X108340000Y-138147800D01*
X108438882Y-138147800D01*
X108518475Y-138158193D01*
G36*
X108518475Y-138158193D02*
G01*
X108553182Y-138187977D01*
X108565568Y-138244977D01*
X108568147Y-138311883D01*
X108561791Y-138369994D01*
X108547374Y-138400611D01*
X108543200Y-138401800D01*
X108526015Y-138379566D01*
X108517896Y-138325304D01*
X108517800Y-138317979D01*
X108509255Y-138250895D01*
X108488629Y-138205012D01*
X108487924Y-138204284D01*
X108448569Y-138188631D01*
X108414715Y-138215027D01*
X108393929Y-138274764D01*
X108390800Y-138316010D01*
X108384206Y-138373522D01*
X108368064Y-138401327D01*
X108365400Y-138401800D01*
X108350910Y-138378955D01*
X108341714Y-138320547D01*
X108340000Y-138274800D01*
X108340000Y-138147800D01*
X108438882Y-138147800D01*
X108518475Y-138158193D01*
G37*
X108755621Y-138156128D02*
X108771800Y-138172402D01*
X108753389Y-138186876D01*
X108736269Y-138183371D01*
X108696349Y-138180196D01*
X108687313Y-138203797D01*
X108709586Y-138240290D01*
X108733918Y-138259907D01*
X108785462Y-138302976D01*
X108791357Y-138342255D01*
X108757285Y-138387285D01*
X108715678Y-138420083D01*
X108674594Y-138418991D01*
X108651150Y-138410378D01*
X108620319Y-138386032D01*
X108631865Y-138367696D01*
X108670200Y-138369040D01*
X108711650Y-138368089D01*
X108717958Y-138341047D01*
X108689587Y-138298055D01*
X108665964Y-138276477D01*
X108627667Y-138224510D01*
X108633799Y-138177992D01*
X108679986Y-138150464D01*
X108707502Y-138147800D01*
X108755621Y-138156128D01*
G36*
X108755621Y-138156128D02*
G01*
X108771800Y-138172402D01*
X108753389Y-138186876D01*
X108736269Y-138183371D01*
X108696349Y-138180196D01*
X108687313Y-138203797D01*
X108709586Y-138240290D01*
X108733918Y-138259907D01*
X108785462Y-138302976D01*
X108791357Y-138342255D01*
X108757285Y-138387285D01*
X108715678Y-138420083D01*
X108674594Y-138418991D01*
X108651150Y-138410378D01*
X108620319Y-138386032D01*
X108631865Y-138367696D01*
X108670200Y-138369040D01*
X108711650Y-138368089D01*
X108717958Y-138341047D01*
X108689587Y-138298055D01*
X108665964Y-138276477D01*
X108627667Y-138224510D01*
X108633799Y-138177992D01*
X108679986Y-138150464D01*
X108707502Y-138147800D01*
X108755621Y-138156128D01*
G37*
X110994604Y-138050375D02*
X111045346Y-138061146D01*
X111057800Y-138071600D01*
X111036526Y-138092237D01*
X111007000Y-138097000D01*
X110978627Y-138102560D01*
X110963295Y-138126987D01*
X110957133Y-138181899D01*
X110956200Y-138249400D01*
X110952344Y-138330576D01*
X110942270Y-138385612D01*
X110930800Y-138401800D01*
X110917270Y-138378664D01*
X110908097Y-138318225D01*
X110905400Y-138249400D01*
X110904055Y-138164937D01*
X110896708Y-138119336D01*
X110878388Y-138100668D01*
X110844125Y-138097003D01*
X110841900Y-138097000D01*
X110794165Y-138088305D01*
X110778400Y-138071600D01*
X110801365Y-138057690D01*
X110860607Y-138048464D01*
X110918100Y-138046200D01*
X110994604Y-138050375D01*
G36*
X110994604Y-138050375D02*
G01*
X111045346Y-138061146D01*
X111057800Y-138071600D01*
X111036526Y-138092237D01*
X111007000Y-138097000D01*
X110978627Y-138102560D01*
X110963295Y-138126987D01*
X110957133Y-138181899D01*
X110956200Y-138249400D01*
X110952344Y-138330576D01*
X110942270Y-138385612D01*
X110930800Y-138401800D01*
X110917270Y-138378664D01*
X110908097Y-138318225D01*
X110905400Y-138249400D01*
X110904055Y-138164937D01*
X110896708Y-138119336D01*
X110878388Y-138100668D01*
X110844125Y-138097003D01*
X110841900Y-138097000D01*
X110794165Y-138088305D01*
X110778400Y-138071600D01*
X110801365Y-138057690D01*
X110860607Y-138048464D01*
X110918100Y-138046200D01*
X110994604Y-138050375D01*
G37*
X112074475Y-138158193D02*
X112109182Y-138187977D01*
X112121568Y-138244977D01*
X112124147Y-138311883D01*
X112117791Y-138369994D01*
X112103374Y-138400611D01*
X112099200Y-138401800D01*
X112082015Y-138379566D01*
X112073896Y-138325304D01*
X112073800Y-138317979D01*
X112065255Y-138250895D01*
X112044629Y-138205012D01*
X112043924Y-138204284D01*
X112004569Y-138188631D01*
X111970715Y-138215027D01*
X111949929Y-138274764D01*
X111946800Y-138316010D01*
X111940206Y-138373522D01*
X111924064Y-138401327D01*
X111921400Y-138401800D01*
X111906910Y-138378955D01*
X111897714Y-138320547D01*
X111896000Y-138274800D01*
X111896000Y-138147800D01*
X111994882Y-138147800D01*
X112074475Y-138158193D01*
G36*
X112074475Y-138158193D02*
G01*
X112109182Y-138187977D01*
X112121568Y-138244977D01*
X112124147Y-138311883D01*
X112117791Y-138369994D01*
X112103374Y-138400611D01*
X112099200Y-138401800D01*
X112082015Y-138379566D01*
X112073896Y-138325304D01*
X112073800Y-138317979D01*
X112065255Y-138250895D01*
X112044629Y-138205012D01*
X112043924Y-138204284D01*
X112004569Y-138188631D01*
X111970715Y-138215027D01*
X111949929Y-138274764D01*
X111946800Y-138316010D01*
X111940206Y-138373522D01*
X111924064Y-138401327D01*
X111921400Y-138401800D01*
X111906910Y-138378955D01*
X111897714Y-138320547D01*
X111896000Y-138274800D01*
X111896000Y-138147800D01*
X111994882Y-138147800D01*
X112074475Y-138158193D01*
G37*
X109251534Y-138092172D02*
X109254400Y-138109700D01*
X109275239Y-138142320D01*
X109298850Y-138148607D01*
X109329401Y-138151900D01*
X109318731Y-138167662D01*
X109298850Y-138183157D01*
X109264007Y-138234274D01*
X109256482Y-138299079D01*
X109276645Y-138354927D01*
X109295761Y-138371622D01*
X109319824Y-138396470D01*
X109314269Y-138408894D01*
X109275699Y-138409682D01*
X109247507Y-138398447D01*
X109212487Y-138351021D01*
X109203600Y-138288354D01*
X109195038Y-138226090D01*
X109174190Y-138189340D01*
X109171850Y-138188016D01*
X109153170Y-138171335D01*
X109171850Y-138158383D01*
X109201095Y-138122720D01*
X109203600Y-138107583D01*
X109218012Y-138075163D01*
X109229000Y-138071600D01*
X109251534Y-138092172D01*
G36*
X109251534Y-138092172D02*
G01*
X109254400Y-138109700D01*
X109275239Y-138142320D01*
X109298850Y-138148607D01*
X109329401Y-138151900D01*
X109318731Y-138167662D01*
X109298850Y-138183157D01*
X109264007Y-138234274D01*
X109256482Y-138299079D01*
X109276645Y-138354927D01*
X109295761Y-138371622D01*
X109319824Y-138396470D01*
X109314269Y-138408894D01*
X109275699Y-138409682D01*
X109247507Y-138398447D01*
X109212487Y-138351021D01*
X109203600Y-138288354D01*
X109195038Y-138226090D01*
X109174190Y-138189340D01*
X109171850Y-138188016D01*
X109153170Y-138171335D01*
X109171850Y-138158383D01*
X109201095Y-138122720D01*
X109203600Y-138107583D01*
X109218012Y-138075163D01*
X109229000Y-138071600D01*
X109251534Y-138092172D01*
G37*
X110260678Y-138170265D02*
X110273414Y-138225961D01*
X110275216Y-138243050D01*
X110286411Y-138307866D01*
X110310672Y-138334903D01*
X110333900Y-138338300D01*
X110369373Y-138327369D01*
X110387211Y-138286074D01*
X110392583Y-138243050D01*
X110404408Y-138172955D01*
X110420814Y-138149794D01*
X110436668Y-138170638D01*
X110446841Y-138232556D01*
X110448200Y-138274800D01*
X110446723Y-138349960D01*
X110436521Y-138387436D01*
X110408938Y-138400345D01*
X110364380Y-138401800D01*
X110297073Y-138393070D01*
X110250781Y-138372000D01*
X110250080Y-138371320D01*
X110231590Y-138331784D01*
X110221679Y-138270942D01*
X110220906Y-138207661D01*
X110229827Y-138160809D01*
X110243466Y-138147800D01*
X110260678Y-138170265D01*
G36*
X110260678Y-138170265D02*
G01*
X110273414Y-138225961D01*
X110275216Y-138243050D01*
X110286411Y-138307866D01*
X110310672Y-138334903D01*
X110333900Y-138338300D01*
X110369373Y-138327369D01*
X110387211Y-138286074D01*
X110392583Y-138243050D01*
X110404408Y-138172955D01*
X110420814Y-138149794D01*
X110436668Y-138170638D01*
X110446841Y-138232556D01*
X110448200Y-138274800D01*
X110446723Y-138349960D01*
X110436521Y-138387436D01*
X110408938Y-138400345D01*
X110364380Y-138401800D01*
X110297073Y-138393070D01*
X110250781Y-138372000D01*
X110250080Y-138371320D01*
X110231590Y-138331784D01*
X110221679Y-138270942D01*
X110220906Y-138207661D01*
X110229827Y-138160809D01*
X110243466Y-138147800D01*
X110260678Y-138170265D01*
G37*
X110162199Y-138032720D02*
X110161601Y-138059150D01*
X110124350Y-138083396D01*
X110093706Y-138099336D01*
X110105066Y-138118634D01*
X110124350Y-138133364D01*
X110163880Y-138172046D01*
X110158009Y-138194392D01*
X110130700Y-138198600D01*
X110104207Y-138215376D01*
X110093291Y-138270990D01*
X110092600Y-138300200D01*
X110086966Y-138363822D01*
X110072893Y-138399209D01*
X110067200Y-138401800D01*
X110051156Y-138379297D01*
X110042367Y-138323218D01*
X110041800Y-138302316D01*
X110034330Y-138234510D01*
X110015536Y-138193594D01*
X110010050Y-138189950D01*
X109992620Y-138171218D01*
X110006626Y-138156083D01*
X110036389Y-138116454D01*
X110052788Y-138077950D01*
X110086524Y-138031455D01*
X110119711Y-138020800D01*
X110162199Y-138032720D01*
G36*
X110162199Y-138032720D02*
G01*
X110161601Y-138059150D01*
X110124350Y-138083396D01*
X110093706Y-138099336D01*
X110105066Y-138118634D01*
X110124350Y-138133364D01*
X110163880Y-138172046D01*
X110158009Y-138194392D01*
X110130700Y-138198600D01*
X110104207Y-138215376D01*
X110093291Y-138270990D01*
X110092600Y-138300200D01*
X110086966Y-138363822D01*
X110072893Y-138399209D01*
X110067200Y-138401800D01*
X110051156Y-138379297D01*
X110042367Y-138323218D01*
X110041800Y-138302316D01*
X110034330Y-138234510D01*
X110015536Y-138193594D01*
X110010050Y-138189950D01*
X109992620Y-138171218D01*
X110006626Y-138156083D01*
X110036389Y-138116454D01*
X110052788Y-138077950D01*
X110086524Y-138031455D01*
X110119711Y-138020800D01*
X110162199Y-138032720D01*
G37*
X112841318Y-138160956D02*
X112889192Y-138207119D01*
X112891221Y-138211300D01*
X112906338Y-138292700D01*
X112880695Y-138359604D01*
X112824180Y-138401478D01*
X112746677Y-138407786D01*
X112714962Y-138399108D01*
X112663354Y-138356025D01*
X112641497Y-138291101D01*
X112697179Y-138291101D01*
X112710604Y-138328972D01*
X112750271Y-138368541D01*
X112792822Y-138364588D01*
X112824437Y-138321563D01*
X112831483Y-138290038D01*
X112824225Y-138223077D01*
X112789666Y-138187941D01*
X112744817Y-138190213D01*
X112703686Y-138229445D01*
X112697179Y-138291101D01*
X112641497Y-138291101D01*
X112640187Y-138287211D01*
X112651264Y-138212414D01*
X112656733Y-138200965D01*
X112705184Y-138157002D01*
X112773347Y-138143958D01*
X112841318Y-138160956D01*
G36*
X112841318Y-138160956D02*
G01*
X112889192Y-138207119D01*
X112891221Y-138211300D01*
X112906338Y-138292700D01*
X112880695Y-138359604D01*
X112824180Y-138401478D01*
X112746677Y-138407786D01*
X112714962Y-138399108D01*
X112663354Y-138356025D01*
X112641497Y-138291101D01*
X112697179Y-138291101D01*
X112710604Y-138328972D01*
X112750271Y-138368541D01*
X112792822Y-138364588D01*
X112824437Y-138321563D01*
X112831483Y-138290038D01*
X112824225Y-138223077D01*
X112789666Y-138187941D01*
X112744817Y-138190213D01*
X112703686Y-138229445D01*
X112697179Y-138291101D01*
X112641497Y-138291101D01*
X112640187Y-138287211D01*
X112651264Y-138212414D01*
X112656733Y-138200965D01*
X112705184Y-138157002D01*
X112773347Y-138143958D01*
X112841318Y-138160956D01*
G37*
X107182859Y-138161395D02*
X107194561Y-138208468D01*
X107197000Y-138274800D01*
X107194180Y-138351251D01*
X107182579Y-138389358D01*
X107157479Y-138401415D01*
X107148277Y-138401800D01*
X107086723Y-138409088D01*
X107062652Y-138415960D01*
X107017435Y-138411073D01*
X106984375Y-138388746D01*
X106960926Y-138345218D01*
X106946697Y-138281735D01*
X106942856Y-138215945D01*
X106950575Y-138165498D01*
X106968400Y-138147800D01*
X106986687Y-138169754D01*
X106993800Y-138219145D01*
X107005209Y-138287698D01*
X107033323Y-138342444D01*
X107068965Y-138369593D01*
X107091546Y-138366081D01*
X107110282Y-138331125D01*
X107120284Y-138266917D01*
X107120800Y-138247900D01*
X107127282Y-138177821D01*
X107148691Y-138149374D01*
X107158900Y-138147800D01*
X107182859Y-138161395D01*
G36*
X107182859Y-138161395D02*
G01*
X107194561Y-138208468D01*
X107197000Y-138274800D01*
X107194180Y-138351251D01*
X107182579Y-138389358D01*
X107157479Y-138401415D01*
X107148277Y-138401800D01*
X107086723Y-138409088D01*
X107062652Y-138415960D01*
X107017435Y-138411073D01*
X106984375Y-138388746D01*
X106960926Y-138345218D01*
X106946697Y-138281735D01*
X106942856Y-138215945D01*
X106950575Y-138165498D01*
X106968400Y-138147800D01*
X106986687Y-138169754D01*
X106993800Y-138219145D01*
X107005209Y-138287698D01*
X107033323Y-138342444D01*
X107068965Y-138369593D01*
X107091546Y-138366081D01*
X107110282Y-138331125D01*
X107120284Y-138266917D01*
X107120800Y-138247900D01*
X107127282Y-138177821D01*
X107148691Y-138149374D01*
X107158900Y-138147800D01*
X107182859Y-138161395D01*
G37*
X108921684Y-138092017D02*
X108924200Y-138107583D01*
X108943624Y-138149793D01*
X108955950Y-138158383D01*
X108974629Y-138175064D01*
X108955950Y-138188016D01*
X108931874Y-138220880D01*
X108923276Y-138275901D01*
X108929303Y-138332661D01*
X108949106Y-138370743D01*
X108963799Y-138376400D01*
X108990089Y-138388713D01*
X108987700Y-138401800D01*
X108962133Y-138423386D01*
X108917844Y-138415295D01*
X108905150Y-138410378D01*
X108884039Y-138378856D01*
X108873630Y-138318196D01*
X108873400Y-138307233D01*
X108859170Y-138225746D01*
X108828950Y-138183157D01*
X108798398Y-138157229D01*
X108809068Y-138149372D01*
X108828950Y-138148607D01*
X108866565Y-138130061D01*
X108873400Y-138109700D01*
X108887115Y-138075898D01*
X108898800Y-138071600D01*
X108921684Y-138092017D01*
G36*
X108921684Y-138092017D02*
G01*
X108924200Y-138107583D01*
X108943624Y-138149793D01*
X108955950Y-138158383D01*
X108974629Y-138175064D01*
X108955950Y-138188016D01*
X108931874Y-138220880D01*
X108923276Y-138275901D01*
X108929303Y-138332661D01*
X108949106Y-138370743D01*
X108963799Y-138376400D01*
X108990089Y-138388713D01*
X108987700Y-138401800D01*
X108962133Y-138423386D01*
X108917844Y-138415295D01*
X108905150Y-138410378D01*
X108884039Y-138378856D01*
X108873630Y-138318196D01*
X108873400Y-138307233D01*
X108859170Y-138225746D01*
X108828950Y-138183157D01*
X108798398Y-138157229D01*
X108809068Y-138149372D01*
X108828950Y-138148607D01*
X108866565Y-138130061D01*
X108873400Y-138109700D01*
X108887115Y-138075898D01*
X108898800Y-138071600D01*
X108921684Y-138092017D01*
G37*
X109759534Y-138092172D02*
X109762400Y-138109700D01*
X109782731Y-138143374D01*
X109800500Y-138147800D01*
X109834301Y-138161515D01*
X109838600Y-138173200D01*
X109818027Y-138195734D01*
X109800500Y-138198600D01*
X109772236Y-138218944D01*
X109762077Y-138266717D01*
X109769647Y-138322027D01*
X109794572Y-138364981D01*
X109803761Y-138371622D01*
X109827824Y-138396470D01*
X109822269Y-138408894D01*
X109783699Y-138409682D01*
X109755507Y-138398447D01*
X109720487Y-138351021D01*
X109711600Y-138288354D01*
X109703038Y-138226090D01*
X109682190Y-138189340D01*
X109679850Y-138188016D01*
X109661170Y-138171335D01*
X109679850Y-138158383D01*
X109709095Y-138122720D01*
X109711600Y-138107583D01*
X109726012Y-138075163D01*
X109737000Y-138071600D01*
X109759534Y-138092172D01*
G36*
X109759534Y-138092172D02*
G01*
X109762400Y-138109700D01*
X109782731Y-138143374D01*
X109800500Y-138147800D01*
X109834301Y-138161515D01*
X109838600Y-138173200D01*
X109818027Y-138195734D01*
X109800500Y-138198600D01*
X109772236Y-138218944D01*
X109762077Y-138266717D01*
X109769647Y-138322027D01*
X109794572Y-138364981D01*
X109803761Y-138371622D01*
X109827824Y-138396470D01*
X109822269Y-138408894D01*
X109783699Y-138409682D01*
X109755507Y-138398447D01*
X109720487Y-138351021D01*
X109711600Y-138288354D01*
X109703038Y-138226090D01*
X109682190Y-138189340D01*
X109679850Y-138188016D01*
X109661170Y-138171335D01*
X109679850Y-138158383D01*
X109709095Y-138122720D01*
X109711600Y-138107583D01*
X109726012Y-138075163D01*
X109737000Y-138071600D01*
X109759534Y-138092172D01*
G37*
X112380438Y-138158829D02*
X112429255Y-138202039D01*
X112434021Y-138211300D01*
X112447995Y-138289944D01*
X112423429Y-138357695D01*
X112370017Y-138402443D01*
X112297453Y-138412077D01*
X112277000Y-138407444D01*
X112218093Y-138367551D01*
X112180371Y-138302969D01*
X112175643Y-138273284D01*
X112251600Y-138273284D01*
X112265191Y-138343407D01*
X112298720Y-138377419D01*
X112341321Y-138370666D01*
X112377706Y-138327269D01*
X112400237Y-138278241D01*
X112394537Y-138246859D01*
X112365164Y-138214193D01*
X112314378Y-138187200D01*
X112272672Y-138204636D01*
X112252121Y-138260218D01*
X112251600Y-138273284D01*
X112175643Y-138273284D01*
X112175400Y-138271759D01*
X112196196Y-138208125D01*
X112247944Y-138165604D01*
X112314680Y-138147928D01*
X112380438Y-138158829D01*
G36*
X112380438Y-138158829D02*
G01*
X112429255Y-138202039D01*
X112434021Y-138211300D01*
X112447995Y-138289944D01*
X112423429Y-138357695D01*
X112370017Y-138402443D01*
X112297453Y-138412077D01*
X112277000Y-138407444D01*
X112218093Y-138367551D01*
X112180371Y-138302969D01*
X112175643Y-138273284D01*
X112251600Y-138273284D01*
X112265191Y-138343407D01*
X112298720Y-138377419D01*
X112341321Y-138370666D01*
X112377706Y-138327269D01*
X112400237Y-138278241D01*
X112394537Y-138246859D01*
X112365164Y-138214193D01*
X112314378Y-138187200D01*
X112272672Y-138204636D01*
X112252121Y-138260218D01*
X112251600Y-138273284D01*
X112175643Y-138273284D01*
X112175400Y-138271759D01*
X112196196Y-138208125D01*
X112247944Y-138165604D01*
X112314680Y-138147928D01*
X112380438Y-138158829D01*
G37*
X109599089Y-138170644D02*
X109608285Y-138229052D01*
X109610000Y-138274800D01*
X109605456Y-138356215D01*
X109590347Y-138395341D01*
X109573977Y-138401800D01*
X109515909Y-138410220D01*
X109504127Y-138413816D01*
X109455642Y-138412076D01*
X109425850Y-138399854D01*
X109394296Y-138361007D01*
X109381900Y-138286835D01*
X109381400Y-138260837D01*
X109386497Y-138193111D01*
X109399380Y-138152748D01*
X109406800Y-138147800D01*
X109422802Y-138170311D01*
X109431609Y-138226453D01*
X109432200Y-138247900D01*
X109438371Y-138315736D01*
X109453696Y-138359477D01*
X109458712Y-138364387D01*
X109499707Y-138366118D01*
X109535484Y-138329251D01*
X109556791Y-138265831D01*
X109559200Y-138233589D01*
X109565793Y-138176077D01*
X109581935Y-138148272D01*
X109584600Y-138147800D01*
X109599089Y-138170644D01*
G36*
X109599089Y-138170644D02*
G01*
X109608285Y-138229052D01*
X109610000Y-138274800D01*
X109605456Y-138356215D01*
X109590347Y-138395341D01*
X109573977Y-138401800D01*
X109515909Y-138410220D01*
X109504127Y-138413816D01*
X109455642Y-138412076D01*
X109425850Y-138399854D01*
X109394296Y-138361007D01*
X109381900Y-138286835D01*
X109381400Y-138260837D01*
X109386497Y-138193111D01*
X109399380Y-138152748D01*
X109406800Y-138147800D01*
X109422802Y-138170311D01*
X109431609Y-138226453D01*
X109432200Y-138247900D01*
X109438371Y-138315736D01*
X109453696Y-138359477D01*
X109458712Y-138364387D01*
X109499707Y-138366118D01*
X109535484Y-138329251D01*
X109556791Y-138265831D01*
X109559200Y-138233589D01*
X109565793Y-138176077D01*
X109581935Y-138148272D01*
X109584600Y-138147800D01*
X109599089Y-138170644D01*
G37*
X105639601Y-138068380D02*
X105647550Y-138122285D01*
X105647600Y-138127382D01*
X105647600Y-138208565D01*
X105731359Y-138127382D01*
X105794574Y-138073525D01*
X105838299Y-138048958D01*
X105856394Y-138052991D01*
X105842719Y-138084934D01*
X105799999Y-138135100D01*
X105713834Y-138224000D01*
X105800000Y-138312900D01*
X105846429Y-138368644D01*
X105855729Y-138397081D01*
X105834039Y-138397521D01*
X105787499Y-138369273D01*
X105731359Y-138320617D01*
X105647600Y-138239434D01*
X105647600Y-138320617D01*
X105640660Y-138376236D01*
X105623794Y-138401640D01*
X105622200Y-138401800D01*
X105609170Y-138378307D01*
X105600167Y-138315341D01*
X105596800Y-138224172D01*
X105596800Y-138224000D01*
X105600156Y-138132792D01*
X105609151Y-138069769D01*
X105622175Y-138046200D01*
X105622200Y-138046200D01*
X105639601Y-138068380D01*
G36*
X105639601Y-138068380D02*
G01*
X105647550Y-138122285D01*
X105647600Y-138127382D01*
X105647600Y-138208565D01*
X105731359Y-138127382D01*
X105794574Y-138073525D01*
X105838299Y-138048958D01*
X105856394Y-138052991D01*
X105842719Y-138084934D01*
X105799999Y-138135100D01*
X105713834Y-138224000D01*
X105800000Y-138312900D01*
X105846429Y-138368644D01*
X105855729Y-138397081D01*
X105834039Y-138397521D01*
X105787499Y-138369273D01*
X105731359Y-138320617D01*
X105647600Y-138239434D01*
X105647600Y-138320617D01*
X105640660Y-138376236D01*
X105623794Y-138401640D01*
X105622200Y-138401800D01*
X105609170Y-138378307D01*
X105600167Y-138315341D01*
X105596800Y-138224172D01*
X105596800Y-138224000D01*
X105600156Y-138132792D01*
X105609151Y-138069769D01*
X105622175Y-138046200D01*
X105622200Y-138046200D01*
X105639601Y-138068380D01*
G37*
X111634542Y-138042880D02*
X111642000Y-138084300D01*
X111652904Y-138133056D01*
X111693901Y-138147692D01*
X111700420Y-138147800D01*
X111760130Y-138160347D01*
X111789320Y-138178279D01*
X111808138Y-138218295D01*
X111817883Y-138279348D01*
X111818127Y-138342586D01*
X111808441Y-138389154D01*
X111794400Y-138401800D01*
X111775486Y-138380013D01*
X111769000Y-138336630D01*
X111757794Y-138259595D01*
X111729137Y-138205665D01*
X111690470Y-138187094D01*
X111679712Y-138189563D01*
X111651324Y-138226898D01*
X111642000Y-138302917D01*
X111635355Y-138372535D01*
X111613478Y-138400433D01*
X111603900Y-138401800D01*
X111583803Y-138391820D01*
X111572006Y-138355759D01*
X111566672Y-138284428D01*
X111565800Y-138211300D01*
X111567795Y-138110816D01*
X111575008Y-138051833D01*
X111589274Y-138025164D01*
X111603900Y-138020800D01*
X111634542Y-138042880D01*
G36*
X111634542Y-138042880D02*
G01*
X111642000Y-138084300D01*
X111652904Y-138133056D01*
X111693901Y-138147692D01*
X111700420Y-138147800D01*
X111760130Y-138160347D01*
X111789320Y-138178279D01*
X111808138Y-138218295D01*
X111817883Y-138279348D01*
X111818127Y-138342586D01*
X111808441Y-138389154D01*
X111794400Y-138401800D01*
X111775486Y-138380013D01*
X111769000Y-138336630D01*
X111757794Y-138259595D01*
X111729137Y-138205665D01*
X111690470Y-138187094D01*
X111679712Y-138189563D01*
X111651324Y-138226898D01*
X111642000Y-138302917D01*
X111635355Y-138372535D01*
X111613478Y-138400433D01*
X111603900Y-138401800D01*
X111583803Y-138391820D01*
X111572006Y-138355759D01*
X111566672Y-138284428D01*
X111565800Y-138211300D01*
X111567795Y-138110816D01*
X111575008Y-138051833D01*
X111589274Y-138025164D01*
X111603900Y-138020800D01*
X111634542Y-138042880D01*
G37*
X107317693Y-138042536D02*
X107324000Y-138084300D01*
X107332619Y-138130268D01*
X107368744Y-138146585D01*
X107397482Y-138147800D01*
X107459347Y-138161133D01*
X107486382Y-138187977D01*
X107498768Y-138244977D01*
X107501347Y-138311883D01*
X107494991Y-138369994D01*
X107480574Y-138400611D01*
X107476400Y-138401800D01*
X107459215Y-138379566D01*
X107451096Y-138325304D01*
X107451000Y-138317979D01*
X107438833Y-138238613D01*
X107406101Y-138193617D01*
X107359004Y-138190602D01*
X107334053Y-138225274D01*
X107324041Y-138297140D01*
X107324000Y-138302917D01*
X107318222Y-138365528D01*
X107303832Y-138399675D01*
X107298600Y-138401800D01*
X107285801Y-138378162D01*
X107276881Y-138314176D01*
X107273223Y-138220233D01*
X107273200Y-138211300D01*
X107276351Y-138115311D01*
X107284883Y-138048407D01*
X107297408Y-138020978D01*
X107298600Y-138020800D01*
X107317693Y-138042536D01*
G36*
X107317693Y-138042536D02*
G01*
X107324000Y-138084300D01*
X107332619Y-138130268D01*
X107368744Y-138146585D01*
X107397482Y-138147800D01*
X107459347Y-138161133D01*
X107486382Y-138187977D01*
X107498768Y-138244977D01*
X107501347Y-138311883D01*
X107494991Y-138369994D01*
X107480574Y-138400611D01*
X107476400Y-138401800D01*
X107459215Y-138379566D01*
X107451096Y-138325304D01*
X107451000Y-138317979D01*
X107438833Y-138238613D01*
X107406101Y-138193617D01*
X107359004Y-138190602D01*
X107334053Y-138225274D01*
X107324041Y-138297140D01*
X107324000Y-138302917D01*
X107318222Y-138365528D01*
X107303832Y-138399675D01*
X107298600Y-138401800D01*
X107285801Y-138378162D01*
X107276881Y-138314176D01*
X107273223Y-138220233D01*
X107273200Y-138211300D01*
X107276351Y-138115311D01*
X107284883Y-138048407D01*
X107297408Y-138020978D01*
X107298600Y-138020800D01*
X107317693Y-138042536D01*
G37*
X107751524Y-138166727D02*
X107781480Y-138199124D01*
X107797596Y-138256791D01*
X107769928Y-138290020D01*
X107701384Y-138300200D01*
X107645681Y-138308851D01*
X107635807Y-138331950D01*
X107666514Y-138353966D01*
X107714124Y-138358918D01*
X107766858Y-138364364D01*
X107779451Y-138384404D01*
X107746983Y-138409369D01*
X107741022Y-138411782D01*
X107704215Y-138424292D01*
X107696572Y-138425589D01*
X107672806Y-138416111D01*
X107635909Y-138401289D01*
X107583080Y-138355723D01*
X107560007Y-138285168D01*
X107570141Y-138224000D01*
X107628800Y-138224000D01*
X107650073Y-138244637D01*
X107679600Y-138249400D01*
X107720874Y-138238763D01*
X107730400Y-138224000D01*
X107709126Y-138203362D01*
X107679600Y-138198600D01*
X107638325Y-138209236D01*
X107628800Y-138224000D01*
X107570141Y-138224000D01*
X107572550Y-138209465D01*
X107576733Y-138200965D01*
X107623983Y-138158489D01*
X107689412Y-138147012D01*
X107751524Y-138166727D01*
G36*
X107751524Y-138166727D02*
G01*
X107781480Y-138199124D01*
X107797596Y-138256791D01*
X107769928Y-138290020D01*
X107701384Y-138300200D01*
X107645681Y-138308851D01*
X107635807Y-138331950D01*
X107666514Y-138353966D01*
X107714124Y-138358918D01*
X107766858Y-138364364D01*
X107779451Y-138384404D01*
X107746983Y-138409369D01*
X107741022Y-138411782D01*
X107704215Y-138424292D01*
X107696572Y-138425589D01*
X107672806Y-138416111D01*
X107635909Y-138401289D01*
X107583080Y-138355723D01*
X107560007Y-138285168D01*
X107570141Y-138224000D01*
X107628800Y-138224000D01*
X107650073Y-138244637D01*
X107679600Y-138249400D01*
X107720874Y-138238763D01*
X107730400Y-138224000D01*
X107709126Y-138203362D01*
X107679600Y-138198600D01*
X107638325Y-138209236D01*
X107628800Y-138224000D01*
X107570141Y-138224000D01*
X107572550Y-138209465D01*
X107576733Y-138200965D01*
X107623983Y-138158489D01*
X107689412Y-138147012D01*
X107751524Y-138166727D01*
G37*
X106034950Y-138152540D02*
X106085540Y-138160947D01*
X106110963Y-138183029D01*
X106121698Y-138233361D01*
X106125110Y-138277947D01*
X106127046Y-138350581D01*
X106116549Y-138387552D01*
X106087705Y-138403581D01*
X106073352Y-138406745D01*
X106010653Y-138411008D01*
X105976841Y-138406138D01*
X105928839Y-138372261D01*
X105919532Y-138330431D01*
X105986651Y-138330431D01*
X105999917Y-138362417D01*
X106035728Y-138369773D01*
X106037277Y-138369285D01*
X106067329Y-138338693D01*
X106074912Y-138317145D01*
X106069900Y-138280186D01*
X106033788Y-138282718D01*
X106006295Y-138297749D01*
X105986651Y-138330431D01*
X105919532Y-138330431D01*
X105918298Y-138324886D01*
X105941033Y-138279604D01*
X105992861Y-138252007D01*
X106018910Y-138249400D01*
X106066141Y-138239371D01*
X106072366Y-138217650D01*
X106041507Y-138194678D01*
X106006750Y-138191950D01*
X105963860Y-138186373D01*
X105952400Y-138171291D01*
X105974427Y-138155187D01*
X106028573Y-138152003D01*
X106034950Y-138152540D01*
G36*
X106034950Y-138152540D02*
G01*
X106085540Y-138160947D01*
X106110963Y-138183029D01*
X106121698Y-138233361D01*
X106125110Y-138277947D01*
X106127046Y-138350581D01*
X106116549Y-138387552D01*
X106087705Y-138403581D01*
X106073352Y-138406745D01*
X106010653Y-138411008D01*
X105976841Y-138406138D01*
X105928839Y-138372261D01*
X105919532Y-138330431D01*
X105986651Y-138330431D01*
X105999917Y-138362417D01*
X106035728Y-138369773D01*
X106037277Y-138369285D01*
X106067329Y-138338693D01*
X106074912Y-138317145D01*
X106069900Y-138280186D01*
X106033788Y-138282718D01*
X106006295Y-138297749D01*
X105986651Y-138330431D01*
X105919532Y-138330431D01*
X105918298Y-138324886D01*
X105941033Y-138279604D01*
X105992861Y-138252007D01*
X106018910Y-138249400D01*
X106066141Y-138239371D01*
X106072366Y-138217650D01*
X106041507Y-138194678D01*
X106006750Y-138191950D01*
X105963860Y-138186373D01*
X105952400Y-138171291D01*
X105974427Y-138155187D01*
X106028573Y-138152003D01*
X106034950Y-138152540D01*
G37*
X111212101Y-138155046D02*
X111264233Y-138192102D01*
X111286382Y-138252583D01*
X111286400Y-138254479D01*
X111274506Y-138286079D01*
X111230754Y-138298927D01*
X111194389Y-138300200D01*
X111136185Y-138302882D01*
X111119961Y-138314836D01*
X111135355Y-138339932D01*
X111190026Y-138368204D01*
X111233715Y-138364943D01*
X111278143Y-138356569D01*
X111277293Y-138366271D01*
X111249795Y-138388710D01*
X111204045Y-138419977D01*
X111169025Y-138421073D01*
X111120193Y-138391810D01*
X111114251Y-138387659D01*
X111071289Y-138331888D01*
X111057728Y-138259351D01*
X111063362Y-138239366D01*
X111118926Y-138239366D01*
X111144940Y-138248759D01*
X111168989Y-138249400D01*
X111218205Y-138241961D01*
X111235600Y-138226717D01*
X111216342Y-138196753D01*
X111174555Y-138190468D01*
X111134218Y-138211106D01*
X111132746Y-138212809D01*
X111118926Y-138239366D01*
X111063362Y-138239366D01*
X111076421Y-138193052D01*
X111088280Y-138178279D01*
X111147584Y-138148182D01*
X111212101Y-138155046D01*
G36*
X111212101Y-138155046D02*
G01*
X111264233Y-138192102D01*
X111286382Y-138252583D01*
X111286400Y-138254479D01*
X111274506Y-138286079D01*
X111230754Y-138298927D01*
X111194389Y-138300200D01*
X111136185Y-138302882D01*
X111119961Y-138314836D01*
X111135355Y-138339932D01*
X111190026Y-138368204D01*
X111233715Y-138364943D01*
X111278143Y-138356569D01*
X111277293Y-138366271D01*
X111249795Y-138388710D01*
X111204045Y-138419977D01*
X111169025Y-138421073D01*
X111120193Y-138391810D01*
X111114251Y-138387659D01*
X111071289Y-138331888D01*
X111057728Y-138259351D01*
X111063362Y-138239366D01*
X111118926Y-138239366D01*
X111144940Y-138248759D01*
X111168989Y-138249400D01*
X111218205Y-138241961D01*
X111235600Y-138226717D01*
X111216342Y-138196753D01*
X111174555Y-138190468D01*
X111134218Y-138211106D01*
X111132746Y-138212809D01*
X111118926Y-138239366D01*
X111063362Y-138239366D01*
X111076421Y-138193052D01*
X111088280Y-138178279D01*
X111147584Y-138148182D01*
X111212101Y-138155046D01*
G37*
X113568735Y-138169913D02*
X113591087Y-138215990D01*
X113593137Y-138230350D01*
X113593921Y-138276326D01*
X113572696Y-138295892D01*
X113515807Y-138300182D01*
X113507477Y-138300200D01*
X113448469Y-138302820D01*
X113431418Y-138314492D01*
X113446755Y-138339932D01*
X113500466Y-138367949D01*
X113538765Y-138364848D01*
X113586177Y-138363990D01*
X113595941Y-138383910D01*
X113562170Y-138409954D01*
X113557622Y-138411782D01*
X113509176Y-138425369D01*
X113469312Y-138415601D01*
X113425651Y-138387659D01*
X113382799Y-138332463D01*
X113369368Y-138261175D01*
X113375377Y-138239366D01*
X113430326Y-138239366D01*
X113456340Y-138248759D01*
X113480389Y-138249400D01*
X113529605Y-138241961D01*
X113547000Y-138226717D01*
X113527742Y-138196753D01*
X113485955Y-138190468D01*
X113445618Y-138211106D01*
X113444146Y-138212809D01*
X113430326Y-138239366D01*
X113375377Y-138239366D01*
X113387405Y-138195718D01*
X113405764Y-138174474D01*
X113457059Y-138154577D01*
X113513714Y-138152314D01*
X113568735Y-138169913D01*
G36*
X113568735Y-138169913D02*
G01*
X113591087Y-138215990D01*
X113593137Y-138230350D01*
X113593921Y-138276326D01*
X113572696Y-138295892D01*
X113515807Y-138300182D01*
X113507477Y-138300200D01*
X113448469Y-138302820D01*
X113431418Y-138314492D01*
X113446755Y-138339932D01*
X113500466Y-138367949D01*
X113538765Y-138364848D01*
X113586177Y-138363990D01*
X113595941Y-138383910D01*
X113562170Y-138409954D01*
X113557622Y-138411782D01*
X113509176Y-138425369D01*
X113469312Y-138415601D01*
X113425651Y-138387659D01*
X113382799Y-138332463D01*
X113369368Y-138261175D01*
X113375377Y-138239366D01*
X113430326Y-138239366D01*
X113456340Y-138248759D01*
X113480389Y-138249400D01*
X113529605Y-138241961D01*
X113547000Y-138226717D01*
X113527742Y-138196753D01*
X113485955Y-138190468D01*
X113445618Y-138211106D01*
X113444146Y-138212809D01*
X113430326Y-138239366D01*
X113375377Y-138239366D01*
X113387405Y-138195718D01*
X113405764Y-138174474D01*
X113457059Y-138154577D01*
X113513714Y-138152314D01*
X113568735Y-138169913D01*
G37*
X110003140Y-135584769D02*
X109851709Y-135773255D01*
X109729655Y-135926365D01*
X109634175Y-136048032D01*
X109562465Y-136142186D01*
X109511723Y-136212759D01*
X109479144Y-136263683D01*
X109461926Y-136298890D01*
X109457265Y-136322310D01*
X109462357Y-136337875D01*
X109464322Y-136340419D01*
X109489953Y-136371431D01*
X109542413Y-136435514D01*
X109617011Y-136526898D01*
X109709054Y-136639815D01*
X109813853Y-136768497D01*
X109926716Y-136907175D01*
X110042952Y-137050081D01*
X110157870Y-137191447D01*
X110266778Y-137325504D01*
X110364986Y-137446484D01*
X110447803Y-137548618D01*
X110510537Y-137626138D01*
X110548497Y-137673275D01*
X110557184Y-137684250D01*
X110556366Y-137696177D01*
X110529375Y-137704872D01*
X110470749Y-137710762D01*
X110375021Y-137714271D01*
X110236728Y-137715823D01*
X110149219Y-137716000D01*
X109717018Y-137716000D01*
X108670200Y-136595638D01*
X108671570Y-136285869D01*
X108672941Y-135976100D01*
X109173220Y-135424474D01*
X109673500Y-134872848D01*
X110577666Y-134871200D01*
X110003140Y-135584769D01*
G36*
X110003140Y-135584769D02*
G01*
X109851709Y-135773255D01*
X109729655Y-135926365D01*
X109634175Y-136048032D01*
X109562465Y-136142186D01*
X109511723Y-136212759D01*
X109479144Y-136263683D01*
X109461926Y-136298890D01*
X109457265Y-136322310D01*
X109462357Y-136337875D01*
X109464322Y-136340419D01*
X109489953Y-136371431D01*
X109542413Y-136435514D01*
X109617011Y-136526898D01*
X109709054Y-136639815D01*
X109813853Y-136768497D01*
X109926716Y-136907175D01*
X110042952Y-137050081D01*
X110157870Y-137191447D01*
X110266778Y-137325504D01*
X110364986Y-137446484D01*
X110447803Y-137548618D01*
X110510537Y-137626138D01*
X110548497Y-137673275D01*
X110557184Y-137684250D01*
X110556366Y-137696177D01*
X110529375Y-137704872D01*
X110470749Y-137710762D01*
X110375021Y-137714271D01*
X110236728Y-137715823D01*
X110149219Y-137716000D01*
X109717018Y-137716000D01*
X108670200Y-136595638D01*
X108671570Y-136285869D01*
X108672941Y-135976100D01*
X109173220Y-135424474D01*
X109673500Y-134872848D01*
X110577666Y-134871200D01*
X110003140Y-135584769D01*
G37*
X113191400Y-138312006D02*
X113188814Y-138405355D01*
X113178826Y-138461037D01*
X113158092Y-138492019D01*
X113142269Y-138502506D01*
X113058955Y-138525857D01*
X112994550Y-138511978D01*
X112963111Y-138489050D01*
X112975752Y-138469832D01*
X113025858Y-138461260D01*
X113042643Y-138461554D01*
X113101509Y-138455143D01*
X113133319Y-138434430D01*
X113133660Y-138433550D01*
X113121135Y-138409362D01*
X113065887Y-138401800D01*
X112995863Y-138381296D01*
X112956003Y-138326870D01*
X112953588Y-138279284D01*
X113013600Y-138279284D01*
X113019724Y-138332070D01*
X113045641Y-138348123D01*
X113070490Y-138346416D01*
X113118984Y-138322089D01*
X113136087Y-138292629D01*
X113129435Y-138236579D01*
X113096717Y-138196489D01*
X113052182Y-138189297D01*
X113049842Y-138190127D01*
X113023693Y-138223165D01*
X113013600Y-138279284D01*
X112953588Y-138279284D01*
X112952058Y-138249144D01*
X112962800Y-138211300D01*
X112987612Y-138169144D01*
X113030510Y-138151029D01*
X113089171Y-138147800D01*
X113191400Y-138147800D01*
X113191400Y-138312006D01*
G36*
X113191400Y-138312006D02*
G01*
X113188814Y-138405355D01*
X113178826Y-138461037D01*
X113158092Y-138492019D01*
X113142269Y-138502506D01*
X113058955Y-138525857D01*
X112994550Y-138511978D01*
X112963111Y-138489050D01*
X112975752Y-138469832D01*
X113025858Y-138461260D01*
X113042643Y-138461554D01*
X113101509Y-138455143D01*
X113133319Y-138434430D01*
X113133660Y-138433550D01*
X113121135Y-138409362D01*
X113065887Y-138401800D01*
X112995863Y-138381296D01*
X112956003Y-138326870D01*
X112953588Y-138279284D01*
X113013600Y-138279284D01*
X113019724Y-138332070D01*
X113045641Y-138348123D01*
X113070490Y-138346416D01*
X113118984Y-138322089D01*
X113136087Y-138292629D01*
X113129435Y-138236579D01*
X113096717Y-138196489D01*
X113052182Y-138189297D01*
X113049842Y-138190127D01*
X113023693Y-138223165D01*
X113013600Y-138279284D01*
X112953588Y-138279284D01*
X112952058Y-138249144D01*
X112962800Y-138211300D01*
X112987612Y-138169144D01*
X113030510Y-138151029D01*
X113089171Y-138147800D01*
X113191400Y-138147800D01*
X113191400Y-138312006D01*
G37*
X108479700Y-137703300D02*
X105622200Y-137716422D01*
X105622269Y-137677900D01*
X108390800Y-137677900D01*
X108403500Y-137690600D01*
X108416200Y-137677900D01*
X108403500Y-137665200D01*
X108390800Y-137677900D01*
X105622269Y-137677900D01*
X105622349Y-137633661D01*
X105626036Y-137574229D01*
X105635700Y-137484808D01*
X105649469Y-137378220D01*
X105665467Y-137267284D01*
X105681821Y-137164820D01*
X105696656Y-137083647D01*
X105708099Y-137036586D01*
X105710409Y-137031317D01*
X105736735Y-137033398D01*
X105807723Y-137046932D01*
X105918798Y-137070854D01*
X106065388Y-137104105D01*
X106242919Y-137145620D01*
X106446817Y-137194339D01*
X106672511Y-137249199D01*
X106915425Y-137309138D01*
X107034859Y-137338915D01*
X107284223Y-137401097D01*
X107518388Y-137459110D01*
X107732796Y-137511853D01*
X107922891Y-137558222D01*
X108084114Y-137597113D01*
X108211906Y-137627424D01*
X108301711Y-137648052D01*
X108348969Y-137657893D01*
X108355193Y-137658473D01*
X108334500Y-137646489D01*
X108271883Y-137615202D01*
X108171538Y-137566602D01*
X108037663Y-137502681D01*
X107874455Y-137425427D01*
X107686110Y-137336834D01*
X107476826Y-137238889D01*
X107250800Y-137133586D01*
X107139032Y-137081677D01*
X106905915Y-136973470D01*
X106686978Y-136871746D01*
X106486498Y-136778498D01*
X106308749Y-136695721D01*
X106158009Y-136625408D01*
X106038552Y-136569552D01*
X105954655Y-136530147D01*
X105910593Y-136509186D01*
X105904872Y-136506282D01*
X105909421Y-136479926D01*
X105938274Y-136420752D01*
X105986148Y-136337241D01*
X106047762Y-136237872D01*
X106117834Y-136131123D01*
X106191080Y-136025472D01*
X106262219Y-135929400D01*
X106272480Y-135916214D01*
X106292956Y-135930009D01*
X106349225Y-135972983D01*
X106437673Y-136042256D01*
X106554684Y-136134950D01*
X106696645Y-136248185D01*
X106859940Y-136379081D01*
X107040956Y-136524759D01*
X107236078Y-136682341D01*
X107347902Y-136772882D01*
X107548975Y-136935596D01*
X107737707Y-137087863D01*
X107910512Y-137226824D01*
X108063809Y-137349619D01*
X108194013Y-137453388D01*
X108297542Y-137535272D01*
X108370811Y-137592412D01*
X108410238Y-137621947D01*
X108416199Y-137625378D01*
X108400575Y-137603769D01*
X108355681Y-137546575D01*
X108284489Y-137457470D01*
X108189969Y-137340126D01*
X108075091Y-137198219D01*
X107942826Y-137035421D01*
X107796144Y-136855406D01*
X107638015Y-136661848D01*
X107565299Y-136572999D01*
X107402948Y-136374288D01*
X107250749Y-136187133D01*
X107111677Y-136015256D01*
X106988709Y-135862378D01*
X106884824Y-135732217D01*
X106802996Y-135628495D01*
X106746203Y-135554933D01*
X106717422Y-135515251D01*
X106714400Y-135509503D01*
X106735302Y-135478275D01*
X106791069Y-135430466D01*
X106871291Y-135372535D01*
X106965560Y-135310943D01*
X107063465Y-135252148D01*
X107154598Y-135202612D01*
X107228548Y-135168792D01*
X107274907Y-135157150D01*
X107280442Y-135158235D01*
X107296814Y-135182979D01*
X107332470Y-135249505D01*
X107385306Y-135353516D01*
X107453223Y-135490714D01*
X107534119Y-135656802D01*
X107625892Y-135847482D01*
X107726441Y-136058457D01*
X107833665Y-136285429D01*
X107882800Y-136390075D01*
X107991620Y-136621930D01*
X108093881Y-136839143D01*
X108187580Y-137037508D01*
X108270717Y-137212820D01*
X108341288Y-137360872D01*
X108397293Y-137477458D01*
X108436730Y-137558373D01*
X108457596Y-137599411D01*
X108460411Y-137603737D01*
X108455548Y-137578744D01*
X108439329Y-137509044D01*
X108412871Y-137399173D01*
X108377291Y-137253667D01*
X108333707Y-137077063D01*
X108283236Y-136873899D01*
X108226995Y-136648712D01*
X108166102Y-136406036D01*
X108135041Y-136282658D01*
X108072360Y-136032912D01*
X108013973Y-135798258D01*
X107960977Y-135583257D01*
X107914475Y-135392471D01*
X107875566Y-135230460D01*
X107845350Y-135101785D01*
X107824927Y-135011008D01*
X107815398Y-134962689D01*
X107815027Y-134955905D01*
X107846558Y-134945085D01*
X107915854Y-134930689D01*
X108010176Y-134914610D01*
X108116785Y-134898740D01*
X108222940Y-134884970D01*
X108315904Y-134875194D01*
X108382936Y-134871303D01*
X108384663Y-134871296D01*
X108492826Y-134871200D01*
X108479700Y-137703300D01*
G36*
X108479700Y-137703300D02*
G01*
X105622200Y-137716422D01*
X105622269Y-137677900D01*
X108390800Y-137677900D01*
X108403500Y-137690600D01*
X108416200Y-137677900D01*
X108403500Y-137665200D01*
X108390800Y-137677900D01*
X105622269Y-137677900D01*
X105622349Y-137633661D01*
X105626036Y-137574229D01*
X105635700Y-137484808D01*
X105649469Y-137378220D01*
X105665467Y-137267284D01*
X105681821Y-137164820D01*
X105696656Y-137083647D01*
X105708099Y-137036586D01*
X105710409Y-137031317D01*
X105736735Y-137033398D01*
X105807723Y-137046932D01*
X105918798Y-137070854D01*
X106065388Y-137104105D01*
X106242919Y-137145620D01*
X106446817Y-137194339D01*
X106672511Y-137249199D01*
X106915425Y-137309138D01*
X107034859Y-137338915D01*
X107284223Y-137401097D01*
X107518388Y-137459110D01*
X107732796Y-137511853D01*
X107922891Y-137558222D01*
X108084114Y-137597113D01*
X108211906Y-137627424D01*
X108301711Y-137648052D01*
X108348969Y-137657893D01*
X108355193Y-137658473D01*
X108334500Y-137646489D01*
X108271883Y-137615202D01*
X108171538Y-137566602D01*
X108037663Y-137502681D01*
X107874455Y-137425427D01*
X107686110Y-137336834D01*
X107476826Y-137238889D01*
X107250800Y-137133586D01*
X107139032Y-137081677D01*
X106905915Y-136973470D01*
X106686978Y-136871746D01*
X106486498Y-136778498D01*
X106308749Y-136695721D01*
X106158009Y-136625408D01*
X106038552Y-136569552D01*
X105954655Y-136530147D01*
X105910593Y-136509186D01*
X105904872Y-136506282D01*
X105909421Y-136479926D01*
X105938274Y-136420752D01*
X105986148Y-136337241D01*
X106047762Y-136237872D01*
X106117834Y-136131123D01*
X106191080Y-136025472D01*
X106262219Y-135929400D01*
X106272480Y-135916214D01*
X106292956Y-135930009D01*
X106349225Y-135972983D01*
X106437673Y-136042256D01*
X106554684Y-136134950D01*
X106696645Y-136248185D01*
X106859940Y-136379081D01*
X107040956Y-136524759D01*
X107236078Y-136682341D01*
X107347902Y-136772882D01*
X107548975Y-136935596D01*
X107737707Y-137087863D01*
X107910512Y-137226824D01*
X108063809Y-137349619D01*
X108194013Y-137453388D01*
X108297542Y-137535272D01*
X108370811Y-137592412D01*
X108410238Y-137621947D01*
X108416199Y-137625378D01*
X108400575Y-137603769D01*
X108355681Y-137546575D01*
X108284489Y-137457470D01*
X108189969Y-137340126D01*
X108075091Y-137198219D01*
X107942826Y-137035421D01*
X107796144Y-136855406D01*
X107638015Y-136661848D01*
X107565299Y-136572999D01*
X107402948Y-136374288D01*
X107250749Y-136187133D01*
X107111677Y-136015256D01*
X106988709Y-135862378D01*
X106884824Y-135732217D01*
X106802996Y-135628495D01*
X106746203Y-135554933D01*
X106717422Y-135515251D01*
X106714400Y-135509503D01*
X106735302Y-135478275D01*
X106791069Y-135430466D01*
X106871291Y-135372535D01*
X106965560Y-135310943D01*
X107063465Y-135252148D01*
X107154598Y-135202612D01*
X107228548Y-135168792D01*
X107274907Y-135157150D01*
X107280442Y-135158235D01*
X107296814Y-135182979D01*
X107332470Y-135249505D01*
X107385306Y-135353516D01*
X107453223Y-135490714D01*
X107534119Y-135656802D01*
X107625892Y-135847482D01*
X107726441Y-136058457D01*
X107833665Y-136285429D01*
X107882800Y-136390075D01*
X107991620Y-136621930D01*
X108093881Y-136839143D01*
X108187580Y-137037508D01*
X108270717Y-137212820D01*
X108341288Y-137360872D01*
X108397293Y-137477458D01*
X108436730Y-137558373D01*
X108457596Y-137599411D01*
X108460411Y-137603737D01*
X108455548Y-137578744D01*
X108439329Y-137509044D01*
X108412871Y-137399173D01*
X108377291Y-137253667D01*
X108333707Y-137077063D01*
X108283236Y-136873899D01*
X108226995Y-136648712D01*
X108166102Y-136406036D01*
X108135041Y-136282658D01*
X108072360Y-136032912D01*
X108013973Y-135798258D01*
X107960977Y-135583257D01*
X107914475Y-135392471D01*
X107875566Y-135230460D01*
X107845350Y-135101785D01*
X107824927Y-135011008D01*
X107815398Y-134962689D01*
X107815027Y-134955905D01*
X107846558Y-134945085D01*
X107915854Y-134930689D01*
X108010176Y-134914610D01*
X108116785Y-134898740D01*
X108222940Y-134884970D01*
X108315904Y-134875194D01*
X108382936Y-134871303D01*
X108384663Y-134871296D01*
X108492826Y-134871200D01*
X108479700Y-137703300D01*
G37*
D16*
%TO.C,R6*%
X137782500Y-72262742D02*
X137782500Y-72737258D01*
X136737500Y-72262742D02*
X136737500Y-72737258D01*
%TO.C,R4*%
X137782500Y-91762742D02*
X137782500Y-92237258D01*
X136737500Y-91762742D02*
X136737500Y-92237258D01*
%TO.C,R3*%
X141697742Y-90677500D02*
X142172258Y-90677500D01*
X141697742Y-91722500D02*
X142172258Y-91722500D01*
%TO.C,R2*%
X136782500Y-111762742D02*
X136782500Y-112237258D01*
X135737500Y-111762742D02*
X135737500Y-112237258D01*
%TO.C,R5*%
X143022742Y-71177500D02*
X143497258Y-71177500D01*
X143022742Y-72222500D02*
X143497258Y-72222500D01*
%TD*%
M02*
