%TF.GenerationSoftware,KiCad,Pcbnew,(6.0.10)*%
%TF.CreationDate,2023-01-26T06:33:38+09:00*%
%TF.ProjectId,AstroPix_telescope,41737472-6f50-4697-985f-74656c657363,1.1*%
%TF.SameCoordinates,Original*%
%TF.FileFunction,Legend,Top*%
%TF.FilePolarity,Positive*%
%FSLAX46Y46*%
G04 Gerber Fmt 4.6, Leading zero omitted, Abs format (unit mm)*
G04 Created by KiCad (PCBNEW (6.0.10)) date 2023-01-26 06:33:38*
%MOMM*%
%LPD*%
G01*
G04 APERTURE LIST*
%ADD10C,0.300000*%
%ADD11C,0.500000*%
%ADD12C,0.150000*%
%ADD13C,0.120000*%
%ADD14C,0.010000*%
G04 APERTURE END LIST*
D10*
X113695238Y-126466666D02*
X114314285Y-126466666D01*
X113571428Y-126838095D02*
X114004761Y-125538095D01*
X114438095Y-126838095D01*
X114871428Y-126838095D02*
X114871428Y-125971428D01*
X114871428Y-126219047D02*
X114933333Y-126095238D01*
X114995238Y-126033333D01*
X115119047Y-125971428D01*
X115242857Y-125971428D01*
X116233333Y-125971428D02*
X116233333Y-127023809D01*
X116171428Y-127147619D01*
X116109523Y-127209523D01*
X115985714Y-127271428D01*
X115800000Y-127271428D01*
X115676190Y-127209523D01*
X116233333Y-126776190D02*
X116109523Y-126838095D01*
X115861904Y-126838095D01*
X115738095Y-126776190D01*
X115676190Y-126714285D01*
X115614285Y-126590476D01*
X115614285Y-126219047D01*
X115676190Y-126095238D01*
X115738095Y-126033333D01*
X115861904Y-125971428D01*
X116109523Y-125971428D01*
X116233333Y-126033333D01*
X117038095Y-126838095D02*
X116914285Y-126776190D01*
X116852380Y-126714285D01*
X116790476Y-126590476D01*
X116790476Y-126219047D01*
X116852380Y-126095238D01*
X116914285Y-126033333D01*
X117038095Y-125971428D01*
X117223809Y-125971428D01*
X117347619Y-126033333D01*
X117409523Y-126095238D01*
X117471428Y-126219047D01*
X117471428Y-126590476D01*
X117409523Y-126714285D01*
X117347619Y-126776190D01*
X117223809Y-126838095D01*
X117038095Y-126838095D01*
X118028571Y-125971428D02*
X118028571Y-126838095D01*
X118028571Y-126095238D02*
X118090476Y-126033333D01*
X118214285Y-125971428D01*
X118400000Y-125971428D01*
X118523809Y-126033333D01*
X118585714Y-126157142D01*
X118585714Y-126838095D01*
X119204761Y-125971428D02*
X119204761Y-126838095D01*
X119204761Y-126095238D02*
X119266666Y-126033333D01*
X119390476Y-125971428D01*
X119576190Y-125971428D01*
X119700000Y-126033333D01*
X119761904Y-126157142D01*
X119761904Y-126838095D01*
X120876190Y-126776190D02*
X120752380Y-126838095D01*
X120504761Y-126838095D01*
X120380952Y-126776190D01*
X120319047Y-126652380D01*
X120319047Y-126157142D01*
X120380952Y-126033333D01*
X120504761Y-125971428D01*
X120752380Y-125971428D01*
X120876190Y-126033333D01*
X120938095Y-126157142D01*
X120938095Y-126280952D01*
X120319047Y-126404761D01*
X122485714Y-126838095D02*
X122485714Y-125538095D01*
X123228571Y-126838095D01*
X123228571Y-125538095D01*
X124404761Y-126838095D02*
X124404761Y-126157142D01*
X124342857Y-126033333D01*
X124219047Y-125971428D01*
X123971428Y-125971428D01*
X123847619Y-126033333D01*
X124404761Y-126776190D02*
X124280952Y-126838095D01*
X123971428Y-126838095D01*
X123847619Y-126776190D01*
X123785714Y-126652380D01*
X123785714Y-126528571D01*
X123847619Y-126404761D01*
X123971428Y-126342857D01*
X124280952Y-126342857D01*
X124404761Y-126280952D01*
X124838095Y-125971428D02*
X125333333Y-125971428D01*
X125023809Y-125538095D02*
X125023809Y-126652380D01*
X125085714Y-126776190D01*
X125209523Y-126838095D01*
X125333333Y-126838095D01*
X125766666Y-126838095D02*
X125766666Y-125971428D01*
X125766666Y-125538095D02*
X125704761Y-125600000D01*
X125766666Y-125661904D01*
X125828571Y-125600000D01*
X125766666Y-125538095D01*
X125766666Y-125661904D01*
X126571428Y-126838095D02*
X126447619Y-126776190D01*
X126385714Y-126714285D01*
X126323809Y-126590476D01*
X126323809Y-126219047D01*
X126385714Y-126095238D01*
X126447619Y-126033333D01*
X126571428Y-125971428D01*
X126757142Y-125971428D01*
X126880952Y-126033333D01*
X126942857Y-126095238D01*
X127004761Y-126219047D01*
X127004761Y-126590476D01*
X126942857Y-126714285D01*
X126880952Y-126776190D01*
X126757142Y-126838095D01*
X126571428Y-126838095D01*
X127561904Y-125971428D02*
X127561904Y-126838095D01*
X127561904Y-126095238D02*
X127623809Y-126033333D01*
X127747619Y-125971428D01*
X127933333Y-125971428D01*
X128057142Y-126033333D01*
X128119047Y-126157142D01*
X128119047Y-126838095D01*
X129295238Y-126838095D02*
X129295238Y-126157142D01*
X129233333Y-126033333D01*
X129109523Y-125971428D01*
X128861904Y-125971428D01*
X128738095Y-126033333D01*
X129295238Y-126776190D02*
X129171428Y-126838095D01*
X128861904Y-126838095D01*
X128738095Y-126776190D01*
X128676190Y-126652380D01*
X128676190Y-126528571D01*
X128738095Y-126404761D01*
X128861904Y-126342857D01*
X129171428Y-126342857D01*
X129295238Y-126280952D01*
X130100000Y-126838095D02*
X129976190Y-126776190D01*
X129914285Y-126652380D01*
X129914285Y-125538095D01*
X132204761Y-126838095D02*
X131585714Y-126838095D01*
X131585714Y-125538095D01*
X133195238Y-126838095D02*
X133195238Y-126157142D01*
X133133333Y-126033333D01*
X133009523Y-125971428D01*
X132761904Y-125971428D01*
X132638095Y-126033333D01*
X133195238Y-126776190D02*
X133071428Y-126838095D01*
X132761904Y-126838095D01*
X132638095Y-126776190D01*
X132576190Y-126652380D01*
X132576190Y-126528571D01*
X132638095Y-126404761D01*
X132761904Y-126342857D01*
X133071428Y-126342857D01*
X133195238Y-126280952D01*
X133814285Y-126838095D02*
X133814285Y-125538095D01*
X133814285Y-126033333D02*
X133938095Y-125971428D01*
X134185714Y-125971428D01*
X134309523Y-126033333D01*
X134371428Y-126095238D01*
X134433333Y-126219047D01*
X134433333Y-126590476D01*
X134371428Y-126714285D01*
X134309523Y-126776190D01*
X134185714Y-126838095D01*
X133938095Y-126838095D01*
X133814285Y-126776190D01*
X135176190Y-126838095D02*
X135052380Y-126776190D01*
X134990476Y-126714285D01*
X134928571Y-126590476D01*
X134928571Y-126219047D01*
X134990476Y-126095238D01*
X135052380Y-126033333D01*
X135176190Y-125971428D01*
X135361904Y-125971428D01*
X135485714Y-126033333D01*
X135547619Y-126095238D01*
X135609523Y-126219047D01*
X135609523Y-126590476D01*
X135547619Y-126714285D01*
X135485714Y-126776190D01*
X135361904Y-126838095D01*
X135176190Y-126838095D01*
X136166666Y-126838095D02*
X136166666Y-125971428D01*
X136166666Y-126219047D02*
X136228571Y-126095238D01*
X136290476Y-126033333D01*
X136414285Y-125971428D01*
X136538095Y-125971428D01*
X137528571Y-126838095D02*
X137528571Y-126157142D01*
X137466666Y-126033333D01*
X137342857Y-125971428D01*
X137095238Y-125971428D01*
X136971428Y-126033333D01*
X137528571Y-126776190D02*
X137404761Y-126838095D01*
X137095238Y-126838095D01*
X136971428Y-126776190D01*
X136909523Y-126652380D01*
X136909523Y-126528571D01*
X136971428Y-126404761D01*
X137095238Y-126342857D01*
X137404761Y-126342857D01*
X137528571Y-126280952D01*
X137961904Y-125971428D02*
X138457142Y-125971428D01*
X138147619Y-125538095D02*
X138147619Y-126652380D01*
X138209523Y-126776190D01*
X138333333Y-126838095D01*
X138457142Y-126838095D01*
X139076190Y-126838095D02*
X138952380Y-126776190D01*
X138890476Y-126714285D01*
X138828571Y-126590476D01*
X138828571Y-126219047D01*
X138890476Y-126095238D01*
X138952380Y-126033333D01*
X139076190Y-125971428D01*
X139261904Y-125971428D01*
X139385714Y-126033333D01*
X139447619Y-126095238D01*
X139509523Y-126219047D01*
X139509523Y-126590476D01*
X139447619Y-126714285D01*
X139385714Y-126776190D01*
X139261904Y-126838095D01*
X139076190Y-126838095D01*
X140066666Y-126838095D02*
X140066666Y-125971428D01*
X140066666Y-126219047D02*
X140128571Y-126095238D01*
X140190476Y-126033333D01*
X140314285Y-125971428D01*
X140438095Y-125971428D01*
X140747619Y-125971428D02*
X141057142Y-126838095D01*
X141366666Y-125971428D02*
X141057142Y-126838095D01*
X140933333Y-127147619D01*
X140871428Y-127209523D01*
X140747619Y-127271428D01*
D11*
X180085000Y-109880952D02*
X180085000Y-108690476D01*
X180942142Y-110119047D02*
X177942142Y-109285714D01*
X180942142Y-108452380D01*
X180799285Y-107738095D02*
X180942142Y-107500000D01*
X180942142Y-107023809D01*
X180799285Y-106785714D01*
X180513571Y-106666666D01*
X180370714Y-106666666D01*
X180085000Y-106785714D01*
X179942142Y-107023809D01*
X179942142Y-107380952D01*
X179799285Y-107619047D01*
X179513571Y-107738095D01*
X179370714Y-107738095D01*
X179085000Y-107619047D01*
X178942142Y-107380952D01*
X178942142Y-107023809D01*
X179085000Y-106785714D01*
X178942142Y-105952380D02*
X178942142Y-105000000D01*
X177942142Y-105595238D02*
X180513571Y-105595238D01*
X180799285Y-105476190D01*
X180942142Y-105238095D01*
X180942142Y-105000000D01*
X180942142Y-104166666D02*
X178942142Y-104166666D01*
X179513571Y-104166666D02*
X179227857Y-104047619D01*
X179085000Y-103928571D01*
X178942142Y-103690476D01*
X178942142Y-103452380D01*
X180942142Y-102261904D02*
X180799285Y-102500000D01*
X180656428Y-102619047D01*
X180370714Y-102738095D01*
X179513571Y-102738095D01*
X179227857Y-102619047D01*
X179085000Y-102500000D01*
X178942142Y-102261904D01*
X178942142Y-101904761D01*
X179085000Y-101666666D01*
X179227857Y-101547619D01*
X179513571Y-101428571D01*
X180370714Y-101428571D01*
X180656428Y-101547619D01*
X180799285Y-101666666D01*
X180942142Y-101904761D01*
X180942142Y-102261904D01*
X180942142Y-100357142D02*
X177942142Y-100357142D01*
X177942142Y-99404761D01*
X178085000Y-99166666D01*
X178227857Y-99047619D01*
X178513571Y-98928571D01*
X178942142Y-98928571D01*
X179227857Y-99047619D01*
X179370714Y-99166666D01*
X179513571Y-99404761D01*
X179513571Y-100357142D01*
X180942142Y-97857142D02*
X178942142Y-97857142D01*
X177942142Y-97857142D02*
X178085000Y-97976190D01*
X178227857Y-97857142D01*
X178085000Y-97738095D01*
X177942142Y-97857142D01*
X178227857Y-97857142D01*
X180942142Y-96904761D02*
X178942142Y-95595238D01*
X178942142Y-96904761D02*
X180942142Y-95595238D01*
X177942142Y-93095238D02*
X177942142Y-91666666D01*
X180942142Y-92380952D02*
X177942142Y-92380952D01*
X180799285Y-89880952D02*
X180942142Y-90119047D01*
X180942142Y-90595238D01*
X180799285Y-90833333D01*
X180513571Y-90952380D01*
X179370714Y-90952380D01*
X179085000Y-90833333D01*
X178942142Y-90595238D01*
X178942142Y-90119047D01*
X179085000Y-89880952D01*
X179370714Y-89761904D01*
X179656428Y-89761904D01*
X179942142Y-90952380D01*
X180942142Y-88333333D02*
X180799285Y-88571428D01*
X180513571Y-88690476D01*
X177942142Y-88690476D01*
X180799285Y-86428571D02*
X180942142Y-86666666D01*
X180942142Y-87142857D01*
X180799285Y-87380952D01*
X180513571Y-87500000D01*
X179370714Y-87500000D01*
X179085000Y-87380952D01*
X178942142Y-87142857D01*
X178942142Y-86666666D01*
X179085000Y-86428571D01*
X179370714Y-86309523D01*
X179656428Y-86309523D01*
X179942142Y-87500000D01*
X180799285Y-85357142D02*
X180942142Y-85119047D01*
X180942142Y-84642857D01*
X180799285Y-84404761D01*
X180513571Y-84285714D01*
X180370714Y-84285714D01*
X180085000Y-84404761D01*
X179942142Y-84642857D01*
X179942142Y-85000000D01*
X179799285Y-85238095D01*
X179513571Y-85357142D01*
X179370714Y-85357142D01*
X179085000Y-85238095D01*
X178942142Y-85000000D01*
X178942142Y-84642857D01*
X179085000Y-84404761D01*
X180799285Y-82142857D02*
X180942142Y-82380952D01*
X180942142Y-82857142D01*
X180799285Y-83095238D01*
X180656428Y-83214285D01*
X180370714Y-83333333D01*
X179513571Y-83333333D01*
X179227857Y-83214285D01*
X179085000Y-83095238D01*
X178942142Y-82857142D01*
X178942142Y-82380952D01*
X179085000Y-82142857D01*
X180942142Y-80714285D02*
X180799285Y-80952380D01*
X180656428Y-81071428D01*
X180370714Y-81190476D01*
X179513571Y-81190476D01*
X179227857Y-81071428D01*
X179085000Y-80952380D01*
X178942142Y-80714285D01*
X178942142Y-80357142D01*
X179085000Y-80119047D01*
X179227857Y-80000000D01*
X179513571Y-79880952D01*
X180370714Y-79880952D01*
X180656428Y-80000000D01*
X180799285Y-80119047D01*
X180942142Y-80357142D01*
X180942142Y-80714285D01*
X178942142Y-78809523D02*
X181942142Y-78809523D01*
X179085000Y-78809523D02*
X178942142Y-78571428D01*
X178942142Y-78095238D01*
X179085000Y-77857142D01*
X179227857Y-77738095D01*
X179513571Y-77619047D01*
X180370714Y-77619047D01*
X180656428Y-77738095D01*
X180799285Y-77857142D01*
X180942142Y-78095238D01*
X180942142Y-78571428D01*
X180799285Y-78809523D01*
X180799285Y-75595238D02*
X180942142Y-75833333D01*
X180942142Y-76309523D01*
X180799285Y-76547619D01*
X180513571Y-76666666D01*
X179370714Y-76666666D01*
X179085000Y-76547619D01*
X178942142Y-76309523D01*
X178942142Y-75833333D01*
X179085000Y-75595238D01*
X179370714Y-75476190D01*
X179656428Y-75476190D01*
X179942142Y-76666666D01*
X180942142Y-71190476D02*
X180942142Y-72619047D01*
X180942142Y-71904761D02*
X177942142Y-71904761D01*
X178370714Y-72142857D01*
X178656428Y-72380952D01*
X178799285Y-72619047D01*
X180656428Y-70119047D02*
X180799285Y-70000000D01*
X180942142Y-70119047D01*
X180799285Y-70238095D01*
X180656428Y-70119047D01*
X180942142Y-70119047D01*
X180942142Y-67619047D02*
X180942142Y-69047619D01*
X180942142Y-68333333D02*
X177942142Y-68333333D01*
X178370714Y-68571428D01*
X178656428Y-68809523D01*
X178799285Y-69047619D01*
D10*
X113776190Y-122288095D02*
X113776190Y-123340476D01*
X113838095Y-123464285D01*
X113900000Y-123526190D01*
X114023809Y-123588095D01*
X114271428Y-123588095D01*
X114395238Y-123526190D01*
X114457142Y-123464285D01*
X114519047Y-123340476D01*
X114519047Y-122288095D01*
X115880952Y-123464285D02*
X115819047Y-123526190D01*
X115633333Y-123588095D01*
X115509523Y-123588095D01*
X115323809Y-123526190D01*
X115200000Y-123402380D01*
X115138095Y-123278571D01*
X115076190Y-123030952D01*
X115076190Y-122845238D01*
X115138095Y-122597619D01*
X115200000Y-122473809D01*
X115323809Y-122350000D01*
X115509523Y-122288095D01*
X115633333Y-122288095D01*
X115819047Y-122350000D01*
X115880952Y-122411904D01*
X116376190Y-123526190D02*
X116561904Y-123588095D01*
X116871428Y-123588095D01*
X116995238Y-123526190D01*
X117057142Y-123464285D01*
X117119047Y-123340476D01*
X117119047Y-123216666D01*
X117057142Y-123092857D01*
X116995238Y-123030952D01*
X116871428Y-122969047D01*
X116623809Y-122907142D01*
X116500000Y-122845238D01*
X116438095Y-122783333D01*
X116376190Y-122659523D01*
X116376190Y-122535714D01*
X116438095Y-122411904D01*
X116500000Y-122350000D01*
X116623809Y-122288095D01*
X116933333Y-122288095D01*
X117119047Y-122350000D01*
X118419047Y-123464285D02*
X118357142Y-123526190D01*
X118171428Y-123588095D01*
X118047619Y-123588095D01*
X117861904Y-123526190D01*
X117738095Y-123402380D01*
X117676190Y-123278571D01*
X117614285Y-123030952D01*
X117614285Y-122845238D01*
X117676190Y-122597619D01*
X117738095Y-122473809D01*
X117861904Y-122350000D01*
X118047619Y-122288095D01*
X118171428Y-122288095D01*
X118357142Y-122350000D01*
X118419047Y-122411904D01*
X118976190Y-123092857D02*
X119966666Y-123092857D01*
X120523809Y-123526190D02*
X120709523Y-123588095D01*
X121019047Y-123588095D01*
X121142857Y-123526190D01*
X121204761Y-123464285D01*
X121266666Y-123340476D01*
X121266666Y-123216666D01*
X121204761Y-123092857D01*
X121142857Y-123030952D01*
X121019047Y-122969047D01*
X120771428Y-122907142D01*
X120647619Y-122845238D01*
X120585714Y-122783333D01*
X120523809Y-122659523D01*
X120523809Y-122535714D01*
X120585714Y-122411904D01*
X120647619Y-122350000D01*
X120771428Y-122288095D01*
X121080952Y-122288095D01*
X121266666Y-122350000D01*
X122566666Y-123464285D02*
X122504761Y-123526190D01*
X122319047Y-123588095D01*
X122195238Y-123588095D01*
X122009523Y-123526190D01*
X121885714Y-123402380D01*
X121823809Y-123278571D01*
X121761904Y-123030952D01*
X121761904Y-122845238D01*
X121823809Y-122597619D01*
X121885714Y-122473809D01*
X122009523Y-122350000D01*
X122195238Y-122288095D01*
X122319047Y-122288095D01*
X122504761Y-122350000D01*
X122566666Y-122411904D01*
X123123809Y-123588095D02*
X123123809Y-122288095D01*
X123742857Y-123588095D02*
X123742857Y-122288095D01*
X124238095Y-122288095D01*
X124361904Y-122350000D01*
X124423809Y-122411904D01*
X124485714Y-122535714D01*
X124485714Y-122721428D01*
X124423809Y-122845238D01*
X124361904Y-122907142D01*
X124238095Y-122969047D01*
X123742857Y-122969047D01*
X125042857Y-123588095D02*
X125042857Y-122288095D01*
X125538095Y-122288095D01*
X125661904Y-122350000D01*
X125723809Y-122411904D01*
X125785714Y-122535714D01*
X125785714Y-122721428D01*
X125723809Y-122845238D01*
X125661904Y-122907142D01*
X125538095Y-122969047D01*
X125042857Y-122969047D01*
D12*
X104585595Y-131147380D02*
X104585595Y-130147380D01*
X105157023Y-131147380D01*
X105157023Y-130147380D01*
X105633214Y-131147380D02*
X105633214Y-130480714D01*
X105633214Y-130147380D02*
X105585595Y-130195000D01*
X105633214Y-130242619D01*
X105680833Y-130195000D01*
X105633214Y-130147380D01*
X105633214Y-130242619D01*
X106537976Y-131099761D02*
X106442738Y-131147380D01*
X106252261Y-131147380D01*
X106157023Y-131099761D01*
X106109404Y-131052142D01*
X106061785Y-130956904D01*
X106061785Y-130671190D01*
X106109404Y-130575952D01*
X106157023Y-130528333D01*
X106252261Y-130480714D01*
X106442738Y-130480714D01*
X106537976Y-130528333D01*
X107109404Y-131147380D02*
X107014166Y-131099761D01*
X106966547Y-131052142D01*
X106918928Y-130956904D01*
X106918928Y-130671190D01*
X106966547Y-130575952D01*
X107014166Y-130528333D01*
X107109404Y-130480714D01*
X107252261Y-130480714D01*
X107347500Y-130528333D01*
X107395119Y-130575952D01*
X107442738Y-130671190D01*
X107442738Y-130956904D01*
X107395119Y-131052142D01*
X107347500Y-131099761D01*
X107252261Y-131147380D01*
X107109404Y-131147380D01*
X108014166Y-131147380D02*
X107918928Y-131099761D01*
X107871309Y-131004523D01*
X107871309Y-130147380D01*
X108823690Y-131147380D02*
X108823690Y-130623571D01*
X108776071Y-130528333D01*
X108680833Y-130480714D01*
X108490357Y-130480714D01*
X108395119Y-130528333D01*
X108823690Y-131099761D02*
X108728452Y-131147380D01*
X108490357Y-131147380D01*
X108395119Y-131099761D01*
X108347500Y-131004523D01*
X108347500Y-130909285D01*
X108395119Y-130814047D01*
X108490357Y-130766428D01*
X108728452Y-130766428D01*
X108823690Y-130718809D01*
X109252261Y-131099761D02*
X109347500Y-131147380D01*
X109537976Y-131147380D01*
X109633214Y-131099761D01*
X109680833Y-131004523D01*
X109680833Y-130956904D01*
X109633214Y-130861666D01*
X109537976Y-130814047D01*
X109395119Y-130814047D01*
X109299880Y-130766428D01*
X109252261Y-130671190D01*
X109252261Y-130623571D01*
X109299880Y-130528333D01*
X109395119Y-130480714D01*
X109537976Y-130480714D01*
X109633214Y-130528333D01*
X110823690Y-131099761D02*
X110966547Y-131147380D01*
X111204642Y-131147380D01*
X111299880Y-131099761D01*
X111347500Y-131052142D01*
X111395119Y-130956904D01*
X111395119Y-130861666D01*
X111347500Y-130766428D01*
X111299880Y-130718809D01*
X111204642Y-130671190D01*
X111014166Y-130623571D01*
X110918928Y-130575952D01*
X110871309Y-130528333D01*
X110823690Y-130433095D01*
X110823690Y-130337857D01*
X110871309Y-130242619D01*
X110918928Y-130195000D01*
X111014166Y-130147380D01*
X111252261Y-130147380D01*
X111395119Y-130195000D01*
X111680833Y-130480714D02*
X112061785Y-130480714D01*
X111823690Y-130147380D02*
X111823690Y-131004523D01*
X111871309Y-131099761D01*
X111966547Y-131147380D01*
X112061785Y-131147380D01*
X112395119Y-131147380D02*
X112395119Y-130480714D01*
X112395119Y-130671190D02*
X112442738Y-130575952D01*
X112490357Y-130528333D01*
X112585595Y-130480714D01*
X112680833Y-130480714D01*
X113014166Y-131147380D02*
X113014166Y-130480714D01*
X113014166Y-130147380D02*
X112966547Y-130195000D01*
X113014166Y-130242619D01*
X113061785Y-130195000D01*
X113014166Y-130147380D01*
X113014166Y-130242619D01*
X113871309Y-131099761D02*
X113776071Y-131147380D01*
X113585595Y-131147380D01*
X113490357Y-131099761D01*
X113442738Y-131004523D01*
X113442738Y-130623571D01*
X113490357Y-130528333D01*
X113585595Y-130480714D01*
X113776071Y-130480714D01*
X113871309Y-130528333D01*
X113918928Y-130623571D01*
X113918928Y-130718809D01*
X113442738Y-130814047D01*
X114347500Y-131147380D02*
X114347500Y-130147380D01*
X114347500Y-130528333D02*
X114442738Y-130480714D01*
X114633214Y-130480714D01*
X114728452Y-130528333D01*
X114776071Y-130575952D01*
X114823690Y-130671190D01*
X114823690Y-130956904D01*
X114776071Y-131052142D01*
X114728452Y-131099761D01*
X114633214Y-131147380D01*
X114442738Y-131147380D01*
X114347500Y-131099761D01*
X115252261Y-131147380D02*
X115252261Y-130480714D01*
X115252261Y-130147380D02*
X115204642Y-130195000D01*
X115252261Y-130242619D01*
X115299880Y-130195000D01*
X115252261Y-130147380D01*
X115252261Y-130242619D01*
X116157023Y-130480714D02*
X116157023Y-131290238D01*
X116109404Y-131385476D01*
X116061785Y-131433095D01*
X115966547Y-131480714D01*
X115823690Y-131480714D01*
X115728452Y-131433095D01*
X116157023Y-131099761D02*
X116061785Y-131147380D01*
X115871309Y-131147380D01*
X115776071Y-131099761D01*
X115728452Y-131052142D01*
X115680833Y-130956904D01*
X115680833Y-130671190D01*
X115728452Y-130575952D01*
X115776071Y-130528333D01*
X115871309Y-130480714D01*
X116061785Y-130480714D01*
X116157023Y-130528333D01*
X117347500Y-130242619D02*
X117395119Y-130195000D01*
X117490357Y-130147380D01*
X117728452Y-130147380D01*
X117823690Y-130195000D01*
X117871309Y-130242619D01*
X117918928Y-130337857D01*
X117918928Y-130433095D01*
X117871309Y-130575952D01*
X117299880Y-131147380D01*
X117918928Y-131147380D01*
X118537976Y-130147380D02*
X118633214Y-130147380D01*
X118728452Y-130195000D01*
X118776071Y-130242619D01*
X118823690Y-130337857D01*
X118871309Y-130528333D01*
X118871309Y-130766428D01*
X118823690Y-130956904D01*
X118776071Y-131052142D01*
X118728452Y-131099761D01*
X118633214Y-131147380D01*
X118537976Y-131147380D01*
X118442738Y-131099761D01*
X118395119Y-131052142D01*
X118347500Y-130956904D01*
X118299880Y-130766428D01*
X118299880Y-130528333D01*
X118347500Y-130337857D01*
X118395119Y-130242619D01*
X118442738Y-130195000D01*
X118537976Y-130147380D01*
X119252261Y-130242619D02*
X119299880Y-130195000D01*
X119395119Y-130147380D01*
X119633214Y-130147380D01*
X119728452Y-130195000D01*
X119776071Y-130242619D01*
X119823690Y-130337857D01*
X119823690Y-130433095D01*
X119776071Y-130575952D01*
X119204642Y-131147380D01*
X119823690Y-131147380D01*
X120204642Y-130242619D02*
X120252261Y-130195000D01*
X120347500Y-130147380D01*
X120585595Y-130147380D01*
X120680833Y-130195000D01*
X120728452Y-130242619D01*
X120776071Y-130337857D01*
X120776071Y-130433095D01*
X120728452Y-130575952D01*
X120157023Y-131147380D01*
X120776071Y-131147380D01*
X104442738Y-131757380D02*
X105014166Y-131757380D01*
X104728452Y-132757380D02*
X104728452Y-131757380D01*
X105776071Y-132757380D02*
X105776071Y-132233571D01*
X105728452Y-132138333D01*
X105633214Y-132090714D01*
X105442738Y-132090714D01*
X105347500Y-132138333D01*
X105776071Y-132709761D02*
X105680833Y-132757380D01*
X105442738Y-132757380D01*
X105347500Y-132709761D01*
X105299880Y-132614523D01*
X105299880Y-132519285D01*
X105347500Y-132424047D01*
X105442738Y-132376428D01*
X105680833Y-132376428D01*
X105776071Y-132328809D01*
X106157023Y-132090714D02*
X106395119Y-132757380D01*
X106633214Y-132090714D02*
X106395119Y-132757380D01*
X106299880Y-132995476D01*
X106252261Y-133043095D01*
X106157023Y-133090714D01*
X107157023Y-132757380D02*
X107061785Y-132709761D01*
X107014166Y-132614523D01*
X107014166Y-131757380D01*
X107680833Y-132757380D02*
X107585595Y-132709761D01*
X107537976Y-132662142D01*
X107490357Y-132566904D01*
X107490357Y-132281190D01*
X107537976Y-132185952D01*
X107585595Y-132138333D01*
X107680833Y-132090714D01*
X107823690Y-132090714D01*
X107918928Y-132138333D01*
X107966547Y-132185952D01*
X108014166Y-132281190D01*
X108014166Y-132566904D01*
X107966547Y-132662142D01*
X107918928Y-132709761D01*
X107823690Y-132757380D01*
X107680833Y-132757380D01*
X108442738Y-132757380D02*
X108442738Y-132090714D01*
X108442738Y-132281190D02*
X108490357Y-132185952D01*
X108537976Y-132138333D01*
X108633214Y-132090714D01*
X108728452Y-132090714D01*
X109776071Y-132709761D02*
X109918928Y-132757380D01*
X110157023Y-132757380D01*
X110252261Y-132709761D01*
X110299880Y-132662142D01*
X110347500Y-132566904D01*
X110347500Y-132471666D01*
X110299880Y-132376428D01*
X110252261Y-132328809D01*
X110157023Y-132281190D01*
X109966547Y-132233571D01*
X109871309Y-132185952D01*
X109823690Y-132138333D01*
X109776071Y-132043095D01*
X109776071Y-131947857D01*
X109823690Y-131852619D01*
X109871309Y-131805000D01*
X109966547Y-131757380D01*
X110204642Y-131757380D01*
X110347500Y-131805000D01*
X110776071Y-132757380D02*
X110776071Y-131757380D01*
X111204642Y-132757380D02*
X111204642Y-132233571D01*
X111157023Y-132138333D01*
X111061785Y-132090714D01*
X110918928Y-132090714D01*
X110823690Y-132138333D01*
X110776071Y-132185952D01*
X111680833Y-132757380D02*
X111680833Y-132090714D01*
X111680833Y-131757380D02*
X111633214Y-131805000D01*
X111680833Y-131852619D01*
X111728452Y-131805000D01*
X111680833Y-131757380D01*
X111680833Y-131852619D01*
X112157023Y-132090714D02*
X112157023Y-132757380D01*
X112157023Y-132185952D02*
X112204642Y-132138333D01*
X112299880Y-132090714D01*
X112442738Y-132090714D01*
X112537976Y-132138333D01*
X112585595Y-132233571D01*
X112585595Y-132757380D01*
X113776071Y-131852619D02*
X113823690Y-131805000D01*
X113918928Y-131757380D01*
X114157023Y-131757380D01*
X114252261Y-131805000D01*
X114299880Y-131852619D01*
X114347500Y-131947857D01*
X114347500Y-132043095D01*
X114299880Y-132185952D01*
X113728452Y-132757380D01*
X114347500Y-132757380D01*
X114966547Y-131757380D02*
X115061785Y-131757380D01*
X115157023Y-131805000D01*
X115204642Y-131852619D01*
X115252261Y-131947857D01*
X115299880Y-132138333D01*
X115299880Y-132376428D01*
X115252261Y-132566904D01*
X115204642Y-132662142D01*
X115157023Y-132709761D01*
X115061785Y-132757380D01*
X114966547Y-132757380D01*
X114871309Y-132709761D01*
X114823690Y-132662142D01*
X114776071Y-132566904D01*
X114728452Y-132376428D01*
X114728452Y-132138333D01*
X114776071Y-131947857D01*
X114823690Y-131852619D01*
X114871309Y-131805000D01*
X114966547Y-131757380D01*
X115680833Y-131852619D02*
X115728452Y-131805000D01*
X115823690Y-131757380D01*
X116061785Y-131757380D01*
X116157023Y-131805000D01*
X116204642Y-131852619D01*
X116252261Y-131947857D01*
X116252261Y-132043095D01*
X116204642Y-132185952D01*
X115633214Y-132757380D01*
X116252261Y-132757380D01*
X116585595Y-131757380D02*
X117204642Y-131757380D01*
X116871309Y-132138333D01*
X117014166Y-132138333D01*
X117109404Y-132185952D01*
X117157023Y-132233571D01*
X117204642Y-132328809D01*
X117204642Y-132566904D01*
X117157023Y-132662142D01*
X117109404Y-132709761D01*
X117014166Y-132757380D01*
X116728452Y-132757380D01*
X116633214Y-132709761D01*
X116585595Y-132662142D01*
D10*
X104764285Y-127216666D02*
X105383333Y-127216666D01*
X104640476Y-127588095D02*
X105073809Y-126288095D01*
X105507142Y-127588095D01*
X105940476Y-127588095D02*
X105940476Y-126288095D01*
X106250000Y-126288095D01*
X106435714Y-126350000D01*
X106559523Y-126473809D01*
X106621428Y-126597619D01*
X106683333Y-126845238D01*
X106683333Y-127030952D01*
X106621428Y-127278571D01*
X106559523Y-127402380D01*
X106435714Y-127526190D01*
X106250000Y-127588095D01*
X105940476Y-127588095D01*
X107859523Y-127588095D02*
X107240476Y-127588095D01*
X107240476Y-126288095D01*
D12*
%TO.C,R1*%
X142533333Y-98902380D02*
X142200000Y-98426190D01*
X141961904Y-98902380D02*
X141961904Y-97902380D01*
X142342857Y-97902380D01*
X142438095Y-97950000D01*
X142485714Y-97997619D01*
X142533333Y-98092857D01*
X142533333Y-98235714D01*
X142485714Y-98330952D01*
X142438095Y-98378571D01*
X142342857Y-98426190D01*
X141961904Y-98426190D01*
X143485714Y-98902380D02*
X142914285Y-98902380D01*
X143200000Y-98902380D02*
X143200000Y-97902380D01*
X143104761Y-98045238D01*
X143009523Y-98140476D01*
X142914285Y-98188095D01*
%TO.C,R6*%
X136452380Y-62366666D02*
X135976190Y-62700000D01*
X136452380Y-62938095D02*
X135452380Y-62938095D01*
X135452380Y-62557142D01*
X135500000Y-62461904D01*
X135547619Y-62414285D01*
X135642857Y-62366666D01*
X135785714Y-62366666D01*
X135880952Y-62414285D01*
X135928571Y-62461904D01*
X135976190Y-62557142D01*
X135976190Y-62938095D01*
X135452380Y-61509523D02*
X135452380Y-61700000D01*
X135500000Y-61795238D01*
X135547619Y-61842857D01*
X135690476Y-61938095D01*
X135880952Y-61985714D01*
X136261904Y-61985714D01*
X136357142Y-61938095D01*
X136404761Y-61890476D01*
X136452380Y-61795238D01*
X136452380Y-61604761D01*
X136404761Y-61509523D01*
X136357142Y-61461904D01*
X136261904Y-61414285D01*
X136023809Y-61414285D01*
X135928571Y-61461904D01*
X135880952Y-61509523D01*
X135833333Y-61604761D01*
X135833333Y-61795238D01*
X135880952Y-61890476D01*
X135928571Y-61938095D01*
X136023809Y-61985714D01*
%TO.C,R4*%
X136452380Y-82166666D02*
X135976190Y-82500000D01*
X136452380Y-82738095D02*
X135452380Y-82738095D01*
X135452380Y-82357142D01*
X135500000Y-82261904D01*
X135547619Y-82214285D01*
X135642857Y-82166666D01*
X135785714Y-82166666D01*
X135880952Y-82214285D01*
X135928571Y-82261904D01*
X135976190Y-82357142D01*
X135976190Y-82738095D01*
X135785714Y-81309523D02*
X136452380Y-81309523D01*
X135404761Y-81547619D02*
X136119047Y-81785714D01*
X136119047Y-81166666D01*
%TO.C,R3*%
X143208333Y-78952380D02*
X142875000Y-78476190D01*
X142636904Y-78952380D02*
X142636904Y-77952380D01*
X143017857Y-77952380D01*
X143113095Y-78000000D01*
X143160714Y-78047619D01*
X143208333Y-78142857D01*
X143208333Y-78285714D01*
X143160714Y-78380952D01*
X143113095Y-78428571D01*
X143017857Y-78476190D01*
X142636904Y-78476190D01*
X143541666Y-77952380D02*
X144160714Y-77952380D01*
X143827380Y-78333333D01*
X143970238Y-78333333D01*
X144065476Y-78380952D01*
X144113095Y-78428571D01*
X144160714Y-78523809D01*
X144160714Y-78761904D01*
X144113095Y-78857142D01*
X144065476Y-78904761D01*
X143970238Y-78952380D01*
X143684523Y-78952380D01*
X143589285Y-78904761D01*
X143541666Y-78857142D01*
%TO.C,R2*%
X135442380Y-102066666D02*
X134966190Y-102400000D01*
X135442380Y-102638095D02*
X134442380Y-102638095D01*
X134442380Y-102257142D01*
X134490000Y-102161904D01*
X134537619Y-102114285D01*
X134632857Y-102066666D01*
X134775714Y-102066666D01*
X134870952Y-102114285D01*
X134918571Y-102161904D01*
X134966190Y-102257142D01*
X134966190Y-102638095D01*
X134537619Y-101685714D02*
X134490000Y-101638095D01*
X134442380Y-101542857D01*
X134442380Y-101304761D01*
X134490000Y-101209523D01*
X134537619Y-101161904D01*
X134632857Y-101114285D01*
X134728095Y-101114285D01*
X134870952Y-101161904D01*
X135442380Y-101733333D01*
X135442380Y-101114285D01*
%TO.C,P1*%
X107261904Y-138617380D02*
X107261904Y-137617380D01*
X107642857Y-137617380D01*
X107738095Y-137665000D01*
X107785714Y-137712619D01*
X107833333Y-137807857D01*
X107833333Y-137950714D01*
X107785714Y-138045952D01*
X107738095Y-138093571D01*
X107642857Y-138141190D01*
X107261904Y-138141190D01*
X108785714Y-138617380D02*
X108214285Y-138617380D01*
X108500000Y-138617380D02*
X108500000Y-137617380D01*
X108404761Y-137760238D01*
X108309523Y-137855476D01*
X108214285Y-137903095D01*
%TO.C,R5*%
X144283333Y-59452380D02*
X143950000Y-58976190D01*
X143711904Y-59452380D02*
X143711904Y-58452380D01*
X144092857Y-58452380D01*
X144188095Y-58500000D01*
X144235714Y-58547619D01*
X144283333Y-58642857D01*
X144283333Y-58785714D01*
X144235714Y-58880952D01*
X144188095Y-58928571D01*
X144092857Y-58976190D01*
X143711904Y-58976190D01*
X145188095Y-58452380D02*
X144711904Y-58452380D01*
X144664285Y-58928571D01*
X144711904Y-58880952D01*
X144807142Y-58833333D01*
X145045238Y-58833333D01*
X145140476Y-58880952D01*
X145188095Y-58928571D01*
X145235714Y-59023809D01*
X145235714Y-59261904D01*
X145188095Y-59357142D01*
X145140476Y-59404761D01*
X145045238Y-59452380D01*
X144807142Y-59452380D01*
X144711904Y-59404761D01*
X144664285Y-59357142D01*
D13*
%TO.C,R1*%
X139762742Y-99022500D02*
X140237258Y-99022500D01*
X139762742Y-97977500D02*
X140237258Y-97977500D01*
%TO.C,Logo1*%
G36*
X107661684Y-125392017D02*
G01*
X107664200Y-125407583D01*
X107683624Y-125449793D01*
X107695950Y-125458383D01*
X107714629Y-125475064D01*
X107695950Y-125488016D01*
X107671874Y-125520880D01*
X107663276Y-125575901D01*
X107669303Y-125632661D01*
X107689106Y-125670743D01*
X107703799Y-125676400D01*
X107730089Y-125688713D01*
X107727700Y-125701800D01*
X107702133Y-125723386D01*
X107657844Y-125715295D01*
X107645150Y-125710378D01*
X107624039Y-125678856D01*
X107613630Y-125618196D01*
X107613400Y-125607233D01*
X107599170Y-125525746D01*
X107568950Y-125483157D01*
X107538398Y-125457229D01*
X107549068Y-125449372D01*
X107568950Y-125448607D01*
X107606565Y-125430061D01*
X107613400Y-125409700D01*
X107627115Y-125375898D01*
X107638800Y-125371600D01*
X107661684Y-125392017D01*
G37*
D14*
X107661684Y-125392017D02*
X107664200Y-125407583D01*
X107683624Y-125449793D01*
X107695950Y-125458383D01*
X107714629Y-125475064D01*
X107695950Y-125488016D01*
X107671874Y-125520880D01*
X107663276Y-125575901D01*
X107669303Y-125632661D01*
X107689106Y-125670743D01*
X107703799Y-125676400D01*
X107730089Y-125688713D01*
X107727700Y-125701800D01*
X107702133Y-125723386D01*
X107657844Y-125715295D01*
X107645150Y-125710378D01*
X107624039Y-125678856D01*
X107613630Y-125618196D01*
X107613400Y-125607233D01*
X107599170Y-125525746D01*
X107568950Y-125483157D01*
X107538398Y-125457229D01*
X107549068Y-125449372D01*
X107568950Y-125448607D01*
X107606565Y-125430061D01*
X107613400Y-125409700D01*
X107627115Y-125375898D01*
X107638800Y-125371600D01*
X107661684Y-125392017D01*
G36*
X106959350Y-125352457D02*
G01*
X106979434Y-125384281D01*
X106993396Y-125460862D01*
X106998610Y-125532374D01*
X107000691Y-125624886D01*
X106995377Y-125677032D01*
X106980768Y-125698946D01*
X106966860Y-125701800D01*
X106945765Y-125692290D01*
X106933629Y-125657342D01*
X106928350Y-125587326D01*
X106927600Y-125521883D01*
X106930197Y-125423024D01*
X106938782Y-125368385D01*
X106954545Y-125351614D01*
X106959350Y-125352457D01*
G37*
X106959350Y-125352457D02*
X106979434Y-125384281D01*
X106993396Y-125460862D01*
X106998610Y-125532374D01*
X107000691Y-125624886D01*
X106995377Y-125677032D01*
X106980768Y-125698946D01*
X106966860Y-125701800D01*
X106945765Y-125692290D01*
X106933629Y-125657342D01*
X106928350Y-125587326D01*
X106927600Y-125521883D01*
X106930197Y-125423024D01*
X106938782Y-125368385D01*
X106954545Y-125351614D01*
X106959350Y-125352457D01*
G36*
X108499534Y-125392172D02*
G01*
X108502400Y-125409700D01*
X108522731Y-125443374D01*
X108540500Y-125447800D01*
X108574301Y-125461515D01*
X108578600Y-125473200D01*
X108558027Y-125495734D01*
X108540500Y-125498600D01*
X108512236Y-125518944D01*
X108502077Y-125566717D01*
X108509647Y-125622027D01*
X108534572Y-125664981D01*
X108543761Y-125671622D01*
X108567824Y-125696470D01*
X108562269Y-125708894D01*
X108523699Y-125709682D01*
X108495507Y-125698447D01*
X108460487Y-125651021D01*
X108451600Y-125588354D01*
X108443038Y-125526090D01*
X108422190Y-125489340D01*
X108419850Y-125488016D01*
X108401170Y-125471335D01*
X108419850Y-125458383D01*
X108449095Y-125422720D01*
X108451600Y-125407583D01*
X108466012Y-125375163D01*
X108477000Y-125371600D01*
X108499534Y-125392172D01*
G37*
X108499534Y-125392172D02*
X108502400Y-125409700D01*
X108522731Y-125443374D01*
X108540500Y-125447800D01*
X108574301Y-125461515D01*
X108578600Y-125473200D01*
X108558027Y-125495734D01*
X108540500Y-125498600D01*
X108512236Y-125518944D01*
X108502077Y-125566717D01*
X108509647Y-125622027D01*
X108534572Y-125664981D01*
X108543761Y-125671622D01*
X108567824Y-125696470D01*
X108562269Y-125708894D01*
X108523699Y-125709682D01*
X108495507Y-125698447D01*
X108460487Y-125651021D01*
X108451600Y-125588354D01*
X108443038Y-125526090D01*
X108422190Y-125489340D01*
X108419850Y-125488016D01*
X108401170Y-125471335D01*
X108419850Y-125458383D01*
X108449095Y-125422720D01*
X108451600Y-125407583D01*
X108466012Y-125375163D01*
X108477000Y-125371600D01*
X108499534Y-125392172D01*
G36*
X105076061Y-125458696D02*
G01*
X105098792Y-125474565D01*
X105098800Y-125474898D01*
X105078363Y-125496280D01*
X105062932Y-125498600D01*
X105034058Y-125522389D01*
X105012264Y-125587402D01*
X105009900Y-125600200D01*
X104991326Y-125673885D01*
X104971798Y-125698481D01*
X104955569Y-125675432D01*
X104946895Y-125606179D01*
X104946400Y-125578665D01*
X104948280Y-125504872D01*
X104959410Y-125468328D01*
X104988026Y-125455489D01*
X105022600Y-125453364D01*
X105076061Y-125458696D01*
G37*
X105076061Y-125458696D02*
X105098792Y-125474565D01*
X105098800Y-125474898D01*
X105078363Y-125496280D01*
X105062932Y-125498600D01*
X105034058Y-125522389D01*
X105012264Y-125587402D01*
X105009900Y-125600200D01*
X104991326Y-125673885D01*
X104971798Y-125698481D01*
X104955569Y-125675432D01*
X104946895Y-125606179D01*
X104946400Y-125578665D01*
X104948280Y-125504872D01*
X104959410Y-125468328D01*
X104988026Y-125455489D01*
X105022600Y-125453364D01*
X105076061Y-125458696D01*
G36*
X110936196Y-125508125D02*
G01*
X110987944Y-125465604D01*
X111054680Y-125447928D01*
X111120438Y-125458829D01*
X111169255Y-125502039D01*
X111174021Y-125511300D01*
X111187995Y-125589944D01*
X111163429Y-125657695D01*
X111110017Y-125702443D01*
X111037453Y-125712077D01*
X111017000Y-125707444D01*
X110958093Y-125667551D01*
X110920371Y-125602969D01*
X110915643Y-125573284D01*
X110991600Y-125573284D01*
X111005191Y-125643407D01*
X111038720Y-125677419D01*
X111081321Y-125670666D01*
X111117706Y-125627269D01*
X111140237Y-125578241D01*
X111134537Y-125546859D01*
X111105164Y-125514193D01*
X111054378Y-125487200D01*
X111012672Y-125504636D01*
X110992121Y-125560218D01*
X110991600Y-125573284D01*
X110915643Y-125573284D01*
X110915400Y-125571759D01*
X110936196Y-125508125D01*
G37*
X110936196Y-125508125D02*
X110987944Y-125465604D01*
X111054680Y-125447928D01*
X111120438Y-125458829D01*
X111169255Y-125502039D01*
X111174021Y-125511300D01*
X111187995Y-125589944D01*
X111163429Y-125657695D01*
X111110017Y-125702443D01*
X111037453Y-125712077D01*
X111017000Y-125707444D01*
X110958093Y-125667551D01*
X110920371Y-125602969D01*
X110915643Y-125573284D01*
X110991600Y-125573284D01*
X111005191Y-125643407D01*
X111038720Y-125677419D01*
X111081321Y-125670666D01*
X111117706Y-125627269D01*
X111140237Y-125578241D01*
X111134537Y-125546859D01*
X111105164Y-125514193D01*
X111054378Y-125487200D01*
X111012672Y-125504636D01*
X110992121Y-125560218D01*
X110991600Y-125573284D01*
X110915643Y-125573284D01*
X110915400Y-125571759D01*
X110936196Y-125508125D01*
G36*
X112047489Y-125470644D02*
G01*
X112056685Y-125529052D01*
X112058400Y-125574800D01*
X112053831Y-125647246D01*
X112042149Y-125693229D01*
X112033000Y-125701800D01*
X112018510Y-125678955D01*
X112009314Y-125620547D01*
X112007600Y-125574800D01*
X112012168Y-125502353D01*
X112023850Y-125456370D01*
X112033000Y-125447800D01*
X112047489Y-125470644D01*
G37*
X112047489Y-125470644D02*
X112056685Y-125529052D01*
X112058400Y-125574800D01*
X112053831Y-125647246D01*
X112042149Y-125693229D01*
X112033000Y-125701800D01*
X112018510Y-125678955D01*
X112009314Y-125620547D01*
X112007600Y-125574800D01*
X112012168Y-125502353D01*
X112023850Y-125456370D01*
X112033000Y-125447800D01*
X112047489Y-125470644D01*
G36*
X109734604Y-125350375D02*
G01*
X109785346Y-125361146D01*
X109797800Y-125371600D01*
X109776526Y-125392237D01*
X109747000Y-125397000D01*
X109718627Y-125402560D01*
X109703295Y-125426987D01*
X109697133Y-125481899D01*
X109696200Y-125549400D01*
X109692344Y-125630576D01*
X109682270Y-125685612D01*
X109670800Y-125701800D01*
X109657270Y-125678664D01*
X109648097Y-125618225D01*
X109645400Y-125549400D01*
X109644055Y-125464937D01*
X109636708Y-125419336D01*
X109618388Y-125400668D01*
X109584125Y-125397003D01*
X109581900Y-125397000D01*
X109534165Y-125388305D01*
X109518400Y-125371600D01*
X109541365Y-125357690D01*
X109600607Y-125348464D01*
X109658100Y-125346200D01*
X109734604Y-125350375D01*
G37*
X109734604Y-125350375D02*
X109785346Y-125361146D01*
X109797800Y-125371600D01*
X109776526Y-125392237D01*
X109747000Y-125397000D01*
X109718627Y-125402560D01*
X109703295Y-125426987D01*
X109697133Y-125481899D01*
X109696200Y-125549400D01*
X109692344Y-125630576D01*
X109682270Y-125685612D01*
X109670800Y-125701800D01*
X109657270Y-125678664D01*
X109648097Y-125618225D01*
X109645400Y-125549400D01*
X109644055Y-125464937D01*
X109636708Y-125419336D01*
X109618388Y-125400668D01*
X109584125Y-125397003D01*
X109581900Y-125397000D01*
X109534165Y-125388305D01*
X109518400Y-125371600D01*
X109541365Y-125357690D01*
X109600607Y-125348464D01*
X109658100Y-125346200D01*
X109734604Y-125350375D01*
G36*
X108743140Y-122884769D02*
G01*
X108591709Y-123073255D01*
X108469655Y-123226365D01*
X108374175Y-123348032D01*
X108302465Y-123442186D01*
X108251723Y-123512759D01*
X108219144Y-123563683D01*
X108201926Y-123598890D01*
X108197265Y-123622310D01*
X108202357Y-123637875D01*
X108204322Y-123640419D01*
X108229953Y-123671431D01*
X108282413Y-123735514D01*
X108357011Y-123826898D01*
X108449054Y-123939815D01*
X108553853Y-124068497D01*
X108666716Y-124207175D01*
X108782952Y-124350081D01*
X108897870Y-124491447D01*
X109006778Y-124625504D01*
X109104986Y-124746484D01*
X109187803Y-124848618D01*
X109250537Y-124926138D01*
X109288497Y-124973275D01*
X109297184Y-124984250D01*
X109296366Y-124996177D01*
X109269375Y-125004872D01*
X109210749Y-125010762D01*
X109115021Y-125014271D01*
X108976728Y-125015823D01*
X108889219Y-125016000D01*
X108457018Y-125016000D01*
X107410200Y-123895638D01*
X107411570Y-123585869D01*
X107412941Y-123276100D01*
X107913220Y-122724474D01*
X108413500Y-122172848D01*
X109317666Y-122171200D01*
X108743140Y-122884769D01*
G37*
X108743140Y-122884769D02*
X108591709Y-123073255D01*
X108469655Y-123226365D01*
X108374175Y-123348032D01*
X108302465Y-123442186D01*
X108251723Y-123512759D01*
X108219144Y-123563683D01*
X108201926Y-123598890D01*
X108197265Y-123622310D01*
X108202357Y-123637875D01*
X108204322Y-123640419D01*
X108229953Y-123671431D01*
X108282413Y-123735514D01*
X108357011Y-123826898D01*
X108449054Y-123939815D01*
X108553853Y-124068497D01*
X108666716Y-124207175D01*
X108782952Y-124350081D01*
X108897870Y-124491447D01*
X109006778Y-124625504D01*
X109104986Y-124746484D01*
X109187803Y-124848618D01*
X109250537Y-124926138D01*
X109288497Y-124973275D01*
X109297184Y-124984250D01*
X109296366Y-124996177D01*
X109269375Y-125004872D01*
X109210749Y-125010762D01*
X109115021Y-125014271D01*
X108976728Y-125015823D01*
X108889219Y-125016000D01*
X108457018Y-125016000D01*
X107410200Y-123895638D01*
X107411570Y-123585869D01*
X107412941Y-123276100D01*
X107913220Y-122724474D01*
X108413500Y-122172848D01*
X109317666Y-122171200D01*
X108743140Y-122884769D01*
G36*
X110243184Y-125455038D02*
G01*
X110255000Y-125470377D01*
X110234459Y-125488163D01*
X110214065Y-125489427D01*
X110167963Y-125505749D01*
X110144345Y-125530350D01*
X110131619Y-125588395D01*
X110161615Y-125641052D01*
X110226771Y-125675676D01*
X110232003Y-125676991D01*
X110272263Y-125689323D01*
X110266082Y-125701085D01*
X110246572Y-125709319D01*
X110208547Y-125723356D01*
X110184351Y-125721354D01*
X110149059Y-125698531D01*
X110133651Y-125687659D01*
X110090689Y-125631888D01*
X110077128Y-125559351D01*
X110095821Y-125493052D01*
X110107680Y-125478279D01*
X110148774Y-125456459D01*
X110201129Y-125448327D01*
X110243184Y-125455038D01*
G37*
X110243184Y-125455038D02*
X110255000Y-125470377D01*
X110234459Y-125488163D01*
X110214065Y-125489427D01*
X110167963Y-125505749D01*
X110144345Y-125530350D01*
X110131619Y-125588395D01*
X110161615Y-125641052D01*
X110226771Y-125675676D01*
X110232003Y-125676991D01*
X110272263Y-125689323D01*
X110266082Y-125701085D01*
X110246572Y-125709319D01*
X110208547Y-125723356D01*
X110184351Y-125721354D01*
X110149059Y-125698531D01*
X110133651Y-125687659D01*
X110090689Y-125631888D01*
X110077128Y-125559351D01*
X110095821Y-125493052D01*
X110107680Y-125478279D01*
X110148774Y-125456459D01*
X110201129Y-125448327D01*
X110243184Y-125455038D01*
G36*
X107495621Y-125456128D02*
G01*
X107511800Y-125472402D01*
X107493389Y-125486876D01*
X107476269Y-125483371D01*
X107436349Y-125480196D01*
X107427313Y-125503797D01*
X107449586Y-125540290D01*
X107473918Y-125559907D01*
X107525462Y-125602976D01*
X107531357Y-125642255D01*
X107497285Y-125687285D01*
X107455678Y-125720083D01*
X107414594Y-125718991D01*
X107391150Y-125710378D01*
X107360319Y-125686032D01*
X107371865Y-125667696D01*
X107410200Y-125669040D01*
X107451650Y-125668089D01*
X107457958Y-125641047D01*
X107429587Y-125598055D01*
X107405964Y-125576477D01*
X107367667Y-125524510D01*
X107373799Y-125477992D01*
X107419986Y-125450464D01*
X107447502Y-125447800D01*
X107495621Y-125456128D01*
G37*
X107495621Y-125456128D02*
X107511800Y-125472402D01*
X107493389Y-125486876D01*
X107476269Y-125483371D01*
X107436349Y-125480196D01*
X107427313Y-125503797D01*
X107449586Y-125540290D01*
X107473918Y-125559907D01*
X107525462Y-125602976D01*
X107531357Y-125642255D01*
X107497285Y-125687285D01*
X107455678Y-125720083D01*
X107414594Y-125718991D01*
X107391150Y-125710378D01*
X107360319Y-125686032D01*
X107371865Y-125667696D01*
X107410200Y-125669040D01*
X107451650Y-125668089D01*
X107457958Y-125641047D01*
X107429587Y-125598055D01*
X107405964Y-125576477D01*
X107367667Y-125524510D01*
X107373799Y-125477992D01*
X107419986Y-125450464D01*
X107447502Y-125447800D01*
X107495621Y-125456128D01*
G36*
X108902199Y-125332720D02*
G01*
X108901601Y-125359150D01*
X108864350Y-125383396D01*
X108833706Y-125399336D01*
X108845066Y-125418634D01*
X108864350Y-125433364D01*
X108903880Y-125472046D01*
X108898009Y-125494392D01*
X108870700Y-125498600D01*
X108844207Y-125515376D01*
X108833291Y-125570990D01*
X108832600Y-125600200D01*
X108826966Y-125663822D01*
X108812893Y-125699209D01*
X108807200Y-125701800D01*
X108791156Y-125679297D01*
X108782367Y-125623218D01*
X108781800Y-125602316D01*
X108774330Y-125534510D01*
X108755536Y-125493594D01*
X108750050Y-125489950D01*
X108732620Y-125471218D01*
X108746626Y-125456083D01*
X108776389Y-125416454D01*
X108792788Y-125377950D01*
X108826524Y-125331455D01*
X108859711Y-125320800D01*
X108902199Y-125332720D01*
G37*
X108902199Y-125332720D02*
X108901601Y-125359150D01*
X108864350Y-125383396D01*
X108833706Y-125399336D01*
X108845066Y-125418634D01*
X108864350Y-125433364D01*
X108903880Y-125472046D01*
X108898009Y-125494392D01*
X108870700Y-125498600D01*
X108844207Y-125515376D01*
X108833291Y-125570990D01*
X108832600Y-125600200D01*
X108826966Y-125663822D01*
X108812893Y-125699209D01*
X108807200Y-125701800D01*
X108791156Y-125679297D01*
X108782367Y-125623218D01*
X108781800Y-125602316D01*
X108774330Y-125534510D01*
X108755536Y-125493594D01*
X108750050Y-125489950D01*
X108732620Y-125471218D01*
X108746626Y-125456083D01*
X108776389Y-125416454D01*
X108792788Y-125377950D01*
X108826524Y-125331455D01*
X108859711Y-125320800D01*
X108902199Y-125332720D01*
G36*
X111391264Y-125512414D02*
G01*
X111396733Y-125500965D01*
X111445184Y-125457002D01*
X111513347Y-125443958D01*
X111581318Y-125460956D01*
X111629192Y-125507119D01*
X111631221Y-125511300D01*
X111646338Y-125592700D01*
X111620695Y-125659604D01*
X111564180Y-125701478D01*
X111486677Y-125707786D01*
X111454962Y-125699108D01*
X111403354Y-125656025D01*
X111381497Y-125591101D01*
X111437179Y-125591101D01*
X111450604Y-125628972D01*
X111490271Y-125668541D01*
X111532822Y-125664588D01*
X111564437Y-125621563D01*
X111571483Y-125590038D01*
X111564225Y-125523077D01*
X111529666Y-125487941D01*
X111484817Y-125490213D01*
X111443686Y-125529445D01*
X111437179Y-125591101D01*
X111381497Y-125591101D01*
X111380187Y-125587211D01*
X111391264Y-125512414D01*
G37*
X111391264Y-125512414D02*
X111396733Y-125500965D01*
X111445184Y-125457002D01*
X111513347Y-125443958D01*
X111581318Y-125460956D01*
X111629192Y-125507119D01*
X111631221Y-125511300D01*
X111646338Y-125592700D01*
X111620695Y-125659604D01*
X111564180Y-125701478D01*
X111486677Y-125707786D01*
X111454962Y-125699108D01*
X111403354Y-125656025D01*
X111381497Y-125591101D01*
X111437179Y-125591101D01*
X111450604Y-125628972D01*
X111490271Y-125668541D01*
X111532822Y-125664588D01*
X111564437Y-125621563D01*
X111571483Y-125590038D01*
X111564225Y-125523077D01*
X111529666Y-125487941D01*
X111484817Y-125490213D01*
X111443686Y-125529445D01*
X111437179Y-125591101D01*
X111381497Y-125591101D01*
X111380187Y-125587211D01*
X111391264Y-125512414D01*
G36*
X111303796Y-125330779D02*
G01*
X111315593Y-125366840D01*
X111320927Y-125438171D01*
X111321800Y-125511300D01*
X111319804Y-125611783D01*
X111312591Y-125670766D01*
X111298325Y-125697435D01*
X111283700Y-125701800D01*
X111263603Y-125691820D01*
X111251806Y-125655759D01*
X111246472Y-125584428D01*
X111245600Y-125511300D01*
X111247595Y-125410816D01*
X111254808Y-125351833D01*
X111269074Y-125325164D01*
X111283700Y-125320800D01*
X111303796Y-125330779D01*
G37*
X111303796Y-125330779D02*
X111315593Y-125366840D01*
X111320927Y-125438171D01*
X111321800Y-125511300D01*
X111319804Y-125611783D01*
X111312591Y-125670766D01*
X111298325Y-125697435D01*
X111283700Y-125701800D01*
X111263603Y-125691820D01*
X111251806Y-125655759D01*
X111246472Y-125584428D01*
X111245600Y-125511300D01*
X111247595Y-125410816D01*
X111254808Y-125351833D01*
X111269074Y-125325164D01*
X111283700Y-125320800D01*
X111303796Y-125330779D01*
G36*
X109398347Y-125456428D02*
G01*
X109415277Y-125476425D01*
X109387532Y-125498961D01*
X109366000Y-125505959D01*
X109329894Y-125529032D01*
X109316064Y-125581865D01*
X109315200Y-125610522D01*
X109308974Y-125670220D01*
X109293618Y-125700763D01*
X109289800Y-125701800D01*
X109275310Y-125678955D01*
X109266114Y-125620547D01*
X109264400Y-125574800D01*
X109266064Y-125499619D01*
X109276300Y-125462129D01*
X109302970Y-125449226D01*
X109340600Y-125447800D01*
X109398347Y-125456428D01*
G37*
X109398347Y-125456428D02*
X109415277Y-125476425D01*
X109387532Y-125498961D01*
X109366000Y-125505959D01*
X109329894Y-125529032D01*
X109316064Y-125581865D01*
X109315200Y-125610522D01*
X109308974Y-125670220D01*
X109293618Y-125700763D01*
X109289800Y-125701800D01*
X109275310Y-125678955D01*
X109266114Y-125620547D01*
X109264400Y-125574800D01*
X109266064Y-125499619D01*
X109276300Y-125462129D01*
X109302970Y-125449226D01*
X109340600Y-125447800D01*
X109398347Y-125456428D01*
G36*
X109162061Y-125365528D02*
G01*
X109162800Y-125371600D01*
X109143471Y-125396261D01*
X109137400Y-125397000D01*
X109112738Y-125377671D01*
X109112000Y-125371600D01*
X109131328Y-125346938D01*
X109137400Y-125346200D01*
X109162061Y-125365528D01*
G37*
X109162061Y-125365528D02*
X109162800Y-125371600D01*
X109143471Y-125396261D01*
X109137400Y-125397000D01*
X109112738Y-125377671D01*
X109112000Y-125371600D01*
X109131328Y-125346938D01*
X109137400Y-125346200D01*
X109162061Y-125365528D01*
G36*
X105411720Y-125455749D02*
G01*
X105429000Y-125474230D01*
X105410660Y-125492834D01*
X105391713Y-125489726D01*
X105350877Y-125487222D01*
X105341253Y-125510563D01*
X105366949Y-125542632D01*
X105377488Y-125549019D01*
X105421960Y-125593501D01*
X105428222Y-125646154D01*
X105403010Y-125691472D01*
X105353055Y-125713944D01*
X105308350Y-125708249D01*
X105278089Y-125684591D01*
X105290888Y-125663220D01*
X105318316Y-125660172D01*
X105360976Y-125649344D01*
X105367803Y-125619739D01*
X105336385Y-125590837D01*
X105327317Y-125587473D01*
X105284661Y-125555750D01*
X105279745Y-125511511D01*
X105308664Y-125471328D01*
X105359150Y-125452462D01*
X105411720Y-125455749D01*
G37*
X105411720Y-125455749D02*
X105429000Y-125474230D01*
X105410660Y-125492834D01*
X105391713Y-125489726D01*
X105350877Y-125487222D01*
X105341253Y-125510563D01*
X105366949Y-125542632D01*
X105377488Y-125549019D01*
X105421960Y-125593501D01*
X105428222Y-125646154D01*
X105403010Y-125691472D01*
X105353055Y-125713944D01*
X105308350Y-125708249D01*
X105278089Y-125684591D01*
X105290888Y-125663220D01*
X105318316Y-125660172D01*
X105360976Y-125649344D01*
X105367803Y-125619739D01*
X105336385Y-125590837D01*
X105327317Y-125587473D01*
X105284661Y-125555750D01*
X105279745Y-125511511D01*
X105308664Y-125471328D01*
X105359150Y-125452462D01*
X105411720Y-125455749D01*
G36*
X110374542Y-125342880D02*
G01*
X110382000Y-125384300D01*
X110392904Y-125433056D01*
X110433901Y-125447692D01*
X110440420Y-125447800D01*
X110500130Y-125460347D01*
X110529320Y-125478279D01*
X110548138Y-125518295D01*
X110557883Y-125579348D01*
X110558127Y-125642586D01*
X110548441Y-125689154D01*
X110534400Y-125701800D01*
X110515486Y-125680013D01*
X110509000Y-125636630D01*
X110497794Y-125559595D01*
X110469137Y-125505665D01*
X110430470Y-125487094D01*
X110419712Y-125489563D01*
X110391324Y-125526898D01*
X110382000Y-125602917D01*
X110375355Y-125672535D01*
X110353478Y-125700433D01*
X110343900Y-125701800D01*
X110323803Y-125691820D01*
X110312006Y-125655759D01*
X110306672Y-125584428D01*
X110305800Y-125511300D01*
X110307795Y-125410816D01*
X110315008Y-125351833D01*
X110329274Y-125325164D01*
X110343900Y-125320800D01*
X110374542Y-125342880D01*
G37*
X110374542Y-125342880D02*
X110382000Y-125384300D01*
X110392904Y-125433056D01*
X110433901Y-125447692D01*
X110440420Y-125447800D01*
X110500130Y-125460347D01*
X110529320Y-125478279D01*
X110548138Y-125518295D01*
X110557883Y-125579348D01*
X110558127Y-125642586D01*
X110548441Y-125689154D01*
X110534400Y-125701800D01*
X110515486Y-125680013D01*
X110509000Y-125636630D01*
X110497794Y-125559595D01*
X110469137Y-125505665D01*
X110430470Y-125487094D01*
X110419712Y-125489563D01*
X110391324Y-125526898D01*
X110382000Y-125602917D01*
X110375355Y-125672535D01*
X110353478Y-125700433D01*
X110343900Y-125701800D01*
X110323803Y-125691820D01*
X110312006Y-125655759D01*
X110306672Y-125584428D01*
X110305800Y-125511300D01*
X110307795Y-125410816D01*
X110315008Y-125351833D01*
X110329274Y-125325164D01*
X110343900Y-125320800D01*
X110374542Y-125342880D01*
G36*
X104379601Y-125368380D02*
G01*
X104387550Y-125422285D01*
X104387600Y-125427382D01*
X104387600Y-125508565D01*
X104471359Y-125427382D01*
X104534574Y-125373525D01*
X104578299Y-125348958D01*
X104596394Y-125352991D01*
X104582719Y-125384934D01*
X104539999Y-125435100D01*
X104453834Y-125524000D01*
X104540000Y-125612900D01*
X104586429Y-125668644D01*
X104595729Y-125697081D01*
X104574039Y-125697521D01*
X104527499Y-125669273D01*
X104471359Y-125620617D01*
X104387600Y-125539434D01*
X104387600Y-125620617D01*
X104380660Y-125676236D01*
X104363794Y-125701640D01*
X104362200Y-125701800D01*
X104349170Y-125678307D01*
X104340167Y-125615341D01*
X104336800Y-125524172D01*
X104336800Y-125524000D01*
X104340156Y-125432792D01*
X104349151Y-125369769D01*
X104362175Y-125346200D01*
X104362200Y-125346200D01*
X104379601Y-125368380D01*
G37*
X104379601Y-125368380D02*
X104387550Y-125422285D01*
X104387600Y-125427382D01*
X104387600Y-125508565D01*
X104471359Y-125427382D01*
X104534574Y-125373525D01*
X104578299Y-125348958D01*
X104596394Y-125352991D01*
X104582719Y-125384934D01*
X104539999Y-125435100D01*
X104453834Y-125524000D01*
X104540000Y-125612900D01*
X104586429Y-125668644D01*
X104595729Y-125697081D01*
X104574039Y-125697521D01*
X104527499Y-125669273D01*
X104471359Y-125620617D01*
X104387600Y-125539434D01*
X104387600Y-125620617D01*
X104380660Y-125676236D01*
X104363794Y-125701640D01*
X104362200Y-125701800D01*
X104349170Y-125678307D01*
X104340167Y-125615341D01*
X104336800Y-125524172D01*
X104336800Y-125524000D01*
X104340156Y-125432792D01*
X104349151Y-125369769D01*
X104362175Y-125346200D01*
X104362200Y-125346200D01*
X104379601Y-125368380D01*
G36*
X109056901Y-125359915D02*
G01*
X109061200Y-125371600D01*
X109040627Y-125394134D01*
X109023100Y-125397000D01*
X108989298Y-125383284D01*
X108985000Y-125371600D01*
X109005572Y-125349065D01*
X109023100Y-125346200D01*
X109056901Y-125359915D01*
G37*
X109056901Y-125359915D02*
X109061200Y-125371600D01*
X109040627Y-125394134D01*
X109023100Y-125397000D01*
X108989298Y-125383284D01*
X108985000Y-125371600D01*
X109005572Y-125349065D01*
X109023100Y-125346200D01*
X109056901Y-125359915D01*
G36*
X105181350Y-125327065D02*
G01*
X105201247Y-125359203D01*
X105214990Y-125438076D01*
X105220562Y-125519681D01*
X105222716Y-125616258D01*
X105218176Y-125672155D01*
X105205221Y-125697250D01*
X105188812Y-125701800D01*
X105168339Y-125692693D01*
X105156271Y-125659090D01*
X105150687Y-125591564D01*
X105149600Y-125509183D01*
X105151960Y-125406216D01*
X105159787Y-125347465D01*
X105174195Y-125326530D01*
X105181350Y-125327065D01*
G37*
X105181350Y-125327065D02*
X105201247Y-125359203D01*
X105214990Y-125438076D01*
X105220562Y-125519681D01*
X105222716Y-125616258D01*
X105218176Y-125672155D01*
X105205221Y-125697250D01*
X105188812Y-125701800D01*
X105168339Y-125692693D01*
X105156271Y-125659090D01*
X105150687Y-125591564D01*
X105149600Y-125509183D01*
X105151960Y-125406216D01*
X105159787Y-125347465D01*
X105174195Y-125326530D01*
X105181350Y-125327065D01*
G36*
X105627993Y-125453816D02*
G01*
X105646375Y-125469732D01*
X105644900Y-125473200D01*
X105608149Y-125496571D01*
X105592600Y-125498600D01*
X105566731Y-125517425D01*
X105556405Y-125577903D01*
X105556000Y-125600200D01*
X105549708Y-125670845D01*
X105528853Y-125699956D01*
X105517900Y-125701800D01*
X105493940Y-125688204D01*
X105482238Y-125641131D01*
X105479800Y-125574800D01*
X105479800Y-125447800D01*
X105570199Y-125447800D01*
X105627993Y-125453816D01*
G37*
X105627993Y-125453816D02*
X105646375Y-125469732D01*
X105644900Y-125473200D01*
X105608149Y-125496571D01*
X105592600Y-125498600D01*
X105566731Y-125517425D01*
X105556405Y-125577903D01*
X105556000Y-125600200D01*
X105549708Y-125670845D01*
X105528853Y-125699956D01*
X105517900Y-125701800D01*
X105493940Y-125688204D01*
X105482238Y-125641131D01*
X105479800Y-125574800D01*
X105479800Y-125447800D01*
X105570199Y-125447800D01*
X105627993Y-125453816D01*
G36*
X104366036Y-124874229D02*
G01*
X104375700Y-124784808D01*
X104389469Y-124678220D01*
X104405467Y-124567284D01*
X104421821Y-124464820D01*
X104436656Y-124383647D01*
X104448099Y-124336586D01*
X104450409Y-124331317D01*
X104476735Y-124333398D01*
X104547723Y-124346932D01*
X104658798Y-124370854D01*
X104805388Y-124404105D01*
X104982919Y-124445620D01*
X105186817Y-124494339D01*
X105412511Y-124549199D01*
X105655425Y-124609138D01*
X105774859Y-124638915D01*
X106024223Y-124701097D01*
X106258388Y-124759110D01*
X106472796Y-124811853D01*
X106662891Y-124858222D01*
X106824114Y-124897113D01*
X106951906Y-124927424D01*
X107041711Y-124948052D01*
X107088969Y-124957893D01*
X107095193Y-124958473D01*
X107074500Y-124946489D01*
X107011883Y-124915202D01*
X106911538Y-124866602D01*
X106777663Y-124802681D01*
X106614455Y-124725427D01*
X106426110Y-124636834D01*
X106216826Y-124538889D01*
X105990800Y-124433586D01*
X105879032Y-124381677D01*
X105645915Y-124273470D01*
X105426978Y-124171746D01*
X105226498Y-124078498D01*
X105048749Y-123995721D01*
X104898009Y-123925408D01*
X104778552Y-123869552D01*
X104694655Y-123830147D01*
X104650593Y-123809186D01*
X104644872Y-123806282D01*
X104649421Y-123779926D01*
X104678274Y-123720752D01*
X104726148Y-123637241D01*
X104787762Y-123537872D01*
X104857834Y-123431123D01*
X104931080Y-123325472D01*
X105002219Y-123229400D01*
X105012480Y-123216214D01*
X105032956Y-123230009D01*
X105089225Y-123272983D01*
X105177673Y-123342256D01*
X105294684Y-123434950D01*
X105436645Y-123548185D01*
X105599940Y-123679081D01*
X105780956Y-123824759D01*
X105976078Y-123982341D01*
X106087902Y-124072882D01*
X106288975Y-124235596D01*
X106477707Y-124387863D01*
X106650512Y-124526824D01*
X106803809Y-124649619D01*
X106934013Y-124753388D01*
X107037542Y-124835272D01*
X107110811Y-124892412D01*
X107150238Y-124921947D01*
X107156199Y-124925378D01*
X107140575Y-124903769D01*
X107095681Y-124846575D01*
X107024489Y-124757470D01*
X106929969Y-124640126D01*
X106815091Y-124498219D01*
X106682826Y-124335421D01*
X106536144Y-124155406D01*
X106378015Y-123961848D01*
X106305299Y-123872999D01*
X106142948Y-123674288D01*
X105990749Y-123487133D01*
X105851677Y-123315256D01*
X105728709Y-123162378D01*
X105624824Y-123032217D01*
X105542996Y-122928495D01*
X105486203Y-122854933D01*
X105457422Y-122815251D01*
X105454400Y-122809503D01*
X105475302Y-122778275D01*
X105531069Y-122730466D01*
X105611291Y-122672535D01*
X105705560Y-122610943D01*
X105803465Y-122552148D01*
X105894598Y-122502612D01*
X105968548Y-122468792D01*
X106014907Y-122457150D01*
X106020442Y-122458235D01*
X106036814Y-122482979D01*
X106072470Y-122549505D01*
X106125306Y-122653516D01*
X106193223Y-122790714D01*
X106274119Y-122956802D01*
X106365892Y-123147482D01*
X106466441Y-123358457D01*
X106573665Y-123585429D01*
X106622800Y-123690075D01*
X106731620Y-123921930D01*
X106833881Y-124139143D01*
X106927580Y-124337508D01*
X107010717Y-124512820D01*
X107081288Y-124660872D01*
X107137293Y-124777458D01*
X107176730Y-124858373D01*
X107197596Y-124899411D01*
X107200411Y-124903737D01*
X107195548Y-124878744D01*
X107179329Y-124809044D01*
X107152871Y-124699173D01*
X107117291Y-124553667D01*
X107073707Y-124377063D01*
X107023236Y-124173899D01*
X106966995Y-123948712D01*
X106906102Y-123706036D01*
X106875041Y-123582658D01*
X106812360Y-123332912D01*
X106753973Y-123098258D01*
X106700977Y-122883257D01*
X106654475Y-122692471D01*
X106615566Y-122530460D01*
X106585350Y-122401785D01*
X106564927Y-122311008D01*
X106555398Y-122262689D01*
X106555027Y-122255905D01*
X106586558Y-122245085D01*
X106655854Y-122230689D01*
X106750176Y-122214610D01*
X106856785Y-122198740D01*
X106962940Y-122184970D01*
X107055904Y-122175194D01*
X107122936Y-122171303D01*
X107124663Y-122171296D01*
X107232826Y-122171200D01*
X107219700Y-125003300D01*
X104362200Y-125016422D01*
X104362269Y-124977900D01*
X107130800Y-124977900D01*
X107143500Y-124990600D01*
X107156200Y-124977900D01*
X107143500Y-124965200D01*
X107130800Y-124977900D01*
X104362269Y-124977900D01*
X104362349Y-124933661D01*
X104366036Y-124874229D01*
G37*
X104366036Y-124874229D02*
X104375700Y-124784808D01*
X104389469Y-124678220D01*
X104405467Y-124567284D01*
X104421821Y-124464820D01*
X104436656Y-124383647D01*
X104448099Y-124336586D01*
X104450409Y-124331317D01*
X104476735Y-124333398D01*
X104547723Y-124346932D01*
X104658798Y-124370854D01*
X104805388Y-124404105D01*
X104982919Y-124445620D01*
X105186817Y-124494339D01*
X105412511Y-124549199D01*
X105655425Y-124609138D01*
X105774859Y-124638915D01*
X106024223Y-124701097D01*
X106258388Y-124759110D01*
X106472796Y-124811853D01*
X106662891Y-124858222D01*
X106824114Y-124897113D01*
X106951906Y-124927424D01*
X107041711Y-124948052D01*
X107088969Y-124957893D01*
X107095193Y-124958473D01*
X107074500Y-124946489D01*
X107011883Y-124915202D01*
X106911538Y-124866602D01*
X106777663Y-124802681D01*
X106614455Y-124725427D01*
X106426110Y-124636834D01*
X106216826Y-124538889D01*
X105990800Y-124433586D01*
X105879032Y-124381677D01*
X105645915Y-124273470D01*
X105426978Y-124171746D01*
X105226498Y-124078498D01*
X105048749Y-123995721D01*
X104898009Y-123925408D01*
X104778552Y-123869552D01*
X104694655Y-123830147D01*
X104650593Y-123809186D01*
X104644872Y-123806282D01*
X104649421Y-123779926D01*
X104678274Y-123720752D01*
X104726148Y-123637241D01*
X104787762Y-123537872D01*
X104857834Y-123431123D01*
X104931080Y-123325472D01*
X105002219Y-123229400D01*
X105012480Y-123216214D01*
X105032956Y-123230009D01*
X105089225Y-123272983D01*
X105177673Y-123342256D01*
X105294684Y-123434950D01*
X105436645Y-123548185D01*
X105599940Y-123679081D01*
X105780956Y-123824759D01*
X105976078Y-123982341D01*
X106087902Y-124072882D01*
X106288975Y-124235596D01*
X106477707Y-124387863D01*
X106650512Y-124526824D01*
X106803809Y-124649619D01*
X106934013Y-124753388D01*
X107037542Y-124835272D01*
X107110811Y-124892412D01*
X107150238Y-124921947D01*
X107156199Y-124925378D01*
X107140575Y-124903769D01*
X107095681Y-124846575D01*
X107024489Y-124757470D01*
X106929969Y-124640126D01*
X106815091Y-124498219D01*
X106682826Y-124335421D01*
X106536144Y-124155406D01*
X106378015Y-123961848D01*
X106305299Y-123872999D01*
X106142948Y-123674288D01*
X105990749Y-123487133D01*
X105851677Y-123315256D01*
X105728709Y-123162378D01*
X105624824Y-123032217D01*
X105542996Y-122928495D01*
X105486203Y-122854933D01*
X105457422Y-122815251D01*
X105454400Y-122809503D01*
X105475302Y-122778275D01*
X105531069Y-122730466D01*
X105611291Y-122672535D01*
X105705560Y-122610943D01*
X105803465Y-122552148D01*
X105894598Y-122502612D01*
X105968548Y-122468792D01*
X106014907Y-122457150D01*
X106020442Y-122458235D01*
X106036814Y-122482979D01*
X106072470Y-122549505D01*
X106125306Y-122653516D01*
X106193223Y-122790714D01*
X106274119Y-122956802D01*
X106365892Y-123147482D01*
X106466441Y-123358457D01*
X106573665Y-123585429D01*
X106622800Y-123690075D01*
X106731620Y-123921930D01*
X106833881Y-124139143D01*
X106927580Y-124337508D01*
X107010717Y-124512820D01*
X107081288Y-124660872D01*
X107137293Y-124777458D01*
X107176730Y-124858373D01*
X107197596Y-124899411D01*
X107200411Y-124903737D01*
X107195548Y-124878744D01*
X107179329Y-124809044D01*
X107152871Y-124699173D01*
X107117291Y-124553667D01*
X107073707Y-124377063D01*
X107023236Y-124173899D01*
X106966995Y-123948712D01*
X106906102Y-123706036D01*
X106875041Y-123582658D01*
X106812360Y-123332912D01*
X106753973Y-123098258D01*
X106700977Y-122883257D01*
X106654475Y-122692471D01*
X106615566Y-122530460D01*
X106585350Y-122401785D01*
X106564927Y-122311008D01*
X106555398Y-122262689D01*
X106555027Y-122255905D01*
X106586558Y-122245085D01*
X106655854Y-122230689D01*
X106750176Y-122214610D01*
X106856785Y-122198740D01*
X106962940Y-122184970D01*
X107055904Y-122175194D01*
X107122936Y-122171303D01*
X107124663Y-122171296D01*
X107232826Y-122171200D01*
X107219700Y-125003300D01*
X104362200Y-125016422D01*
X104362269Y-124977900D01*
X107130800Y-124977900D01*
X107143500Y-124990600D01*
X107156200Y-124977900D01*
X107143500Y-124965200D01*
X107130800Y-124977900D01*
X104362269Y-124977900D01*
X104362349Y-124933661D01*
X104366036Y-124874229D01*
G36*
X107839134Y-125341372D02*
G01*
X107842000Y-125358900D01*
X107828284Y-125392701D01*
X107816600Y-125397000D01*
X107794065Y-125376427D01*
X107791200Y-125358900D01*
X107804915Y-125325098D01*
X107816600Y-125320800D01*
X107839134Y-125341372D01*
G37*
X107839134Y-125341372D02*
X107842000Y-125358900D01*
X107828284Y-125392701D01*
X107816600Y-125397000D01*
X107794065Y-125376427D01*
X107791200Y-125358900D01*
X107804915Y-125325098D01*
X107816600Y-125320800D01*
X107839134Y-125341372D01*
G36*
X107258475Y-125458193D02*
G01*
X107293182Y-125487977D01*
X107305568Y-125544977D01*
X107308147Y-125611883D01*
X107301791Y-125669994D01*
X107287374Y-125700611D01*
X107283200Y-125701800D01*
X107266015Y-125679566D01*
X107257896Y-125625304D01*
X107257800Y-125617979D01*
X107249255Y-125550895D01*
X107228629Y-125505012D01*
X107227924Y-125504284D01*
X107188569Y-125488631D01*
X107154715Y-125515027D01*
X107133929Y-125574764D01*
X107130800Y-125616010D01*
X107124206Y-125673522D01*
X107108064Y-125701327D01*
X107105400Y-125701800D01*
X107090910Y-125678955D01*
X107081714Y-125620547D01*
X107080000Y-125574800D01*
X107080000Y-125447800D01*
X107178882Y-125447800D01*
X107258475Y-125458193D01*
G37*
X107258475Y-125458193D02*
X107293182Y-125487977D01*
X107305568Y-125544977D01*
X107308147Y-125611883D01*
X107301791Y-125669994D01*
X107287374Y-125700611D01*
X107283200Y-125701800D01*
X107266015Y-125679566D01*
X107257896Y-125625304D01*
X107257800Y-125617979D01*
X107249255Y-125550895D01*
X107228629Y-125505012D01*
X107227924Y-125504284D01*
X107188569Y-125488631D01*
X107154715Y-125515027D01*
X107133929Y-125574764D01*
X107130800Y-125616010D01*
X107124206Y-125673522D01*
X107108064Y-125701327D01*
X107105400Y-125701800D01*
X107090910Y-125678955D01*
X107081714Y-125620547D01*
X107080000Y-125574800D01*
X107080000Y-125447800D01*
X107178882Y-125447800D01*
X107258475Y-125458193D01*
G36*
X107831089Y-125470644D02*
G01*
X107840285Y-125529052D01*
X107842000Y-125574800D01*
X107837431Y-125647246D01*
X107825749Y-125693229D01*
X107816600Y-125701800D01*
X107802110Y-125678955D01*
X107792914Y-125620547D01*
X107791200Y-125574800D01*
X107795768Y-125502353D01*
X107807450Y-125456370D01*
X107816600Y-125447800D01*
X107831089Y-125470644D01*
G37*
X107831089Y-125470644D02*
X107840285Y-125529052D01*
X107842000Y-125574800D01*
X107837431Y-125647246D01*
X107825749Y-125693229D01*
X107816600Y-125701800D01*
X107802110Y-125678955D01*
X107792914Y-125620547D01*
X107791200Y-125574800D01*
X107795768Y-125502353D01*
X107807450Y-125456370D01*
X107816600Y-125447800D01*
X107831089Y-125470644D01*
G36*
X104681033Y-125579604D02*
G01*
X104732861Y-125552007D01*
X104758910Y-125549400D01*
X104806141Y-125539371D01*
X104812366Y-125517650D01*
X104781507Y-125494678D01*
X104746750Y-125491950D01*
X104703860Y-125486373D01*
X104692400Y-125471291D01*
X104714427Y-125455187D01*
X104768573Y-125452003D01*
X104774950Y-125452540D01*
X104825540Y-125460947D01*
X104850963Y-125483029D01*
X104861698Y-125533361D01*
X104865110Y-125577947D01*
X104867046Y-125650581D01*
X104856549Y-125687552D01*
X104827705Y-125703581D01*
X104813352Y-125706745D01*
X104750653Y-125711008D01*
X104716841Y-125706138D01*
X104668839Y-125672261D01*
X104659532Y-125630431D01*
X104726651Y-125630431D01*
X104739917Y-125662417D01*
X104775728Y-125669773D01*
X104777277Y-125669285D01*
X104807329Y-125638693D01*
X104814912Y-125617145D01*
X104809900Y-125580186D01*
X104773788Y-125582718D01*
X104746295Y-125597749D01*
X104726651Y-125630431D01*
X104659532Y-125630431D01*
X104658298Y-125624886D01*
X104681033Y-125579604D01*
G37*
X104681033Y-125579604D02*
X104732861Y-125552007D01*
X104758910Y-125549400D01*
X104806141Y-125539371D01*
X104812366Y-125517650D01*
X104781507Y-125494678D01*
X104746750Y-125491950D01*
X104703860Y-125486373D01*
X104692400Y-125471291D01*
X104714427Y-125455187D01*
X104768573Y-125452003D01*
X104774950Y-125452540D01*
X104825540Y-125460947D01*
X104850963Y-125483029D01*
X104861698Y-125533361D01*
X104865110Y-125577947D01*
X104867046Y-125650581D01*
X104856549Y-125687552D01*
X104827705Y-125703581D01*
X104813352Y-125706745D01*
X104750653Y-125711008D01*
X104716841Y-125706138D01*
X104668839Y-125672261D01*
X104659532Y-125630431D01*
X104726651Y-125630431D01*
X104739917Y-125662417D01*
X104775728Y-125669773D01*
X104777277Y-125669285D01*
X104807329Y-125638693D01*
X104814912Y-125617145D01*
X104809900Y-125580186D01*
X104773788Y-125582718D01*
X104746295Y-125597749D01*
X104726651Y-125630431D01*
X104659532Y-125630431D01*
X104658298Y-125624886D01*
X104681033Y-125579604D01*
G36*
X106316733Y-125500965D02*
G01*
X106363983Y-125458489D01*
X106429412Y-125447012D01*
X106491524Y-125466727D01*
X106521480Y-125499124D01*
X106537596Y-125556791D01*
X106509928Y-125590020D01*
X106441384Y-125600200D01*
X106385681Y-125608851D01*
X106375807Y-125631950D01*
X106406514Y-125653966D01*
X106454124Y-125658918D01*
X106506858Y-125664364D01*
X106519451Y-125684404D01*
X106486983Y-125709369D01*
X106481022Y-125711782D01*
X106444215Y-125724292D01*
X106436572Y-125725589D01*
X106412806Y-125716111D01*
X106375909Y-125701289D01*
X106323080Y-125655723D01*
X106300007Y-125585168D01*
X106310141Y-125524000D01*
X106368800Y-125524000D01*
X106390073Y-125544637D01*
X106419600Y-125549400D01*
X106460874Y-125538763D01*
X106470400Y-125524000D01*
X106449126Y-125503362D01*
X106419600Y-125498600D01*
X106378325Y-125509236D01*
X106368800Y-125524000D01*
X106310141Y-125524000D01*
X106312550Y-125509465D01*
X106316733Y-125500965D01*
G37*
X106316733Y-125500965D02*
X106363983Y-125458489D01*
X106429412Y-125447012D01*
X106491524Y-125466727D01*
X106521480Y-125499124D01*
X106537596Y-125556791D01*
X106509928Y-125590020D01*
X106441384Y-125600200D01*
X106385681Y-125608851D01*
X106375807Y-125631950D01*
X106406514Y-125653966D01*
X106454124Y-125658918D01*
X106506858Y-125664364D01*
X106519451Y-125684404D01*
X106486983Y-125709369D01*
X106481022Y-125711782D01*
X106444215Y-125724292D01*
X106436572Y-125725589D01*
X106412806Y-125716111D01*
X106375909Y-125701289D01*
X106323080Y-125655723D01*
X106300007Y-125585168D01*
X106310141Y-125524000D01*
X106368800Y-125524000D01*
X106390073Y-125544637D01*
X106419600Y-125549400D01*
X106460874Y-125538763D01*
X106470400Y-125524000D01*
X106449126Y-125503362D01*
X106419600Y-125498600D01*
X106378325Y-125509236D01*
X106368800Y-125524000D01*
X106310141Y-125524000D01*
X106312550Y-125509465D01*
X106316733Y-125500965D01*
G36*
X107991534Y-125392172D02*
G01*
X107994400Y-125409700D01*
X108015239Y-125442320D01*
X108038850Y-125448607D01*
X108069401Y-125451900D01*
X108058731Y-125467662D01*
X108038850Y-125483157D01*
X108004007Y-125534274D01*
X107996482Y-125599079D01*
X108016645Y-125654927D01*
X108035761Y-125671622D01*
X108059824Y-125696470D01*
X108054269Y-125708894D01*
X108015699Y-125709682D01*
X107987507Y-125698447D01*
X107952487Y-125651021D01*
X107943600Y-125588354D01*
X107935038Y-125526090D01*
X107914190Y-125489340D01*
X107911850Y-125488016D01*
X107893170Y-125471335D01*
X107911850Y-125458383D01*
X107941095Y-125422720D01*
X107943600Y-125407583D01*
X107958012Y-125375163D01*
X107969000Y-125371600D01*
X107991534Y-125392172D01*
G37*
X107991534Y-125392172D02*
X107994400Y-125409700D01*
X108015239Y-125442320D01*
X108038850Y-125448607D01*
X108069401Y-125451900D01*
X108058731Y-125467662D01*
X108038850Y-125483157D01*
X108004007Y-125534274D01*
X107996482Y-125599079D01*
X108016645Y-125654927D01*
X108035761Y-125671622D01*
X108059824Y-125696470D01*
X108054269Y-125708894D01*
X108015699Y-125709682D01*
X107987507Y-125698447D01*
X107952487Y-125651021D01*
X107943600Y-125588354D01*
X107935038Y-125526090D01*
X107914190Y-125489340D01*
X107911850Y-125488016D01*
X107893170Y-125471335D01*
X107911850Y-125458383D01*
X107941095Y-125422720D01*
X107943600Y-125407583D01*
X107958012Y-125375163D01*
X107969000Y-125371600D01*
X107991534Y-125392172D01*
G36*
X111702800Y-125511300D02*
G01*
X111727612Y-125469144D01*
X111770510Y-125451029D01*
X111829171Y-125447800D01*
X111931400Y-125447800D01*
X111931400Y-125612006D01*
X111928814Y-125705355D01*
X111918826Y-125761037D01*
X111898092Y-125792019D01*
X111882269Y-125802506D01*
X111798955Y-125825857D01*
X111734550Y-125811978D01*
X111703111Y-125789050D01*
X111715752Y-125769832D01*
X111765858Y-125761260D01*
X111782643Y-125761554D01*
X111841509Y-125755143D01*
X111873319Y-125734430D01*
X111873660Y-125733550D01*
X111861135Y-125709362D01*
X111805887Y-125701800D01*
X111735863Y-125681296D01*
X111696003Y-125626870D01*
X111693588Y-125579284D01*
X111753600Y-125579284D01*
X111759724Y-125632070D01*
X111785641Y-125648123D01*
X111810490Y-125646416D01*
X111858984Y-125622089D01*
X111876087Y-125592629D01*
X111869435Y-125536579D01*
X111836717Y-125496489D01*
X111792182Y-125489297D01*
X111789842Y-125490127D01*
X111763693Y-125523165D01*
X111753600Y-125579284D01*
X111693588Y-125579284D01*
X111692058Y-125549144D01*
X111702800Y-125511300D01*
G37*
X111702800Y-125511300D02*
X111727612Y-125469144D01*
X111770510Y-125451029D01*
X111829171Y-125447800D01*
X111931400Y-125447800D01*
X111931400Y-125612006D01*
X111928814Y-125705355D01*
X111918826Y-125761037D01*
X111898092Y-125792019D01*
X111882269Y-125802506D01*
X111798955Y-125825857D01*
X111734550Y-125811978D01*
X111703111Y-125789050D01*
X111715752Y-125769832D01*
X111765858Y-125761260D01*
X111782643Y-125761554D01*
X111841509Y-125755143D01*
X111873319Y-125734430D01*
X111873660Y-125733550D01*
X111861135Y-125709362D01*
X111805887Y-125701800D01*
X111735863Y-125681296D01*
X111696003Y-125626870D01*
X111693588Y-125579284D01*
X111753600Y-125579284D01*
X111759724Y-125632070D01*
X111785641Y-125648123D01*
X111810490Y-125646416D01*
X111858984Y-125622089D01*
X111876087Y-125592629D01*
X111869435Y-125536579D01*
X111836717Y-125496489D01*
X111792182Y-125489297D01*
X111789842Y-125490127D01*
X111763693Y-125523165D01*
X111753600Y-125579284D01*
X111693588Y-125579284D01*
X111692058Y-125549144D01*
X111702800Y-125511300D01*
G36*
X110814475Y-125458193D02*
G01*
X110849182Y-125487977D01*
X110861568Y-125544977D01*
X110864147Y-125611883D01*
X110857791Y-125669994D01*
X110843374Y-125700611D01*
X110839200Y-125701800D01*
X110822015Y-125679566D01*
X110813896Y-125625304D01*
X110813800Y-125617979D01*
X110805255Y-125550895D01*
X110784629Y-125505012D01*
X110783924Y-125504284D01*
X110744569Y-125488631D01*
X110710715Y-125515027D01*
X110689929Y-125574764D01*
X110686800Y-125616010D01*
X110680206Y-125673522D01*
X110664064Y-125701327D01*
X110661400Y-125701800D01*
X110646910Y-125678955D01*
X110637714Y-125620547D01*
X110636000Y-125574800D01*
X110636000Y-125447800D01*
X110734882Y-125447800D01*
X110814475Y-125458193D01*
G37*
X110814475Y-125458193D02*
X110849182Y-125487977D01*
X110861568Y-125544977D01*
X110864147Y-125611883D01*
X110857791Y-125669994D01*
X110843374Y-125700611D01*
X110839200Y-125701800D01*
X110822015Y-125679566D01*
X110813896Y-125625304D01*
X110813800Y-125617979D01*
X110805255Y-125550895D01*
X110784629Y-125505012D01*
X110783924Y-125504284D01*
X110744569Y-125488631D01*
X110710715Y-125515027D01*
X110689929Y-125574764D01*
X110686800Y-125616010D01*
X110680206Y-125673522D01*
X110664064Y-125701327D01*
X110661400Y-125701800D01*
X110646910Y-125678955D01*
X110637714Y-125620547D01*
X110636000Y-125574800D01*
X110636000Y-125447800D01*
X110734882Y-125447800D01*
X110814475Y-125458193D01*
G36*
X106057693Y-125342536D02*
G01*
X106064000Y-125384300D01*
X106072619Y-125430268D01*
X106108744Y-125446585D01*
X106137482Y-125447800D01*
X106199347Y-125461133D01*
X106226382Y-125487977D01*
X106238768Y-125544977D01*
X106241347Y-125611883D01*
X106234991Y-125669994D01*
X106220574Y-125700611D01*
X106216400Y-125701800D01*
X106199215Y-125679566D01*
X106191096Y-125625304D01*
X106191000Y-125617979D01*
X106178833Y-125538613D01*
X106146101Y-125493617D01*
X106099004Y-125490602D01*
X106074053Y-125525274D01*
X106064041Y-125597140D01*
X106064000Y-125602917D01*
X106058222Y-125665528D01*
X106043832Y-125699675D01*
X106038600Y-125701800D01*
X106025801Y-125678162D01*
X106016881Y-125614176D01*
X106013223Y-125520233D01*
X106013200Y-125511300D01*
X106016351Y-125415311D01*
X106024883Y-125348407D01*
X106037408Y-125320978D01*
X106038600Y-125320800D01*
X106057693Y-125342536D01*
G37*
X106057693Y-125342536D02*
X106064000Y-125384300D01*
X106072619Y-125430268D01*
X106108744Y-125446585D01*
X106137482Y-125447800D01*
X106199347Y-125461133D01*
X106226382Y-125487977D01*
X106238768Y-125544977D01*
X106241347Y-125611883D01*
X106234991Y-125669994D01*
X106220574Y-125700611D01*
X106216400Y-125701800D01*
X106199215Y-125679566D01*
X106191096Y-125625304D01*
X106191000Y-125617979D01*
X106178833Y-125538613D01*
X106146101Y-125493617D01*
X106099004Y-125490602D01*
X106074053Y-125525274D01*
X106064041Y-125597140D01*
X106064000Y-125602917D01*
X106058222Y-125665528D01*
X106043832Y-125699675D01*
X106038600Y-125701800D01*
X106025801Y-125678162D01*
X106016881Y-125614176D01*
X106013223Y-125520233D01*
X106013200Y-125511300D01*
X106016351Y-125415311D01*
X106024883Y-125348407D01*
X106037408Y-125320978D01*
X106038600Y-125320800D01*
X106057693Y-125342536D01*
G36*
X108339089Y-125470644D02*
G01*
X108348285Y-125529052D01*
X108350000Y-125574800D01*
X108345456Y-125656215D01*
X108330347Y-125695341D01*
X108313977Y-125701800D01*
X108255909Y-125710220D01*
X108244127Y-125713816D01*
X108195642Y-125712076D01*
X108165850Y-125699854D01*
X108134296Y-125661007D01*
X108121900Y-125586835D01*
X108121400Y-125560837D01*
X108126497Y-125493111D01*
X108139380Y-125452748D01*
X108146800Y-125447800D01*
X108162802Y-125470311D01*
X108171609Y-125526453D01*
X108172200Y-125547900D01*
X108178371Y-125615736D01*
X108193696Y-125659477D01*
X108198712Y-125664387D01*
X108239707Y-125666118D01*
X108275484Y-125629251D01*
X108296791Y-125565831D01*
X108299200Y-125533589D01*
X108305793Y-125476077D01*
X108321935Y-125448272D01*
X108324600Y-125447800D01*
X108339089Y-125470644D01*
G37*
X108339089Y-125470644D02*
X108348285Y-125529052D01*
X108350000Y-125574800D01*
X108345456Y-125656215D01*
X108330347Y-125695341D01*
X108313977Y-125701800D01*
X108255909Y-125710220D01*
X108244127Y-125713816D01*
X108195642Y-125712076D01*
X108165850Y-125699854D01*
X108134296Y-125661007D01*
X108121900Y-125586835D01*
X108121400Y-125560837D01*
X108126497Y-125493111D01*
X108139380Y-125452748D01*
X108146800Y-125447800D01*
X108162802Y-125470311D01*
X108171609Y-125526453D01*
X108172200Y-125547900D01*
X108178371Y-125615736D01*
X108193696Y-125659477D01*
X108198712Y-125664387D01*
X108239707Y-125666118D01*
X108275484Y-125629251D01*
X108296791Y-125565831D01*
X108299200Y-125533589D01*
X108305793Y-125476077D01*
X108321935Y-125448272D01*
X108324600Y-125447800D01*
X108339089Y-125470644D01*
G36*
X112287000Y-122806200D02*
G01*
X111753600Y-122806200D01*
X111753600Y-125016000D01*
X110966739Y-125016000D01*
X110960119Y-123917450D01*
X110953500Y-122818900D01*
X110680450Y-122811690D01*
X110407400Y-122804481D01*
X110407400Y-122171200D01*
X112287000Y-122171200D01*
X112287000Y-122806200D01*
G37*
X112287000Y-122806200D02*
X111753600Y-122806200D01*
X111753600Y-125016000D01*
X110966739Y-125016000D01*
X110960119Y-123917450D01*
X110953500Y-122818900D01*
X110680450Y-122811690D01*
X110407400Y-122804481D01*
X110407400Y-122171200D01*
X112287000Y-122171200D01*
X112287000Y-122806200D01*
G36*
X112145764Y-125474474D02*
G01*
X112197059Y-125454577D01*
X112253714Y-125452314D01*
X112308735Y-125469913D01*
X112331087Y-125515990D01*
X112333137Y-125530350D01*
X112333921Y-125576326D01*
X112312696Y-125595892D01*
X112255807Y-125600182D01*
X112247477Y-125600200D01*
X112188469Y-125602820D01*
X112171418Y-125614492D01*
X112186755Y-125639932D01*
X112240466Y-125667949D01*
X112278765Y-125664848D01*
X112326177Y-125663990D01*
X112335941Y-125683910D01*
X112302170Y-125709954D01*
X112297622Y-125711782D01*
X112249176Y-125725369D01*
X112209312Y-125715601D01*
X112165651Y-125687659D01*
X112122799Y-125632463D01*
X112109368Y-125561175D01*
X112115377Y-125539366D01*
X112170326Y-125539366D01*
X112196340Y-125548759D01*
X112220389Y-125549400D01*
X112269605Y-125541961D01*
X112287000Y-125526717D01*
X112267742Y-125496753D01*
X112225955Y-125490468D01*
X112185618Y-125511106D01*
X112184146Y-125512809D01*
X112170326Y-125539366D01*
X112115377Y-125539366D01*
X112127405Y-125495718D01*
X112145764Y-125474474D01*
G37*
X112145764Y-125474474D02*
X112197059Y-125454577D01*
X112253714Y-125452314D01*
X112308735Y-125469913D01*
X112331087Y-125515990D01*
X112333137Y-125530350D01*
X112333921Y-125576326D01*
X112312696Y-125595892D01*
X112255807Y-125600182D01*
X112247477Y-125600200D01*
X112188469Y-125602820D01*
X112171418Y-125614492D01*
X112186755Y-125639932D01*
X112240466Y-125667949D01*
X112278765Y-125664848D01*
X112326177Y-125663990D01*
X112335941Y-125683910D01*
X112302170Y-125709954D01*
X112297622Y-125711782D01*
X112249176Y-125725369D01*
X112209312Y-125715601D01*
X112165651Y-125687659D01*
X112122799Y-125632463D01*
X112109368Y-125561175D01*
X112115377Y-125539366D01*
X112170326Y-125539366D01*
X112196340Y-125548759D01*
X112220389Y-125549400D01*
X112269605Y-125541961D01*
X112287000Y-125526717D01*
X112267742Y-125496753D01*
X112225955Y-125490468D01*
X112185618Y-125511106D01*
X112184146Y-125512809D01*
X112170326Y-125539366D01*
X112115377Y-125539366D01*
X112127405Y-125495718D01*
X112145764Y-125474474D01*
G36*
X109828280Y-125478279D02*
G01*
X109887584Y-125448182D01*
X109952101Y-125455046D01*
X110004233Y-125492102D01*
X110026382Y-125552583D01*
X110026400Y-125554479D01*
X110014506Y-125586079D01*
X109970754Y-125598927D01*
X109934389Y-125600200D01*
X109876185Y-125602882D01*
X109859961Y-125614836D01*
X109875355Y-125639932D01*
X109930026Y-125668204D01*
X109973715Y-125664943D01*
X110018143Y-125656569D01*
X110017293Y-125666271D01*
X109989795Y-125688710D01*
X109944045Y-125719977D01*
X109909025Y-125721073D01*
X109860193Y-125691810D01*
X109854251Y-125687659D01*
X109811289Y-125631888D01*
X109797728Y-125559351D01*
X109803362Y-125539366D01*
X109858926Y-125539366D01*
X109884940Y-125548759D01*
X109908989Y-125549400D01*
X109958205Y-125541961D01*
X109975600Y-125526717D01*
X109956342Y-125496753D01*
X109914555Y-125490468D01*
X109874218Y-125511106D01*
X109872746Y-125512809D01*
X109858926Y-125539366D01*
X109803362Y-125539366D01*
X109816421Y-125493052D01*
X109828280Y-125478279D01*
G37*
X109828280Y-125478279D02*
X109887584Y-125448182D01*
X109952101Y-125455046D01*
X110004233Y-125492102D01*
X110026382Y-125552583D01*
X110026400Y-125554479D01*
X110014506Y-125586079D01*
X109970754Y-125598927D01*
X109934389Y-125600200D01*
X109876185Y-125602882D01*
X109859961Y-125614836D01*
X109875355Y-125639932D01*
X109930026Y-125668204D01*
X109973715Y-125664943D01*
X110018143Y-125656569D01*
X110017293Y-125666271D01*
X109989795Y-125688710D01*
X109944045Y-125719977D01*
X109909025Y-125721073D01*
X109860193Y-125691810D01*
X109854251Y-125687659D01*
X109811289Y-125631888D01*
X109797728Y-125559351D01*
X109803362Y-125539366D01*
X109858926Y-125539366D01*
X109884940Y-125548759D01*
X109908989Y-125549400D01*
X109958205Y-125541961D01*
X109975600Y-125526717D01*
X109956342Y-125496753D01*
X109914555Y-125490468D01*
X109874218Y-125511106D01*
X109872746Y-125512809D01*
X109858926Y-125539366D01*
X109803362Y-125539366D01*
X109816421Y-125493052D01*
X109828280Y-125478279D01*
G36*
X110229600Y-125016000D02*
G01*
X109442200Y-125016000D01*
X109442200Y-122171200D01*
X110229600Y-122171200D01*
X110229600Y-125016000D01*
G37*
X110229600Y-125016000D02*
X109442200Y-125016000D01*
X109442200Y-122171200D01*
X110229600Y-122171200D01*
X110229600Y-125016000D01*
G36*
X109000678Y-125470265D02*
G01*
X109013414Y-125525961D01*
X109015216Y-125543050D01*
X109026411Y-125607866D01*
X109050672Y-125634903D01*
X109073900Y-125638300D01*
X109109373Y-125627369D01*
X109127211Y-125586074D01*
X109132583Y-125543050D01*
X109144408Y-125472955D01*
X109160814Y-125449794D01*
X109176668Y-125470638D01*
X109186841Y-125532556D01*
X109188200Y-125574800D01*
X109186723Y-125649960D01*
X109176521Y-125687436D01*
X109148938Y-125700345D01*
X109104380Y-125701800D01*
X109037073Y-125693070D01*
X108990781Y-125672000D01*
X108990080Y-125671320D01*
X108971590Y-125631784D01*
X108961679Y-125570942D01*
X108960906Y-125507661D01*
X108969827Y-125460809D01*
X108983466Y-125447800D01*
X109000678Y-125470265D01*
G37*
X109000678Y-125470265D02*
X109013414Y-125525961D01*
X109015216Y-125543050D01*
X109026411Y-125607866D01*
X109050672Y-125634903D01*
X109073900Y-125638300D01*
X109109373Y-125627369D01*
X109127211Y-125586074D01*
X109132583Y-125543050D01*
X109144408Y-125472955D01*
X109160814Y-125449794D01*
X109176668Y-125470638D01*
X109186841Y-125532556D01*
X109188200Y-125574800D01*
X109186723Y-125649960D01*
X109176521Y-125687436D01*
X109148938Y-125700345D01*
X109104380Y-125701800D01*
X109037073Y-125693070D01*
X108990781Y-125672000D01*
X108990080Y-125671320D01*
X108971590Y-125631784D01*
X108961679Y-125570942D01*
X108960906Y-125507661D01*
X108969827Y-125460809D01*
X108983466Y-125447800D01*
X109000678Y-125470265D01*
G36*
X106692650Y-125449132D02*
G01*
X106753100Y-125451189D01*
X106768734Y-125459299D01*
X106745535Y-125479931D01*
X106730750Y-125490330D01*
X106684720Y-125546744D01*
X106673600Y-125615998D01*
X106664708Y-125680513D01*
X106636675Y-125701782D01*
X106635500Y-125701800D01*
X106611540Y-125688204D01*
X106599838Y-125641131D01*
X106597400Y-125574800D01*
X106597400Y-125447800D01*
X106692650Y-125449132D01*
G37*
X106692650Y-125449132D02*
X106753100Y-125451189D01*
X106768734Y-125459299D01*
X106745535Y-125479931D01*
X106730750Y-125490330D01*
X106684720Y-125546744D01*
X106673600Y-125615998D01*
X106664708Y-125680513D01*
X106636675Y-125701782D01*
X106635500Y-125701800D01*
X106611540Y-125688204D01*
X106599838Y-125641131D01*
X106597400Y-125574800D01*
X106597400Y-125447800D01*
X106692650Y-125449132D01*
G36*
X105922859Y-125461395D02*
G01*
X105934561Y-125508468D01*
X105937000Y-125574800D01*
X105934180Y-125651251D01*
X105922579Y-125689358D01*
X105897479Y-125701415D01*
X105888277Y-125701800D01*
X105826723Y-125709088D01*
X105802652Y-125715960D01*
X105757435Y-125711073D01*
X105724375Y-125688746D01*
X105700926Y-125645218D01*
X105686697Y-125581735D01*
X105682856Y-125515945D01*
X105690575Y-125465498D01*
X105708400Y-125447800D01*
X105726687Y-125469754D01*
X105733800Y-125519145D01*
X105745209Y-125587698D01*
X105773323Y-125642444D01*
X105808965Y-125669593D01*
X105831546Y-125666081D01*
X105850282Y-125631125D01*
X105860284Y-125566917D01*
X105860800Y-125547900D01*
X105867282Y-125477821D01*
X105888691Y-125449374D01*
X105898900Y-125447800D01*
X105922859Y-125461395D01*
G37*
X105922859Y-125461395D02*
X105934561Y-125508468D01*
X105937000Y-125574800D01*
X105934180Y-125651251D01*
X105922579Y-125689358D01*
X105897479Y-125701415D01*
X105888277Y-125701800D01*
X105826723Y-125709088D01*
X105802652Y-125715960D01*
X105757435Y-125711073D01*
X105724375Y-125688746D01*
X105700926Y-125645218D01*
X105686697Y-125581735D01*
X105682856Y-125515945D01*
X105690575Y-125465498D01*
X105708400Y-125447800D01*
X105726687Y-125469754D01*
X105733800Y-125519145D01*
X105745209Y-125587698D01*
X105773323Y-125642444D01*
X105808965Y-125669593D01*
X105831546Y-125666081D01*
X105850282Y-125631125D01*
X105860284Y-125566917D01*
X105860800Y-125547900D01*
X105867282Y-125477821D01*
X105888691Y-125449374D01*
X105898900Y-125447800D01*
X105922859Y-125461395D01*
G36*
X112055534Y-125341372D02*
G01*
X112058400Y-125358900D01*
X112044684Y-125392701D01*
X112033000Y-125397000D01*
X112010465Y-125376427D01*
X112007600Y-125358900D01*
X112021315Y-125325098D01*
X112033000Y-125320800D01*
X112055534Y-125341372D01*
G37*
X112055534Y-125341372D02*
X112058400Y-125358900D01*
X112044684Y-125392701D01*
X112033000Y-125397000D01*
X112010465Y-125376427D01*
X112007600Y-125358900D01*
X112021315Y-125325098D01*
X112033000Y-125320800D01*
X112055534Y-125341372D01*
D13*
%TO.C,R6*%
X136522500Y-59562742D02*
X136522500Y-60037258D01*
X135477500Y-59562742D02*
X135477500Y-60037258D01*
%TO.C,R4*%
X136522500Y-79062742D02*
X136522500Y-79537258D01*
X135477500Y-79062742D02*
X135477500Y-79537258D01*
%TO.C,R3*%
X140437742Y-79022500D02*
X140912258Y-79022500D01*
X140437742Y-77977500D02*
X140912258Y-77977500D01*
%TO.C,R2*%
X135522500Y-99062742D02*
X135522500Y-99537258D01*
X134477500Y-99062742D02*
X134477500Y-99537258D01*
%TO.C,R5*%
X141762742Y-59522500D02*
X142237258Y-59522500D01*
X141762742Y-58477500D02*
X142237258Y-58477500D01*
%TD*%
M02*
