%TF.GenerationSoftware,KiCad,Pcbnew,7.0.7*%
%TF.CreationDate,2023-09-16T13:26:49-04:00*%
%TF.ProjectId,AstroPix_telescope,41737472-6f50-4697-985f-74656c657363,1.1*%
%TF.SameCoordinates,Original*%
%TF.FileFunction,Drillmap*%
%TF.FilePolarity,Positive*%
%FSLAX45Y45*%
G04 Gerber Fmt 4.5, Leading zero omitted, Abs format (unit mm)*
G04 Created by KiCad (PCBNEW 7.0.7) date 2023-09-16 13:26:49*
%MOMM*%
%LPD*%
G01*
G04 APERTURE LIST*
%ADD10C,0.100000*%
%ADD11C,0.200000*%
%ADD12C,0.025000*%
%ADD13C,0.040000*%
%ADD14C,0.070000*%
%ADD15C,0.320000*%
G04 APERTURE END LIST*
D10*
X18440400Y-5232400D02*
X18796000Y-5588000D01*
X10718800Y-5232400D02*
X18440400Y-5232400D01*
X18791000Y-14941500D02*
X18796000Y-5588000D01*
X10363200Y-5537200D02*
X10718800Y-5232400D01*
X10361000Y-14941500D02*
X10363200Y-5537200D01*
D11*
D12*
X10513500Y-7717500D02*
X10538500Y-7742500D01*
X10538500Y-7717500D02*
X10513500Y-7742500D01*
X10513500Y-9857500D02*
X10538500Y-9882500D01*
X10538500Y-9857500D02*
X10513500Y-9882500D01*
X10513500Y-11807500D02*
X10538500Y-11832500D01*
X10538500Y-11807500D02*
X10513500Y-11832500D01*
X10613500Y-7595050D02*
X10638500Y-7620050D01*
X10638500Y-7595050D02*
X10613500Y-7620050D01*
X10613500Y-9807500D02*
X10638500Y-9832500D01*
X10638500Y-9807500D02*
X10613500Y-9832500D01*
X10613500Y-11757500D02*
X10638500Y-11782500D01*
X10638500Y-11757500D02*
X10613500Y-11782500D01*
X10613500Y-14924000D02*
X10638500Y-14949000D01*
X10638500Y-14924000D02*
X10613500Y-14949000D01*
X10613500Y-15024000D02*
X10638500Y-15049000D01*
X10638500Y-15024000D02*
X10613500Y-15049000D01*
X10613500Y-15124000D02*
X10638500Y-15149000D01*
X10638500Y-15124000D02*
X10613500Y-15149000D01*
X10713500Y-7507500D02*
X10738500Y-7532500D01*
X10738500Y-7507500D02*
X10713500Y-7532500D01*
X10713500Y-9757500D02*
X10738500Y-9782500D01*
X10738500Y-9757500D02*
X10713500Y-9782500D01*
X10713500Y-11657500D02*
X10738500Y-11682500D01*
X10738500Y-11657500D02*
X10713500Y-11682500D01*
X10713500Y-14924000D02*
X10738500Y-14949000D01*
X10738500Y-14924000D02*
X10713500Y-14949000D01*
X10713500Y-15024000D02*
X10738500Y-15049000D01*
X10738500Y-15024000D02*
X10713500Y-15049000D01*
X10713500Y-15124000D02*
X10738500Y-15149000D01*
X10738500Y-15124000D02*
X10713500Y-15149000D01*
X10813500Y-7407500D02*
X10838500Y-7432500D01*
X10838500Y-7407500D02*
X10813500Y-7432500D01*
X10813500Y-9704150D02*
X10838500Y-9729150D01*
X10838500Y-9704150D02*
X10813500Y-9729150D01*
X10813500Y-11573845D02*
X10838500Y-11598845D01*
X10838500Y-11573845D02*
X10813500Y-11598845D01*
X10813500Y-14924000D02*
X10838500Y-14949000D01*
X10838500Y-14924000D02*
X10813500Y-14949000D01*
X10813500Y-15024000D02*
X10838500Y-15049000D01*
X10838500Y-15024000D02*
X10813500Y-15049000D01*
X10813500Y-15124000D02*
X10838500Y-15149000D01*
X10838500Y-15124000D02*
X10813500Y-15149000D01*
X10913500Y-7307500D02*
X10938500Y-7332500D01*
X10938500Y-7307500D02*
X10913500Y-7332500D01*
X10913500Y-14924000D02*
X10938500Y-14949000D01*
X10938500Y-14924000D02*
X10913500Y-14949000D01*
X10913500Y-15024000D02*
X10938500Y-15049000D01*
X10938500Y-15024000D02*
X10913500Y-15049000D01*
X10913500Y-15124000D02*
X10938500Y-15149000D01*
X10938500Y-15124000D02*
X10913500Y-15149000D01*
X11013500Y-7379000D02*
X11038500Y-7404000D01*
X11038500Y-7379000D02*
X11013500Y-7404000D01*
X11013500Y-9557500D02*
X11038500Y-9582500D01*
X11038500Y-9557500D02*
X11013500Y-9582500D01*
X11013500Y-14924000D02*
X11038500Y-14949000D01*
X11038500Y-14924000D02*
X11013500Y-14949000D01*
X11013500Y-15024000D02*
X11038500Y-15049000D01*
X11038500Y-15024000D02*
X11013500Y-15049000D01*
X11013500Y-15124000D02*
X11038500Y-15149000D01*
X11038500Y-15124000D02*
X11013500Y-15149000D01*
X11018500Y-6039000D02*
X11043500Y-6064000D01*
X11043500Y-6039000D02*
X11018500Y-6064000D01*
X11113500Y-7257500D02*
X11138500Y-7282500D01*
X11138500Y-7257500D02*
X11113500Y-7282500D01*
X11113500Y-9207500D02*
X11138500Y-9232500D01*
X11138500Y-9207500D02*
X11113500Y-9232500D01*
X11113500Y-11157500D02*
X11138500Y-11182500D01*
X11138500Y-11157500D02*
X11113500Y-11182500D01*
X11113500Y-14924000D02*
X11138500Y-14949000D01*
X11138500Y-14924000D02*
X11113500Y-14949000D01*
X11113500Y-15024000D02*
X11138500Y-15049000D01*
X11138500Y-15024000D02*
X11113500Y-15049000D01*
X11113500Y-15124000D02*
X11138500Y-15149000D01*
X11138500Y-15124000D02*
X11113500Y-15149000D01*
X11163500Y-5757500D02*
X11188500Y-5782500D01*
X11188500Y-5757500D02*
X11163500Y-5782500D01*
X11213500Y-7357500D02*
X11238500Y-7382500D01*
X11238500Y-7357500D02*
X11213500Y-7382500D01*
X11213500Y-9294000D02*
X11238500Y-9319000D01*
X11238500Y-9294000D02*
X11213500Y-9319000D01*
X11213500Y-11257500D02*
X11238500Y-11282500D01*
X11238500Y-11257500D02*
X11213500Y-11282500D01*
X11226000Y-15025000D02*
X11251000Y-15050000D01*
X11251000Y-15025000D02*
X11226000Y-15050000D01*
X11226000Y-15122500D02*
X11251000Y-15147500D01*
X11251000Y-15122500D02*
X11226000Y-15147500D01*
X11228500Y-14922500D02*
X11253500Y-14947500D01*
X11253500Y-14922500D02*
X11228500Y-14947500D01*
X11263500Y-5656996D02*
X11288500Y-5681996D01*
X11288500Y-5656996D02*
X11263500Y-5681996D01*
X11311000Y-15025000D02*
X11336000Y-15050000D01*
X11336000Y-15025000D02*
X11311000Y-15050000D01*
X11311000Y-15122500D02*
X11336000Y-15147500D01*
X11336000Y-15122500D02*
X11311000Y-15147500D01*
X11313500Y-7432500D02*
X11338500Y-7457500D01*
X11338500Y-7432500D02*
X11313500Y-7457500D01*
X11313500Y-9382500D02*
X11338500Y-9407500D01*
X11338500Y-9382500D02*
X11313500Y-9407500D01*
X11313500Y-11357500D02*
X11338500Y-11382500D01*
X11338500Y-11357500D02*
X11313500Y-11382500D01*
X11313500Y-14922500D02*
X11338500Y-14947500D01*
X11338500Y-14922500D02*
X11313500Y-14947500D01*
X11373500Y-5557500D02*
X11398500Y-5582500D01*
X11398500Y-5557500D02*
X11373500Y-5582500D01*
X11408500Y-14826000D02*
X11433500Y-14851000D01*
X11433500Y-14826000D02*
X11408500Y-14851000D01*
X11408500Y-14922500D02*
X11433500Y-14947500D01*
X11433500Y-14922500D02*
X11408500Y-14947500D01*
X11408500Y-15022500D02*
X11433500Y-15047500D01*
X11433500Y-15022500D02*
X11408500Y-15047500D01*
X11408500Y-15122500D02*
X11433500Y-15147500D01*
X11433500Y-15122500D02*
X11408500Y-15147500D01*
X11488500Y-5482500D02*
X11513500Y-5507500D01*
X11513500Y-5482500D02*
X11488500Y-5507500D01*
X12703500Y-14657500D02*
X12728500Y-14682500D01*
X12728500Y-14657500D02*
X12703500Y-14682500D01*
X12813500Y-14407500D02*
X12838500Y-14432500D01*
X12838500Y-14407500D02*
X12813500Y-14432500D01*
X12917184Y-14323634D02*
X12942184Y-14348634D01*
X12942184Y-14323634D02*
X12917184Y-14348634D01*
X13053848Y-14247848D02*
X13078848Y-14272848D01*
X13078848Y-14247848D02*
X13053848Y-14272848D01*
X13613500Y-11407500D02*
X13638500Y-11432500D01*
X13638500Y-11407500D02*
X13613500Y-11432500D01*
X13713500Y-7469950D02*
X13738500Y-7494950D01*
X13738500Y-7469950D02*
X13713500Y-7494950D01*
X13713500Y-9377500D02*
X13738500Y-9402500D01*
X13738500Y-9377500D02*
X13713500Y-9402500D01*
X14313500Y-11107500D02*
X14338500Y-11132500D01*
X14338500Y-11107500D02*
X14313500Y-11132500D01*
X14375950Y-9107500D02*
X14400950Y-9132500D01*
X14400950Y-9107500D02*
X14375950Y-9132500D01*
X14513500Y-7157500D02*
X14538500Y-7182500D01*
X14538500Y-7157500D02*
X14513500Y-7182500D01*
X15503500Y-9297500D02*
X15528500Y-9322500D01*
X15528500Y-9297500D02*
X15503500Y-9322500D01*
X15513500Y-11265887D02*
X15538500Y-11290887D01*
X15538500Y-11265887D02*
X15513500Y-11290887D01*
X15558500Y-7357500D02*
X15583500Y-7382500D01*
X15583500Y-7357500D02*
X15558500Y-7382500D01*
X15576613Y-9107500D02*
X15601613Y-9132500D01*
X15601613Y-9107500D02*
X15576613Y-9132500D01*
X15578500Y-7144100D02*
X15603500Y-7169100D01*
X15603500Y-7144100D02*
X15578500Y-7169100D01*
X15581613Y-11107500D02*
X15606613Y-11132500D01*
X15606613Y-11107500D02*
X15581613Y-11132500D01*
X15593500Y-9387500D02*
X15618500Y-9412500D01*
X15618500Y-9387500D02*
X15593500Y-9412500D01*
X15613500Y-11330790D02*
X15638500Y-11355790D01*
X15638500Y-11330790D02*
X15613500Y-11355790D01*
X15667659Y-7457500D02*
X15692659Y-7482500D01*
X15692659Y-7457500D02*
X15667659Y-7482500D01*
X15813500Y-11203842D02*
X15838500Y-11228842D01*
X15838500Y-11203842D02*
X15813500Y-11228842D01*
X15823270Y-11347088D02*
X15848270Y-11372088D01*
X15848270Y-11347088D02*
X15823270Y-11372088D01*
X15863500Y-7407500D02*
X15888500Y-7432500D01*
X15888500Y-7407500D02*
X15863500Y-7432500D01*
X15863500Y-7557500D02*
X15888500Y-7582500D01*
X15888500Y-7557500D02*
X15863500Y-7582500D01*
X15863500Y-9307500D02*
X15888500Y-9332500D01*
X15888500Y-9307500D02*
X15863500Y-9332500D01*
X15925344Y-9420808D02*
X15950344Y-9445808D01*
X15950344Y-9420808D02*
X15925344Y-9445808D01*
D13*
X10446000Y-15120000D02*
G75*
G03*
X10446000Y-15120000I-20000J0D01*
G01*
X13671000Y-15115000D02*
G75*
G03*
X13671000Y-15115000I-20000J0D01*
G01*
X15146000Y-7075000D02*
G75*
G03*
X15146000Y-7075000I-20000J0D01*
G01*
X15146000Y-9110000D02*
G75*
G03*
X15146000Y-9110000I-20000J0D01*
G01*
X15146000Y-11075000D02*
G75*
G03*
X15146000Y-11075000I-20000J0D01*
G01*
D14*
X11826000Y-6435000D02*
X11826000Y-6505000D01*
X11791000Y-6470000D02*
X11861000Y-6470000D01*
X11826000Y-6685000D02*
X11826000Y-6755000D01*
X11791000Y-6720000D02*
X11861000Y-6720000D01*
X11826000Y-8435000D02*
X11826000Y-8505000D01*
X11791000Y-8470000D02*
X11861000Y-8470000D01*
X11826000Y-8685000D02*
X11826000Y-8755000D01*
X11791000Y-8720000D02*
X11861000Y-8720000D01*
X11826000Y-10435000D02*
X11826000Y-10505000D01*
X11791000Y-10470000D02*
X11861000Y-10470000D01*
X11826000Y-10685000D02*
X11826000Y-10755000D01*
X11791000Y-10720000D02*
X11861000Y-10720000D01*
X11826000Y-12435000D02*
X11826000Y-12505000D01*
X11791000Y-12470000D02*
X11861000Y-12470000D01*
X11826000Y-12685000D02*
X11826000Y-12755000D01*
X11791000Y-12720000D02*
X11861000Y-12720000D01*
X11926000Y-6235000D02*
X11926000Y-6305000D01*
X11891000Y-6270000D02*
X11961000Y-6270000D01*
X11926000Y-6885000D02*
X11926000Y-6955000D01*
X11891000Y-6920000D02*
X11961000Y-6920000D01*
X11926000Y-8235000D02*
X11926000Y-8305000D01*
X11891000Y-8270000D02*
X11961000Y-8270000D01*
X11926000Y-8885000D02*
X11926000Y-8955000D01*
X11891000Y-8920000D02*
X11961000Y-8920000D01*
X11926000Y-10235000D02*
X11926000Y-10305000D01*
X11891000Y-10270000D02*
X11961000Y-10270000D01*
X11926000Y-10885000D02*
X11926000Y-10955000D01*
X11891000Y-10920000D02*
X11961000Y-10920000D01*
X11926000Y-12235000D02*
X11926000Y-12305000D01*
X11891000Y-12270000D02*
X11961000Y-12270000D01*
X11926000Y-12885000D02*
X11926000Y-12955000D01*
X11891000Y-12920000D02*
X11961000Y-12920000D01*
X12026000Y-6435000D02*
X12026000Y-6505000D01*
X11991000Y-6470000D02*
X12061000Y-6470000D01*
X12026000Y-6685000D02*
X12026000Y-6755000D01*
X11991000Y-6720000D02*
X12061000Y-6720000D01*
X12026000Y-8435000D02*
X12026000Y-8505000D01*
X11991000Y-8470000D02*
X12061000Y-8470000D01*
X12026000Y-8685000D02*
X12026000Y-8755000D01*
X11991000Y-8720000D02*
X12061000Y-8720000D01*
X12026000Y-10435000D02*
X12026000Y-10505000D01*
X11991000Y-10470000D02*
X12061000Y-10470000D01*
X12026000Y-10685000D02*
X12026000Y-10755000D01*
X11991000Y-10720000D02*
X12061000Y-10720000D01*
X12026000Y-12435000D02*
X12026000Y-12505000D01*
X11991000Y-12470000D02*
X12061000Y-12470000D01*
X12026000Y-12685000D02*
X12026000Y-12755000D01*
X11991000Y-12720000D02*
X12061000Y-12720000D01*
X12126000Y-6235000D02*
X12126000Y-6305000D01*
X12091000Y-6270000D02*
X12161000Y-6270000D01*
X12126000Y-6885000D02*
X12126000Y-6955000D01*
X12091000Y-6920000D02*
X12161000Y-6920000D01*
X12126000Y-8235000D02*
X12126000Y-8305000D01*
X12091000Y-8270000D02*
X12161000Y-8270000D01*
X12126000Y-8885000D02*
X12126000Y-8955000D01*
X12091000Y-8920000D02*
X12161000Y-8920000D01*
X12126000Y-10235000D02*
X12126000Y-10305000D01*
X12091000Y-10270000D02*
X12161000Y-10270000D01*
X12126000Y-10885000D02*
X12126000Y-10955000D01*
X12091000Y-10920000D02*
X12161000Y-10920000D01*
X12126000Y-12235000D02*
X12126000Y-12305000D01*
X12091000Y-12270000D02*
X12161000Y-12270000D01*
X12126000Y-12885000D02*
X12126000Y-12955000D01*
X12091000Y-12920000D02*
X12161000Y-12920000D01*
X12226000Y-6435000D02*
X12226000Y-6505000D01*
X12191000Y-6470000D02*
X12261000Y-6470000D01*
X12226000Y-6685000D02*
X12226000Y-6755000D01*
X12191000Y-6720000D02*
X12261000Y-6720000D01*
X12226000Y-8435000D02*
X12226000Y-8505000D01*
X12191000Y-8470000D02*
X12261000Y-8470000D01*
X12226000Y-8685000D02*
X12226000Y-8755000D01*
X12191000Y-8720000D02*
X12261000Y-8720000D01*
X12226000Y-10435000D02*
X12226000Y-10505000D01*
X12191000Y-10470000D02*
X12261000Y-10470000D01*
X12226000Y-10685000D02*
X12226000Y-10755000D01*
X12191000Y-10720000D02*
X12261000Y-10720000D01*
X12226000Y-12435000D02*
X12226000Y-12505000D01*
X12191000Y-12470000D02*
X12261000Y-12470000D01*
X12226000Y-12685000D02*
X12226000Y-12755000D01*
X12191000Y-12720000D02*
X12261000Y-12720000D01*
X12326000Y-6235000D02*
X12326000Y-6305000D01*
X12291000Y-6270000D02*
X12361000Y-6270000D01*
X12326000Y-6885000D02*
X12326000Y-6955000D01*
X12291000Y-6920000D02*
X12361000Y-6920000D01*
X12326000Y-8235000D02*
X12326000Y-8305000D01*
X12291000Y-8270000D02*
X12361000Y-8270000D01*
X12326000Y-8885000D02*
X12326000Y-8955000D01*
X12291000Y-8920000D02*
X12361000Y-8920000D01*
X12326000Y-10235000D02*
X12326000Y-10305000D01*
X12291000Y-10270000D02*
X12361000Y-10270000D01*
X12326000Y-10885000D02*
X12326000Y-10955000D01*
X12291000Y-10920000D02*
X12361000Y-10920000D01*
X12326000Y-12235000D02*
X12326000Y-12305000D01*
X12291000Y-12270000D02*
X12361000Y-12270000D01*
X12326000Y-12885000D02*
X12326000Y-12955000D01*
X12291000Y-12920000D02*
X12361000Y-12920000D01*
X12426000Y-6435000D02*
X12426000Y-6505000D01*
X12391000Y-6470000D02*
X12461000Y-6470000D01*
X12426000Y-6685000D02*
X12426000Y-6755000D01*
X12391000Y-6720000D02*
X12461000Y-6720000D01*
X12426000Y-8435000D02*
X12426000Y-8505000D01*
X12391000Y-8470000D02*
X12461000Y-8470000D01*
X12426000Y-8685000D02*
X12426000Y-8755000D01*
X12391000Y-8720000D02*
X12461000Y-8720000D01*
X12426000Y-10435000D02*
X12426000Y-10505000D01*
X12391000Y-10470000D02*
X12461000Y-10470000D01*
X12426000Y-10685000D02*
X12426000Y-10755000D01*
X12391000Y-10720000D02*
X12461000Y-10720000D01*
X12426000Y-12435000D02*
X12426000Y-12505000D01*
X12391000Y-12470000D02*
X12461000Y-12470000D01*
X12426000Y-12685000D02*
X12426000Y-12755000D01*
X12391000Y-12720000D02*
X12461000Y-12720000D01*
X12526000Y-6235000D02*
X12526000Y-6305000D01*
X12491000Y-6270000D02*
X12561000Y-6270000D01*
X12526000Y-6885000D02*
X12526000Y-6955000D01*
X12491000Y-6920000D02*
X12561000Y-6920000D01*
X12526000Y-8235000D02*
X12526000Y-8305000D01*
X12491000Y-8270000D02*
X12561000Y-8270000D01*
X12526000Y-8885000D02*
X12526000Y-8955000D01*
X12491000Y-8920000D02*
X12561000Y-8920000D01*
X12526000Y-10235000D02*
X12526000Y-10305000D01*
X12491000Y-10270000D02*
X12561000Y-10270000D01*
X12526000Y-10885000D02*
X12526000Y-10955000D01*
X12491000Y-10920000D02*
X12561000Y-10920000D01*
X12526000Y-12235000D02*
X12526000Y-12305000D01*
X12491000Y-12270000D02*
X12561000Y-12270000D01*
X12526000Y-12885000D02*
X12526000Y-12955000D01*
X12491000Y-12920000D02*
X12561000Y-12920000D01*
X12626000Y-6435000D02*
X12626000Y-6505000D01*
X12591000Y-6470000D02*
X12661000Y-6470000D01*
X12626000Y-6685000D02*
X12626000Y-6755000D01*
X12591000Y-6720000D02*
X12661000Y-6720000D01*
X12626000Y-8435000D02*
X12626000Y-8505000D01*
X12591000Y-8470000D02*
X12661000Y-8470000D01*
X12626000Y-8685000D02*
X12626000Y-8755000D01*
X12591000Y-8720000D02*
X12661000Y-8720000D01*
X12626000Y-10435000D02*
X12626000Y-10505000D01*
X12591000Y-10470000D02*
X12661000Y-10470000D01*
X12626000Y-10685000D02*
X12626000Y-10755000D01*
X12591000Y-10720000D02*
X12661000Y-10720000D01*
X12626000Y-12435000D02*
X12626000Y-12505000D01*
X12591000Y-12470000D02*
X12661000Y-12470000D01*
X12626000Y-12685000D02*
X12626000Y-12755000D01*
X12591000Y-12720000D02*
X12661000Y-12720000D01*
X12726000Y-6235000D02*
X12726000Y-6305000D01*
X12691000Y-6270000D02*
X12761000Y-6270000D01*
X12726000Y-6885000D02*
X12726000Y-6955000D01*
X12691000Y-6920000D02*
X12761000Y-6920000D01*
X12726000Y-8235000D02*
X12726000Y-8305000D01*
X12691000Y-8270000D02*
X12761000Y-8270000D01*
X12726000Y-8885000D02*
X12726000Y-8955000D01*
X12691000Y-8920000D02*
X12761000Y-8920000D01*
X12726000Y-10235000D02*
X12726000Y-10305000D01*
X12691000Y-10270000D02*
X12761000Y-10270000D01*
X12726000Y-10885000D02*
X12726000Y-10955000D01*
X12691000Y-10920000D02*
X12761000Y-10920000D01*
X12726000Y-12235000D02*
X12726000Y-12305000D01*
X12691000Y-12270000D02*
X12761000Y-12270000D01*
X12726000Y-12885000D02*
X12726000Y-12955000D01*
X12691000Y-12920000D02*
X12761000Y-12920000D01*
X12826000Y-6435000D02*
X12826000Y-6505000D01*
X12791000Y-6470000D02*
X12861000Y-6470000D01*
X12826000Y-6685000D02*
X12826000Y-6755000D01*
X12791000Y-6720000D02*
X12861000Y-6720000D01*
X12826000Y-8435000D02*
X12826000Y-8505000D01*
X12791000Y-8470000D02*
X12861000Y-8470000D01*
X12826000Y-8685000D02*
X12826000Y-8755000D01*
X12791000Y-8720000D02*
X12861000Y-8720000D01*
X12826000Y-10435000D02*
X12826000Y-10505000D01*
X12791000Y-10470000D02*
X12861000Y-10470000D01*
X12826000Y-10685000D02*
X12826000Y-10755000D01*
X12791000Y-10720000D02*
X12861000Y-10720000D01*
X12826000Y-12435000D02*
X12826000Y-12505000D01*
X12791000Y-12470000D02*
X12861000Y-12470000D01*
X12826000Y-12685000D02*
X12826000Y-12755000D01*
X12791000Y-12720000D02*
X12861000Y-12720000D01*
X13126000Y-6235000D02*
X13126000Y-6305000D01*
X13091000Y-6270000D02*
X13161000Y-6270000D01*
X13126000Y-6885000D02*
X13126000Y-6955000D01*
X13091000Y-6920000D02*
X13161000Y-6920000D01*
X13126000Y-8235000D02*
X13126000Y-8305000D01*
X13091000Y-8270000D02*
X13161000Y-8270000D01*
X13126000Y-8885000D02*
X13126000Y-8955000D01*
X13091000Y-8920000D02*
X13161000Y-8920000D01*
X13126000Y-10235000D02*
X13126000Y-10305000D01*
X13091000Y-10270000D02*
X13161000Y-10270000D01*
X13126000Y-10885000D02*
X13126000Y-10955000D01*
X13091000Y-10920000D02*
X13161000Y-10920000D01*
X13126000Y-12235000D02*
X13126000Y-12305000D01*
X13091000Y-12270000D02*
X13161000Y-12270000D01*
X13126000Y-12885000D02*
X13126000Y-12955000D01*
X13091000Y-12920000D02*
X13161000Y-12920000D01*
X13226000Y-6435000D02*
X13226000Y-6505000D01*
X13191000Y-6470000D02*
X13261000Y-6470000D01*
X13226000Y-6685000D02*
X13226000Y-6755000D01*
X13191000Y-6720000D02*
X13261000Y-6720000D01*
X13226000Y-8435000D02*
X13226000Y-8505000D01*
X13191000Y-8470000D02*
X13261000Y-8470000D01*
X13226000Y-8685000D02*
X13226000Y-8755000D01*
X13191000Y-8720000D02*
X13261000Y-8720000D01*
X13226000Y-10435000D02*
X13226000Y-10505000D01*
X13191000Y-10470000D02*
X13261000Y-10470000D01*
X13226000Y-10685000D02*
X13226000Y-10755000D01*
X13191000Y-10720000D02*
X13261000Y-10720000D01*
X13226000Y-12435000D02*
X13226000Y-12505000D01*
X13191000Y-12470000D02*
X13261000Y-12470000D01*
X13226000Y-12685000D02*
X13226000Y-12755000D01*
X13191000Y-12720000D02*
X13261000Y-12720000D01*
X13326000Y-6235000D02*
X13326000Y-6305000D01*
X13291000Y-6270000D02*
X13361000Y-6270000D01*
X13326000Y-6885000D02*
X13326000Y-6955000D01*
X13291000Y-6920000D02*
X13361000Y-6920000D01*
X13326000Y-8235000D02*
X13326000Y-8305000D01*
X13291000Y-8270000D02*
X13361000Y-8270000D01*
X13326000Y-8885000D02*
X13326000Y-8955000D01*
X13291000Y-8920000D02*
X13361000Y-8920000D01*
X13326000Y-10235000D02*
X13326000Y-10305000D01*
X13291000Y-10270000D02*
X13361000Y-10270000D01*
X13326000Y-10885000D02*
X13326000Y-10955000D01*
X13291000Y-10920000D02*
X13361000Y-10920000D01*
X13326000Y-12235000D02*
X13326000Y-12305000D01*
X13291000Y-12270000D02*
X13361000Y-12270000D01*
X13326000Y-12885000D02*
X13326000Y-12955000D01*
X13291000Y-12920000D02*
X13361000Y-12920000D01*
X13426000Y-6435000D02*
X13426000Y-6505000D01*
X13391000Y-6470000D02*
X13461000Y-6470000D01*
X13426000Y-6685000D02*
X13426000Y-6755000D01*
X13391000Y-6720000D02*
X13461000Y-6720000D01*
X13426000Y-8435000D02*
X13426000Y-8505000D01*
X13391000Y-8470000D02*
X13461000Y-8470000D01*
X13426000Y-8685000D02*
X13426000Y-8755000D01*
X13391000Y-8720000D02*
X13461000Y-8720000D01*
X13426000Y-10435000D02*
X13426000Y-10505000D01*
X13391000Y-10470000D02*
X13461000Y-10470000D01*
X13426000Y-10685000D02*
X13426000Y-10755000D01*
X13391000Y-10720000D02*
X13461000Y-10720000D01*
X13426000Y-12435000D02*
X13426000Y-12505000D01*
X13391000Y-12470000D02*
X13461000Y-12470000D01*
X13426000Y-12685000D02*
X13426000Y-12755000D01*
X13391000Y-12720000D02*
X13461000Y-12720000D01*
X13526000Y-6235000D02*
X13526000Y-6305000D01*
X13491000Y-6270000D02*
X13561000Y-6270000D01*
X13526000Y-6885000D02*
X13526000Y-6955000D01*
X13491000Y-6920000D02*
X13561000Y-6920000D01*
X13526000Y-8235000D02*
X13526000Y-8305000D01*
X13491000Y-8270000D02*
X13561000Y-8270000D01*
X13526000Y-8885000D02*
X13526000Y-8955000D01*
X13491000Y-8920000D02*
X13561000Y-8920000D01*
X13526000Y-10235000D02*
X13526000Y-10305000D01*
X13491000Y-10270000D02*
X13561000Y-10270000D01*
X13526000Y-10885000D02*
X13526000Y-10955000D01*
X13491000Y-10920000D02*
X13561000Y-10920000D01*
X13526000Y-12235000D02*
X13526000Y-12305000D01*
X13491000Y-12270000D02*
X13561000Y-12270000D01*
X13526000Y-12885000D02*
X13526000Y-12955000D01*
X13491000Y-12920000D02*
X13561000Y-12920000D01*
X13626000Y-6435000D02*
X13626000Y-6505000D01*
X13591000Y-6470000D02*
X13661000Y-6470000D01*
X13626000Y-6685000D02*
X13626000Y-6755000D01*
X13591000Y-6720000D02*
X13661000Y-6720000D01*
X13626000Y-8435000D02*
X13626000Y-8505000D01*
X13591000Y-8470000D02*
X13661000Y-8470000D01*
X13626000Y-8685000D02*
X13626000Y-8755000D01*
X13591000Y-8720000D02*
X13661000Y-8720000D01*
X13626000Y-10435000D02*
X13626000Y-10505000D01*
X13591000Y-10470000D02*
X13661000Y-10470000D01*
X13626000Y-10685000D02*
X13626000Y-10755000D01*
X13591000Y-10720000D02*
X13661000Y-10720000D01*
X13626000Y-12435000D02*
X13626000Y-12505000D01*
X13591000Y-12470000D02*
X13661000Y-12470000D01*
X13626000Y-12685000D02*
X13626000Y-12755000D01*
X13591000Y-12720000D02*
X13661000Y-12720000D01*
X13726000Y-6235000D02*
X13726000Y-6305000D01*
X13691000Y-6270000D02*
X13761000Y-6270000D01*
X13726000Y-6885000D02*
X13726000Y-6955000D01*
X13691000Y-6920000D02*
X13761000Y-6920000D01*
X13726000Y-8235000D02*
X13726000Y-8305000D01*
X13691000Y-8270000D02*
X13761000Y-8270000D01*
X13726000Y-8885000D02*
X13726000Y-8955000D01*
X13691000Y-8920000D02*
X13761000Y-8920000D01*
X13726000Y-10235000D02*
X13726000Y-10305000D01*
X13691000Y-10270000D02*
X13761000Y-10270000D01*
X13726000Y-10885000D02*
X13726000Y-10955000D01*
X13691000Y-10920000D02*
X13761000Y-10920000D01*
X13726000Y-12235000D02*
X13726000Y-12305000D01*
X13691000Y-12270000D02*
X13761000Y-12270000D01*
X13726000Y-12885000D02*
X13726000Y-12955000D01*
X13691000Y-12920000D02*
X13761000Y-12920000D01*
X13826000Y-6435000D02*
X13826000Y-6505000D01*
X13791000Y-6470000D02*
X13861000Y-6470000D01*
X13826000Y-6685000D02*
X13826000Y-6755000D01*
X13791000Y-6720000D02*
X13861000Y-6720000D01*
X13826000Y-8435000D02*
X13826000Y-8505000D01*
X13791000Y-8470000D02*
X13861000Y-8470000D01*
X13826000Y-8685000D02*
X13826000Y-8755000D01*
X13791000Y-8720000D02*
X13861000Y-8720000D01*
X13826000Y-10435000D02*
X13826000Y-10505000D01*
X13791000Y-10470000D02*
X13861000Y-10470000D01*
X13826000Y-10685000D02*
X13826000Y-10755000D01*
X13791000Y-10720000D02*
X13861000Y-10720000D01*
X13826000Y-12435000D02*
X13826000Y-12505000D01*
X13791000Y-12470000D02*
X13861000Y-12470000D01*
X13826000Y-12685000D02*
X13826000Y-12755000D01*
X13791000Y-12720000D02*
X13861000Y-12720000D01*
X13926000Y-6235000D02*
X13926000Y-6305000D01*
X13891000Y-6270000D02*
X13961000Y-6270000D01*
X13926000Y-6885000D02*
X13926000Y-6955000D01*
X13891000Y-6920000D02*
X13961000Y-6920000D01*
X13926000Y-8235000D02*
X13926000Y-8305000D01*
X13891000Y-8270000D02*
X13961000Y-8270000D01*
X13926000Y-8885000D02*
X13926000Y-8955000D01*
X13891000Y-8920000D02*
X13961000Y-8920000D01*
X13926000Y-10235000D02*
X13926000Y-10305000D01*
X13891000Y-10270000D02*
X13961000Y-10270000D01*
X13926000Y-10885000D02*
X13926000Y-10955000D01*
X13891000Y-10920000D02*
X13961000Y-10920000D01*
X13926000Y-12235000D02*
X13926000Y-12305000D01*
X13891000Y-12270000D02*
X13961000Y-12270000D01*
X13926000Y-12885000D02*
X13926000Y-12955000D01*
X13891000Y-12920000D02*
X13961000Y-12920000D01*
X14026000Y-6435000D02*
X14026000Y-6505000D01*
X13991000Y-6470000D02*
X14061000Y-6470000D01*
X14026000Y-6685000D02*
X14026000Y-6755000D01*
X13991000Y-6720000D02*
X14061000Y-6720000D01*
X14026000Y-8435000D02*
X14026000Y-8505000D01*
X13991000Y-8470000D02*
X14061000Y-8470000D01*
X14026000Y-8685000D02*
X14026000Y-8755000D01*
X13991000Y-8720000D02*
X14061000Y-8720000D01*
X14026000Y-10435000D02*
X14026000Y-10505000D01*
X13991000Y-10470000D02*
X14061000Y-10470000D01*
X14026000Y-10685000D02*
X14026000Y-10755000D01*
X13991000Y-10720000D02*
X14061000Y-10720000D01*
X14026000Y-12435000D02*
X14026000Y-12505000D01*
X13991000Y-12470000D02*
X14061000Y-12470000D01*
X14026000Y-12685000D02*
X14026000Y-12755000D01*
X13991000Y-12720000D02*
X14061000Y-12720000D01*
X14126000Y-6235000D02*
X14126000Y-6305000D01*
X14091000Y-6270000D02*
X14161000Y-6270000D01*
X14126000Y-6885000D02*
X14126000Y-6955000D01*
X14091000Y-6920000D02*
X14161000Y-6920000D01*
X14126000Y-8235000D02*
X14126000Y-8305000D01*
X14091000Y-8270000D02*
X14161000Y-8270000D01*
X14126000Y-8885000D02*
X14126000Y-8955000D01*
X14091000Y-8920000D02*
X14161000Y-8920000D01*
X14126000Y-10235000D02*
X14126000Y-10305000D01*
X14091000Y-10270000D02*
X14161000Y-10270000D01*
X14126000Y-10885000D02*
X14126000Y-10955000D01*
X14091000Y-10920000D02*
X14161000Y-10920000D01*
X14126000Y-12235000D02*
X14126000Y-12305000D01*
X14091000Y-12270000D02*
X14161000Y-12270000D01*
X14126000Y-12885000D02*
X14126000Y-12955000D01*
X14091000Y-12920000D02*
X14161000Y-12920000D01*
X14226000Y-6435000D02*
X14226000Y-6505000D01*
X14191000Y-6470000D02*
X14261000Y-6470000D01*
X14226000Y-6685000D02*
X14226000Y-6755000D01*
X14191000Y-6720000D02*
X14261000Y-6720000D01*
X14226000Y-8435000D02*
X14226000Y-8505000D01*
X14191000Y-8470000D02*
X14261000Y-8470000D01*
X14226000Y-8685000D02*
X14226000Y-8755000D01*
X14191000Y-8720000D02*
X14261000Y-8720000D01*
X14226000Y-10435000D02*
X14226000Y-10505000D01*
X14191000Y-10470000D02*
X14261000Y-10470000D01*
X14226000Y-10685000D02*
X14226000Y-10755000D01*
X14191000Y-10720000D02*
X14261000Y-10720000D01*
X14226000Y-12435000D02*
X14226000Y-12505000D01*
X14191000Y-12470000D02*
X14261000Y-12470000D01*
X14226000Y-12685000D02*
X14226000Y-12755000D01*
X14191000Y-12720000D02*
X14261000Y-12720000D01*
X14326000Y-6235000D02*
X14326000Y-6305000D01*
X14291000Y-6270000D02*
X14361000Y-6270000D01*
X14326000Y-6885000D02*
X14326000Y-6955000D01*
X14291000Y-6920000D02*
X14361000Y-6920000D01*
X14326000Y-8235000D02*
X14326000Y-8305000D01*
X14291000Y-8270000D02*
X14361000Y-8270000D01*
X14326000Y-8885000D02*
X14326000Y-8955000D01*
X14291000Y-8920000D02*
X14361000Y-8920000D01*
X14326000Y-10235000D02*
X14326000Y-10305000D01*
X14291000Y-10270000D02*
X14361000Y-10270000D01*
X14326000Y-10885000D02*
X14326000Y-10955000D01*
X14291000Y-10920000D02*
X14361000Y-10920000D01*
X14326000Y-12235000D02*
X14326000Y-12305000D01*
X14291000Y-12270000D02*
X14361000Y-12270000D01*
X14326000Y-12885000D02*
X14326000Y-12955000D01*
X14291000Y-12920000D02*
X14361000Y-12920000D01*
X14426000Y-6435000D02*
X14426000Y-6505000D01*
X14391000Y-6470000D02*
X14461000Y-6470000D01*
X14426000Y-6685000D02*
X14426000Y-6755000D01*
X14391000Y-6720000D02*
X14461000Y-6720000D01*
X14426000Y-8435000D02*
X14426000Y-8505000D01*
X14391000Y-8470000D02*
X14461000Y-8470000D01*
X14426000Y-8685000D02*
X14426000Y-8755000D01*
X14391000Y-8720000D02*
X14461000Y-8720000D01*
X14426000Y-10435000D02*
X14426000Y-10505000D01*
X14391000Y-10470000D02*
X14461000Y-10470000D01*
X14426000Y-10685000D02*
X14426000Y-10755000D01*
X14391000Y-10720000D02*
X14461000Y-10720000D01*
X14426000Y-12435000D02*
X14426000Y-12505000D01*
X14391000Y-12470000D02*
X14461000Y-12470000D01*
X14426000Y-12685000D02*
X14426000Y-12755000D01*
X14391000Y-12720000D02*
X14461000Y-12720000D01*
X14526000Y-6235000D02*
X14526000Y-6305000D01*
X14491000Y-6270000D02*
X14561000Y-6270000D01*
X14526000Y-6885000D02*
X14526000Y-6955000D01*
X14491000Y-6920000D02*
X14561000Y-6920000D01*
X14526000Y-8235000D02*
X14526000Y-8305000D01*
X14491000Y-8270000D02*
X14561000Y-8270000D01*
X14526000Y-8885000D02*
X14526000Y-8955000D01*
X14491000Y-8920000D02*
X14561000Y-8920000D01*
X14526000Y-10235000D02*
X14526000Y-10305000D01*
X14491000Y-10270000D02*
X14561000Y-10270000D01*
X14526000Y-10885000D02*
X14526000Y-10955000D01*
X14491000Y-10920000D02*
X14561000Y-10920000D01*
X14526000Y-12235000D02*
X14526000Y-12305000D01*
X14491000Y-12270000D02*
X14561000Y-12270000D01*
X14526000Y-12885000D02*
X14526000Y-12955000D01*
X14491000Y-12920000D02*
X14561000Y-12920000D01*
X14626000Y-6435000D02*
X14626000Y-6505000D01*
X14591000Y-6470000D02*
X14661000Y-6470000D01*
X14626000Y-6685000D02*
X14626000Y-6755000D01*
X14591000Y-6720000D02*
X14661000Y-6720000D01*
X14626000Y-8435000D02*
X14626000Y-8505000D01*
X14591000Y-8470000D02*
X14661000Y-8470000D01*
X14626000Y-8685000D02*
X14626000Y-8755000D01*
X14591000Y-8720000D02*
X14661000Y-8720000D01*
X14626000Y-10435000D02*
X14626000Y-10505000D01*
X14591000Y-10470000D02*
X14661000Y-10470000D01*
X14626000Y-10685000D02*
X14626000Y-10755000D01*
X14591000Y-10720000D02*
X14661000Y-10720000D01*
X14626000Y-12435000D02*
X14626000Y-12505000D01*
X14591000Y-12470000D02*
X14661000Y-12470000D01*
X14626000Y-12685000D02*
X14626000Y-12755000D01*
X14591000Y-12720000D02*
X14661000Y-12720000D01*
X14726000Y-6235000D02*
X14726000Y-6305000D01*
X14691000Y-6270000D02*
X14761000Y-6270000D01*
X14726000Y-6885000D02*
X14726000Y-6955000D01*
X14691000Y-6920000D02*
X14761000Y-6920000D01*
X14726000Y-8235000D02*
X14726000Y-8305000D01*
X14691000Y-8270000D02*
X14761000Y-8270000D01*
X14726000Y-8885000D02*
X14726000Y-8955000D01*
X14691000Y-8920000D02*
X14761000Y-8920000D01*
X14726000Y-10235000D02*
X14726000Y-10305000D01*
X14691000Y-10270000D02*
X14761000Y-10270000D01*
X14726000Y-10885000D02*
X14726000Y-10955000D01*
X14691000Y-10920000D02*
X14761000Y-10920000D01*
X14726000Y-12235000D02*
X14726000Y-12305000D01*
X14691000Y-12270000D02*
X14761000Y-12270000D01*
X14726000Y-12885000D02*
X14726000Y-12955000D01*
X14691000Y-12920000D02*
X14761000Y-12920000D01*
X14826000Y-6435000D02*
X14826000Y-6505000D01*
X14791000Y-6470000D02*
X14861000Y-6470000D01*
X14826000Y-6685000D02*
X14826000Y-6755000D01*
X14791000Y-6720000D02*
X14861000Y-6720000D01*
X14826000Y-8435000D02*
X14826000Y-8505000D01*
X14791000Y-8470000D02*
X14861000Y-8470000D01*
X14826000Y-8685000D02*
X14826000Y-8755000D01*
X14791000Y-8720000D02*
X14861000Y-8720000D01*
X14826000Y-10435000D02*
X14826000Y-10505000D01*
X14791000Y-10470000D02*
X14861000Y-10470000D01*
X14826000Y-10685000D02*
X14826000Y-10755000D01*
X14791000Y-10720000D02*
X14861000Y-10720000D01*
X14826000Y-12435000D02*
X14826000Y-12505000D01*
X14791000Y-12470000D02*
X14861000Y-12470000D01*
X14826000Y-12685000D02*
X14826000Y-12755000D01*
X14791000Y-12720000D02*
X14861000Y-12720000D01*
X14926000Y-6235000D02*
X14926000Y-6305000D01*
X14891000Y-6270000D02*
X14961000Y-6270000D01*
X14926000Y-6885000D02*
X14926000Y-6955000D01*
X14891000Y-6920000D02*
X14961000Y-6920000D01*
X14926000Y-8235000D02*
X14926000Y-8305000D01*
X14891000Y-8270000D02*
X14961000Y-8270000D01*
X14926000Y-8885000D02*
X14926000Y-8955000D01*
X14891000Y-8920000D02*
X14961000Y-8920000D01*
X14926000Y-10235000D02*
X14926000Y-10305000D01*
X14891000Y-10270000D02*
X14961000Y-10270000D01*
X14926000Y-10885000D02*
X14926000Y-10955000D01*
X14891000Y-10920000D02*
X14961000Y-10920000D01*
X14926000Y-12235000D02*
X14926000Y-12305000D01*
X14891000Y-12270000D02*
X14961000Y-12270000D01*
X14926000Y-12885000D02*
X14926000Y-12955000D01*
X14891000Y-12920000D02*
X14961000Y-12920000D01*
X15026000Y-6435000D02*
X15026000Y-6505000D01*
X14991000Y-6470000D02*
X15061000Y-6470000D01*
X15026000Y-6685000D02*
X15026000Y-6755000D01*
X14991000Y-6720000D02*
X15061000Y-6720000D01*
X15026000Y-8435000D02*
X15026000Y-8505000D01*
X14991000Y-8470000D02*
X15061000Y-8470000D01*
X15026000Y-8685000D02*
X15026000Y-8755000D01*
X14991000Y-8720000D02*
X15061000Y-8720000D01*
X15026000Y-10435000D02*
X15026000Y-10505000D01*
X14991000Y-10470000D02*
X15061000Y-10470000D01*
X15026000Y-10685000D02*
X15026000Y-10755000D01*
X14991000Y-10720000D02*
X15061000Y-10720000D01*
X15026000Y-12435000D02*
X15026000Y-12505000D01*
X14991000Y-12470000D02*
X15061000Y-12470000D01*
X15026000Y-12685000D02*
X15026000Y-12755000D01*
X14991000Y-12720000D02*
X15061000Y-12720000D01*
X15126000Y-6235000D02*
X15126000Y-6305000D01*
X15091000Y-6270000D02*
X15161000Y-6270000D01*
X15126000Y-6885000D02*
X15126000Y-6955000D01*
X15091000Y-6920000D02*
X15161000Y-6920000D01*
X15126000Y-8235000D02*
X15126000Y-8305000D01*
X15091000Y-8270000D02*
X15161000Y-8270000D01*
X15126000Y-8885000D02*
X15126000Y-8955000D01*
X15091000Y-8920000D02*
X15161000Y-8920000D01*
X15126000Y-10235000D02*
X15126000Y-10305000D01*
X15091000Y-10270000D02*
X15161000Y-10270000D01*
X15126000Y-10885000D02*
X15126000Y-10955000D01*
X15091000Y-10920000D02*
X15161000Y-10920000D01*
X15126000Y-12235000D02*
X15126000Y-12305000D01*
X15091000Y-12270000D02*
X15161000Y-12270000D01*
X15126000Y-12885000D02*
X15126000Y-12955000D01*
X15091000Y-12920000D02*
X15161000Y-12920000D01*
X15226000Y-6435000D02*
X15226000Y-6505000D01*
X15191000Y-6470000D02*
X15261000Y-6470000D01*
X15226000Y-6685000D02*
X15226000Y-6755000D01*
X15191000Y-6720000D02*
X15261000Y-6720000D01*
X15226000Y-8435000D02*
X15226000Y-8505000D01*
X15191000Y-8470000D02*
X15261000Y-8470000D01*
X15226000Y-8685000D02*
X15226000Y-8755000D01*
X15191000Y-8720000D02*
X15261000Y-8720000D01*
X15226000Y-10435000D02*
X15226000Y-10505000D01*
X15191000Y-10470000D02*
X15261000Y-10470000D01*
X15226000Y-10685000D02*
X15226000Y-10755000D01*
X15191000Y-10720000D02*
X15261000Y-10720000D01*
X15226000Y-12435000D02*
X15226000Y-12505000D01*
X15191000Y-12470000D02*
X15261000Y-12470000D01*
X15226000Y-12685000D02*
X15226000Y-12755000D01*
X15191000Y-12720000D02*
X15261000Y-12720000D01*
X15326000Y-6235000D02*
X15326000Y-6305000D01*
X15291000Y-6270000D02*
X15361000Y-6270000D01*
X15326000Y-6885000D02*
X15326000Y-6955000D01*
X15291000Y-6920000D02*
X15361000Y-6920000D01*
X15326000Y-8235000D02*
X15326000Y-8305000D01*
X15291000Y-8270000D02*
X15361000Y-8270000D01*
X15326000Y-8885000D02*
X15326000Y-8955000D01*
X15291000Y-8920000D02*
X15361000Y-8920000D01*
X15326000Y-10235000D02*
X15326000Y-10305000D01*
X15291000Y-10270000D02*
X15361000Y-10270000D01*
X15326000Y-10885000D02*
X15326000Y-10955000D01*
X15291000Y-10920000D02*
X15361000Y-10920000D01*
X15326000Y-12235000D02*
X15326000Y-12305000D01*
X15291000Y-12270000D02*
X15361000Y-12270000D01*
X15326000Y-12885000D02*
X15326000Y-12955000D01*
X15291000Y-12920000D02*
X15361000Y-12920000D01*
X15426000Y-6435000D02*
X15426000Y-6505000D01*
X15391000Y-6470000D02*
X15461000Y-6470000D01*
X15426000Y-6685000D02*
X15426000Y-6755000D01*
X15391000Y-6720000D02*
X15461000Y-6720000D01*
X15426000Y-8435000D02*
X15426000Y-8505000D01*
X15391000Y-8470000D02*
X15461000Y-8470000D01*
X15426000Y-8685000D02*
X15426000Y-8755000D01*
X15391000Y-8720000D02*
X15461000Y-8720000D01*
X15426000Y-10435000D02*
X15426000Y-10505000D01*
X15391000Y-10470000D02*
X15461000Y-10470000D01*
X15426000Y-10685000D02*
X15426000Y-10755000D01*
X15391000Y-10720000D02*
X15461000Y-10720000D01*
X15426000Y-12435000D02*
X15426000Y-12505000D01*
X15391000Y-12470000D02*
X15461000Y-12470000D01*
X15426000Y-12685000D02*
X15426000Y-12755000D01*
X15391000Y-12720000D02*
X15461000Y-12720000D01*
X15526000Y-6235000D02*
X15526000Y-6305000D01*
X15491000Y-6270000D02*
X15561000Y-6270000D01*
X15526000Y-6885000D02*
X15526000Y-6955000D01*
X15491000Y-6920000D02*
X15561000Y-6920000D01*
X15526000Y-8235000D02*
X15526000Y-8305000D01*
X15491000Y-8270000D02*
X15561000Y-8270000D01*
X15526000Y-8885000D02*
X15526000Y-8955000D01*
X15491000Y-8920000D02*
X15561000Y-8920000D01*
X15526000Y-10235000D02*
X15526000Y-10305000D01*
X15491000Y-10270000D02*
X15561000Y-10270000D01*
X15526000Y-10885000D02*
X15526000Y-10955000D01*
X15491000Y-10920000D02*
X15561000Y-10920000D01*
X15526000Y-12235000D02*
X15526000Y-12305000D01*
X15491000Y-12270000D02*
X15561000Y-12270000D01*
X15526000Y-12885000D02*
X15526000Y-12955000D01*
X15491000Y-12920000D02*
X15561000Y-12920000D01*
X15626000Y-6435000D02*
X15626000Y-6505000D01*
X15591000Y-6470000D02*
X15661000Y-6470000D01*
X15626000Y-6685000D02*
X15626000Y-6755000D01*
X15591000Y-6720000D02*
X15661000Y-6720000D01*
X15626000Y-8435000D02*
X15626000Y-8505000D01*
X15591000Y-8470000D02*
X15661000Y-8470000D01*
X15626000Y-8685000D02*
X15626000Y-8755000D01*
X15591000Y-8720000D02*
X15661000Y-8720000D01*
X15626000Y-10435000D02*
X15626000Y-10505000D01*
X15591000Y-10470000D02*
X15661000Y-10470000D01*
X15626000Y-10685000D02*
X15626000Y-10755000D01*
X15591000Y-10720000D02*
X15661000Y-10720000D01*
X15626000Y-12435000D02*
X15626000Y-12505000D01*
X15591000Y-12470000D02*
X15661000Y-12470000D01*
X15626000Y-12685000D02*
X15626000Y-12755000D01*
X15591000Y-12720000D02*
X15661000Y-12720000D01*
X15726000Y-6235000D02*
X15726000Y-6305000D01*
X15691000Y-6270000D02*
X15761000Y-6270000D01*
X15726000Y-6885000D02*
X15726000Y-6955000D01*
X15691000Y-6920000D02*
X15761000Y-6920000D01*
X15726000Y-8235000D02*
X15726000Y-8305000D01*
X15691000Y-8270000D02*
X15761000Y-8270000D01*
X15726000Y-8885000D02*
X15726000Y-8955000D01*
X15691000Y-8920000D02*
X15761000Y-8920000D01*
X15726000Y-10235000D02*
X15726000Y-10305000D01*
X15691000Y-10270000D02*
X15761000Y-10270000D01*
X15726000Y-10885000D02*
X15726000Y-10955000D01*
X15691000Y-10920000D02*
X15761000Y-10920000D01*
X15726000Y-12235000D02*
X15726000Y-12305000D01*
X15691000Y-12270000D02*
X15761000Y-12270000D01*
X15726000Y-12885000D02*
X15726000Y-12955000D01*
X15691000Y-12920000D02*
X15761000Y-12920000D01*
X15826000Y-6435000D02*
X15826000Y-6505000D01*
X15791000Y-6470000D02*
X15861000Y-6470000D01*
X15826000Y-6685000D02*
X15826000Y-6755000D01*
X15791000Y-6720000D02*
X15861000Y-6720000D01*
X15826000Y-8435000D02*
X15826000Y-8505000D01*
X15791000Y-8470000D02*
X15861000Y-8470000D01*
X15826000Y-8685000D02*
X15826000Y-8755000D01*
X15791000Y-8720000D02*
X15861000Y-8720000D01*
X15826000Y-10435000D02*
X15826000Y-10505000D01*
X15791000Y-10470000D02*
X15861000Y-10470000D01*
X15826000Y-10685000D02*
X15826000Y-10755000D01*
X15791000Y-10720000D02*
X15861000Y-10720000D01*
X15826000Y-12435000D02*
X15826000Y-12505000D01*
X15791000Y-12470000D02*
X15861000Y-12470000D01*
X15826000Y-12685000D02*
X15826000Y-12755000D01*
X15791000Y-12720000D02*
X15861000Y-12720000D01*
X15926000Y-6235000D02*
X15926000Y-6305000D01*
X15891000Y-6270000D02*
X15961000Y-6270000D01*
X15926000Y-6885000D02*
X15926000Y-6955000D01*
X15891000Y-6920000D02*
X15961000Y-6920000D01*
X15926000Y-8235000D02*
X15926000Y-8305000D01*
X15891000Y-8270000D02*
X15961000Y-8270000D01*
X15926000Y-8885000D02*
X15926000Y-8955000D01*
X15891000Y-8920000D02*
X15961000Y-8920000D01*
X15926000Y-10235000D02*
X15926000Y-10305000D01*
X15891000Y-10270000D02*
X15961000Y-10270000D01*
X15926000Y-10885000D02*
X15926000Y-10955000D01*
X15891000Y-10920000D02*
X15961000Y-10920000D01*
X15926000Y-12235000D02*
X15926000Y-12305000D01*
X15891000Y-12270000D02*
X15961000Y-12270000D01*
X15926000Y-12885000D02*
X15926000Y-12955000D01*
X15891000Y-12920000D02*
X15961000Y-12920000D01*
X16026000Y-6435000D02*
X16026000Y-6505000D01*
X15991000Y-6470000D02*
X16061000Y-6470000D01*
X16026000Y-6685000D02*
X16026000Y-6755000D01*
X15991000Y-6720000D02*
X16061000Y-6720000D01*
X16026000Y-8435000D02*
X16026000Y-8505000D01*
X15991000Y-8470000D02*
X16061000Y-8470000D01*
X16026000Y-8685000D02*
X16026000Y-8755000D01*
X15991000Y-8720000D02*
X16061000Y-8720000D01*
X16026000Y-10435000D02*
X16026000Y-10505000D01*
X15991000Y-10470000D02*
X16061000Y-10470000D01*
X16026000Y-10685000D02*
X16026000Y-10755000D01*
X15991000Y-10720000D02*
X16061000Y-10720000D01*
X16026000Y-12435000D02*
X16026000Y-12505000D01*
X15991000Y-12470000D02*
X16061000Y-12470000D01*
X16026000Y-12685000D02*
X16026000Y-12755000D01*
X15991000Y-12720000D02*
X16061000Y-12720000D01*
X16126000Y-6235000D02*
X16126000Y-6305000D01*
X16091000Y-6270000D02*
X16161000Y-6270000D01*
X16126000Y-6885000D02*
X16126000Y-6955000D01*
X16091000Y-6920000D02*
X16161000Y-6920000D01*
X16126000Y-8235000D02*
X16126000Y-8305000D01*
X16091000Y-8270000D02*
X16161000Y-8270000D01*
X16126000Y-8885000D02*
X16126000Y-8955000D01*
X16091000Y-8920000D02*
X16161000Y-8920000D01*
X16126000Y-10235000D02*
X16126000Y-10305000D01*
X16091000Y-10270000D02*
X16161000Y-10270000D01*
X16126000Y-10885000D02*
X16126000Y-10955000D01*
X16091000Y-10920000D02*
X16161000Y-10920000D01*
X16126000Y-12235000D02*
X16126000Y-12305000D01*
X16091000Y-12270000D02*
X16161000Y-12270000D01*
X16126000Y-12885000D02*
X16126000Y-12955000D01*
X16091000Y-12920000D02*
X16161000Y-12920000D01*
X16226000Y-6435000D02*
X16226000Y-6505000D01*
X16191000Y-6470000D02*
X16261000Y-6470000D01*
X16226000Y-6685000D02*
X16226000Y-6755000D01*
X16191000Y-6720000D02*
X16261000Y-6720000D01*
X16226000Y-8435000D02*
X16226000Y-8505000D01*
X16191000Y-8470000D02*
X16261000Y-8470000D01*
X16226000Y-8685000D02*
X16226000Y-8755000D01*
X16191000Y-8720000D02*
X16261000Y-8720000D01*
X16226000Y-10435000D02*
X16226000Y-10505000D01*
X16191000Y-10470000D02*
X16261000Y-10470000D01*
X16226000Y-10685000D02*
X16226000Y-10755000D01*
X16191000Y-10720000D02*
X16261000Y-10720000D01*
X16226000Y-12435000D02*
X16226000Y-12505000D01*
X16191000Y-12470000D02*
X16261000Y-12470000D01*
X16226000Y-12685000D02*
X16226000Y-12755000D01*
X16191000Y-12720000D02*
X16261000Y-12720000D01*
X16326000Y-6235000D02*
X16326000Y-6305000D01*
X16291000Y-6270000D02*
X16361000Y-6270000D01*
X16326000Y-6885000D02*
X16326000Y-6955000D01*
X16291000Y-6920000D02*
X16361000Y-6920000D01*
X16326000Y-8235000D02*
X16326000Y-8305000D01*
X16291000Y-8270000D02*
X16361000Y-8270000D01*
X16326000Y-8885000D02*
X16326000Y-8955000D01*
X16291000Y-8920000D02*
X16361000Y-8920000D01*
X16326000Y-10235000D02*
X16326000Y-10305000D01*
X16291000Y-10270000D02*
X16361000Y-10270000D01*
X16326000Y-10885000D02*
X16326000Y-10955000D01*
X16291000Y-10920000D02*
X16361000Y-10920000D01*
X16326000Y-12235000D02*
X16326000Y-12305000D01*
X16291000Y-12270000D02*
X16361000Y-12270000D01*
X16326000Y-12885000D02*
X16326000Y-12955000D01*
X16291000Y-12920000D02*
X16361000Y-12920000D01*
X16426000Y-6435000D02*
X16426000Y-6505000D01*
X16391000Y-6470000D02*
X16461000Y-6470000D01*
X16426000Y-6685000D02*
X16426000Y-6755000D01*
X16391000Y-6720000D02*
X16461000Y-6720000D01*
X16426000Y-8435000D02*
X16426000Y-8505000D01*
X16391000Y-8470000D02*
X16461000Y-8470000D01*
X16426000Y-8685000D02*
X16426000Y-8755000D01*
X16391000Y-8720000D02*
X16461000Y-8720000D01*
X16426000Y-10435000D02*
X16426000Y-10505000D01*
X16391000Y-10470000D02*
X16461000Y-10470000D01*
X16426000Y-10685000D02*
X16426000Y-10755000D01*
X16391000Y-10720000D02*
X16461000Y-10720000D01*
X16426000Y-12435000D02*
X16426000Y-12505000D01*
X16391000Y-12470000D02*
X16461000Y-12470000D01*
X16426000Y-12685000D02*
X16426000Y-12755000D01*
X16391000Y-12720000D02*
X16461000Y-12720000D01*
X16526000Y-6235000D02*
X16526000Y-6305000D01*
X16491000Y-6270000D02*
X16561000Y-6270000D01*
X16526000Y-6885000D02*
X16526000Y-6955000D01*
X16491000Y-6920000D02*
X16561000Y-6920000D01*
X16526000Y-8235000D02*
X16526000Y-8305000D01*
X16491000Y-8270000D02*
X16561000Y-8270000D01*
X16526000Y-8885000D02*
X16526000Y-8955000D01*
X16491000Y-8920000D02*
X16561000Y-8920000D01*
X16526000Y-10235000D02*
X16526000Y-10305000D01*
X16491000Y-10270000D02*
X16561000Y-10270000D01*
X16526000Y-10885000D02*
X16526000Y-10955000D01*
X16491000Y-10920000D02*
X16561000Y-10920000D01*
X16526000Y-12235000D02*
X16526000Y-12305000D01*
X16491000Y-12270000D02*
X16561000Y-12270000D01*
X16526000Y-12885000D02*
X16526000Y-12955000D01*
X16491000Y-12920000D02*
X16561000Y-12920000D01*
X16626000Y-6435000D02*
X16626000Y-6505000D01*
X16591000Y-6470000D02*
X16661000Y-6470000D01*
X16626000Y-6685000D02*
X16626000Y-6755000D01*
X16591000Y-6720000D02*
X16661000Y-6720000D01*
X16626000Y-8435000D02*
X16626000Y-8505000D01*
X16591000Y-8470000D02*
X16661000Y-8470000D01*
X16626000Y-8685000D02*
X16626000Y-8755000D01*
X16591000Y-8720000D02*
X16661000Y-8720000D01*
X16626000Y-10435000D02*
X16626000Y-10505000D01*
X16591000Y-10470000D02*
X16661000Y-10470000D01*
X16626000Y-10685000D02*
X16626000Y-10755000D01*
X16591000Y-10720000D02*
X16661000Y-10720000D01*
X16626000Y-12435000D02*
X16626000Y-12505000D01*
X16591000Y-12470000D02*
X16661000Y-12470000D01*
X16626000Y-12685000D02*
X16626000Y-12755000D01*
X16591000Y-12720000D02*
X16661000Y-12720000D01*
X16726000Y-6235000D02*
X16726000Y-6305000D01*
X16691000Y-6270000D02*
X16761000Y-6270000D01*
X16726000Y-6885000D02*
X16726000Y-6955000D01*
X16691000Y-6920000D02*
X16761000Y-6920000D01*
X16726000Y-8235000D02*
X16726000Y-8305000D01*
X16691000Y-8270000D02*
X16761000Y-8270000D01*
X16726000Y-8885000D02*
X16726000Y-8955000D01*
X16691000Y-8920000D02*
X16761000Y-8920000D01*
X16726000Y-10235000D02*
X16726000Y-10305000D01*
X16691000Y-10270000D02*
X16761000Y-10270000D01*
X16726000Y-10885000D02*
X16726000Y-10955000D01*
X16691000Y-10920000D02*
X16761000Y-10920000D01*
X16726000Y-12235000D02*
X16726000Y-12305000D01*
X16691000Y-12270000D02*
X16761000Y-12270000D01*
X16726000Y-12885000D02*
X16726000Y-12955000D01*
X16691000Y-12920000D02*
X16761000Y-12920000D01*
X16826000Y-6435000D02*
X16826000Y-6505000D01*
X16791000Y-6470000D02*
X16861000Y-6470000D01*
X16826000Y-6685000D02*
X16826000Y-6755000D01*
X16791000Y-6720000D02*
X16861000Y-6720000D01*
X16826000Y-8435000D02*
X16826000Y-8505000D01*
X16791000Y-8470000D02*
X16861000Y-8470000D01*
X16826000Y-8685000D02*
X16826000Y-8755000D01*
X16791000Y-8720000D02*
X16861000Y-8720000D01*
X16826000Y-10435000D02*
X16826000Y-10505000D01*
X16791000Y-10470000D02*
X16861000Y-10470000D01*
X16826000Y-10685000D02*
X16826000Y-10755000D01*
X16791000Y-10720000D02*
X16861000Y-10720000D01*
X16826000Y-12435000D02*
X16826000Y-12505000D01*
X16791000Y-12470000D02*
X16861000Y-12470000D01*
X16826000Y-12685000D02*
X16826000Y-12755000D01*
X16791000Y-12720000D02*
X16861000Y-12720000D01*
D15*
X10889138Y-5849638D02*
X10889138Y-5623362D01*
X10662862Y-5623362D01*
X10662862Y-5849638D01*
X10889138Y-5849638D01*
X18489138Y-5849638D02*
X18489138Y-5623362D01*
X18262862Y-5623362D01*
X18262862Y-5849638D01*
X18489138Y-5849638D01*
D11*
X10616777Y-16097984D02*
X10616777Y-15897984D01*
X10616777Y-15897984D02*
X10664396Y-15897984D01*
X10664396Y-15897984D02*
X10692967Y-15907508D01*
X10692967Y-15907508D02*
X10712015Y-15926555D01*
X10712015Y-15926555D02*
X10721539Y-15945603D01*
X10721539Y-15945603D02*
X10731063Y-15983698D01*
X10731063Y-15983698D02*
X10731063Y-16012269D01*
X10731063Y-16012269D02*
X10721539Y-16050365D01*
X10721539Y-16050365D02*
X10712015Y-16069412D01*
X10712015Y-16069412D02*
X10692967Y-16088460D01*
X10692967Y-16088460D02*
X10664396Y-16097984D01*
X10664396Y-16097984D02*
X10616777Y-16097984D01*
X10816777Y-16097984D02*
X10816777Y-15964650D01*
X10816777Y-16002746D02*
X10826301Y-15983698D01*
X10826301Y-15983698D02*
X10835824Y-15974174D01*
X10835824Y-15974174D02*
X10854872Y-15964650D01*
X10854872Y-15964650D02*
X10873920Y-15964650D01*
X10940586Y-16097984D02*
X10940586Y-15964650D01*
X10940586Y-15897984D02*
X10931063Y-15907508D01*
X10931063Y-15907508D02*
X10940586Y-15917031D01*
X10940586Y-15917031D02*
X10950110Y-15907508D01*
X10950110Y-15907508D02*
X10940586Y-15897984D01*
X10940586Y-15897984D02*
X10940586Y-15917031D01*
X11064396Y-16097984D02*
X11045348Y-16088460D01*
X11045348Y-16088460D02*
X11035824Y-16069412D01*
X11035824Y-16069412D02*
X11035824Y-15897984D01*
X11169158Y-16097984D02*
X11150110Y-16088460D01*
X11150110Y-16088460D02*
X11140586Y-16069412D01*
X11140586Y-16069412D02*
X11140586Y-15897984D01*
X11397729Y-16097984D02*
X11397729Y-15897984D01*
X11397729Y-15897984D02*
X11464396Y-16040841D01*
X11464396Y-16040841D02*
X11531062Y-15897984D01*
X11531062Y-15897984D02*
X11531062Y-16097984D01*
X11712015Y-16097984D02*
X11712015Y-15993222D01*
X11712015Y-15993222D02*
X11702491Y-15974174D01*
X11702491Y-15974174D02*
X11683443Y-15964650D01*
X11683443Y-15964650D02*
X11645348Y-15964650D01*
X11645348Y-15964650D02*
X11626301Y-15974174D01*
X11712015Y-16088460D02*
X11692967Y-16097984D01*
X11692967Y-16097984D02*
X11645348Y-16097984D01*
X11645348Y-16097984D02*
X11626301Y-16088460D01*
X11626301Y-16088460D02*
X11616777Y-16069412D01*
X11616777Y-16069412D02*
X11616777Y-16050365D01*
X11616777Y-16050365D02*
X11626301Y-16031317D01*
X11626301Y-16031317D02*
X11645348Y-16021793D01*
X11645348Y-16021793D02*
X11692967Y-16021793D01*
X11692967Y-16021793D02*
X11712015Y-16012269D01*
X11807253Y-15964650D02*
X11807253Y-16164650D01*
X11807253Y-15974174D02*
X11826301Y-15964650D01*
X11826301Y-15964650D02*
X11864396Y-15964650D01*
X11864396Y-15964650D02*
X11883443Y-15974174D01*
X11883443Y-15974174D02*
X11892967Y-15983698D01*
X11892967Y-15983698D02*
X11902491Y-16002746D01*
X11902491Y-16002746D02*
X11902491Y-16059888D01*
X11902491Y-16059888D02*
X11892967Y-16078936D01*
X11892967Y-16078936D02*
X11883443Y-16088460D01*
X11883443Y-16088460D02*
X11864396Y-16097984D01*
X11864396Y-16097984D02*
X11826301Y-16097984D01*
X11826301Y-16097984D02*
X11807253Y-16088460D01*
X11988205Y-16078936D02*
X11997729Y-16088460D01*
X11997729Y-16088460D02*
X11988205Y-16097984D01*
X11988205Y-16097984D02*
X11978682Y-16088460D01*
X11978682Y-16088460D02*
X11988205Y-16078936D01*
X11988205Y-16078936D02*
X11988205Y-16097984D01*
X11988205Y-15974174D02*
X11997729Y-15983698D01*
X11997729Y-15983698D02*
X11988205Y-15993222D01*
X11988205Y-15993222D02*
X11978682Y-15983698D01*
X11978682Y-15983698D02*
X11988205Y-15974174D01*
X11988205Y-15974174D02*
X11988205Y-15993222D01*
D12*
X10331000Y-16414000D02*
X10356000Y-16439000D01*
X10356000Y-16414000D02*
X10331000Y-16439000D01*
D11*
X10654872Y-16317984D02*
X10673920Y-16317984D01*
X10673920Y-16317984D02*
X10692967Y-16327508D01*
X10692967Y-16327508D02*
X10702491Y-16337031D01*
X10702491Y-16337031D02*
X10712015Y-16356079D01*
X10712015Y-16356079D02*
X10721539Y-16394174D01*
X10721539Y-16394174D02*
X10721539Y-16441793D01*
X10721539Y-16441793D02*
X10712015Y-16479888D01*
X10712015Y-16479888D02*
X10702491Y-16498936D01*
X10702491Y-16498936D02*
X10692967Y-16508460D01*
X10692967Y-16508460D02*
X10673920Y-16517984D01*
X10673920Y-16517984D02*
X10654872Y-16517984D01*
X10654872Y-16517984D02*
X10635824Y-16508460D01*
X10635824Y-16508460D02*
X10626301Y-16498936D01*
X10626301Y-16498936D02*
X10616777Y-16479888D01*
X10616777Y-16479888D02*
X10607253Y-16441793D01*
X10607253Y-16441793D02*
X10607253Y-16394174D01*
X10607253Y-16394174D02*
X10616777Y-16356079D01*
X10616777Y-16356079D02*
X10626301Y-16337031D01*
X10626301Y-16337031D02*
X10635824Y-16327508D01*
X10635824Y-16327508D02*
X10654872Y-16317984D01*
X10807253Y-16498936D02*
X10816777Y-16508460D01*
X10816777Y-16508460D02*
X10807253Y-16517984D01*
X10807253Y-16517984D02*
X10797729Y-16508460D01*
X10797729Y-16508460D02*
X10807253Y-16498936D01*
X10807253Y-16498936D02*
X10807253Y-16517984D01*
X10892967Y-16337031D02*
X10902491Y-16327508D01*
X10902491Y-16327508D02*
X10921539Y-16317984D01*
X10921539Y-16317984D02*
X10969158Y-16317984D01*
X10969158Y-16317984D02*
X10988205Y-16327508D01*
X10988205Y-16327508D02*
X10997729Y-16337031D01*
X10997729Y-16337031D02*
X11007253Y-16356079D01*
X11007253Y-16356079D02*
X11007253Y-16375127D01*
X11007253Y-16375127D02*
X10997729Y-16403698D01*
X10997729Y-16403698D02*
X10883444Y-16517984D01*
X10883444Y-16517984D02*
X11007253Y-16517984D01*
X11188205Y-16317984D02*
X11092967Y-16317984D01*
X11092967Y-16317984D02*
X11083444Y-16413222D01*
X11083444Y-16413222D02*
X11092967Y-16403698D01*
X11092967Y-16403698D02*
X11112015Y-16394174D01*
X11112015Y-16394174D02*
X11159634Y-16394174D01*
X11159634Y-16394174D02*
X11178682Y-16403698D01*
X11178682Y-16403698D02*
X11188205Y-16413222D01*
X11188205Y-16413222D02*
X11197729Y-16432269D01*
X11197729Y-16432269D02*
X11197729Y-16479888D01*
X11197729Y-16479888D02*
X11188205Y-16498936D01*
X11188205Y-16498936D02*
X11178682Y-16508460D01*
X11178682Y-16508460D02*
X11159634Y-16517984D01*
X11159634Y-16517984D02*
X11112015Y-16517984D01*
X11112015Y-16517984D02*
X11092967Y-16508460D01*
X11092967Y-16508460D02*
X11083444Y-16498936D01*
X11321539Y-16317984D02*
X11340586Y-16317984D01*
X11340586Y-16317984D02*
X11359634Y-16327508D01*
X11359634Y-16327508D02*
X11369158Y-16337031D01*
X11369158Y-16337031D02*
X11378682Y-16356079D01*
X11378682Y-16356079D02*
X11388205Y-16394174D01*
X11388205Y-16394174D02*
X11388205Y-16441793D01*
X11388205Y-16441793D02*
X11378682Y-16479888D01*
X11378682Y-16479888D02*
X11369158Y-16498936D01*
X11369158Y-16498936D02*
X11359634Y-16508460D01*
X11359634Y-16508460D02*
X11340586Y-16517984D01*
X11340586Y-16517984D02*
X11321539Y-16517984D01*
X11321539Y-16517984D02*
X11302491Y-16508460D01*
X11302491Y-16508460D02*
X11292967Y-16498936D01*
X11292967Y-16498936D02*
X11283443Y-16479888D01*
X11283443Y-16479888D02*
X11273920Y-16441793D01*
X11273920Y-16441793D02*
X11273920Y-16394174D01*
X11273920Y-16394174D02*
X11283443Y-16356079D01*
X11283443Y-16356079D02*
X11292967Y-16337031D01*
X11292967Y-16337031D02*
X11302491Y-16327508D01*
X11302491Y-16327508D02*
X11321539Y-16317984D01*
X11473920Y-16517984D02*
X11473920Y-16384650D01*
X11473920Y-16403698D02*
X11483443Y-16394174D01*
X11483443Y-16394174D02*
X11502491Y-16384650D01*
X11502491Y-16384650D02*
X11531063Y-16384650D01*
X11531063Y-16384650D02*
X11550110Y-16394174D01*
X11550110Y-16394174D02*
X11559634Y-16413222D01*
X11559634Y-16413222D02*
X11559634Y-16517984D01*
X11559634Y-16413222D02*
X11569158Y-16394174D01*
X11569158Y-16394174D02*
X11588205Y-16384650D01*
X11588205Y-16384650D02*
X11616777Y-16384650D01*
X11616777Y-16384650D02*
X11635824Y-16394174D01*
X11635824Y-16394174D02*
X11645348Y-16413222D01*
X11645348Y-16413222D02*
X11645348Y-16517984D01*
X11740586Y-16517984D02*
X11740586Y-16384650D01*
X11740586Y-16403698D02*
X11750110Y-16394174D01*
X11750110Y-16394174D02*
X11769158Y-16384650D01*
X11769158Y-16384650D02*
X11797729Y-16384650D01*
X11797729Y-16384650D02*
X11816777Y-16394174D01*
X11816777Y-16394174D02*
X11826301Y-16413222D01*
X11826301Y-16413222D02*
X11826301Y-16517984D01*
X11826301Y-16413222D02*
X11835824Y-16394174D01*
X11835824Y-16394174D02*
X11854872Y-16384650D01*
X11854872Y-16384650D02*
X11883443Y-16384650D01*
X11883443Y-16384650D02*
X11902491Y-16394174D01*
X11902491Y-16394174D02*
X11912015Y-16413222D01*
X11912015Y-16413222D02*
X11912015Y-16517984D01*
X12302491Y-16308460D02*
X12131063Y-16565603D01*
X12559634Y-16317984D02*
X12578682Y-16317984D01*
X12578682Y-16317984D02*
X12597729Y-16327508D01*
X12597729Y-16327508D02*
X12607253Y-16337031D01*
X12607253Y-16337031D02*
X12616777Y-16356079D01*
X12616777Y-16356079D02*
X12626301Y-16394174D01*
X12626301Y-16394174D02*
X12626301Y-16441793D01*
X12626301Y-16441793D02*
X12616777Y-16479888D01*
X12616777Y-16479888D02*
X12607253Y-16498936D01*
X12607253Y-16498936D02*
X12597729Y-16508460D01*
X12597729Y-16508460D02*
X12578682Y-16517984D01*
X12578682Y-16517984D02*
X12559634Y-16517984D01*
X12559634Y-16517984D02*
X12540586Y-16508460D01*
X12540586Y-16508460D02*
X12531063Y-16498936D01*
X12531063Y-16498936D02*
X12521539Y-16479888D01*
X12521539Y-16479888D02*
X12512015Y-16441793D01*
X12512015Y-16441793D02*
X12512015Y-16394174D01*
X12512015Y-16394174D02*
X12521539Y-16356079D01*
X12521539Y-16356079D02*
X12531063Y-16337031D01*
X12531063Y-16337031D02*
X12540586Y-16327508D01*
X12540586Y-16327508D02*
X12559634Y-16317984D01*
X12712015Y-16498936D02*
X12721539Y-16508460D01*
X12721539Y-16508460D02*
X12712015Y-16517984D01*
X12712015Y-16517984D02*
X12702491Y-16508460D01*
X12702491Y-16508460D02*
X12712015Y-16498936D01*
X12712015Y-16498936D02*
X12712015Y-16517984D01*
X12845348Y-16317984D02*
X12864396Y-16317984D01*
X12864396Y-16317984D02*
X12883444Y-16327508D01*
X12883444Y-16327508D02*
X12892967Y-16337031D01*
X12892967Y-16337031D02*
X12902491Y-16356079D01*
X12902491Y-16356079D02*
X12912015Y-16394174D01*
X12912015Y-16394174D02*
X12912015Y-16441793D01*
X12912015Y-16441793D02*
X12902491Y-16479888D01*
X12902491Y-16479888D02*
X12892967Y-16498936D01*
X12892967Y-16498936D02*
X12883444Y-16508460D01*
X12883444Y-16508460D02*
X12864396Y-16517984D01*
X12864396Y-16517984D02*
X12845348Y-16517984D01*
X12845348Y-16517984D02*
X12826301Y-16508460D01*
X12826301Y-16508460D02*
X12816777Y-16498936D01*
X12816777Y-16498936D02*
X12807253Y-16479888D01*
X12807253Y-16479888D02*
X12797729Y-16441793D01*
X12797729Y-16441793D02*
X12797729Y-16394174D01*
X12797729Y-16394174D02*
X12807253Y-16356079D01*
X12807253Y-16356079D02*
X12816777Y-16337031D01*
X12816777Y-16337031D02*
X12826301Y-16327508D01*
X12826301Y-16327508D02*
X12845348Y-16317984D01*
X13035825Y-16317984D02*
X13054872Y-16317984D01*
X13054872Y-16317984D02*
X13073920Y-16327508D01*
X13073920Y-16327508D02*
X13083444Y-16337031D01*
X13083444Y-16337031D02*
X13092967Y-16356079D01*
X13092967Y-16356079D02*
X13102491Y-16394174D01*
X13102491Y-16394174D02*
X13102491Y-16441793D01*
X13102491Y-16441793D02*
X13092967Y-16479888D01*
X13092967Y-16479888D02*
X13083444Y-16498936D01*
X13083444Y-16498936D02*
X13073920Y-16508460D01*
X13073920Y-16508460D02*
X13054872Y-16517984D01*
X13054872Y-16517984D02*
X13035825Y-16517984D01*
X13035825Y-16517984D02*
X13016777Y-16508460D01*
X13016777Y-16508460D02*
X13007253Y-16498936D01*
X13007253Y-16498936D02*
X12997729Y-16479888D01*
X12997729Y-16479888D02*
X12988206Y-16441793D01*
X12988206Y-16441793D02*
X12988206Y-16394174D01*
X12988206Y-16394174D02*
X12997729Y-16356079D01*
X12997729Y-16356079D02*
X13007253Y-16337031D01*
X13007253Y-16337031D02*
X13016777Y-16327508D01*
X13016777Y-16327508D02*
X13035825Y-16317984D01*
X13197729Y-16517984D02*
X13235825Y-16517984D01*
X13235825Y-16517984D02*
X13254872Y-16508460D01*
X13254872Y-16508460D02*
X13264396Y-16498936D01*
X13264396Y-16498936D02*
X13283444Y-16470365D01*
X13283444Y-16470365D02*
X13292967Y-16432269D01*
X13292967Y-16432269D02*
X13292967Y-16356079D01*
X13292967Y-16356079D02*
X13283444Y-16337031D01*
X13283444Y-16337031D02*
X13273920Y-16327508D01*
X13273920Y-16327508D02*
X13254872Y-16317984D01*
X13254872Y-16317984D02*
X13216777Y-16317984D01*
X13216777Y-16317984D02*
X13197729Y-16327508D01*
X13197729Y-16327508D02*
X13188206Y-16337031D01*
X13188206Y-16337031D02*
X13178682Y-16356079D01*
X13178682Y-16356079D02*
X13178682Y-16403698D01*
X13178682Y-16403698D02*
X13188206Y-16422746D01*
X13188206Y-16422746D02*
X13197729Y-16432269D01*
X13197729Y-16432269D02*
X13216777Y-16441793D01*
X13216777Y-16441793D02*
X13254872Y-16441793D01*
X13254872Y-16441793D02*
X13273920Y-16432269D01*
X13273920Y-16432269D02*
X13283444Y-16422746D01*
X13283444Y-16422746D02*
X13292967Y-16403698D01*
X13407253Y-16403698D02*
X13388206Y-16394174D01*
X13388206Y-16394174D02*
X13378682Y-16384650D01*
X13378682Y-16384650D02*
X13369158Y-16365603D01*
X13369158Y-16365603D02*
X13369158Y-16356079D01*
X13369158Y-16356079D02*
X13378682Y-16337031D01*
X13378682Y-16337031D02*
X13388206Y-16327508D01*
X13388206Y-16327508D02*
X13407253Y-16317984D01*
X13407253Y-16317984D02*
X13445348Y-16317984D01*
X13445348Y-16317984D02*
X13464396Y-16327508D01*
X13464396Y-16327508D02*
X13473920Y-16337031D01*
X13473920Y-16337031D02*
X13483444Y-16356079D01*
X13483444Y-16356079D02*
X13483444Y-16365603D01*
X13483444Y-16365603D02*
X13473920Y-16384650D01*
X13473920Y-16384650D02*
X13464396Y-16394174D01*
X13464396Y-16394174D02*
X13445348Y-16403698D01*
X13445348Y-16403698D02*
X13407253Y-16403698D01*
X13407253Y-16403698D02*
X13388206Y-16413222D01*
X13388206Y-16413222D02*
X13378682Y-16422746D01*
X13378682Y-16422746D02*
X13369158Y-16441793D01*
X13369158Y-16441793D02*
X13369158Y-16479888D01*
X13369158Y-16479888D02*
X13378682Y-16498936D01*
X13378682Y-16498936D02*
X13388206Y-16508460D01*
X13388206Y-16508460D02*
X13407253Y-16517984D01*
X13407253Y-16517984D02*
X13445348Y-16517984D01*
X13445348Y-16517984D02*
X13464396Y-16508460D01*
X13464396Y-16508460D02*
X13473920Y-16498936D01*
X13473920Y-16498936D02*
X13483444Y-16479888D01*
X13483444Y-16479888D02*
X13483444Y-16441793D01*
X13483444Y-16441793D02*
X13473920Y-16422746D01*
X13473920Y-16422746D02*
X13464396Y-16413222D01*
X13464396Y-16413222D02*
X13445348Y-16403698D01*
X13559634Y-16317984D02*
X13559634Y-16356079D01*
X13635825Y-16317984D02*
X13635825Y-16356079D01*
X13931063Y-16594174D02*
X13921539Y-16584650D01*
X13921539Y-16584650D02*
X13902491Y-16556079D01*
X13902491Y-16556079D02*
X13892968Y-16537031D01*
X13892968Y-16537031D02*
X13883444Y-16508460D01*
X13883444Y-16508460D02*
X13873920Y-16460841D01*
X13873920Y-16460841D02*
X13873920Y-16422746D01*
X13873920Y-16422746D02*
X13883444Y-16375127D01*
X13883444Y-16375127D02*
X13892968Y-16346555D01*
X13892968Y-16346555D02*
X13902491Y-16327508D01*
X13902491Y-16327508D02*
X13921539Y-16298936D01*
X13921539Y-16298936D02*
X13931063Y-16289412D01*
X14035825Y-16403698D02*
X14016777Y-16394174D01*
X14016777Y-16394174D02*
X14007253Y-16384650D01*
X14007253Y-16384650D02*
X13997729Y-16365603D01*
X13997729Y-16365603D02*
X13997729Y-16356079D01*
X13997729Y-16356079D02*
X14007253Y-16337031D01*
X14007253Y-16337031D02*
X14016777Y-16327508D01*
X14016777Y-16327508D02*
X14035825Y-16317984D01*
X14035825Y-16317984D02*
X14073920Y-16317984D01*
X14073920Y-16317984D02*
X14092968Y-16327508D01*
X14092968Y-16327508D02*
X14102491Y-16337031D01*
X14102491Y-16337031D02*
X14112015Y-16356079D01*
X14112015Y-16356079D02*
X14112015Y-16365603D01*
X14112015Y-16365603D02*
X14102491Y-16384650D01*
X14102491Y-16384650D02*
X14092968Y-16394174D01*
X14092968Y-16394174D02*
X14073920Y-16403698D01*
X14073920Y-16403698D02*
X14035825Y-16403698D01*
X14035825Y-16403698D02*
X14016777Y-16413222D01*
X14016777Y-16413222D02*
X14007253Y-16422746D01*
X14007253Y-16422746D02*
X13997729Y-16441793D01*
X13997729Y-16441793D02*
X13997729Y-16479888D01*
X13997729Y-16479888D02*
X14007253Y-16498936D01*
X14007253Y-16498936D02*
X14016777Y-16508460D01*
X14016777Y-16508460D02*
X14035825Y-16517984D01*
X14035825Y-16517984D02*
X14073920Y-16517984D01*
X14073920Y-16517984D02*
X14092968Y-16508460D01*
X14092968Y-16508460D02*
X14102491Y-16498936D01*
X14102491Y-16498936D02*
X14112015Y-16479888D01*
X14112015Y-16479888D02*
X14112015Y-16441793D01*
X14112015Y-16441793D02*
X14102491Y-16422746D01*
X14102491Y-16422746D02*
X14092968Y-16413222D01*
X14092968Y-16413222D02*
X14073920Y-16403698D01*
X14188206Y-16337031D02*
X14197729Y-16327508D01*
X14197729Y-16327508D02*
X14216777Y-16317984D01*
X14216777Y-16317984D02*
X14264396Y-16317984D01*
X14264396Y-16317984D02*
X14283444Y-16327508D01*
X14283444Y-16327508D02*
X14292968Y-16337031D01*
X14292968Y-16337031D02*
X14302491Y-16356079D01*
X14302491Y-16356079D02*
X14302491Y-16375127D01*
X14302491Y-16375127D02*
X14292968Y-16403698D01*
X14292968Y-16403698D02*
X14178682Y-16517984D01*
X14178682Y-16517984D02*
X14302491Y-16517984D01*
X14540587Y-16517984D02*
X14540587Y-16317984D01*
X14626301Y-16517984D02*
X14626301Y-16413222D01*
X14626301Y-16413222D02*
X14616777Y-16394174D01*
X14616777Y-16394174D02*
X14597730Y-16384650D01*
X14597730Y-16384650D02*
X14569158Y-16384650D01*
X14569158Y-16384650D02*
X14550110Y-16394174D01*
X14550110Y-16394174D02*
X14540587Y-16403698D01*
X14750110Y-16517984D02*
X14731063Y-16508460D01*
X14731063Y-16508460D02*
X14721539Y-16498936D01*
X14721539Y-16498936D02*
X14712015Y-16479888D01*
X14712015Y-16479888D02*
X14712015Y-16422746D01*
X14712015Y-16422746D02*
X14721539Y-16403698D01*
X14721539Y-16403698D02*
X14731063Y-16394174D01*
X14731063Y-16394174D02*
X14750110Y-16384650D01*
X14750110Y-16384650D02*
X14778682Y-16384650D01*
X14778682Y-16384650D02*
X14797730Y-16394174D01*
X14797730Y-16394174D02*
X14807253Y-16403698D01*
X14807253Y-16403698D02*
X14816777Y-16422746D01*
X14816777Y-16422746D02*
X14816777Y-16479888D01*
X14816777Y-16479888D02*
X14807253Y-16498936D01*
X14807253Y-16498936D02*
X14797730Y-16508460D01*
X14797730Y-16508460D02*
X14778682Y-16517984D01*
X14778682Y-16517984D02*
X14750110Y-16517984D01*
X14931063Y-16517984D02*
X14912015Y-16508460D01*
X14912015Y-16508460D02*
X14902491Y-16489412D01*
X14902491Y-16489412D02*
X14902491Y-16317984D01*
X15083444Y-16508460D02*
X15064396Y-16517984D01*
X15064396Y-16517984D02*
X15026301Y-16517984D01*
X15026301Y-16517984D02*
X15007253Y-16508460D01*
X15007253Y-16508460D02*
X14997730Y-16489412D01*
X14997730Y-16489412D02*
X14997730Y-16413222D01*
X14997730Y-16413222D02*
X15007253Y-16394174D01*
X15007253Y-16394174D02*
X15026301Y-16384650D01*
X15026301Y-16384650D02*
X15064396Y-16384650D01*
X15064396Y-16384650D02*
X15083444Y-16394174D01*
X15083444Y-16394174D02*
X15092968Y-16413222D01*
X15092968Y-16413222D02*
X15092968Y-16432269D01*
X15092968Y-16432269D02*
X14997730Y-16451317D01*
X15169158Y-16508460D02*
X15188206Y-16517984D01*
X15188206Y-16517984D02*
X15226301Y-16517984D01*
X15226301Y-16517984D02*
X15245349Y-16508460D01*
X15245349Y-16508460D02*
X15254872Y-16489412D01*
X15254872Y-16489412D02*
X15254872Y-16479888D01*
X15254872Y-16479888D02*
X15245349Y-16460841D01*
X15245349Y-16460841D02*
X15226301Y-16451317D01*
X15226301Y-16451317D02*
X15197730Y-16451317D01*
X15197730Y-16451317D02*
X15178682Y-16441793D01*
X15178682Y-16441793D02*
X15169158Y-16422746D01*
X15169158Y-16422746D02*
X15169158Y-16413222D01*
X15169158Y-16413222D02*
X15178682Y-16394174D01*
X15178682Y-16394174D02*
X15197730Y-16384650D01*
X15197730Y-16384650D02*
X15226301Y-16384650D01*
X15226301Y-16384650D02*
X15245349Y-16394174D01*
X15321539Y-16594174D02*
X15331063Y-16584650D01*
X15331063Y-16584650D02*
X15350111Y-16556079D01*
X15350111Y-16556079D02*
X15359634Y-16537031D01*
X15359634Y-16537031D02*
X15369158Y-16508460D01*
X15369158Y-16508460D02*
X15378682Y-16460841D01*
X15378682Y-16460841D02*
X15378682Y-16422746D01*
X15378682Y-16422746D02*
X15369158Y-16375127D01*
X15369158Y-16375127D02*
X15359634Y-16346555D01*
X15359634Y-16346555D02*
X15350111Y-16327508D01*
X15350111Y-16327508D02*
X15331063Y-16298936D01*
X15331063Y-16298936D02*
X15321539Y-16289412D01*
D13*
X10356000Y-16690500D02*
G75*
G03*
X10356000Y-16690500I-20000J0D01*
G01*
D11*
X10654872Y-16581984D02*
X10673920Y-16581984D01*
X10673920Y-16581984D02*
X10692967Y-16591508D01*
X10692967Y-16591508D02*
X10702491Y-16601031D01*
X10702491Y-16601031D02*
X10712015Y-16620079D01*
X10712015Y-16620079D02*
X10721539Y-16658174D01*
X10721539Y-16658174D02*
X10721539Y-16705793D01*
X10721539Y-16705793D02*
X10712015Y-16743888D01*
X10712015Y-16743888D02*
X10702491Y-16762936D01*
X10702491Y-16762936D02*
X10692967Y-16772460D01*
X10692967Y-16772460D02*
X10673920Y-16781984D01*
X10673920Y-16781984D02*
X10654872Y-16781984D01*
X10654872Y-16781984D02*
X10635824Y-16772460D01*
X10635824Y-16772460D02*
X10626301Y-16762936D01*
X10626301Y-16762936D02*
X10616777Y-16743888D01*
X10616777Y-16743888D02*
X10607253Y-16705793D01*
X10607253Y-16705793D02*
X10607253Y-16658174D01*
X10607253Y-16658174D02*
X10616777Y-16620079D01*
X10616777Y-16620079D02*
X10626301Y-16601031D01*
X10626301Y-16601031D02*
X10635824Y-16591508D01*
X10635824Y-16591508D02*
X10654872Y-16581984D01*
X10807253Y-16762936D02*
X10816777Y-16772460D01*
X10816777Y-16772460D02*
X10807253Y-16781984D01*
X10807253Y-16781984D02*
X10797729Y-16772460D01*
X10797729Y-16772460D02*
X10807253Y-16762936D01*
X10807253Y-16762936D02*
X10807253Y-16781984D01*
X10988205Y-16648650D02*
X10988205Y-16781984D01*
X10940586Y-16572460D02*
X10892967Y-16715317D01*
X10892967Y-16715317D02*
X11016777Y-16715317D01*
X11131063Y-16581984D02*
X11150110Y-16581984D01*
X11150110Y-16581984D02*
X11169158Y-16591508D01*
X11169158Y-16591508D02*
X11178682Y-16601031D01*
X11178682Y-16601031D02*
X11188205Y-16620079D01*
X11188205Y-16620079D02*
X11197729Y-16658174D01*
X11197729Y-16658174D02*
X11197729Y-16705793D01*
X11197729Y-16705793D02*
X11188205Y-16743888D01*
X11188205Y-16743888D02*
X11178682Y-16762936D01*
X11178682Y-16762936D02*
X11169158Y-16772460D01*
X11169158Y-16772460D02*
X11150110Y-16781984D01*
X11150110Y-16781984D02*
X11131063Y-16781984D01*
X11131063Y-16781984D02*
X11112015Y-16772460D01*
X11112015Y-16772460D02*
X11102491Y-16762936D01*
X11102491Y-16762936D02*
X11092967Y-16743888D01*
X11092967Y-16743888D02*
X11083444Y-16705793D01*
X11083444Y-16705793D02*
X11083444Y-16658174D01*
X11083444Y-16658174D02*
X11092967Y-16620079D01*
X11092967Y-16620079D02*
X11102491Y-16601031D01*
X11102491Y-16601031D02*
X11112015Y-16591508D01*
X11112015Y-16591508D02*
X11131063Y-16581984D01*
X11321539Y-16581984D02*
X11340586Y-16581984D01*
X11340586Y-16581984D02*
X11359634Y-16591508D01*
X11359634Y-16591508D02*
X11369158Y-16601031D01*
X11369158Y-16601031D02*
X11378682Y-16620079D01*
X11378682Y-16620079D02*
X11388205Y-16658174D01*
X11388205Y-16658174D02*
X11388205Y-16705793D01*
X11388205Y-16705793D02*
X11378682Y-16743888D01*
X11378682Y-16743888D02*
X11369158Y-16762936D01*
X11369158Y-16762936D02*
X11359634Y-16772460D01*
X11359634Y-16772460D02*
X11340586Y-16781984D01*
X11340586Y-16781984D02*
X11321539Y-16781984D01*
X11321539Y-16781984D02*
X11302491Y-16772460D01*
X11302491Y-16772460D02*
X11292967Y-16762936D01*
X11292967Y-16762936D02*
X11283443Y-16743888D01*
X11283443Y-16743888D02*
X11273920Y-16705793D01*
X11273920Y-16705793D02*
X11273920Y-16658174D01*
X11273920Y-16658174D02*
X11283443Y-16620079D01*
X11283443Y-16620079D02*
X11292967Y-16601031D01*
X11292967Y-16601031D02*
X11302491Y-16591508D01*
X11302491Y-16591508D02*
X11321539Y-16581984D01*
X11473920Y-16781984D02*
X11473920Y-16648650D01*
X11473920Y-16667698D02*
X11483443Y-16658174D01*
X11483443Y-16658174D02*
X11502491Y-16648650D01*
X11502491Y-16648650D02*
X11531063Y-16648650D01*
X11531063Y-16648650D02*
X11550110Y-16658174D01*
X11550110Y-16658174D02*
X11559634Y-16677222D01*
X11559634Y-16677222D02*
X11559634Y-16781984D01*
X11559634Y-16677222D02*
X11569158Y-16658174D01*
X11569158Y-16658174D02*
X11588205Y-16648650D01*
X11588205Y-16648650D02*
X11616777Y-16648650D01*
X11616777Y-16648650D02*
X11635824Y-16658174D01*
X11635824Y-16658174D02*
X11645348Y-16677222D01*
X11645348Y-16677222D02*
X11645348Y-16781984D01*
X11740586Y-16781984D02*
X11740586Y-16648650D01*
X11740586Y-16667698D02*
X11750110Y-16658174D01*
X11750110Y-16658174D02*
X11769158Y-16648650D01*
X11769158Y-16648650D02*
X11797729Y-16648650D01*
X11797729Y-16648650D02*
X11816777Y-16658174D01*
X11816777Y-16658174D02*
X11826301Y-16677222D01*
X11826301Y-16677222D02*
X11826301Y-16781984D01*
X11826301Y-16677222D02*
X11835824Y-16658174D01*
X11835824Y-16658174D02*
X11854872Y-16648650D01*
X11854872Y-16648650D02*
X11883443Y-16648650D01*
X11883443Y-16648650D02*
X11902491Y-16658174D01*
X11902491Y-16658174D02*
X11912015Y-16677222D01*
X11912015Y-16677222D02*
X11912015Y-16781984D01*
X12302491Y-16572460D02*
X12131063Y-16829603D01*
X12559634Y-16581984D02*
X12578682Y-16581984D01*
X12578682Y-16581984D02*
X12597729Y-16591508D01*
X12597729Y-16591508D02*
X12607253Y-16601031D01*
X12607253Y-16601031D02*
X12616777Y-16620079D01*
X12616777Y-16620079D02*
X12626301Y-16658174D01*
X12626301Y-16658174D02*
X12626301Y-16705793D01*
X12626301Y-16705793D02*
X12616777Y-16743888D01*
X12616777Y-16743888D02*
X12607253Y-16762936D01*
X12607253Y-16762936D02*
X12597729Y-16772460D01*
X12597729Y-16772460D02*
X12578682Y-16781984D01*
X12578682Y-16781984D02*
X12559634Y-16781984D01*
X12559634Y-16781984D02*
X12540586Y-16772460D01*
X12540586Y-16772460D02*
X12531063Y-16762936D01*
X12531063Y-16762936D02*
X12521539Y-16743888D01*
X12521539Y-16743888D02*
X12512015Y-16705793D01*
X12512015Y-16705793D02*
X12512015Y-16658174D01*
X12512015Y-16658174D02*
X12521539Y-16620079D01*
X12521539Y-16620079D02*
X12531063Y-16601031D01*
X12531063Y-16601031D02*
X12540586Y-16591508D01*
X12540586Y-16591508D02*
X12559634Y-16581984D01*
X12712015Y-16762936D02*
X12721539Y-16772460D01*
X12721539Y-16772460D02*
X12712015Y-16781984D01*
X12712015Y-16781984D02*
X12702491Y-16772460D01*
X12702491Y-16772460D02*
X12712015Y-16762936D01*
X12712015Y-16762936D02*
X12712015Y-16781984D01*
X12845348Y-16581984D02*
X12864396Y-16581984D01*
X12864396Y-16581984D02*
X12883444Y-16591508D01*
X12883444Y-16591508D02*
X12892967Y-16601031D01*
X12892967Y-16601031D02*
X12902491Y-16620079D01*
X12902491Y-16620079D02*
X12912015Y-16658174D01*
X12912015Y-16658174D02*
X12912015Y-16705793D01*
X12912015Y-16705793D02*
X12902491Y-16743888D01*
X12902491Y-16743888D02*
X12892967Y-16762936D01*
X12892967Y-16762936D02*
X12883444Y-16772460D01*
X12883444Y-16772460D02*
X12864396Y-16781984D01*
X12864396Y-16781984D02*
X12845348Y-16781984D01*
X12845348Y-16781984D02*
X12826301Y-16772460D01*
X12826301Y-16772460D02*
X12816777Y-16762936D01*
X12816777Y-16762936D02*
X12807253Y-16743888D01*
X12807253Y-16743888D02*
X12797729Y-16705793D01*
X12797729Y-16705793D02*
X12797729Y-16658174D01*
X12797729Y-16658174D02*
X12807253Y-16620079D01*
X12807253Y-16620079D02*
X12816777Y-16601031D01*
X12816777Y-16601031D02*
X12826301Y-16591508D01*
X12826301Y-16591508D02*
X12845348Y-16581984D01*
X13102491Y-16781984D02*
X12988206Y-16781984D01*
X13045348Y-16781984D02*
X13045348Y-16581984D01*
X13045348Y-16581984D02*
X13026301Y-16610555D01*
X13026301Y-16610555D02*
X13007253Y-16629603D01*
X13007253Y-16629603D02*
X12988206Y-16639127D01*
X13283444Y-16581984D02*
X13188206Y-16581984D01*
X13188206Y-16581984D02*
X13178682Y-16677222D01*
X13178682Y-16677222D02*
X13188206Y-16667698D01*
X13188206Y-16667698D02*
X13207253Y-16658174D01*
X13207253Y-16658174D02*
X13254872Y-16658174D01*
X13254872Y-16658174D02*
X13273920Y-16667698D01*
X13273920Y-16667698D02*
X13283444Y-16677222D01*
X13283444Y-16677222D02*
X13292967Y-16696269D01*
X13292967Y-16696269D02*
X13292967Y-16743888D01*
X13292967Y-16743888D02*
X13283444Y-16762936D01*
X13283444Y-16762936D02*
X13273920Y-16772460D01*
X13273920Y-16772460D02*
X13254872Y-16781984D01*
X13254872Y-16781984D02*
X13207253Y-16781984D01*
X13207253Y-16781984D02*
X13188206Y-16772460D01*
X13188206Y-16772460D02*
X13178682Y-16762936D01*
X13359634Y-16581984D02*
X13492967Y-16581984D01*
X13492967Y-16581984D02*
X13407253Y-16781984D01*
X13559634Y-16581984D02*
X13559634Y-16620079D01*
X13635825Y-16581984D02*
X13635825Y-16620079D01*
X13931063Y-16858174D02*
X13921539Y-16848650D01*
X13921539Y-16848650D02*
X13902491Y-16820079D01*
X13902491Y-16820079D02*
X13892968Y-16801031D01*
X13892968Y-16801031D02*
X13883444Y-16772460D01*
X13883444Y-16772460D02*
X13873920Y-16724841D01*
X13873920Y-16724841D02*
X13873920Y-16686746D01*
X13873920Y-16686746D02*
X13883444Y-16639127D01*
X13883444Y-16639127D02*
X13892968Y-16610555D01*
X13892968Y-16610555D02*
X13902491Y-16591508D01*
X13902491Y-16591508D02*
X13921539Y-16562936D01*
X13921539Y-16562936D02*
X13931063Y-16553412D01*
X14102491Y-16581984D02*
X14007253Y-16581984D01*
X14007253Y-16581984D02*
X13997729Y-16677222D01*
X13997729Y-16677222D02*
X14007253Y-16667698D01*
X14007253Y-16667698D02*
X14026301Y-16658174D01*
X14026301Y-16658174D02*
X14073920Y-16658174D01*
X14073920Y-16658174D02*
X14092968Y-16667698D01*
X14092968Y-16667698D02*
X14102491Y-16677222D01*
X14102491Y-16677222D02*
X14112015Y-16696269D01*
X14112015Y-16696269D02*
X14112015Y-16743888D01*
X14112015Y-16743888D02*
X14102491Y-16762936D01*
X14102491Y-16762936D02*
X14092968Y-16772460D01*
X14092968Y-16772460D02*
X14073920Y-16781984D01*
X14073920Y-16781984D02*
X14026301Y-16781984D01*
X14026301Y-16781984D02*
X14007253Y-16772460D01*
X14007253Y-16772460D02*
X13997729Y-16762936D01*
X14350110Y-16781984D02*
X14350110Y-16581984D01*
X14435825Y-16781984D02*
X14435825Y-16677222D01*
X14435825Y-16677222D02*
X14426301Y-16658174D01*
X14426301Y-16658174D02*
X14407253Y-16648650D01*
X14407253Y-16648650D02*
X14378682Y-16648650D01*
X14378682Y-16648650D02*
X14359634Y-16658174D01*
X14359634Y-16658174D02*
X14350110Y-16667698D01*
X14559634Y-16781984D02*
X14540587Y-16772460D01*
X14540587Y-16772460D02*
X14531063Y-16762936D01*
X14531063Y-16762936D02*
X14521539Y-16743888D01*
X14521539Y-16743888D02*
X14521539Y-16686746D01*
X14521539Y-16686746D02*
X14531063Y-16667698D01*
X14531063Y-16667698D02*
X14540587Y-16658174D01*
X14540587Y-16658174D02*
X14559634Y-16648650D01*
X14559634Y-16648650D02*
X14588206Y-16648650D01*
X14588206Y-16648650D02*
X14607253Y-16658174D01*
X14607253Y-16658174D02*
X14616777Y-16667698D01*
X14616777Y-16667698D02*
X14626301Y-16686746D01*
X14626301Y-16686746D02*
X14626301Y-16743888D01*
X14626301Y-16743888D02*
X14616777Y-16762936D01*
X14616777Y-16762936D02*
X14607253Y-16772460D01*
X14607253Y-16772460D02*
X14588206Y-16781984D01*
X14588206Y-16781984D02*
X14559634Y-16781984D01*
X14740587Y-16781984D02*
X14721539Y-16772460D01*
X14721539Y-16772460D02*
X14712015Y-16753412D01*
X14712015Y-16753412D02*
X14712015Y-16581984D01*
X14892968Y-16772460D02*
X14873920Y-16781984D01*
X14873920Y-16781984D02*
X14835825Y-16781984D01*
X14835825Y-16781984D02*
X14816777Y-16772460D01*
X14816777Y-16772460D02*
X14807253Y-16753412D01*
X14807253Y-16753412D02*
X14807253Y-16677222D01*
X14807253Y-16677222D02*
X14816777Y-16658174D01*
X14816777Y-16658174D02*
X14835825Y-16648650D01*
X14835825Y-16648650D02*
X14873920Y-16648650D01*
X14873920Y-16648650D02*
X14892968Y-16658174D01*
X14892968Y-16658174D02*
X14902491Y-16677222D01*
X14902491Y-16677222D02*
X14902491Y-16696269D01*
X14902491Y-16696269D02*
X14807253Y-16715317D01*
X14978682Y-16772460D02*
X14997730Y-16781984D01*
X14997730Y-16781984D02*
X15035825Y-16781984D01*
X15035825Y-16781984D02*
X15054872Y-16772460D01*
X15054872Y-16772460D02*
X15064396Y-16753412D01*
X15064396Y-16753412D02*
X15064396Y-16743888D01*
X15064396Y-16743888D02*
X15054872Y-16724841D01*
X15054872Y-16724841D02*
X15035825Y-16715317D01*
X15035825Y-16715317D02*
X15007253Y-16715317D01*
X15007253Y-16715317D02*
X14988206Y-16705793D01*
X14988206Y-16705793D02*
X14978682Y-16686746D01*
X14978682Y-16686746D02*
X14978682Y-16677222D01*
X14978682Y-16677222D02*
X14988206Y-16658174D01*
X14988206Y-16658174D02*
X15007253Y-16648650D01*
X15007253Y-16648650D02*
X15035825Y-16648650D01*
X15035825Y-16648650D02*
X15054872Y-16658174D01*
X15131063Y-16858174D02*
X15140587Y-16848650D01*
X15140587Y-16848650D02*
X15159634Y-16820079D01*
X15159634Y-16820079D02*
X15169158Y-16801031D01*
X15169158Y-16801031D02*
X15178682Y-16772460D01*
X15178682Y-16772460D02*
X15188206Y-16724841D01*
X15188206Y-16724841D02*
X15188206Y-16686746D01*
X15188206Y-16686746D02*
X15178682Y-16639127D01*
X15178682Y-16639127D02*
X15169158Y-16610555D01*
X15169158Y-16610555D02*
X15159634Y-16591508D01*
X15159634Y-16591508D02*
X15140587Y-16562936D01*
X15140587Y-16562936D02*
X15131063Y-16553412D01*
D14*
X10321000Y-16919500D02*
X10321000Y-16989500D01*
X10286000Y-16954500D02*
X10356000Y-16954500D01*
D11*
X10654872Y-16845984D02*
X10673920Y-16845984D01*
X10673920Y-16845984D02*
X10692967Y-16855508D01*
X10692967Y-16855508D02*
X10702491Y-16865031D01*
X10702491Y-16865031D02*
X10712015Y-16884079D01*
X10712015Y-16884079D02*
X10721539Y-16922174D01*
X10721539Y-16922174D02*
X10721539Y-16969793D01*
X10721539Y-16969793D02*
X10712015Y-17007889D01*
X10712015Y-17007889D02*
X10702491Y-17026936D01*
X10702491Y-17026936D02*
X10692967Y-17036460D01*
X10692967Y-17036460D02*
X10673920Y-17045984D01*
X10673920Y-17045984D02*
X10654872Y-17045984D01*
X10654872Y-17045984D02*
X10635824Y-17036460D01*
X10635824Y-17036460D02*
X10626301Y-17026936D01*
X10626301Y-17026936D02*
X10616777Y-17007889D01*
X10616777Y-17007889D02*
X10607253Y-16969793D01*
X10607253Y-16969793D02*
X10607253Y-16922174D01*
X10607253Y-16922174D02*
X10616777Y-16884079D01*
X10616777Y-16884079D02*
X10626301Y-16865031D01*
X10626301Y-16865031D02*
X10635824Y-16855508D01*
X10635824Y-16855508D02*
X10654872Y-16845984D01*
X10807253Y-17026936D02*
X10816777Y-17036460D01*
X10816777Y-17036460D02*
X10807253Y-17045984D01*
X10807253Y-17045984D02*
X10797729Y-17036460D01*
X10797729Y-17036460D02*
X10807253Y-17026936D01*
X10807253Y-17026936D02*
X10807253Y-17045984D01*
X10883444Y-16845984D02*
X11016777Y-16845984D01*
X11016777Y-16845984D02*
X10931063Y-17045984D01*
X11131063Y-16845984D02*
X11150110Y-16845984D01*
X11150110Y-16845984D02*
X11169158Y-16855508D01*
X11169158Y-16855508D02*
X11178682Y-16865031D01*
X11178682Y-16865031D02*
X11188205Y-16884079D01*
X11188205Y-16884079D02*
X11197729Y-16922174D01*
X11197729Y-16922174D02*
X11197729Y-16969793D01*
X11197729Y-16969793D02*
X11188205Y-17007889D01*
X11188205Y-17007889D02*
X11178682Y-17026936D01*
X11178682Y-17026936D02*
X11169158Y-17036460D01*
X11169158Y-17036460D02*
X11150110Y-17045984D01*
X11150110Y-17045984D02*
X11131063Y-17045984D01*
X11131063Y-17045984D02*
X11112015Y-17036460D01*
X11112015Y-17036460D02*
X11102491Y-17026936D01*
X11102491Y-17026936D02*
X11092967Y-17007889D01*
X11092967Y-17007889D02*
X11083444Y-16969793D01*
X11083444Y-16969793D02*
X11083444Y-16922174D01*
X11083444Y-16922174D02*
X11092967Y-16884079D01*
X11092967Y-16884079D02*
X11102491Y-16865031D01*
X11102491Y-16865031D02*
X11112015Y-16855508D01*
X11112015Y-16855508D02*
X11131063Y-16845984D01*
X11321539Y-16845984D02*
X11340586Y-16845984D01*
X11340586Y-16845984D02*
X11359634Y-16855508D01*
X11359634Y-16855508D02*
X11369158Y-16865031D01*
X11369158Y-16865031D02*
X11378682Y-16884079D01*
X11378682Y-16884079D02*
X11388205Y-16922174D01*
X11388205Y-16922174D02*
X11388205Y-16969793D01*
X11388205Y-16969793D02*
X11378682Y-17007889D01*
X11378682Y-17007889D02*
X11369158Y-17026936D01*
X11369158Y-17026936D02*
X11359634Y-17036460D01*
X11359634Y-17036460D02*
X11340586Y-17045984D01*
X11340586Y-17045984D02*
X11321539Y-17045984D01*
X11321539Y-17045984D02*
X11302491Y-17036460D01*
X11302491Y-17036460D02*
X11292967Y-17026936D01*
X11292967Y-17026936D02*
X11283443Y-17007889D01*
X11283443Y-17007889D02*
X11273920Y-16969793D01*
X11273920Y-16969793D02*
X11273920Y-16922174D01*
X11273920Y-16922174D02*
X11283443Y-16884079D01*
X11283443Y-16884079D02*
X11292967Y-16865031D01*
X11292967Y-16865031D02*
X11302491Y-16855508D01*
X11302491Y-16855508D02*
X11321539Y-16845984D01*
X11473920Y-17045984D02*
X11473920Y-16912650D01*
X11473920Y-16931698D02*
X11483443Y-16922174D01*
X11483443Y-16922174D02*
X11502491Y-16912650D01*
X11502491Y-16912650D02*
X11531063Y-16912650D01*
X11531063Y-16912650D02*
X11550110Y-16922174D01*
X11550110Y-16922174D02*
X11559634Y-16941222D01*
X11559634Y-16941222D02*
X11559634Y-17045984D01*
X11559634Y-16941222D02*
X11569158Y-16922174D01*
X11569158Y-16922174D02*
X11588205Y-16912650D01*
X11588205Y-16912650D02*
X11616777Y-16912650D01*
X11616777Y-16912650D02*
X11635824Y-16922174D01*
X11635824Y-16922174D02*
X11645348Y-16941222D01*
X11645348Y-16941222D02*
X11645348Y-17045984D01*
X11740586Y-17045984D02*
X11740586Y-16912650D01*
X11740586Y-16931698D02*
X11750110Y-16922174D01*
X11750110Y-16922174D02*
X11769158Y-16912650D01*
X11769158Y-16912650D02*
X11797729Y-16912650D01*
X11797729Y-16912650D02*
X11816777Y-16922174D01*
X11816777Y-16922174D02*
X11826301Y-16941222D01*
X11826301Y-16941222D02*
X11826301Y-17045984D01*
X11826301Y-16941222D02*
X11835824Y-16922174D01*
X11835824Y-16922174D02*
X11854872Y-16912650D01*
X11854872Y-16912650D02*
X11883443Y-16912650D01*
X11883443Y-16912650D02*
X11902491Y-16922174D01*
X11902491Y-16922174D02*
X11912015Y-16941222D01*
X11912015Y-16941222D02*
X11912015Y-17045984D01*
X12302491Y-16836460D02*
X12131063Y-17093603D01*
X12559634Y-16845984D02*
X12578682Y-16845984D01*
X12578682Y-16845984D02*
X12597729Y-16855508D01*
X12597729Y-16855508D02*
X12607253Y-16865031D01*
X12607253Y-16865031D02*
X12616777Y-16884079D01*
X12616777Y-16884079D02*
X12626301Y-16922174D01*
X12626301Y-16922174D02*
X12626301Y-16969793D01*
X12626301Y-16969793D02*
X12616777Y-17007889D01*
X12616777Y-17007889D02*
X12607253Y-17026936D01*
X12607253Y-17026936D02*
X12597729Y-17036460D01*
X12597729Y-17036460D02*
X12578682Y-17045984D01*
X12578682Y-17045984D02*
X12559634Y-17045984D01*
X12559634Y-17045984D02*
X12540586Y-17036460D01*
X12540586Y-17036460D02*
X12531063Y-17026936D01*
X12531063Y-17026936D02*
X12521539Y-17007889D01*
X12521539Y-17007889D02*
X12512015Y-16969793D01*
X12512015Y-16969793D02*
X12512015Y-16922174D01*
X12512015Y-16922174D02*
X12521539Y-16884079D01*
X12521539Y-16884079D02*
X12531063Y-16865031D01*
X12531063Y-16865031D02*
X12540586Y-16855508D01*
X12540586Y-16855508D02*
X12559634Y-16845984D01*
X12712015Y-17026936D02*
X12721539Y-17036460D01*
X12721539Y-17036460D02*
X12712015Y-17045984D01*
X12712015Y-17045984D02*
X12702491Y-17036460D01*
X12702491Y-17036460D02*
X12712015Y-17026936D01*
X12712015Y-17026936D02*
X12712015Y-17045984D01*
X12845348Y-16845984D02*
X12864396Y-16845984D01*
X12864396Y-16845984D02*
X12883444Y-16855508D01*
X12883444Y-16855508D02*
X12892967Y-16865031D01*
X12892967Y-16865031D02*
X12902491Y-16884079D01*
X12902491Y-16884079D02*
X12912015Y-16922174D01*
X12912015Y-16922174D02*
X12912015Y-16969793D01*
X12912015Y-16969793D02*
X12902491Y-17007889D01*
X12902491Y-17007889D02*
X12892967Y-17026936D01*
X12892967Y-17026936D02*
X12883444Y-17036460D01*
X12883444Y-17036460D02*
X12864396Y-17045984D01*
X12864396Y-17045984D02*
X12845348Y-17045984D01*
X12845348Y-17045984D02*
X12826301Y-17036460D01*
X12826301Y-17036460D02*
X12816777Y-17026936D01*
X12816777Y-17026936D02*
X12807253Y-17007889D01*
X12807253Y-17007889D02*
X12797729Y-16969793D01*
X12797729Y-16969793D02*
X12797729Y-16922174D01*
X12797729Y-16922174D02*
X12807253Y-16884079D01*
X12807253Y-16884079D02*
X12816777Y-16865031D01*
X12816777Y-16865031D02*
X12826301Y-16855508D01*
X12826301Y-16855508D02*
X12845348Y-16845984D01*
X12988206Y-16865031D02*
X12997729Y-16855508D01*
X12997729Y-16855508D02*
X13016777Y-16845984D01*
X13016777Y-16845984D02*
X13064396Y-16845984D01*
X13064396Y-16845984D02*
X13083444Y-16855508D01*
X13083444Y-16855508D02*
X13092967Y-16865031D01*
X13092967Y-16865031D02*
X13102491Y-16884079D01*
X13102491Y-16884079D02*
X13102491Y-16903127D01*
X13102491Y-16903127D02*
X13092967Y-16931698D01*
X13092967Y-16931698D02*
X12978682Y-17045984D01*
X12978682Y-17045984D02*
X13102491Y-17045984D01*
X13169158Y-16845984D02*
X13302491Y-16845984D01*
X13302491Y-16845984D02*
X13216777Y-17045984D01*
X13464396Y-16845984D02*
X13426301Y-16845984D01*
X13426301Y-16845984D02*
X13407253Y-16855508D01*
X13407253Y-16855508D02*
X13397729Y-16865031D01*
X13397729Y-16865031D02*
X13378682Y-16893603D01*
X13378682Y-16893603D02*
X13369158Y-16931698D01*
X13369158Y-16931698D02*
X13369158Y-17007889D01*
X13369158Y-17007889D02*
X13378682Y-17026936D01*
X13378682Y-17026936D02*
X13388206Y-17036460D01*
X13388206Y-17036460D02*
X13407253Y-17045984D01*
X13407253Y-17045984D02*
X13445348Y-17045984D01*
X13445348Y-17045984D02*
X13464396Y-17036460D01*
X13464396Y-17036460D02*
X13473920Y-17026936D01*
X13473920Y-17026936D02*
X13483444Y-17007889D01*
X13483444Y-17007889D02*
X13483444Y-16960270D01*
X13483444Y-16960270D02*
X13473920Y-16941222D01*
X13473920Y-16941222D02*
X13464396Y-16931698D01*
X13464396Y-16931698D02*
X13445348Y-16922174D01*
X13445348Y-16922174D02*
X13407253Y-16922174D01*
X13407253Y-16922174D02*
X13388206Y-16931698D01*
X13388206Y-16931698D02*
X13378682Y-16941222D01*
X13378682Y-16941222D02*
X13369158Y-16960270D01*
X13559634Y-16845984D02*
X13559634Y-16884079D01*
X13635825Y-16845984D02*
X13635825Y-16884079D01*
X13931063Y-17122174D02*
X13921539Y-17112650D01*
X13921539Y-17112650D02*
X13902491Y-17084079D01*
X13902491Y-17084079D02*
X13892968Y-17065031D01*
X13892968Y-17065031D02*
X13883444Y-17036460D01*
X13883444Y-17036460D02*
X13873920Y-16988841D01*
X13873920Y-16988841D02*
X13873920Y-16950746D01*
X13873920Y-16950746D02*
X13883444Y-16903127D01*
X13883444Y-16903127D02*
X13892968Y-16874555D01*
X13892968Y-16874555D02*
X13902491Y-16855508D01*
X13902491Y-16855508D02*
X13921539Y-16826936D01*
X13921539Y-16826936D02*
X13931063Y-16817412D01*
X13988206Y-16845984D02*
X14112015Y-16845984D01*
X14112015Y-16845984D02*
X14045348Y-16922174D01*
X14045348Y-16922174D02*
X14073920Y-16922174D01*
X14073920Y-16922174D02*
X14092968Y-16931698D01*
X14092968Y-16931698D02*
X14102491Y-16941222D01*
X14102491Y-16941222D02*
X14112015Y-16960270D01*
X14112015Y-16960270D02*
X14112015Y-17007889D01*
X14112015Y-17007889D02*
X14102491Y-17026936D01*
X14102491Y-17026936D02*
X14092968Y-17036460D01*
X14092968Y-17036460D02*
X14073920Y-17045984D01*
X14073920Y-17045984D02*
X14016777Y-17045984D01*
X14016777Y-17045984D02*
X13997729Y-17036460D01*
X13997729Y-17036460D02*
X13988206Y-17026936D01*
X14207253Y-17045984D02*
X14245348Y-17045984D01*
X14245348Y-17045984D02*
X14264396Y-17036460D01*
X14264396Y-17036460D02*
X14273920Y-17026936D01*
X14273920Y-17026936D02*
X14292968Y-16998365D01*
X14292968Y-16998365D02*
X14302491Y-16960270D01*
X14302491Y-16960270D02*
X14302491Y-16884079D01*
X14302491Y-16884079D02*
X14292968Y-16865031D01*
X14292968Y-16865031D02*
X14283444Y-16855508D01*
X14283444Y-16855508D02*
X14264396Y-16845984D01*
X14264396Y-16845984D02*
X14226301Y-16845984D01*
X14226301Y-16845984D02*
X14207253Y-16855508D01*
X14207253Y-16855508D02*
X14197729Y-16865031D01*
X14197729Y-16865031D02*
X14188206Y-16884079D01*
X14188206Y-16884079D02*
X14188206Y-16931698D01*
X14188206Y-16931698D02*
X14197729Y-16950746D01*
X14197729Y-16950746D02*
X14207253Y-16960270D01*
X14207253Y-16960270D02*
X14226301Y-16969793D01*
X14226301Y-16969793D02*
X14264396Y-16969793D01*
X14264396Y-16969793D02*
X14283444Y-16960270D01*
X14283444Y-16960270D02*
X14292968Y-16950746D01*
X14292968Y-16950746D02*
X14302491Y-16931698D01*
X14378682Y-16865031D02*
X14388206Y-16855508D01*
X14388206Y-16855508D02*
X14407253Y-16845984D01*
X14407253Y-16845984D02*
X14454872Y-16845984D01*
X14454872Y-16845984D02*
X14473920Y-16855508D01*
X14473920Y-16855508D02*
X14483444Y-16865031D01*
X14483444Y-16865031D02*
X14492968Y-16884079D01*
X14492968Y-16884079D02*
X14492968Y-16903127D01*
X14492968Y-16903127D02*
X14483444Y-16931698D01*
X14483444Y-16931698D02*
X14369158Y-17045984D01*
X14369158Y-17045984D02*
X14492968Y-17045984D01*
X14731063Y-17045984D02*
X14731063Y-16845984D01*
X14816777Y-17045984D02*
X14816777Y-16941222D01*
X14816777Y-16941222D02*
X14807253Y-16922174D01*
X14807253Y-16922174D02*
X14788206Y-16912650D01*
X14788206Y-16912650D02*
X14759634Y-16912650D01*
X14759634Y-16912650D02*
X14740587Y-16922174D01*
X14740587Y-16922174D02*
X14731063Y-16931698D01*
X14940587Y-17045984D02*
X14921539Y-17036460D01*
X14921539Y-17036460D02*
X14912015Y-17026936D01*
X14912015Y-17026936D02*
X14902491Y-17007889D01*
X14902491Y-17007889D02*
X14902491Y-16950746D01*
X14902491Y-16950746D02*
X14912015Y-16931698D01*
X14912015Y-16931698D02*
X14921539Y-16922174D01*
X14921539Y-16922174D02*
X14940587Y-16912650D01*
X14940587Y-16912650D02*
X14969158Y-16912650D01*
X14969158Y-16912650D02*
X14988206Y-16922174D01*
X14988206Y-16922174D02*
X14997730Y-16931698D01*
X14997730Y-16931698D02*
X15007253Y-16950746D01*
X15007253Y-16950746D02*
X15007253Y-17007889D01*
X15007253Y-17007889D02*
X14997730Y-17026936D01*
X14997730Y-17026936D02*
X14988206Y-17036460D01*
X14988206Y-17036460D02*
X14969158Y-17045984D01*
X14969158Y-17045984D02*
X14940587Y-17045984D01*
X15121539Y-17045984D02*
X15102491Y-17036460D01*
X15102491Y-17036460D02*
X15092968Y-17017412D01*
X15092968Y-17017412D02*
X15092968Y-16845984D01*
X15273920Y-17036460D02*
X15254872Y-17045984D01*
X15254872Y-17045984D02*
X15216777Y-17045984D01*
X15216777Y-17045984D02*
X15197730Y-17036460D01*
X15197730Y-17036460D02*
X15188206Y-17017412D01*
X15188206Y-17017412D02*
X15188206Y-16941222D01*
X15188206Y-16941222D02*
X15197730Y-16922174D01*
X15197730Y-16922174D02*
X15216777Y-16912650D01*
X15216777Y-16912650D02*
X15254872Y-16912650D01*
X15254872Y-16912650D02*
X15273920Y-16922174D01*
X15273920Y-16922174D02*
X15283444Y-16941222D01*
X15283444Y-16941222D02*
X15283444Y-16960270D01*
X15283444Y-16960270D02*
X15188206Y-16979317D01*
X15359634Y-17036460D02*
X15378682Y-17045984D01*
X15378682Y-17045984D02*
X15416777Y-17045984D01*
X15416777Y-17045984D02*
X15435825Y-17036460D01*
X15435825Y-17036460D02*
X15445349Y-17017412D01*
X15445349Y-17017412D02*
X15445349Y-17007889D01*
X15445349Y-17007889D02*
X15435825Y-16988841D01*
X15435825Y-16988841D02*
X15416777Y-16979317D01*
X15416777Y-16979317D02*
X15388206Y-16979317D01*
X15388206Y-16979317D02*
X15369158Y-16969793D01*
X15369158Y-16969793D02*
X15359634Y-16950746D01*
X15359634Y-16950746D02*
X15359634Y-16941222D01*
X15359634Y-16941222D02*
X15369158Y-16922174D01*
X15369158Y-16922174D02*
X15388206Y-16912650D01*
X15388206Y-16912650D02*
X15416777Y-16912650D01*
X15416777Y-16912650D02*
X15435825Y-16922174D01*
X15512015Y-17122174D02*
X15521539Y-17112650D01*
X15521539Y-17112650D02*
X15540587Y-17084079D01*
X15540587Y-17084079D02*
X15550111Y-17065031D01*
X15550111Y-17065031D02*
X15559634Y-17036460D01*
X15559634Y-17036460D02*
X15569158Y-16988841D01*
X15569158Y-16988841D02*
X15569158Y-16950746D01*
X15569158Y-16950746D02*
X15559634Y-16903127D01*
X15559634Y-16903127D02*
X15550111Y-16874555D01*
X15550111Y-16874555D02*
X15540587Y-16855508D01*
X15540587Y-16855508D02*
X15521539Y-16826936D01*
X15521539Y-16826936D02*
X15512015Y-16817412D01*
X10326711Y-17289211D02*
X10326711Y-17147789D01*
X10185289Y-17147789D01*
X10185289Y-17289211D01*
X10326711Y-17289211D01*
X10597729Y-17109984D02*
X10721539Y-17109984D01*
X10721539Y-17109984D02*
X10654872Y-17186174D01*
X10654872Y-17186174D02*
X10683444Y-17186174D01*
X10683444Y-17186174D02*
X10702491Y-17195698D01*
X10702491Y-17195698D02*
X10712015Y-17205222D01*
X10712015Y-17205222D02*
X10721539Y-17224270D01*
X10721539Y-17224270D02*
X10721539Y-17271889D01*
X10721539Y-17271889D02*
X10712015Y-17290936D01*
X10712015Y-17290936D02*
X10702491Y-17300460D01*
X10702491Y-17300460D02*
X10683444Y-17309984D01*
X10683444Y-17309984D02*
X10626301Y-17309984D01*
X10626301Y-17309984D02*
X10607253Y-17300460D01*
X10607253Y-17300460D02*
X10597729Y-17290936D01*
X10807253Y-17290936D02*
X10816777Y-17300460D01*
X10816777Y-17300460D02*
X10807253Y-17309984D01*
X10807253Y-17309984D02*
X10797729Y-17300460D01*
X10797729Y-17300460D02*
X10807253Y-17290936D01*
X10807253Y-17290936D02*
X10807253Y-17309984D01*
X10892967Y-17129031D02*
X10902491Y-17119508D01*
X10902491Y-17119508D02*
X10921539Y-17109984D01*
X10921539Y-17109984D02*
X10969158Y-17109984D01*
X10969158Y-17109984D02*
X10988205Y-17119508D01*
X10988205Y-17119508D02*
X10997729Y-17129031D01*
X10997729Y-17129031D02*
X11007253Y-17148079D01*
X11007253Y-17148079D02*
X11007253Y-17167127D01*
X11007253Y-17167127D02*
X10997729Y-17195698D01*
X10997729Y-17195698D02*
X10883444Y-17309984D01*
X10883444Y-17309984D02*
X11007253Y-17309984D01*
X11131063Y-17109984D02*
X11150110Y-17109984D01*
X11150110Y-17109984D02*
X11169158Y-17119508D01*
X11169158Y-17119508D02*
X11178682Y-17129031D01*
X11178682Y-17129031D02*
X11188205Y-17148079D01*
X11188205Y-17148079D02*
X11197729Y-17186174D01*
X11197729Y-17186174D02*
X11197729Y-17233793D01*
X11197729Y-17233793D02*
X11188205Y-17271889D01*
X11188205Y-17271889D02*
X11178682Y-17290936D01*
X11178682Y-17290936D02*
X11169158Y-17300460D01*
X11169158Y-17300460D02*
X11150110Y-17309984D01*
X11150110Y-17309984D02*
X11131063Y-17309984D01*
X11131063Y-17309984D02*
X11112015Y-17300460D01*
X11112015Y-17300460D02*
X11102491Y-17290936D01*
X11102491Y-17290936D02*
X11092967Y-17271889D01*
X11092967Y-17271889D02*
X11083444Y-17233793D01*
X11083444Y-17233793D02*
X11083444Y-17186174D01*
X11083444Y-17186174D02*
X11092967Y-17148079D01*
X11092967Y-17148079D02*
X11102491Y-17129031D01*
X11102491Y-17129031D02*
X11112015Y-17119508D01*
X11112015Y-17119508D02*
X11131063Y-17109984D01*
X11321539Y-17109984D02*
X11340586Y-17109984D01*
X11340586Y-17109984D02*
X11359634Y-17119508D01*
X11359634Y-17119508D02*
X11369158Y-17129031D01*
X11369158Y-17129031D02*
X11378682Y-17148079D01*
X11378682Y-17148079D02*
X11388205Y-17186174D01*
X11388205Y-17186174D02*
X11388205Y-17233793D01*
X11388205Y-17233793D02*
X11378682Y-17271889D01*
X11378682Y-17271889D02*
X11369158Y-17290936D01*
X11369158Y-17290936D02*
X11359634Y-17300460D01*
X11359634Y-17300460D02*
X11340586Y-17309984D01*
X11340586Y-17309984D02*
X11321539Y-17309984D01*
X11321539Y-17309984D02*
X11302491Y-17300460D01*
X11302491Y-17300460D02*
X11292967Y-17290936D01*
X11292967Y-17290936D02*
X11283443Y-17271889D01*
X11283443Y-17271889D02*
X11273920Y-17233793D01*
X11273920Y-17233793D02*
X11273920Y-17186174D01*
X11273920Y-17186174D02*
X11283443Y-17148079D01*
X11283443Y-17148079D02*
X11292967Y-17129031D01*
X11292967Y-17129031D02*
X11302491Y-17119508D01*
X11302491Y-17119508D02*
X11321539Y-17109984D01*
X11473920Y-17309984D02*
X11473920Y-17176650D01*
X11473920Y-17195698D02*
X11483443Y-17186174D01*
X11483443Y-17186174D02*
X11502491Y-17176650D01*
X11502491Y-17176650D02*
X11531063Y-17176650D01*
X11531063Y-17176650D02*
X11550110Y-17186174D01*
X11550110Y-17186174D02*
X11559634Y-17205222D01*
X11559634Y-17205222D02*
X11559634Y-17309984D01*
X11559634Y-17205222D02*
X11569158Y-17186174D01*
X11569158Y-17186174D02*
X11588205Y-17176650D01*
X11588205Y-17176650D02*
X11616777Y-17176650D01*
X11616777Y-17176650D02*
X11635824Y-17186174D01*
X11635824Y-17186174D02*
X11645348Y-17205222D01*
X11645348Y-17205222D02*
X11645348Y-17309984D01*
X11740586Y-17309984D02*
X11740586Y-17176650D01*
X11740586Y-17195698D02*
X11750110Y-17186174D01*
X11750110Y-17186174D02*
X11769158Y-17176650D01*
X11769158Y-17176650D02*
X11797729Y-17176650D01*
X11797729Y-17176650D02*
X11816777Y-17186174D01*
X11816777Y-17186174D02*
X11826301Y-17205222D01*
X11826301Y-17205222D02*
X11826301Y-17309984D01*
X11826301Y-17205222D02*
X11835824Y-17186174D01*
X11835824Y-17186174D02*
X11854872Y-17176650D01*
X11854872Y-17176650D02*
X11883443Y-17176650D01*
X11883443Y-17176650D02*
X11902491Y-17186174D01*
X11902491Y-17186174D02*
X11912015Y-17205222D01*
X11912015Y-17205222D02*
X11912015Y-17309984D01*
X12302491Y-17100460D02*
X12131063Y-17357603D01*
X12559634Y-17109984D02*
X12578682Y-17109984D01*
X12578682Y-17109984D02*
X12597729Y-17119508D01*
X12597729Y-17119508D02*
X12607253Y-17129031D01*
X12607253Y-17129031D02*
X12616777Y-17148079D01*
X12616777Y-17148079D02*
X12626301Y-17186174D01*
X12626301Y-17186174D02*
X12626301Y-17233793D01*
X12626301Y-17233793D02*
X12616777Y-17271889D01*
X12616777Y-17271889D02*
X12607253Y-17290936D01*
X12607253Y-17290936D02*
X12597729Y-17300460D01*
X12597729Y-17300460D02*
X12578682Y-17309984D01*
X12578682Y-17309984D02*
X12559634Y-17309984D01*
X12559634Y-17309984D02*
X12540586Y-17300460D01*
X12540586Y-17300460D02*
X12531063Y-17290936D01*
X12531063Y-17290936D02*
X12521539Y-17271889D01*
X12521539Y-17271889D02*
X12512015Y-17233793D01*
X12512015Y-17233793D02*
X12512015Y-17186174D01*
X12512015Y-17186174D02*
X12521539Y-17148079D01*
X12521539Y-17148079D02*
X12531063Y-17129031D01*
X12531063Y-17129031D02*
X12540586Y-17119508D01*
X12540586Y-17119508D02*
X12559634Y-17109984D01*
X12712015Y-17290936D02*
X12721539Y-17300460D01*
X12721539Y-17300460D02*
X12712015Y-17309984D01*
X12712015Y-17309984D02*
X12702491Y-17300460D01*
X12702491Y-17300460D02*
X12712015Y-17290936D01*
X12712015Y-17290936D02*
X12712015Y-17309984D01*
X12912015Y-17309984D02*
X12797729Y-17309984D01*
X12854872Y-17309984D02*
X12854872Y-17109984D01*
X12854872Y-17109984D02*
X12835825Y-17138555D01*
X12835825Y-17138555D02*
X12816777Y-17157603D01*
X12816777Y-17157603D02*
X12797729Y-17167127D01*
X12988206Y-17129031D02*
X12997729Y-17119508D01*
X12997729Y-17119508D02*
X13016777Y-17109984D01*
X13016777Y-17109984D02*
X13064396Y-17109984D01*
X13064396Y-17109984D02*
X13083444Y-17119508D01*
X13083444Y-17119508D02*
X13092967Y-17129031D01*
X13092967Y-17129031D02*
X13102491Y-17148079D01*
X13102491Y-17148079D02*
X13102491Y-17167127D01*
X13102491Y-17167127D02*
X13092967Y-17195698D01*
X13092967Y-17195698D02*
X12978682Y-17309984D01*
X12978682Y-17309984D02*
X13102491Y-17309984D01*
X13273920Y-17109984D02*
X13235825Y-17109984D01*
X13235825Y-17109984D02*
X13216777Y-17119508D01*
X13216777Y-17119508D02*
X13207253Y-17129031D01*
X13207253Y-17129031D02*
X13188206Y-17157603D01*
X13188206Y-17157603D02*
X13178682Y-17195698D01*
X13178682Y-17195698D02*
X13178682Y-17271889D01*
X13178682Y-17271889D02*
X13188206Y-17290936D01*
X13188206Y-17290936D02*
X13197729Y-17300460D01*
X13197729Y-17300460D02*
X13216777Y-17309984D01*
X13216777Y-17309984D02*
X13254872Y-17309984D01*
X13254872Y-17309984D02*
X13273920Y-17300460D01*
X13273920Y-17300460D02*
X13283444Y-17290936D01*
X13283444Y-17290936D02*
X13292967Y-17271889D01*
X13292967Y-17271889D02*
X13292967Y-17224270D01*
X13292967Y-17224270D02*
X13283444Y-17205222D01*
X13283444Y-17205222D02*
X13273920Y-17195698D01*
X13273920Y-17195698D02*
X13254872Y-17186174D01*
X13254872Y-17186174D02*
X13216777Y-17186174D01*
X13216777Y-17186174D02*
X13197729Y-17195698D01*
X13197729Y-17195698D02*
X13188206Y-17205222D01*
X13188206Y-17205222D02*
X13178682Y-17224270D01*
X13416777Y-17109984D02*
X13435825Y-17109984D01*
X13435825Y-17109984D02*
X13454872Y-17119508D01*
X13454872Y-17119508D02*
X13464396Y-17129031D01*
X13464396Y-17129031D02*
X13473920Y-17148079D01*
X13473920Y-17148079D02*
X13483444Y-17186174D01*
X13483444Y-17186174D02*
X13483444Y-17233793D01*
X13483444Y-17233793D02*
X13473920Y-17271889D01*
X13473920Y-17271889D02*
X13464396Y-17290936D01*
X13464396Y-17290936D02*
X13454872Y-17300460D01*
X13454872Y-17300460D02*
X13435825Y-17309984D01*
X13435825Y-17309984D02*
X13416777Y-17309984D01*
X13416777Y-17309984D02*
X13397729Y-17300460D01*
X13397729Y-17300460D02*
X13388206Y-17290936D01*
X13388206Y-17290936D02*
X13378682Y-17271889D01*
X13378682Y-17271889D02*
X13369158Y-17233793D01*
X13369158Y-17233793D02*
X13369158Y-17186174D01*
X13369158Y-17186174D02*
X13378682Y-17148079D01*
X13378682Y-17148079D02*
X13388206Y-17129031D01*
X13388206Y-17129031D02*
X13397729Y-17119508D01*
X13397729Y-17119508D02*
X13416777Y-17109984D01*
X13559634Y-17109984D02*
X13559634Y-17148079D01*
X13635825Y-17109984D02*
X13635825Y-17148079D01*
X13931063Y-17386174D02*
X13921539Y-17376650D01*
X13921539Y-17376650D02*
X13902491Y-17348079D01*
X13902491Y-17348079D02*
X13892968Y-17329031D01*
X13892968Y-17329031D02*
X13883444Y-17300460D01*
X13883444Y-17300460D02*
X13873920Y-17252841D01*
X13873920Y-17252841D02*
X13873920Y-17214746D01*
X13873920Y-17214746D02*
X13883444Y-17167127D01*
X13883444Y-17167127D02*
X13892968Y-17138555D01*
X13892968Y-17138555D02*
X13902491Y-17119508D01*
X13902491Y-17119508D02*
X13921539Y-17090936D01*
X13921539Y-17090936D02*
X13931063Y-17081412D01*
X13997729Y-17129031D02*
X14007253Y-17119508D01*
X14007253Y-17119508D02*
X14026301Y-17109984D01*
X14026301Y-17109984D02*
X14073920Y-17109984D01*
X14073920Y-17109984D02*
X14092968Y-17119508D01*
X14092968Y-17119508D02*
X14102491Y-17129031D01*
X14102491Y-17129031D02*
X14112015Y-17148079D01*
X14112015Y-17148079D02*
X14112015Y-17167127D01*
X14112015Y-17167127D02*
X14102491Y-17195698D01*
X14102491Y-17195698D02*
X13988206Y-17309984D01*
X13988206Y-17309984D02*
X14112015Y-17309984D01*
X14350110Y-17309984D02*
X14350110Y-17109984D01*
X14435825Y-17309984D02*
X14435825Y-17205222D01*
X14435825Y-17205222D02*
X14426301Y-17186174D01*
X14426301Y-17186174D02*
X14407253Y-17176650D01*
X14407253Y-17176650D02*
X14378682Y-17176650D01*
X14378682Y-17176650D02*
X14359634Y-17186174D01*
X14359634Y-17186174D02*
X14350110Y-17195698D01*
X14559634Y-17309984D02*
X14540587Y-17300460D01*
X14540587Y-17300460D02*
X14531063Y-17290936D01*
X14531063Y-17290936D02*
X14521539Y-17271889D01*
X14521539Y-17271889D02*
X14521539Y-17214746D01*
X14521539Y-17214746D02*
X14531063Y-17195698D01*
X14531063Y-17195698D02*
X14540587Y-17186174D01*
X14540587Y-17186174D02*
X14559634Y-17176650D01*
X14559634Y-17176650D02*
X14588206Y-17176650D01*
X14588206Y-17176650D02*
X14607253Y-17186174D01*
X14607253Y-17186174D02*
X14616777Y-17195698D01*
X14616777Y-17195698D02*
X14626301Y-17214746D01*
X14626301Y-17214746D02*
X14626301Y-17271889D01*
X14626301Y-17271889D02*
X14616777Y-17290936D01*
X14616777Y-17290936D02*
X14607253Y-17300460D01*
X14607253Y-17300460D02*
X14588206Y-17309984D01*
X14588206Y-17309984D02*
X14559634Y-17309984D01*
X14740587Y-17309984D02*
X14721539Y-17300460D01*
X14721539Y-17300460D02*
X14712015Y-17281412D01*
X14712015Y-17281412D02*
X14712015Y-17109984D01*
X14892968Y-17300460D02*
X14873920Y-17309984D01*
X14873920Y-17309984D02*
X14835825Y-17309984D01*
X14835825Y-17309984D02*
X14816777Y-17300460D01*
X14816777Y-17300460D02*
X14807253Y-17281412D01*
X14807253Y-17281412D02*
X14807253Y-17205222D01*
X14807253Y-17205222D02*
X14816777Y-17186174D01*
X14816777Y-17186174D02*
X14835825Y-17176650D01*
X14835825Y-17176650D02*
X14873920Y-17176650D01*
X14873920Y-17176650D02*
X14892968Y-17186174D01*
X14892968Y-17186174D02*
X14902491Y-17205222D01*
X14902491Y-17205222D02*
X14902491Y-17224270D01*
X14902491Y-17224270D02*
X14807253Y-17243317D01*
X14978682Y-17300460D02*
X14997730Y-17309984D01*
X14997730Y-17309984D02*
X15035825Y-17309984D01*
X15035825Y-17309984D02*
X15054872Y-17300460D01*
X15054872Y-17300460D02*
X15064396Y-17281412D01*
X15064396Y-17281412D02*
X15064396Y-17271889D01*
X15064396Y-17271889D02*
X15054872Y-17252841D01*
X15054872Y-17252841D02*
X15035825Y-17243317D01*
X15035825Y-17243317D02*
X15007253Y-17243317D01*
X15007253Y-17243317D02*
X14988206Y-17233793D01*
X14988206Y-17233793D02*
X14978682Y-17214746D01*
X14978682Y-17214746D02*
X14978682Y-17205222D01*
X14978682Y-17205222D02*
X14988206Y-17186174D01*
X14988206Y-17186174D02*
X15007253Y-17176650D01*
X15007253Y-17176650D02*
X15035825Y-17176650D01*
X15035825Y-17176650D02*
X15054872Y-17186174D01*
X15131063Y-17386174D02*
X15140587Y-17376650D01*
X15140587Y-17376650D02*
X15159634Y-17348079D01*
X15159634Y-17348079D02*
X15169158Y-17329031D01*
X15169158Y-17329031D02*
X15178682Y-17300460D01*
X15178682Y-17300460D02*
X15188206Y-17252841D01*
X15188206Y-17252841D02*
X15188206Y-17214746D01*
X15188206Y-17214746D02*
X15178682Y-17167127D01*
X15178682Y-17167127D02*
X15169158Y-17138555D01*
X15169158Y-17138555D02*
X15159634Y-17119508D01*
X15159634Y-17119508D02*
X15140587Y-17090936D01*
X15140587Y-17090936D02*
X15131063Y-17081412D01*
M02*
