%TF.GenerationSoftware,KiCad,Pcbnew,(6.0.10)*%
%TF.CreationDate,2023-01-21T08:13:49+09:00*%
%TF.ProjectId,AstroPix_telescope,41737472-6f50-4697-985f-74656c657363,1.1*%
%TF.SameCoordinates,Original*%
%TF.FileFunction,Copper,L1,Top*%
%TF.FilePolarity,Positive*%
%FSLAX46Y46*%
G04 Gerber Fmt 4.6, Leading zero omitted, Abs format (unit mm)*
G04 Created by KiCad (PCBNEW (6.0.10)) date 2023-01-21 08:13:49*
%MOMM*%
%LPD*%
G01*
G04 APERTURE LIST*
G04 Aperture macros list*
%AMRoundRect*
0 Rectangle with rounded corners*
0 $1 Rounding radius*
0 $2 $3 $4 $5 $6 $7 $8 $9 X,Y pos of 4 corners*
0 Add a 4 corners polygon primitive as box body*
4,1,4,$2,$3,$4,$5,$6,$7,$8,$9,$2,$3,0*
0 Add four circle primitives for the rounded corners*
1,1,$1+$1,$2,$3*
1,1,$1+$1,$4,$5*
1,1,$1+$1,$6,$7*
1,1,$1+$1,$8,$9*
0 Add four rect primitives between the rounded corners*
20,1,$1+$1,$2,$3,$4,$5,0*
20,1,$1+$1,$4,$5,$6,$7,0*
20,1,$1+$1,$6,$7,$8,$9,0*
20,1,$1+$1,$8,$9,$2,$3,0*%
%AMFreePoly0*
4,1,17,1.174443,2.785355,2.785356,1.174443,2.800000,1.139088,2.800000,-1.139088,2.785356,-1.174443,1.174443,-2.785355,1.139088,-2.800000,-1.139088,-2.800000,-1.174443,-2.785356,-2.785355,-1.174443,-2.800000,-1.139088,-2.800000,1.139088,-2.785355,1.174443,-1.174443,2.785356,-1.139088,2.800000,1.139088,2.800000,1.174443,2.785355,1.174443,2.785355,$1*%
G04 Aperture macros list end*
%TA.AperFunction,ConnectorPad*%
%ADD10R,0.700000X4.300000*%
%TD*%
%TA.AperFunction,ConnectorPad*%
%ADD11R,0.700000X3.200000*%
%TD*%
%TA.AperFunction,SMDPad,CuDef*%
%ADD12RoundRect,0.200000X-0.200000X-0.275000X0.200000X-0.275000X0.200000X0.275000X-0.200000X0.275000X0*%
%TD*%
%TA.AperFunction,ComponentPad*%
%ADD13FreePoly0,0.000000*%
%TD*%
%TA.AperFunction,SMDPad,CuDef*%
%ADD14RoundRect,0.200000X-0.275000X0.200000X-0.275000X-0.200000X0.275000X-0.200000X0.275000X0.200000X0*%
%TD*%
%TA.AperFunction,ComponentPad*%
%ADD15C,1.208000*%
%TD*%
%TA.AperFunction,ComponentPad*%
%ADD16R,1.208000X1.208000*%
%TD*%
%TA.AperFunction,ViaPad*%
%ADD17C,0.600000*%
%TD*%
%TA.AperFunction,ViaPad*%
%ADD18C,0.800000*%
%TD*%
%TA.AperFunction,Conductor*%
%ADD19C,0.250000*%
%TD*%
%TA.AperFunction,Conductor*%
%ADD20C,0.200000*%
%TD*%
%TA.AperFunction,Conductor*%
%ADD21C,1.000000*%
%TD*%
G04 APERTURE END LIST*
D10*
%TO.P,P1,B1,HV*%
%TO.N,-HV*%
X103000000Y-141665000D03*
%TO.P,P1,B2*%
%TO.N,N/C*%
X104000000Y-141665000D03*
%TO.P,P1,B3,VDD18*%
%TO.N,/VDD18_in*%
X105000000Y-141665000D03*
%TO.P,P1,B4,VDD18*%
X106000000Y-141665000D03*
%TO.P,P1,B5,POW4*%
%TO.N,/POW4_in*%
X107000000Y-141665000D03*
%TO.P,P1,B6,POW4*%
X108000000Y-141665000D03*
%TO.P,P1,B7,POW6*%
%TO.N,VDDA*%
X109000000Y-141665000D03*
%TO.P,P1,B8,POW6*%
X110000000Y-141665000D03*
%TO.P,P1,B9,POW8*%
%TO.N,VSSA*%
X111000000Y-141665000D03*
%TO.P,P1,B10,POW8*%
X112000000Y-141665000D03*
%TO.P,P1,B11,GND*%
%TO.N,GND*%
X113000000Y-141665000D03*
%TO.P,P1,B12,C1_4*%
%TO.N,unconnected-(P1-PadB12)*%
X116000000Y-141665000D03*
%TO.P,P1,B13,C1_3*%
%TO.N,unconnected-(P1-PadB13)*%
X117000000Y-141665000D03*
%TO.P,P1,B14,C1_8*%
%TO.N,unconnected-(P1-PadB14)*%
X118000000Y-141665000D03*
%TO.P,P1,B15,C1_7*%
%TO.N,unconnected-(P1-PadB15)*%
X119000000Y-141665000D03*
%TO.P,P1,B16,FMC_LA24_P*%
%TO.N,/sample_clock_se_P*%
X120000000Y-141665000D03*
%TO.P,P1,B17,FMC_LA24_N*%
%TO.N,/sample_clock_se_N*%
X121000000Y-141665000D03*
%TO.P,P1,B18,FMC_LA22_P*%
%TO.N,/sample_clk1_P*%
X122000000Y-141665000D03*
%TO.P,P1,B19,FMC_LA22_N*%
%TO.N,/sample_clk1_N*%
X123000000Y-141665000D03*
%TO.P,P1,B20,FMC_LA20_P*%
%TO.N,/hold*%
X124000000Y-141665000D03*
%TO.P,P1,B21,FMC_LA20_N*%
%TO.N,/timestamp_clk*%
X125000000Y-141665000D03*
%TO.P,P1,B22,FMC_LA18_CC_P*%
%TO.N,/interrupt*%
X126000000Y-141665000D03*
%TO.P,P1,B23,FMC_LA18_CC_N*%
%TO.N,/res_n*%
X127000000Y-141665000D03*
%TO.P,P1,B24,C2_4*%
%TO.N,/sr_ld*%
X128000000Y-141665000D03*
%TO.P,P1,B25,C2_3*%
%TO.N,/sr_sin*%
X129000000Y-141665000D03*
%TO.P,P1,B26,C2_8*%
%TO.N,unconnected-(P1-PadB26)*%
X130000000Y-141665000D03*
%TO.P,P1,B27,C2_7*%
%TO.N,unconnected-(P1-PadB27)*%
X131000000Y-141665000D03*
%TO.P,P1,B28,C3_4*%
%TO.N,unconnected-(P1-PadB28)*%
X132000000Y-141665000D03*
%TO.P,P1,B29,C3_3*%
%TO.N,unconnected-(P1-PadB29)*%
X133000000Y-141665000D03*
%TO.P,P1,B30,C3_8*%
%TO.N,unconnected-(P1-PadB30)*%
X134000000Y-141665000D03*
%TO.P,P1,B31,C3_7*%
%TO.N,unconnected-(P1-PadB31)*%
X135000000Y-141665000D03*
%TO.P,P1,B32,C4_4*%
%TO.N,/DAC_blpix*%
X136000000Y-141665000D03*
%TO.P,P1,B33,C4_3*%
%TO.N,/DAC_VCasc2!*%
X137000000Y-141665000D03*
%TO.P,P1,B34,C4_8*%
%TO.N,/DAC_ThPix*%
X138000000Y-141665000D03*
%TO.P,P1,B35,C4_7*%
%TO.N,/DAC_vminuspix*%
X139000000Y-141665000D03*
%TO.P,P1,B36,C5_4*%
%TO.N,unconnected-(P1-PadB36)*%
X140000000Y-141665000D03*
%TO.P,P1,B37,C5_3*%
%TO.N,unconnected-(P1-PadB37)*%
X141000000Y-141665000D03*
%TO.P,P1,B38,C5_8*%
%TO.N,unconnected-(P1-PadB38)*%
X142000000Y-141665000D03*
%TO.P,P1,B39,C5_7*%
%TO.N,unconnected-(P1-PadB39)*%
X143000000Y-141665000D03*
%TO.P,P1,B40,FMC_LA16_P*%
%TO.N,/sample_clk0_N*%
X144000000Y-141665000D03*
%TO.P,P1,B41,FMC_LA16_N*%
%TO.N,/sample_clk0_P*%
X145000000Y-141665000D03*
%TO.P,P1,B42,FMC_LA14_P*%
%TO.N,/sample_clk2_N*%
X146000000Y-141665000D03*
%TO.P,P1,B43,FMC_LA14_N*%
%TO.N,/sample_clk2_P*%
X147000000Y-141665000D03*
%TO.P,P1,B44,FMC_LA12_P*%
%TO.N,/sample_clk3_N*%
X148000000Y-141665000D03*
%TO.P,P1,B45,FMC_LA12_N*%
%TO.N,/sample_clk3_P*%
X149000000Y-141665000D03*
%TO.P,P1,B46,FMC_LA10_P*%
%TO.N,/sample_clk4_N*%
X150000000Y-141665000D03*
%TO.P,P1,B47,FMC_LA10_N*%
%TO.N,/sample_clk4_P*%
X151000000Y-141665000D03*
%TO.P,P1,B48,FMC_LA08_P*%
%TO.N,unconnected-(P1-PadB48)*%
X152000000Y-141665000D03*
%TO.P,P1,B49,FMC_LA08_N*%
%TO.N,unconnected-(P1-PadB49)*%
X153000000Y-141665000D03*
%TO.P,P1,B50*%
%TO.N,N/C*%
X154000000Y-141665000D03*
%TO.P,P1,B51*%
X155000000Y-141665000D03*
%TO.P,P1,B52*%
X156000000Y-141665000D03*
%TO.P,P1,B53*%
X157000000Y-141665000D03*
%TO.P,P1,B54*%
X158000000Y-141665000D03*
%TO.P,P1,B55*%
X159000000Y-141665000D03*
%TO.P,P1,B56*%
X160000000Y-141665000D03*
%TO.P,P1,B57*%
X161000000Y-141665000D03*
%TO.P,P1,B58*%
X162000000Y-141665000D03*
%TO.P,P1,B59*%
X163000000Y-141665000D03*
%TO.P,P1,B60*%
X164000000Y-141665000D03*
%TO.P,P1,B61*%
X165000000Y-141665000D03*
%TO.P,P1,B62*%
X166000000Y-141665000D03*
%TO.P,P1,B63*%
X167000000Y-141665000D03*
%TO.P,P1,B64*%
X168000000Y-141665000D03*
%TO.P,P1,B65*%
X169000000Y-141665000D03*
%TO.P,P1,B66*%
X170000000Y-141665000D03*
%TO.P,P1,B67*%
X171000000Y-141665000D03*
%TO.P,P1,B68*%
X172000000Y-141665000D03*
%TO.P,P1,B69*%
X173000000Y-141665000D03*
%TO.P,P1,B70*%
X174000000Y-141665000D03*
%TO.P,P1,B71*%
X175000000Y-141665000D03*
%TO.P,P1,B72*%
X176000000Y-141665000D03*
%TO.P,P1,B73*%
X177000000Y-141665000D03*
%TO.P,P1,B74*%
X178000000Y-141665000D03*
%TO.P,P1,B75*%
X179000000Y-141665000D03*
%TO.P,P1,B76*%
X180000000Y-141665000D03*
%TO.P,P1,B77*%
X181000000Y-141665000D03*
%TO.P,P1,B78*%
X182000000Y-141665000D03*
%TO.P,P1,B79*%
X183000000Y-141665000D03*
%TO.P,P1,B80*%
X184000000Y-141665000D03*
D11*
%TO.P,P1,B81*%
X185000000Y-141115000D03*
D10*
%TO.P,P1,B82*%
X186000000Y-141665000D03*
%TD*%
D12*
%TO.P,R1,1*%
%TO.N,/spi1_miso0*%
X139175000Y-98500000D03*
%TO.P,R1,2*%
%TO.N,GND*%
X140825000Y-98500000D03*
%TD*%
D13*
%TO.P,H2,1*%
%TO.N,N/C*%
X106500000Y-44665000D03*
%TD*%
D14*
%TO.P,R6,1*%
%TO.N,/spi3_miso1*%
X136000000Y-58975000D03*
%TO.P,R6,2*%
%TO.N,GND*%
X136000000Y-60625000D03*
%TD*%
%TO.P,R4,1*%
%TO.N,/spi2_miso1*%
X136000000Y-78475000D03*
%TO.P,R4,2*%
%TO.N,GND*%
X136000000Y-80125000D03*
%TD*%
D12*
%TO.P,R3,1*%
%TO.N,/spi2_miso0*%
X139850000Y-78500000D03*
%TO.P,R3,2*%
%TO.N,GND*%
X141500000Y-78500000D03*
%TD*%
D14*
%TO.P,R2,1*%
%TO.N,/spi1_miso1*%
X135000000Y-98475000D03*
%TO.P,R2,2*%
%TO.N,GND*%
X135000000Y-100125000D03*
%TD*%
D13*
%TO.P,H1,1*%
%TO.N,N/C*%
X182500000Y-44665000D03*
%TD*%
D12*
%TO.P,R5,1*%
%TO.N,/spi3_miso0*%
X141175000Y-59000000D03*
%TO.P,R5,2*%
%TO.N,GND*%
X142825000Y-59000000D03*
%TD*%
D15*
%TO.P,J4,B49*%
%TO.N,N/C*%
X167000000Y-52000000D03*
%TO.P,J4,B48*%
X166000000Y-50000000D03*
%TO.P,J4,B47*%
X165000000Y-52000000D03*
%TO.P,J4,B46*%
X164000000Y-50000000D03*
%TO.P,J4,B45*%
X163000000Y-52000000D03*
%TO.P,J4,B44,spi_right_mosi*%
%TO.N,/spi_right_mosi*%
X162000000Y-50000000D03*
%TO.P,J4,B43,spi_right_csn*%
%TO.N,/spi_right_csn*%
X161000000Y-52000000D03*
%TO.P,J4,B42,spi_right_miso0*%
%TO.N,/spi_right_miso0*%
X160000000Y-50000000D03*
%TO.P,J4,B41,spi_right_miso1*%
%TO.N,/spi_right_miso1*%
X159000000Y-52000000D03*
%TO.P,J4,B40,spi_right_clk*%
%TO.N,/spi_right_clk*%
X158000000Y-50000000D03*
%TO.P,J4,B39*%
%TO.N,N/C*%
X157000000Y-52000000D03*
%TO.P,J4,B38*%
X156000000Y-50000000D03*
%TO.P,J4,B37*%
X155000000Y-52000000D03*
%TO.P,J4,B36*%
X154000000Y-50000000D03*
%TO.P,J4,B35,DAC_vminuspix*%
%TO.N,/DAC_vminuspix*%
X153000000Y-52000000D03*
%TO.P,J4,B34,DAC_ThPix*%
%TO.N,/DAC_ThPix*%
X152000000Y-50000000D03*
%TO.P,J4,B33,DAC_Vcasc2*%
%TO.N,/DAC_VCasc2!*%
X151000000Y-52000000D03*
%TO.P,J4,B32,DAC_blpix*%
%TO.N,/DAC_ThPMOS*%
X150000000Y-50000000D03*
%TO.P,J4,B31*%
%TO.N,N/C*%
X149000000Y-52000000D03*
%TO.P,J4,B30*%
X148000000Y-50000000D03*
%TO.P,J4,B29*%
X147000000Y-52000000D03*
%TO.P,J4,B28*%
X146000000Y-50000000D03*
%TO.P,J4,B27*%
X145000000Y-52000000D03*
%TO.P,J4,B26*%
X144000000Y-50000000D03*
%TO.P,J4,B25,sr_sin*%
%TO.N,/sr_out2*%
X143000000Y-52000000D03*
%TO.P,J4,B24,sr_ld*%
%TO.N,/sr_ld*%
X142000000Y-50000000D03*
%TO.P,J4,B23,res_n*%
%TO.N,/res_n*%
X141000000Y-52000000D03*
%TO.P,J4,B22,hold*%
%TO.N,/interrupt*%
X140000000Y-50000000D03*
%TO.P,J4,B21,ts_clk*%
%TO.N,/timestamp_clk*%
X139000000Y-52000000D03*
%TO.P,J4,B20,interrupt*%
%TO.N,/hold*%
X138000000Y-50000000D03*
%TO.P,J4,B19,sample_clk_N*%
%TO.N,/sample_clk4_N*%
X137000000Y-52000000D03*
%TO.P,J4,B18,sample_clk_P*%
%TO.N,/sample_clk4_P*%
X136000000Y-50000000D03*
%TO.P,J4,B17,sample_clk_se_N*%
%TO.N,unconnected-(J4-PadB17)*%
X135000000Y-52000000D03*
%TO.P,J4,B16,sample_clk_se_P*%
%TO.N,unconnected-(J4-PadB16)*%
X134000000Y-50000000D03*
%TO.P,J4,B15*%
%TO.N,N/C*%
X133000000Y-52000000D03*
%TO.P,J4,B14*%
X132000000Y-50000000D03*
%TO.P,J4,B13*%
X131000000Y-52000000D03*
%TO.P,J4,B12*%
X130000000Y-50000000D03*
%TO.P,J4,B11,GND*%
%TO.N,GND*%
X127000000Y-52000000D03*
%TO.P,J4,B10,POW8*%
%TO.N,VSSA*%
X126000000Y-50000000D03*
%TO.P,J4,B9,POW8*%
X125000000Y-52000000D03*
%TO.P,J4,B8,POW6*%
%TO.N,VDDA*%
X124000000Y-50000000D03*
%TO.P,J4,B7,POW6*%
X123000000Y-52000000D03*
%TO.P,J4,B6,POW4*%
%TO.N,/POW4_in*%
X122000000Y-50000000D03*
%TO.P,J4,B5,POW4*%
X121000000Y-52000000D03*
%TO.P,J4,B4,VDD18*%
%TO.N,/VDD18_in*%
X120000000Y-50000000D03*
%TO.P,J4,B3,VDD18*%
X119000000Y-52000000D03*
%TO.P,J4,B2*%
%TO.N,N/C*%
X118000000Y-50000000D03*
%TO.P,J4,B1,HV*%
%TO.N,-HV*%
X117000000Y-52000000D03*
%TO.P,J4,A49*%
%TO.N,N/C*%
X167000000Y-54500000D03*
%TO.P,J4,A48*%
X166000000Y-56500000D03*
%TO.P,J4,A47*%
X165000000Y-54500000D03*
%TO.P,J4,A46*%
X164000000Y-56500000D03*
%TO.P,J4,A45*%
X163000000Y-54500000D03*
%TO.P,J4,A44,spi_right_mosi*%
%TO.N,/spi_right_mosi*%
X162000000Y-56500000D03*
%TO.P,J4,A43,spi_right_csn*%
%TO.N,/spi_right_csn*%
X161000000Y-54500000D03*
%TO.P,J4,A42,spi_right_miso0*%
%TO.N,/spi_right_miso0*%
X160000000Y-56500000D03*
%TO.P,J4,A41,spi_right_miso1*%
%TO.N,/spi_right_miso1*%
X159000000Y-54500000D03*
%TO.P,J4,A40,spi_right_clk*%
%TO.N,/spi_right_clk*%
X158000000Y-56500000D03*
%TO.P,J4,A39*%
%TO.N,N/C*%
X157000000Y-54500000D03*
%TO.P,J4,A38*%
X156000000Y-56500000D03*
%TO.P,J4,A37*%
X155000000Y-54500000D03*
%TO.P,J4,A36*%
X154000000Y-56500000D03*
%TO.P,J4,A35,DAC_vminuspix*%
%TO.N,/DAC_vminuspix*%
X153000000Y-54500000D03*
%TO.P,J4,A34,DAC_ThPix*%
%TO.N,/DAC_ThPix*%
X152000000Y-56500000D03*
%TO.P,J4,A33,DAC_Vcasc2*%
%TO.N,/DAC_VCasc2!*%
X151000000Y-54500000D03*
%TO.P,J4,A32,DAC_blpix*%
%TO.N,/DAC_blpix*%
X150000000Y-56500000D03*
%TO.P,J4,A31*%
%TO.N,N/C*%
X149000000Y-54500000D03*
%TO.P,J4,A30*%
X148000000Y-56500000D03*
%TO.P,J4,A29*%
X147000000Y-54500000D03*
%TO.P,J4,A28,Inj*%
%TO.N,/Inj*%
X146000000Y-56500000D03*
%TO.P,J4,A27*%
%TO.N,N/C*%
X145000000Y-54500000D03*
%TO.P,J4,A26*%
X144000000Y-56500000D03*
%TO.P,J4,A25,sr_ck2*%
%TO.N,/sr_ck2*%
X143000000Y-54500000D03*
%TO.P,J4,A24,sr_ck1*%
%TO.N,/sr_ck1*%
X142000000Y-56500000D03*
%TO.P,J4,A23,sr_rb*%
%TO.N,/sr_rb*%
X141000000Y-54500000D03*
%TO.P,J4,A22,sr_out*%
%TO.N,/sr_out3*%
X140000000Y-56500000D03*
%TO.P,J4,A21*%
%TO.N,N/C*%
X139000000Y-54500000D03*
%TO.P,J4,A20,spi_left_mosi*%
%TO.N,/spi3_mosi*%
X138000000Y-56500000D03*
%TO.P,J4,A19,spi_left_miso0*%
%TO.N,/spi3_miso0*%
X137000000Y-54500000D03*
%TO.P,J4,A18,spi_left_miso1*%
%TO.N,/spi3_miso1*%
X136000000Y-56500000D03*
%TO.P,J4,A17,spi_left_clk*%
%TO.N,/spi3_clk*%
X135000000Y-54500000D03*
%TO.P,J4,A16,spi_left_csn*%
%TO.N,/spi3_csn*%
X134000000Y-56500000D03*
%TO.P,J4,A15*%
%TO.N,N/C*%
X133000000Y-54500000D03*
%TO.P,J4,A14*%
X132000000Y-56500000D03*
%TO.P,J4,A13*%
X131000000Y-54500000D03*
%TO.P,J4,A12*%
X130000000Y-56500000D03*
%TO.P,J4,A11,GND*%
%TO.N,GND*%
X127000000Y-54500000D03*
%TO.P,J4,A10,POW8*%
%TO.N,VSSA*%
X126000000Y-56500000D03*
%TO.P,J4,A9,POW8*%
X125000000Y-54500000D03*
%TO.P,J4,A8,POW6*%
%TO.N,VDDA*%
X124000000Y-56500000D03*
%TO.P,J4,A7,POW6*%
X123000000Y-54500000D03*
%TO.P,J4,A6,POW4*%
%TO.N,/POW4_in*%
X122000000Y-56500000D03*
%TO.P,J4,A5,POW4*%
X121000000Y-54500000D03*
%TO.P,J4,A4,VDD18*%
%TO.N,/VDD18_in*%
X120000000Y-56500000D03*
%TO.P,J4,A3,VDD18*%
X119000000Y-54500000D03*
%TO.P,J4,A2*%
%TO.N,N/C*%
X118000000Y-56500000D03*
D16*
%TO.P,J4,A1,HV*%
%TO.N,-HV*%
X117000000Y-54500000D03*
%TD*%
D15*
%TO.P,J3,B49*%
%TO.N,N/C*%
X167000000Y-72000000D03*
%TO.P,J3,B48*%
X166000000Y-70000000D03*
%TO.P,J3,B47*%
X165000000Y-72000000D03*
%TO.P,J3,B46*%
X164000000Y-70000000D03*
%TO.P,J3,B45*%
X163000000Y-72000000D03*
%TO.P,J3,B44,spi_right_mosi*%
%TO.N,/spi3_mosi*%
X162000000Y-70000000D03*
%TO.P,J3,B43,spi_right_csn*%
%TO.N,/spi3_csn*%
X161000000Y-72000000D03*
%TO.P,J3,B42,spi_right_miso0*%
%TO.N,/spi3_miso0*%
X160000000Y-70000000D03*
%TO.P,J3,B41,spi_right_miso1*%
%TO.N,/spi3_miso1*%
X159000000Y-72000000D03*
%TO.P,J3,B40,spi_right_clk*%
%TO.N,/spi3_clk*%
X158000000Y-70000000D03*
%TO.P,J3,B39*%
%TO.N,N/C*%
X157000000Y-72000000D03*
%TO.P,J3,B38*%
X156000000Y-70000000D03*
%TO.P,J3,B37*%
X155000000Y-72000000D03*
%TO.P,J3,B36*%
X154000000Y-70000000D03*
%TO.P,J3,B35,DAC_vminuspix*%
%TO.N,/DAC_vminuspix*%
X153000000Y-72000000D03*
%TO.P,J3,B34,DAC_ThPix*%
%TO.N,/DAC_ThPix*%
X152000000Y-70000000D03*
%TO.P,J3,B33,DAC_Vcasc2*%
%TO.N,/DAC_VCasc2!*%
X151000000Y-72000000D03*
%TO.P,J3,B32,DAC_blpix*%
%TO.N,/DAC_ThPMOS*%
X150000000Y-70000000D03*
%TO.P,J3,B31*%
%TO.N,N/C*%
X149000000Y-72000000D03*
%TO.P,J3,B30*%
X148000000Y-70000000D03*
%TO.P,J3,B29*%
X147000000Y-72000000D03*
%TO.P,J3,B28*%
X146000000Y-70000000D03*
%TO.P,J3,B27*%
X145000000Y-72000000D03*
%TO.P,J3,B26*%
X144000000Y-70000000D03*
%TO.P,J3,B25,sr_sin*%
%TO.N,/sr_out1*%
X143000000Y-72000000D03*
%TO.P,J3,B24,sr_ld*%
%TO.N,/sr_ld*%
X142000000Y-70000000D03*
%TO.P,J3,B23,res_n*%
%TO.N,/res_n*%
X141000000Y-72000000D03*
%TO.P,J3,B22,hold*%
%TO.N,/interrupt*%
X140000000Y-70000000D03*
%TO.P,J3,B21,ts_clk*%
%TO.N,/timestamp_clk*%
X139000000Y-72000000D03*
%TO.P,J3,B20,interrupt*%
%TO.N,/hold*%
X138000000Y-70000000D03*
%TO.P,J3,B19,sample_clk_N*%
%TO.N,/sample_clk3_N*%
X137000000Y-72000000D03*
%TO.P,J3,B18,sample_clk_P*%
%TO.N,/sample_clk3_P*%
X136000000Y-70000000D03*
%TO.P,J3,B17,sample_clk_se_N*%
%TO.N,unconnected-(J3-PadB17)*%
X135000000Y-72000000D03*
%TO.P,J3,B16,sample_clk_se_P*%
%TO.N,unconnected-(J3-PadB16)*%
X134000000Y-70000000D03*
%TO.P,J3,B15*%
%TO.N,N/C*%
X133000000Y-72000000D03*
%TO.P,J3,B14*%
X132000000Y-70000000D03*
%TO.P,J3,B13*%
X131000000Y-72000000D03*
%TO.P,J3,B12*%
X130000000Y-70000000D03*
%TO.P,J3,B11,GND*%
%TO.N,GND*%
X127000000Y-72000000D03*
%TO.P,J3,B10,POW8*%
%TO.N,VSSA*%
X126000000Y-70000000D03*
%TO.P,J3,B9,POW8*%
X125000000Y-72000000D03*
%TO.P,J3,B8,POW6*%
%TO.N,VDDA*%
X124000000Y-70000000D03*
%TO.P,J3,B7,POW6*%
X123000000Y-72000000D03*
%TO.P,J3,B6,POW4*%
%TO.N,/POW4_in*%
X122000000Y-70000000D03*
%TO.P,J3,B5,POW4*%
X121000000Y-72000000D03*
%TO.P,J3,B4,VDD18*%
%TO.N,/VDD18_in*%
X120000000Y-70000000D03*
%TO.P,J3,B3,VDD18*%
X119000000Y-72000000D03*
%TO.P,J3,B2*%
%TO.N,N/C*%
X118000000Y-70000000D03*
%TO.P,J3,B1,HV*%
%TO.N,-HV*%
X117000000Y-72000000D03*
%TO.P,J3,A49*%
%TO.N,N/C*%
X167000000Y-74500000D03*
%TO.P,J3,A48*%
X166000000Y-76500000D03*
%TO.P,J3,A47*%
X165000000Y-74500000D03*
%TO.P,J3,A46*%
X164000000Y-76500000D03*
%TO.P,J3,A45*%
X163000000Y-74500000D03*
%TO.P,J3,A44,spi_right_mosi*%
%TO.N,/spi3_mosi*%
X162000000Y-76500000D03*
%TO.P,J3,A43,spi_right_csn*%
%TO.N,/spi3_csn*%
X161000000Y-74500000D03*
%TO.P,J3,A42,spi_right_miso0*%
%TO.N,/spi3_miso0*%
X160000000Y-76500000D03*
%TO.P,J3,A41,spi_right_miso1*%
%TO.N,/spi3_miso1*%
X159000000Y-74500000D03*
%TO.P,J3,A40,spi_right_clk*%
%TO.N,/spi3_clk*%
X158000000Y-76500000D03*
%TO.P,J3,A39*%
%TO.N,N/C*%
X157000000Y-74500000D03*
%TO.P,J3,A38*%
X156000000Y-76500000D03*
%TO.P,J3,A37*%
X155000000Y-74500000D03*
%TO.P,J3,A36*%
X154000000Y-76500000D03*
%TO.P,J3,A35,DAC_vminuspix*%
%TO.N,/DAC_vminuspix*%
X153000000Y-74500000D03*
%TO.P,J3,A34,DAC_ThPix*%
%TO.N,/DAC_ThPix*%
X152000000Y-76500000D03*
%TO.P,J3,A33,DAC_Vcasc2*%
%TO.N,/DAC_VCasc2!*%
X151000000Y-74500000D03*
%TO.P,J3,A32,DAC_blpix*%
%TO.N,/DAC_blpix*%
X150000000Y-76500000D03*
%TO.P,J3,A31*%
%TO.N,N/C*%
X149000000Y-74500000D03*
%TO.P,J3,A30*%
X148000000Y-76500000D03*
%TO.P,J3,A29*%
X147000000Y-74500000D03*
%TO.P,J3,A28,Inj*%
%TO.N,/Inj*%
X146000000Y-76500000D03*
%TO.P,J3,A27*%
%TO.N,N/C*%
X145000000Y-74500000D03*
%TO.P,J3,A26*%
X144000000Y-76500000D03*
%TO.P,J3,A25,sr_ck2*%
%TO.N,/sr_ck2*%
X143000000Y-74500000D03*
%TO.P,J3,A24,sr_ck1*%
%TO.N,/sr_ck1*%
X142000000Y-76500000D03*
%TO.P,J3,A23,sr_rb*%
%TO.N,/sr_rb*%
X141000000Y-74500000D03*
%TO.P,J3,A22,sr_out*%
%TO.N,/sr_out2*%
X140000000Y-76500000D03*
%TO.P,J3,A21*%
%TO.N,N/C*%
X139000000Y-74500000D03*
%TO.P,J3,A20,spi_left_mosi*%
%TO.N,/spi2_mosi*%
X138000000Y-76500000D03*
%TO.P,J3,A19,spi_left_miso0*%
%TO.N,/spi2_miso0*%
X137000000Y-74500000D03*
%TO.P,J3,A18,spi_left_miso1*%
%TO.N,/spi2_miso1*%
X136000000Y-76500000D03*
%TO.P,J3,A17,spi_left_clk*%
%TO.N,/spi2_clk*%
X135000000Y-74500000D03*
%TO.P,J3,A16,spi_left_csn*%
%TO.N,/spi2_csn*%
X134000000Y-76500000D03*
%TO.P,J3,A15*%
%TO.N,N/C*%
X133000000Y-74500000D03*
%TO.P,J3,A14*%
X132000000Y-76500000D03*
%TO.P,J3,A13*%
X131000000Y-74500000D03*
%TO.P,J3,A12*%
X130000000Y-76500000D03*
%TO.P,J3,A11,GND*%
%TO.N,GND*%
X127000000Y-74500000D03*
%TO.P,J3,A10,POW8*%
%TO.N,VSSA*%
X126000000Y-76500000D03*
%TO.P,J3,A9,POW8*%
X125000000Y-74500000D03*
%TO.P,J3,A8,POW6*%
%TO.N,VDDA*%
X124000000Y-76500000D03*
%TO.P,J3,A7,POW6*%
X123000000Y-74500000D03*
%TO.P,J3,A6,POW4*%
%TO.N,/POW4_in*%
X122000000Y-76500000D03*
%TO.P,J3,A5,POW4*%
X121000000Y-74500000D03*
%TO.P,J3,A4,VDD18*%
%TO.N,/VDD18_in*%
X120000000Y-76500000D03*
%TO.P,J3,A3,VDD18*%
X119000000Y-74500000D03*
%TO.P,J3,A2*%
%TO.N,N/C*%
X118000000Y-76500000D03*
D16*
%TO.P,J3,A1,HV*%
%TO.N,-HV*%
X117000000Y-74500000D03*
%TD*%
D15*
%TO.P,J1,B49*%
%TO.N,N/C*%
X167000000Y-112000000D03*
%TO.P,J1,B48*%
X166000000Y-110000000D03*
%TO.P,J1,B47*%
X165000000Y-112000000D03*
%TO.P,J1,B46*%
X164000000Y-110000000D03*
%TO.P,J1,B45*%
X163000000Y-112000000D03*
%TO.P,J1,B44,spi_right_mosi*%
%TO.N,/spi1_mosi*%
X162000000Y-110000000D03*
%TO.P,J1,B43,spi_right_csn*%
%TO.N,/spi1_csn*%
X161000000Y-112000000D03*
%TO.P,J1,B42,spi_right_miso0*%
%TO.N,/spi1_miso0*%
X160000000Y-110000000D03*
%TO.P,J1,B41,spi_right_miso1*%
%TO.N,/spi1_miso1*%
X159000000Y-112000000D03*
%TO.P,J1,B40,spi_right_clk*%
%TO.N,/spi1_clk*%
X158000000Y-110000000D03*
%TO.P,J1,B39*%
%TO.N,N/C*%
X157000000Y-112000000D03*
%TO.P,J1,B38*%
X156000000Y-110000000D03*
%TO.P,J1,B37*%
X155000000Y-112000000D03*
%TO.P,J1,B36*%
X154000000Y-110000000D03*
%TO.P,J1,B35,DAC_vminuspix*%
%TO.N,/DAC_vminuspix*%
X153000000Y-112000000D03*
%TO.P,J1,B34,DAC_ThPix*%
%TO.N,/DAC_ThPix*%
X152000000Y-110000000D03*
%TO.P,J1,B33,DAC_Vcasc2*%
%TO.N,/DAC_VCasc2!*%
X151000000Y-112000000D03*
%TO.P,J1,B32,DAC_blpix*%
%TO.N,/DAC_ThPMOS*%
X150000000Y-110000000D03*
%TO.P,J1,B31*%
%TO.N,N/C*%
X149000000Y-112000000D03*
%TO.P,J1,B30*%
X148000000Y-110000000D03*
%TO.P,J1,B29*%
X147000000Y-112000000D03*
%TO.P,J1,B28*%
X146000000Y-110000000D03*
%TO.P,J1,B27*%
X145000000Y-112000000D03*
%TO.P,J1,B26*%
X144000000Y-110000000D03*
%TO.P,J1,B25,sr_sin*%
%TO.N,/sr_sin*%
X143000000Y-112000000D03*
%TO.P,J1,B24,sr_ld*%
%TO.N,/sr_ld*%
X142000000Y-110000000D03*
%TO.P,J1,B23,res_n*%
%TO.N,/res_n*%
X141000000Y-112000000D03*
%TO.P,J1,B22,hold*%
%TO.N,/interrupt*%
X140000000Y-110000000D03*
%TO.P,J1,B21,ts_clk*%
%TO.N,/timestamp_clk*%
X139000000Y-112000000D03*
%TO.P,J1,B20,interrupt*%
%TO.N,/hold*%
X138000000Y-110000000D03*
%TO.P,J1,B19,sample_clk_N*%
%TO.N,/sample_clk0_N*%
X137000000Y-112000000D03*
%TO.P,J1,B18,sample_clk_P*%
%TO.N,/sample_clk0_P*%
X136000000Y-110000000D03*
%TO.P,J1,B17,sample_clk_se_N*%
%TO.N,unconnected-(J1-PadB17)*%
X135000000Y-112000000D03*
%TO.P,J1,B16,sample_clk_se_P*%
%TO.N,unconnected-(J1-PadB16)*%
X134000000Y-110000000D03*
%TO.P,J1,B15*%
%TO.N,N/C*%
X133000000Y-112000000D03*
%TO.P,J1,B14*%
X132000000Y-110000000D03*
%TO.P,J1,B13*%
X131000000Y-112000000D03*
%TO.P,J1,B12*%
X130000000Y-110000000D03*
%TO.P,J1,B11,GND*%
%TO.N,GND*%
X127000000Y-112000000D03*
%TO.P,J1,B10,POW8*%
%TO.N,VSSA*%
X126000000Y-110000000D03*
%TO.P,J1,B9,POW8*%
X125000000Y-112000000D03*
%TO.P,J1,B8,POW6*%
%TO.N,VDDA*%
X124000000Y-110000000D03*
%TO.P,J1,B7,POW6*%
X123000000Y-112000000D03*
%TO.P,J1,B6,POW4*%
%TO.N,/POW4_in*%
X122000000Y-110000000D03*
%TO.P,J1,B5,POW4*%
X121000000Y-112000000D03*
%TO.P,J1,B4,VDD18*%
%TO.N,/VDD18_in*%
X120000000Y-110000000D03*
%TO.P,J1,B3,VDD18*%
X119000000Y-112000000D03*
%TO.P,J1,B2*%
%TO.N,N/C*%
X118000000Y-110000000D03*
%TO.P,J1,B1,HV*%
%TO.N,-HV*%
X117000000Y-112000000D03*
%TO.P,J1,A49*%
%TO.N,N/C*%
X167000000Y-114500000D03*
%TO.P,J1,A48*%
X166000000Y-116500000D03*
%TO.P,J1,A47*%
X165000000Y-114500000D03*
%TO.P,J1,A46*%
X164000000Y-116500000D03*
%TO.P,J1,A45*%
X163000000Y-114500000D03*
%TO.P,J1,A44,spi_right_mosi*%
%TO.N,/spi1_mosi*%
X162000000Y-116500000D03*
%TO.P,J1,A43,spi_right_csn*%
%TO.N,/spi1_csn*%
X161000000Y-114500000D03*
%TO.P,J1,A42,spi_right_miso0*%
%TO.N,/spi1_miso0*%
X160000000Y-116500000D03*
%TO.P,J1,A41,spi_right_miso1*%
%TO.N,/spi1_miso1*%
X159000000Y-114500000D03*
%TO.P,J1,A40,spi_right_clk*%
%TO.N,/spi1_clk*%
X158000000Y-116500000D03*
%TO.P,J1,A39*%
%TO.N,N/C*%
X157000000Y-114500000D03*
%TO.P,J1,A38*%
X156000000Y-116500000D03*
%TO.P,J1,A37*%
X155000000Y-114500000D03*
%TO.P,J1,A36*%
X154000000Y-116500000D03*
%TO.P,J1,A35,DAC_vminuspix*%
%TO.N,/DAC_vminuspix*%
X153000000Y-114500000D03*
%TO.P,J1,A34,DAC_ThPix*%
%TO.N,/DAC_ThPix*%
X152000000Y-116500000D03*
%TO.P,J1,A33,DAC_Vcasc2*%
%TO.N,/DAC_VCasc2!*%
X151000000Y-114500000D03*
%TO.P,J1,A32,DAC_blpix*%
%TO.N,/DAC_blpix*%
X150000000Y-116500000D03*
%TO.P,J1,A31*%
%TO.N,N/C*%
X149000000Y-114500000D03*
%TO.P,J1,A30*%
X148000000Y-116500000D03*
%TO.P,J1,A29*%
X147000000Y-114500000D03*
%TO.P,J1,A28,Inj*%
%TO.N,/Inj*%
X146000000Y-116500000D03*
%TO.P,J1,A27*%
%TO.N,N/C*%
X145000000Y-114500000D03*
%TO.P,J1,A26*%
X144000000Y-116500000D03*
%TO.P,J1,A25,sr_ck2*%
%TO.N,/sr_ck2*%
X143000000Y-114500000D03*
%TO.P,J1,A24,sr_ck1*%
%TO.N,/sr_ck1*%
X142000000Y-116500000D03*
%TO.P,J1,A23,sr_rb*%
%TO.N,/sr_rb*%
X141000000Y-114500000D03*
%TO.P,J1,A22,sr_out*%
%TO.N,/sr_out*%
X140000000Y-116500000D03*
%TO.P,J1,A21*%
%TO.N,N/C*%
X139000000Y-114500000D03*
%TO.P,J1,A20,spi_left_mosi*%
%TO.N,/spi_left_mosi*%
X138000000Y-116500000D03*
%TO.P,J1,A19,spi_left_miso0*%
%TO.N,/spi_left_miso0*%
X137000000Y-114500000D03*
%TO.P,J1,A18,spi_left_miso1*%
%TO.N,/spi_left_miso1*%
X136000000Y-116500000D03*
%TO.P,J1,A17,spi_left_clk*%
%TO.N,/spi_left_clk*%
X135000000Y-114500000D03*
%TO.P,J1,A16,spi_left_csn*%
%TO.N,/spi_left_csn*%
X134000000Y-116500000D03*
%TO.P,J1,A15*%
%TO.N,N/C*%
X133000000Y-114500000D03*
%TO.P,J1,A14*%
X132000000Y-116500000D03*
%TO.P,J1,A13*%
X131000000Y-114500000D03*
%TO.P,J1,A12*%
X130000000Y-116500000D03*
%TO.P,J1,A11,GND*%
%TO.N,GND*%
X127000000Y-114500000D03*
%TO.P,J1,A10,POW8*%
%TO.N,VSSA*%
X126000000Y-116500000D03*
%TO.P,J1,A9,POW8*%
X125000000Y-114500000D03*
%TO.P,J1,A8,POW6*%
%TO.N,VDDA*%
X124000000Y-116500000D03*
%TO.P,J1,A7,POW6*%
X123000000Y-114500000D03*
%TO.P,J1,A6,POW4*%
%TO.N,/POW4_in*%
X122000000Y-116500000D03*
%TO.P,J1,A5,POW4*%
X121000000Y-114500000D03*
%TO.P,J1,A4,VDD18*%
%TO.N,/VDD18_in*%
X120000000Y-116500000D03*
%TO.P,J1,A3,VDD18*%
X119000000Y-114500000D03*
%TO.P,J1,A2*%
%TO.N,N/C*%
X118000000Y-116500000D03*
D16*
%TO.P,J1,A1,HV*%
%TO.N,-HV*%
X117000000Y-114500000D03*
%TD*%
D15*
%TO.P,J2,B49*%
%TO.N,N/C*%
X167000000Y-92000000D03*
%TO.P,J2,B48*%
X166000000Y-90000000D03*
%TO.P,J2,B47*%
X165000000Y-92000000D03*
%TO.P,J2,B46*%
X164000000Y-90000000D03*
%TO.P,J2,B45*%
X163000000Y-92000000D03*
%TO.P,J2,B44,spi_right_mosi*%
%TO.N,/spi2_mosi*%
X162000000Y-90000000D03*
%TO.P,J2,B43,spi_right_csn*%
%TO.N,/spi2_csn*%
X161000000Y-92000000D03*
%TO.P,J2,B42,spi_right_miso0*%
%TO.N,/spi2_miso0*%
X160000000Y-90000000D03*
%TO.P,J2,B41,spi_right_miso1*%
%TO.N,/spi2_miso1*%
X159000000Y-92000000D03*
%TO.P,J2,B40,spi_right_clk*%
%TO.N,/spi2_clk*%
X158000000Y-90000000D03*
%TO.P,J2,B39*%
%TO.N,N/C*%
X157000000Y-92000000D03*
%TO.P,J2,B38*%
X156000000Y-90000000D03*
%TO.P,J2,B37*%
X155000000Y-92000000D03*
%TO.P,J2,B36*%
X154000000Y-90000000D03*
%TO.P,J2,B35,DAC_vminuspix*%
%TO.N,/DAC_vminuspix*%
X153000000Y-92000000D03*
%TO.P,J2,B34,DAC_ThPix*%
%TO.N,/DAC_ThPix*%
X152000000Y-90000000D03*
%TO.P,J2,B33,DAC_Vcasc2*%
%TO.N,/DAC_VCasc2!*%
X151000000Y-92000000D03*
%TO.P,J2,B32,DAC_blpix*%
%TO.N,/DAC_ThPMOS*%
X150000000Y-90000000D03*
%TO.P,J2,B31*%
%TO.N,N/C*%
X149000000Y-92000000D03*
%TO.P,J2,B30*%
X148000000Y-90000000D03*
%TO.P,J2,B29*%
X147000000Y-92000000D03*
%TO.P,J2,B28*%
X146000000Y-90000000D03*
%TO.P,J2,B27*%
X145000000Y-92000000D03*
%TO.P,J2,B26*%
X144000000Y-90000000D03*
%TO.P,J2,B25,sr_sin*%
%TO.N,/sr_out*%
X143000000Y-92000000D03*
%TO.P,J2,B24,sr_ld*%
%TO.N,/sr_ld*%
X142000000Y-90000000D03*
%TO.P,J2,B23,res_n*%
%TO.N,/res_n*%
X141000000Y-92000000D03*
%TO.P,J2,B22,hold*%
%TO.N,/interrupt*%
X140000000Y-90000000D03*
%TO.P,J2,B21,ts_clk*%
%TO.N,/timestamp_clk*%
X139000000Y-92000000D03*
%TO.P,J2,B20,interrupt*%
%TO.N,/hold*%
X138000000Y-90000000D03*
%TO.P,J2,B19,sample_clk_N*%
%TO.N,/sample_clk2_N*%
X137000000Y-92000000D03*
%TO.P,J2,B18,sample_clk_P*%
%TO.N,/sample_clk2_P*%
X136000000Y-90000000D03*
%TO.P,J2,B17,sample_clk_se_N*%
%TO.N,unconnected-(J2-PadB17)*%
X135000000Y-92000000D03*
%TO.P,J2,B16,sample_clk_se_P*%
%TO.N,unconnected-(J2-PadB16)*%
X134000000Y-90000000D03*
%TO.P,J2,B15*%
%TO.N,N/C*%
X133000000Y-92000000D03*
%TO.P,J2,B14*%
X132000000Y-90000000D03*
%TO.P,J2,B13*%
X131000000Y-92000000D03*
%TO.P,J2,B12*%
X130000000Y-90000000D03*
%TO.P,J2,B11,GND*%
%TO.N,GND*%
X127000000Y-92000000D03*
%TO.P,J2,B10,POW8*%
%TO.N,VSSA*%
X126000000Y-90000000D03*
%TO.P,J2,B9,POW8*%
X125000000Y-92000000D03*
%TO.P,J2,B8,POW6*%
%TO.N,VDDA*%
X124000000Y-90000000D03*
%TO.P,J2,B7,POW6*%
X123000000Y-92000000D03*
%TO.P,J2,B6,POW4*%
%TO.N,/POW4_in*%
X122000000Y-90000000D03*
%TO.P,J2,B5,POW4*%
X121000000Y-92000000D03*
%TO.P,J2,B4,VDD18*%
%TO.N,/VDD18_in*%
X120000000Y-90000000D03*
%TO.P,J2,B3,VDD18*%
X119000000Y-92000000D03*
%TO.P,J2,B2*%
%TO.N,N/C*%
X118000000Y-90000000D03*
%TO.P,J2,B1,HV*%
%TO.N,-HV*%
X117000000Y-92000000D03*
%TO.P,J2,A49*%
%TO.N,N/C*%
X167000000Y-94500000D03*
%TO.P,J2,A48*%
X166000000Y-96500000D03*
%TO.P,J2,A47*%
X165000000Y-94500000D03*
%TO.P,J2,A46*%
X164000000Y-96500000D03*
%TO.P,J2,A45*%
X163000000Y-94500000D03*
%TO.P,J2,A44,spi_right_mosi*%
%TO.N,/spi2_mosi*%
X162000000Y-96500000D03*
%TO.P,J2,A43,spi_right_csn*%
%TO.N,/spi2_csn*%
X161000000Y-94500000D03*
%TO.P,J2,A42,spi_right_miso0*%
%TO.N,/spi2_miso0*%
X160000000Y-96500000D03*
%TO.P,J2,A41,spi_right_miso1*%
%TO.N,/spi2_miso1*%
X159000000Y-94500000D03*
%TO.P,J2,A40,spi_right_clk*%
%TO.N,/spi2_clk*%
X158000000Y-96500000D03*
%TO.P,J2,A39*%
%TO.N,N/C*%
X157000000Y-94500000D03*
%TO.P,J2,A38*%
X156000000Y-96500000D03*
%TO.P,J2,A37*%
X155000000Y-94500000D03*
%TO.P,J2,A36*%
X154000000Y-96500000D03*
%TO.P,J2,A35,DAC_vminuspix*%
%TO.N,/DAC_vminuspix*%
X153000000Y-94500000D03*
%TO.P,J2,A34,DAC_ThPix*%
%TO.N,/DAC_ThPix*%
X152000000Y-96500000D03*
%TO.P,J2,A33,DAC_Vcasc2*%
%TO.N,/DAC_VCasc2!*%
X151000000Y-94500000D03*
%TO.P,J2,A32,DAC_blpix*%
%TO.N,/DAC_blpix*%
X150000000Y-96500000D03*
%TO.P,J2,A31*%
%TO.N,N/C*%
X149000000Y-94500000D03*
%TO.P,J2,A30*%
X148000000Y-96500000D03*
%TO.P,J2,A29*%
X147000000Y-94500000D03*
%TO.P,J2,A28,Inj*%
%TO.N,/Inj*%
X146000000Y-96500000D03*
%TO.P,J2,A27*%
%TO.N,N/C*%
X145000000Y-94500000D03*
%TO.P,J2,A26*%
X144000000Y-96500000D03*
%TO.P,J2,A25,sr_ck2*%
%TO.N,/sr_ck2*%
X143000000Y-94500000D03*
%TO.P,J2,A24,sr_ck1*%
%TO.N,/sr_ck1*%
X142000000Y-96500000D03*
%TO.P,J2,A23,sr_rb*%
%TO.N,/sr_rb*%
X141000000Y-94500000D03*
%TO.P,J2,A22,sr_out*%
%TO.N,/sr_out1*%
X140000000Y-96500000D03*
%TO.P,J2,A21*%
%TO.N,N/C*%
X139000000Y-94500000D03*
%TO.P,J2,A20,spi_left_mosi*%
%TO.N,/spi1_mosi*%
X138000000Y-96500000D03*
%TO.P,J2,A19,spi_left_miso0*%
%TO.N,/spi1_miso0*%
X137000000Y-94500000D03*
%TO.P,J2,A18,spi_left_miso1*%
%TO.N,/spi1_miso1*%
X136000000Y-96500000D03*
%TO.P,J2,A17,spi_left_clk*%
%TO.N,/spi1_clk*%
X135000000Y-94500000D03*
%TO.P,J2,A16,spi_left_csn*%
%TO.N,/spi1_csn*%
X134000000Y-96500000D03*
%TO.P,J2,A15*%
%TO.N,N/C*%
X133000000Y-94500000D03*
%TO.P,J2,A14*%
X132000000Y-96500000D03*
%TO.P,J2,A13*%
X131000000Y-94500000D03*
%TO.P,J2,A12*%
X130000000Y-96500000D03*
%TO.P,J2,A11,GND*%
%TO.N,GND*%
X127000000Y-94500000D03*
%TO.P,J2,A10,POW8*%
%TO.N,VSSA*%
X126000000Y-96500000D03*
%TO.P,J2,A9,POW8*%
X125000000Y-94500000D03*
%TO.P,J2,A8,POW6*%
%TO.N,VDDA*%
X124000000Y-96500000D03*
%TO.P,J2,A7,POW6*%
X123000000Y-94500000D03*
%TO.P,J2,A6,POW4*%
%TO.N,/POW4_in*%
X122000000Y-96500000D03*
%TO.P,J2,A5,POW4*%
X121000000Y-94500000D03*
%TO.P,J2,A4,VDD18*%
%TO.N,/VDD18_in*%
X120000000Y-96500000D03*
%TO.P,J2,A3,VDD18*%
X119000000Y-94500000D03*
%TO.P,J2,A2*%
%TO.N,N/C*%
X118000000Y-96500000D03*
D16*
%TO.P,J2,A1,HV*%
%TO.N,-HV*%
X117000000Y-94500000D03*
%TD*%
D17*
%TO.N,GND*%
X111900000Y-138665000D03*
X144000000Y-59000000D03*
X111900000Y-136665000D03*
X142624500Y-78500000D03*
X136000000Y-62124500D03*
X142000000Y-98500000D03*
X135000000Y-101500000D03*
X112800000Y-136665000D03*
X112800000Y-137665000D03*
X112800000Y-138665000D03*
X136000000Y-81200000D03*
X111900000Y-137665000D03*
%TO.N,VDDA*%
X110000000Y-138665000D03*
X110000000Y-136665000D03*
X109000000Y-136665000D03*
X109000000Y-138665000D03*
X109000000Y-137665000D03*
X110000000Y-137665000D03*
D18*
%TO.N,-HV*%
X103000000Y-138500000D03*
D17*
%TO.N,/interrupt*%
X106000000Y-85000000D03*
X106000000Y-104000000D03*
X111500000Y-43994961D03*
X106000000Y-62500000D03*
%TO.N,/POW4_in*%
X108000000Y-137665000D03*
X107000000Y-136665000D03*
X108000000Y-138665000D03*
X107000000Y-137665000D03*
X107000000Y-138665000D03*
X108000000Y-136665000D03*
%TO.N,/sr_ck1*%
X111000000Y-61000000D03*
X128036839Y-130661339D03*
X111000000Y-80365000D03*
X111000000Y-100000000D03*
%TO.N,/res_n*%
X107000000Y-84466499D03*
X107000000Y-103163455D03*
X112600000Y-43000000D03*
X107000000Y-61500000D03*
%TO.N,/VDD18_in*%
X106000000Y-137665000D03*
X106000000Y-136665000D03*
X105000000Y-137665000D03*
X106000000Y-138665000D03*
X105000000Y-138665000D03*
X105000000Y-136665000D03*
%TO.N,/hold*%
X104000000Y-105500000D03*
X104000000Y-64600000D03*
X109050000Y-47815000D03*
X104000000Y-86000000D03*
%TO.N,/sr_rb*%
X110000000Y-79500000D03*
X127000000Y-131500000D03*
X110000000Y-99000000D03*
X110000000Y-60000000D03*
%TO.N,/timestamp_clk*%
X105000000Y-63375500D03*
X110500000Y-45000000D03*
X105000000Y-105000000D03*
X105000000Y-85500000D03*
%TO.N,/sr_ck2*%
X129403478Y-129903478D03*
X112000000Y-81250000D03*
X112000000Y-61750000D03*
X112000000Y-101000000D03*
%TO.N,/sr_ld*%
X113750000Y-42250000D03*
X109000000Y-61215000D03*
X109000000Y-83000000D03*
%TO.N,/spi1_clk*%
X154000000Y-100083867D03*
%TO.N,/spi1_miso1*%
X155000000Y-100732902D03*
%TO.N,/spi1_miso0*%
X154681132Y-98500000D03*
%TO.N,/spi1_csn*%
X157097701Y-100895879D03*
%TO.N,/spi1_mosi*%
X157000000Y-99463425D03*
%TO.N,/spi2_clk*%
X153900000Y-80400000D03*
%TO.N,/spi2_miso1*%
X154800000Y-81300000D03*
%TO.N,/spi2_miso0*%
X154631132Y-78500000D03*
%TO.N,/spi2_csn*%
X158118445Y-81633078D03*
%TO.N,/spi2_mosi*%
X157500000Y-80500000D03*
%TO.N,/spi3_clk*%
X154450000Y-61000000D03*
%TO.N,/spi3_miso1*%
X155541589Y-62000000D03*
%TO.N,/spi3_miso0*%
X154650000Y-58866000D03*
%TO.N,/spi3_csn*%
X157500000Y-63000000D03*
%TO.N,/spi3_mosi*%
X157500000Y-61500000D03*
%TO.N,/sr_out3*%
X125900000Y-134000000D03*
X108000000Y-60500000D03*
D18*
%TO.N,/DAC_ThPMOS*%
X135250000Y-138450000D03*
X150000000Y-78400000D03*
X150000000Y-58050000D03*
X150000000Y-98050000D03*
%TO.N,VSSA*%
X111199520Y-134100000D03*
X111200000Y-135200000D03*
%TD*%
D19*
%TO.N,/sr_ld*%
X127965000Y-132800000D02*
X128000000Y-132765000D01*
X125300000Y-132800000D02*
X127965000Y-132800000D01*
X109000000Y-83000000D02*
X109000000Y-116500000D01*
X109000000Y-116500000D02*
X125300000Y-132800000D01*
X140000000Y-111593097D02*
X141593097Y-110000000D01*
X140000000Y-115100000D02*
X140000000Y-111593097D01*
X139000000Y-116100000D02*
X140000000Y-115100000D01*
X139000000Y-121765000D02*
X139000000Y-116100000D01*
X128000000Y-132765000D02*
X139000000Y-121765000D01*
X141593097Y-110000000D02*
X142000000Y-110000000D01*
X128000000Y-141665000D02*
X128000000Y-132765000D01*
%TO.N,/spi3_miso1*%
X137325000Y-60500000D02*
X136000000Y-59175000D01*
X138000000Y-60500000D02*
X137325000Y-60500000D01*
X138500000Y-61000000D02*
X138000000Y-60500000D01*
X138500000Y-61500000D02*
X138500000Y-61000000D01*
X137900000Y-61500000D02*
X138500000Y-61500000D01*
X137350000Y-62050000D02*
X137900000Y-61500000D01*
X137800000Y-62500000D02*
X137350000Y-62050000D01*
X151400000Y-62500000D02*
X137800000Y-62500000D01*
X152300000Y-61600000D02*
X151400000Y-62500000D01*
X152700000Y-61600000D02*
X152300000Y-61600000D01*
X154300000Y-62200000D02*
X153800000Y-62700000D01*
X154500000Y-62200000D02*
X154300000Y-62200000D01*
X154800000Y-62500000D02*
X154500000Y-62200000D01*
X155041589Y-62500000D02*
X154800000Y-62500000D01*
X153800000Y-62700000D02*
X152700000Y-61600000D01*
X155541589Y-62000000D02*
X155041589Y-62500000D01*
%TO.N,/spi3_clk*%
X135556902Y-54500000D02*
X135313805Y-54500000D01*
X137000000Y-55943098D02*
X135556902Y-54500000D01*
X152100000Y-60600000D02*
X151100000Y-61600000D01*
X152900000Y-60600000D02*
X152100000Y-60600000D01*
X151100000Y-61600000D02*
X140100000Y-61600000D01*
X140100000Y-61600000D02*
X137000000Y-58500000D01*
X153950000Y-61500000D02*
X153800000Y-61500000D01*
X137000000Y-58500000D02*
X137000000Y-55943098D01*
X154450000Y-61000000D02*
X153950000Y-61500000D01*
X153800000Y-61500000D02*
X152900000Y-60600000D01*
%TO.N,/res_n*%
X112600000Y-43000000D02*
X112600000Y-48900000D01*
X112600000Y-48900000D02*
X107000000Y-54500000D01*
X107000000Y-54500000D02*
X107000000Y-61500000D01*
%TO.N,/sr_sin*%
X141000000Y-121200000D02*
X129000000Y-133200000D01*
X140300000Y-120100000D02*
X141000000Y-120800000D01*
X140300000Y-119300000D02*
X140300000Y-120100000D01*
X140600000Y-119000000D02*
X140300000Y-119300000D01*
X141700000Y-119000000D02*
X140600000Y-119000000D01*
X142000000Y-118700000D02*
X141700000Y-119000000D01*
X142000000Y-118300000D02*
X142000000Y-118700000D01*
X141000000Y-120800000D02*
X141000000Y-121200000D01*
X141000000Y-117700000D02*
X141300000Y-118000000D01*
X129000000Y-133200000D02*
X129000000Y-141665000D01*
X141000000Y-115957500D02*
X141000000Y-117700000D01*
X141300000Y-118000000D02*
X141700000Y-118000000D01*
X142000000Y-114957500D02*
X141000000Y-115957500D01*
X141700000Y-118000000D02*
X142000000Y-118300000D01*
X142000000Y-113000000D02*
X142000000Y-114957500D01*
X143000000Y-112000000D02*
X142000000Y-113000000D01*
%TO.N,/spi2_clk*%
X137000000Y-76000000D02*
X135518867Y-74518867D01*
X137000000Y-79200000D02*
X137000000Y-76000000D01*
X138900000Y-81100000D02*
X137000000Y-79200000D01*
X153200000Y-81100000D02*
X138900000Y-81100000D01*
X135518867Y-74518867D02*
X135468867Y-74518867D01*
X153900000Y-80400000D02*
X153200000Y-81100000D01*
%TO.N,/spi2_miso1*%
X136000000Y-76537735D02*
X135981132Y-76518867D01*
X136500000Y-82000000D02*
X135700000Y-82000000D01*
X135100000Y-79300000D02*
X136000000Y-78400000D01*
X136000000Y-78400000D02*
X136000000Y-76537735D01*
X136600000Y-81900000D02*
X136500000Y-82000000D01*
X135100000Y-81400000D02*
X135100000Y-79300000D01*
X154200000Y-81900000D02*
X136600000Y-81900000D01*
X135700000Y-82000000D02*
X135100000Y-81400000D01*
X154800000Y-81300000D02*
X154200000Y-81900000D01*
%TO.N,/spi2_csn*%
X134900000Y-82800000D02*
X134200000Y-82100000D01*
X134200000Y-82100000D02*
X134200000Y-76737735D01*
X154800000Y-82800000D02*
X134900000Y-82800000D01*
X134200000Y-76737735D02*
X133981132Y-76518867D01*
X155966922Y-81633078D02*
X154800000Y-82800000D01*
X158118445Y-81633078D02*
X155966922Y-81633078D01*
%TO.N,/spi2_mosi*%
X137981132Y-78481132D02*
X137981132Y-76518867D01*
X139800000Y-80300000D02*
X137981132Y-78481132D01*
X151000000Y-80300000D02*
X139800000Y-80300000D01*
X151800000Y-79500000D02*
X151000000Y-80300000D01*
X157500000Y-80500000D02*
X156500000Y-79500000D01*
X156500000Y-79500000D02*
X151800000Y-79500000D01*
%TO.N,/spi2_miso0*%
X137518867Y-74518867D02*
X136981132Y-74518867D01*
X139000000Y-76000000D02*
X137518867Y-74518867D01*
X140623632Y-79400000D02*
X139000000Y-77776368D01*
X151300000Y-78500000D02*
X150400000Y-79400000D01*
X139000000Y-77776368D02*
X139000000Y-76000000D01*
X154631132Y-78500000D02*
X151300000Y-78500000D01*
X150400000Y-79400000D02*
X140623632Y-79400000D01*
%TO.N,/spi3_miso1*%
X136000000Y-59000000D02*
X136000000Y-56500000D01*
%TO.N,/spi3_miso0*%
X142025000Y-58150000D02*
X148598128Y-58150000D01*
X141175000Y-59000000D02*
X142025000Y-58150000D01*
X154650000Y-58250000D02*
X154650000Y-58866000D01*
X154300000Y-57900000D02*
X154650000Y-58250000D01*
X151300000Y-57900000D02*
X154300000Y-57900000D01*
X151000000Y-58200000D02*
X151300000Y-57900000D01*
X151000000Y-58400000D02*
X151000000Y-58200000D01*
X150200000Y-59200000D02*
X151000000Y-58400000D01*
X149648128Y-59200000D02*
X150200000Y-59200000D01*
X148598128Y-58150000D02*
X149648128Y-59200000D01*
%TO.N,/spi3_mosi*%
X138000000Y-58000000D02*
X138000000Y-56500000D01*
X139977974Y-59977974D02*
X138000000Y-58000000D01*
X155977974Y-59977974D02*
X139977974Y-59977974D01*
X157500000Y-61500000D02*
X155977974Y-59977974D01*
%TO.N,/spi1_csn*%
X134000000Y-103500000D02*
X153746790Y-103500000D01*
X156350911Y-100895879D02*
X153746790Y-103500000D01*
X157097701Y-100895879D02*
X156350911Y-100895879D01*
%TO.N,/spi1_miso1*%
X133825000Y-98675000D02*
X135000000Y-98675000D01*
X133500000Y-99000000D02*
X133825000Y-98675000D01*
X134525000Y-102500000D02*
X133500000Y-101475000D01*
X153200000Y-102500000D02*
X134525000Y-102500000D01*
X133500000Y-101475000D02*
X133500000Y-99000000D01*
%TO.N,/spi1_clk*%
X138000000Y-101500000D02*
X152583867Y-101500000D01*
X154000000Y-100083867D02*
X152583867Y-101500000D01*
%TO.N,/spi1_miso0*%
X137525769Y-94468867D02*
X137282672Y-94468867D01*
X139000000Y-95943098D02*
X137525769Y-94468867D01*
X139175000Y-99175000D02*
X139175000Y-97625000D01*
X151800000Y-99500000D02*
X139500000Y-99500000D01*
X139175000Y-97625000D02*
X139000000Y-97450000D01*
X152800000Y-98500000D02*
X151800000Y-99500000D01*
X139500000Y-99500000D02*
X139175000Y-99175000D01*
X139000000Y-97450000D02*
X139000000Y-95943098D01*
X154681132Y-98500000D02*
X152800000Y-98500000D01*
%TO.N,/spi3_miso0*%
X139000000Y-56825000D02*
X141175000Y-59000000D01*
%TO.N,/spi3_csn*%
X136000000Y-63500000D02*
X157000000Y-63500000D01*
X134000000Y-61500000D02*
X136000000Y-63500000D01*
X157000000Y-63500000D02*
X157500000Y-63000000D01*
X134000000Y-56500000D02*
X134000000Y-61500000D01*
%TO.N,/spi3_miso0*%
X139000000Y-55915000D02*
X139000000Y-56825000D01*
X137585000Y-54500000D02*
X139000000Y-55915000D01*
X137000000Y-54500000D02*
X137585000Y-54500000D01*
%TO.N,/spi1_clk*%
X137000000Y-96000000D02*
X135468867Y-94468867D01*
X137000000Y-98000000D02*
X137000000Y-96000000D01*
X136500000Y-98500000D02*
X137000000Y-98000000D01*
X138000000Y-101500000D02*
X136500000Y-100000000D01*
X135468867Y-94468867D02*
X135344937Y-94468867D01*
X136500000Y-100000000D02*
X136500000Y-98500000D01*
%TO.N,/spi1_miso1*%
X155000000Y-100732902D02*
X153232902Y-102500000D01*
%TO.N,/spi1_csn*%
X132500000Y-97999999D02*
X134031132Y-96468867D01*
X132500000Y-102000000D02*
X132500000Y-97999999D01*
X134000000Y-103500000D02*
X132500000Y-102000000D01*
%TO.N,/sr_ld*%
X109000000Y-61215000D02*
X109000000Y-83000000D01*
X109000000Y-53909099D02*
X109000000Y-61215000D01*
%TO.N,/timestamp_clk*%
X105000000Y-105000000D02*
X105000000Y-85500000D01*
X105000000Y-118500000D02*
X105000000Y-105000000D01*
%TO.N,/sr_rb*%
X110000000Y-99000000D02*
X110000000Y-79500000D01*
X110000000Y-116000000D02*
X110000000Y-99000000D01*
%TO.N,/sr_ck1*%
X111000000Y-100000000D02*
X111000000Y-115500000D01*
X111000000Y-80365000D02*
X111000000Y-100000000D01*
%TO.N,/spi1_mosi*%
X138900000Y-100500000D02*
X138000000Y-99600000D01*
X153141125Y-99458867D02*
X152099992Y-100500000D01*
X138000000Y-99600000D02*
X138000000Y-96499999D01*
X154258884Y-99458867D02*
X153141125Y-99458867D01*
X152099992Y-100500000D02*
X138900000Y-100500000D01*
X154263442Y-99463425D02*
X154258884Y-99458867D01*
X157000000Y-99463425D02*
X154263442Y-99463425D01*
%TO.N,GND*%
X136000000Y-80325000D02*
X136000000Y-81200000D01*
D20*
%TO.N,/sample_clk0_P*%
X145000000Y-138439999D02*
X145000000Y-141665000D01*
X144675000Y-138114999D02*
X145000000Y-138439999D01*
X144675000Y-133337486D02*
X144675000Y-138114999D01*
X157012486Y-121000000D02*
X144675000Y-133337486D01*
X170665686Y-121000000D02*
X157012486Y-121000000D01*
X173100000Y-108734314D02*
X173100000Y-118565685D01*
X171281371Y-106915685D02*
X173100000Y-108734314D01*
X171281370Y-106915684D02*
X171281371Y-106915685D01*
X171358216Y-106414577D02*
X171281370Y-106491420D01*
X171358215Y-106414578D02*
X171358216Y-106414577D01*
X170857107Y-106067157D02*
X170933952Y-105990313D01*
X170857108Y-106067156D02*
X170857107Y-106067157D01*
X169730686Y-105365000D02*
X170432843Y-106067157D01*
X136000000Y-107317515D02*
X137952515Y-105365000D01*
X171281322Y-106915732D02*
G75*
G02*
X171281370Y-106491420I212178J212132D01*
G01*
X136000000Y-110000000D02*
X136000000Y-107317515D01*
X137952515Y-105365000D02*
X169730686Y-105365000D01*
X171358169Y-106414532D02*
G75*
G03*
X171358215Y-105990314I-212069J212132D01*
G01*
X171358215Y-105990314D02*
G75*
G03*
X170933953Y-105990314I-212131J-212131D01*
G01*
X170857133Y-106067181D02*
G75*
G02*
X170432843Y-106067157I-212133J212181D01*
G01*
X173100000Y-118565685D02*
X170665686Y-121000000D01*
%TO.N,/sample_clk0_N*%
X137000000Y-109500000D02*
X137000000Y-112000000D01*
X136400000Y-107483202D02*
X136400000Y-108900000D01*
X138118201Y-105765000D02*
X136400000Y-107483202D01*
X169565000Y-105765000D02*
X138118201Y-105765000D01*
X172699999Y-118400000D02*
X172699999Y-108899999D01*
X170499999Y-120600000D02*
X172699999Y-118400000D01*
X144275000Y-133171801D02*
X156846802Y-120600000D01*
X144275000Y-138164999D02*
X144275000Y-133171801D01*
X136400000Y-108900000D02*
X137000000Y-109500000D01*
X156846802Y-120600000D02*
X170499999Y-120600000D01*
X144000000Y-138439999D02*
X144275000Y-138164999D01*
X144000000Y-141665000D02*
X144000000Y-138439999D01*
X172699999Y-108899999D02*
X169565000Y-105765000D01*
%TO.N,/sample_clk2_P*%
X136600000Y-89400000D02*
X136000000Y-90000000D01*
X136600000Y-87965001D02*
X136600000Y-89400000D01*
X139325001Y-85240000D02*
X136600000Y-87965001D01*
X173040000Y-85240000D02*
X139325001Y-85240000D01*
X177101471Y-89301471D02*
X173040000Y-85240000D01*
X177185678Y-89385678D02*
X177101471Y-89301471D01*
X177525735Y-89385678D02*
X177525734Y-89385678D01*
X177525735Y-89385677D02*
X177525735Y-89385678D01*
X177950000Y-89469886D02*
X177865792Y-89385678D01*
X177950000Y-89809943D02*
X177950000Y-89809942D01*
X177949999Y-89809943D02*
X177950000Y-89809943D01*
X178400000Y-90600000D02*
X177950000Y-90150000D01*
X178400000Y-118215686D02*
X178400000Y-90600000D01*
X155743200Y-126440000D02*
X170175686Y-126440000D01*
X146725000Y-135458200D02*
X155743200Y-126440000D01*
X146725000Y-138164999D02*
X146725000Y-135458200D01*
X147000000Y-141665000D02*
X147000000Y-138439999D01*
X177185679Y-89385677D02*
G75*
G03*
X177525733Y-89385677I170027J170027D01*
G01*
X147000000Y-138439999D02*
X146725000Y-138164999D01*
X177950014Y-89469872D02*
G75*
G02*
X177950000Y-89809942I-170014J-170028D01*
G01*
X177525772Y-89385714D02*
G75*
G02*
X177865792Y-89385678I170028J-169986D01*
G01*
X170175686Y-126440000D02*
X178400000Y-118215686D01*
X177950028Y-89809972D02*
G75*
G03*
X177950000Y-90150000I169972J-170028D01*
G01*
%TO.N,/sample_clk2_N*%
X146000000Y-138439999D02*
X146000000Y-141665000D01*
X146325000Y-138114999D02*
X146000000Y-138439999D01*
X146325000Y-135292514D02*
X146325000Y-138114999D01*
X170010000Y-126040000D02*
X155577514Y-126040000D01*
X178000000Y-118050000D02*
X170010000Y-126040000D01*
X155577514Y-126040000D02*
X146325000Y-135292514D01*
X178000000Y-90765686D02*
X178000000Y-118050000D01*
X172874314Y-85640000D02*
X178000000Y-90765686D01*
X137000000Y-88130686D02*
X139490687Y-85640000D01*
X137000000Y-92000000D02*
X137000000Y-88130686D01*
X139490687Y-85640000D02*
X172874314Y-85640000D01*
%TO.N,/sample_clk3_N*%
X137000000Y-68162486D02*
X137000000Y-72000000D01*
X139272486Y-65890000D02*
X137000000Y-68162486D01*
X176324314Y-65890000D02*
X139272486Y-65890000D01*
X181200000Y-70765686D02*
X176324314Y-65890000D01*
X181200000Y-119896800D02*
X181200000Y-70765686D01*
X148325000Y-135921800D02*
X155406800Y-128840000D01*
X148325000Y-138114999D02*
X148325000Y-135921800D01*
X148000000Y-138439999D02*
X148325000Y-138114999D01*
X148000000Y-141665000D02*
X148000000Y-138439999D01*
X172256800Y-128840000D02*
X181200000Y-119896800D01*
X155406800Y-128840000D02*
X172256800Y-128840000D01*
%TO.N,/sample_clk3_P*%
X149000000Y-138439999D02*
X149000000Y-141665000D01*
X148725000Y-138164999D02*
X149000000Y-138439999D01*
X148725000Y-136087486D02*
X148725000Y-138164999D01*
X155572486Y-129240000D02*
X148725000Y-136087486D01*
X181600000Y-120062486D02*
X172422486Y-129240000D01*
X181600000Y-78926714D02*
X181600000Y-120062486D01*
X181883358Y-78643357D02*
X181883357Y-78643357D01*
X181883357Y-77843357D02*
X181883358Y-77843357D01*
X181600000Y-70600000D02*
X181600000Y-77560000D01*
X182166715Y-78126714D02*
X182166715Y-78360000D01*
X176490000Y-65490000D02*
X181600000Y-70600000D01*
X139106800Y-65490000D02*
X176490000Y-65490000D01*
X136600000Y-67996801D02*
X139106800Y-65490000D01*
X136600000Y-69400000D02*
X136600000Y-67996801D01*
X181600057Y-78926714D02*
G75*
G02*
X181883357Y-78643357I283343J14D01*
G01*
X182166743Y-78126714D02*
G75*
G03*
X181883358Y-77843357I-283343J14D01*
G01*
X172422486Y-129240000D02*
X155572486Y-129240000D01*
X181883357Y-77843400D02*
G75*
G02*
X181600000Y-77560000I43J283400D01*
G01*
X181883358Y-78643315D02*
G75*
G03*
X182166715Y-78360000I42J283315D01*
G01*
X136000000Y-70000000D02*
X136600000Y-69400000D01*
D19*
%TO.N,GND*%
X140825000Y-98500000D02*
X142000000Y-98500000D01*
X141500000Y-78500000D02*
X142624500Y-78500000D01*
X142825000Y-59000000D02*
X144000000Y-59000000D01*
X135000000Y-100325000D02*
X135000000Y-101500000D01*
X136000000Y-60825000D02*
X136000000Y-62124500D01*
D21*
%TO.N,VDDA*%
X124000000Y-56500000D02*
X124000000Y-70000000D01*
X124000000Y-70000000D02*
X124000000Y-71000000D01*
X124000000Y-90000000D02*
X124000000Y-91000000D01*
X123600000Y-116100000D02*
X123600000Y-115100000D01*
X124000000Y-96500000D02*
X124000000Y-110000000D01*
X123000000Y-55500000D02*
X124000000Y-56500000D01*
X123000000Y-94500000D02*
X123000000Y-95300000D01*
X123600000Y-115100000D02*
X123000000Y-114500000D01*
X123000000Y-95300000D02*
X124000000Y-96300000D01*
X123000000Y-51000000D02*
X124000000Y-50000000D01*
X123000000Y-75500000D02*
X124000000Y-76500000D01*
X123000000Y-54500000D02*
X123000000Y-55500000D01*
X124000000Y-91000000D02*
X123000000Y-92000000D01*
X124000000Y-96300000D02*
X124000000Y-96500000D01*
X124000000Y-116500000D02*
X123600000Y-116100000D01*
X124000000Y-76500000D02*
X124000000Y-90000000D01*
X123000000Y-94500000D02*
X123000000Y-92000000D01*
X123200000Y-111800000D02*
X123200000Y-110800000D01*
X123000000Y-52000000D02*
X123000000Y-51000000D01*
X123000000Y-74500000D02*
X123000000Y-75500000D01*
X123000000Y-114500000D02*
X123000000Y-112000000D01*
X124000000Y-71000000D02*
X123000000Y-72000000D01*
X123000000Y-112000000D02*
X123200000Y-111800000D01*
X123000000Y-72000000D02*
X123000000Y-74500000D01*
X123200000Y-110800000D02*
X124000000Y-110000000D01*
X123000000Y-52000000D02*
X123000000Y-54500000D01*
D19*
%TO.N,-HV*%
X117000000Y-54500000D02*
X117000000Y-52000000D01*
X117000000Y-112000000D02*
X117000000Y-92000000D01*
X103000000Y-138500000D02*
X103000000Y-141665000D01*
X117000000Y-72000000D02*
X117000000Y-54500000D01*
X117000000Y-114500000D02*
X117000000Y-112000000D01*
X117000000Y-92000000D02*
X117000000Y-74500000D01*
X117000000Y-74500000D02*
X117000000Y-72000000D01*
%TO.N,/interrupt*%
X126000000Y-138000000D02*
X126000000Y-141665000D01*
X106000000Y-85000000D02*
X106000000Y-104000000D01*
X106000000Y-104000000D02*
X106000000Y-118000000D01*
X106000000Y-118000000D02*
X126000000Y-138000000D01*
X106000000Y-85000000D02*
X106000000Y-62500000D01*
X111500000Y-48500000D02*
X106000000Y-54000000D01*
X106000000Y-54000000D02*
X106000000Y-62500000D01*
X111500000Y-43994961D02*
X111500000Y-48500000D01*
D21*
%TO.N,/POW4_in*%
X122000000Y-70000000D02*
X122000000Y-71000000D01*
X121400000Y-115900000D02*
X122000000Y-116500000D01*
X121000000Y-74500000D02*
X121000000Y-75500000D01*
X122000000Y-76500000D02*
X122000000Y-90000000D01*
X121000000Y-55500000D02*
X122000000Y-56500000D01*
X122000000Y-56500000D02*
X122000000Y-70000000D01*
X121000000Y-54500000D02*
X121000000Y-55500000D01*
X121000000Y-94500000D02*
X121000000Y-95500000D01*
X122000000Y-90000000D02*
X122000000Y-91000000D01*
X121000000Y-52000000D02*
X121000000Y-51000000D01*
X122000000Y-110000000D02*
X122000000Y-96500000D01*
X121000000Y-94500000D02*
X121000000Y-92000000D01*
X121200000Y-111800000D02*
X121000000Y-112000000D01*
X122000000Y-91000000D02*
X121000000Y-92000000D01*
X121000000Y-51000000D02*
X122000000Y-50000000D01*
X121000000Y-114500000D02*
X121400000Y-114900000D01*
X122000000Y-71000000D02*
X121000000Y-72000000D01*
X121400000Y-114900000D02*
X121400000Y-115900000D01*
X121000000Y-52000000D02*
X121000000Y-54500000D01*
X121000000Y-95500000D02*
X122000000Y-96500000D01*
X121200000Y-110800000D02*
X121200000Y-111800000D01*
X121000000Y-75500000D02*
X122000000Y-76500000D01*
X121000000Y-72000000D02*
X121000000Y-74500000D01*
X121000000Y-112000000D02*
X121000000Y-114500000D01*
X122000000Y-110000000D02*
X121200000Y-110800000D01*
D19*
%TO.N,/DAC_VCasc2!*%
X151000000Y-114500000D02*
X151000000Y-118000000D01*
X137000000Y-132000000D02*
X137000000Y-141665000D01*
X151000000Y-118000000D02*
X137000000Y-132000000D01*
D20*
%TO.N,/sample_clk4_N*%
X150000000Y-138439999D02*
X150000000Y-141665000D01*
X136950000Y-51950000D02*
X136950000Y-47412490D01*
X137362490Y-47000000D02*
X173184314Y-47000000D01*
X184000000Y-57815686D02*
X184000000Y-76340000D01*
X137000000Y-52000000D02*
X136950000Y-51950000D01*
X184000000Y-121167514D02*
X173827514Y-131340000D01*
X173827514Y-131340000D02*
X155477515Y-131340000D01*
X150325000Y-138114999D02*
X150000000Y-138439999D01*
X173184314Y-47000000D02*
X184000000Y-57815686D01*
X184000000Y-77578618D02*
X184000000Y-121167514D01*
X150325000Y-136492515D02*
X150325000Y-138114999D01*
X183561382Y-76778618D02*
X183561382Y-77140000D01*
X155477515Y-131340000D02*
X150325000Y-136492515D01*
X136950000Y-47412490D02*
X137362490Y-47000000D01*
X183780691Y-77359318D02*
G75*
G02*
X183561382Y-77140000I9J219318D01*
G01*
X183780691Y-76559300D02*
G75*
G03*
X184000000Y-76340000I9J219300D01*
G01*
X183561409Y-76778618D02*
G75*
G02*
X183780691Y-76559309I219291J18D01*
G01*
X183999991Y-77578618D02*
G75*
G03*
X183780691Y-77359309I-219291J18D01*
G01*
D19*
%TO.N,/sr_ck1*%
X126000000Y-130500000D02*
X111000000Y-115500000D01*
X111000000Y-80365000D02*
X111000000Y-61000000D01*
X128036839Y-130661339D02*
X127875500Y-130500000D01*
X127875500Y-130500000D02*
X126000000Y-130500000D01*
%TO.N,/res_n*%
X107000000Y-84466499D02*
X107000000Y-61500000D01*
X107000000Y-103163455D02*
X107000000Y-84466499D01*
X127000000Y-137500000D02*
X127000000Y-141665000D01*
X107000000Y-103163455D02*
X107000000Y-117500000D01*
X107000000Y-117500000D02*
X127000000Y-137500000D01*
D21*
%TO.N,/VDD18_in*%
X119000000Y-55500000D02*
X120000000Y-56500000D01*
X119000000Y-95500000D02*
X120000000Y-96500000D01*
X119000000Y-114500000D02*
X119600000Y-115100000D01*
X119600000Y-116100000D02*
X120000000Y-116500000D01*
X119600000Y-115100000D02*
X119600000Y-116100000D01*
X119000000Y-92000000D02*
X119000000Y-94500000D01*
X120000000Y-96500000D02*
X120000000Y-110000000D01*
X120000000Y-56500000D02*
X120000000Y-70000000D01*
X119000000Y-112000000D02*
X119000000Y-114500000D01*
X120000000Y-50000000D02*
X119000000Y-51000000D01*
X119000000Y-94500000D02*
X119000000Y-95500000D01*
X119000000Y-52000000D02*
X119000000Y-54500000D01*
X120000000Y-90000000D02*
X120000000Y-91000000D01*
X120000000Y-91000000D02*
X119000000Y-92000000D01*
X120000000Y-70000000D02*
X120000000Y-71000000D01*
X120000000Y-76500000D02*
X120000000Y-90000000D01*
X119000000Y-74500000D02*
X119000000Y-75500000D01*
X119600000Y-110400000D02*
X119600000Y-111400000D01*
X119000000Y-51000000D02*
X119000000Y-52000000D01*
X119600000Y-111400000D02*
X119000000Y-112000000D01*
X120000000Y-71000000D02*
X119000000Y-72000000D01*
X119000000Y-72000000D02*
X119000000Y-74500000D01*
X120000000Y-110000000D02*
X119600000Y-110400000D01*
X119000000Y-75500000D02*
X120000000Y-76500000D01*
X119000000Y-54500000D02*
X119000000Y-55500000D01*
D19*
%TO.N,/hold*%
X104000000Y-105500000D02*
X104000000Y-86000000D01*
X104000000Y-119000000D02*
X124000000Y-139000000D01*
X124000000Y-139000000D02*
X124000000Y-141665000D01*
X104000000Y-64600000D02*
X104000000Y-52865000D01*
X104000000Y-86000000D02*
X104000000Y-64600000D01*
X104000000Y-105500000D02*
X104000000Y-119000000D01*
X104000000Y-52865000D02*
X109050000Y-47815000D01*
%TO.N,/DAC_blpix*%
X150000000Y-117442845D02*
X136024500Y-131418345D01*
X150000000Y-116500000D02*
X150000000Y-117442845D01*
X136024500Y-131418345D02*
X136024500Y-141640500D01*
%TO.N,/sr_rb*%
X110000000Y-79500000D02*
X110000000Y-60000000D01*
X125500000Y-131500000D02*
X110000000Y-116000000D01*
X127000000Y-131500000D02*
X125500000Y-131500000D01*
%TO.N,/timestamp_clk*%
X110500000Y-48000000D02*
X105000000Y-53500000D01*
X125000000Y-138500000D02*
X125000000Y-141665000D01*
X110500000Y-45000000D02*
X110500000Y-48000000D01*
X105000000Y-118500000D02*
X125000000Y-138500000D01*
X105000000Y-85500000D02*
X105000000Y-63375500D01*
X105000000Y-53500000D02*
X105000000Y-63375500D01*
%TO.N,/sr_ck2*%
X112000000Y-61750000D02*
X112000000Y-101000000D01*
X126600000Y-129600000D02*
X112000000Y-115000000D01*
X129100000Y-129600000D02*
X126600000Y-129600000D01*
X129403478Y-129903478D02*
X129100000Y-129600000D01*
X112000000Y-115000000D02*
X112000000Y-101000000D01*
D20*
%TO.N,/sample_clk4_P*%
X155091600Y-132700380D02*
X155091601Y-132700381D01*
X184400000Y-121333199D02*
X173993200Y-131740000D01*
X184400000Y-57650000D02*
X184400000Y-121333199D01*
X155091601Y-132700380D02*
X155091600Y-132700380D01*
X136550000Y-47246804D02*
X137196805Y-46600000D01*
X154525916Y-133266068D02*
X154525917Y-133266066D01*
X136550000Y-49450000D02*
X136550000Y-47246804D01*
X151000000Y-138439999D02*
X151000000Y-141665000D01*
X150725000Y-138164999D02*
X151000000Y-138439999D01*
X136000000Y-50000000D02*
X136550000Y-49450000D01*
X173993200Y-131740000D02*
X155643201Y-131740000D01*
X173350000Y-46600000D02*
X184400000Y-57650000D01*
X137196805Y-46600000D02*
X173350000Y-46600000D01*
X154117137Y-133266067D02*
X150725000Y-136658201D01*
X150725000Y-136658201D02*
X150725000Y-138164999D01*
X154117139Y-133266066D02*
X154117137Y-133266067D01*
X155643201Y-131740000D02*
X155091601Y-132291600D01*
X155091601Y-133109159D02*
X155091602Y-133109159D01*
X155091602Y-133109159D02*
X154934695Y-133266067D01*
X155091631Y-133109189D02*
G75*
G03*
X155091601Y-132700381I-204431J204389D01*
G01*
X154525911Y-133266073D02*
G75*
G03*
X154934695Y-133266067I204389J204373D01*
G01*
X154117140Y-133266067D02*
G75*
G02*
X154525916Y-133266067I204388J-204387D01*
G01*
X155091591Y-132700390D02*
G75*
G02*
X155091601Y-132291600I204409J204390D01*
G01*
D19*
%TO.N,/DAC_ThPix*%
X138000000Y-132500000D02*
X138000000Y-141665000D01*
X152000000Y-116657070D02*
X152000000Y-118500000D01*
X152000000Y-118500000D02*
X138000000Y-132500000D01*
%TO.N,/sr_ld*%
X113750000Y-42250000D02*
X113750000Y-49159099D01*
X113750000Y-49159099D02*
X109000000Y-53909099D01*
%TO.N,/DAC_vminuspix*%
X139000000Y-133000000D02*
X153000000Y-119000000D01*
X153000000Y-119000000D02*
X153000000Y-114500000D01*
X139000000Y-141665000D02*
X139000000Y-133000000D01*
%TO.N,/spi1_miso1*%
X135000000Y-98675000D02*
X135500000Y-98175000D01*
X135500000Y-96999999D02*
X136031132Y-96468867D01*
X135500000Y-98175000D02*
X135500000Y-96999999D01*
%TO.N,/sr_out3*%
X108000000Y-60500000D02*
X108000000Y-117000000D01*
X108000000Y-117000000D02*
X125000000Y-134000000D01*
X125000000Y-134000000D02*
X125900000Y-134000000D01*
%TO.N,/DAC_ThPMOS*%
X150000000Y-58050000D02*
X149975000Y-58050000D01*
X135000000Y-131000000D02*
X149000000Y-117000000D01*
X135000000Y-138200000D02*
X135000000Y-131000000D01*
X149000000Y-76000000D02*
X150000000Y-75000000D01*
X150000000Y-94993451D02*
X150000000Y-90000000D01*
X149000000Y-57075000D02*
X149000000Y-56000000D01*
X150000000Y-78100000D02*
X149000000Y-77100000D01*
X149000000Y-77100000D02*
X149000000Y-76000000D01*
X150000000Y-55000000D02*
X150000000Y-50000000D01*
X150000000Y-115093097D02*
X150000000Y-110000000D01*
X149000000Y-56000000D02*
X150000000Y-55000000D01*
X149000000Y-117000000D02*
X149000000Y-116093097D01*
X150000000Y-78400000D02*
X150000000Y-78100000D01*
X149975000Y-58050000D02*
X149000000Y-57075000D01*
X150000000Y-75000000D02*
X150000000Y-70000000D01*
X135250000Y-138450000D02*
X135000000Y-138200000D01*
X149000000Y-95993451D02*
X150000000Y-94993451D01*
X149000000Y-97000000D02*
X149000000Y-95993451D01*
X150000000Y-98050000D02*
X150000000Y-98000000D01*
X149000000Y-116093097D02*
X150000000Y-115093097D01*
X150000000Y-98000000D02*
X149000000Y-97000000D01*
D21*
%TO.N,VSSA*%
X126000000Y-71000000D02*
X125000000Y-72000000D01*
X126000000Y-91000000D02*
X126000000Y-76500000D01*
X125700000Y-116200000D02*
X125700000Y-115200000D01*
X126000000Y-110000000D02*
X126000000Y-96300000D01*
X126000000Y-116500000D02*
X125700000Y-116200000D01*
X125000000Y-75500000D02*
X125000000Y-74500000D01*
X125000000Y-54500000D02*
X125000000Y-51000000D01*
X125700000Y-115200000D02*
X125000000Y-114500000D01*
X125000000Y-111000000D02*
X126000000Y-110000000D01*
X125000000Y-92000000D02*
X126000000Y-91000000D01*
X126000000Y-56300000D02*
X125000000Y-55300000D01*
X125000000Y-51000000D02*
X126000000Y-50000000D01*
X126000000Y-70000000D02*
X126000000Y-56300000D01*
X126000000Y-76500000D02*
X125000000Y-75500000D01*
X125000000Y-94500000D02*
X125000000Y-92000000D01*
X125000000Y-114500000D02*
X125000000Y-112000000D01*
X125000000Y-55300000D02*
X125000000Y-54500000D01*
X126000000Y-70000000D02*
X126000000Y-71000000D01*
X125000000Y-95300000D02*
X125000000Y-94500000D01*
X126000000Y-96300000D02*
X125000000Y-95300000D01*
X125000000Y-74500000D02*
X125000000Y-72000000D01*
X125000000Y-112000000D02*
X125000000Y-111000000D01*
%TD*%
%TA.AperFunction,Conductor*%
%TO.N,GND*%
G36*
X113342121Y-136185002D02*
G01*
X113388614Y-136238658D01*
X113400000Y-136291000D01*
X113400000Y-137145934D01*
X113388195Y-137199184D01*
X113363817Y-137251463D01*
X113362395Y-137256771D01*
X113362394Y-137256773D01*
X113310692Y-137449727D01*
X113309268Y-137455042D01*
X113291201Y-137661545D01*
X113290514Y-137665000D01*
X113292934Y-137677166D01*
X113292934Y-137677167D01*
X113293079Y-137677894D01*
X113295500Y-137702476D01*
X113295500Y-143539000D01*
X113275498Y-143607121D01*
X113221842Y-143653614D01*
X113169500Y-143665000D01*
X112730500Y-143665000D01*
X112662379Y-143644998D01*
X112615886Y-143591342D01*
X112604500Y-143539000D01*
X112604499Y-139496122D01*
X112604499Y-139489934D01*
X112589734Y-139415699D01*
X112533484Y-139331516D01*
X112449301Y-139275266D01*
X112375067Y-139260500D01*
X112368880Y-139260500D01*
X111735184Y-139260501D01*
X111626000Y-139260501D01*
X111557879Y-139240499D01*
X111511386Y-139186843D01*
X111500000Y-139134501D01*
X111500000Y-136291000D01*
X111520002Y-136222879D01*
X111573658Y-136176386D01*
X111626000Y-136165000D01*
X113274000Y-136165000D01*
X113342121Y-136185002D01*
G37*
%TD.AperFunction*%
%TD*%
%TA.AperFunction,Conductor*%
%TO.N,VSSA*%
G36*
X111742121Y-133520002D02*
G01*
X111788614Y-133573658D01*
X111800000Y-133626000D01*
X111800000Y-135774000D01*
X111779998Y-135842121D01*
X111726342Y-135888614D01*
X111674000Y-135900000D01*
X111400000Y-135900000D01*
X111400000Y-135925952D01*
X111379998Y-135994073D01*
X111356508Y-136021180D01*
X111350066Y-136026762D01*
X111317944Y-136060051D01*
X111271013Y-136149770D01*
X111269270Y-136155706D01*
X111268976Y-136156709D01*
X111251011Y-136217891D01*
X111250371Y-136222339D01*
X111250370Y-136222346D01*
X111241139Y-136286552D01*
X111240500Y-136291000D01*
X111240500Y-139134501D01*
X111246430Y-139189660D01*
X111257816Y-139242002D01*
X111265166Y-139268792D01*
X111269067Y-139275643D01*
X111269068Y-139275645D01*
X111298139Y-139326697D01*
X111315269Y-139356779D01*
X111334117Y-139378531D01*
X111353081Y-139400416D01*
X111361762Y-139410435D01*
X111363781Y-139412383D01*
X111365450Y-139414144D01*
X111397794Y-139477346D01*
X111400000Y-139500821D01*
X111400000Y-143674000D01*
X111379998Y-143742121D01*
X111326342Y-143788614D01*
X111274000Y-143800000D01*
X110757636Y-143800000D01*
X110689515Y-143779998D01*
X110643022Y-143726342D01*
X110632918Y-143656068D01*
X110636737Y-143638513D01*
X110644490Y-143612109D01*
X110655001Y-143539000D01*
X110655000Y-139557998D01*
X110675616Y-139488931D01*
X110678168Y-139485038D01*
X110682051Y-139480219D01*
X110728987Y-139390495D01*
X110748989Y-139322374D01*
X110755513Y-139277000D01*
X110758861Y-139253713D01*
X110758861Y-139253706D01*
X110759500Y-139249265D01*
X110759500Y-136291000D01*
X110753570Y-136235841D01*
X110742184Y-136183499D01*
X110734834Y-136156709D01*
X110684731Y-136068722D01*
X110638238Y-136015066D01*
X110604949Y-135982944D01*
X110567598Y-135963406D01*
X110516508Y-135914108D01*
X110500000Y-135851758D01*
X110500000Y-133626000D01*
X110520002Y-133557879D01*
X110573658Y-133511386D01*
X110626000Y-133500000D01*
X111674000Y-133500000D01*
X111742121Y-133520002D01*
G37*
%TD.AperFunction*%
%TD*%
%TA.AperFunction,Conductor*%
%TO.N,VDDA*%
G36*
X110442121Y-136185002D02*
G01*
X110488614Y-136238658D01*
X110500000Y-136291000D01*
X110500000Y-139249265D01*
X110479998Y-139317386D01*
X110471055Y-139328483D01*
X110466516Y-139331516D01*
X110410266Y-139415699D01*
X110395500Y-139489933D01*
X110395500Y-139496120D01*
X110395501Y-143539000D01*
X110375499Y-143607121D01*
X110321843Y-143653614D01*
X110269501Y-143665000D01*
X108730500Y-143665000D01*
X108662379Y-143644998D01*
X108615886Y-143591342D01*
X108604500Y-143539000D01*
X108604499Y-139496122D01*
X108604499Y-139489934D01*
X108589734Y-139415699D01*
X108533484Y-139331516D01*
X108532986Y-139331183D01*
X108502879Y-139276048D01*
X108500000Y-139249265D01*
X108500000Y-138931937D01*
X108509591Y-138883719D01*
X108537068Y-138817383D01*
X108540228Y-138809754D01*
X108544308Y-138778768D01*
X108558207Y-138673188D01*
X108559285Y-138665000D01*
X108540228Y-138520246D01*
X108537068Y-138512617D01*
X108509591Y-138446281D01*
X108500000Y-138398063D01*
X108500000Y-137931937D01*
X108509591Y-137883719D01*
X108537068Y-137817383D01*
X108540228Y-137809754D01*
X108544308Y-137778768D01*
X108558207Y-137673188D01*
X108559285Y-137665000D01*
X108540228Y-137520246D01*
X108537068Y-137512617D01*
X108509591Y-137446281D01*
X108500000Y-137398063D01*
X108500000Y-136931937D01*
X108509591Y-136883719D01*
X108537068Y-136817383D01*
X108540228Y-136809754D01*
X108559285Y-136665000D01*
X108540228Y-136520246D01*
X108537068Y-136512617D01*
X108509591Y-136446281D01*
X108500000Y-136398063D01*
X108500000Y-136291000D01*
X108520002Y-136222879D01*
X108573658Y-136176386D01*
X108626000Y-136165000D01*
X110374000Y-136165000D01*
X110442121Y-136185002D01*
G37*
%TD.AperFunction*%
%TD*%
%TA.AperFunction,Conductor*%
%TO.N,/POW4_in*%
G36*
X108182621Y-136185002D02*
G01*
X108229114Y-136238658D01*
X108240500Y-136291000D01*
X108240500Y-136398063D01*
X108245486Y-136448688D01*
X108255077Y-136496906D01*
X108269844Y-136545587D01*
X108271025Y-136548437D01*
X108271027Y-136548444D01*
X108281059Y-136572663D01*
X108289572Y-136604432D01*
X108295381Y-136648552D01*
X108295381Y-136681448D01*
X108289572Y-136725568D01*
X108281059Y-136757337D01*
X108269844Y-136784413D01*
X108255077Y-136833094D01*
X108245486Y-136881312D01*
X108240500Y-136931937D01*
X108240500Y-137398063D01*
X108245486Y-137448688D01*
X108255077Y-137496906D01*
X108269844Y-137545587D01*
X108271025Y-137548437D01*
X108271027Y-137548444D01*
X108281059Y-137572663D01*
X108289572Y-137604432D01*
X108295381Y-137648552D01*
X108295381Y-137681448D01*
X108289572Y-137725568D01*
X108281059Y-137757337D01*
X108269844Y-137784413D01*
X108255077Y-137833094D01*
X108245486Y-137881312D01*
X108240500Y-137931937D01*
X108240500Y-138398063D01*
X108245486Y-138448688D01*
X108255077Y-138496906D01*
X108269844Y-138545587D01*
X108271025Y-138548437D01*
X108271027Y-138548444D01*
X108281059Y-138572663D01*
X108289572Y-138604432D01*
X108295381Y-138648552D01*
X108295381Y-138681448D01*
X108289572Y-138725568D01*
X108281059Y-138757337D01*
X108269844Y-138784413D01*
X108255077Y-138833094D01*
X108245486Y-138881312D01*
X108240500Y-138931937D01*
X108240500Y-139249265D01*
X108241986Y-139277000D01*
X108244865Y-139303783D01*
X108252040Y-139326697D01*
X108272017Y-139390495D01*
X108275123Y-139400416D01*
X108278085Y-139405840D01*
X108278087Y-139405845D01*
X108300752Y-139447350D01*
X108305230Y-139455551D01*
X108305939Y-139456722D01*
X108317170Y-139475279D01*
X108315898Y-139476049D01*
X108316358Y-139477204D01*
X108317998Y-139476108D01*
X108317999Y-139476109D01*
X108323764Y-139484736D01*
X108337863Y-139531215D01*
X108339029Y-139534143D01*
X108338920Y-139534700D01*
X108344999Y-139554738D01*
X108345000Y-143539000D01*
X108324998Y-143607121D01*
X108271342Y-143653614D01*
X108219000Y-143665000D01*
X106781001Y-143665000D01*
X106712880Y-143644998D01*
X106666387Y-143591342D01*
X106655001Y-143539000D01*
X106655000Y-139557998D01*
X106675616Y-139488931D01*
X106678168Y-139485038D01*
X106682051Y-139480219D01*
X106728987Y-139390495D01*
X106748989Y-139322374D01*
X106750813Y-139309693D01*
X106758861Y-139253713D01*
X106758861Y-139253706D01*
X106759500Y-139249265D01*
X106759500Y-138931937D01*
X106754514Y-138881312D01*
X106744923Y-138833094D01*
X106730156Y-138784413D01*
X106718941Y-138757337D01*
X106710428Y-138725568D01*
X106704619Y-138681448D01*
X106704619Y-138648552D01*
X106710428Y-138604432D01*
X106718941Y-138572663D01*
X106728973Y-138548444D01*
X106728975Y-138548437D01*
X106730156Y-138545587D01*
X106744923Y-138496906D01*
X106754514Y-138448688D01*
X106759500Y-138398063D01*
X106759500Y-137931937D01*
X106754514Y-137881312D01*
X106744923Y-137833094D01*
X106730156Y-137784413D01*
X106718941Y-137757337D01*
X106710428Y-137725568D01*
X106704619Y-137681448D01*
X106704619Y-137648552D01*
X106710428Y-137604432D01*
X106718941Y-137572663D01*
X106728973Y-137548444D01*
X106728975Y-137548437D01*
X106730156Y-137545587D01*
X106744923Y-137496906D01*
X106754514Y-137448688D01*
X106759500Y-137398063D01*
X106759500Y-136931937D01*
X106754514Y-136881312D01*
X106744923Y-136833094D01*
X106730156Y-136784413D01*
X106718941Y-136757337D01*
X106710428Y-136725568D01*
X106704619Y-136681448D01*
X106704619Y-136648552D01*
X106710428Y-136604432D01*
X106718941Y-136572663D01*
X106728973Y-136548444D01*
X106728975Y-136548437D01*
X106730156Y-136545587D01*
X106744923Y-136496906D01*
X106754514Y-136448688D01*
X106759500Y-136398063D01*
X106759500Y-136291000D01*
X106779502Y-136222879D01*
X106833158Y-136176386D01*
X106885500Y-136165000D01*
X108114500Y-136165000D01*
X108182621Y-136185002D01*
G37*
%TD.AperFunction*%
%TD*%
%TA.AperFunction,Conductor*%
%TO.N,/VDD18_in*%
G36*
X106442121Y-136185002D02*
G01*
X106488614Y-136238658D01*
X106500000Y-136291000D01*
X106500000Y-136398063D01*
X106490409Y-136446281D01*
X106462932Y-136512617D01*
X106459772Y-136520246D01*
X106440715Y-136665000D01*
X106459772Y-136809754D01*
X106462932Y-136817383D01*
X106490409Y-136883719D01*
X106500000Y-136931937D01*
X106500000Y-137398063D01*
X106490409Y-137446281D01*
X106462932Y-137512617D01*
X106459772Y-137520246D01*
X106440715Y-137665000D01*
X106441793Y-137673188D01*
X106455693Y-137778768D01*
X106459772Y-137809754D01*
X106462932Y-137817383D01*
X106490409Y-137883719D01*
X106500000Y-137931937D01*
X106500000Y-138398063D01*
X106490409Y-138446281D01*
X106462932Y-138512617D01*
X106459772Y-138520246D01*
X106440715Y-138665000D01*
X106441793Y-138673188D01*
X106455693Y-138778768D01*
X106459772Y-138809754D01*
X106462932Y-138817383D01*
X106490409Y-138883719D01*
X106500000Y-138931937D01*
X106500000Y-139249265D01*
X106479998Y-139317386D01*
X106471055Y-139328483D01*
X106466516Y-139331516D01*
X106410266Y-139415699D01*
X106395500Y-139489933D01*
X106395500Y-139496120D01*
X106395501Y-143539000D01*
X106375499Y-143607121D01*
X106321843Y-143653614D01*
X106269501Y-143665000D01*
X104730500Y-143665000D01*
X104662379Y-143644998D01*
X104615886Y-143591342D01*
X104604500Y-143539000D01*
X104604499Y-139496122D01*
X104604499Y-139489934D01*
X104589734Y-139415699D01*
X104533484Y-139331516D01*
X104532986Y-139331183D01*
X104502879Y-139276048D01*
X104500000Y-139249265D01*
X104500000Y-136291000D01*
X104520002Y-136222879D01*
X104573658Y-136176386D01*
X104626000Y-136165000D01*
X106374000Y-136165000D01*
X106442121Y-136185002D01*
G37*
%TD.AperFunction*%
%TD*%
%TA.AperFunction,Conductor*%
%TO.N,VSSA*%
G36*
X111942121Y-139820002D02*
G01*
X111988614Y-139873658D01*
X112000000Y-139926000D01*
X112000000Y-143374000D01*
X111979998Y-143442121D01*
X111926342Y-143488614D01*
X111874000Y-143500000D01*
X111000000Y-143500000D01*
X111000000Y-139800000D01*
X111874000Y-139800000D01*
X111942121Y-139820002D01*
G37*
%TD.AperFunction*%
%TD*%
M02*
