M48
INCH,TZ
T1C0.0098
T2C0.0157
T3C0.0276
T4C0.1260
%
G90
G05
T1
X40945Y-25433
X40945Y-33858
X40945Y-41535
X41339Y-24951
X41339Y-33661
X41339Y-41339
X41339Y-53805
X41339Y-54199
X41339Y-54593
X41732Y-24606
X41732Y-33465
X41732Y-40945
X41732Y-53805
X41732Y-54199
X41732Y-54593
X42126Y-24213
X42126Y-33255
X42126Y-40616
X42126Y-53805
X42126Y-54199
X42126Y-54593
X42520Y-23819
X42520Y-53805
X42520Y-54199
X42520Y-54593
X42913Y-24100
X42913Y-32677
X42913Y-53805
X42913Y-54199
X42913Y-54593
X42933Y-18825
X43307Y-23622
X43307Y-31299
X43307Y-38976
X43307Y-53805
X43307Y-54199
X43307Y-54593
X43504Y-17717
X43701Y-24016
X43701Y-31640
X43701Y-39370
X43898Y-17321
X44055Y-53805
X44055Y-54199
X44055Y-54593
X44094Y-24311
X44094Y-31988
X44094Y-39764
X44331Y-16929
X44409Y-53805
X44409Y-54199
X44409Y-54593
X44783Y-16634
X49567Y-52756
X50000Y-51772
X50408Y-51441
X50946Y-51143
X53150Y-39961
X53543Y-24458
X53543Y-31969
X55906Y-38780
X56151Y-30906
X56693Y-23228
X60591Y-31654
X60630Y-39403
X60807Y-24016
X60878Y-30906
X60886Y-23176
X60898Y-38780
X60945Y-32008
X61024Y-39659
X61237Y-24409
X61811Y-39159
X61849Y-39723
X62008Y-24213
X62008Y-24803
X62008Y-31693
X62251Y-32139
T2
X40551Y-54528
X43779Y-52795
X43780Y-53228
X53248Y-54508
X59055Y-22854
X59055Y-30866
X59055Y-38602
T3
X46063Y-20472
X46063Y-21457
X46063Y-28346
X46063Y-29331
X46063Y-36220
X46063Y-37205
X46063Y-44094
X46063Y-45079
X46457Y-19685
X46457Y-22244
X46457Y-27559
X46457Y-30118
X46457Y-35433
X46457Y-37992
X46457Y-43307
X46457Y-45866
X46850Y-20472
X46850Y-21457
X46850Y-28346
X46850Y-29331
X46850Y-36220
X46850Y-37205
X46850Y-44094
X46850Y-45079
X47244Y-19685
X47244Y-22244
X47244Y-27559
X47244Y-30118
X47244Y-35433
X47244Y-37992
X47244Y-43307
X47244Y-45866
X47638Y-20472
X47638Y-21457
X47638Y-28346
X47638Y-29331
X47638Y-36220
X47638Y-37205
X47638Y-44094
X47638Y-45079
X48031Y-19685
X48031Y-22244
X48031Y-27559
X48031Y-30118
X48031Y-35433
X48031Y-37992
X48031Y-43307
X48031Y-45866
X48425Y-20472
X48425Y-21457
X48425Y-28346
X48425Y-29331
X48425Y-36220
X48425Y-37205
X48425Y-44094
X48425Y-45079
X48819Y-19685
X48819Y-22244
X48819Y-27559
X48819Y-30118
X48819Y-35433
X48819Y-37992
X48819Y-43307
X48819Y-45866
X49213Y-20472
X49213Y-21457
X49213Y-28346
X49213Y-29331
X49213Y-36220
X49213Y-37205
X49213Y-44094
X49213Y-45079
X49606Y-19685
X49606Y-22244
X49606Y-27559
X49606Y-30118
X49606Y-35433
X49606Y-37992
X49606Y-43307
X49606Y-45866
X50000Y-20472
X50000Y-21457
X50000Y-28346
X50000Y-29331
X50000Y-36220
X50000Y-37205
X50000Y-44094
X50000Y-45079
X51181Y-19685
X51181Y-22244
X51181Y-27559
X51181Y-30118
X51181Y-35433
X51181Y-37992
X51181Y-43307
X51181Y-45866
X51575Y-20472
X51575Y-21457
X51575Y-28346
X51575Y-29331
X51575Y-36220
X51575Y-37205
X51575Y-44094
X51575Y-45079
X51969Y-19685
X51969Y-22244
X51969Y-27559
X51969Y-30118
X51969Y-35433
X51969Y-37992
X51969Y-43307
X51969Y-45866
X52362Y-20472
X52362Y-21457
X52362Y-28346
X52362Y-29331
X52362Y-36220
X52362Y-37205
X52362Y-44094
X52362Y-45079
X52756Y-19685
X52756Y-22244
X52756Y-27559
X52756Y-30118
X52756Y-35433
X52756Y-37992
X52756Y-43307
X52756Y-45866
X53150Y-20472
X53150Y-21457
X53150Y-28346
X53150Y-29331
X53150Y-36220
X53150Y-37205
X53150Y-44094
X53150Y-45079
X53543Y-19685
X53543Y-22244
X53543Y-27559
X53543Y-30118
X53543Y-35433
X53543Y-37992
X53543Y-43307
X53543Y-45866
X53937Y-20472
X53937Y-21457
X53937Y-28346
X53937Y-29331
X53937Y-36220
X53937Y-37205
X53937Y-44094
X53937Y-45079
X54331Y-19685
X54331Y-22244
X54331Y-27559
X54331Y-30118
X54331Y-35433
X54331Y-37992
X54331Y-43307
X54331Y-45866
X54724Y-20472
X54724Y-21457
X54724Y-28346
X54724Y-29331
X54724Y-36220
X54724Y-37205
X54724Y-44094
X54724Y-45079
X55118Y-19685
X55118Y-22244
X55118Y-27559
X55118Y-30118
X55118Y-35433
X55118Y-37992
X55118Y-43307
X55118Y-45866
X55512Y-20472
X55512Y-21457
X55512Y-28346
X55512Y-29331
X55512Y-36220
X55512Y-37205
X55512Y-44094
X55512Y-45079
X55906Y-19685
X55906Y-22244
X55906Y-27559
X55906Y-30118
X55906Y-35433
X55906Y-37992
X55906Y-43307
X55906Y-45866
X56299Y-20472
X56299Y-21457
X56299Y-28346
X56299Y-29331
X56299Y-36220
X56299Y-37205
X56299Y-44094
X56299Y-45079
X56693Y-19685
X56693Y-22244
X56693Y-27559
X56693Y-30118
X56693Y-35433
X56693Y-37992
X56693Y-43307
X56693Y-45866
X57087Y-20472
X57087Y-21457
X57087Y-28346
X57087Y-29331
X57087Y-36220
X57087Y-37205
X57087Y-44094
X57087Y-45079
X57480Y-19685
X57480Y-22244
X57480Y-27559
X57480Y-30118
X57480Y-35433
X57480Y-37992
X57480Y-43307
X57480Y-45866
X57874Y-20472
X57874Y-21457
X57874Y-28346
X57874Y-29331
X57874Y-36220
X57874Y-37205
X57874Y-44094
X57874Y-45079
X58268Y-19685
X58268Y-22244
X58268Y-27559
X58268Y-30118
X58268Y-35433
X58268Y-37992
X58268Y-43307
X58268Y-45866
X58661Y-20472
X58661Y-21457
X58661Y-28346
X58661Y-29331
X58661Y-36220
X58661Y-37205
X58661Y-44094
X58661Y-45079
X59055Y-19685
X59055Y-22244
X59055Y-27559
X59055Y-30118
X59055Y-35433
X59055Y-37992
X59055Y-43307
X59055Y-45866
X59449Y-20472
X59449Y-21457
X59449Y-28346
X59449Y-29331
X59449Y-36220
X59449Y-37205
X59449Y-44094
X59449Y-45079
X59843Y-19685
X59843Y-22244
X59843Y-27559
X59843Y-30118
X59843Y-35433
X59843Y-37992
X59843Y-43307
X59843Y-45866
X60236Y-20472
X60236Y-21457
X60236Y-28346
X60236Y-29331
X60236Y-36220
X60236Y-37205
X60236Y-44094
X60236Y-45079
X60630Y-19685
X60630Y-22244
X60630Y-27559
X60630Y-30118
X60630Y-35433
X60630Y-37992
X60630Y-43307
X60630Y-45866
X61024Y-20472
X61024Y-21457
X61024Y-28346
X61024Y-29331
X61024Y-36220
X61024Y-37205
X61024Y-44094
X61024Y-45079
X61417Y-19685
X61417Y-22244
X61417Y-27559
X61417Y-30118
X61417Y-35433
X61417Y-37992
X61417Y-43307
X61417Y-45866
X61811Y-20472
X61811Y-21457
X61811Y-28346
X61811Y-29331
X61811Y-36220
X61811Y-37205
X61811Y-44094
X61811Y-45079
X62205Y-19685
X62205Y-22244
X62205Y-27559
X62205Y-30118
X62205Y-35433
X62205Y-37992
X62205Y-43307
X62205Y-45866
X62598Y-20472
X62598Y-21457
X62598Y-28346
X62598Y-29331
X62598Y-36220
X62598Y-37205
X62598Y-44094
X62598Y-45079
X62992Y-19685
X62992Y-22244
X62992Y-27559
X62992Y-30118
X62992Y-35433
X62992Y-37992
X62992Y-43307
X62992Y-45866
X63386Y-20472
X63386Y-21457
X63386Y-28346
X63386Y-29331
X63386Y-36220
X63386Y-37205
X63386Y-44094
X63386Y-45079
X63780Y-19685
X63780Y-22244
X63780Y-27559
X63780Y-30118
X63780Y-35433
X63780Y-37992
X63780Y-43307
X63780Y-45866
X64173Y-20472
X64173Y-21457
X64173Y-28346
X64173Y-29331
X64173Y-36220
X64173Y-37205
X64173Y-44094
X64173Y-45079
X64567Y-19685
X64567Y-22244
X64567Y-27559
X64567Y-30118
X64567Y-35433
X64567Y-37992
X64567Y-43307
X64567Y-45866
X64961Y-20472
X64961Y-21457
X64961Y-28346
X64961Y-29331
X64961Y-36220
X64961Y-37205
X64961Y-44094
X64961Y-45079
X65354Y-19685
X65354Y-22244
X65354Y-27559
X65354Y-30118
X65354Y-35433
X65354Y-37992
X65354Y-43307
X65354Y-45866
X65748Y-20472
X65748Y-21457
X65748Y-28346
X65748Y-29331
X65748Y-36220
X65748Y-37205
X65748Y-44094
X65748Y-45079
T4
X41929Y-17585
X71850Y-17585
T0
M30
