M48
; DRILL file {KiCad 7.0.7} date Wed Sep 20 10:48:21 2023
; FORMAT={2:4/ absolute / inch / suppress leading zeros}
; #@! TF.CreationDate,2023-09-20T10:48:21-04:00
; #@! TF.GenerationSoftware,Kicad,Pcbnew,7.0.7
; #@! TF.FileFunction,Plated,1,4,PTH
FMAT,2
INCH,TZ
; #@! TA.AperFunction,Plated,PTH,ViaDrill
T1C0.0098
; #@! TA.AperFunction,Plated,PTH,ViaDrill
T2C0.0157
; #@! TA.AperFunction,Plated,PTH,ComponentDrill
T3C0.0276
; #@! TA.AperFunction,Plated,PTH,ComponentDrill
T4C0.0394
; #@! TA.AperFunction,Plated,PTH,ComponentDrill
T5C0.1260
%
G90
G05
T1
X41441Y-30433
X41441Y-38858
X41441Y-46535
X41835Y-29951
X41835Y-38661
X41835Y-46339
X41835Y-58805
X41835Y-59199
X41835Y-59593
X42228Y-29606
X42228Y-38465
X42228Y-45945
X42520Y-59200
X42520Y-59584
X42530Y-58796
X42622Y-29213
X42622Y-38190
X42622Y-45616
X43016Y-28819
X43016Y-58805
X43016Y-59199
X43016Y-59593
X43409Y-29100
X43409Y-37677
X43409Y-58805
X43409Y-59199
X43409Y-59593
X43429Y-23825
X43803Y-28622
X43803Y-36299
X43803Y-43976
X43803Y-58805
X43803Y-59199
X43803Y-59593
X44000Y-22717
X44197Y-29016
X44197Y-36640
X44197Y-44370
X44394Y-22321
X44591Y-29311
X44591Y-36988
X44591Y-44764
X44827Y-21929
X44890Y-37570
X44900Y-58400
X44900Y-59480
X44920Y-31110
X44920Y-47310
X45010Y-29500
X45280Y-21634
X46160Y-47340
X46240Y-29490
X46240Y-37550
X46260Y-31080
X46540Y-51520
X46850Y-55950
X47070Y-39270
X47080Y-47360
X47090Y-37550
X47550Y-56600
X48300Y-59100
X48580Y-57890
X48950Y-53900
X49600Y-54600
X50063Y-57756
X50496Y-56772
X50590Y-31080
X50600Y-32100
X50600Y-37570
X50620Y-47360
X50630Y-39230
X50640Y-44920
X50640Y-45760
X50640Y-51890
X50660Y-43750
X50700Y-28100
X50700Y-29500
X50904Y-56441
X51350Y-52800
X51442Y-56143
X51650Y-57650
X51650Y-59550
X52410Y-43750
X52500Y-28100
X52500Y-29500
X52530Y-31090
X52850Y-51500
X53150Y-56050
X53300Y-56800
X53300Y-59550
X53360Y-29510
X53360Y-44900
X53440Y-31090
X53470Y-28090
X53574Y-36374
X53970Y-39540
X54020Y-31680
X54030Y-47350
X54170Y-44930
X54220Y-37550
X54320Y-29500
X54400Y-45750
X54650Y-54650
X55070Y-29560
X56050Y-53200
X56300Y-47300
X56402Y-43780
X56650Y-37050
X56750Y-39350
X56850Y-52200
X57100Y-35800
X57150Y-28300
X57890Y-47500
X57900Y-45650
X57950Y-35800
X57950Y-37650
X57950Y-39500
X57950Y-44000
X58000Y-51600
X58750Y-35800
X58750Y-37650
X58750Y-39250
X58750Y-45650
X58800Y-43650
X58800Y-47500
X61100Y-36350
X61100Y-37600
X61100Y-47600
X62800Y-35800
X62800Y-38800
X63150Y-47300
X63350Y-46350
X63500Y-35800
X63500Y-39400
X64250Y-47300
X66550Y-43650
X66800Y-40050
T2
X41100Y-25550
X41100Y-29400
X41100Y-30850
X41100Y-33350
X41100Y-35900
X41100Y-38400
X41100Y-39450
X41100Y-42650
X41100Y-45800
X41100Y-48650
X41150Y-50300
X41150Y-52950
X41150Y-57200
X41160Y-59320
X42400Y-24200
X42450Y-57300
X42800Y-51880
X43016Y-56984
X43300Y-27250
X43540Y-54280
X43950Y-21800
X44150Y-26000
X44320Y-59040
X44400Y-53450
X44631Y-57400
X45050Y-49950
X45700Y-23740
X45700Y-57100
X45850Y-21350
X45950Y-24650
X46000Y-27250
X46000Y-32650
X46000Y-45400
X46000Y-48300
X46050Y-35000
X46050Y-40450
X46050Y-43650
X46774Y-57246
X47030Y-58030
X47050Y-45450
X47066Y-56954
X47100Y-43700
X47150Y-35850
X50600Y-35850
X50850Y-21300
X50900Y-23750
X51354Y-51894
X51646Y-52186
X53040Y-43800
X53744Y-59508
X54200Y-23800
X54450Y-57250
X54550Y-58650
X54700Y-28148
X54780Y-43760
X55140Y-35900
X55600Y-55700
X55900Y-30150
X56000Y-21800
X56150Y-28900
X56200Y-57150
X56500Y-59340
X56760Y-44660
X56850Y-23700
X56950Y-31450
X57100Y-55650
X57500Y-53800
X57950Y-28000
X57950Y-31400
X58750Y-28000
X58800Y-31400
X59250Y-57350
X59250Y-59500
X59550Y-51900
X59551Y-27940
X59551Y-35866
X59551Y-43602
X59600Y-53200
X61100Y-30100
X61100Y-45600
X61180Y-38760
X61200Y-39380
X61400Y-43950
X61600Y-55100
X61660Y-38760
X61950Y-30450
X62180Y-27920
X62300Y-46700
X62550Y-57550
X62700Y-43650
X62700Y-45600
X62750Y-51600
X63400Y-45600
X63450Y-43650
X63700Y-21700
X65150Y-31350
X65250Y-27850
X66050Y-52600
X66100Y-23800
X67250Y-55000
X67300Y-59550
X67400Y-57050
X67500Y-30100
X67800Y-33950
X67850Y-37750
X67850Y-41750
X67850Y-46250
X67850Y-50850
X69750Y-26350
X69950Y-30400
X70150Y-32750
X70150Y-37750
X70150Y-41750
X70150Y-46250
X70200Y-52100
X70750Y-21550
X70750Y-57250
X71050Y-54600
X71500Y-35250
X71550Y-39600
X71600Y-44050
X71800Y-28000
X71800Y-49250
X73150Y-25650
X73150Y-52050
X73200Y-46200
X73250Y-32700
X73250Y-37650
X73300Y-41700
X73300Y-59200
T3
X46559Y-25472
X46559Y-26457
X46559Y-33346
X46559Y-34331
X46559Y-41220
X46559Y-42205
X46559Y-49094
X46559Y-50079
X46953Y-24685
X46953Y-27244
X46953Y-32559
X46953Y-35118
X46953Y-40433
X46953Y-42992
X46953Y-48307
X46953Y-50866
X47346Y-25472
X47346Y-26457
X47346Y-33346
X47346Y-34331
X47346Y-41220
X47346Y-42205
X47346Y-49094
X47346Y-50079
X47740Y-24685
X47740Y-27244
X47740Y-32559
X47740Y-35118
X47740Y-40433
X47740Y-42992
X47740Y-48307
X47740Y-50866
X48134Y-25472
X48134Y-26457
X48134Y-33346
X48134Y-34331
X48134Y-41220
X48134Y-42205
X48134Y-49094
X48134Y-50079
X48528Y-24685
X48528Y-27244
X48528Y-32559
X48528Y-35118
X48528Y-40433
X48528Y-42992
X48528Y-48307
X48528Y-50866
X48921Y-25472
X48921Y-26457
X48921Y-33346
X48921Y-34331
X48921Y-41220
X48921Y-42205
X48921Y-49094
X48921Y-50079
X49315Y-24685
X49315Y-27244
X49315Y-32559
X49315Y-35118
X49315Y-40433
X49315Y-42992
X49315Y-48307
X49315Y-50866
X49709Y-25472
X49709Y-26457
X49709Y-33346
X49709Y-34331
X49709Y-41220
X49709Y-42205
X49709Y-49094
X49709Y-50079
X50102Y-24685
X50102Y-27244
X50102Y-32559
X50102Y-35118
X50102Y-40433
X50102Y-42992
X50102Y-48307
X50102Y-50866
X50496Y-25472
X50496Y-26457
X50496Y-33346
X50496Y-34331
X50496Y-41220
X50496Y-42205
X50496Y-49094
X50496Y-50079
X51677Y-24685
X51677Y-27244
X51677Y-32559
X51677Y-35118
X51677Y-40433
X51677Y-42992
X51677Y-48307
X51677Y-50866
X52071Y-25472
X52071Y-26457
X52071Y-33346
X52071Y-34331
X52071Y-41220
X52071Y-42205
X52071Y-49094
X52071Y-50079
X52465Y-24685
X52465Y-27244
X52465Y-32559
X52465Y-35118
X52465Y-40433
X52465Y-42992
X52465Y-48307
X52465Y-50866
X52858Y-25472
X52858Y-26457
X52858Y-33346
X52858Y-34331
X52858Y-41220
X52858Y-42205
X52858Y-49094
X52858Y-50079
X53252Y-24685
X53252Y-27244
X53252Y-32559
X53252Y-35118
X53252Y-40433
X53252Y-42992
X53252Y-48307
X53252Y-50866
X53646Y-25472
X53646Y-26457
X53646Y-33346
X53646Y-34331
X53646Y-41220
X53646Y-42205
X53646Y-49094
X53646Y-50079
X54039Y-24685
X54039Y-27244
X54039Y-32559
X54039Y-35118
X54039Y-40433
X54039Y-42992
X54039Y-48307
X54039Y-50866
X54433Y-25472
X54433Y-26457
X54433Y-33346
X54433Y-34331
X54433Y-41220
X54433Y-42205
X54433Y-49094
X54433Y-50079
X54827Y-24685
X54827Y-27244
X54827Y-32559
X54827Y-35118
X54827Y-40433
X54827Y-42992
X54827Y-48307
X54827Y-50866
X55220Y-25472
X55220Y-26457
X55220Y-33346
X55220Y-34331
X55220Y-41220
X55220Y-42205
X55220Y-49094
X55220Y-50079
X55614Y-24685
X55614Y-27244
X55614Y-32559
X55614Y-35118
X55614Y-40433
X55614Y-42992
X55614Y-48307
X55614Y-50866
X56008Y-25472
X56008Y-26457
X56008Y-33346
X56008Y-34331
X56008Y-41220
X56008Y-42205
X56008Y-49094
X56008Y-50079
X56402Y-24685
X56402Y-27244
X56402Y-32559
X56402Y-35118
X56402Y-40433
X56402Y-42992
X56402Y-48307
X56402Y-50866
X56795Y-25472
X56795Y-26457
X56795Y-33346
X56795Y-34331
X56795Y-41220
X56795Y-42205
X56795Y-49094
X56795Y-50079
X57189Y-24685
X57189Y-27244
X57189Y-32559
X57189Y-35118
X57189Y-40433
X57189Y-42992
X57189Y-48307
X57189Y-50866
X57583Y-25472
X57583Y-26457
X57583Y-33346
X57583Y-34331
X57583Y-41220
X57583Y-42205
X57583Y-49094
X57583Y-50079
X57976Y-24685
X57976Y-27244
X57976Y-32559
X57976Y-35118
X57976Y-40433
X57976Y-42992
X57976Y-48307
X57976Y-50866
X58370Y-25472
X58370Y-26457
X58370Y-33346
X58370Y-34331
X58370Y-41220
X58370Y-42205
X58370Y-49094
X58370Y-50079
X58764Y-24685
X58764Y-27244
X58764Y-32559
X58764Y-35118
X58764Y-40433
X58764Y-42992
X58764Y-48307
X58764Y-50866
X59157Y-25472
X59157Y-26457
X59157Y-33346
X59157Y-34331
X59157Y-41220
X59157Y-42205
X59157Y-49094
X59157Y-50079
X59551Y-24685
X59551Y-27244
X59551Y-32559
X59551Y-35118
X59551Y-40433
X59551Y-42992
X59551Y-48307
X59551Y-50866
X59945Y-25472
X59945Y-26457
X59945Y-33346
X59945Y-34331
X59945Y-41220
X59945Y-42205
X59945Y-49094
X59945Y-50079
X60339Y-24685
X60339Y-27244
X60339Y-32559
X60339Y-35118
X60339Y-40433
X60339Y-42992
X60339Y-48307
X60339Y-50866
X60732Y-25472
X60732Y-26457
X60732Y-33346
X60732Y-34331
X60732Y-41220
X60732Y-42205
X60732Y-49094
X60732Y-50079
X61126Y-24685
X61126Y-27244
X61126Y-32559
X61126Y-35118
X61126Y-40433
X61126Y-42992
X61126Y-48307
X61126Y-50866
X61520Y-25472
X61520Y-26457
X61520Y-33346
X61520Y-34331
X61520Y-41220
X61520Y-42205
X61520Y-49094
X61520Y-50079
X61913Y-24685
X61913Y-27244
X61913Y-32559
X61913Y-35118
X61913Y-40433
X61913Y-42992
X61913Y-48307
X61913Y-50866
X62307Y-25472
X62307Y-26457
X62307Y-33346
X62307Y-34331
X62307Y-41220
X62307Y-42205
X62307Y-49094
X62307Y-50079
X62701Y-24685
X62701Y-27244
X62701Y-32559
X62701Y-35118
X62701Y-40433
X62701Y-42992
X62701Y-48307
X62701Y-50866
X63094Y-25472
X63094Y-26457
X63094Y-33346
X63094Y-34331
X63094Y-41220
X63094Y-42205
X63094Y-49094
X63094Y-50079
X63488Y-24685
X63488Y-27244
X63488Y-32559
X63488Y-35118
X63488Y-40433
X63488Y-42992
X63488Y-48307
X63488Y-50866
X63882Y-25472
X63882Y-26457
X63882Y-33346
X63882Y-34331
X63882Y-41220
X63882Y-42205
X63882Y-49094
X63882Y-50079
X64276Y-24685
X64276Y-27244
X64276Y-32559
X64276Y-35118
X64276Y-40433
X64276Y-42992
X64276Y-48307
X64276Y-50866
X64669Y-25472
X64669Y-26457
X64669Y-33346
X64669Y-34331
X64669Y-41220
X64669Y-42205
X64669Y-49094
X64669Y-50079
X65063Y-24685
X65063Y-27244
X65063Y-32559
X65063Y-35118
X65063Y-40433
X65063Y-42992
X65063Y-48307
X65063Y-50866
X65457Y-25472
X65457Y-26457
X65457Y-33346
X65457Y-34331
X65457Y-41220
X65457Y-42205
X65457Y-49094
X65457Y-50079
X65850Y-24685
X65850Y-27244
X65850Y-32559
X65850Y-35118
X65850Y-40433
X65850Y-42992
X65850Y-48307
X65850Y-50866
X66244Y-25472
X66244Y-26457
X66244Y-33346
X66244Y-34331
X66244Y-41220
X66244Y-42205
X66244Y-49094
X66244Y-50079
T4
X41900Y-54000
X41900Y-55000
X41900Y-56000
T5
X42425Y-22585
X72346Y-22585
T0
M30
