%TF.GenerationSoftware,KiCad,Pcbnew,7.0.7*%
%TF.CreationDate,2023-09-19T15:45:05-04:00*%
%TF.ProjectId,AstroPix_telescope,41737472-6f50-4697-985f-74656c657363,1.3*%
%TF.SameCoordinates,Original*%
%TF.FileFunction,Legend,Bot*%
%TF.FilePolarity,Positive*%
%FSLAX46Y46*%
G04 Gerber Fmt 4.6, Leading zero omitted, Abs format (unit mm)*
G04 Created by KiCad (PCBNEW 7.0.7) date 2023-09-19 15:45:05*
%MOMM*%
%LPD*%
G01*
G04 APERTURE LIST*
%ADD10C,0.150000*%
%ADD11C,0.200000*%
G04 APERTURE END LIST*
D10*
X168228333Y-59169819D02*
X168228333Y-59884104D01*
X168228333Y-59884104D02*
X168275952Y-60026961D01*
X168275952Y-60026961D02*
X168371190Y-60122200D01*
X168371190Y-60122200D02*
X168514047Y-60169819D01*
X168514047Y-60169819D02*
X168609285Y-60169819D01*
X167323571Y-59503152D02*
X167323571Y-60169819D01*
X167561666Y-59122200D02*
X167799761Y-59836485D01*
X167799761Y-59836485D02*
X167180714Y-59836485D01*
X168228333Y-79169819D02*
X168228333Y-79884104D01*
X168228333Y-79884104D02*
X168275952Y-80026961D01*
X168275952Y-80026961D02*
X168371190Y-80122200D01*
X168371190Y-80122200D02*
X168514047Y-80169819D01*
X168514047Y-80169819D02*
X168609285Y-80169819D01*
X167847380Y-79169819D02*
X167228333Y-79169819D01*
X167228333Y-79169819D02*
X167561666Y-79550771D01*
X167561666Y-79550771D02*
X167418809Y-79550771D01*
X167418809Y-79550771D02*
X167323571Y-79598390D01*
X167323571Y-79598390D02*
X167275952Y-79646009D01*
X167275952Y-79646009D02*
X167228333Y-79741247D01*
X167228333Y-79741247D02*
X167228333Y-79979342D01*
X167228333Y-79979342D02*
X167275952Y-80074580D01*
X167275952Y-80074580D02*
X167323571Y-80122200D01*
X167323571Y-80122200D02*
X167418809Y-80169819D01*
X167418809Y-80169819D02*
X167704523Y-80169819D01*
X167704523Y-80169819D02*
X167799761Y-80122200D01*
X167799761Y-80122200D02*
X167847380Y-80074580D01*
X168228333Y-119169819D02*
X168228333Y-119884104D01*
X168228333Y-119884104D02*
X168275952Y-120026961D01*
X168275952Y-120026961D02*
X168371190Y-120122200D01*
X168371190Y-120122200D02*
X168514047Y-120169819D01*
X168514047Y-120169819D02*
X168609285Y-120169819D01*
X167228333Y-120169819D02*
X167799761Y-120169819D01*
X167514047Y-120169819D02*
X167514047Y-119169819D01*
X167514047Y-119169819D02*
X167609285Y-119312676D01*
X167609285Y-119312676D02*
X167704523Y-119407914D01*
X167704523Y-119407914D02*
X167799761Y-119455533D01*
X168228333Y-99169819D02*
X168228333Y-99884104D01*
X168228333Y-99884104D02*
X168275952Y-100026961D01*
X168275952Y-100026961D02*
X168371190Y-100122200D01*
X168371190Y-100122200D02*
X168514047Y-100169819D01*
X168514047Y-100169819D02*
X168609285Y-100169819D01*
X167799761Y-99265057D02*
X167752142Y-99217438D01*
X167752142Y-99217438D02*
X167656904Y-99169819D01*
X167656904Y-99169819D02*
X167418809Y-99169819D01*
X167418809Y-99169819D02*
X167323571Y-99217438D01*
X167323571Y-99217438D02*
X167275952Y-99265057D01*
X167275952Y-99265057D02*
X167228333Y-99360295D01*
X167228333Y-99360295D02*
X167228333Y-99455533D01*
X167228333Y-99455533D02*
X167275952Y-99598390D01*
X167275952Y-99598390D02*
X167847380Y-100169819D01*
X167847380Y-100169819D02*
X167228333Y-100169819D01*
D11*
%TO.C,J4*%
X171260000Y-69665000D02*
X171260000Y-67750000D01*
X171260000Y-64350000D02*
X171260000Y-61065000D01*
X171260000Y-61065000D02*
X115260000Y-61065000D01*
X168820000Y-69665000D02*
X171260000Y-69665000D01*
X115260000Y-69665000D02*
X117910000Y-69665000D01*
X115260000Y-61065000D02*
X115260000Y-69665000D01*
X114610000Y-67150000D02*
G75*
G03*
X114610000Y-67150000I-100000J0D01*
G01*
%TO.C,J3*%
X171260000Y-89665000D02*
X171260000Y-87750000D01*
X171260000Y-84350000D02*
X171260000Y-81065000D01*
X171260000Y-81065000D02*
X115260000Y-81065000D01*
X168820000Y-89665000D02*
X171260000Y-89665000D01*
X115260000Y-89665000D02*
X117910000Y-89665000D01*
X115260000Y-81065000D02*
X115260000Y-89665000D01*
X114610000Y-87150000D02*
G75*
G03*
X114610000Y-87150000I-100000J0D01*
G01*
%TO.C,J1*%
X171260000Y-129665000D02*
X171260000Y-127750000D01*
X171260000Y-124350000D02*
X171260000Y-121065000D01*
X171260000Y-121065000D02*
X115260000Y-121065000D01*
X168820000Y-129665000D02*
X171260000Y-129665000D01*
X115260000Y-129665000D02*
X117910000Y-129665000D01*
X115260000Y-121065000D02*
X115260000Y-129665000D01*
X114610000Y-127150000D02*
G75*
G03*
X114610000Y-127150000I-100000J0D01*
G01*
%TO.C,J2*%
X171260000Y-109665000D02*
X171260000Y-107750000D01*
X171260000Y-104350000D02*
X171260000Y-101065000D01*
X171260000Y-101065000D02*
X115260000Y-101065000D01*
X168820000Y-109665000D02*
X171260000Y-109665000D01*
X115260000Y-109665000D02*
X117910000Y-109665000D01*
X115260000Y-101065000D02*
X115260000Y-109665000D01*
X114610000Y-107150000D02*
G75*
G03*
X114610000Y-107150000I-100000J0D01*
G01*
%TD*%
M02*
