M48
; DRILL file {KiCad 7.0.7} date Sat Sep 16 13:26:49 2023
; FORMAT={-:-/ absolute / inch / decimal}
; #@! TF.CreationDate,2023-09-16T13:26:49-04:00
; #@! TF.GenerationSoftware,Kicad,Pcbnew,7.0.7
; #@! TF.FileFunction,Plated,1,4,PTH
FMAT,2
INCH
; #@! TA.AperFunction,Plated,PTH,ViaDrill
T1C0.0098
; #@! TA.AperFunction,Plated,PTH,ViaDrill
T2C0.0157
; #@! TA.AperFunction,Plated,PTH,ComponentDrill
T3C0.0276
; #@! TA.AperFunction,Plated,PTH,ComponentDrill
T4C0.1260
%
G90
G05
T1
X4.1441Y-3.0433
X4.1441Y-3.8858
X4.1441Y-4.6535
X4.1835Y-2.9951
X4.1835Y-3.8661
X4.1835Y-4.6339
X4.1835Y-5.8805
X4.1835Y-5.9199
X4.1835Y-5.9593
X4.2228Y-2.9606
X4.2228Y-3.8465
X4.2228Y-4.5945
X4.2228Y-5.8805
X4.2228Y-5.9199
X4.2228Y-5.9593
X4.2622Y-2.9213
X4.2622Y-3.8255
X4.2622Y-4.5616
X4.2622Y-5.8805
X4.2622Y-5.9199
X4.2622Y-5.9593
X4.3016Y-2.8819
X4.3016Y-5.8805
X4.3016Y-5.9199
X4.3016Y-5.9593
X4.3409Y-2.91
X4.3409Y-3.7677
X4.3409Y-5.8805
X4.3409Y-5.9199
X4.3409Y-5.9593
X4.3429Y-2.3825
X4.3803Y-2.8622
X4.3803Y-3.6299
X4.3803Y-4.3976
X4.3803Y-5.8805
X4.3803Y-5.9199
X4.3803Y-5.9593
X4.4Y-2.2717
X4.4197Y-2.9016
X4.4197Y-3.664
X4.4197Y-4.437
X4.4246Y-5.9203
X4.4246Y-5.9587
X4.4256Y-5.8799
X4.4394Y-2.2321
X4.4581Y-5.9203
X4.4581Y-5.9587
X4.4591Y-2.9311
X4.4591Y-3.6988
X4.4591Y-4.4764
X4.4591Y-5.8799
X4.4827Y-2.1929
X4.4965Y-5.8419
X4.4965Y-5.8799
X4.4965Y-5.9193
X4.4965Y-5.9587
X4.528Y-2.1634
X5.0063Y-5.7756
X5.0496Y-5.6772
X5.0904Y-5.6441
X5.1442Y-5.6143
X5.3646Y-4.4961
X5.4039Y-2.9458
X5.4039Y-3.6969
X5.6402Y-4.378
X5.6647Y-3.5906
X5.7189Y-2.8228
X6.1087Y-3.6654
X6.1126Y-4.4403
X6.1303Y-2.9016
X6.1374Y-3.5906
X6.1382Y-2.8176
X6.1394Y-4.378
X6.1441Y-3.7008
X6.152Y-4.4659
X6.1733Y-2.9409
X6.2307Y-4.4159
X6.2346Y-4.4723
X6.2504Y-2.9213
X6.2504Y-2.9803
X6.2504Y-3.6693
X6.2747Y-3.7139
T2
X4.1047Y-5.9528
X5.3744Y-5.9508
X5.9551Y-2.7854
X5.9551Y-3.5866
X5.9551Y-4.3602
T3
X4.6559Y-2.5472
X4.6559Y-2.6457
X4.6559Y-3.3346
X4.6559Y-3.4331
X4.6559Y-4.122
X4.6559Y-4.2205
X4.6559Y-4.9094
X4.6559Y-5.0079
X4.6953Y-2.4685
X4.6953Y-2.7244
X4.6953Y-3.2559
X4.6953Y-3.5118
X4.6953Y-4.0433
X4.6953Y-4.2992
X4.6953Y-4.8307
X4.6953Y-5.0866
X4.7346Y-2.5472
X4.7346Y-2.6457
X4.7346Y-3.3346
X4.7346Y-3.4331
X4.7346Y-4.122
X4.7346Y-4.2205
X4.7346Y-4.9094
X4.7346Y-5.0079
X4.774Y-2.4685
X4.774Y-2.7244
X4.774Y-3.2559
X4.774Y-3.5118
X4.774Y-4.0433
X4.774Y-4.2992
X4.774Y-4.8307
X4.774Y-5.0866
X4.8134Y-2.5472
X4.8134Y-2.6457
X4.8134Y-3.3346
X4.8134Y-3.4331
X4.8134Y-4.122
X4.8134Y-4.2205
X4.8134Y-4.9094
X4.8134Y-5.0079
X4.8528Y-2.4685
X4.8528Y-2.7244
X4.8528Y-3.2559
X4.8528Y-3.5118
X4.8528Y-4.0433
X4.8528Y-4.2992
X4.8528Y-4.8307
X4.8528Y-5.0866
X4.8921Y-2.5472
X4.8921Y-2.6457
X4.8921Y-3.3346
X4.8921Y-3.4331
X4.8921Y-4.122
X4.8921Y-4.2205
X4.8921Y-4.9094
X4.8921Y-5.0079
X4.9315Y-2.4685
X4.9315Y-2.7244
X4.9315Y-3.2559
X4.9315Y-3.5118
X4.9315Y-4.0433
X4.9315Y-4.2992
X4.9315Y-4.8307
X4.9315Y-5.0866
X4.9709Y-2.5472
X4.9709Y-2.6457
X4.9709Y-3.3346
X4.9709Y-3.4331
X4.9709Y-4.122
X4.9709Y-4.2205
X4.9709Y-4.9094
X4.9709Y-5.0079
X5.0102Y-2.4685
X5.0102Y-2.7244
X5.0102Y-3.2559
X5.0102Y-3.5118
X5.0102Y-4.0433
X5.0102Y-4.2992
X5.0102Y-4.8307
X5.0102Y-5.0866
X5.0496Y-2.5472
X5.0496Y-2.6457
X5.0496Y-3.3346
X5.0496Y-3.4331
X5.0496Y-4.122
X5.0496Y-4.2205
X5.0496Y-4.9094
X5.0496Y-5.0079
X5.1677Y-2.4685
X5.1677Y-2.7244
X5.1677Y-3.2559
X5.1677Y-3.5118
X5.1677Y-4.0433
X5.1677Y-4.2992
X5.1677Y-4.8307
X5.1677Y-5.0866
X5.2071Y-2.5472
X5.2071Y-2.6457
X5.2071Y-3.3346
X5.2071Y-3.4331
X5.2071Y-4.122
X5.2071Y-4.2205
X5.2071Y-4.9094
X5.2071Y-5.0079
X5.2465Y-2.4685
X5.2465Y-2.7244
X5.2465Y-3.2559
X5.2465Y-3.5118
X5.2465Y-4.0433
X5.2465Y-4.2992
X5.2465Y-4.8307
X5.2465Y-5.0866
X5.2858Y-2.5472
X5.2858Y-2.6457
X5.2858Y-3.3346
X5.2858Y-3.4331
X5.2858Y-4.122
X5.2858Y-4.2205
X5.2858Y-4.9094
X5.2858Y-5.0079
X5.3252Y-2.4685
X5.3252Y-2.7244
X5.3252Y-3.2559
X5.3252Y-3.5118
X5.3252Y-4.0433
X5.3252Y-4.2992
X5.3252Y-4.8307
X5.3252Y-5.0866
X5.3646Y-2.5472
X5.3646Y-2.6457
X5.3646Y-3.3346
X5.3646Y-3.4331
X5.3646Y-4.122
X5.3646Y-4.2205
X5.3646Y-4.9094
X5.3646Y-5.0079
X5.4039Y-2.4685
X5.4039Y-2.7244
X5.4039Y-3.2559
X5.4039Y-3.5118
X5.4039Y-4.0433
X5.4039Y-4.2992
X5.4039Y-4.8307
X5.4039Y-5.0866
X5.4433Y-2.5472
X5.4433Y-2.6457
X5.4433Y-3.3346
X5.4433Y-3.4331
X5.4433Y-4.122
X5.4433Y-4.2205
X5.4433Y-4.9094
X5.4433Y-5.0079
X5.4827Y-2.4685
X5.4827Y-2.7244
X5.4827Y-3.2559
X5.4827Y-3.5118
X5.4827Y-4.0433
X5.4827Y-4.2992
X5.4827Y-4.8307
X5.4827Y-5.0866
X5.522Y-2.5472
X5.522Y-2.6457
X5.522Y-3.3346
X5.522Y-3.4331
X5.522Y-4.122
X5.522Y-4.2205
X5.522Y-4.9094
X5.522Y-5.0079
X5.5614Y-2.4685
X5.5614Y-2.7244
X5.5614Y-3.2559
X5.5614Y-3.5118
X5.5614Y-4.0433
X5.5614Y-4.2992
X5.5614Y-4.8307
X5.5614Y-5.0866
X5.6008Y-2.5472
X5.6008Y-2.6457
X5.6008Y-3.3346
X5.6008Y-3.4331
X5.6008Y-4.122
X5.6008Y-4.2205
X5.6008Y-4.9094
X5.6008Y-5.0079
X5.6402Y-2.4685
X5.6402Y-2.7244
X5.6402Y-3.2559
X5.6402Y-3.5118
X5.6402Y-4.0433
X5.6402Y-4.2992
X5.6402Y-4.8307
X5.6402Y-5.0866
X5.6795Y-2.5472
X5.6795Y-2.6457
X5.6795Y-3.3346
X5.6795Y-3.4331
X5.6795Y-4.122
X5.6795Y-4.2205
X5.6795Y-4.9094
X5.6795Y-5.0079
X5.7189Y-2.4685
X5.7189Y-2.7244
X5.7189Y-3.2559
X5.7189Y-3.5118
X5.7189Y-4.0433
X5.7189Y-4.2992
X5.7189Y-4.8307
X5.7189Y-5.0866
X5.7583Y-2.5472
X5.7583Y-2.6457
X5.7583Y-3.3346
X5.7583Y-3.4331
X5.7583Y-4.122
X5.7583Y-4.2205
X5.7583Y-4.9094
X5.7583Y-5.0079
X5.7976Y-2.4685
X5.7976Y-2.7244
X5.7976Y-3.2559
X5.7976Y-3.5118
X5.7976Y-4.0433
X5.7976Y-4.2992
X5.7976Y-4.8307
X5.7976Y-5.0866
X5.837Y-2.5472
X5.837Y-2.6457
X5.837Y-3.3346
X5.837Y-3.4331
X5.837Y-4.122
X5.837Y-4.2205
X5.837Y-4.9094
X5.837Y-5.0079
X5.8764Y-2.4685
X5.8764Y-2.7244
X5.8764Y-3.2559
X5.8764Y-3.5118
X5.8764Y-4.0433
X5.8764Y-4.2992
X5.8764Y-4.8307
X5.8764Y-5.0866
X5.9157Y-2.5472
X5.9157Y-2.6457
X5.9157Y-3.3346
X5.9157Y-3.4331
X5.9157Y-4.122
X5.9157Y-4.2205
X5.9157Y-4.9094
X5.9157Y-5.0079
X5.9551Y-2.4685
X5.9551Y-2.7244
X5.9551Y-3.2559
X5.9551Y-3.5118
X5.9551Y-4.0433
X5.9551Y-4.2992
X5.9551Y-4.8307
X5.9551Y-5.0866
X5.9945Y-2.5472
X5.9945Y-2.6457
X5.9945Y-3.3346
X5.9945Y-3.4331
X5.9945Y-4.122
X5.9945Y-4.2205
X5.9945Y-4.9094
X5.9945Y-5.0079
X6.0339Y-2.4685
X6.0339Y-2.7244
X6.0339Y-3.2559
X6.0339Y-3.5118
X6.0339Y-4.0433
X6.0339Y-4.2992
X6.0339Y-4.8307
X6.0339Y-5.0866
X6.0732Y-2.5472
X6.0732Y-2.6457
X6.0732Y-3.3346
X6.0732Y-3.4331
X6.0732Y-4.122
X6.0732Y-4.2205
X6.0732Y-4.9094
X6.0732Y-5.0079
X6.1126Y-2.4685
X6.1126Y-2.7244
X6.1126Y-3.2559
X6.1126Y-3.5118
X6.1126Y-4.0433
X6.1126Y-4.2992
X6.1126Y-4.8307
X6.1126Y-5.0866
X6.152Y-2.5472
X6.152Y-2.6457
X6.152Y-3.3346
X6.152Y-3.4331
X6.152Y-4.122
X6.152Y-4.2205
X6.152Y-4.9094
X6.152Y-5.0079
X6.1913Y-2.4685
X6.1913Y-2.7244
X6.1913Y-3.2559
X6.1913Y-3.5118
X6.1913Y-4.0433
X6.1913Y-4.2992
X6.1913Y-4.8307
X6.1913Y-5.0866
X6.2307Y-2.5472
X6.2307Y-2.6457
X6.2307Y-3.3346
X6.2307Y-3.4331
X6.2307Y-4.122
X6.2307Y-4.2205
X6.2307Y-4.9094
X6.2307Y-5.0079
X6.2701Y-2.4685
X6.2701Y-2.7244
X6.2701Y-3.2559
X6.2701Y-3.5118
X6.2701Y-4.0433
X6.2701Y-4.2992
X6.2701Y-4.8307
X6.2701Y-5.0866
X6.3094Y-2.5472
X6.3094Y-2.6457
X6.3094Y-3.3346
X6.3094Y-3.4331
X6.3094Y-4.122
X6.3094Y-4.2205
X6.3094Y-4.9094
X6.3094Y-5.0079
X6.3488Y-2.4685
X6.3488Y-2.7244
X6.3488Y-3.2559
X6.3488Y-3.5118
X6.3488Y-4.0433
X6.3488Y-4.2992
X6.3488Y-4.8307
X6.3488Y-5.0866
X6.3882Y-2.5472
X6.3882Y-2.6457
X6.3882Y-3.3346
X6.3882Y-3.4331
X6.3882Y-4.122
X6.3882Y-4.2205
X6.3882Y-4.9094
X6.3882Y-5.0079
X6.4276Y-2.4685
X6.4276Y-2.7244
X6.4276Y-3.2559
X6.4276Y-3.5118
X6.4276Y-4.0433
X6.4276Y-4.2992
X6.4276Y-4.8307
X6.4276Y-5.0866
X6.4669Y-2.5472
X6.4669Y-2.6457
X6.4669Y-3.3346
X6.4669Y-3.4331
X6.4669Y-4.122
X6.4669Y-4.2205
X6.4669Y-4.9094
X6.4669Y-5.0079
X6.5063Y-2.4685
X6.5063Y-2.7244
X6.5063Y-3.2559
X6.5063Y-3.5118
X6.5063Y-4.0433
X6.5063Y-4.2992
X6.5063Y-4.8307
X6.5063Y-5.0866
X6.5457Y-2.5472
X6.5457Y-2.6457
X6.5457Y-3.3346
X6.5457Y-3.4331
X6.5457Y-4.122
X6.5457Y-4.2205
X6.5457Y-4.9094
X6.5457Y-5.0079
X6.585Y-2.4685
X6.585Y-2.7244
X6.585Y-3.2559
X6.585Y-3.5118
X6.585Y-4.0433
X6.585Y-4.2992
X6.585Y-4.8307
X6.585Y-5.0866
X6.6244Y-2.5472
X6.6244Y-2.6457
X6.6244Y-3.3346
X6.6244Y-3.4331
X6.6244Y-4.122
X6.6244Y-4.2205
X6.6244Y-4.9094
X6.6244Y-5.0079
T4
X4.2425Y-2.2585
X7.2346Y-2.2585
T0
M30
