%TF.GenerationSoftware,KiCad,Pcbnew,(6.0.10)*%
%TF.CreationDate,2023-01-27T03:25:04+09:00*%
%TF.ProjectId,AstroPix_telescope,41737472-6f50-4697-985f-74656c657363,1.1*%
%TF.SameCoordinates,Original*%
%TF.FileFunction,Soldermask,Top*%
%TF.FilePolarity,Negative*%
%FSLAX46Y46*%
G04 Gerber Fmt 4.6, Leading zero omitted, Abs format (unit mm)*
G04 Created by KiCad (PCBNEW (6.0.10)) date 2023-01-27 03:25:04*
%MOMM*%
%LPD*%
G01*
G04 APERTURE LIST*
G04 Aperture macros list*
%AMRoundRect*
0 Rectangle with rounded corners*
0 $1 Rounding radius*
0 $2 $3 $4 $5 $6 $7 $8 $9 X,Y pos of 4 corners*
0 Add a 4 corners polygon primitive as box body*
4,1,4,$2,$3,$4,$5,$6,$7,$8,$9,$2,$3,0*
0 Add four circle primitives for the rounded corners*
1,1,$1+$1,$2,$3*
1,1,$1+$1,$4,$5*
1,1,$1+$1,$6,$7*
1,1,$1+$1,$8,$9*
0 Add four rect primitives between the rounded corners*
20,1,$1+$1,$2,$3,$4,$5,0*
20,1,$1+$1,$4,$5,$6,$7,0*
20,1,$1+$1,$6,$7,$8,$9,0*
20,1,$1+$1,$8,$9,$2,$3,0*%
%AMFreePoly0*
4,1,17,1.174443,2.785355,2.785356,1.174443,2.800000,1.139088,2.800000,-1.139088,2.785356,-1.174443,1.174443,-2.785355,1.139088,-2.800000,-1.139088,-2.800000,-1.174443,-2.785356,-2.785355,-1.174443,-2.800000,-1.139088,-2.800000,1.139088,-2.785355,1.174443,-1.174443,2.785356,-1.139088,2.800000,1.139088,2.800000,1.174443,2.785355,1.174443,2.785355,$1*%
G04 Aperture macros list end*
%ADD10R,1.500000X4.200000*%
%ADD11RoundRect,0.237500X-0.237500X0.300000X-0.237500X-0.300000X0.237500X-0.300000X0.237500X0.300000X0*%
%ADD12RoundRect,0.237500X0.237500X-0.250000X0.237500X0.250000X-0.237500X0.250000X-0.237500X-0.250000X0*%
%ADD13R,4.200000X1.500000*%
%ADD14R,1.700000X1.700000*%
%ADD15O,1.700000X1.700000*%
%ADD16C,1.473200*%
%ADD17RoundRect,0.237500X0.300000X0.237500X-0.300000X0.237500X-0.300000X-0.237500X0.300000X-0.237500X0*%
%ADD18R,2.000000X0.650000*%
%ADD19RoundRect,0.237500X0.237500X-0.300000X0.237500X0.300000X-0.237500X0.300000X-0.237500X-0.300000X0*%
%ADD20R,0.800000X0.300000*%
%ADD21RoundRect,0.237500X-0.237500X0.250000X-0.237500X-0.250000X0.237500X-0.250000X0.237500X0.250000X0*%
%ADD22RoundRect,0.237500X0.287500X0.237500X-0.287500X0.237500X-0.287500X-0.237500X0.287500X-0.237500X0*%
%ADD23RoundRect,0.237500X-0.300000X-0.237500X0.300000X-0.237500X0.300000X0.237500X-0.300000X0.237500X0*%
%ADD24RoundRect,0.237500X-0.287500X-0.237500X0.287500X-0.237500X0.287500X0.237500X-0.287500X0.237500X0*%
%ADD25RoundRect,0.200000X-0.200000X-0.275000X0.200000X-0.275000X0.200000X0.275000X-0.200000X0.275000X0*%
%ADD26FreePoly0,0.000000*%
%ADD27RoundRect,0.200000X-0.275000X0.200000X-0.275000X-0.200000X0.275000X-0.200000X0.275000X0.200000X0*%
%ADD28R,0.700000X4.300000*%
%ADD29R,0.700000X3.200000*%
%ADD30C,2.350000*%
%ADD31R,1.208000X1.208000*%
%ADD32C,1.208000*%
G04 APERTURE END LIST*
D10*
%TO.C,TPAtlas1*%
X114897000Y-41367500D03*
%TD*%
%TO.C,TPFPGA1*%
X125057000Y-41494500D03*
%TD*%
D11*
%TO.C,C2*%
X129502000Y-32377000D03*
X129502000Y-34102000D03*
%TD*%
D12*
%TO.C,R1*%
X112839600Y-37962000D03*
X112839600Y-36137000D03*
%TD*%
D13*
%TO.C,TPGND1*%
X119210000Y-44639500D03*
%TD*%
D14*
%TO.C,J1*%
X133312000Y-32223500D03*
D15*
X133312000Y-34763500D03*
X133312000Y-37303500D03*
X133312000Y-39843500D03*
X133312000Y-42383500D03*
X133312000Y-44923500D03*
%TD*%
D16*
%TO.C,J2*%
X107823100Y-38827500D03*
X105283100Y-41367500D03*
X110363100Y-41367500D03*
X110363100Y-36287500D03*
X105283100Y-36287500D03*
%TD*%
D11*
%TO.C,C3*%
X125438000Y-34409000D03*
X125438000Y-36134000D03*
%TD*%
D17*
%TO.C,C1*%
X122236500Y-39208500D03*
X120511500Y-39208500D03*
%TD*%
%TO.C,C4*%
X117511000Y-35906500D03*
X115786000Y-35906500D03*
%TD*%
D18*
%TO.C,U2*%
X123211000Y-34189500D03*
X123211000Y-33239500D03*
X123211000Y-32289500D03*
X119791000Y-32289500D03*
X119791000Y-34189500D03*
%TD*%
D19*
%TO.C,C5*%
X117564000Y-34102000D03*
X117564000Y-32377000D03*
%TD*%
D20*
%TO.C,U1*%
X119189000Y-36299500D03*
X119189000Y-36799500D03*
X119189000Y-37299500D03*
X119189000Y-37799500D03*
X122289000Y-37799500D03*
X122289000Y-37299500D03*
X122289000Y-36799500D03*
X122289000Y-36299500D03*
%TD*%
D21*
%TO.C,R2*%
X129010000Y-37527000D03*
X129010000Y-39352000D03*
%TD*%
D22*
%TO.C,L1*%
X127696000Y-32223500D03*
X125946000Y-32223500D03*
%TD*%
D13*
%TO.C,TPGND1*%
X172196000Y-32395000D03*
%TD*%
D14*
%TO.C,J1*%
X158094000Y-44811000D03*
D15*
X158094000Y-42271000D03*
X158094000Y-39731000D03*
X158094000Y-37191000D03*
X158094000Y-34651000D03*
X158094000Y-32111000D03*
%TD*%
D19*
%TO.C,C3*%
X165968000Y-42625500D03*
X165968000Y-40900500D03*
%TD*%
D23*
%TO.C,C1*%
X169169500Y-37826000D03*
X170894500Y-37826000D03*
%TD*%
%TO.C,C4*%
X173895000Y-41128000D03*
X175620000Y-41128000D03*
%TD*%
D20*
%TO.C,U1*%
X172217000Y-40735000D03*
X172217000Y-40235000D03*
X172217000Y-39735000D03*
X172217000Y-39235000D03*
X169117000Y-39235000D03*
X169117000Y-39735000D03*
X169117000Y-40235000D03*
X169117000Y-40735000D03*
%TD*%
D24*
%TO.C,L1*%
X163710000Y-44811000D03*
X165460000Y-44811000D03*
%TD*%
D16*
%TO.C,J2*%
X183582900Y-38207000D03*
X186122900Y-35667000D03*
X181042900Y-35667000D03*
X181042900Y-40747000D03*
X186122900Y-40747000D03*
%TD*%
D21*
%TO.C,R1*%
X178566400Y-39072500D03*
X178566400Y-40897500D03*
%TD*%
D10*
%TO.C,TPAtlas1*%
X176509000Y-35667000D03*
%TD*%
%TO.C,TPFPGA1*%
X166349000Y-35540000D03*
%TD*%
D19*
%TO.C,C2*%
X161904000Y-44657500D03*
X161904000Y-42932500D03*
%TD*%
D18*
%TO.C,U2*%
X168195000Y-42845000D03*
X168195000Y-43795000D03*
X168195000Y-44745000D03*
X171615000Y-44745000D03*
X171615000Y-42845000D03*
%TD*%
D12*
%TO.C,R2*%
X162396000Y-39507500D03*
X162396000Y-37682500D03*
%TD*%
D11*
%TO.C,C5*%
X173842000Y-42932500D03*
X173842000Y-44657500D03*
%TD*%
D25*
%TO.C,R1*%
X140435000Y-111200000D03*
X142085000Y-111200000D03*
%TD*%
D26*
%TO.C,H2*%
X107760000Y-57365000D03*
%TD*%
D27*
%TO.C,R6*%
X137260000Y-71675000D03*
X137260000Y-73325000D03*
%TD*%
%TO.C,R4*%
X137260000Y-91175000D03*
X137260000Y-92825000D03*
%TD*%
D25*
%TO.C,R3*%
X141110000Y-91200000D03*
X142760000Y-91200000D03*
%TD*%
D27*
%TO.C,R2*%
X136260000Y-111175000D03*
X136260000Y-112825000D03*
%TD*%
D26*
%TO.C,H1*%
X183760000Y-57365000D03*
%TD*%
D28*
%TO.C,P1*%
X104260000Y-154365000D03*
X105260000Y-154365000D03*
X106260000Y-154365000D03*
X107260000Y-154365000D03*
X108260000Y-154365000D03*
X109260000Y-154365000D03*
X110260000Y-154365000D03*
X111260000Y-154365000D03*
X112260000Y-154365000D03*
X113260000Y-154365000D03*
X114260000Y-154365000D03*
X117260000Y-154365000D03*
X118260000Y-154365000D03*
X119260000Y-154365000D03*
X120260000Y-154365000D03*
X121260000Y-154365000D03*
X122260000Y-154365000D03*
X123260000Y-154365000D03*
X124260000Y-154365000D03*
X125260000Y-154365000D03*
X126260000Y-154365000D03*
X127260000Y-154365000D03*
X128260000Y-154365000D03*
X129260000Y-154365000D03*
X130260000Y-154365000D03*
X131260000Y-154365000D03*
X132260000Y-154365000D03*
X133260000Y-154365000D03*
X134260000Y-154365000D03*
X135260000Y-154365000D03*
X136260000Y-154365000D03*
X137260000Y-154365000D03*
X138260000Y-154365000D03*
X139260000Y-154365000D03*
X140260000Y-154365000D03*
X141260000Y-154365000D03*
X142260000Y-154365000D03*
X143260000Y-154365000D03*
X144260000Y-154365000D03*
X145260000Y-154365000D03*
X146260000Y-154365000D03*
X147260000Y-154365000D03*
X148260000Y-154365000D03*
X149260000Y-154365000D03*
X150260000Y-154365000D03*
X151260000Y-154365000D03*
X152260000Y-154365000D03*
X153260000Y-154365000D03*
X154260000Y-154365000D03*
X155260000Y-154365000D03*
X156260000Y-154365000D03*
X157260000Y-154365000D03*
X158260000Y-154365000D03*
X159260000Y-154365000D03*
X160260000Y-154365000D03*
X161260000Y-154365000D03*
X162260000Y-154365000D03*
X163260000Y-154365000D03*
X164260000Y-154365000D03*
X165260000Y-154365000D03*
X166260000Y-154365000D03*
X167260000Y-154365000D03*
X168260000Y-154365000D03*
X169260000Y-154365000D03*
X170260000Y-154365000D03*
X171260000Y-154365000D03*
X172260000Y-154365000D03*
X173260000Y-154365000D03*
X174260000Y-154365000D03*
X175260000Y-154365000D03*
X176260000Y-154365000D03*
X177260000Y-154365000D03*
X178260000Y-154365000D03*
X179260000Y-154365000D03*
X180260000Y-154365000D03*
X181260000Y-154365000D03*
X182260000Y-154365000D03*
X183260000Y-154365000D03*
X184260000Y-154365000D03*
X185260000Y-154365000D03*
D29*
X186260000Y-153815000D03*
D28*
X187260000Y-154365000D03*
%TD*%
D25*
%TO.C,R5*%
X142435000Y-71700000D03*
X144085000Y-71700000D03*
%TD*%
D30*
%TO.C,J4*%
X170070000Y-65950000D03*
X129910000Y-65950000D03*
D31*
X118260000Y-67200000D03*
D32*
X119260000Y-69200000D03*
X120260000Y-67200000D03*
X121260000Y-69200000D03*
X122260000Y-67200000D03*
X123260000Y-69200000D03*
X124260000Y-67200000D03*
X125260000Y-69200000D03*
X126260000Y-67200000D03*
X127260000Y-69200000D03*
X128260000Y-67200000D03*
X131260000Y-69200000D03*
X132260000Y-67200000D03*
X133260000Y-69200000D03*
X134260000Y-67200000D03*
X135260000Y-69200000D03*
X136260000Y-67200000D03*
X137260000Y-69200000D03*
X138260000Y-67200000D03*
X139260000Y-69200000D03*
X140260000Y-67200000D03*
X141260000Y-69200000D03*
X142260000Y-67200000D03*
X143260000Y-69200000D03*
X144260000Y-67200000D03*
X145260000Y-69200000D03*
X146260000Y-67200000D03*
X147260000Y-69200000D03*
X148260000Y-67200000D03*
X149260000Y-69200000D03*
X150260000Y-67200000D03*
X151260000Y-69200000D03*
X152260000Y-67200000D03*
X153260000Y-69200000D03*
X154260000Y-67200000D03*
X155260000Y-69200000D03*
X156260000Y-67200000D03*
X157260000Y-69200000D03*
X158260000Y-67200000D03*
X159260000Y-69200000D03*
X160260000Y-67200000D03*
X161260000Y-69200000D03*
X162260000Y-67200000D03*
X163260000Y-69200000D03*
X164260000Y-67200000D03*
X165260000Y-69200000D03*
X166260000Y-67200000D03*
X167260000Y-69200000D03*
X168260000Y-67200000D03*
X118260000Y-64700000D03*
X119260000Y-62700000D03*
X120260000Y-64700000D03*
X121260000Y-62700000D03*
X122260000Y-64700000D03*
X123260000Y-62700000D03*
X124260000Y-64700000D03*
X125260000Y-62700000D03*
X126260000Y-64700000D03*
X127260000Y-62700000D03*
X128260000Y-64700000D03*
X131260000Y-62700000D03*
X132260000Y-64700000D03*
X133260000Y-62700000D03*
X134260000Y-64700000D03*
X135260000Y-62700000D03*
X136260000Y-64700000D03*
X137260000Y-62700000D03*
X138260000Y-64700000D03*
X139260000Y-62700000D03*
X140260000Y-64700000D03*
X141260000Y-62700000D03*
X142260000Y-64700000D03*
X143260000Y-62700000D03*
X144260000Y-64700000D03*
X145260000Y-62700000D03*
X146260000Y-64700000D03*
X147260000Y-62700000D03*
X148260000Y-64700000D03*
X149260000Y-62700000D03*
X150260000Y-64700000D03*
X151260000Y-62700000D03*
X152260000Y-64700000D03*
X153260000Y-62700000D03*
X154260000Y-64700000D03*
X155260000Y-62700000D03*
X156260000Y-64700000D03*
X157260000Y-62700000D03*
X158260000Y-64700000D03*
X159260000Y-62700000D03*
X160260000Y-64700000D03*
X161260000Y-62700000D03*
X162260000Y-64700000D03*
X163260000Y-62700000D03*
X164260000Y-64700000D03*
X165260000Y-62700000D03*
X166260000Y-64700000D03*
X167260000Y-62700000D03*
X168260000Y-64700000D03*
%TD*%
D30*
%TO.C,J3*%
X170070000Y-85950000D03*
X129910000Y-85950000D03*
D31*
X118260000Y-87200000D03*
D32*
X119260000Y-89200000D03*
X120260000Y-87200000D03*
X121260000Y-89200000D03*
X122260000Y-87200000D03*
X123260000Y-89200000D03*
X124260000Y-87200000D03*
X125260000Y-89200000D03*
X126260000Y-87200000D03*
X127260000Y-89200000D03*
X128260000Y-87200000D03*
X131260000Y-89200000D03*
X132260000Y-87200000D03*
X133260000Y-89200000D03*
X134260000Y-87200000D03*
X135260000Y-89200000D03*
X136260000Y-87200000D03*
X137260000Y-89200000D03*
X138260000Y-87200000D03*
X139260000Y-89200000D03*
X140260000Y-87200000D03*
X141260000Y-89200000D03*
X142260000Y-87200000D03*
X143260000Y-89200000D03*
X144260000Y-87200000D03*
X145260000Y-89200000D03*
X146260000Y-87200000D03*
X147260000Y-89200000D03*
X148260000Y-87200000D03*
X149260000Y-89200000D03*
X150260000Y-87200000D03*
X151260000Y-89200000D03*
X152260000Y-87200000D03*
X153260000Y-89200000D03*
X154260000Y-87200000D03*
X155260000Y-89200000D03*
X156260000Y-87200000D03*
X157260000Y-89200000D03*
X158260000Y-87200000D03*
X159260000Y-89200000D03*
X160260000Y-87200000D03*
X161260000Y-89200000D03*
X162260000Y-87200000D03*
X163260000Y-89200000D03*
X164260000Y-87200000D03*
X165260000Y-89200000D03*
X166260000Y-87200000D03*
X167260000Y-89200000D03*
X168260000Y-87200000D03*
X118260000Y-84700000D03*
X119260000Y-82700000D03*
X120260000Y-84700000D03*
X121260000Y-82700000D03*
X122260000Y-84700000D03*
X123260000Y-82700000D03*
X124260000Y-84700000D03*
X125260000Y-82700000D03*
X126260000Y-84700000D03*
X127260000Y-82700000D03*
X128260000Y-84700000D03*
X131260000Y-82700000D03*
X132260000Y-84700000D03*
X133260000Y-82700000D03*
X134260000Y-84700000D03*
X135260000Y-82700000D03*
X136260000Y-84700000D03*
X137260000Y-82700000D03*
X138260000Y-84700000D03*
X139260000Y-82700000D03*
X140260000Y-84700000D03*
X141260000Y-82700000D03*
X142260000Y-84700000D03*
X143260000Y-82700000D03*
X144260000Y-84700000D03*
X145260000Y-82700000D03*
X146260000Y-84700000D03*
X147260000Y-82700000D03*
X148260000Y-84700000D03*
X149260000Y-82700000D03*
X150260000Y-84700000D03*
X151260000Y-82700000D03*
X152260000Y-84700000D03*
X153260000Y-82700000D03*
X154260000Y-84700000D03*
X155260000Y-82700000D03*
X156260000Y-84700000D03*
X157260000Y-82700000D03*
X158260000Y-84700000D03*
X159260000Y-82700000D03*
X160260000Y-84700000D03*
X161260000Y-82700000D03*
X162260000Y-84700000D03*
X163260000Y-82700000D03*
X164260000Y-84700000D03*
X165260000Y-82700000D03*
X166260000Y-84700000D03*
X167260000Y-82700000D03*
X168260000Y-84700000D03*
%TD*%
D30*
%TO.C,J1*%
X129910000Y-125950000D03*
X170070000Y-125950000D03*
D31*
X118260000Y-127200000D03*
D32*
X119260000Y-129200000D03*
X120260000Y-127200000D03*
X121260000Y-129200000D03*
X122260000Y-127200000D03*
X123260000Y-129200000D03*
X124260000Y-127200000D03*
X125260000Y-129200000D03*
X126260000Y-127200000D03*
X127260000Y-129200000D03*
X128260000Y-127200000D03*
X131260000Y-129200000D03*
X132260000Y-127200000D03*
X133260000Y-129200000D03*
X134260000Y-127200000D03*
X135260000Y-129200000D03*
X136260000Y-127200000D03*
X137260000Y-129200000D03*
X138260000Y-127200000D03*
X139260000Y-129200000D03*
X140260000Y-127200000D03*
X141260000Y-129200000D03*
X142260000Y-127200000D03*
X143260000Y-129200000D03*
X144260000Y-127200000D03*
X145260000Y-129200000D03*
X146260000Y-127200000D03*
X147260000Y-129200000D03*
X148260000Y-127200000D03*
X149260000Y-129200000D03*
X150260000Y-127200000D03*
X151260000Y-129200000D03*
X152260000Y-127200000D03*
X153260000Y-129200000D03*
X154260000Y-127200000D03*
X155260000Y-129200000D03*
X156260000Y-127200000D03*
X157260000Y-129200000D03*
X158260000Y-127200000D03*
X159260000Y-129200000D03*
X160260000Y-127200000D03*
X161260000Y-129200000D03*
X162260000Y-127200000D03*
X163260000Y-129200000D03*
X164260000Y-127200000D03*
X165260000Y-129200000D03*
X166260000Y-127200000D03*
X167260000Y-129200000D03*
X168260000Y-127200000D03*
X118260000Y-124700000D03*
X119260000Y-122700000D03*
X120260000Y-124700000D03*
X121260000Y-122700000D03*
X122260000Y-124700000D03*
X123260000Y-122700000D03*
X124260000Y-124700000D03*
X125260000Y-122700000D03*
X126260000Y-124700000D03*
X127260000Y-122700000D03*
X128260000Y-124700000D03*
X131260000Y-122700000D03*
X132260000Y-124700000D03*
X133260000Y-122700000D03*
X134260000Y-124700000D03*
X135260000Y-122700000D03*
X136260000Y-124700000D03*
X137260000Y-122700000D03*
X138260000Y-124700000D03*
X139260000Y-122700000D03*
X140260000Y-124700000D03*
X141260000Y-122700000D03*
X142260000Y-124700000D03*
X143260000Y-122700000D03*
X144260000Y-124700000D03*
X145260000Y-122700000D03*
X146260000Y-124700000D03*
X147260000Y-122700000D03*
X148260000Y-124700000D03*
X149260000Y-122700000D03*
X150260000Y-124700000D03*
X151260000Y-122700000D03*
X152260000Y-124700000D03*
X153260000Y-122700000D03*
X154260000Y-124700000D03*
X155260000Y-122700000D03*
X156260000Y-124700000D03*
X157260000Y-122700000D03*
X158260000Y-124700000D03*
X159260000Y-122700000D03*
X160260000Y-124700000D03*
X161260000Y-122700000D03*
X162260000Y-124700000D03*
X163260000Y-122700000D03*
X164260000Y-124700000D03*
X165260000Y-122700000D03*
X166260000Y-124700000D03*
X167260000Y-122700000D03*
X168260000Y-124700000D03*
%TD*%
D30*
%TO.C,J2*%
X170070000Y-105950000D03*
X129910000Y-105950000D03*
D31*
X118260000Y-107200000D03*
D32*
X119260000Y-109200000D03*
X120260000Y-107200000D03*
X121260000Y-109200000D03*
X122260000Y-107200000D03*
X123260000Y-109200000D03*
X124260000Y-107200000D03*
X125260000Y-109200000D03*
X126260000Y-107200000D03*
X127260000Y-109200000D03*
X128260000Y-107200000D03*
X131260000Y-109200000D03*
X132260000Y-107200000D03*
X133260000Y-109200000D03*
X134260000Y-107200000D03*
X135260000Y-109200000D03*
X136260000Y-107200000D03*
X137260000Y-109200000D03*
X138260000Y-107200000D03*
X139260000Y-109200000D03*
X140260000Y-107200000D03*
X141260000Y-109200000D03*
X142260000Y-107200000D03*
X143260000Y-109200000D03*
X144260000Y-107200000D03*
X145260000Y-109200000D03*
X146260000Y-107200000D03*
X147260000Y-109200000D03*
X148260000Y-107200000D03*
X149260000Y-109200000D03*
X150260000Y-107200000D03*
X151260000Y-109200000D03*
X152260000Y-107200000D03*
X153260000Y-109200000D03*
X154260000Y-107200000D03*
X155260000Y-109200000D03*
X156260000Y-107200000D03*
X157260000Y-109200000D03*
X158260000Y-107200000D03*
X159260000Y-109200000D03*
X160260000Y-107200000D03*
X161260000Y-109200000D03*
X162260000Y-107200000D03*
X163260000Y-109200000D03*
X164260000Y-107200000D03*
X165260000Y-109200000D03*
X166260000Y-107200000D03*
X167260000Y-109200000D03*
X168260000Y-107200000D03*
X118260000Y-104700000D03*
X119260000Y-102700000D03*
X120260000Y-104700000D03*
X121260000Y-102700000D03*
X122260000Y-104700000D03*
X123260000Y-102700000D03*
X124260000Y-104700000D03*
X125260000Y-102700000D03*
X126260000Y-104700000D03*
X127260000Y-102700000D03*
X128260000Y-104700000D03*
X131260000Y-102700000D03*
X132260000Y-104700000D03*
X133260000Y-102700000D03*
X134260000Y-104700000D03*
X135260000Y-102700000D03*
X136260000Y-104700000D03*
X137260000Y-102700000D03*
X138260000Y-104700000D03*
X139260000Y-102700000D03*
X140260000Y-104700000D03*
X141260000Y-102700000D03*
X142260000Y-104700000D03*
X143260000Y-102700000D03*
X144260000Y-104700000D03*
X145260000Y-102700000D03*
X146260000Y-104700000D03*
X147260000Y-102700000D03*
X148260000Y-104700000D03*
X149260000Y-102700000D03*
X150260000Y-104700000D03*
X151260000Y-102700000D03*
X152260000Y-104700000D03*
X153260000Y-102700000D03*
X154260000Y-104700000D03*
X155260000Y-102700000D03*
X156260000Y-104700000D03*
X157260000Y-102700000D03*
X158260000Y-104700000D03*
X159260000Y-102700000D03*
X160260000Y-104700000D03*
X161260000Y-102700000D03*
X162260000Y-104700000D03*
X163260000Y-102700000D03*
X164260000Y-104700000D03*
X165260000Y-102700000D03*
X166260000Y-104700000D03*
X167260000Y-102700000D03*
X168260000Y-104700000D03*
%TD*%
M02*
